G04 #@! TF.GenerationSoftware,KiCad,Pcbnew,(5.1.2)-2*
G04 #@! TF.CreationDate,2021-11-10T11:27:13-03:00*
G04 #@! TF.ProjectId,MAG_Plus,4d41475f-506c-4757-932e-6b696361645f,rev?*
G04 #@! TF.SameCoordinates,Original*
G04 #@! TF.FileFunction,Soldermask,Bot*
G04 #@! TF.FilePolarity,Negative*
%FSLAX46Y46*%
G04 Gerber Fmt 4.6, Leading zero omitted, Abs format (unit mm)*
G04 Created by KiCad (PCBNEW (5.1.2)-2) date 2021-11-10 11:27:13*
%MOMM*%
%LPD*%
G04 APERTURE LIST*
%ADD10C,0.100000*%
G04 APERTURE END LIST*
D10*
G36*
X123720988Y-123007973D02*
G01*
X124283539Y-123240989D01*
X124308084Y-123251156D01*
X124836455Y-123604202D01*
X125285798Y-124053545D01*
X125638844Y-124581916D01*
X125638845Y-124581918D01*
X125882027Y-125169012D01*
X126006000Y-125792265D01*
X126006000Y-126427735D01*
X125882027Y-127050988D01*
X125638845Y-127638082D01*
X125638844Y-127638084D01*
X125285798Y-128166455D01*
X124836455Y-128615798D01*
X124308084Y-128968844D01*
X124308083Y-128968845D01*
X124308082Y-128968845D01*
X123720988Y-129212027D01*
X123097735Y-129336000D01*
X122462265Y-129336000D01*
X121839012Y-129212027D01*
X121251918Y-128968845D01*
X121251917Y-128968845D01*
X121251916Y-128968844D01*
X120723545Y-128615798D01*
X120274202Y-128166455D01*
X119921156Y-127638084D01*
X119921155Y-127638082D01*
X119677973Y-127050988D01*
X119554000Y-126427735D01*
X119554000Y-125792265D01*
X119677973Y-125169012D01*
X119921155Y-124581918D01*
X119921156Y-124581916D01*
X120274202Y-124053545D01*
X120723545Y-123604202D01*
X121251916Y-123251156D01*
X121276461Y-123240989D01*
X121839012Y-123007973D01*
X122462265Y-122884000D01*
X123097735Y-122884000D01*
X123720988Y-123007973D01*
X123720988Y-123007973D01*
G37*
G36*
X37990988Y-119197973D02*
G01*
X38578082Y-119441155D01*
X38578084Y-119441156D01*
X39106455Y-119794202D01*
X39555798Y-120243545D01*
X39908844Y-120771916D01*
X39908845Y-120771918D01*
X40152027Y-121359012D01*
X40276000Y-121982265D01*
X40276000Y-122617735D01*
X40152027Y-123240988D01*
X40147815Y-123251156D01*
X39908844Y-123828084D01*
X39555798Y-124356455D01*
X39106455Y-124805798D01*
X38578084Y-125158844D01*
X38578083Y-125158845D01*
X38578082Y-125158845D01*
X37990988Y-125402027D01*
X37367735Y-125526000D01*
X36732265Y-125526000D01*
X36109012Y-125402027D01*
X35521918Y-125158845D01*
X35521917Y-125158845D01*
X35521916Y-125158844D01*
X34993545Y-124805798D01*
X34544202Y-124356455D01*
X34191156Y-123828084D01*
X33952185Y-123251156D01*
X33947973Y-123240988D01*
X33824000Y-122617735D01*
X33824000Y-121982265D01*
X33947973Y-121359012D01*
X34191155Y-120771918D01*
X34191156Y-120771916D01*
X34544202Y-120243545D01*
X34993545Y-119794202D01*
X35521916Y-119441156D01*
X35521918Y-119441155D01*
X36109012Y-119197973D01*
X36732265Y-119074000D01*
X37367735Y-119074000D01*
X37990988Y-119197973D01*
X37990988Y-119197973D01*
G37*
G36*
X114938843Y-121022292D02*
G01*
X114989588Y-121043311D01*
X115025470Y-121058174D01*
X115103432Y-121110267D01*
X115169733Y-121176568D01*
X115221826Y-121254530D01*
X115221826Y-121254531D01*
X115257708Y-121341157D01*
X115276000Y-121433117D01*
X115276000Y-121526883D01*
X115257708Y-121618843D01*
X115236689Y-121669588D01*
X115221826Y-121705470D01*
X115169733Y-121783432D01*
X115103432Y-121849733D01*
X115025470Y-121901826D01*
X114989588Y-121916689D01*
X114938843Y-121937708D01*
X114846883Y-121956000D01*
X114753117Y-121956000D01*
X114661157Y-121937708D01*
X114610412Y-121916689D01*
X114574530Y-121901826D01*
X114496568Y-121849733D01*
X114430267Y-121783432D01*
X114378174Y-121705470D01*
X114363311Y-121669588D01*
X114342292Y-121618843D01*
X114324000Y-121526883D01*
X114324000Y-121433117D01*
X114342292Y-121341157D01*
X114378174Y-121254531D01*
X114378174Y-121254530D01*
X114430267Y-121176568D01*
X114496568Y-121110267D01*
X114574530Y-121058174D01*
X114610412Y-121043311D01*
X114661157Y-121022292D01*
X114753117Y-121004000D01*
X114846883Y-121004000D01*
X114938843Y-121022292D01*
X114938843Y-121022292D01*
G37*
G36*
X113688843Y-121022292D02*
G01*
X113739588Y-121043311D01*
X113775470Y-121058174D01*
X113853432Y-121110267D01*
X113919733Y-121176568D01*
X113971826Y-121254530D01*
X113971826Y-121254531D01*
X114007708Y-121341157D01*
X114026000Y-121433117D01*
X114026000Y-121526883D01*
X114007708Y-121618843D01*
X113986689Y-121669588D01*
X113971826Y-121705470D01*
X113919733Y-121783432D01*
X113853432Y-121849733D01*
X113775470Y-121901826D01*
X113739588Y-121916689D01*
X113688843Y-121937708D01*
X113596883Y-121956000D01*
X113503117Y-121956000D01*
X113411157Y-121937708D01*
X113360412Y-121916689D01*
X113324530Y-121901826D01*
X113246568Y-121849733D01*
X113180267Y-121783432D01*
X113128174Y-121705470D01*
X113113311Y-121669588D01*
X113092292Y-121618843D01*
X113074000Y-121526883D01*
X113074000Y-121433117D01*
X113092292Y-121341157D01*
X113128174Y-121254531D01*
X113128174Y-121254530D01*
X113180267Y-121176568D01*
X113246568Y-121110267D01*
X113324530Y-121058174D01*
X113360412Y-121043311D01*
X113411157Y-121022292D01*
X113503117Y-121004000D01*
X113596883Y-121004000D01*
X113688843Y-121022292D01*
X113688843Y-121022292D01*
G37*
G36*
X111526000Y-121956000D02*
G01*
X110574000Y-121956000D01*
X110574000Y-121004000D01*
X111526000Y-121004000D01*
X111526000Y-121956000D01*
X111526000Y-121956000D01*
G37*
G36*
X112438843Y-121022292D02*
G01*
X112489588Y-121043311D01*
X112525470Y-121058174D01*
X112603432Y-121110267D01*
X112669733Y-121176568D01*
X112721826Y-121254530D01*
X112721826Y-121254531D01*
X112757708Y-121341157D01*
X112776000Y-121433117D01*
X112776000Y-121526883D01*
X112757708Y-121618843D01*
X112736689Y-121669588D01*
X112721826Y-121705470D01*
X112669733Y-121783432D01*
X112603432Y-121849733D01*
X112525470Y-121901826D01*
X112489588Y-121916689D01*
X112438843Y-121937708D01*
X112346883Y-121956000D01*
X112253117Y-121956000D01*
X112161157Y-121937708D01*
X112110412Y-121916689D01*
X112074530Y-121901826D01*
X111996568Y-121849733D01*
X111930267Y-121783432D01*
X111878174Y-121705470D01*
X111863311Y-121669588D01*
X111842292Y-121618843D01*
X111824000Y-121526883D01*
X111824000Y-121433117D01*
X111842292Y-121341157D01*
X111878174Y-121254531D01*
X111878174Y-121254530D01*
X111930267Y-121176568D01*
X111996568Y-121110267D01*
X112074530Y-121058174D01*
X112110412Y-121043311D01*
X112161157Y-121022292D01*
X112253117Y-121004000D01*
X112346883Y-121004000D01*
X112438843Y-121022292D01*
X112438843Y-121022292D01*
G37*
G36*
X42358228Y-116401703D02*
G01*
X42513100Y-116465853D01*
X42652481Y-116558985D01*
X42771015Y-116677519D01*
X42864147Y-116816900D01*
X42928297Y-116971772D01*
X42961000Y-117136184D01*
X42961000Y-117303816D01*
X42928297Y-117468228D01*
X42864147Y-117623100D01*
X42771015Y-117762481D01*
X42652481Y-117881015D01*
X42513100Y-117974147D01*
X42358228Y-118038297D01*
X42193816Y-118071000D01*
X42026184Y-118071000D01*
X41861772Y-118038297D01*
X41706900Y-117974147D01*
X41567519Y-117881015D01*
X41448985Y-117762481D01*
X41355853Y-117623100D01*
X41291703Y-117468228D01*
X41259000Y-117303816D01*
X41259000Y-117136184D01*
X41291703Y-116971772D01*
X41355853Y-116816900D01*
X41448985Y-116677519D01*
X41567519Y-116558985D01*
X41706900Y-116465853D01*
X41861772Y-116401703D01*
X42026184Y-116369000D01*
X42193816Y-116369000D01*
X42358228Y-116401703D01*
X42358228Y-116401703D01*
G37*
G36*
X45501000Y-118071000D02*
G01*
X43799000Y-118071000D01*
X43799000Y-116369000D01*
X45501000Y-116369000D01*
X45501000Y-118071000D01*
X45501000Y-118071000D01*
G37*
G36*
X37278228Y-116401703D02*
G01*
X37433100Y-116465853D01*
X37572481Y-116558985D01*
X37691015Y-116677519D01*
X37784147Y-116816900D01*
X37848297Y-116971772D01*
X37881000Y-117136184D01*
X37881000Y-117303816D01*
X37848297Y-117468228D01*
X37784147Y-117623100D01*
X37691015Y-117762481D01*
X37572481Y-117881015D01*
X37433100Y-117974147D01*
X37278228Y-118038297D01*
X37113816Y-118071000D01*
X36946184Y-118071000D01*
X36781772Y-118038297D01*
X36626900Y-117974147D01*
X36487519Y-117881015D01*
X36368985Y-117762481D01*
X36275853Y-117623100D01*
X36211703Y-117468228D01*
X36179000Y-117303816D01*
X36179000Y-117136184D01*
X36211703Y-116971772D01*
X36275853Y-116816900D01*
X36368985Y-116677519D01*
X36487519Y-116558985D01*
X36626900Y-116465853D01*
X36781772Y-116401703D01*
X36946184Y-116369000D01*
X37113816Y-116369000D01*
X37278228Y-116401703D01*
X37278228Y-116401703D01*
G37*
G36*
X39818228Y-116401703D02*
G01*
X39973100Y-116465853D01*
X40112481Y-116558985D01*
X40231015Y-116677519D01*
X40324147Y-116816900D01*
X40388297Y-116971772D01*
X40421000Y-117136184D01*
X40421000Y-117303816D01*
X40388297Y-117468228D01*
X40324147Y-117623100D01*
X40231015Y-117762481D01*
X40112481Y-117881015D01*
X39973100Y-117974147D01*
X39818228Y-118038297D01*
X39653816Y-118071000D01*
X39486184Y-118071000D01*
X39321772Y-118038297D01*
X39166900Y-117974147D01*
X39027519Y-117881015D01*
X38908985Y-117762481D01*
X38815853Y-117623100D01*
X38751703Y-117468228D01*
X38719000Y-117303816D01*
X38719000Y-117136184D01*
X38751703Y-116971772D01*
X38815853Y-116816900D01*
X38908985Y-116677519D01*
X39027519Y-116558985D01*
X39166900Y-116465853D01*
X39321772Y-116401703D01*
X39486184Y-116369000D01*
X39653816Y-116369000D01*
X39818228Y-116401703D01*
X39818228Y-116401703D01*
G37*
G36*
X42358228Y-113861703D02*
G01*
X42513100Y-113925853D01*
X42652481Y-114018985D01*
X42771015Y-114137519D01*
X42864147Y-114276900D01*
X42928297Y-114431772D01*
X42961000Y-114596184D01*
X42961000Y-114763816D01*
X42928297Y-114928228D01*
X42864147Y-115083100D01*
X42771015Y-115222481D01*
X42652481Y-115341015D01*
X42513100Y-115434147D01*
X42358228Y-115498297D01*
X42193816Y-115531000D01*
X42026184Y-115531000D01*
X41861772Y-115498297D01*
X41706900Y-115434147D01*
X41567519Y-115341015D01*
X41448985Y-115222481D01*
X41355853Y-115083100D01*
X41291703Y-114928228D01*
X41259000Y-114763816D01*
X41259000Y-114596184D01*
X41291703Y-114431772D01*
X41355853Y-114276900D01*
X41448985Y-114137519D01*
X41567519Y-114018985D01*
X41706900Y-113925853D01*
X41861772Y-113861703D01*
X42026184Y-113829000D01*
X42193816Y-113829000D01*
X42358228Y-113861703D01*
X42358228Y-113861703D01*
G37*
G36*
X44898228Y-113861703D02*
G01*
X45053100Y-113925853D01*
X45192481Y-114018985D01*
X45311015Y-114137519D01*
X45404147Y-114276900D01*
X45468297Y-114431772D01*
X45501000Y-114596184D01*
X45501000Y-114763816D01*
X45468297Y-114928228D01*
X45404147Y-115083100D01*
X45311015Y-115222481D01*
X45192481Y-115341015D01*
X45053100Y-115434147D01*
X44898228Y-115498297D01*
X44733816Y-115531000D01*
X44566184Y-115531000D01*
X44401772Y-115498297D01*
X44246900Y-115434147D01*
X44107519Y-115341015D01*
X43988985Y-115222481D01*
X43895853Y-115083100D01*
X43831703Y-114928228D01*
X43799000Y-114763816D01*
X43799000Y-114596184D01*
X43831703Y-114431772D01*
X43895853Y-114276900D01*
X43988985Y-114137519D01*
X44107519Y-114018985D01*
X44246900Y-113925853D01*
X44401772Y-113861703D01*
X44566184Y-113829000D01*
X44733816Y-113829000D01*
X44898228Y-113861703D01*
X44898228Y-113861703D01*
G37*
G36*
X39818228Y-113861703D02*
G01*
X39973100Y-113925853D01*
X40112481Y-114018985D01*
X40231015Y-114137519D01*
X40324147Y-114276900D01*
X40388297Y-114431772D01*
X40421000Y-114596184D01*
X40421000Y-114763816D01*
X40388297Y-114928228D01*
X40324147Y-115083100D01*
X40231015Y-115222481D01*
X40112481Y-115341015D01*
X39973100Y-115434147D01*
X39818228Y-115498297D01*
X39653816Y-115531000D01*
X39486184Y-115531000D01*
X39321772Y-115498297D01*
X39166900Y-115434147D01*
X39027519Y-115341015D01*
X38908985Y-115222481D01*
X38815853Y-115083100D01*
X38751703Y-114928228D01*
X38719000Y-114763816D01*
X38719000Y-114596184D01*
X38751703Y-114431772D01*
X38815853Y-114276900D01*
X38908985Y-114137519D01*
X39027519Y-114018985D01*
X39166900Y-113925853D01*
X39321772Y-113861703D01*
X39486184Y-113829000D01*
X39653816Y-113829000D01*
X39818228Y-113861703D01*
X39818228Y-113861703D01*
G37*
G36*
X37278228Y-113861703D02*
G01*
X37433100Y-113925853D01*
X37572481Y-114018985D01*
X37691015Y-114137519D01*
X37784147Y-114276900D01*
X37848297Y-114431772D01*
X37881000Y-114596184D01*
X37881000Y-114763816D01*
X37848297Y-114928228D01*
X37784147Y-115083100D01*
X37691015Y-115222481D01*
X37572481Y-115341015D01*
X37433100Y-115434147D01*
X37278228Y-115498297D01*
X37113816Y-115531000D01*
X36946184Y-115531000D01*
X36781772Y-115498297D01*
X36626900Y-115434147D01*
X36487519Y-115341015D01*
X36368985Y-115222481D01*
X36275853Y-115083100D01*
X36211703Y-114928228D01*
X36179000Y-114763816D01*
X36179000Y-114596184D01*
X36211703Y-114431772D01*
X36275853Y-114276900D01*
X36368985Y-114137519D01*
X36487519Y-114018985D01*
X36626900Y-113925853D01*
X36781772Y-113861703D01*
X36946184Y-113829000D01*
X37113816Y-113829000D01*
X37278228Y-113861703D01*
X37278228Y-113861703D01*
G37*
G36*
X37278228Y-111321703D02*
G01*
X37433100Y-111385853D01*
X37572481Y-111478985D01*
X37691015Y-111597519D01*
X37784147Y-111736900D01*
X37848297Y-111891772D01*
X37881000Y-112056184D01*
X37881000Y-112223816D01*
X37848297Y-112388228D01*
X37784147Y-112543100D01*
X37691015Y-112682481D01*
X37572481Y-112801015D01*
X37433100Y-112894147D01*
X37278228Y-112958297D01*
X37113816Y-112991000D01*
X36946184Y-112991000D01*
X36781772Y-112958297D01*
X36626900Y-112894147D01*
X36487519Y-112801015D01*
X36368985Y-112682481D01*
X36275853Y-112543100D01*
X36211703Y-112388228D01*
X36179000Y-112223816D01*
X36179000Y-112056184D01*
X36211703Y-111891772D01*
X36275853Y-111736900D01*
X36368985Y-111597519D01*
X36487519Y-111478985D01*
X36626900Y-111385853D01*
X36781772Y-111321703D01*
X36946184Y-111289000D01*
X37113816Y-111289000D01*
X37278228Y-111321703D01*
X37278228Y-111321703D01*
G37*
G36*
X42358228Y-111321703D02*
G01*
X42513100Y-111385853D01*
X42652481Y-111478985D01*
X42771015Y-111597519D01*
X42864147Y-111736900D01*
X42928297Y-111891772D01*
X42961000Y-112056184D01*
X42961000Y-112223816D01*
X42928297Y-112388228D01*
X42864147Y-112543100D01*
X42771015Y-112682481D01*
X42652481Y-112801015D01*
X42513100Y-112894147D01*
X42358228Y-112958297D01*
X42193816Y-112991000D01*
X42026184Y-112991000D01*
X41861772Y-112958297D01*
X41706900Y-112894147D01*
X41567519Y-112801015D01*
X41448985Y-112682481D01*
X41355853Y-112543100D01*
X41291703Y-112388228D01*
X41259000Y-112223816D01*
X41259000Y-112056184D01*
X41291703Y-111891772D01*
X41355853Y-111736900D01*
X41448985Y-111597519D01*
X41567519Y-111478985D01*
X41706900Y-111385853D01*
X41861772Y-111321703D01*
X42026184Y-111289000D01*
X42193816Y-111289000D01*
X42358228Y-111321703D01*
X42358228Y-111321703D01*
G37*
G36*
X44898228Y-111321703D02*
G01*
X45053100Y-111385853D01*
X45192481Y-111478985D01*
X45311015Y-111597519D01*
X45404147Y-111736900D01*
X45468297Y-111891772D01*
X45501000Y-112056184D01*
X45501000Y-112223816D01*
X45468297Y-112388228D01*
X45404147Y-112543100D01*
X45311015Y-112682481D01*
X45192481Y-112801015D01*
X45053100Y-112894147D01*
X44898228Y-112958297D01*
X44733816Y-112991000D01*
X44566184Y-112991000D01*
X44401772Y-112958297D01*
X44246900Y-112894147D01*
X44107519Y-112801015D01*
X43988985Y-112682481D01*
X43895853Y-112543100D01*
X43831703Y-112388228D01*
X43799000Y-112223816D01*
X43799000Y-112056184D01*
X43831703Y-111891772D01*
X43895853Y-111736900D01*
X43988985Y-111597519D01*
X44107519Y-111478985D01*
X44246900Y-111385853D01*
X44401772Y-111321703D01*
X44566184Y-111289000D01*
X44733816Y-111289000D01*
X44898228Y-111321703D01*
X44898228Y-111321703D01*
G37*
G36*
X39818228Y-111321703D02*
G01*
X39973100Y-111385853D01*
X40112481Y-111478985D01*
X40231015Y-111597519D01*
X40324147Y-111736900D01*
X40388297Y-111891772D01*
X40421000Y-112056184D01*
X40421000Y-112223816D01*
X40388297Y-112388228D01*
X40324147Y-112543100D01*
X40231015Y-112682481D01*
X40112481Y-112801015D01*
X39973100Y-112894147D01*
X39818228Y-112958297D01*
X39653816Y-112991000D01*
X39486184Y-112991000D01*
X39321772Y-112958297D01*
X39166900Y-112894147D01*
X39027519Y-112801015D01*
X38908985Y-112682481D01*
X38815853Y-112543100D01*
X38751703Y-112388228D01*
X38719000Y-112223816D01*
X38719000Y-112056184D01*
X38751703Y-111891772D01*
X38815853Y-111736900D01*
X38908985Y-111597519D01*
X39027519Y-111478985D01*
X39166900Y-111385853D01*
X39321772Y-111321703D01*
X39486184Y-111289000D01*
X39653816Y-111289000D01*
X39818228Y-111321703D01*
X39818228Y-111321703D01*
G37*
G36*
X44898228Y-108781703D02*
G01*
X45053100Y-108845853D01*
X45192481Y-108938985D01*
X45311015Y-109057519D01*
X45404147Y-109196900D01*
X45468297Y-109351772D01*
X45501000Y-109516184D01*
X45501000Y-109683816D01*
X45468297Y-109848228D01*
X45404147Y-110003100D01*
X45311015Y-110142481D01*
X45192481Y-110261015D01*
X45053100Y-110354147D01*
X44898228Y-110418297D01*
X44733816Y-110451000D01*
X44566184Y-110451000D01*
X44401772Y-110418297D01*
X44246900Y-110354147D01*
X44107519Y-110261015D01*
X43988985Y-110142481D01*
X43895853Y-110003100D01*
X43831703Y-109848228D01*
X43799000Y-109683816D01*
X43799000Y-109516184D01*
X43831703Y-109351772D01*
X43895853Y-109196900D01*
X43988985Y-109057519D01*
X44107519Y-108938985D01*
X44246900Y-108845853D01*
X44401772Y-108781703D01*
X44566184Y-108749000D01*
X44733816Y-108749000D01*
X44898228Y-108781703D01*
X44898228Y-108781703D01*
G37*
G36*
X42358228Y-108781703D02*
G01*
X42513100Y-108845853D01*
X42652481Y-108938985D01*
X42771015Y-109057519D01*
X42864147Y-109196900D01*
X42928297Y-109351772D01*
X42961000Y-109516184D01*
X42961000Y-109683816D01*
X42928297Y-109848228D01*
X42864147Y-110003100D01*
X42771015Y-110142481D01*
X42652481Y-110261015D01*
X42513100Y-110354147D01*
X42358228Y-110418297D01*
X42193816Y-110451000D01*
X42026184Y-110451000D01*
X41861772Y-110418297D01*
X41706900Y-110354147D01*
X41567519Y-110261015D01*
X41448985Y-110142481D01*
X41355853Y-110003100D01*
X41291703Y-109848228D01*
X41259000Y-109683816D01*
X41259000Y-109516184D01*
X41291703Y-109351772D01*
X41355853Y-109196900D01*
X41448985Y-109057519D01*
X41567519Y-108938985D01*
X41706900Y-108845853D01*
X41861772Y-108781703D01*
X42026184Y-108749000D01*
X42193816Y-108749000D01*
X42358228Y-108781703D01*
X42358228Y-108781703D01*
G37*
G36*
X39818228Y-108781703D02*
G01*
X39973100Y-108845853D01*
X40112481Y-108938985D01*
X40231015Y-109057519D01*
X40324147Y-109196900D01*
X40388297Y-109351772D01*
X40421000Y-109516184D01*
X40421000Y-109683816D01*
X40388297Y-109848228D01*
X40324147Y-110003100D01*
X40231015Y-110142481D01*
X40112481Y-110261015D01*
X39973100Y-110354147D01*
X39818228Y-110418297D01*
X39653816Y-110451000D01*
X39486184Y-110451000D01*
X39321772Y-110418297D01*
X39166900Y-110354147D01*
X39027519Y-110261015D01*
X38908985Y-110142481D01*
X38815853Y-110003100D01*
X38751703Y-109848228D01*
X38719000Y-109683816D01*
X38719000Y-109516184D01*
X38751703Y-109351772D01*
X38815853Y-109196900D01*
X38908985Y-109057519D01*
X39027519Y-108938985D01*
X39166900Y-108845853D01*
X39321772Y-108781703D01*
X39486184Y-108749000D01*
X39653816Y-108749000D01*
X39818228Y-108781703D01*
X39818228Y-108781703D01*
G37*
G36*
X37278228Y-108781703D02*
G01*
X37433100Y-108845853D01*
X37572481Y-108938985D01*
X37691015Y-109057519D01*
X37784147Y-109196900D01*
X37848297Y-109351772D01*
X37881000Y-109516184D01*
X37881000Y-109683816D01*
X37848297Y-109848228D01*
X37784147Y-110003100D01*
X37691015Y-110142481D01*
X37572481Y-110261015D01*
X37433100Y-110354147D01*
X37278228Y-110418297D01*
X37113816Y-110451000D01*
X36946184Y-110451000D01*
X36781772Y-110418297D01*
X36626900Y-110354147D01*
X36487519Y-110261015D01*
X36368985Y-110142481D01*
X36275853Y-110003100D01*
X36211703Y-109848228D01*
X36179000Y-109683816D01*
X36179000Y-109516184D01*
X36211703Y-109351772D01*
X36275853Y-109196900D01*
X36368985Y-109057519D01*
X36487519Y-108938985D01*
X36626900Y-108845853D01*
X36781772Y-108781703D01*
X36946184Y-108749000D01*
X37113816Y-108749000D01*
X37278228Y-108781703D01*
X37278228Y-108781703D01*
G37*
G36*
X66257589Y-104937048D02*
G01*
X66414795Y-105002165D01*
X66635141Y-105093435D01*
X66636671Y-105094069D01*
X66977835Y-105322028D01*
X67267972Y-105612165D01*
X67495931Y-105953329D01*
X67652527Y-106331384D01*
X67652952Y-106332412D01*
X67717497Y-106656900D01*
X67733000Y-106734842D01*
X67733000Y-107145158D01*
X67652952Y-107547589D01*
X67495931Y-107926671D01*
X67267972Y-108267835D01*
X66977835Y-108557972D01*
X66636671Y-108785931D01*
X66257589Y-108942952D01*
X66056373Y-108982976D01*
X65855159Y-109023000D01*
X65444841Y-109023000D01*
X65243627Y-108982976D01*
X65042411Y-108942952D01*
X64663329Y-108785931D01*
X64322165Y-108557972D01*
X64032028Y-108267835D01*
X63804069Y-107926671D01*
X63647048Y-107547589D01*
X63567000Y-107145158D01*
X63567000Y-106734842D01*
X63582504Y-106656900D01*
X63647048Y-106332412D01*
X63647474Y-106331384D01*
X63804069Y-105953329D01*
X64032028Y-105612165D01*
X64322165Y-105322028D01*
X64663329Y-105094069D01*
X64664860Y-105093435D01*
X64885205Y-105002165D01*
X65042411Y-104937048D01*
X65243627Y-104897024D01*
X65444841Y-104857000D01*
X65855159Y-104857000D01*
X66257589Y-104937048D01*
X66257589Y-104937048D01*
G37*
G36*
X89227589Y-104937048D02*
G01*
X89384795Y-105002165D01*
X89605141Y-105093435D01*
X89606671Y-105094069D01*
X89947835Y-105322028D01*
X90237972Y-105612165D01*
X90465931Y-105953329D01*
X90622527Y-106331384D01*
X90622952Y-106332412D01*
X90687497Y-106656900D01*
X90703000Y-106734842D01*
X90703000Y-107145158D01*
X90622952Y-107547589D01*
X90465931Y-107926671D01*
X90237972Y-108267835D01*
X89947835Y-108557972D01*
X89606671Y-108785931D01*
X89227589Y-108942952D01*
X89026373Y-108982976D01*
X88825159Y-109023000D01*
X88414841Y-109023000D01*
X88213627Y-108982976D01*
X88012411Y-108942952D01*
X87633329Y-108785931D01*
X87292165Y-108557972D01*
X87002028Y-108267835D01*
X86774069Y-107926671D01*
X86617048Y-107547589D01*
X86537000Y-107145158D01*
X86537000Y-106734842D01*
X86552504Y-106656900D01*
X86617048Y-106332412D01*
X86617474Y-106331384D01*
X86774069Y-105953329D01*
X87002028Y-105612165D01*
X87292165Y-105322028D01*
X87633329Y-105094069D01*
X87634860Y-105093435D01*
X87855205Y-105002165D01*
X88012411Y-104937048D01*
X88213627Y-104897024D01*
X88414841Y-104857000D01*
X88825159Y-104857000D01*
X89227589Y-104937048D01*
X89227589Y-104937048D01*
G37*
G36*
X44898228Y-106241703D02*
G01*
X45053100Y-106305853D01*
X45192481Y-106398985D01*
X45311015Y-106517519D01*
X45404147Y-106656900D01*
X45468297Y-106811772D01*
X45501000Y-106976184D01*
X45501000Y-107143816D01*
X45468297Y-107308228D01*
X45404147Y-107463100D01*
X45311015Y-107602481D01*
X45192481Y-107721015D01*
X45053100Y-107814147D01*
X44898228Y-107878297D01*
X44733816Y-107911000D01*
X44566184Y-107911000D01*
X44401772Y-107878297D01*
X44246900Y-107814147D01*
X44107519Y-107721015D01*
X43988985Y-107602481D01*
X43895853Y-107463100D01*
X43831703Y-107308228D01*
X43799000Y-107143816D01*
X43799000Y-106976184D01*
X43831703Y-106811772D01*
X43895853Y-106656900D01*
X43988985Y-106517519D01*
X44107519Y-106398985D01*
X44246900Y-106305853D01*
X44401772Y-106241703D01*
X44566184Y-106209000D01*
X44733816Y-106209000D01*
X44898228Y-106241703D01*
X44898228Y-106241703D01*
G37*
G36*
X39818228Y-106241703D02*
G01*
X39973100Y-106305853D01*
X40112481Y-106398985D01*
X40231015Y-106517519D01*
X40324147Y-106656900D01*
X40388297Y-106811772D01*
X40421000Y-106976184D01*
X40421000Y-107143816D01*
X40388297Y-107308228D01*
X40324147Y-107463100D01*
X40231015Y-107602481D01*
X40112481Y-107721015D01*
X39973100Y-107814147D01*
X39818228Y-107878297D01*
X39653816Y-107911000D01*
X39486184Y-107911000D01*
X39321772Y-107878297D01*
X39166900Y-107814147D01*
X39027519Y-107721015D01*
X38908985Y-107602481D01*
X38815853Y-107463100D01*
X38751703Y-107308228D01*
X38719000Y-107143816D01*
X38719000Y-106976184D01*
X38751703Y-106811772D01*
X38815853Y-106656900D01*
X38908985Y-106517519D01*
X39027519Y-106398985D01*
X39166900Y-106305853D01*
X39321772Y-106241703D01*
X39486184Y-106209000D01*
X39653816Y-106209000D01*
X39818228Y-106241703D01*
X39818228Y-106241703D01*
G37*
G36*
X42358228Y-106241703D02*
G01*
X42513100Y-106305853D01*
X42652481Y-106398985D01*
X42771015Y-106517519D01*
X42864147Y-106656900D01*
X42928297Y-106811772D01*
X42961000Y-106976184D01*
X42961000Y-107143816D01*
X42928297Y-107308228D01*
X42864147Y-107463100D01*
X42771015Y-107602481D01*
X42652481Y-107721015D01*
X42513100Y-107814147D01*
X42358228Y-107878297D01*
X42193816Y-107911000D01*
X42026184Y-107911000D01*
X41861772Y-107878297D01*
X41706900Y-107814147D01*
X41567519Y-107721015D01*
X41448985Y-107602481D01*
X41355853Y-107463100D01*
X41291703Y-107308228D01*
X41259000Y-107143816D01*
X41259000Y-106976184D01*
X41291703Y-106811772D01*
X41355853Y-106656900D01*
X41448985Y-106517519D01*
X41567519Y-106398985D01*
X41706900Y-106305853D01*
X41861772Y-106241703D01*
X42026184Y-106209000D01*
X42193816Y-106209000D01*
X42358228Y-106241703D01*
X42358228Y-106241703D01*
G37*
G36*
X37278228Y-106241703D02*
G01*
X37433100Y-106305853D01*
X37572481Y-106398985D01*
X37691015Y-106517519D01*
X37784147Y-106656900D01*
X37848297Y-106811772D01*
X37881000Y-106976184D01*
X37881000Y-107143816D01*
X37848297Y-107308228D01*
X37784147Y-107463100D01*
X37691015Y-107602481D01*
X37572481Y-107721015D01*
X37433100Y-107814147D01*
X37278228Y-107878297D01*
X37113816Y-107911000D01*
X36946184Y-107911000D01*
X36781772Y-107878297D01*
X36626900Y-107814147D01*
X36487519Y-107721015D01*
X36368985Y-107602481D01*
X36275853Y-107463100D01*
X36211703Y-107308228D01*
X36179000Y-107143816D01*
X36179000Y-106976184D01*
X36211703Y-106811772D01*
X36275853Y-106656900D01*
X36368985Y-106517519D01*
X36487519Y-106398985D01*
X36626900Y-106305853D01*
X36781772Y-106241703D01*
X36946184Y-106209000D01*
X37113816Y-106209000D01*
X37278228Y-106241703D01*
X37278228Y-106241703D01*
G37*
G36*
X98756564Y-104489389D02*
G01*
X98947833Y-104568615D01*
X98947835Y-104568616D01*
X99000514Y-104603815D01*
X99119973Y-104683635D01*
X99266365Y-104830027D01*
X99381385Y-105002167D01*
X99460611Y-105193436D01*
X99501000Y-105396484D01*
X99501000Y-105603516D01*
X99460611Y-105806564D01*
X99422806Y-105897833D01*
X99381384Y-105997835D01*
X99266365Y-106169973D01*
X99119973Y-106316365D01*
X98947835Y-106431384D01*
X98947834Y-106431385D01*
X98947833Y-106431385D01*
X98756564Y-106510611D01*
X98553516Y-106551000D01*
X98346484Y-106551000D01*
X98143436Y-106510611D01*
X97952167Y-106431385D01*
X97952166Y-106431385D01*
X97952165Y-106431384D01*
X97780027Y-106316365D01*
X97633635Y-106169973D01*
X97518616Y-105997835D01*
X97477194Y-105897833D01*
X97439389Y-105806564D01*
X97399000Y-105603516D01*
X97399000Y-105396484D01*
X97439389Y-105193436D01*
X97518615Y-105002167D01*
X97633635Y-104830027D01*
X97780027Y-104683635D01*
X97899486Y-104603815D01*
X97952165Y-104568616D01*
X97952167Y-104568615D01*
X98143436Y-104489389D01*
X98346484Y-104449000D01*
X98553516Y-104449000D01*
X98756564Y-104489389D01*
X98756564Y-104489389D01*
G37*
G36*
X94956564Y-104489389D02*
G01*
X95147833Y-104568615D01*
X95147835Y-104568616D01*
X95200514Y-104603815D01*
X95319973Y-104683635D01*
X95466365Y-104830027D01*
X95581385Y-105002167D01*
X95660611Y-105193436D01*
X95701000Y-105396484D01*
X95701000Y-105603516D01*
X95660611Y-105806564D01*
X95622806Y-105897833D01*
X95581384Y-105997835D01*
X95466365Y-106169973D01*
X95319973Y-106316365D01*
X95147835Y-106431384D01*
X95147834Y-106431385D01*
X95147833Y-106431385D01*
X94956564Y-106510611D01*
X94753516Y-106551000D01*
X94546484Y-106551000D01*
X94343436Y-106510611D01*
X94152167Y-106431385D01*
X94152166Y-106431385D01*
X94152165Y-106431384D01*
X93980027Y-106316365D01*
X93833635Y-106169973D01*
X93718616Y-105997835D01*
X93677194Y-105897833D01*
X93639389Y-105806564D01*
X93599000Y-105603516D01*
X93599000Y-105396484D01*
X93639389Y-105193436D01*
X93718615Y-105002167D01*
X93833635Y-104830027D01*
X93980027Y-104683635D01*
X94099486Y-104603815D01*
X94152165Y-104568616D01*
X94152167Y-104568615D01*
X94343436Y-104489389D01*
X94546484Y-104449000D01*
X94753516Y-104449000D01*
X94956564Y-104489389D01*
X94956564Y-104489389D01*
G37*
G36*
X57556564Y-104389389D02*
G01*
X57747833Y-104468615D01*
X57747835Y-104468616D01*
X57919973Y-104583635D01*
X58066365Y-104730027D01*
X58151206Y-104857000D01*
X58181385Y-104902167D01*
X58260611Y-105093436D01*
X58301000Y-105296484D01*
X58301000Y-105503516D01*
X58260611Y-105706564D01*
X58219189Y-105806565D01*
X58181384Y-105897835D01*
X58066365Y-106069973D01*
X57919973Y-106216365D01*
X57747835Y-106331384D01*
X57747834Y-106331385D01*
X57747833Y-106331385D01*
X57556564Y-106410611D01*
X57353516Y-106451000D01*
X57146484Y-106451000D01*
X56943436Y-106410611D01*
X56752167Y-106331385D01*
X56752166Y-106331385D01*
X56752165Y-106331384D01*
X56580027Y-106216365D01*
X56433635Y-106069973D01*
X56318616Y-105897835D01*
X56280811Y-105806565D01*
X56239389Y-105706564D01*
X56199000Y-105503516D01*
X56199000Y-105296484D01*
X56239389Y-105093436D01*
X56318615Y-104902167D01*
X56348795Y-104857000D01*
X56433635Y-104730027D01*
X56580027Y-104583635D01*
X56752165Y-104468616D01*
X56752167Y-104468615D01*
X56943436Y-104389389D01*
X57146484Y-104349000D01*
X57353516Y-104349000D01*
X57556564Y-104389389D01*
X57556564Y-104389389D01*
G37*
G36*
X53456564Y-104389389D02*
G01*
X53647833Y-104468615D01*
X53647835Y-104468616D01*
X53819973Y-104583635D01*
X53966365Y-104730027D01*
X54051206Y-104857000D01*
X54081385Y-104902167D01*
X54160611Y-105093436D01*
X54201000Y-105296484D01*
X54201000Y-105503516D01*
X54160611Y-105706564D01*
X54119189Y-105806565D01*
X54081384Y-105897835D01*
X53966365Y-106069973D01*
X53819973Y-106216365D01*
X53647835Y-106331384D01*
X53647834Y-106331385D01*
X53647833Y-106331385D01*
X53456564Y-106410611D01*
X53253516Y-106451000D01*
X53046484Y-106451000D01*
X52843436Y-106410611D01*
X52652167Y-106331385D01*
X52652166Y-106331385D01*
X52652165Y-106331384D01*
X52480027Y-106216365D01*
X52333635Y-106069973D01*
X52218616Y-105897835D01*
X52180811Y-105806565D01*
X52139389Y-105706564D01*
X52099000Y-105503516D01*
X52099000Y-105296484D01*
X52139389Y-105093436D01*
X52218615Y-104902167D01*
X52248795Y-104857000D01*
X52333635Y-104730027D01*
X52480027Y-104583635D01*
X52652165Y-104468616D01*
X52652167Y-104468615D01*
X52843436Y-104389389D01*
X53046484Y-104349000D01*
X53253516Y-104349000D01*
X53456564Y-104389389D01*
X53456564Y-104389389D01*
G37*
G36*
X42358228Y-103701703D02*
G01*
X42513100Y-103765853D01*
X42652481Y-103858985D01*
X42771015Y-103977519D01*
X42864147Y-104116900D01*
X42928297Y-104271772D01*
X42961000Y-104436184D01*
X42961000Y-104603816D01*
X42928297Y-104768228D01*
X42864147Y-104923100D01*
X42771015Y-105062481D01*
X42652481Y-105181015D01*
X42513100Y-105274147D01*
X42358228Y-105338297D01*
X42193816Y-105371000D01*
X42026184Y-105371000D01*
X41861772Y-105338297D01*
X41706900Y-105274147D01*
X41567519Y-105181015D01*
X41448985Y-105062481D01*
X41355853Y-104923100D01*
X41291703Y-104768228D01*
X41259000Y-104603816D01*
X41259000Y-104436184D01*
X41291703Y-104271772D01*
X41355853Y-104116900D01*
X41448985Y-103977519D01*
X41567519Y-103858985D01*
X41706900Y-103765853D01*
X41861772Y-103701703D01*
X42026184Y-103669000D01*
X42193816Y-103669000D01*
X42358228Y-103701703D01*
X42358228Y-103701703D01*
G37*
G36*
X44898228Y-103701703D02*
G01*
X45053100Y-103765853D01*
X45192481Y-103858985D01*
X45311015Y-103977519D01*
X45404147Y-104116900D01*
X45468297Y-104271772D01*
X45501000Y-104436184D01*
X45501000Y-104603816D01*
X45468297Y-104768228D01*
X45404147Y-104923100D01*
X45311015Y-105062481D01*
X45192481Y-105181015D01*
X45053100Y-105274147D01*
X44898228Y-105338297D01*
X44733816Y-105371000D01*
X44566184Y-105371000D01*
X44401772Y-105338297D01*
X44246900Y-105274147D01*
X44107519Y-105181015D01*
X43988985Y-105062481D01*
X43895853Y-104923100D01*
X43831703Y-104768228D01*
X43799000Y-104603816D01*
X43799000Y-104436184D01*
X43831703Y-104271772D01*
X43895853Y-104116900D01*
X43988985Y-103977519D01*
X44107519Y-103858985D01*
X44246900Y-103765853D01*
X44401772Y-103701703D01*
X44566184Y-103669000D01*
X44733816Y-103669000D01*
X44898228Y-103701703D01*
X44898228Y-103701703D01*
G37*
G36*
X39818228Y-103701703D02*
G01*
X39973100Y-103765853D01*
X40112481Y-103858985D01*
X40231015Y-103977519D01*
X40324147Y-104116900D01*
X40388297Y-104271772D01*
X40421000Y-104436184D01*
X40421000Y-104603816D01*
X40388297Y-104768228D01*
X40324147Y-104923100D01*
X40231015Y-105062481D01*
X40112481Y-105181015D01*
X39973100Y-105274147D01*
X39818228Y-105338297D01*
X39653816Y-105371000D01*
X39486184Y-105371000D01*
X39321772Y-105338297D01*
X39166900Y-105274147D01*
X39027519Y-105181015D01*
X38908985Y-105062481D01*
X38815853Y-104923100D01*
X38751703Y-104768228D01*
X38719000Y-104603816D01*
X38719000Y-104436184D01*
X38751703Y-104271772D01*
X38815853Y-104116900D01*
X38908985Y-103977519D01*
X39027519Y-103858985D01*
X39166900Y-103765853D01*
X39321772Y-103701703D01*
X39486184Y-103669000D01*
X39653816Y-103669000D01*
X39818228Y-103701703D01*
X39818228Y-103701703D01*
G37*
G36*
X37278228Y-103701703D02*
G01*
X37433100Y-103765853D01*
X37572481Y-103858985D01*
X37691015Y-103977519D01*
X37784147Y-104116900D01*
X37848297Y-104271772D01*
X37881000Y-104436184D01*
X37881000Y-104603816D01*
X37848297Y-104768228D01*
X37784147Y-104923100D01*
X37691015Y-105062481D01*
X37572481Y-105181015D01*
X37433100Y-105274147D01*
X37278228Y-105338297D01*
X37113816Y-105371000D01*
X36946184Y-105371000D01*
X36781772Y-105338297D01*
X36626900Y-105274147D01*
X36487519Y-105181015D01*
X36368985Y-105062481D01*
X36275853Y-104923100D01*
X36211703Y-104768228D01*
X36179000Y-104603816D01*
X36179000Y-104436184D01*
X36211703Y-104271772D01*
X36275853Y-104116900D01*
X36368985Y-103977519D01*
X36487519Y-103858985D01*
X36626900Y-103765853D01*
X36781772Y-103701703D01*
X36946184Y-103669000D01*
X37113816Y-103669000D01*
X37278228Y-103701703D01*
X37278228Y-103701703D01*
G37*
G36*
X64520443Y-101065519D02*
G01*
X64586627Y-101072037D01*
X64756466Y-101123557D01*
X64912991Y-101207222D01*
X64948729Y-101236552D01*
X65050186Y-101319814D01*
X65133448Y-101421271D01*
X65162778Y-101457009D01*
X65246443Y-101613534D01*
X65297963Y-101783373D01*
X65315359Y-101960000D01*
X65297963Y-102136627D01*
X65246443Y-102306466D01*
X65162778Y-102462991D01*
X65133448Y-102498729D01*
X65050186Y-102600186D01*
X64948729Y-102683448D01*
X64912991Y-102712778D01*
X64756466Y-102796443D01*
X64586627Y-102847963D01*
X64520442Y-102854482D01*
X64454260Y-102861000D01*
X64365740Y-102861000D01*
X64299558Y-102854482D01*
X64233373Y-102847963D01*
X64063534Y-102796443D01*
X63907009Y-102712778D01*
X63871271Y-102683448D01*
X63769814Y-102600186D01*
X63686552Y-102498729D01*
X63657222Y-102462991D01*
X63573557Y-102306466D01*
X63522037Y-102136627D01*
X63504641Y-101960000D01*
X63522037Y-101783373D01*
X63573557Y-101613534D01*
X63657222Y-101457009D01*
X63686552Y-101421271D01*
X63769814Y-101319814D01*
X63871271Y-101236552D01*
X63907009Y-101207222D01*
X64063534Y-101123557D01*
X64233373Y-101072037D01*
X64299557Y-101065519D01*
X64365740Y-101059000D01*
X64454260Y-101059000D01*
X64520443Y-101065519D01*
X64520443Y-101065519D01*
G37*
G36*
X67060443Y-101065519D02*
G01*
X67126627Y-101072037D01*
X67296466Y-101123557D01*
X67452991Y-101207222D01*
X67488729Y-101236552D01*
X67590186Y-101319814D01*
X67673448Y-101421271D01*
X67702778Y-101457009D01*
X67786443Y-101613534D01*
X67837963Y-101783373D01*
X67855359Y-101960000D01*
X67837963Y-102136627D01*
X67786443Y-102306466D01*
X67702778Y-102462991D01*
X67673448Y-102498729D01*
X67590186Y-102600186D01*
X67488729Y-102683448D01*
X67452991Y-102712778D01*
X67296466Y-102796443D01*
X67126627Y-102847963D01*
X67060442Y-102854482D01*
X66994260Y-102861000D01*
X66905740Y-102861000D01*
X66839558Y-102854482D01*
X66773373Y-102847963D01*
X66603534Y-102796443D01*
X66447009Y-102712778D01*
X66411271Y-102683448D01*
X66309814Y-102600186D01*
X66226552Y-102498729D01*
X66197222Y-102462991D01*
X66113557Y-102306466D01*
X66062037Y-102136627D01*
X66044641Y-101960000D01*
X66062037Y-101783373D01*
X66113557Y-101613534D01*
X66197222Y-101457009D01*
X66226552Y-101421271D01*
X66309814Y-101319814D01*
X66411271Y-101236552D01*
X66447009Y-101207222D01*
X66603534Y-101123557D01*
X66773373Y-101072037D01*
X66839557Y-101065519D01*
X66905740Y-101059000D01*
X66994260Y-101059000D01*
X67060443Y-101065519D01*
X67060443Y-101065519D01*
G37*
G36*
X44898228Y-101161703D02*
G01*
X45053100Y-101225853D01*
X45192481Y-101318985D01*
X45311015Y-101437519D01*
X45404147Y-101576900D01*
X45468297Y-101731772D01*
X45501000Y-101896184D01*
X45501000Y-102063816D01*
X45468297Y-102228228D01*
X45404147Y-102383100D01*
X45311015Y-102522481D01*
X45192481Y-102641015D01*
X45053100Y-102734147D01*
X44898228Y-102798297D01*
X44733816Y-102831000D01*
X44566184Y-102831000D01*
X44401772Y-102798297D01*
X44246900Y-102734147D01*
X44107519Y-102641015D01*
X43988985Y-102522481D01*
X43895853Y-102383100D01*
X43831703Y-102228228D01*
X43799000Y-102063816D01*
X43799000Y-101896184D01*
X43831703Y-101731772D01*
X43895853Y-101576900D01*
X43988985Y-101437519D01*
X44107519Y-101318985D01*
X44246900Y-101225853D01*
X44401772Y-101161703D01*
X44566184Y-101129000D01*
X44733816Y-101129000D01*
X44898228Y-101161703D01*
X44898228Y-101161703D01*
G37*
G36*
X42358228Y-101161703D02*
G01*
X42513100Y-101225853D01*
X42652481Y-101318985D01*
X42771015Y-101437519D01*
X42864147Y-101576900D01*
X42928297Y-101731772D01*
X42961000Y-101896184D01*
X42961000Y-102063816D01*
X42928297Y-102228228D01*
X42864147Y-102383100D01*
X42771015Y-102522481D01*
X42652481Y-102641015D01*
X42513100Y-102734147D01*
X42358228Y-102798297D01*
X42193816Y-102831000D01*
X42026184Y-102831000D01*
X41861772Y-102798297D01*
X41706900Y-102734147D01*
X41567519Y-102641015D01*
X41448985Y-102522481D01*
X41355853Y-102383100D01*
X41291703Y-102228228D01*
X41259000Y-102063816D01*
X41259000Y-101896184D01*
X41291703Y-101731772D01*
X41355853Y-101576900D01*
X41448985Y-101437519D01*
X41567519Y-101318985D01*
X41706900Y-101225853D01*
X41861772Y-101161703D01*
X42026184Y-101129000D01*
X42193816Y-101129000D01*
X42358228Y-101161703D01*
X42358228Y-101161703D01*
G37*
G36*
X37278228Y-101161703D02*
G01*
X37433100Y-101225853D01*
X37572481Y-101318985D01*
X37691015Y-101437519D01*
X37784147Y-101576900D01*
X37848297Y-101731772D01*
X37881000Y-101896184D01*
X37881000Y-102063816D01*
X37848297Y-102228228D01*
X37784147Y-102383100D01*
X37691015Y-102522481D01*
X37572481Y-102641015D01*
X37433100Y-102734147D01*
X37278228Y-102798297D01*
X37113816Y-102831000D01*
X36946184Y-102831000D01*
X36781772Y-102798297D01*
X36626900Y-102734147D01*
X36487519Y-102641015D01*
X36368985Y-102522481D01*
X36275853Y-102383100D01*
X36211703Y-102228228D01*
X36179000Y-102063816D01*
X36179000Y-101896184D01*
X36211703Y-101731772D01*
X36275853Y-101576900D01*
X36368985Y-101437519D01*
X36487519Y-101318985D01*
X36626900Y-101225853D01*
X36781772Y-101161703D01*
X36946184Y-101129000D01*
X37113816Y-101129000D01*
X37278228Y-101161703D01*
X37278228Y-101161703D01*
G37*
G36*
X39818228Y-101161703D02*
G01*
X39973100Y-101225853D01*
X40112481Y-101318985D01*
X40231015Y-101437519D01*
X40324147Y-101576900D01*
X40388297Y-101731772D01*
X40421000Y-101896184D01*
X40421000Y-102063816D01*
X40388297Y-102228228D01*
X40324147Y-102383100D01*
X40231015Y-102522481D01*
X40112481Y-102641015D01*
X39973100Y-102734147D01*
X39818228Y-102798297D01*
X39653816Y-102831000D01*
X39486184Y-102831000D01*
X39321772Y-102798297D01*
X39166900Y-102734147D01*
X39027519Y-102641015D01*
X38908985Y-102522481D01*
X38815853Y-102383100D01*
X38751703Y-102228228D01*
X38719000Y-102063816D01*
X38719000Y-101896184D01*
X38751703Y-101731772D01*
X38815853Y-101576900D01*
X38908985Y-101437519D01*
X39027519Y-101318985D01*
X39166900Y-101225853D01*
X39321772Y-101161703D01*
X39486184Y-101129000D01*
X39653816Y-101129000D01*
X39818228Y-101161703D01*
X39818228Y-101161703D01*
G37*
G36*
X118756000Y-102396000D02*
G01*
X117804000Y-102396000D01*
X117804000Y-101444000D01*
X118756000Y-101444000D01*
X118756000Y-102396000D01*
X118756000Y-102396000D01*
G37*
G36*
X118418843Y-100212292D02*
G01*
X118469588Y-100233311D01*
X118505470Y-100248174D01*
X118583432Y-100300267D01*
X118649733Y-100366568D01*
X118701826Y-100444530D01*
X118701826Y-100444531D01*
X118737708Y-100531157D01*
X118756000Y-100623117D01*
X118756000Y-100716883D01*
X118737708Y-100808843D01*
X118716689Y-100859588D01*
X118701826Y-100895470D01*
X118649733Y-100973432D01*
X118583432Y-101039733D01*
X118505470Y-101091826D01*
X118469588Y-101106689D01*
X118418843Y-101127708D01*
X118326883Y-101146000D01*
X118233117Y-101146000D01*
X118141157Y-101127708D01*
X118090412Y-101106689D01*
X118054530Y-101091826D01*
X117976568Y-101039733D01*
X117910267Y-100973432D01*
X117858174Y-100895470D01*
X117843311Y-100859588D01*
X117822292Y-100808843D01*
X117804000Y-100716883D01*
X117804000Y-100623117D01*
X117822292Y-100531157D01*
X117858174Y-100444531D01*
X117858174Y-100444530D01*
X117910267Y-100366568D01*
X117976568Y-100300267D01*
X118054530Y-100248174D01*
X118090412Y-100233311D01*
X118141157Y-100212292D01*
X118233117Y-100194000D01*
X118326883Y-100194000D01*
X118418843Y-100212292D01*
X118418843Y-100212292D01*
G37*
G36*
X67060442Y-98525518D02*
G01*
X67126627Y-98532037D01*
X67296466Y-98583557D01*
X67452991Y-98667222D01*
X67488729Y-98696552D01*
X67590186Y-98779814D01*
X67673448Y-98881271D01*
X67702778Y-98917009D01*
X67786443Y-99073534D01*
X67837963Y-99243373D01*
X67855359Y-99420000D01*
X67837963Y-99596627D01*
X67786443Y-99766466D01*
X67702778Y-99922991D01*
X67673448Y-99958729D01*
X67590186Y-100060186D01*
X67488729Y-100143448D01*
X67452991Y-100172778D01*
X67296466Y-100256443D01*
X67126627Y-100307963D01*
X67060443Y-100314481D01*
X66994260Y-100321000D01*
X66905740Y-100321000D01*
X66839557Y-100314481D01*
X66773373Y-100307963D01*
X66603534Y-100256443D01*
X66447009Y-100172778D01*
X66411271Y-100143448D01*
X66309814Y-100060186D01*
X66226552Y-99958729D01*
X66197222Y-99922991D01*
X66113557Y-99766466D01*
X66062037Y-99596627D01*
X66044641Y-99420000D01*
X66062037Y-99243373D01*
X66113557Y-99073534D01*
X66197222Y-98917009D01*
X66226552Y-98881271D01*
X66309814Y-98779814D01*
X66411271Y-98696552D01*
X66447009Y-98667222D01*
X66603534Y-98583557D01*
X66773373Y-98532037D01*
X66839558Y-98525518D01*
X66905740Y-98519000D01*
X66994260Y-98519000D01*
X67060442Y-98525518D01*
X67060442Y-98525518D01*
G37*
G36*
X64520442Y-98525518D02*
G01*
X64586627Y-98532037D01*
X64756466Y-98583557D01*
X64912991Y-98667222D01*
X64948729Y-98696552D01*
X65050186Y-98779814D01*
X65133448Y-98881271D01*
X65162778Y-98917009D01*
X65246443Y-99073534D01*
X65297963Y-99243373D01*
X65315359Y-99420000D01*
X65297963Y-99596627D01*
X65246443Y-99766466D01*
X65162778Y-99922991D01*
X65133448Y-99958729D01*
X65050186Y-100060186D01*
X64948729Y-100143448D01*
X64912991Y-100172778D01*
X64756466Y-100256443D01*
X64586627Y-100307963D01*
X64520443Y-100314481D01*
X64454260Y-100321000D01*
X64365740Y-100321000D01*
X64299557Y-100314481D01*
X64233373Y-100307963D01*
X64063534Y-100256443D01*
X63907009Y-100172778D01*
X63871271Y-100143448D01*
X63769814Y-100060186D01*
X63686552Y-99958729D01*
X63657222Y-99922991D01*
X63573557Y-99766466D01*
X63522037Y-99596627D01*
X63504641Y-99420000D01*
X63522037Y-99243373D01*
X63573557Y-99073534D01*
X63657222Y-98917009D01*
X63686552Y-98881271D01*
X63769814Y-98779814D01*
X63871271Y-98696552D01*
X63907009Y-98667222D01*
X64063534Y-98583557D01*
X64233373Y-98532037D01*
X64299558Y-98525518D01*
X64365740Y-98519000D01*
X64454260Y-98519000D01*
X64520442Y-98525518D01*
X64520442Y-98525518D01*
G37*
G36*
X37278228Y-98621703D02*
G01*
X37433100Y-98685853D01*
X37572481Y-98778985D01*
X37691015Y-98897519D01*
X37784147Y-99036900D01*
X37848297Y-99191772D01*
X37881000Y-99356184D01*
X37881000Y-99523816D01*
X37848297Y-99688228D01*
X37784147Y-99843100D01*
X37691015Y-99982481D01*
X37572481Y-100101015D01*
X37433100Y-100194147D01*
X37278228Y-100258297D01*
X37113816Y-100291000D01*
X36946184Y-100291000D01*
X36781772Y-100258297D01*
X36626900Y-100194147D01*
X36487519Y-100101015D01*
X36368985Y-99982481D01*
X36275853Y-99843100D01*
X36211703Y-99688228D01*
X36179000Y-99523816D01*
X36179000Y-99356184D01*
X36211703Y-99191772D01*
X36275853Y-99036900D01*
X36368985Y-98897519D01*
X36487519Y-98778985D01*
X36626900Y-98685853D01*
X36781772Y-98621703D01*
X36946184Y-98589000D01*
X37113816Y-98589000D01*
X37278228Y-98621703D01*
X37278228Y-98621703D01*
G37*
G36*
X44898228Y-98621703D02*
G01*
X45053100Y-98685853D01*
X45192481Y-98778985D01*
X45311015Y-98897519D01*
X45404147Y-99036900D01*
X45468297Y-99191772D01*
X45501000Y-99356184D01*
X45501000Y-99523816D01*
X45468297Y-99688228D01*
X45404147Y-99843100D01*
X45311015Y-99982481D01*
X45192481Y-100101015D01*
X45053100Y-100194147D01*
X44898228Y-100258297D01*
X44733816Y-100291000D01*
X44566184Y-100291000D01*
X44401772Y-100258297D01*
X44246900Y-100194147D01*
X44107519Y-100101015D01*
X43988985Y-99982481D01*
X43895853Y-99843100D01*
X43831703Y-99688228D01*
X43799000Y-99523816D01*
X43799000Y-99356184D01*
X43831703Y-99191772D01*
X43895853Y-99036900D01*
X43988985Y-98897519D01*
X44107519Y-98778985D01*
X44246900Y-98685853D01*
X44401772Y-98621703D01*
X44566184Y-98589000D01*
X44733816Y-98589000D01*
X44898228Y-98621703D01*
X44898228Y-98621703D01*
G37*
G36*
X42358228Y-98621703D02*
G01*
X42513100Y-98685853D01*
X42652481Y-98778985D01*
X42771015Y-98897519D01*
X42864147Y-99036900D01*
X42928297Y-99191772D01*
X42961000Y-99356184D01*
X42961000Y-99523816D01*
X42928297Y-99688228D01*
X42864147Y-99843100D01*
X42771015Y-99982481D01*
X42652481Y-100101015D01*
X42513100Y-100194147D01*
X42358228Y-100258297D01*
X42193816Y-100291000D01*
X42026184Y-100291000D01*
X41861772Y-100258297D01*
X41706900Y-100194147D01*
X41567519Y-100101015D01*
X41448985Y-99982481D01*
X41355853Y-99843100D01*
X41291703Y-99688228D01*
X41259000Y-99523816D01*
X41259000Y-99356184D01*
X41291703Y-99191772D01*
X41355853Y-99036900D01*
X41448985Y-98897519D01*
X41567519Y-98778985D01*
X41706900Y-98685853D01*
X41861772Y-98621703D01*
X42026184Y-98589000D01*
X42193816Y-98589000D01*
X42358228Y-98621703D01*
X42358228Y-98621703D01*
G37*
G36*
X39818228Y-98621703D02*
G01*
X39973100Y-98685853D01*
X40112481Y-98778985D01*
X40231015Y-98897519D01*
X40324147Y-99036900D01*
X40388297Y-99191772D01*
X40421000Y-99356184D01*
X40421000Y-99523816D01*
X40388297Y-99688228D01*
X40324147Y-99843100D01*
X40231015Y-99982481D01*
X40112481Y-100101015D01*
X39973100Y-100194147D01*
X39818228Y-100258297D01*
X39653816Y-100291000D01*
X39486184Y-100291000D01*
X39321772Y-100258297D01*
X39166900Y-100194147D01*
X39027519Y-100101015D01*
X38908985Y-99982481D01*
X38815853Y-99843100D01*
X38751703Y-99688228D01*
X38719000Y-99523816D01*
X38719000Y-99356184D01*
X38751703Y-99191772D01*
X38815853Y-99036900D01*
X38908985Y-98897519D01*
X39027519Y-98778985D01*
X39166900Y-98685853D01*
X39321772Y-98621703D01*
X39486184Y-98589000D01*
X39653816Y-98589000D01*
X39818228Y-98621703D01*
X39818228Y-98621703D01*
G37*
G36*
X118418843Y-98962292D02*
G01*
X118469588Y-98983311D01*
X118505470Y-98998174D01*
X118583432Y-99050267D01*
X118649733Y-99116568D01*
X118701826Y-99194530D01*
X118701826Y-99194531D01*
X118737708Y-99281157D01*
X118756000Y-99373117D01*
X118756000Y-99466883D01*
X118737708Y-99558843D01*
X118722058Y-99596625D01*
X118701826Y-99645470D01*
X118649733Y-99723432D01*
X118583432Y-99789733D01*
X118505470Y-99841826D01*
X118469588Y-99856689D01*
X118418843Y-99877708D01*
X118326883Y-99896000D01*
X118233117Y-99896000D01*
X118141157Y-99877708D01*
X118090412Y-99856689D01*
X118054530Y-99841826D01*
X117976568Y-99789733D01*
X117910267Y-99723432D01*
X117858174Y-99645470D01*
X117837942Y-99596625D01*
X117822292Y-99558843D01*
X117804000Y-99466883D01*
X117804000Y-99373117D01*
X117822292Y-99281157D01*
X117858174Y-99194531D01*
X117858174Y-99194530D01*
X117910267Y-99116568D01*
X117976568Y-99050267D01*
X118054530Y-98998174D01*
X118090412Y-98983311D01*
X118141157Y-98962292D01*
X118233117Y-98944000D01*
X118326883Y-98944000D01*
X118418843Y-98962292D01*
X118418843Y-98962292D01*
G37*
G36*
X118418843Y-97712292D02*
G01*
X118469588Y-97733311D01*
X118505470Y-97748174D01*
X118583432Y-97800267D01*
X118649733Y-97866568D01*
X118701826Y-97944530D01*
X118701826Y-97944531D01*
X118737708Y-98031157D01*
X118756000Y-98123117D01*
X118756000Y-98216883D01*
X118737708Y-98308843D01*
X118716689Y-98359588D01*
X118701826Y-98395470D01*
X118649733Y-98473432D01*
X118583432Y-98539733D01*
X118505470Y-98591826D01*
X118469588Y-98606689D01*
X118418843Y-98627708D01*
X118326883Y-98646000D01*
X118233117Y-98646000D01*
X118141157Y-98627708D01*
X118090412Y-98606689D01*
X118054530Y-98591826D01*
X117976568Y-98539733D01*
X117910267Y-98473432D01*
X117858174Y-98395470D01*
X117843311Y-98359588D01*
X117822292Y-98308843D01*
X117804000Y-98216883D01*
X117804000Y-98123117D01*
X117822292Y-98031157D01*
X117858174Y-97944531D01*
X117858174Y-97944530D01*
X117910267Y-97866568D01*
X117976568Y-97800267D01*
X118054530Y-97748174D01*
X118090412Y-97733311D01*
X118141157Y-97712292D01*
X118233117Y-97694000D01*
X118326883Y-97694000D01*
X118418843Y-97712292D01*
X118418843Y-97712292D01*
G37*
G36*
X64520442Y-95985518D02*
G01*
X64586627Y-95992037D01*
X64756466Y-96043557D01*
X64912991Y-96127222D01*
X64935872Y-96146000D01*
X65050186Y-96239814D01*
X65133448Y-96341271D01*
X65162778Y-96377009D01*
X65246443Y-96533534D01*
X65297963Y-96703373D01*
X65315359Y-96880000D01*
X65297963Y-97056627D01*
X65246443Y-97226466D01*
X65162778Y-97382991D01*
X65133448Y-97418729D01*
X65050186Y-97520186D01*
X64948729Y-97603448D01*
X64912991Y-97632778D01*
X64756466Y-97716443D01*
X64586627Y-97767963D01*
X64520443Y-97774481D01*
X64454260Y-97781000D01*
X64365740Y-97781000D01*
X64299557Y-97774481D01*
X64233373Y-97767963D01*
X64063534Y-97716443D01*
X63907009Y-97632778D01*
X63871271Y-97603448D01*
X63769814Y-97520186D01*
X63686552Y-97418729D01*
X63657222Y-97382991D01*
X63573557Y-97226466D01*
X63522037Y-97056627D01*
X63504641Y-96880000D01*
X63522037Y-96703373D01*
X63573557Y-96533534D01*
X63657222Y-96377009D01*
X63686552Y-96341271D01*
X63769814Y-96239814D01*
X63884128Y-96146000D01*
X63907009Y-96127222D01*
X64063534Y-96043557D01*
X64233373Y-95992037D01*
X64299558Y-95985518D01*
X64365740Y-95979000D01*
X64454260Y-95979000D01*
X64520442Y-95985518D01*
X64520442Y-95985518D01*
G37*
G36*
X67060442Y-95985518D02*
G01*
X67126627Y-95992037D01*
X67296466Y-96043557D01*
X67452991Y-96127222D01*
X67475872Y-96146000D01*
X67590186Y-96239814D01*
X67673448Y-96341271D01*
X67702778Y-96377009D01*
X67786443Y-96533534D01*
X67837963Y-96703373D01*
X67855359Y-96880000D01*
X67837963Y-97056627D01*
X67786443Y-97226466D01*
X67702778Y-97382991D01*
X67673448Y-97418729D01*
X67590186Y-97520186D01*
X67488729Y-97603448D01*
X67452991Y-97632778D01*
X67296466Y-97716443D01*
X67126627Y-97767963D01*
X67060443Y-97774481D01*
X66994260Y-97781000D01*
X66905740Y-97781000D01*
X66839557Y-97774481D01*
X66773373Y-97767963D01*
X66603534Y-97716443D01*
X66447009Y-97632778D01*
X66411271Y-97603448D01*
X66309814Y-97520186D01*
X66226552Y-97418729D01*
X66197222Y-97382991D01*
X66113557Y-97226466D01*
X66062037Y-97056627D01*
X66044641Y-96880000D01*
X66062037Y-96703373D01*
X66113557Y-96533534D01*
X66197222Y-96377009D01*
X66226552Y-96341271D01*
X66309814Y-96239814D01*
X66424128Y-96146000D01*
X66447009Y-96127222D01*
X66603534Y-96043557D01*
X66773373Y-95992037D01*
X66839558Y-95985518D01*
X66905740Y-95979000D01*
X66994260Y-95979000D01*
X67060442Y-95985518D01*
X67060442Y-95985518D01*
G37*
G36*
X37278228Y-96081703D02*
G01*
X37433100Y-96145853D01*
X37572481Y-96238985D01*
X37691015Y-96357519D01*
X37784147Y-96496900D01*
X37848297Y-96651772D01*
X37881000Y-96816184D01*
X37881000Y-96983816D01*
X37848297Y-97148228D01*
X37784147Y-97303100D01*
X37691015Y-97442481D01*
X37572481Y-97561015D01*
X37433100Y-97654147D01*
X37278228Y-97718297D01*
X37113816Y-97751000D01*
X36946184Y-97751000D01*
X36781772Y-97718297D01*
X36626900Y-97654147D01*
X36487519Y-97561015D01*
X36368985Y-97442481D01*
X36275853Y-97303100D01*
X36211703Y-97148228D01*
X36179000Y-96983816D01*
X36179000Y-96816184D01*
X36211703Y-96651772D01*
X36275853Y-96496900D01*
X36368985Y-96357519D01*
X36487519Y-96238985D01*
X36626900Y-96145853D01*
X36781772Y-96081703D01*
X36946184Y-96049000D01*
X37113816Y-96049000D01*
X37278228Y-96081703D01*
X37278228Y-96081703D01*
G37*
G36*
X44898228Y-96081703D02*
G01*
X45053100Y-96145853D01*
X45192481Y-96238985D01*
X45311015Y-96357519D01*
X45404147Y-96496900D01*
X45468297Y-96651772D01*
X45501000Y-96816184D01*
X45501000Y-96983816D01*
X45468297Y-97148228D01*
X45404147Y-97303100D01*
X45311015Y-97442481D01*
X45192481Y-97561015D01*
X45053100Y-97654147D01*
X44898228Y-97718297D01*
X44733816Y-97751000D01*
X44566184Y-97751000D01*
X44401772Y-97718297D01*
X44246900Y-97654147D01*
X44107519Y-97561015D01*
X43988985Y-97442481D01*
X43895853Y-97303100D01*
X43831703Y-97148228D01*
X43799000Y-96983816D01*
X43799000Y-96816184D01*
X43831703Y-96651772D01*
X43895853Y-96496900D01*
X43988985Y-96357519D01*
X44107519Y-96238985D01*
X44246900Y-96145853D01*
X44401772Y-96081703D01*
X44566184Y-96049000D01*
X44733816Y-96049000D01*
X44898228Y-96081703D01*
X44898228Y-96081703D01*
G37*
G36*
X42358228Y-96081703D02*
G01*
X42513100Y-96145853D01*
X42652481Y-96238985D01*
X42771015Y-96357519D01*
X42864147Y-96496900D01*
X42928297Y-96651772D01*
X42961000Y-96816184D01*
X42961000Y-96983816D01*
X42928297Y-97148228D01*
X42864147Y-97303100D01*
X42771015Y-97442481D01*
X42652481Y-97561015D01*
X42513100Y-97654147D01*
X42358228Y-97718297D01*
X42193816Y-97751000D01*
X42026184Y-97751000D01*
X41861772Y-97718297D01*
X41706900Y-97654147D01*
X41567519Y-97561015D01*
X41448985Y-97442481D01*
X41355853Y-97303100D01*
X41291703Y-97148228D01*
X41259000Y-96983816D01*
X41259000Y-96816184D01*
X41291703Y-96651772D01*
X41355853Y-96496900D01*
X41448985Y-96357519D01*
X41567519Y-96238985D01*
X41706900Y-96145853D01*
X41861772Y-96081703D01*
X42026184Y-96049000D01*
X42193816Y-96049000D01*
X42358228Y-96081703D01*
X42358228Y-96081703D01*
G37*
G36*
X39818228Y-96081703D02*
G01*
X39973100Y-96145853D01*
X40112481Y-96238985D01*
X40231015Y-96357519D01*
X40324147Y-96496900D01*
X40388297Y-96651772D01*
X40421000Y-96816184D01*
X40421000Y-96983816D01*
X40388297Y-97148228D01*
X40324147Y-97303100D01*
X40231015Y-97442481D01*
X40112481Y-97561015D01*
X39973100Y-97654147D01*
X39818228Y-97718297D01*
X39653816Y-97751000D01*
X39486184Y-97751000D01*
X39321772Y-97718297D01*
X39166900Y-97654147D01*
X39027519Y-97561015D01*
X38908985Y-97442481D01*
X38815853Y-97303100D01*
X38751703Y-97148228D01*
X38719000Y-96983816D01*
X38719000Y-96816184D01*
X38751703Y-96651772D01*
X38815853Y-96496900D01*
X38908985Y-96357519D01*
X39027519Y-96238985D01*
X39166900Y-96145853D01*
X39321772Y-96081703D01*
X39486184Y-96049000D01*
X39653816Y-96049000D01*
X39818228Y-96081703D01*
X39818228Y-96081703D01*
G37*
G36*
X118418843Y-96462292D02*
G01*
X118469588Y-96483311D01*
X118505470Y-96498174D01*
X118583432Y-96550267D01*
X118649733Y-96616568D01*
X118701826Y-96694530D01*
X118716689Y-96730412D01*
X118737708Y-96781157D01*
X118756000Y-96873117D01*
X118756000Y-96966883D01*
X118737708Y-97058843D01*
X118716689Y-97109588D01*
X118701826Y-97145470D01*
X118649733Y-97223432D01*
X118583432Y-97289733D01*
X118505470Y-97341826D01*
X118469588Y-97356689D01*
X118418843Y-97377708D01*
X118326883Y-97396000D01*
X118233117Y-97396000D01*
X118141157Y-97377708D01*
X118090412Y-97356689D01*
X118054530Y-97341826D01*
X117976568Y-97289733D01*
X117910267Y-97223432D01*
X117858174Y-97145470D01*
X117843311Y-97109588D01*
X117822292Y-97058843D01*
X117804000Y-96966883D01*
X117804000Y-96873117D01*
X117822292Y-96781157D01*
X117843311Y-96730412D01*
X117858174Y-96694530D01*
X117910267Y-96616568D01*
X117976568Y-96550267D01*
X118054530Y-96498174D01*
X118090412Y-96483311D01*
X118141157Y-96462292D01*
X118233117Y-96444000D01*
X118326883Y-96444000D01*
X118418843Y-96462292D01*
X118418843Y-96462292D01*
G37*
G36*
X118418843Y-95212292D02*
G01*
X118469588Y-95233311D01*
X118505470Y-95248174D01*
X118583432Y-95300267D01*
X118649733Y-95366568D01*
X118701826Y-95444530D01*
X118701826Y-95444531D01*
X118737708Y-95531157D01*
X118756000Y-95623117D01*
X118756000Y-95716883D01*
X118737708Y-95808843D01*
X118716689Y-95859588D01*
X118701826Y-95895470D01*
X118649733Y-95973432D01*
X118583432Y-96039733D01*
X118505470Y-96091826D01*
X118469588Y-96106689D01*
X118418843Y-96127708D01*
X118326883Y-96146000D01*
X118233117Y-96146000D01*
X118141157Y-96127708D01*
X118090412Y-96106689D01*
X118054530Y-96091826D01*
X117976568Y-96039733D01*
X117910267Y-95973432D01*
X117858174Y-95895470D01*
X117843311Y-95859588D01*
X117822292Y-95808843D01*
X117804000Y-95716883D01*
X117804000Y-95623117D01*
X117822292Y-95531157D01*
X117858174Y-95444531D01*
X117858174Y-95444530D01*
X117910267Y-95366568D01*
X117976568Y-95300267D01*
X118054530Y-95248174D01*
X118090412Y-95233311D01*
X118141157Y-95212292D01*
X118233117Y-95194000D01*
X118326883Y-95194000D01*
X118418843Y-95212292D01*
X118418843Y-95212292D01*
G37*
G36*
X64520443Y-93445519D02*
G01*
X64586627Y-93452037D01*
X64756466Y-93503557D01*
X64912991Y-93587222D01*
X64948729Y-93616552D01*
X65050186Y-93699814D01*
X65133448Y-93801271D01*
X65162778Y-93837009D01*
X65246443Y-93993534D01*
X65297963Y-94163373D01*
X65315359Y-94340000D01*
X65297963Y-94516627D01*
X65246443Y-94686466D01*
X65162778Y-94842991D01*
X65133448Y-94878729D01*
X65050186Y-94980186D01*
X64948729Y-95063448D01*
X64912991Y-95092778D01*
X64756466Y-95176443D01*
X64586627Y-95227963D01*
X64520442Y-95234482D01*
X64454260Y-95241000D01*
X64365740Y-95241000D01*
X64299558Y-95234482D01*
X64233373Y-95227963D01*
X64063534Y-95176443D01*
X63907009Y-95092778D01*
X63871271Y-95063448D01*
X63769814Y-94980186D01*
X63686552Y-94878729D01*
X63657222Y-94842991D01*
X63573557Y-94686466D01*
X63522037Y-94516627D01*
X63504641Y-94340000D01*
X63522037Y-94163373D01*
X63573557Y-93993534D01*
X63657222Y-93837009D01*
X63686552Y-93801271D01*
X63769814Y-93699814D01*
X63871271Y-93616552D01*
X63907009Y-93587222D01*
X64063534Y-93503557D01*
X64233373Y-93452037D01*
X64299557Y-93445519D01*
X64365740Y-93439000D01*
X64454260Y-93439000D01*
X64520443Y-93445519D01*
X64520443Y-93445519D01*
G37*
G36*
X67060443Y-93445519D02*
G01*
X67126627Y-93452037D01*
X67296466Y-93503557D01*
X67452991Y-93587222D01*
X67488729Y-93616552D01*
X67590186Y-93699814D01*
X67673448Y-93801271D01*
X67702778Y-93837009D01*
X67786443Y-93993534D01*
X67837963Y-94163373D01*
X67855359Y-94340000D01*
X67837963Y-94516627D01*
X67786443Y-94686466D01*
X67702778Y-94842991D01*
X67673448Y-94878729D01*
X67590186Y-94980186D01*
X67488729Y-95063448D01*
X67452991Y-95092778D01*
X67296466Y-95176443D01*
X67126627Y-95227963D01*
X67060442Y-95234482D01*
X66994260Y-95241000D01*
X66905740Y-95241000D01*
X66839558Y-95234482D01*
X66773373Y-95227963D01*
X66603534Y-95176443D01*
X66447009Y-95092778D01*
X66411271Y-95063448D01*
X66309814Y-94980186D01*
X66226552Y-94878729D01*
X66197222Y-94842991D01*
X66113557Y-94686466D01*
X66062037Y-94516627D01*
X66044641Y-94340000D01*
X66062037Y-94163373D01*
X66113557Y-93993534D01*
X66197222Y-93837009D01*
X66226552Y-93801271D01*
X66309814Y-93699814D01*
X66411271Y-93616552D01*
X66447009Y-93587222D01*
X66603534Y-93503557D01*
X66773373Y-93452037D01*
X66839557Y-93445519D01*
X66905740Y-93439000D01*
X66994260Y-93439000D01*
X67060443Y-93445519D01*
X67060443Y-93445519D01*
G37*
G36*
X44898228Y-93541703D02*
G01*
X45053100Y-93605853D01*
X45192481Y-93698985D01*
X45311015Y-93817519D01*
X45404147Y-93956900D01*
X45468297Y-94111772D01*
X45501000Y-94276184D01*
X45501000Y-94443816D01*
X45468297Y-94608228D01*
X45404147Y-94763100D01*
X45311015Y-94902481D01*
X45192481Y-95021015D01*
X45053100Y-95114147D01*
X44898228Y-95178297D01*
X44733816Y-95211000D01*
X44566184Y-95211000D01*
X44401772Y-95178297D01*
X44246900Y-95114147D01*
X44107519Y-95021015D01*
X43988985Y-94902481D01*
X43895853Y-94763100D01*
X43831703Y-94608228D01*
X43799000Y-94443816D01*
X43799000Y-94276184D01*
X43831703Y-94111772D01*
X43895853Y-93956900D01*
X43988985Y-93817519D01*
X44107519Y-93698985D01*
X44246900Y-93605853D01*
X44401772Y-93541703D01*
X44566184Y-93509000D01*
X44733816Y-93509000D01*
X44898228Y-93541703D01*
X44898228Y-93541703D01*
G37*
G36*
X42358228Y-93541703D02*
G01*
X42513100Y-93605853D01*
X42652481Y-93698985D01*
X42771015Y-93817519D01*
X42864147Y-93956900D01*
X42928297Y-94111772D01*
X42961000Y-94276184D01*
X42961000Y-94443816D01*
X42928297Y-94608228D01*
X42864147Y-94763100D01*
X42771015Y-94902481D01*
X42652481Y-95021015D01*
X42513100Y-95114147D01*
X42358228Y-95178297D01*
X42193816Y-95211000D01*
X42026184Y-95211000D01*
X41861772Y-95178297D01*
X41706900Y-95114147D01*
X41567519Y-95021015D01*
X41448985Y-94902481D01*
X41355853Y-94763100D01*
X41291703Y-94608228D01*
X41259000Y-94443816D01*
X41259000Y-94276184D01*
X41291703Y-94111772D01*
X41355853Y-93956900D01*
X41448985Y-93817519D01*
X41567519Y-93698985D01*
X41706900Y-93605853D01*
X41861772Y-93541703D01*
X42026184Y-93509000D01*
X42193816Y-93509000D01*
X42358228Y-93541703D01*
X42358228Y-93541703D01*
G37*
G36*
X37278228Y-93541703D02*
G01*
X37433100Y-93605853D01*
X37572481Y-93698985D01*
X37691015Y-93817519D01*
X37784147Y-93956900D01*
X37848297Y-94111772D01*
X37881000Y-94276184D01*
X37881000Y-94443816D01*
X37848297Y-94608228D01*
X37784147Y-94763100D01*
X37691015Y-94902481D01*
X37572481Y-95021015D01*
X37433100Y-95114147D01*
X37278228Y-95178297D01*
X37113816Y-95211000D01*
X36946184Y-95211000D01*
X36781772Y-95178297D01*
X36626900Y-95114147D01*
X36487519Y-95021015D01*
X36368985Y-94902481D01*
X36275853Y-94763100D01*
X36211703Y-94608228D01*
X36179000Y-94443816D01*
X36179000Y-94276184D01*
X36211703Y-94111772D01*
X36275853Y-93956900D01*
X36368985Y-93817519D01*
X36487519Y-93698985D01*
X36626900Y-93605853D01*
X36781772Y-93541703D01*
X36946184Y-93509000D01*
X37113816Y-93509000D01*
X37278228Y-93541703D01*
X37278228Y-93541703D01*
G37*
G36*
X39818228Y-93541703D02*
G01*
X39973100Y-93605853D01*
X40112481Y-93698985D01*
X40231015Y-93817519D01*
X40324147Y-93956900D01*
X40388297Y-94111772D01*
X40421000Y-94276184D01*
X40421000Y-94443816D01*
X40388297Y-94608228D01*
X40324147Y-94763100D01*
X40231015Y-94902481D01*
X40112481Y-95021015D01*
X39973100Y-95114147D01*
X39818228Y-95178297D01*
X39653816Y-95211000D01*
X39486184Y-95211000D01*
X39321772Y-95178297D01*
X39166900Y-95114147D01*
X39027519Y-95021015D01*
X38908985Y-94902481D01*
X38815853Y-94763100D01*
X38751703Y-94608228D01*
X38719000Y-94443816D01*
X38719000Y-94276184D01*
X38751703Y-94111772D01*
X38815853Y-93956900D01*
X38908985Y-93817519D01*
X39027519Y-93698985D01*
X39166900Y-93605853D01*
X39321772Y-93541703D01*
X39486184Y-93509000D01*
X39653816Y-93509000D01*
X39818228Y-93541703D01*
X39818228Y-93541703D01*
G37*
G36*
X67060443Y-90905519D02*
G01*
X67126627Y-90912037D01*
X67296466Y-90963557D01*
X67452991Y-91047222D01*
X67488729Y-91076552D01*
X67590186Y-91159814D01*
X67673448Y-91261271D01*
X67702778Y-91297009D01*
X67786443Y-91453534D01*
X67837963Y-91623373D01*
X67855359Y-91800000D01*
X67837963Y-91976627D01*
X67786443Y-92146466D01*
X67702778Y-92302991D01*
X67673448Y-92338729D01*
X67590186Y-92440186D01*
X67488729Y-92523448D01*
X67452991Y-92552778D01*
X67296466Y-92636443D01*
X67126627Y-92687963D01*
X67060442Y-92694482D01*
X66994260Y-92701000D01*
X66905740Y-92701000D01*
X66839558Y-92694482D01*
X66773373Y-92687963D01*
X66603534Y-92636443D01*
X66447009Y-92552778D01*
X66411271Y-92523448D01*
X66309814Y-92440186D01*
X66226552Y-92338729D01*
X66197222Y-92302991D01*
X66113557Y-92146466D01*
X66062037Y-91976627D01*
X66044641Y-91800000D01*
X66062037Y-91623373D01*
X66113557Y-91453534D01*
X66197222Y-91297009D01*
X66226552Y-91261271D01*
X66309814Y-91159814D01*
X66411271Y-91076552D01*
X66447009Y-91047222D01*
X66603534Y-90963557D01*
X66773373Y-90912037D01*
X66839557Y-90905519D01*
X66905740Y-90899000D01*
X66994260Y-90899000D01*
X67060443Y-90905519D01*
X67060443Y-90905519D01*
G37*
G36*
X64520443Y-90905519D02*
G01*
X64586627Y-90912037D01*
X64756466Y-90963557D01*
X64912991Y-91047222D01*
X64948729Y-91076552D01*
X65050186Y-91159814D01*
X65133448Y-91261271D01*
X65162778Y-91297009D01*
X65246443Y-91453534D01*
X65297963Y-91623373D01*
X65315359Y-91800000D01*
X65297963Y-91976627D01*
X65246443Y-92146466D01*
X65162778Y-92302991D01*
X65133448Y-92338729D01*
X65050186Y-92440186D01*
X64948729Y-92523448D01*
X64912991Y-92552778D01*
X64756466Y-92636443D01*
X64586627Y-92687963D01*
X64520442Y-92694482D01*
X64454260Y-92701000D01*
X64365740Y-92701000D01*
X64299558Y-92694482D01*
X64233373Y-92687963D01*
X64063534Y-92636443D01*
X63907009Y-92552778D01*
X63871271Y-92523448D01*
X63769814Y-92440186D01*
X63686552Y-92338729D01*
X63657222Y-92302991D01*
X63573557Y-92146466D01*
X63522037Y-91976627D01*
X63504641Y-91800000D01*
X63522037Y-91623373D01*
X63573557Y-91453534D01*
X63657222Y-91297009D01*
X63686552Y-91261271D01*
X63769814Y-91159814D01*
X63871271Y-91076552D01*
X63907009Y-91047222D01*
X64063534Y-90963557D01*
X64233373Y-90912037D01*
X64299557Y-90905519D01*
X64365740Y-90899000D01*
X64454260Y-90899000D01*
X64520443Y-90905519D01*
X64520443Y-90905519D01*
G37*
G36*
X42358228Y-91001703D02*
G01*
X42513100Y-91065853D01*
X42652481Y-91158985D01*
X42771015Y-91277519D01*
X42864147Y-91416900D01*
X42928297Y-91571772D01*
X42961000Y-91736184D01*
X42961000Y-91903816D01*
X42928297Y-92068228D01*
X42864147Y-92223100D01*
X42771015Y-92362481D01*
X42652481Y-92481015D01*
X42513100Y-92574147D01*
X42358228Y-92638297D01*
X42193816Y-92671000D01*
X42026184Y-92671000D01*
X41861772Y-92638297D01*
X41706900Y-92574147D01*
X41567519Y-92481015D01*
X41448985Y-92362481D01*
X41355853Y-92223100D01*
X41291703Y-92068228D01*
X41259000Y-91903816D01*
X41259000Y-91736184D01*
X41291703Y-91571772D01*
X41355853Y-91416900D01*
X41448985Y-91277519D01*
X41567519Y-91158985D01*
X41706900Y-91065853D01*
X41861772Y-91001703D01*
X42026184Y-90969000D01*
X42193816Y-90969000D01*
X42358228Y-91001703D01*
X42358228Y-91001703D01*
G37*
G36*
X37278228Y-91001703D02*
G01*
X37433100Y-91065853D01*
X37572481Y-91158985D01*
X37691015Y-91277519D01*
X37784147Y-91416900D01*
X37848297Y-91571772D01*
X37881000Y-91736184D01*
X37881000Y-91903816D01*
X37848297Y-92068228D01*
X37784147Y-92223100D01*
X37691015Y-92362481D01*
X37572481Y-92481015D01*
X37433100Y-92574147D01*
X37278228Y-92638297D01*
X37113816Y-92671000D01*
X36946184Y-92671000D01*
X36781772Y-92638297D01*
X36626900Y-92574147D01*
X36487519Y-92481015D01*
X36368985Y-92362481D01*
X36275853Y-92223100D01*
X36211703Y-92068228D01*
X36179000Y-91903816D01*
X36179000Y-91736184D01*
X36211703Y-91571772D01*
X36275853Y-91416900D01*
X36368985Y-91277519D01*
X36487519Y-91158985D01*
X36626900Y-91065853D01*
X36781772Y-91001703D01*
X36946184Y-90969000D01*
X37113816Y-90969000D01*
X37278228Y-91001703D01*
X37278228Y-91001703D01*
G37*
G36*
X44898228Y-91001703D02*
G01*
X45053100Y-91065853D01*
X45192481Y-91158985D01*
X45311015Y-91277519D01*
X45404147Y-91416900D01*
X45468297Y-91571772D01*
X45501000Y-91736184D01*
X45501000Y-91903816D01*
X45468297Y-92068228D01*
X45404147Y-92223100D01*
X45311015Y-92362481D01*
X45192481Y-92481015D01*
X45053100Y-92574147D01*
X44898228Y-92638297D01*
X44733816Y-92671000D01*
X44566184Y-92671000D01*
X44401772Y-92638297D01*
X44246900Y-92574147D01*
X44107519Y-92481015D01*
X43988985Y-92362481D01*
X43895853Y-92223100D01*
X43831703Y-92068228D01*
X43799000Y-91903816D01*
X43799000Y-91736184D01*
X43831703Y-91571772D01*
X43895853Y-91416900D01*
X43988985Y-91277519D01*
X44107519Y-91158985D01*
X44246900Y-91065853D01*
X44401772Y-91001703D01*
X44566184Y-90969000D01*
X44733816Y-90969000D01*
X44898228Y-91001703D01*
X44898228Y-91001703D01*
G37*
G36*
X39818228Y-91001703D02*
G01*
X39973100Y-91065853D01*
X40112481Y-91158985D01*
X40231015Y-91277519D01*
X40324147Y-91416900D01*
X40388297Y-91571772D01*
X40421000Y-91736184D01*
X40421000Y-91903816D01*
X40388297Y-92068228D01*
X40324147Y-92223100D01*
X40231015Y-92362481D01*
X40112481Y-92481015D01*
X39973100Y-92574147D01*
X39818228Y-92638297D01*
X39653816Y-92671000D01*
X39486184Y-92671000D01*
X39321772Y-92638297D01*
X39166900Y-92574147D01*
X39027519Y-92481015D01*
X38908985Y-92362481D01*
X38815853Y-92223100D01*
X38751703Y-92068228D01*
X38719000Y-91903816D01*
X38719000Y-91736184D01*
X38751703Y-91571772D01*
X38815853Y-91416900D01*
X38908985Y-91277519D01*
X39027519Y-91158985D01*
X39166900Y-91065853D01*
X39321772Y-91001703D01*
X39486184Y-90969000D01*
X39653816Y-90969000D01*
X39818228Y-91001703D01*
X39818228Y-91001703D01*
G37*
G36*
X67060442Y-88365518D02*
G01*
X67126627Y-88372037D01*
X67296466Y-88423557D01*
X67452991Y-88507222D01*
X67488729Y-88536552D01*
X67590186Y-88619814D01*
X67673448Y-88721271D01*
X67702778Y-88757009D01*
X67786443Y-88913534D01*
X67837963Y-89083373D01*
X67855359Y-89260000D01*
X67837963Y-89436627D01*
X67786443Y-89606466D01*
X67702778Y-89762991D01*
X67673448Y-89798729D01*
X67590186Y-89900186D01*
X67488729Y-89983448D01*
X67452991Y-90012778D01*
X67296466Y-90096443D01*
X67126627Y-90147963D01*
X67060442Y-90154482D01*
X66994260Y-90161000D01*
X66905740Y-90161000D01*
X66839558Y-90154482D01*
X66773373Y-90147963D01*
X66603534Y-90096443D01*
X66447009Y-90012778D01*
X66411271Y-89983448D01*
X66309814Y-89900186D01*
X66226552Y-89798729D01*
X66197222Y-89762991D01*
X66113557Y-89606466D01*
X66062037Y-89436627D01*
X66044641Y-89260000D01*
X66062037Y-89083373D01*
X66113557Y-88913534D01*
X66197222Y-88757009D01*
X66226552Y-88721271D01*
X66309814Y-88619814D01*
X66411271Y-88536552D01*
X66447009Y-88507222D01*
X66603534Y-88423557D01*
X66773373Y-88372037D01*
X66839558Y-88365518D01*
X66905740Y-88359000D01*
X66994260Y-88359000D01*
X67060442Y-88365518D01*
X67060442Y-88365518D01*
G37*
G36*
X64520442Y-88365518D02*
G01*
X64586627Y-88372037D01*
X64756466Y-88423557D01*
X64912991Y-88507222D01*
X64948729Y-88536552D01*
X65050186Y-88619814D01*
X65133448Y-88721271D01*
X65162778Y-88757009D01*
X65246443Y-88913534D01*
X65297963Y-89083373D01*
X65315359Y-89260000D01*
X65297963Y-89436627D01*
X65246443Y-89606466D01*
X65162778Y-89762991D01*
X65133448Y-89798729D01*
X65050186Y-89900186D01*
X64948729Y-89983448D01*
X64912991Y-90012778D01*
X64756466Y-90096443D01*
X64586627Y-90147963D01*
X64520442Y-90154482D01*
X64454260Y-90161000D01*
X64365740Y-90161000D01*
X64299558Y-90154482D01*
X64233373Y-90147963D01*
X64063534Y-90096443D01*
X63907009Y-90012778D01*
X63871271Y-89983448D01*
X63769814Y-89900186D01*
X63686552Y-89798729D01*
X63657222Y-89762991D01*
X63573557Y-89606466D01*
X63522037Y-89436627D01*
X63504641Y-89260000D01*
X63522037Y-89083373D01*
X63573557Y-88913534D01*
X63657222Y-88757009D01*
X63686552Y-88721271D01*
X63769814Y-88619814D01*
X63871271Y-88536552D01*
X63907009Y-88507222D01*
X64063534Y-88423557D01*
X64233373Y-88372037D01*
X64299558Y-88365518D01*
X64365740Y-88359000D01*
X64454260Y-88359000D01*
X64520442Y-88365518D01*
X64520442Y-88365518D01*
G37*
G36*
X39818228Y-88461703D02*
G01*
X39973100Y-88525853D01*
X40112481Y-88618985D01*
X40231015Y-88737519D01*
X40324147Y-88876900D01*
X40388297Y-89031772D01*
X40421000Y-89196184D01*
X40421000Y-89363816D01*
X40388297Y-89528228D01*
X40324147Y-89683100D01*
X40231015Y-89822481D01*
X40112481Y-89941015D01*
X39973100Y-90034147D01*
X39818228Y-90098297D01*
X39653816Y-90131000D01*
X39486184Y-90131000D01*
X39321772Y-90098297D01*
X39166900Y-90034147D01*
X39027519Y-89941015D01*
X38908985Y-89822481D01*
X38815853Y-89683100D01*
X38751703Y-89528228D01*
X38719000Y-89363816D01*
X38719000Y-89196184D01*
X38751703Y-89031772D01*
X38815853Y-88876900D01*
X38908985Y-88737519D01*
X39027519Y-88618985D01*
X39166900Y-88525853D01*
X39321772Y-88461703D01*
X39486184Y-88429000D01*
X39653816Y-88429000D01*
X39818228Y-88461703D01*
X39818228Y-88461703D01*
G37*
G36*
X42358228Y-88461703D02*
G01*
X42513100Y-88525853D01*
X42652481Y-88618985D01*
X42771015Y-88737519D01*
X42864147Y-88876900D01*
X42928297Y-89031772D01*
X42961000Y-89196184D01*
X42961000Y-89363816D01*
X42928297Y-89528228D01*
X42864147Y-89683100D01*
X42771015Y-89822481D01*
X42652481Y-89941015D01*
X42513100Y-90034147D01*
X42358228Y-90098297D01*
X42193816Y-90131000D01*
X42026184Y-90131000D01*
X41861772Y-90098297D01*
X41706900Y-90034147D01*
X41567519Y-89941015D01*
X41448985Y-89822481D01*
X41355853Y-89683100D01*
X41291703Y-89528228D01*
X41259000Y-89363816D01*
X41259000Y-89196184D01*
X41291703Y-89031772D01*
X41355853Y-88876900D01*
X41448985Y-88737519D01*
X41567519Y-88618985D01*
X41706900Y-88525853D01*
X41861772Y-88461703D01*
X42026184Y-88429000D01*
X42193816Y-88429000D01*
X42358228Y-88461703D01*
X42358228Y-88461703D01*
G37*
G36*
X44898228Y-88461703D02*
G01*
X45053100Y-88525853D01*
X45192481Y-88618985D01*
X45311015Y-88737519D01*
X45404147Y-88876900D01*
X45468297Y-89031772D01*
X45501000Y-89196184D01*
X45501000Y-89363816D01*
X45468297Y-89528228D01*
X45404147Y-89683100D01*
X45311015Y-89822481D01*
X45192481Y-89941015D01*
X45053100Y-90034147D01*
X44898228Y-90098297D01*
X44733816Y-90131000D01*
X44566184Y-90131000D01*
X44401772Y-90098297D01*
X44246900Y-90034147D01*
X44107519Y-89941015D01*
X43988985Y-89822481D01*
X43895853Y-89683100D01*
X43831703Y-89528228D01*
X43799000Y-89363816D01*
X43799000Y-89196184D01*
X43831703Y-89031772D01*
X43895853Y-88876900D01*
X43988985Y-88737519D01*
X44107519Y-88618985D01*
X44246900Y-88525853D01*
X44401772Y-88461703D01*
X44566184Y-88429000D01*
X44733816Y-88429000D01*
X44898228Y-88461703D01*
X44898228Y-88461703D01*
G37*
G36*
X37278228Y-88461703D02*
G01*
X37433100Y-88525853D01*
X37572481Y-88618985D01*
X37691015Y-88737519D01*
X37784147Y-88876900D01*
X37848297Y-89031772D01*
X37881000Y-89196184D01*
X37881000Y-89363816D01*
X37848297Y-89528228D01*
X37784147Y-89683100D01*
X37691015Y-89822481D01*
X37572481Y-89941015D01*
X37433100Y-90034147D01*
X37278228Y-90098297D01*
X37113816Y-90131000D01*
X36946184Y-90131000D01*
X36781772Y-90098297D01*
X36626900Y-90034147D01*
X36487519Y-89941015D01*
X36368985Y-89822481D01*
X36275853Y-89683100D01*
X36211703Y-89528228D01*
X36179000Y-89363816D01*
X36179000Y-89196184D01*
X36211703Y-89031772D01*
X36275853Y-88876900D01*
X36368985Y-88737519D01*
X36487519Y-88618985D01*
X36626900Y-88525853D01*
X36781772Y-88461703D01*
X36946184Y-88429000D01*
X37113816Y-88429000D01*
X37278228Y-88461703D01*
X37278228Y-88461703D01*
G37*
G36*
X67060442Y-85825518D02*
G01*
X67126627Y-85832037D01*
X67296466Y-85883557D01*
X67452991Y-85967222D01*
X67488729Y-85996552D01*
X67590186Y-86079814D01*
X67673448Y-86181271D01*
X67702778Y-86217009D01*
X67786443Y-86373534D01*
X67837963Y-86543373D01*
X67855359Y-86720000D01*
X67837963Y-86896627D01*
X67786443Y-87066466D01*
X67702778Y-87222991D01*
X67673448Y-87258729D01*
X67590186Y-87360186D01*
X67488729Y-87443448D01*
X67452991Y-87472778D01*
X67296466Y-87556443D01*
X67126627Y-87607963D01*
X67060443Y-87614481D01*
X66994260Y-87621000D01*
X66905740Y-87621000D01*
X66839557Y-87614481D01*
X66773373Y-87607963D01*
X66603534Y-87556443D01*
X66447009Y-87472778D01*
X66411271Y-87443448D01*
X66309814Y-87360186D01*
X66226552Y-87258729D01*
X66197222Y-87222991D01*
X66113557Y-87066466D01*
X66062037Y-86896627D01*
X66044641Y-86720000D01*
X66062037Y-86543373D01*
X66113557Y-86373534D01*
X66197222Y-86217009D01*
X66226552Y-86181271D01*
X66309814Y-86079814D01*
X66411271Y-85996552D01*
X66447009Y-85967222D01*
X66603534Y-85883557D01*
X66773373Y-85832037D01*
X66839558Y-85825518D01*
X66905740Y-85819000D01*
X66994260Y-85819000D01*
X67060442Y-85825518D01*
X67060442Y-85825518D01*
G37*
G36*
X64520442Y-85825518D02*
G01*
X64586627Y-85832037D01*
X64756466Y-85883557D01*
X64912991Y-85967222D01*
X64948729Y-85996552D01*
X65050186Y-86079814D01*
X65133448Y-86181271D01*
X65162778Y-86217009D01*
X65246443Y-86373534D01*
X65297963Y-86543373D01*
X65315359Y-86720000D01*
X65297963Y-86896627D01*
X65246443Y-87066466D01*
X65162778Y-87222991D01*
X65133448Y-87258729D01*
X65050186Y-87360186D01*
X64948729Y-87443448D01*
X64912991Y-87472778D01*
X64756466Y-87556443D01*
X64586627Y-87607963D01*
X64520443Y-87614481D01*
X64454260Y-87621000D01*
X64365740Y-87621000D01*
X64299557Y-87614481D01*
X64233373Y-87607963D01*
X64063534Y-87556443D01*
X63907009Y-87472778D01*
X63871271Y-87443448D01*
X63769814Y-87360186D01*
X63686552Y-87258729D01*
X63657222Y-87222991D01*
X63573557Y-87066466D01*
X63522037Y-86896627D01*
X63504641Y-86720000D01*
X63522037Y-86543373D01*
X63573557Y-86373534D01*
X63657222Y-86217009D01*
X63686552Y-86181271D01*
X63769814Y-86079814D01*
X63871271Y-85996552D01*
X63907009Y-85967222D01*
X64063534Y-85883557D01*
X64233373Y-85832037D01*
X64299558Y-85825518D01*
X64365740Y-85819000D01*
X64454260Y-85819000D01*
X64520442Y-85825518D01*
X64520442Y-85825518D01*
G37*
G36*
X37278228Y-85921703D02*
G01*
X37433100Y-85985853D01*
X37572481Y-86078985D01*
X37691015Y-86197519D01*
X37784147Y-86336900D01*
X37848297Y-86491772D01*
X37881000Y-86656184D01*
X37881000Y-86823816D01*
X37848297Y-86988228D01*
X37784147Y-87143100D01*
X37691015Y-87282481D01*
X37572481Y-87401015D01*
X37433100Y-87494147D01*
X37278228Y-87558297D01*
X37113816Y-87591000D01*
X36946184Y-87591000D01*
X36781772Y-87558297D01*
X36626900Y-87494147D01*
X36487519Y-87401015D01*
X36368985Y-87282481D01*
X36275853Y-87143100D01*
X36211703Y-86988228D01*
X36179000Y-86823816D01*
X36179000Y-86656184D01*
X36211703Y-86491772D01*
X36275853Y-86336900D01*
X36368985Y-86197519D01*
X36487519Y-86078985D01*
X36626900Y-85985853D01*
X36781772Y-85921703D01*
X36946184Y-85889000D01*
X37113816Y-85889000D01*
X37278228Y-85921703D01*
X37278228Y-85921703D01*
G37*
G36*
X42358228Y-85921703D02*
G01*
X42513100Y-85985853D01*
X42652481Y-86078985D01*
X42771015Y-86197519D01*
X42864147Y-86336900D01*
X42928297Y-86491772D01*
X42961000Y-86656184D01*
X42961000Y-86823816D01*
X42928297Y-86988228D01*
X42864147Y-87143100D01*
X42771015Y-87282481D01*
X42652481Y-87401015D01*
X42513100Y-87494147D01*
X42358228Y-87558297D01*
X42193816Y-87591000D01*
X42026184Y-87591000D01*
X41861772Y-87558297D01*
X41706900Y-87494147D01*
X41567519Y-87401015D01*
X41448985Y-87282481D01*
X41355853Y-87143100D01*
X41291703Y-86988228D01*
X41259000Y-86823816D01*
X41259000Y-86656184D01*
X41291703Y-86491772D01*
X41355853Y-86336900D01*
X41448985Y-86197519D01*
X41567519Y-86078985D01*
X41706900Y-85985853D01*
X41861772Y-85921703D01*
X42026184Y-85889000D01*
X42193816Y-85889000D01*
X42358228Y-85921703D01*
X42358228Y-85921703D01*
G37*
G36*
X44898228Y-85921703D02*
G01*
X45053100Y-85985853D01*
X45192481Y-86078985D01*
X45311015Y-86197519D01*
X45404147Y-86336900D01*
X45468297Y-86491772D01*
X45501000Y-86656184D01*
X45501000Y-86823816D01*
X45468297Y-86988228D01*
X45404147Y-87143100D01*
X45311015Y-87282481D01*
X45192481Y-87401015D01*
X45053100Y-87494147D01*
X44898228Y-87558297D01*
X44733816Y-87591000D01*
X44566184Y-87591000D01*
X44401772Y-87558297D01*
X44246900Y-87494147D01*
X44107519Y-87401015D01*
X43988985Y-87282481D01*
X43895853Y-87143100D01*
X43831703Y-86988228D01*
X43799000Y-86823816D01*
X43799000Y-86656184D01*
X43831703Y-86491772D01*
X43895853Y-86336900D01*
X43988985Y-86197519D01*
X44107519Y-86078985D01*
X44246900Y-85985853D01*
X44401772Y-85921703D01*
X44566184Y-85889000D01*
X44733816Y-85889000D01*
X44898228Y-85921703D01*
X44898228Y-85921703D01*
G37*
G36*
X39818228Y-85921703D02*
G01*
X39973100Y-85985853D01*
X40112481Y-86078985D01*
X40231015Y-86197519D01*
X40324147Y-86336900D01*
X40388297Y-86491772D01*
X40421000Y-86656184D01*
X40421000Y-86823816D01*
X40388297Y-86988228D01*
X40324147Y-87143100D01*
X40231015Y-87282481D01*
X40112481Y-87401015D01*
X39973100Y-87494147D01*
X39818228Y-87558297D01*
X39653816Y-87591000D01*
X39486184Y-87591000D01*
X39321772Y-87558297D01*
X39166900Y-87494147D01*
X39027519Y-87401015D01*
X38908985Y-87282481D01*
X38815853Y-87143100D01*
X38751703Y-86988228D01*
X38719000Y-86823816D01*
X38719000Y-86656184D01*
X38751703Y-86491772D01*
X38815853Y-86336900D01*
X38908985Y-86197519D01*
X39027519Y-86078985D01*
X39166900Y-85985853D01*
X39321772Y-85921703D01*
X39486184Y-85889000D01*
X39653816Y-85889000D01*
X39818228Y-85921703D01*
X39818228Y-85921703D01*
G37*
G36*
X67060443Y-83285519D02*
G01*
X67126627Y-83292037D01*
X67296466Y-83343557D01*
X67452991Y-83427222D01*
X67488729Y-83456552D01*
X67590186Y-83539814D01*
X67673448Y-83641271D01*
X67702778Y-83677009D01*
X67786443Y-83833534D01*
X67837963Y-84003373D01*
X67855359Y-84180000D01*
X67837963Y-84356627D01*
X67786443Y-84526466D01*
X67702778Y-84682991D01*
X67673448Y-84718729D01*
X67590186Y-84820186D01*
X67488729Y-84903448D01*
X67452991Y-84932778D01*
X67296466Y-85016443D01*
X67126627Y-85067963D01*
X67060442Y-85074482D01*
X66994260Y-85081000D01*
X66905740Y-85081000D01*
X66839558Y-85074482D01*
X66773373Y-85067963D01*
X66603534Y-85016443D01*
X66447009Y-84932778D01*
X66411271Y-84903448D01*
X66309814Y-84820186D01*
X66226552Y-84718729D01*
X66197222Y-84682991D01*
X66113557Y-84526466D01*
X66062037Y-84356627D01*
X66044641Y-84180000D01*
X66062037Y-84003373D01*
X66113557Y-83833534D01*
X66197222Y-83677009D01*
X66226552Y-83641271D01*
X66309814Y-83539814D01*
X66411271Y-83456552D01*
X66447009Y-83427222D01*
X66603534Y-83343557D01*
X66773373Y-83292037D01*
X66839557Y-83285519D01*
X66905740Y-83279000D01*
X66994260Y-83279000D01*
X67060443Y-83285519D01*
X67060443Y-83285519D01*
G37*
G36*
X64520443Y-83285519D02*
G01*
X64586627Y-83292037D01*
X64756466Y-83343557D01*
X64912991Y-83427222D01*
X64948729Y-83456552D01*
X65050186Y-83539814D01*
X65133448Y-83641271D01*
X65162778Y-83677009D01*
X65246443Y-83833534D01*
X65297963Y-84003373D01*
X65315359Y-84180000D01*
X65297963Y-84356627D01*
X65246443Y-84526466D01*
X65162778Y-84682991D01*
X65133448Y-84718729D01*
X65050186Y-84820186D01*
X64948729Y-84903448D01*
X64912991Y-84932778D01*
X64756466Y-85016443D01*
X64586627Y-85067963D01*
X64520442Y-85074482D01*
X64454260Y-85081000D01*
X64365740Y-85081000D01*
X64299558Y-85074482D01*
X64233373Y-85067963D01*
X64063534Y-85016443D01*
X63907009Y-84932778D01*
X63871271Y-84903448D01*
X63769814Y-84820186D01*
X63686552Y-84718729D01*
X63657222Y-84682991D01*
X63573557Y-84526466D01*
X63522037Y-84356627D01*
X63504641Y-84180000D01*
X63522037Y-84003373D01*
X63573557Y-83833534D01*
X63657222Y-83677009D01*
X63686552Y-83641271D01*
X63769814Y-83539814D01*
X63871271Y-83456552D01*
X63907009Y-83427222D01*
X64063534Y-83343557D01*
X64233373Y-83292037D01*
X64299557Y-83285519D01*
X64365740Y-83279000D01*
X64454260Y-83279000D01*
X64520443Y-83285519D01*
X64520443Y-83285519D01*
G37*
G36*
X37278228Y-83381703D02*
G01*
X37433100Y-83445853D01*
X37572481Y-83538985D01*
X37691015Y-83657519D01*
X37784147Y-83796900D01*
X37848297Y-83951772D01*
X37881000Y-84116184D01*
X37881000Y-84283816D01*
X37848297Y-84448228D01*
X37784147Y-84603100D01*
X37691015Y-84742481D01*
X37572481Y-84861015D01*
X37433100Y-84954147D01*
X37278228Y-85018297D01*
X37113816Y-85051000D01*
X36946184Y-85051000D01*
X36781772Y-85018297D01*
X36626900Y-84954147D01*
X36487519Y-84861015D01*
X36368985Y-84742481D01*
X36275853Y-84603100D01*
X36211703Y-84448228D01*
X36179000Y-84283816D01*
X36179000Y-84116184D01*
X36211703Y-83951772D01*
X36275853Y-83796900D01*
X36368985Y-83657519D01*
X36487519Y-83538985D01*
X36626900Y-83445853D01*
X36781772Y-83381703D01*
X36946184Y-83349000D01*
X37113816Y-83349000D01*
X37278228Y-83381703D01*
X37278228Y-83381703D01*
G37*
G36*
X39818228Y-83381703D02*
G01*
X39973100Y-83445853D01*
X40112481Y-83538985D01*
X40231015Y-83657519D01*
X40324147Y-83796900D01*
X40388297Y-83951772D01*
X40421000Y-84116184D01*
X40421000Y-84283816D01*
X40388297Y-84448228D01*
X40324147Y-84603100D01*
X40231015Y-84742481D01*
X40112481Y-84861015D01*
X39973100Y-84954147D01*
X39818228Y-85018297D01*
X39653816Y-85051000D01*
X39486184Y-85051000D01*
X39321772Y-85018297D01*
X39166900Y-84954147D01*
X39027519Y-84861015D01*
X38908985Y-84742481D01*
X38815853Y-84603100D01*
X38751703Y-84448228D01*
X38719000Y-84283816D01*
X38719000Y-84116184D01*
X38751703Y-83951772D01*
X38815853Y-83796900D01*
X38908985Y-83657519D01*
X39027519Y-83538985D01*
X39166900Y-83445853D01*
X39321772Y-83381703D01*
X39486184Y-83349000D01*
X39653816Y-83349000D01*
X39818228Y-83381703D01*
X39818228Y-83381703D01*
G37*
G36*
X42358228Y-83381703D02*
G01*
X42513100Y-83445853D01*
X42652481Y-83538985D01*
X42771015Y-83657519D01*
X42864147Y-83796900D01*
X42928297Y-83951772D01*
X42961000Y-84116184D01*
X42961000Y-84283816D01*
X42928297Y-84448228D01*
X42864147Y-84603100D01*
X42771015Y-84742481D01*
X42652481Y-84861015D01*
X42513100Y-84954147D01*
X42358228Y-85018297D01*
X42193816Y-85051000D01*
X42026184Y-85051000D01*
X41861772Y-85018297D01*
X41706900Y-84954147D01*
X41567519Y-84861015D01*
X41448985Y-84742481D01*
X41355853Y-84603100D01*
X41291703Y-84448228D01*
X41259000Y-84283816D01*
X41259000Y-84116184D01*
X41291703Y-83951772D01*
X41355853Y-83796900D01*
X41448985Y-83657519D01*
X41567519Y-83538985D01*
X41706900Y-83445853D01*
X41861772Y-83381703D01*
X42026184Y-83349000D01*
X42193816Y-83349000D01*
X42358228Y-83381703D01*
X42358228Y-83381703D01*
G37*
G36*
X44898228Y-83381703D02*
G01*
X45053100Y-83445853D01*
X45192481Y-83538985D01*
X45311015Y-83657519D01*
X45404147Y-83796900D01*
X45468297Y-83951772D01*
X45501000Y-84116184D01*
X45501000Y-84283816D01*
X45468297Y-84448228D01*
X45404147Y-84603100D01*
X45311015Y-84742481D01*
X45192481Y-84861015D01*
X45053100Y-84954147D01*
X44898228Y-85018297D01*
X44733816Y-85051000D01*
X44566184Y-85051000D01*
X44401772Y-85018297D01*
X44246900Y-84954147D01*
X44107519Y-84861015D01*
X43988985Y-84742481D01*
X43895853Y-84603100D01*
X43831703Y-84448228D01*
X43799000Y-84283816D01*
X43799000Y-84116184D01*
X43831703Y-83951772D01*
X43895853Y-83796900D01*
X43988985Y-83657519D01*
X44107519Y-83538985D01*
X44246900Y-83445853D01*
X44401772Y-83381703D01*
X44566184Y-83349000D01*
X44733816Y-83349000D01*
X44898228Y-83381703D01*
X44898228Y-83381703D01*
G37*
G36*
X64520442Y-80745518D02*
G01*
X64586627Y-80752037D01*
X64756466Y-80803557D01*
X64912991Y-80887222D01*
X64948729Y-80916552D01*
X65050186Y-80999814D01*
X65133448Y-81101271D01*
X65162778Y-81137009D01*
X65246443Y-81293534D01*
X65297963Y-81463373D01*
X65315359Y-81640000D01*
X65297963Y-81816627D01*
X65246443Y-81986466D01*
X65162778Y-82142991D01*
X65133448Y-82178729D01*
X65050186Y-82280186D01*
X64948729Y-82363448D01*
X64912991Y-82392778D01*
X64756466Y-82476443D01*
X64586627Y-82527963D01*
X64520443Y-82534481D01*
X64454260Y-82541000D01*
X64365740Y-82541000D01*
X64299557Y-82534481D01*
X64233373Y-82527963D01*
X64063534Y-82476443D01*
X63907009Y-82392778D01*
X63871271Y-82363448D01*
X63769814Y-82280186D01*
X63686552Y-82178729D01*
X63657222Y-82142991D01*
X63573557Y-81986466D01*
X63522037Y-81816627D01*
X63504641Y-81640000D01*
X63522037Y-81463373D01*
X63573557Y-81293534D01*
X63657222Y-81137009D01*
X63686552Y-81101271D01*
X63769814Y-80999814D01*
X63871271Y-80916552D01*
X63907009Y-80887222D01*
X64063534Y-80803557D01*
X64233373Y-80752037D01*
X64299558Y-80745518D01*
X64365740Y-80739000D01*
X64454260Y-80739000D01*
X64520442Y-80745518D01*
X64520442Y-80745518D01*
G37*
G36*
X67060442Y-80745518D02*
G01*
X67126627Y-80752037D01*
X67296466Y-80803557D01*
X67452991Y-80887222D01*
X67488729Y-80916552D01*
X67590186Y-80999814D01*
X67673448Y-81101271D01*
X67702778Y-81137009D01*
X67786443Y-81293534D01*
X67837963Y-81463373D01*
X67855359Y-81640000D01*
X67837963Y-81816627D01*
X67786443Y-81986466D01*
X67702778Y-82142991D01*
X67673448Y-82178729D01*
X67590186Y-82280186D01*
X67488729Y-82363448D01*
X67452991Y-82392778D01*
X67296466Y-82476443D01*
X67126627Y-82527963D01*
X67060443Y-82534481D01*
X66994260Y-82541000D01*
X66905740Y-82541000D01*
X66839557Y-82534481D01*
X66773373Y-82527963D01*
X66603534Y-82476443D01*
X66447009Y-82392778D01*
X66411271Y-82363448D01*
X66309814Y-82280186D01*
X66226552Y-82178729D01*
X66197222Y-82142991D01*
X66113557Y-81986466D01*
X66062037Y-81816627D01*
X66044641Y-81640000D01*
X66062037Y-81463373D01*
X66113557Y-81293534D01*
X66197222Y-81137009D01*
X66226552Y-81101271D01*
X66309814Y-80999814D01*
X66411271Y-80916552D01*
X66447009Y-80887222D01*
X66603534Y-80803557D01*
X66773373Y-80752037D01*
X66839558Y-80745518D01*
X66905740Y-80739000D01*
X66994260Y-80739000D01*
X67060442Y-80745518D01*
X67060442Y-80745518D01*
G37*
G36*
X42358228Y-80841703D02*
G01*
X42513100Y-80905853D01*
X42652481Y-80998985D01*
X42771015Y-81117519D01*
X42864147Y-81256900D01*
X42928297Y-81411772D01*
X42961000Y-81576184D01*
X42961000Y-81743816D01*
X42928297Y-81908228D01*
X42864147Y-82063100D01*
X42771015Y-82202481D01*
X42652481Y-82321015D01*
X42513100Y-82414147D01*
X42358228Y-82478297D01*
X42193816Y-82511000D01*
X42026184Y-82511000D01*
X41861772Y-82478297D01*
X41706900Y-82414147D01*
X41567519Y-82321015D01*
X41448985Y-82202481D01*
X41355853Y-82063100D01*
X41291703Y-81908228D01*
X41259000Y-81743816D01*
X41259000Y-81576184D01*
X41291703Y-81411772D01*
X41355853Y-81256900D01*
X41448985Y-81117519D01*
X41567519Y-80998985D01*
X41706900Y-80905853D01*
X41861772Y-80841703D01*
X42026184Y-80809000D01*
X42193816Y-80809000D01*
X42358228Y-80841703D01*
X42358228Y-80841703D01*
G37*
G36*
X39818228Y-80841703D02*
G01*
X39973100Y-80905853D01*
X40112481Y-80998985D01*
X40231015Y-81117519D01*
X40324147Y-81256900D01*
X40388297Y-81411772D01*
X40421000Y-81576184D01*
X40421000Y-81743816D01*
X40388297Y-81908228D01*
X40324147Y-82063100D01*
X40231015Y-82202481D01*
X40112481Y-82321015D01*
X39973100Y-82414147D01*
X39818228Y-82478297D01*
X39653816Y-82511000D01*
X39486184Y-82511000D01*
X39321772Y-82478297D01*
X39166900Y-82414147D01*
X39027519Y-82321015D01*
X38908985Y-82202481D01*
X38815853Y-82063100D01*
X38751703Y-81908228D01*
X38719000Y-81743816D01*
X38719000Y-81576184D01*
X38751703Y-81411772D01*
X38815853Y-81256900D01*
X38908985Y-81117519D01*
X39027519Y-80998985D01*
X39166900Y-80905853D01*
X39321772Y-80841703D01*
X39486184Y-80809000D01*
X39653816Y-80809000D01*
X39818228Y-80841703D01*
X39818228Y-80841703D01*
G37*
G36*
X44898228Y-80841703D02*
G01*
X45053100Y-80905853D01*
X45192481Y-80998985D01*
X45311015Y-81117519D01*
X45404147Y-81256900D01*
X45468297Y-81411772D01*
X45501000Y-81576184D01*
X45501000Y-81743816D01*
X45468297Y-81908228D01*
X45404147Y-82063100D01*
X45311015Y-82202481D01*
X45192481Y-82321015D01*
X45053100Y-82414147D01*
X44898228Y-82478297D01*
X44733816Y-82511000D01*
X44566184Y-82511000D01*
X44401772Y-82478297D01*
X44246900Y-82414147D01*
X44107519Y-82321015D01*
X43988985Y-82202481D01*
X43895853Y-82063100D01*
X43831703Y-81908228D01*
X43799000Y-81743816D01*
X43799000Y-81576184D01*
X43831703Y-81411772D01*
X43895853Y-81256900D01*
X43988985Y-81117519D01*
X44107519Y-80998985D01*
X44246900Y-80905853D01*
X44401772Y-80841703D01*
X44566184Y-80809000D01*
X44733816Y-80809000D01*
X44898228Y-80841703D01*
X44898228Y-80841703D01*
G37*
G36*
X37278228Y-80841703D02*
G01*
X37433100Y-80905853D01*
X37572481Y-80998985D01*
X37691015Y-81117519D01*
X37784147Y-81256900D01*
X37848297Y-81411772D01*
X37881000Y-81576184D01*
X37881000Y-81743816D01*
X37848297Y-81908228D01*
X37784147Y-82063100D01*
X37691015Y-82202481D01*
X37572481Y-82321015D01*
X37433100Y-82414147D01*
X37278228Y-82478297D01*
X37113816Y-82511000D01*
X36946184Y-82511000D01*
X36781772Y-82478297D01*
X36626900Y-82414147D01*
X36487519Y-82321015D01*
X36368985Y-82202481D01*
X36275853Y-82063100D01*
X36211703Y-81908228D01*
X36179000Y-81743816D01*
X36179000Y-81576184D01*
X36211703Y-81411772D01*
X36275853Y-81256900D01*
X36368985Y-81117519D01*
X36487519Y-80998985D01*
X36626900Y-80905853D01*
X36781772Y-80841703D01*
X36946184Y-80809000D01*
X37113816Y-80809000D01*
X37278228Y-80841703D01*
X37278228Y-80841703D01*
G37*
G36*
X64520442Y-78205518D02*
G01*
X64586627Y-78212037D01*
X64756466Y-78263557D01*
X64912991Y-78347222D01*
X64948729Y-78376552D01*
X65050186Y-78459814D01*
X65133448Y-78561271D01*
X65162778Y-78597009D01*
X65246443Y-78753534D01*
X65297963Y-78923373D01*
X65315359Y-79100000D01*
X65297963Y-79276627D01*
X65246443Y-79446466D01*
X65162778Y-79602991D01*
X65133448Y-79638729D01*
X65050186Y-79740186D01*
X64948729Y-79823448D01*
X64912991Y-79852778D01*
X64756466Y-79936443D01*
X64586627Y-79987963D01*
X64520442Y-79994482D01*
X64454260Y-80001000D01*
X64365740Y-80001000D01*
X64299558Y-79994482D01*
X64233373Y-79987963D01*
X64063534Y-79936443D01*
X63907009Y-79852778D01*
X63871271Y-79823448D01*
X63769814Y-79740186D01*
X63686552Y-79638729D01*
X63657222Y-79602991D01*
X63573557Y-79446466D01*
X63522037Y-79276627D01*
X63504641Y-79100000D01*
X63522037Y-78923373D01*
X63573557Y-78753534D01*
X63657222Y-78597009D01*
X63686552Y-78561271D01*
X63769814Y-78459814D01*
X63871271Y-78376552D01*
X63907009Y-78347222D01*
X64063534Y-78263557D01*
X64233373Y-78212037D01*
X64299558Y-78205518D01*
X64365740Y-78199000D01*
X64454260Y-78199000D01*
X64520442Y-78205518D01*
X64520442Y-78205518D01*
G37*
G36*
X67060442Y-78205518D02*
G01*
X67126627Y-78212037D01*
X67296466Y-78263557D01*
X67452991Y-78347222D01*
X67488729Y-78376552D01*
X67590186Y-78459814D01*
X67673448Y-78561271D01*
X67702778Y-78597009D01*
X67786443Y-78753534D01*
X67837963Y-78923373D01*
X67855359Y-79100000D01*
X67837963Y-79276627D01*
X67786443Y-79446466D01*
X67702778Y-79602991D01*
X67673448Y-79638729D01*
X67590186Y-79740186D01*
X67488729Y-79823448D01*
X67452991Y-79852778D01*
X67296466Y-79936443D01*
X67126627Y-79987963D01*
X67060442Y-79994482D01*
X66994260Y-80001000D01*
X66905740Y-80001000D01*
X66839558Y-79994482D01*
X66773373Y-79987963D01*
X66603534Y-79936443D01*
X66447009Y-79852778D01*
X66411271Y-79823448D01*
X66309814Y-79740186D01*
X66226552Y-79638729D01*
X66197222Y-79602991D01*
X66113557Y-79446466D01*
X66062037Y-79276627D01*
X66044641Y-79100000D01*
X66062037Y-78923373D01*
X66113557Y-78753534D01*
X66197222Y-78597009D01*
X66226552Y-78561271D01*
X66309814Y-78459814D01*
X66411271Y-78376552D01*
X66447009Y-78347222D01*
X66603534Y-78263557D01*
X66773373Y-78212037D01*
X66839558Y-78205518D01*
X66905740Y-78199000D01*
X66994260Y-78199000D01*
X67060442Y-78205518D01*
X67060442Y-78205518D01*
G37*
G36*
X42358228Y-78301703D02*
G01*
X42513100Y-78365853D01*
X42652481Y-78458985D01*
X42771015Y-78577519D01*
X42864147Y-78716900D01*
X42928297Y-78871772D01*
X42961000Y-79036184D01*
X42961000Y-79203816D01*
X42928297Y-79368228D01*
X42864147Y-79523100D01*
X42771015Y-79662481D01*
X42652481Y-79781015D01*
X42513100Y-79874147D01*
X42358228Y-79938297D01*
X42193816Y-79971000D01*
X42026184Y-79971000D01*
X41861772Y-79938297D01*
X41706900Y-79874147D01*
X41567519Y-79781015D01*
X41448985Y-79662481D01*
X41355853Y-79523100D01*
X41291703Y-79368228D01*
X41259000Y-79203816D01*
X41259000Y-79036184D01*
X41291703Y-78871772D01*
X41355853Y-78716900D01*
X41448985Y-78577519D01*
X41567519Y-78458985D01*
X41706900Y-78365853D01*
X41861772Y-78301703D01*
X42026184Y-78269000D01*
X42193816Y-78269000D01*
X42358228Y-78301703D01*
X42358228Y-78301703D01*
G37*
G36*
X37278228Y-78301703D02*
G01*
X37433100Y-78365853D01*
X37572481Y-78458985D01*
X37691015Y-78577519D01*
X37784147Y-78716900D01*
X37848297Y-78871772D01*
X37881000Y-79036184D01*
X37881000Y-79203816D01*
X37848297Y-79368228D01*
X37784147Y-79523100D01*
X37691015Y-79662481D01*
X37572481Y-79781015D01*
X37433100Y-79874147D01*
X37278228Y-79938297D01*
X37113816Y-79971000D01*
X36946184Y-79971000D01*
X36781772Y-79938297D01*
X36626900Y-79874147D01*
X36487519Y-79781015D01*
X36368985Y-79662481D01*
X36275853Y-79523100D01*
X36211703Y-79368228D01*
X36179000Y-79203816D01*
X36179000Y-79036184D01*
X36211703Y-78871772D01*
X36275853Y-78716900D01*
X36368985Y-78577519D01*
X36487519Y-78458985D01*
X36626900Y-78365853D01*
X36781772Y-78301703D01*
X36946184Y-78269000D01*
X37113816Y-78269000D01*
X37278228Y-78301703D01*
X37278228Y-78301703D01*
G37*
G36*
X39818228Y-78301703D02*
G01*
X39973100Y-78365853D01*
X40112481Y-78458985D01*
X40231015Y-78577519D01*
X40324147Y-78716900D01*
X40388297Y-78871772D01*
X40421000Y-79036184D01*
X40421000Y-79203816D01*
X40388297Y-79368228D01*
X40324147Y-79523100D01*
X40231015Y-79662481D01*
X40112481Y-79781015D01*
X39973100Y-79874147D01*
X39818228Y-79938297D01*
X39653816Y-79971000D01*
X39486184Y-79971000D01*
X39321772Y-79938297D01*
X39166900Y-79874147D01*
X39027519Y-79781015D01*
X38908985Y-79662481D01*
X38815853Y-79523100D01*
X38751703Y-79368228D01*
X38719000Y-79203816D01*
X38719000Y-79036184D01*
X38751703Y-78871772D01*
X38815853Y-78716900D01*
X38908985Y-78577519D01*
X39027519Y-78458985D01*
X39166900Y-78365853D01*
X39321772Y-78301703D01*
X39486184Y-78269000D01*
X39653816Y-78269000D01*
X39818228Y-78301703D01*
X39818228Y-78301703D01*
G37*
G36*
X44898228Y-78301703D02*
G01*
X45053100Y-78365853D01*
X45192481Y-78458985D01*
X45311015Y-78577519D01*
X45404147Y-78716900D01*
X45468297Y-78871772D01*
X45501000Y-79036184D01*
X45501000Y-79203816D01*
X45468297Y-79368228D01*
X45404147Y-79523100D01*
X45311015Y-79662481D01*
X45192481Y-79781015D01*
X45053100Y-79874147D01*
X44898228Y-79938297D01*
X44733816Y-79971000D01*
X44566184Y-79971000D01*
X44401772Y-79938297D01*
X44246900Y-79874147D01*
X44107519Y-79781015D01*
X43988985Y-79662481D01*
X43895853Y-79523100D01*
X43831703Y-79368228D01*
X43799000Y-79203816D01*
X43799000Y-79036184D01*
X43831703Y-78871772D01*
X43895853Y-78716900D01*
X43988985Y-78577519D01*
X44107519Y-78458985D01*
X44246900Y-78365853D01*
X44401772Y-78301703D01*
X44566184Y-78269000D01*
X44733816Y-78269000D01*
X44898228Y-78301703D01*
X44898228Y-78301703D01*
G37*
G36*
X64520442Y-75665518D02*
G01*
X64586627Y-75672037D01*
X64756466Y-75723557D01*
X64912991Y-75807222D01*
X64948729Y-75836552D01*
X65050186Y-75919814D01*
X65133448Y-76021271D01*
X65162778Y-76057009D01*
X65246443Y-76213534D01*
X65297963Y-76383373D01*
X65315359Y-76560000D01*
X65297963Y-76736627D01*
X65246443Y-76906466D01*
X65162778Y-77062991D01*
X65133448Y-77098729D01*
X65050186Y-77200186D01*
X64948729Y-77283448D01*
X64912991Y-77312778D01*
X64756466Y-77396443D01*
X64586627Y-77447963D01*
X64520442Y-77454482D01*
X64454260Y-77461000D01*
X64365740Y-77461000D01*
X64299558Y-77454482D01*
X64233373Y-77447963D01*
X64063534Y-77396443D01*
X63907009Y-77312778D01*
X63871271Y-77283448D01*
X63769814Y-77200186D01*
X63686552Y-77098729D01*
X63657222Y-77062991D01*
X63573557Y-76906466D01*
X63522037Y-76736627D01*
X63504641Y-76560000D01*
X63522037Y-76383373D01*
X63573557Y-76213534D01*
X63657222Y-76057009D01*
X63686552Y-76021271D01*
X63769814Y-75919814D01*
X63871271Y-75836552D01*
X63907009Y-75807222D01*
X64063534Y-75723557D01*
X64233373Y-75672037D01*
X64299558Y-75665518D01*
X64365740Y-75659000D01*
X64454260Y-75659000D01*
X64520442Y-75665518D01*
X64520442Y-75665518D01*
G37*
G36*
X67060442Y-75665518D02*
G01*
X67126627Y-75672037D01*
X67296466Y-75723557D01*
X67452991Y-75807222D01*
X67488729Y-75836552D01*
X67590186Y-75919814D01*
X67673448Y-76021271D01*
X67702778Y-76057009D01*
X67786443Y-76213534D01*
X67837963Y-76383373D01*
X67855359Y-76560000D01*
X67837963Y-76736627D01*
X67786443Y-76906466D01*
X67702778Y-77062991D01*
X67673448Y-77098729D01*
X67590186Y-77200186D01*
X67488729Y-77283448D01*
X67452991Y-77312778D01*
X67296466Y-77396443D01*
X67126627Y-77447963D01*
X67060442Y-77454482D01*
X66994260Y-77461000D01*
X66905740Y-77461000D01*
X66839558Y-77454482D01*
X66773373Y-77447963D01*
X66603534Y-77396443D01*
X66447009Y-77312778D01*
X66411271Y-77283448D01*
X66309814Y-77200186D01*
X66226552Y-77098729D01*
X66197222Y-77062991D01*
X66113557Y-76906466D01*
X66062037Y-76736627D01*
X66044641Y-76560000D01*
X66062037Y-76383373D01*
X66113557Y-76213534D01*
X66197222Y-76057009D01*
X66226552Y-76021271D01*
X66309814Y-75919814D01*
X66411271Y-75836552D01*
X66447009Y-75807222D01*
X66603534Y-75723557D01*
X66773373Y-75672037D01*
X66839558Y-75665518D01*
X66905740Y-75659000D01*
X66994260Y-75659000D01*
X67060442Y-75665518D01*
X67060442Y-75665518D01*
G37*
G36*
X42358228Y-75761703D02*
G01*
X42513100Y-75825853D01*
X42652481Y-75918985D01*
X42771015Y-76037519D01*
X42864147Y-76176900D01*
X42928297Y-76331772D01*
X42961000Y-76496184D01*
X42961000Y-76663816D01*
X42928297Y-76828228D01*
X42864147Y-76983100D01*
X42771015Y-77122481D01*
X42652481Y-77241015D01*
X42513100Y-77334147D01*
X42358228Y-77398297D01*
X42193816Y-77431000D01*
X42026184Y-77431000D01*
X41861772Y-77398297D01*
X41706900Y-77334147D01*
X41567519Y-77241015D01*
X41448985Y-77122481D01*
X41355853Y-76983100D01*
X41291703Y-76828228D01*
X41259000Y-76663816D01*
X41259000Y-76496184D01*
X41291703Y-76331772D01*
X41355853Y-76176900D01*
X41448985Y-76037519D01*
X41567519Y-75918985D01*
X41706900Y-75825853D01*
X41861772Y-75761703D01*
X42026184Y-75729000D01*
X42193816Y-75729000D01*
X42358228Y-75761703D01*
X42358228Y-75761703D01*
G37*
G36*
X44898228Y-75761703D02*
G01*
X45053100Y-75825853D01*
X45192481Y-75918985D01*
X45311015Y-76037519D01*
X45404147Y-76176900D01*
X45468297Y-76331772D01*
X45501000Y-76496184D01*
X45501000Y-76663816D01*
X45468297Y-76828228D01*
X45404147Y-76983100D01*
X45311015Y-77122481D01*
X45192481Y-77241015D01*
X45053100Y-77334147D01*
X44898228Y-77398297D01*
X44733816Y-77431000D01*
X44566184Y-77431000D01*
X44401772Y-77398297D01*
X44246900Y-77334147D01*
X44107519Y-77241015D01*
X43988985Y-77122481D01*
X43895853Y-76983100D01*
X43831703Y-76828228D01*
X43799000Y-76663816D01*
X43799000Y-76496184D01*
X43831703Y-76331772D01*
X43895853Y-76176900D01*
X43988985Y-76037519D01*
X44107519Y-75918985D01*
X44246900Y-75825853D01*
X44401772Y-75761703D01*
X44566184Y-75729000D01*
X44733816Y-75729000D01*
X44898228Y-75761703D01*
X44898228Y-75761703D01*
G37*
G36*
X39818228Y-75761703D02*
G01*
X39973100Y-75825853D01*
X40112481Y-75918985D01*
X40231015Y-76037519D01*
X40324147Y-76176900D01*
X40388297Y-76331772D01*
X40421000Y-76496184D01*
X40421000Y-76663816D01*
X40388297Y-76828228D01*
X40324147Y-76983100D01*
X40231015Y-77122481D01*
X40112481Y-77241015D01*
X39973100Y-77334147D01*
X39818228Y-77398297D01*
X39653816Y-77431000D01*
X39486184Y-77431000D01*
X39321772Y-77398297D01*
X39166900Y-77334147D01*
X39027519Y-77241015D01*
X38908985Y-77122481D01*
X38815853Y-76983100D01*
X38751703Y-76828228D01*
X38719000Y-76663816D01*
X38719000Y-76496184D01*
X38751703Y-76331772D01*
X38815853Y-76176900D01*
X38908985Y-76037519D01*
X39027519Y-75918985D01*
X39166900Y-75825853D01*
X39321772Y-75761703D01*
X39486184Y-75729000D01*
X39653816Y-75729000D01*
X39818228Y-75761703D01*
X39818228Y-75761703D01*
G37*
G36*
X37278228Y-75761703D02*
G01*
X37433100Y-75825853D01*
X37572481Y-75918985D01*
X37691015Y-76037519D01*
X37784147Y-76176900D01*
X37848297Y-76331772D01*
X37881000Y-76496184D01*
X37881000Y-76663816D01*
X37848297Y-76828228D01*
X37784147Y-76983100D01*
X37691015Y-77122481D01*
X37572481Y-77241015D01*
X37433100Y-77334147D01*
X37278228Y-77398297D01*
X37113816Y-77431000D01*
X36946184Y-77431000D01*
X36781772Y-77398297D01*
X36626900Y-77334147D01*
X36487519Y-77241015D01*
X36368985Y-77122481D01*
X36275853Y-76983100D01*
X36211703Y-76828228D01*
X36179000Y-76663816D01*
X36179000Y-76496184D01*
X36211703Y-76331772D01*
X36275853Y-76176900D01*
X36368985Y-76037519D01*
X36487519Y-75918985D01*
X36626900Y-75825853D01*
X36781772Y-75761703D01*
X36946184Y-75729000D01*
X37113816Y-75729000D01*
X37278228Y-75761703D01*
X37278228Y-75761703D01*
G37*
G36*
X67060443Y-73125519D02*
G01*
X67126627Y-73132037D01*
X67296466Y-73183557D01*
X67452991Y-73267222D01*
X67488729Y-73296552D01*
X67590186Y-73379814D01*
X67673448Y-73481271D01*
X67702778Y-73517009D01*
X67786443Y-73673534D01*
X67837963Y-73843373D01*
X67855359Y-74020000D01*
X67837963Y-74196627D01*
X67786443Y-74366466D01*
X67702778Y-74522991D01*
X67673448Y-74558729D01*
X67590186Y-74660186D01*
X67488729Y-74743448D01*
X67452991Y-74772778D01*
X67296466Y-74856443D01*
X67126627Y-74907963D01*
X67060443Y-74914481D01*
X66994260Y-74921000D01*
X66905740Y-74921000D01*
X66839557Y-74914481D01*
X66773373Y-74907963D01*
X66603534Y-74856443D01*
X66447009Y-74772778D01*
X66411271Y-74743448D01*
X66309814Y-74660186D01*
X66226552Y-74558729D01*
X66197222Y-74522991D01*
X66113557Y-74366466D01*
X66062037Y-74196627D01*
X66044641Y-74020000D01*
X66062037Y-73843373D01*
X66113557Y-73673534D01*
X66197222Y-73517009D01*
X66226552Y-73481271D01*
X66309814Y-73379814D01*
X66411271Y-73296552D01*
X66447009Y-73267222D01*
X66603534Y-73183557D01*
X66773373Y-73132037D01*
X66839557Y-73125519D01*
X66905740Y-73119000D01*
X66994260Y-73119000D01*
X67060443Y-73125519D01*
X67060443Y-73125519D01*
G37*
G36*
X64520443Y-73125519D02*
G01*
X64586627Y-73132037D01*
X64756466Y-73183557D01*
X64912991Y-73267222D01*
X64948729Y-73296552D01*
X65050186Y-73379814D01*
X65133448Y-73481271D01*
X65162778Y-73517009D01*
X65246443Y-73673534D01*
X65297963Y-73843373D01*
X65315359Y-74020000D01*
X65297963Y-74196627D01*
X65246443Y-74366466D01*
X65162778Y-74522991D01*
X65133448Y-74558729D01*
X65050186Y-74660186D01*
X64948729Y-74743448D01*
X64912991Y-74772778D01*
X64756466Y-74856443D01*
X64586627Y-74907963D01*
X64520443Y-74914481D01*
X64454260Y-74921000D01*
X64365740Y-74921000D01*
X64299557Y-74914481D01*
X64233373Y-74907963D01*
X64063534Y-74856443D01*
X63907009Y-74772778D01*
X63871271Y-74743448D01*
X63769814Y-74660186D01*
X63686552Y-74558729D01*
X63657222Y-74522991D01*
X63573557Y-74366466D01*
X63522037Y-74196627D01*
X63504641Y-74020000D01*
X63522037Y-73843373D01*
X63573557Y-73673534D01*
X63657222Y-73517009D01*
X63686552Y-73481271D01*
X63769814Y-73379814D01*
X63871271Y-73296552D01*
X63907009Y-73267222D01*
X64063534Y-73183557D01*
X64233373Y-73132037D01*
X64299557Y-73125519D01*
X64365740Y-73119000D01*
X64454260Y-73119000D01*
X64520443Y-73125519D01*
X64520443Y-73125519D01*
G37*
G36*
X39818228Y-73221703D02*
G01*
X39973100Y-73285853D01*
X40112481Y-73378985D01*
X40231015Y-73497519D01*
X40324147Y-73636900D01*
X40388297Y-73791772D01*
X40421000Y-73956184D01*
X40421000Y-74123816D01*
X40388297Y-74288228D01*
X40324147Y-74443100D01*
X40231015Y-74582481D01*
X40112481Y-74701015D01*
X39973100Y-74794147D01*
X39818228Y-74858297D01*
X39653816Y-74891000D01*
X39486184Y-74891000D01*
X39321772Y-74858297D01*
X39166900Y-74794147D01*
X39027519Y-74701015D01*
X38908985Y-74582481D01*
X38815853Y-74443100D01*
X38751703Y-74288228D01*
X38719000Y-74123816D01*
X38719000Y-73956184D01*
X38751703Y-73791772D01*
X38815853Y-73636900D01*
X38908985Y-73497519D01*
X39027519Y-73378985D01*
X39166900Y-73285853D01*
X39321772Y-73221703D01*
X39486184Y-73189000D01*
X39653816Y-73189000D01*
X39818228Y-73221703D01*
X39818228Y-73221703D01*
G37*
G36*
X37278228Y-73221703D02*
G01*
X37433100Y-73285853D01*
X37572481Y-73378985D01*
X37691015Y-73497519D01*
X37784147Y-73636900D01*
X37848297Y-73791772D01*
X37881000Y-73956184D01*
X37881000Y-74123816D01*
X37848297Y-74288228D01*
X37784147Y-74443100D01*
X37691015Y-74582481D01*
X37572481Y-74701015D01*
X37433100Y-74794147D01*
X37278228Y-74858297D01*
X37113816Y-74891000D01*
X36946184Y-74891000D01*
X36781772Y-74858297D01*
X36626900Y-74794147D01*
X36487519Y-74701015D01*
X36368985Y-74582481D01*
X36275853Y-74443100D01*
X36211703Y-74288228D01*
X36179000Y-74123816D01*
X36179000Y-73956184D01*
X36211703Y-73791772D01*
X36275853Y-73636900D01*
X36368985Y-73497519D01*
X36487519Y-73378985D01*
X36626900Y-73285853D01*
X36781772Y-73221703D01*
X36946184Y-73189000D01*
X37113816Y-73189000D01*
X37278228Y-73221703D01*
X37278228Y-73221703D01*
G37*
G36*
X44898228Y-73221703D02*
G01*
X45053100Y-73285853D01*
X45192481Y-73378985D01*
X45311015Y-73497519D01*
X45404147Y-73636900D01*
X45468297Y-73791772D01*
X45501000Y-73956184D01*
X45501000Y-74123816D01*
X45468297Y-74288228D01*
X45404147Y-74443100D01*
X45311015Y-74582481D01*
X45192481Y-74701015D01*
X45053100Y-74794147D01*
X44898228Y-74858297D01*
X44733816Y-74891000D01*
X44566184Y-74891000D01*
X44401772Y-74858297D01*
X44246900Y-74794147D01*
X44107519Y-74701015D01*
X43988985Y-74582481D01*
X43895853Y-74443100D01*
X43831703Y-74288228D01*
X43799000Y-74123816D01*
X43799000Y-73956184D01*
X43831703Y-73791772D01*
X43895853Y-73636900D01*
X43988985Y-73497519D01*
X44107519Y-73378985D01*
X44246900Y-73285853D01*
X44401772Y-73221703D01*
X44566184Y-73189000D01*
X44733816Y-73189000D01*
X44898228Y-73221703D01*
X44898228Y-73221703D01*
G37*
G36*
X42358228Y-73221703D02*
G01*
X42513100Y-73285853D01*
X42652481Y-73378985D01*
X42771015Y-73497519D01*
X42864147Y-73636900D01*
X42928297Y-73791772D01*
X42961000Y-73956184D01*
X42961000Y-74123816D01*
X42928297Y-74288228D01*
X42864147Y-74443100D01*
X42771015Y-74582481D01*
X42652481Y-74701015D01*
X42513100Y-74794147D01*
X42358228Y-74858297D01*
X42193816Y-74891000D01*
X42026184Y-74891000D01*
X41861772Y-74858297D01*
X41706900Y-74794147D01*
X41567519Y-74701015D01*
X41448985Y-74582481D01*
X41355853Y-74443100D01*
X41291703Y-74288228D01*
X41259000Y-74123816D01*
X41259000Y-73956184D01*
X41291703Y-73791772D01*
X41355853Y-73636900D01*
X41448985Y-73497519D01*
X41567519Y-73378985D01*
X41706900Y-73285853D01*
X41861772Y-73221703D01*
X42026184Y-73189000D01*
X42193816Y-73189000D01*
X42358228Y-73221703D01*
X42358228Y-73221703D01*
G37*
G36*
X64520443Y-70585519D02*
G01*
X64586627Y-70592037D01*
X64756466Y-70643557D01*
X64912991Y-70727222D01*
X64948729Y-70756552D01*
X65050186Y-70839814D01*
X65133448Y-70941271D01*
X65162778Y-70977009D01*
X65246443Y-71133534D01*
X65297963Y-71303373D01*
X65315359Y-71480000D01*
X65297963Y-71656627D01*
X65246443Y-71826466D01*
X65162778Y-71982991D01*
X65133448Y-72018729D01*
X65050186Y-72120186D01*
X64948729Y-72203448D01*
X64912991Y-72232778D01*
X64756466Y-72316443D01*
X64586627Y-72367963D01*
X64520443Y-72374481D01*
X64454260Y-72381000D01*
X64365740Y-72381000D01*
X64299557Y-72374481D01*
X64233373Y-72367963D01*
X64063534Y-72316443D01*
X63907009Y-72232778D01*
X63871271Y-72203448D01*
X63769814Y-72120186D01*
X63686552Y-72018729D01*
X63657222Y-71982991D01*
X63573557Y-71826466D01*
X63522037Y-71656627D01*
X63504641Y-71480000D01*
X63522037Y-71303373D01*
X63573557Y-71133534D01*
X63657222Y-70977009D01*
X63686552Y-70941271D01*
X63769814Y-70839814D01*
X63871271Y-70756552D01*
X63907009Y-70727222D01*
X64063534Y-70643557D01*
X64233373Y-70592037D01*
X64299557Y-70585519D01*
X64365740Y-70579000D01*
X64454260Y-70579000D01*
X64520443Y-70585519D01*
X64520443Y-70585519D01*
G37*
G36*
X67060443Y-70585519D02*
G01*
X67126627Y-70592037D01*
X67296466Y-70643557D01*
X67452991Y-70727222D01*
X67488729Y-70756552D01*
X67590186Y-70839814D01*
X67673448Y-70941271D01*
X67702778Y-70977009D01*
X67786443Y-71133534D01*
X67837963Y-71303373D01*
X67855359Y-71480000D01*
X67837963Y-71656627D01*
X67786443Y-71826466D01*
X67702778Y-71982991D01*
X67673448Y-72018729D01*
X67590186Y-72120186D01*
X67488729Y-72203448D01*
X67452991Y-72232778D01*
X67296466Y-72316443D01*
X67126627Y-72367963D01*
X67060443Y-72374481D01*
X66994260Y-72381000D01*
X66905740Y-72381000D01*
X66839557Y-72374481D01*
X66773373Y-72367963D01*
X66603534Y-72316443D01*
X66447009Y-72232778D01*
X66411271Y-72203448D01*
X66309814Y-72120186D01*
X66226552Y-72018729D01*
X66197222Y-71982991D01*
X66113557Y-71826466D01*
X66062037Y-71656627D01*
X66044641Y-71480000D01*
X66062037Y-71303373D01*
X66113557Y-71133534D01*
X66197222Y-70977009D01*
X66226552Y-70941271D01*
X66309814Y-70839814D01*
X66411271Y-70756552D01*
X66447009Y-70727222D01*
X66603534Y-70643557D01*
X66773373Y-70592037D01*
X66839557Y-70585519D01*
X66905740Y-70579000D01*
X66994260Y-70579000D01*
X67060443Y-70585519D01*
X67060443Y-70585519D01*
G37*
G36*
X42358228Y-70681703D02*
G01*
X42513100Y-70745853D01*
X42652481Y-70838985D01*
X42771015Y-70957519D01*
X42864147Y-71096900D01*
X42928297Y-71251772D01*
X42961000Y-71416184D01*
X42961000Y-71583816D01*
X42928297Y-71748228D01*
X42864147Y-71903100D01*
X42771015Y-72042481D01*
X42652481Y-72161015D01*
X42513100Y-72254147D01*
X42358228Y-72318297D01*
X42193816Y-72351000D01*
X42026184Y-72351000D01*
X41861772Y-72318297D01*
X41706900Y-72254147D01*
X41567519Y-72161015D01*
X41448985Y-72042481D01*
X41355853Y-71903100D01*
X41291703Y-71748228D01*
X41259000Y-71583816D01*
X41259000Y-71416184D01*
X41291703Y-71251772D01*
X41355853Y-71096900D01*
X41448985Y-70957519D01*
X41567519Y-70838985D01*
X41706900Y-70745853D01*
X41861772Y-70681703D01*
X42026184Y-70649000D01*
X42193816Y-70649000D01*
X42358228Y-70681703D01*
X42358228Y-70681703D01*
G37*
G36*
X39818228Y-70681703D02*
G01*
X39973100Y-70745853D01*
X40112481Y-70838985D01*
X40231015Y-70957519D01*
X40324147Y-71096900D01*
X40388297Y-71251772D01*
X40421000Y-71416184D01*
X40421000Y-71583816D01*
X40388297Y-71748228D01*
X40324147Y-71903100D01*
X40231015Y-72042481D01*
X40112481Y-72161015D01*
X39973100Y-72254147D01*
X39818228Y-72318297D01*
X39653816Y-72351000D01*
X39486184Y-72351000D01*
X39321772Y-72318297D01*
X39166900Y-72254147D01*
X39027519Y-72161015D01*
X38908985Y-72042481D01*
X38815853Y-71903100D01*
X38751703Y-71748228D01*
X38719000Y-71583816D01*
X38719000Y-71416184D01*
X38751703Y-71251772D01*
X38815853Y-71096900D01*
X38908985Y-70957519D01*
X39027519Y-70838985D01*
X39166900Y-70745853D01*
X39321772Y-70681703D01*
X39486184Y-70649000D01*
X39653816Y-70649000D01*
X39818228Y-70681703D01*
X39818228Y-70681703D01*
G37*
G36*
X37278228Y-70681703D02*
G01*
X37433100Y-70745853D01*
X37572481Y-70838985D01*
X37691015Y-70957519D01*
X37784147Y-71096900D01*
X37848297Y-71251772D01*
X37881000Y-71416184D01*
X37881000Y-71583816D01*
X37848297Y-71748228D01*
X37784147Y-71903100D01*
X37691015Y-72042481D01*
X37572481Y-72161015D01*
X37433100Y-72254147D01*
X37278228Y-72318297D01*
X37113816Y-72351000D01*
X36946184Y-72351000D01*
X36781772Y-72318297D01*
X36626900Y-72254147D01*
X36487519Y-72161015D01*
X36368985Y-72042481D01*
X36275853Y-71903100D01*
X36211703Y-71748228D01*
X36179000Y-71583816D01*
X36179000Y-71416184D01*
X36211703Y-71251772D01*
X36275853Y-71096900D01*
X36368985Y-70957519D01*
X36487519Y-70838985D01*
X36626900Y-70745853D01*
X36781772Y-70681703D01*
X36946184Y-70649000D01*
X37113816Y-70649000D01*
X37278228Y-70681703D01*
X37278228Y-70681703D01*
G37*
G36*
X44898228Y-70681703D02*
G01*
X45053100Y-70745853D01*
X45192481Y-70838985D01*
X45311015Y-70957519D01*
X45404147Y-71096900D01*
X45468297Y-71251772D01*
X45501000Y-71416184D01*
X45501000Y-71583816D01*
X45468297Y-71748228D01*
X45404147Y-71903100D01*
X45311015Y-72042481D01*
X45192481Y-72161015D01*
X45053100Y-72254147D01*
X44898228Y-72318297D01*
X44733816Y-72351000D01*
X44566184Y-72351000D01*
X44401772Y-72318297D01*
X44246900Y-72254147D01*
X44107519Y-72161015D01*
X43988985Y-72042481D01*
X43895853Y-71903100D01*
X43831703Y-71748228D01*
X43799000Y-71583816D01*
X43799000Y-71416184D01*
X43831703Y-71251772D01*
X43895853Y-71096900D01*
X43988985Y-70957519D01*
X44107519Y-70838985D01*
X44246900Y-70745853D01*
X44401772Y-70681703D01*
X44566184Y-70649000D01*
X44733816Y-70649000D01*
X44898228Y-70681703D01*
X44898228Y-70681703D01*
G37*
G36*
X64520442Y-68045518D02*
G01*
X64586627Y-68052037D01*
X64756466Y-68103557D01*
X64912991Y-68187222D01*
X64948729Y-68216552D01*
X65050186Y-68299814D01*
X65133448Y-68401271D01*
X65162778Y-68437009D01*
X65246443Y-68593534D01*
X65297963Y-68763373D01*
X65315359Y-68940000D01*
X65297963Y-69116627D01*
X65246443Y-69286466D01*
X65162778Y-69442991D01*
X65133448Y-69478729D01*
X65050186Y-69580186D01*
X64948729Y-69663448D01*
X64912991Y-69692778D01*
X64756466Y-69776443D01*
X64586627Y-69827963D01*
X64520442Y-69834482D01*
X64454260Y-69841000D01*
X64365740Y-69841000D01*
X64299558Y-69834482D01*
X64233373Y-69827963D01*
X64063534Y-69776443D01*
X63907009Y-69692778D01*
X63871271Y-69663448D01*
X63769814Y-69580186D01*
X63686552Y-69478729D01*
X63657222Y-69442991D01*
X63573557Y-69286466D01*
X63522037Y-69116627D01*
X63504641Y-68940000D01*
X63522037Y-68763373D01*
X63573557Y-68593534D01*
X63657222Y-68437009D01*
X63686552Y-68401271D01*
X63769814Y-68299814D01*
X63871271Y-68216552D01*
X63907009Y-68187222D01*
X64063534Y-68103557D01*
X64233373Y-68052037D01*
X64299558Y-68045518D01*
X64365740Y-68039000D01*
X64454260Y-68039000D01*
X64520442Y-68045518D01*
X64520442Y-68045518D01*
G37*
G36*
X67060442Y-68045518D02*
G01*
X67126627Y-68052037D01*
X67296466Y-68103557D01*
X67452991Y-68187222D01*
X67488729Y-68216552D01*
X67590186Y-68299814D01*
X67673448Y-68401271D01*
X67702778Y-68437009D01*
X67786443Y-68593534D01*
X67837963Y-68763373D01*
X67855359Y-68940000D01*
X67837963Y-69116627D01*
X67786443Y-69286466D01*
X67702778Y-69442991D01*
X67673448Y-69478729D01*
X67590186Y-69580186D01*
X67488729Y-69663448D01*
X67452991Y-69692778D01*
X67296466Y-69776443D01*
X67126627Y-69827963D01*
X67060442Y-69834482D01*
X66994260Y-69841000D01*
X66905740Y-69841000D01*
X66839558Y-69834482D01*
X66773373Y-69827963D01*
X66603534Y-69776443D01*
X66447009Y-69692778D01*
X66411271Y-69663448D01*
X66309814Y-69580186D01*
X66226552Y-69478729D01*
X66197222Y-69442991D01*
X66113557Y-69286466D01*
X66062037Y-69116627D01*
X66044641Y-68940000D01*
X66062037Y-68763373D01*
X66113557Y-68593534D01*
X66197222Y-68437009D01*
X66226552Y-68401271D01*
X66309814Y-68299814D01*
X66411271Y-68216552D01*
X66447009Y-68187222D01*
X66603534Y-68103557D01*
X66773373Y-68052037D01*
X66839558Y-68045518D01*
X66905740Y-68039000D01*
X66994260Y-68039000D01*
X67060442Y-68045518D01*
X67060442Y-68045518D01*
G37*
G36*
X42358228Y-68141703D02*
G01*
X42513100Y-68205853D01*
X42652481Y-68298985D01*
X42771015Y-68417519D01*
X42864147Y-68556900D01*
X42928297Y-68711772D01*
X42961000Y-68876184D01*
X42961000Y-69043816D01*
X42928297Y-69208228D01*
X42864147Y-69363100D01*
X42771015Y-69502481D01*
X42652481Y-69621015D01*
X42513100Y-69714147D01*
X42358228Y-69778297D01*
X42193816Y-69811000D01*
X42026184Y-69811000D01*
X41861772Y-69778297D01*
X41706900Y-69714147D01*
X41567519Y-69621015D01*
X41448985Y-69502481D01*
X41355853Y-69363100D01*
X41291703Y-69208228D01*
X41259000Y-69043816D01*
X41259000Y-68876184D01*
X41291703Y-68711772D01*
X41355853Y-68556900D01*
X41448985Y-68417519D01*
X41567519Y-68298985D01*
X41706900Y-68205853D01*
X41861772Y-68141703D01*
X42026184Y-68109000D01*
X42193816Y-68109000D01*
X42358228Y-68141703D01*
X42358228Y-68141703D01*
G37*
G36*
X44898228Y-68141703D02*
G01*
X45053100Y-68205853D01*
X45192481Y-68298985D01*
X45311015Y-68417519D01*
X45404147Y-68556900D01*
X45468297Y-68711772D01*
X45501000Y-68876184D01*
X45501000Y-69043816D01*
X45468297Y-69208228D01*
X45404147Y-69363100D01*
X45311015Y-69502481D01*
X45192481Y-69621015D01*
X45053100Y-69714147D01*
X44898228Y-69778297D01*
X44733816Y-69811000D01*
X44566184Y-69811000D01*
X44401772Y-69778297D01*
X44246900Y-69714147D01*
X44107519Y-69621015D01*
X43988985Y-69502481D01*
X43895853Y-69363100D01*
X43831703Y-69208228D01*
X43799000Y-69043816D01*
X43799000Y-68876184D01*
X43831703Y-68711772D01*
X43895853Y-68556900D01*
X43988985Y-68417519D01*
X44107519Y-68298985D01*
X44246900Y-68205853D01*
X44401772Y-68141703D01*
X44566184Y-68109000D01*
X44733816Y-68109000D01*
X44898228Y-68141703D01*
X44898228Y-68141703D01*
G37*
G36*
X37278228Y-68141703D02*
G01*
X37433100Y-68205853D01*
X37572481Y-68298985D01*
X37691015Y-68417519D01*
X37784147Y-68556900D01*
X37848297Y-68711772D01*
X37881000Y-68876184D01*
X37881000Y-69043816D01*
X37848297Y-69208228D01*
X37784147Y-69363100D01*
X37691015Y-69502481D01*
X37572481Y-69621015D01*
X37433100Y-69714147D01*
X37278228Y-69778297D01*
X37113816Y-69811000D01*
X36946184Y-69811000D01*
X36781772Y-69778297D01*
X36626900Y-69714147D01*
X36487519Y-69621015D01*
X36368985Y-69502481D01*
X36275853Y-69363100D01*
X36211703Y-69208228D01*
X36179000Y-69043816D01*
X36179000Y-68876184D01*
X36211703Y-68711772D01*
X36275853Y-68556900D01*
X36368985Y-68417519D01*
X36487519Y-68298985D01*
X36626900Y-68205853D01*
X36781772Y-68141703D01*
X36946184Y-68109000D01*
X37113816Y-68109000D01*
X37278228Y-68141703D01*
X37278228Y-68141703D01*
G37*
G36*
X39818228Y-68141703D02*
G01*
X39973100Y-68205853D01*
X40112481Y-68298985D01*
X40231015Y-68417519D01*
X40324147Y-68556900D01*
X40388297Y-68711772D01*
X40421000Y-68876184D01*
X40421000Y-69043816D01*
X40388297Y-69208228D01*
X40324147Y-69363100D01*
X40231015Y-69502481D01*
X40112481Y-69621015D01*
X39973100Y-69714147D01*
X39818228Y-69778297D01*
X39653816Y-69811000D01*
X39486184Y-69811000D01*
X39321772Y-69778297D01*
X39166900Y-69714147D01*
X39027519Y-69621015D01*
X38908985Y-69502481D01*
X38815853Y-69363100D01*
X38751703Y-69208228D01*
X38719000Y-69043816D01*
X38719000Y-68876184D01*
X38751703Y-68711772D01*
X38815853Y-68556900D01*
X38908985Y-68417519D01*
X39027519Y-68298985D01*
X39166900Y-68205853D01*
X39321772Y-68141703D01*
X39486184Y-68109000D01*
X39653816Y-68109000D01*
X39818228Y-68141703D01*
X39818228Y-68141703D01*
G37*
G36*
X67060443Y-65505519D02*
G01*
X67126627Y-65512037D01*
X67296466Y-65563557D01*
X67452991Y-65647222D01*
X67488729Y-65676552D01*
X67590186Y-65759814D01*
X67673448Y-65861271D01*
X67702778Y-65897009D01*
X67786443Y-66053534D01*
X67837963Y-66223373D01*
X67855359Y-66400000D01*
X67837963Y-66576627D01*
X67786443Y-66746466D01*
X67702778Y-66902991D01*
X67673448Y-66938729D01*
X67590186Y-67040186D01*
X67488729Y-67123448D01*
X67452991Y-67152778D01*
X67296466Y-67236443D01*
X67126627Y-67287963D01*
X67060442Y-67294482D01*
X66994260Y-67301000D01*
X66905740Y-67301000D01*
X66839558Y-67294482D01*
X66773373Y-67287963D01*
X66603534Y-67236443D01*
X66447009Y-67152778D01*
X66411271Y-67123448D01*
X66309814Y-67040186D01*
X66226552Y-66938729D01*
X66197222Y-66902991D01*
X66113557Y-66746466D01*
X66062037Y-66576627D01*
X66044641Y-66400000D01*
X66062037Y-66223373D01*
X66113557Y-66053534D01*
X66197222Y-65897009D01*
X66226552Y-65861271D01*
X66309814Y-65759814D01*
X66411271Y-65676552D01*
X66447009Y-65647222D01*
X66603534Y-65563557D01*
X66773373Y-65512037D01*
X66839557Y-65505519D01*
X66905740Y-65499000D01*
X66994260Y-65499000D01*
X67060443Y-65505519D01*
X67060443Y-65505519D01*
G37*
G36*
X64520443Y-65505519D02*
G01*
X64586627Y-65512037D01*
X64756466Y-65563557D01*
X64912991Y-65647222D01*
X64948729Y-65676552D01*
X65050186Y-65759814D01*
X65133448Y-65861271D01*
X65162778Y-65897009D01*
X65246443Y-66053534D01*
X65297963Y-66223373D01*
X65315359Y-66400000D01*
X65297963Y-66576627D01*
X65246443Y-66746466D01*
X65162778Y-66902991D01*
X65133448Y-66938729D01*
X65050186Y-67040186D01*
X64948729Y-67123448D01*
X64912991Y-67152778D01*
X64756466Y-67236443D01*
X64586627Y-67287963D01*
X64520442Y-67294482D01*
X64454260Y-67301000D01*
X64365740Y-67301000D01*
X64299558Y-67294482D01*
X64233373Y-67287963D01*
X64063534Y-67236443D01*
X63907009Y-67152778D01*
X63871271Y-67123448D01*
X63769814Y-67040186D01*
X63686552Y-66938729D01*
X63657222Y-66902991D01*
X63573557Y-66746466D01*
X63522037Y-66576627D01*
X63504641Y-66400000D01*
X63522037Y-66223373D01*
X63573557Y-66053534D01*
X63657222Y-65897009D01*
X63686552Y-65861271D01*
X63769814Y-65759814D01*
X63871271Y-65676552D01*
X63907009Y-65647222D01*
X64063534Y-65563557D01*
X64233373Y-65512037D01*
X64299557Y-65505519D01*
X64365740Y-65499000D01*
X64454260Y-65499000D01*
X64520443Y-65505519D01*
X64520443Y-65505519D01*
G37*
G36*
X37278228Y-65601703D02*
G01*
X37433100Y-65665853D01*
X37572481Y-65758985D01*
X37691015Y-65877519D01*
X37784147Y-66016900D01*
X37848297Y-66171772D01*
X37881000Y-66336184D01*
X37881000Y-66503816D01*
X37848297Y-66668228D01*
X37784147Y-66823100D01*
X37691015Y-66962481D01*
X37572481Y-67081015D01*
X37433100Y-67174147D01*
X37278228Y-67238297D01*
X37113816Y-67271000D01*
X36946184Y-67271000D01*
X36781772Y-67238297D01*
X36626900Y-67174147D01*
X36487519Y-67081015D01*
X36368985Y-66962481D01*
X36275853Y-66823100D01*
X36211703Y-66668228D01*
X36179000Y-66503816D01*
X36179000Y-66336184D01*
X36211703Y-66171772D01*
X36275853Y-66016900D01*
X36368985Y-65877519D01*
X36487519Y-65758985D01*
X36626900Y-65665853D01*
X36781772Y-65601703D01*
X36946184Y-65569000D01*
X37113816Y-65569000D01*
X37278228Y-65601703D01*
X37278228Y-65601703D01*
G37*
G36*
X39818228Y-65601703D02*
G01*
X39973100Y-65665853D01*
X40112481Y-65758985D01*
X40231015Y-65877519D01*
X40324147Y-66016900D01*
X40388297Y-66171772D01*
X40421000Y-66336184D01*
X40421000Y-66503816D01*
X40388297Y-66668228D01*
X40324147Y-66823100D01*
X40231015Y-66962481D01*
X40112481Y-67081015D01*
X39973100Y-67174147D01*
X39818228Y-67238297D01*
X39653816Y-67271000D01*
X39486184Y-67271000D01*
X39321772Y-67238297D01*
X39166900Y-67174147D01*
X39027519Y-67081015D01*
X38908985Y-66962481D01*
X38815853Y-66823100D01*
X38751703Y-66668228D01*
X38719000Y-66503816D01*
X38719000Y-66336184D01*
X38751703Y-66171772D01*
X38815853Y-66016900D01*
X38908985Y-65877519D01*
X39027519Y-65758985D01*
X39166900Y-65665853D01*
X39321772Y-65601703D01*
X39486184Y-65569000D01*
X39653816Y-65569000D01*
X39818228Y-65601703D01*
X39818228Y-65601703D01*
G37*
G36*
X44898228Y-65601703D02*
G01*
X45053100Y-65665853D01*
X45192481Y-65758985D01*
X45311015Y-65877519D01*
X45404147Y-66016900D01*
X45468297Y-66171772D01*
X45501000Y-66336184D01*
X45501000Y-66503816D01*
X45468297Y-66668228D01*
X45404147Y-66823100D01*
X45311015Y-66962481D01*
X45192481Y-67081015D01*
X45053100Y-67174147D01*
X44898228Y-67238297D01*
X44733816Y-67271000D01*
X44566184Y-67271000D01*
X44401772Y-67238297D01*
X44246900Y-67174147D01*
X44107519Y-67081015D01*
X43988985Y-66962481D01*
X43895853Y-66823100D01*
X43831703Y-66668228D01*
X43799000Y-66503816D01*
X43799000Y-66336184D01*
X43831703Y-66171772D01*
X43895853Y-66016900D01*
X43988985Y-65877519D01*
X44107519Y-65758985D01*
X44246900Y-65665853D01*
X44401772Y-65601703D01*
X44566184Y-65569000D01*
X44733816Y-65569000D01*
X44898228Y-65601703D01*
X44898228Y-65601703D01*
G37*
G36*
X42358228Y-65601703D02*
G01*
X42513100Y-65665853D01*
X42652481Y-65758985D01*
X42771015Y-65877519D01*
X42864147Y-66016900D01*
X42928297Y-66171772D01*
X42961000Y-66336184D01*
X42961000Y-66503816D01*
X42928297Y-66668228D01*
X42864147Y-66823100D01*
X42771015Y-66962481D01*
X42652481Y-67081015D01*
X42513100Y-67174147D01*
X42358228Y-67238297D01*
X42193816Y-67271000D01*
X42026184Y-67271000D01*
X41861772Y-67238297D01*
X41706900Y-67174147D01*
X41567519Y-67081015D01*
X41448985Y-66962481D01*
X41355853Y-66823100D01*
X41291703Y-66668228D01*
X41259000Y-66503816D01*
X41259000Y-66336184D01*
X41291703Y-66171772D01*
X41355853Y-66016900D01*
X41448985Y-65877519D01*
X41567519Y-65758985D01*
X41706900Y-65665853D01*
X41861772Y-65601703D01*
X42026184Y-65569000D01*
X42193816Y-65569000D01*
X42358228Y-65601703D01*
X42358228Y-65601703D01*
G37*
G36*
X118526000Y-66476000D02*
G01*
X117574000Y-66476000D01*
X117574000Y-65524000D01*
X118526000Y-65524000D01*
X118526000Y-66476000D01*
X118526000Y-66476000D01*
G37*
G36*
X118188843Y-64292292D02*
G01*
X118239588Y-64313311D01*
X118275470Y-64328174D01*
X118353432Y-64380267D01*
X118419733Y-64446568D01*
X118471826Y-64524530D01*
X118471826Y-64524531D01*
X118507708Y-64611157D01*
X118526000Y-64703117D01*
X118526000Y-64796883D01*
X118507708Y-64888843D01*
X118486689Y-64939588D01*
X118471826Y-64975470D01*
X118419733Y-65053432D01*
X118353432Y-65119733D01*
X118275470Y-65171826D01*
X118239588Y-65186689D01*
X118188843Y-65207708D01*
X118096883Y-65226000D01*
X118003117Y-65226000D01*
X117911157Y-65207708D01*
X117860412Y-65186689D01*
X117824530Y-65171826D01*
X117746568Y-65119733D01*
X117680267Y-65053432D01*
X117628174Y-64975470D01*
X117613311Y-64939588D01*
X117592292Y-64888843D01*
X117574000Y-64796883D01*
X117574000Y-64703117D01*
X117592292Y-64611157D01*
X117628174Y-64524531D01*
X117628174Y-64524530D01*
X117680267Y-64446568D01*
X117746568Y-64380267D01*
X117824530Y-64328174D01*
X117860412Y-64313311D01*
X117911157Y-64292292D01*
X118003117Y-64274000D01*
X118096883Y-64274000D01*
X118188843Y-64292292D01*
X118188843Y-64292292D01*
G37*
G36*
X64520442Y-62965518D02*
G01*
X64586627Y-62972037D01*
X64756466Y-63023557D01*
X64756468Y-63023558D01*
X64791518Y-63042293D01*
X64912991Y-63107222D01*
X64941071Y-63130267D01*
X65050186Y-63219814D01*
X65095090Y-63274531D01*
X65162778Y-63357009D01*
X65246443Y-63513534D01*
X65297963Y-63683373D01*
X65315359Y-63860000D01*
X65297963Y-64036627D01*
X65246443Y-64206466D01*
X65162778Y-64362991D01*
X65148600Y-64380267D01*
X65050186Y-64500186D01*
X64948729Y-64583448D01*
X64912991Y-64612778D01*
X64756466Y-64696443D01*
X64586627Y-64747963D01*
X64520443Y-64754481D01*
X64454260Y-64761000D01*
X64365740Y-64761000D01*
X64299557Y-64754481D01*
X64233373Y-64747963D01*
X64063534Y-64696443D01*
X63907009Y-64612778D01*
X63871271Y-64583448D01*
X63769814Y-64500186D01*
X63671400Y-64380267D01*
X63657222Y-64362991D01*
X63573557Y-64206466D01*
X63522037Y-64036627D01*
X63504641Y-63860000D01*
X63522037Y-63683373D01*
X63573557Y-63513534D01*
X63657222Y-63357009D01*
X63724910Y-63274531D01*
X63769814Y-63219814D01*
X63878929Y-63130267D01*
X63907009Y-63107222D01*
X64028482Y-63042293D01*
X64063532Y-63023558D01*
X64063534Y-63023557D01*
X64233373Y-62972037D01*
X64299558Y-62965518D01*
X64365740Y-62959000D01*
X64454260Y-62959000D01*
X64520442Y-62965518D01*
X64520442Y-62965518D01*
G37*
G36*
X67060442Y-62965518D02*
G01*
X67126627Y-62972037D01*
X67296466Y-63023557D01*
X67296468Y-63023558D01*
X67331518Y-63042293D01*
X67452991Y-63107222D01*
X67481071Y-63130267D01*
X67590186Y-63219814D01*
X67635090Y-63274531D01*
X67702778Y-63357009D01*
X67786443Y-63513534D01*
X67837963Y-63683373D01*
X67855359Y-63860000D01*
X67837963Y-64036627D01*
X67786443Y-64206466D01*
X67702778Y-64362991D01*
X67688600Y-64380267D01*
X67590186Y-64500186D01*
X67488729Y-64583448D01*
X67452991Y-64612778D01*
X67296466Y-64696443D01*
X67126627Y-64747963D01*
X67060443Y-64754481D01*
X66994260Y-64761000D01*
X66905740Y-64761000D01*
X66839557Y-64754481D01*
X66773373Y-64747963D01*
X66603534Y-64696443D01*
X66447009Y-64612778D01*
X66411271Y-64583448D01*
X66309814Y-64500186D01*
X66211400Y-64380267D01*
X66197222Y-64362991D01*
X66113557Y-64206466D01*
X66062037Y-64036627D01*
X66044641Y-63860000D01*
X66062037Y-63683373D01*
X66113557Y-63513534D01*
X66197222Y-63357009D01*
X66264910Y-63274531D01*
X66309814Y-63219814D01*
X66418929Y-63130267D01*
X66447009Y-63107222D01*
X66568482Y-63042293D01*
X66603532Y-63023558D01*
X66603534Y-63023557D01*
X66773373Y-62972037D01*
X66839558Y-62965518D01*
X66905740Y-62959000D01*
X66994260Y-62959000D01*
X67060442Y-62965518D01*
X67060442Y-62965518D01*
G37*
G36*
X44898228Y-63061703D02*
G01*
X45053100Y-63125853D01*
X45192481Y-63218985D01*
X45311015Y-63337519D01*
X45404147Y-63476900D01*
X45468297Y-63631772D01*
X45501000Y-63796184D01*
X45501000Y-63963816D01*
X45468297Y-64128228D01*
X45404147Y-64283100D01*
X45311015Y-64422481D01*
X45192481Y-64541015D01*
X45053100Y-64634147D01*
X44898228Y-64698297D01*
X44733816Y-64731000D01*
X44566184Y-64731000D01*
X44401772Y-64698297D01*
X44246900Y-64634147D01*
X44107519Y-64541015D01*
X43988985Y-64422481D01*
X43895853Y-64283100D01*
X43831703Y-64128228D01*
X43799000Y-63963816D01*
X43799000Y-63796184D01*
X43831703Y-63631772D01*
X43895853Y-63476900D01*
X43988985Y-63337519D01*
X44107519Y-63218985D01*
X44246900Y-63125853D01*
X44401772Y-63061703D01*
X44566184Y-63029000D01*
X44733816Y-63029000D01*
X44898228Y-63061703D01*
X44898228Y-63061703D01*
G37*
G36*
X42358228Y-63061703D02*
G01*
X42513100Y-63125853D01*
X42652481Y-63218985D01*
X42771015Y-63337519D01*
X42864147Y-63476900D01*
X42928297Y-63631772D01*
X42961000Y-63796184D01*
X42961000Y-63963816D01*
X42928297Y-64128228D01*
X42864147Y-64283100D01*
X42771015Y-64422481D01*
X42652481Y-64541015D01*
X42513100Y-64634147D01*
X42358228Y-64698297D01*
X42193816Y-64731000D01*
X42026184Y-64731000D01*
X41861772Y-64698297D01*
X41706900Y-64634147D01*
X41567519Y-64541015D01*
X41448985Y-64422481D01*
X41355853Y-64283100D01*
X41291703Y-64128228D01*
X41259000Y-63963816D01*
X41259000Y-63796184D01*
X41291703Y-63631772D01*
X41355853Y-63476900D01*
X41448985Y-63337519D01*
X41567519Y-63218985D01*
X41706900Y-63125853D01*
X41861772Y-63061703D01*
X42026184Y-63029000D01*
X42193816Y-63029000D01*
X42358228Y-63061703D01*
X42358228Y-63061703D01*
G37*
G36*
X39818228Y-63061703D02*
G01*
X39973100Y-63125853D01*
X40112481Y-63218985D01*
X40231015Y-63337519D01*
X40324147Y-63476900D01*
X40388297Y-63631772D01*
X40421000Y-63796184D01*
X40421000Y-63963816D01*
X40388297Y-64128228D01*
X40324147Y-64283100D01*
X40231015Y-64422481D01*
X40112481Y-64541015D01*
X39973100Y-64634147D01*
X39818228Y-64698297D01*
X39653816Y-64731000D01*
X39486184Y-64731000D01*
X39321772Y-64698297D01*
X39166900Y-64634147D01*
X39027519Y-64541015D01*
X38908985Y-64422481D01*
X38815853Y-64283100D01*
X38751703Y-64128228D01*
X38719000Y-63963816D01*
X38719000Y-63796184D01*
X38751703Y-63631772D01*
X38815853Y-63476900D01*
X38908985Y-63337519D01*
X39027519Y-63218985D01*
X39166900Y-63125853D01*
X39321772Y-63061703D01*
X39486184Y-63029000D01*
X39653816Y-63029000D01*
X39818228Y-63061703D01*
X39818228Y-63061703D01*
G37*
G36*
X37278228Y-63061703D02*
G01*
X37433100Y-63125853D01*
X37572481Y-63218985D01*
X37691015Y-63337519D01*
X37784147Y-63476900D01*
X37848297Y-63631772D01*
X37881000Y-63796184D01*
X37881000Y-63963816D01*
X37848297Y-64128228D01*
X37784147Y-64283100D01*
X37691015Y-64422481D01*
X37572481Y-64541015D01*
X37433100Y-64634147D01*
X37278228Y-64698297D01*
X37113816Y-64731000D01*
X36946184Y-64731000D01*
X36781772Y-64698297D01*
X36626900Y-64634147D01*
X36487519Y-64541015D01*
X36368985Y-64422481D01*
X36275853Y-64283100D01*
X36211703Y-64128228D01*
X36179000Y-63963816D01*
X36179000Y-63796184D01*
X36211703Y-63631772D01*
X36275853Y-63476900D01*
X36368985Y-63337519D01*
X36487519Y-63218985D01*
X36626900Y-63125853D01*
X36781772Y-63061703D01*
X36946184Y-63029000D01*
X37113816Y-63029000D01*
X37278228Y-63061703D01*
X37278228Y-63061703D01*
G37*
G36*
X118188843Y-63042292D02*
G01*
X118235705Y-63061703D01*
X118275470Y-63078174D01*
X118353432Y-63130267D01*
X118419733Y-63196568D01*
X118471826Y-63274530D01*
X118471826Y-63274531D01*
X118507708Y-63361157D01*
X118526000Y-63453117D01*
X118526000Y-63546883D01*
X118507708Y-63638843D01*
X118489263Y-63683373D01*
X118471826Y-63725470D01*
X118419733Y-63803432D01*
X118353432Y-63869733D01*
X118275470Y-63921826D01*
X118239588Y-63936689D01*
X118188843Y-63957708D01*
X118096883Y-63976000D01*
X118003117Y-63976000D01*
X117911157Y-63957708D01*
X117860412Y-63936689D01*
X117824530Y-63921826D01*
X117746568Y-63869733D01*
X117680267Y-63803432D01*
X117628174Y-63725470D01*
X117610737Y-63683373D01*
X117592292Y-63638843D01*
X117574000Y-63546883D01*
X117574000Y-63453117D01*
X117592292Y-63361157D01*
X117628174Y-63274531D01*
X117628174Y-63274530D01*
X117680267Y-63196568D01*
X117746568Y-63130267D01*
X117824530Y-63078174D01*
X117864295Y-63061703D01*
X117911157Y-63042292D01*
X118003117Y-63024000D01*
X118096883Y-63024000D01*
X118188843Y-63042292D01*
X118188843Y-63042292D01*
G37*
G36*
X118188843Y-61792292D02*
G01*
X118239588Y-61813311D01*
X118275470Y-61828174D01*
X118353432Y-61880267D01*
X118419733Y-61946568D01*
X118471826Y-62024530D01*
X118471826Y-62024531D01*
X118507708Y-62111157D01*
X118526000Y-62203117D01*
X118526000Y-62296883D01*
X118507708Y-62388843D01*
X118486689Y-62439588D01*
X118471826Y-62475470D01*
X118419733Y-62553432D01*
X118353432Y-62619733D01*
X118275470Y-62671826D01*
X118239588Y-62686689D01*
X118188843Y-62707708D01*
X118096883Y-62726000D01*
X118003117Y-62726000D01*
X117911157Y-62707708D01*
X117860412Y-62686689D01*
X117824530Y-62671826D01*
X117746568Y-62619733D01*
X117680267Y-62553432D01*
X117628174Y-62475470D01*
X117613311Y-62439588D01*
X117592292Y-62388843D01*
X117574000Y-62296883D01*
X117574000Y-62203117D01*
X117592292Y-62111157D01*
X117628174Y-62024531D01*
X117628174Y-62024530D01*
X117680267Y-61946568D01*
X117746568Y-61880267D01*
X117824530Y-61828174D01*
X117860412Y-61813311D01*
X117911157Y-61792292D01*
X118003117Y-61774000D01*
X118096883Y-61774000D01*
X118188843Y-61792292D01*
X118188843Y-61792292D01*
G37*
G36*
X67060443Y-60425519D02*
G01*
X67126627Y-60432037D01*
X67296466Y-60483557D01*
X67452991Y-60567222D01*
X67488729Y-60596552D01*
X67590186Y-60679814D01*
X67673448Y-60781271D01*
X67702778Y-60817009D01*
X67786443Y-60973534D01*
X67837963Y-61143373D01*
X67855359Y-61320000D01*
X67837963Y-61496627D01*
X67786443Y-61666466D01*
X67702778Y-61822991D01*
X67698524Y-61828174D01*
X67590186Y-61960186D01*
X67511781Y-62024530D01*
X67452991Y-62072778D01*
X67296466Y-62156443D01*
X67126627Y-62207963D01*
X67060443Y-62214481D01*
X66994260Y-62221000D01*
X66905740Y-62221000D01*
X66839557Y-62214481D01*
X66773373Y-62207963D01*
X66603534Y-62156443D01*
X66447009Y-62072778D01*
X66388219Y-62024530D01*
X66309814Y-61960186D01*
X66201476Y-61828174D01*
X66197222Y-61822991D01*
X66113557Y-61666466D01*
X66062037Y-61496627D01*
X66044641Y-61320000D01*
X66062037Y-61143373D01*
X66113557Y-60973534D01*
X66197222Y-60817009D01*
X66226552Y-60781271D01*
X66309814Y-60679814D01*
X66411271Y-60596552D01*
X66447009Y-60567222D01*
X66603534Y-60483557D01*
X66773373Y-60432037D01*
X66839557Y-60425519D01*
X66905740Y-60419000D01*
X66994260Y-60419000D01*
X67060443Y-60425519D01*
X67060443Y-60425519D01*
G37*
G36*
X64520443Y-60425519D02*
G01*
X64586627Y-60432037D01*
X64756466Y-60483557D01*
X64912991Y-60567222D01*
X64948729Y-60596552D01*
X65050186Y-60679814D01*
X65133448Y-60781271D01*
X65162778Y-60817009D01*
X65246443Y-60973534D01*
X65297963Y-61143373D01*
X65315359Y-61320000D01*
X65297963Y-61496627D01*
X65246443Y-61666466D01*
X65162778Y-61822991D01*
X65158524Y-61828174D01*
X65050186Y-61960186D01*
X64971781Y-62024530D01*
X64912991Y-62072778D01*
X64756466Y-62156443D01*
X64586627Y-62207963D01*
X64520443Y-62214481D01*
X64454260Y-62221000D01*
X64365740Y-62221000D01*
X64299557Y-62214481D01*
X64233373Y-62207963D01*
X64063534Y-62156443D01*
X63907009Y-62072778D01*
X63848219Y-62024530D01*
X63769814Y-61960186D01*
X63661476Y-61828174D01*
X63657222Y-61822991D01*
X63573557Y-61666466D01*
X63522037Y-61496627D01*
X63504641Y-61320000D01*
X63522037Y-61143373D01*
X63573557Y-60973534D01*
X63657222Y-60817009D01*
X63686552Y-60781271D01*
X63769814Y-60679814D01*
X63871271Y-60596552D01*
X63907009Y-60567222D01*
X64063534Y-60483557D01*
X64233373Y-60432037D01*
X64299557Y-60425519D01*
X64365740Y-60419000D01*
X64454260Y-60419000D01*
X64520443Y-60425519D01*
X64520443Y-60425519D01*
G37*
G36*
X39818228Y-60521703D02*
G01*
X39973100Y-60585853D01*
X40112481Y-60678985D01*
X40231015Y-60797519D01*
X40324147Y-60936900D01*
X40388297Y-61091772D01*
X40421000Y-61256184D01*
X40421000Y-61423816D01*
X40388297Y-61588228D01*
X40324147Y-61743100D01*
X40231015Y-61882481D01*
X40112481Y-62001015D01*
X39973100Y-62094147D01*
X39818228Y-62158297D01*
X39653816Y-62191000D01*
X39486184Y-62191000D01*
X39321772Y-62158297D01*
X39166900Y-62094147D01*
X39027519Y-62001015D01*
X38908985Y-61882481D01*
X38815853Y-61743100D01*
X38751703Y-61588228D01*
X38719000Y-61423816D01*
X38719000Y-61256184D01*
X38751703Y-61091772D01*
X38815853Y-60936900D01*
X38908985Y-60797519D01*
X39027519Y-60678985D01*
X39166900Y-60585853D01*
X39321772Y-60521703D01*
X39486184Y-60489000D01*
X39653816Y-60489000D01*
X39818228Y-60521703D01*
X39818228Y-60521703D01*
G37*
G36*
X37278228Y-60521703D02*
G01*
X37433100Y-60585853D01*
X37572481Y-60678985D01*
X37691015Y-60797519D01*
X37784147Y-60936900D01*
X37848297Y-61091772D01*
X37881000Y-61256184D01*
X37881000Y-61423816D01*
X37848297Y-61588228D01*
X37784147Y-61743100D01*
X37691015Y-61882481D01*
X37572481Y-62001015D01*
X37433100Y-62094147D01*
X37278228Y-62158297D01*
X37113816Y-62191000D01*
X36946184Y-62191000D01*
X36781772Y-62158297D01*
X36626900Y-62094147D01*
X36487519Y-62001015D01*
X36368985Y-61882481D01*
X36275853Y-61743100D01*
X36211703Y-61588228D01*
X36179000Y-61423816D01*
X36179000Y-61256184D01*
X36211703Y-61091772D01*
X36275853Y-60936900D01*
X36368985Y-60797519D01*
X36487519Y-60678985D01*
X36626900Y-60585853D01*
X36781772Y-60521703D01*
X36946184Y-60489000D01*
X37113816Y-60489000D01*
X37278228Y-60521703D01*
X37278228Y-60521703D01*
G37*
G36*
X44898228Y-60521703D02*
G01*
X45053100Y-60585853D01*
X45192481Y-60678985D01*
X45311015Y-60797519D01*
X45404147Y-60936900D01*
X45468297Y-61091772D01*
X45501000Y-61256184D01*
X45501000Y-61423816D01*
X45468297Y-61588228D01*
X45404147Y-61743100D01*
X45311015Y-61882481D01*
X45192481Y-62001015D01*
X45053100Y-62094147D01*
X44898228Y-62158297D01*
X44733816Y-62191000D01*
X44566184Y-62191000D01*
X44401772Y-62158297D01*
X44246900Y-62094147D01*
X44107519Y-62001015D01*
X43988985Y-61882481D01*
X43895853Y-61743100D01*
X43831703Y-61588228D01*
X43799000Y-61423816D01*
X43799000Y-61256184D01*
X43831703Y-61091772D01*
X43895853Y-60936900D01*
X43988985Y-60797519D01*
X44107519Y-60678985D01*
X44246900Y-60585853D01*
X44401772Y-60521703D01*
X44566184Y-60489000D01*
X44733816Y-60489000D01*
X44898228Y-60521703D01*
X44898228Y-60521703D01*
G37*
G36*
X42358228Y-60521703D02*
G01*
X42513100Y-60585853D01*
X42652481Y-60678985D01*
X42771015Y-60797519D01*
X42864147Y-60936900D01*
X42928297Y-61091772D01*
X42961000Y-61256184D01*
X42961000Y-61423816D01*
X42928297Y-61588228D01*
X42864147Y-61743100D01*
X42771015Y-61882481D01*
X42652481Y-62001015D01*
X42513100Y-62094147D01*
X42358228Y-62158297D01*
X42193816Y-62191000D01*
X42026184Y-62191000D01*
X41861772Y-62158297D01*
X41706900Y-62094147D01*
X41567519Y-62001015D01*
X41448985Y-61882481D01*
X41355853Y-61743100D01*
X41291703Y-61588228D01*
X41259000Y-61423816D01*
X41259000Y-61256184D01*
X41291703Y-61091772D01*
X41355853Y-60936900D01*
X41448985Y-60797519D01*
X41567519Y-60678985D01*
X41706900Y-60585853D01*
X41861772Y-60521703D01*
X42026184Y-60489000D01*
X42193816Y-60489000D01*
X42358228Y-60521703D01*
X42358228Y-60521703D01*
G37*
G36*
X67060443Y-57885519D02*
G01*
X67126627Y-57892037D01*
X67296466Y-57943557D01*
X67452991Y-58027222D01*
X67480680Y-58049946D01*
X67590186Y-58139814D01*
X67673448Y-58241271D01*
X67702778Y-58277009D01*
X67786443Y-58433534D01*
X67837963Y-58603373D01*
X67855359Y-58780000D01*
X67837963Y-58956627D01*
X67786443Y-59126466D01*
X67702778Y-59282991D01*
X67673448Y-59318729D01*
X67590186Y-59420186D01*
X67488729Y-59503448D01*
X67452991Y-59532778D01*
X67452989Y-59532779D01*
X67324896Y-59601247D01*
X67296466Y-59616443D01*
X67126627Y-59667963D01*
X67060442Y-59674482D01*
X66994260Y-59681000D01*
X66905740Y-59681000D01*
X66839558Y-59674482D01*
X66773373Y-59667963D01*
X66603534Y-59616443D01*
X66575105Y-59601247D01*
X66447011Y-59532779D01*
X66447009Y-59532778D01*
X66411271Y-59503448D01*
X66309814Y-59420186D01*
X66226552Y-59318729D01*
X66197222Y-59282991D01*
X66113557Y-59126466D01*
X66062037Y-58956627D01*
X66044641Y-58780000D01*
X66062037Y-58603373D01*
X66113557Y-58433534D01*
X66197222Y-58277009D01*
X66226552Y-58241271D01*
X66309814Y-58139814D01*
X66419320Y-58049946D01*
X66447009Y-58027222D01*
X66603534Y-57943557D01*
X66773373Y-57892037D01*
X66839557Y-57885519D01*
X66905740Y-57879000D01*
X66994260Y-57879000D01*
X67060443Y-57885519D01*
X67060443Y-57885519D01*
G37*
G36*
X64520443Y-57885519D02*
G01*
X64586627Y-57892037D01*
X64756466Y-57943557D01*
X64912991Y-58027222D01*
X64940680Y-58049946D01*
X65050186Y-58139814D01*
X65133448Y-58241271D01*
X65162778Y-58277009D01*
X65246443Y-58433534D01*
X65297963Y-58603373D01*
X65315359Y-58780000D01*
X65297963Y-58956627D01*
X65246443Y-59126466D01*
X65162778Y-59282991D01*
X65133448Y-59318729D01*
X65050186Y-59420186D01*
X64948729Y-59503448D01*
X64912991Y-59532778D01*
X64912989Y-59532779D01*
X64784896Y-59601247D01*
X64756466Y-59616443D01*
X64586627Y-59667963D01*
X64520442Y-59674482D01*
X64454260Y-59681000D01*
X64365740Y-59681000D01*
X64299558Y-59674482D01*
X64233373Y-59667963D01*
X64063534Y-59616443D01*
X64035105Y-59601247D01*
X63907011Y-59532779D01*
X63907009Y-59532778D01*
X63871271Y-59503448D01*
X63769814Y-59420186D01*
X63686552Y-59318729D01*
X63657222Y-59282991D01*
X63573557Y-59126466D01*
X63522037Y-58956627D01*
X63504641Y-58780000D01*
X63522037Y-58603373D01*
X63573557Y-58433534D01*
X63657222Y-58277009D01*
X63686552Y-58241271D01*
X63769814Y-58139814D01*
X63879320Y-58049946D01*
X63907009Y-58027222D01*
X64063534Y-57943557D01*
X64233373Y-57892037D01*
X64299557Y-57885519D01*
X64365740Y-57879000D01*
X64454260Y-57879000D01*
X64520443Y-57885519D01*
X64520443Y-57885519D01*
G37*
G36*
X37278228Y-57981703D02*
G01*
X37433100Y-58045853D01*
X37572481Y-58138985D01*
X37691015Y-58257519D01*
X37784147Y-58396900D01*
X37848297Y-58551772D01*
X37881000Y-58716184D01*
X37881000Y-58883816D01*
X37848297Y-59048228D01*
X37784147Y-59203100D01*
X37691015Y-59342481D01*
X37572481Y-59461015D01*
X37433100Y-59554147D01*
X37278228Y-59618297D01*
X37113816Y-59651000D01*
X36946184Y-59651000D01*
X36781772Y-59618297D01*
X36626900Y-59554147D01*
X36487519Y-59461015D01*
X36368985Y-59342481D01*
X36275853Y-59203100D01*
X36211703Y-59048228D01*
X36179000Y-58883816D01*
X36179000Y-58716184D01*
X36211703Y-58551772D01*
X36275853Y-58396900D01*
X36368985Y-58257519D01*
X36487519Y-58138985D01*
X36626900Y-58045853D01*
X36781772Y-57981703D01*
X36946184Y-57949000D01*
X37113816Y-57949000D01*
X37278228Y-57981703D01*
X37278228Y-57981703D01*
G37*
G36*
X44898228Y-57981703D02*
G01*
X45053100Y-58045853D01*
X45192481Y-58138985D01*
X45311015Y-58257519D01*
X45404147Y-58396900D01*
X45468297Y-58551772D01*
X45501000Y-58716184D01*
X45501000Y-58883816D01*
X45468297Y-59048228D01*
X45404147Y-59203100D01*
X45311015Y-59342481D01*
X45192481Y-59461015D01*
X45053100Y-59554147D01*
X44898228Y-59618297D01*
X44733816Y-59651000D01*
X44566184Y-59651000D01*
X44401772Y-59618297D01*
X44246900Y-59554147D01*
X44107519Y-59461015D01*
X43988985Y-59342481D01*
X43895853Y-59203100D01*
X43831703Y-59048228D01*
X43799000Y-58883816D01*
X43799000Y-58716184D01*
X43831703Y-58551772D01*
X43895853Y-58396900D01*
X43988985Y-58257519D01*
X44107519Y-58138985D01*
X44246900Y-58045853D01*
X44401772Y-57981703D01*
X44566184Y-57949000D01*
X44733816Y-57949000D01*
X44898228Y-57981703D01*
X44898228Y-57981703D01*
G37*
G36*
X42358228Y-57981703D02*
G01*
X42513100Y-58045853D01*
X42652481Y-58138985D01*
X42771015Y-58257519D01*
X42864147Y-58396900D01*
X42928297Y-58551772D01*
X42961000Y-58716184D01*
X42961000Y-58883816D01*
X42928297Y-59048228D01*
X42864147Y-59203100D01*
X42771015Y-59342481D01*
X42652481Y-59461015D01*
X42513100Y-59554147D01*
X42358228Y-59618297D01*
X42193816Y-59651000D01*
X42026184Y-59651000D01*
X41861772Y-59618297D01*
X41706900Y-59554147D01*
X41567519Y-59461015D01*
X41448985Y-59342481D01*
X41355853Y-59203100D01*
X41291703Y-59048228D01*
X41259000Y-58883816D01*
X41259000Y-58716184D01*
X41291703Y-58551772D01*
X41355853Y-58396900D01*
X41448985Y-58257519D01*
X41567519Y-58138985D01*
X41706900Y-58045853D01*
X41861772Y-57981703D01*
X42026184Y-57949000D01*
X42193816Y-57949000D01*
X42358228Y-57981703D01*
X42358228Y-57981703D01*
G37*
G36*
X39818228Y-57981703D02*
G01*
X39973100Y-58045853D01*
X40112481Y-58138985D01*
X40231015Y-58257519D01*
X40324147Y-58396900D01*
X40388297Y-58551772D01*
X40421000Y-58716184D01*
X40421000Y-58883816D01*
X40388297Y-59048228D01*
X40324147Y-59203100D01*
X40231015Y-59342481D01*
X40112481Y-59461015D01*
X39973100Y-59554147D01*
X39818228Y-59618297D01*
X39653816Y-59651000D01*
X39486184Y-59651000D01*
X39321772Y-59618297D01*
X39166900Y-59554147D01*
X39027519Y-59461015D01*
X38908985Y-59342481D01*
X38815853Y-59203100D01*
X38751703Y-59048228D01*
X38719000Y-58883816D01*
X38719000Y-58716184D01*
X38751703Y-58551772D01*
X38815853Y-58396900D01*
X38908985Y-58257519D01*
X39027519Y-58138985D01*
X39166900Y-58045853D01*
X39321772Y-57981703D01*
X39486184Y-57949000D01*
X39653816Y-57949000D01*
X39818228Y-57981703D01*
X39818228Y-57981703D01*
G37*
G36*
X47734999Y-57999737D02*
G01*
X47744608Y-58002652D01*
X47753472Y-58007390D01*
X47761212Y-58013742D01*
X47761213Y-58013743D01*
X47761237Y-58013763D01*
X47767640Y-58021573D01*
X47767677Y-58021628D01*
X47775480Y-58031147D01*
X47775511Y-58031122D01*
X47786853Y-58044972D01*
X47805779Y-58060537D01*
X47827377Y-58072111D01*
X47850819Y-58079249D01*
X47875202Y-58081676D01*
X47899591Y-58079300D01*
X47923047Y-58072211D01*
X47944670Y-58060682D01*
X47963628Y-58045157D01*
X47979193Y-58026231D01*
X47981029Y-58023175D01*
X47982418Y-58021486D01*
X47982419Y-58021484D01*
X47988801Y-58013725D01*
X47996573Y-58007360D01*
X47996575Y-58007358D01*
X48005399Y-58002654D01*
X48005438Y-58002633D01*
X48015055Y-57999727D01*
X48015085Y-57999718D01*
X48031113Y-57998148D01*
X49168860Y-57998148D01*
X49184999Y-57999737D01*
X49194608Y-58002652D01*
X49203472Y-58007390D01*
X49211237Y-58013763D01*
X49217610Y-58021528D01*
X49222348Y-58030392D01*
X49225263Y-58040001D01*
X49226852Y-58056140D01*
X49226852Y-59543860D01*
X49225263Y-59559999D01*
X49222348Y-59569608D01*
X49217610Y-59578472D01*
X49211237Y-59586237D01*
X49203472Y-59592610D01*
X49194608Y-59597348D01*
X49184999Y-59600263D01*
X49168860Y-59601852D01*
X48031140Y-59601852D01*
X48015001Y-59600263D01*
X48005392Y-59597348D01*
X47996528Y-59592610D01*
X47988763Y-59586237D01*
X47978116Y-59573263D01*
X47971947Y-59564032D01*
X47954619Y-59546706D01*
X47934244Y-59533093D01*
X47911605Y-59523717D01*
X47887572Y-59518937D01*
X47863068Y-59518938D01*
X47839035Y-59523720D01*
X47816396Y-59533098D01*
X47796022Y-59546713D01*
X47778696Y-59564041D01*
X47771825Y-59573317D01*
X47767640Y-59578427D01*
X47761275Y-59586199D01*
X47753516Y-59592581D01*
X47744661Y-59597326D01*
X47741623Y-59598251D01*
X47735085Y-59600242D01*
X47735082Y-59600242D01*
X47735050Y-59600252D01*
X47725000Y-59601247D01*
X47724935Y-59601247D01*
X47718825Y-59601852D01*
X46731140Y-59601852D01*
X46715001Y-59600263D01*
X46705392Y-59597348D01*
X46696528Y-59592610D01*
X46688763Y-59586237D01*
X46682390Y-59578472D01*
X46677652Y-59569608D01*
X46674737Y-59559999D01*
X46673148Y-59543860D01*
X46673148Y-58056140D01*
X46674737Y-58040001D01*
X46677652Y-58030392D01*
X46682390Y-58021528D01*
X46688763Y-58013763D01*
X46696528Y-58007390D01*
X46705392Y-58002652D01*
X46715001Y-57999737D01*
X46731140Y-57998148D01*
X47718860Y-57998148D01*
X47734999Y-57999737D01*
X47734999Y-57999737D01*
G37*
G36*
X67060443Y-55345519D02*
G01*
X67126627Y-55352037D01*
X67296466Y-55403557D01*
X67452991Y-55487222D01*
X67488729Y-55516552D01*
X67590186Y-55599814D01*
X67673448Y-55701271D01*
X67702778Y-55737009D01*
X67786443Y-55893534D01*
X67837963Y-56063373D01*
X67855359Y-56240000D01*
X67837963Y-56416627D01*
X67786443Y-56586466D01*
X67702778Y-56742991D01*
X67673448Y-56778729D01*
X67590186Y-56880186D01*
X67509121Y-56946713D01*
X67452991Y-56992778D01*
X67296466Y-57076443D01*
X67126627Y-57127963D01*
X67060443Y-57134481D01*
X66994260Y-57141000D01*
X66905740Y-57141000D01*
X66839557Y-57134481D01*
X66773373Y-57127963D01*
X66603534Y-57076443D01*
X66447009Y-56992778D01*
X66390879Y-56946713D01*
X66309814Y-56880186D01*
X66226552Y-56778729D01*
X66197222Y-56742991D01*
X66113557Y-56586466D01*
X66062037Y-56416627D01*
X66044641Y-56240000D01*
X66062037Y-56063373D01*
X66113557Y-55893534D01*
X66197222Y-55737009D01*
X66226552Y-55701271D01*
X66309814Y-55599814D01*
X66411271Y-55516552D01*
X66447009Y-55487222D01*
X66603534Y-55403557D01*
X66773373Y-55352037D01*
X66839557Y-55345519D01*
X66905740Y-55339000D01*
X66994260Y-55339000D01*
X67060443Y-55345519D01*
X67060443Y-55345519D01*
G37*
G36*
X64520443Y-55345519D02*
G01*
X64586627Y-55352037D01*
X64756466Y-55403557D01*
X64912991Y-55487222D01*
X64948729Y-55516552D01*
X65050186Y-55599814D01*
X65133448Y-55701271D01*
X65162778Y-55737009D01*
X65246443Y-55893534D01*
X65297963Y-56063373D01*
X65315359Y-56240000D01*
X65297963Y-56416627D01*
X65246443Y-56586466D01*
X65162778Y-56742991D01*
X65133448Y-56778729D01*
X65050186Y-56880186D01*
X64969121Y-56946713D01*
X64912991Y-56992778D01*
X64756466Y-57076443D01*
X64586627Y-57127963D01*
X64520443Y-57134481D01*
X64454260Y-57141000D01*
X64365740Y-57141000D01*
X64299557Y-57134481D01*
X64233373Y-57127963D01*
X64063534Y-57076443D01*
X63907009Y-56992778D01*
X63850879Y-56946713D01*
X63769814Y-56880186D01*
X63686552Y-56778729D01*
X63657222Y-56742991D01*
X63573557Y-56586466D01*
X63522037Y-56416627D01*
X63504641Y-56240000D01*
X63522037Y-56063373D01*
X63573557Y-55893534D01*
X63657222Y-55737009D01*
X63686552Y-55701271D01*
X63769814Y-55599814D01*
X63871271Y-55516552D01*
X63907009Y-55487222D01*
X64063534Y-55403557D01*
X64233373Y-55352037D01*
X64299557Y-55345519D01*
X64365740Y-55339000D01*
X64454260Y-55339000D01*
X64520443Y-55345519D01*
X64520443Y-55345519D01*
G37*
G36*
X39818228Y-55441703D02*
G01*
X39973100Y-55505853D01*
X40112481Y-55598985D01*
X40231015Y-55717519D01*
X40324147Y-55856900D01*
X40388297Y-56011772D01*
X40421000Y-56176184D01*
X40421000Y-56343816D01*
X40388297Y-56508228D01*
X40324147Y-56663100D01*
X40231015Y-56802481D01*
X40112481Y-56921015D01*
X39973100Y-57014147D01*
X39818228Y-57078297D01*
X39653816Y-57111000D01*
X39486184Y-57111000D01*
X39321772Y-57078297D01*
X39166900Y-57014147D01*
X39027519Y-56921015D01*
X38908985Y-56802481D01*
X38815853Y-56663100D01*
X38751703Y-56508228D01*
X38719000Y-56343816D01*
X38719000Y-56176184D01*
X38751703Y-56011772D01*
X38815853Y-55856900D01*
X38908985Y-55717519D01*
X39027519Y-55598985D01*
X39166900Y-55505853D01*
X39321772Y-55441703D01*
X39486184Y-55409000D01*
X39653816Y-55409000D01*
X39818228Y-55441703D01*
X39818228Y-55441703D01*
G37*
G36*
X37278228Y-55441703D02*
G01*
X37433100Y-55505853D01*
X37572481Y-55598985D01*
X37691015Y-55717519D01*
X37784147Y-55856900D01*
X37848297Y-56011772D01*
X37881000Y-56176184D01*
X37881000Y-56343816D01*
X37848297Y-56508228D01*
X37784147Y-56663100D01*
X37691015Y-56802481D01*
X37572481Y-56921015D01*
X37433100Y-57014147D01*
X37278228Y-57078297D01*
X37113816Y-57111000D01*
X36946184Y-57111000D01*
X36781772Y-57078297D01*
X36626900Y-57014147D01*
X36487519Y-56921015D01*
X36368985Y-56802481D01*
X36275853Y-56663100D01*
X36211703Y-56508228D01*
X36179000Y-56343816D01*
X36179000Y-56176184D01*
X36211703Y-56011772D01*
X36275853Y-55856900D01*
X36368985Y-55717519D01*
X36487519Y-55598985D01*
X36626900Y-55505853D01*
X36781772Y-55441703D01*
X36946184Y-55409000D01*
X37113816Y-55409000D01*
X37278228Y-55441703D01*
X37278228Y-55441703D01*
G37*
G36*
X44898228Y-55441703D02*
G01*
X45053100Y-55505853D01*
X45192481Y-55598985D01*
X45311015Y-55717519D01*
X45404147Y-55856900D01*
X45468297Y-56011772D01*
X45501000Y-56176184D01*
X45501000Y-56343816D01*
X45468297Y-56508228D01*
X45404147Y-56663100D01*
X45311015Y-56802481D01*
X45192481Y-56921015D01*
X45053100Y-57014147D01*
X44898228Y-57078297D01*
X44733816Y-57111000D01*
X44566184Y-57111000D01*
X44401772Y-57078297D01*
X44246900Y-57014147D01*
X44107519Y-56921015D01*
X43988985Y-56802481D01*
X43895853Y-56663100D01*
X43831703Y-56508228D01*
X43799000Y-56343816D01*
X43799000Y-56176184D01*
X43831703Y-56011772D01*
X43895853Y-55856900D01*
X43988985Y-55717519D01*
X44107519Y-55598985D01*
X44246900Y-55505853D01*
X44401772Y-55441703D01*
X44566184Y-55409000D01*
X44733816Y-55409000D01*
X44898228Y-55441703D01*
X44898228Y-55441703D01*
G37*
G36*
X42358228Y-55441703D02*
G01*
X42513100Y-55505853D01*
X42652481Y-55598985D01*
X42771015Y-55717519D01*
X42864147Y-55856900D01*
X42928297Y-56011772D01*
X42961000Y-56176184D01*
X42961000Y-56343816D01*
X42928297Y-56508228D01*
X42864147Y-56663100D01*
X42771015Y-56802481D01*
X42652481Y-56921015D01*
X42513100Y-57014147D01*
X42358228Y-57078297D01*
X42193816Y-57111000D01*
X42026184Y-57111000D01*
X41861772Y-57078297D01*
X41706900Y-57014147D01*
X41567519Y-56921015D01*
X41448985Y-56802481D01*
X41355853Y-56663100D01*
X41291703Y-56508228D01*
X41259000Y-56343816D01*
X41259000Y-56176184D01*
X41291703Y-56011772D01*
X41355853Y-55856900D01*
X41448985Y-55717519D01*
X41567519Y-55598985D01*
X41706900Y-55505853D01*
X41861772Y-55441703D01*
X42026184Y-55409000D01*
X42193816Y-55409000D01*
X42358228Y-55441703D01*
X42358228Y-55441703D01*
G37*
G36*
X47734999Y-55399737D02*
G01*
X47744608Y-55402652D01*
X47753472Y-55407390D01*
X47761212Y-55413742D01*
X47761213Y-55413743D01*
X47761237Y-55413763D01*
X47767640Y-55421573D01*
X47767677Y-55421628D01*
X47775480Y-55431147D01*
X47775511Y-55431122D01*
X47786853Y-55444972D01*
X47805779Y-55460537D01*
X47827377Y-55472111D01*
X47850819Y-55479249D01*
X47875202Y-55481676D01*
X47899591Y-55479300D01*
X47923047Y-55472211D01*
X47944670Y-55460682D01*
X47963628Y-55445157D01*
X47979193Y-55426231D01*
X47981029Y-55423175D01*
X47982418Y-55421486D01*
X47982419Y-55421484D01*
X47988801Y-55413725D01*
X47996573Y-55407360D01*
X47996575Y-55407358D01*
X48002483Y-55404209D01*
X48005438Y-55402633D01*
X48015055Y-55399727D01*
X48015085Y-55399718D01*
X48031113Y-55398148D01*
X49168860Y-55398148D01*
X49184999Y-55399737D01*
X49194608Y-55402652D01*
X49203472Y-55407390D01*
X49211237Y-55413763D01*
X49217610Y-55421528D01*
X49222348Y-55430392D01*
X49225263Y-55440001D01*
X49226852Y-55456140D01*
X49226852Y-56943860D01*
X49225263Y-56959999D01*
X49222348Y-56969608D01*
X49217610Y-56978472D01*
X49211237Y-56986237D01*
X49203472Y-56992610D01*
X49194608Y-56997348D01*
X49184999Y-57000263D01*
X49168860Y-57001852D01*
X48031140Y-57001852D01*
X48015001Y-57000263D01*
X48005392Y-56997348D01*
X47996528Y-56992610D01*
X47988763Y-56986237D01*
X47978116Y-56973263D01*
X47971947Y-56964032D01*
X47954619Y-56946706D01*
X47934244Y-56933093D01*
X47911605Y-56923717D01*
X47887572Y-56918937D01*
X47863068Y-56918938D01*
X47839035Y-56923720D01*
X47816396Y-56933098D01*
X47796022Y-56946713D01*
X47778696Y-56964041D01*
X47771825Y-56973317D01*
X47767640Y-56978427D01*
X47761275Y-56986199D01*
X47753516Y-56992581D01*
X47744661Y-56997326D01*
X47741623Y-56998251D01*
X47735085Y-57000242D01*
X47735082Y-57000242D01*
X47735050Y-57000252D01*
X47725000Y-57001247D01*
X47724935Y-57001247D01*
X47718825Y-57001852D01*
X46731140Y-57001852D01*
X46715001Y-57000263D01*
X46705392Y-56997348D01*
X46696528Y-56992610D01*
X46688763Y-56986237D01*
X46682390Y-56978472D01*
X46677652Y-56969608D01*
X46674737Y-56959999D01*
X46673148Y-56943860D01*
X46673148Y-55456140D01*
X46674737Y-55440001D01*
X46677652Y-55430392D01*
X46682390Y-55421528D01*
X46688763Y-55413763D01*
X46696528Y-55407390D01*
X46705392Y-55402652D01*
X46715001Y-55399737D01*
X46731140Y-55398148D01*
X47718860Y-55398148D01*
X47734999Y-55399737D01*
X47734999Y-55399737D01*
G37*
G36*
X64520442Y-52805518D02*
G01*
X64586627Y-52812037D01*
X64756466Y-52863557D01*
X64756468Y-52863558D01*
X64785919Y-52879300D01*
X64912991Y-52947222D01*
X64948729Y-52976552D01*
X65050186Y-53059814D01*
X65133448Y-53161271D01*
X65162778Y-53197009D01*
X65246443Y-53353534D01*
X65297963Y-53523373D01*
X65315359Y-53700000D01*
X65297963Y-53876627D01*
X65246443Y-54046466D01*
X65162778Y-54202991D01*
X65133448Y-54238729D01*
X65050186Y-54340186D01*
X64948729Y-54423448D01*
X64912991Y-54452778D01*
X64756466Y-54536443D01*
X64586627Y-54587963D01*
X64520443Y-54594481D01*
X64454260Y-54601000D01*
X64365740Y-54601000D01*
X64299557Y-54594481D01*
X64233373Y-54587963D01*
X64063534Y-54536443D01*
X63907009Y-54452778D01*
X63871271Y-54423448D01*
X63769814Y-54340186D01*
X63686552Y-54238729D01*
X63657222Y-54202991D01*
X63573557Y-54046466D01*
X63522037Y-53876627D01*
X63504641Y-53700000D01*
X63522037Y-53523373D01*
X63573557Y-53353534D01*
X63657222Y-53197009D01*
X63686552Y-53161271D01*
X63769814Y-53059814D01*
X63871271Y-52976552D01*
X63907009Y-52947222D01*
X64034081Y-52879300D01*
X64063532Y-52863558D01*
X64063534Y-52863557D01*
X64233373Y-52812037D01*
X64299558Y-52805518D01*
X64365740Y-52799000D01*
X64454260Y-52799000D01*
X64520442Y-52805518D01*
X64520442Y-52805518D01*
G37*
G36*
X67851000Y-54601000D02*
G01*
X66049000Y-54601000D01*
X66049000Y-52799000D01*
X67851000Y-52799000D01*
X67851000Y-54601000D01*
X67851000Y-54601000D01*
G37*
G36*
X37278228Y-52901703D02*
G01*
X37433100Y-52965853D01*
X37572481Y-53058985D01*
X37691015Y-53177519D01*
X37784147Y-53316900D01*
X37848297Y-53471772D01*
X37881000Y-53636184D01*
X37881000Y-53803816D01*
X37848297Y-53968228D01*
X37784147Y-54123100D01*
X37691015Y-54262481D01*
X37572481Y-54381015D01*
X37433100Y-54474147D01*
X37278228Y-54538297D01*
X37113816Y-54571000D01*
X36946184Y-54571000D01*
X36781772Y-54538297D01*
X36626900Y-54474147D01*
X36487519Y-54381015D01*
X36368985Y-54262481D01*
X36275853Y-54123100D01*
X36211703Y-53968228D01*
X36179000Y-53803816D01*
X36179000Y-53636184D01*
X36211703Y-53471772D01*
X36275853Y-53316900D01*
X36368985Y-53177519D01*
X36487519Y-53058985D01*
X36626900Y-52965853D01*
X36781772Y-52901703D01*
X36946184Y-52869000D01*
X37113816Y-52869000D01*
X37278228Y-52901703D01*
X37278228Y-52901703D01*
G37*
G36*
X39818228Y-52901703D02*
G01*
X39973100Y-52965853D01*
X40112481Y-53058985D01*
X40231015Y-53177519D01*
X40324147Y-53316900D01*
X40388297Y-53471772D01*
X40421000Y-53636184D01*
X40421000Y-53803816D01*
X40388297Y-53968228D01*
X40324147Y-54123100D01*
X40231015Y-54262481D01*
X40112481Y-54381015D01*
X39973100Y-54474147D01*
X39818228Y-54538297D01*
X39653816Y-54571000D01*
X39486184Y-54571000D01*
X39321772Y-54538297D01*
X39166900Y-54474147D01*
X39027519Y-54381015D01*
X38908985Y-54262481D01*
X38815853Y-54123100D01*
X38751703Y-53968228D01*
X38719000Y-53803816D01*
X38719000Y-53636184D01*
X38751703Y-53471772D01*
X38815853Y-53316900D01*
X38908985Y-53177519D01*
X39027519Y-53058985D01*
X39166900Y-52965853D01*
X39321772Y-52901703D01*
X39486184Y-52869000D01*
X39653816Y-52869000D01*
X39818228Y-52901703D01*
X39818228Y-52901703D01*
G37*
G36*
X44898228Y-52901703D02*
G01*
X45053100Y-52965853D01*
X45192481Y-53058985D01*
X45311015Y-53177519D01*
X45404147Y-53316900D01*
X45468297Y-53471772D01*
X45501000Y-53636184D01*
X45501000Y-53803816D01*
X45468297Y-53968228D01*
X45404147Y-54123100D01*
X45311015Y-54262481D01*
X45192481Y-54381015D01*
X45053100Y-54474147D01*
X44898228Y-54538297D01*
X44733816Y-54571000D01*
X44566184Y-54571000D01*
X44401772Y-54538297D01*
X44246900Y-54474147D01*
X44107519Y-54381015D01*
X43988985Y-54262481D01*
X43895853Y-54123100D01*
X43831703Y-53968228D01*
X43799000Y-53803816D01*
X43799000Y-53636184D01*
X43831703Y-53471772D01*
X43895853Y-53316900D01*
X43988985Y-53177519D01*
X44107519Y-53058985D01*
X44246900Y-52965853D01*
X44401772Y-52901703D01*
X44566184Y-52869000D01*
X44733816Y-52869000D01*
X44898228Y-52901703D01*
X44898228Y-52901703D01*
G37*
G36*
X42358228Y-52901703D02*
G01*
X42513100Y-52965853D01*
X42652481Y-53058985D01*
X42771015Y-53177519D01*
X42864147Y-53316900D01*
X42928297Y-53471772D01*
X42961000Y-53636184D01*
X42961000Y-53803816D01*
X42928297Y-53968228D01*
X42864147Y-54123100D01*
X42771015Y-54262481D01*
X42652481Y-54381015D01*
X42513100Y-54474147D01*
X42358228Y-54538297D01*
X42193816Y-54571000D01*
X42026184Y-54571000D01*
X41861772Y-54538297D01*
X41706900Y-54474147D01*
X41567519Y-54381015D01*
X41448985Y-54262481D01*
X41355853Y-54123100D01*
X41291703Y-53968228D01*
X41259000Y-53803816D01*
X41259000Y-53636184D01*
X41291703Y-53471772D01*
X41355853Y-53316900D01*
X41448985Y-53177519D01*
X41567519Y-53058985D01*
X41706900Y-52965853D01*
X41861772Y-52901703D01*
X42026184Y-52869000D01*
X42193816Y-52869000D01*
X42358228Y-52901703D01*
X42358228Y-52901703D01*
G37*
G36*
X47734999Y-52799737D02*
G01*
X47744608Y-52802652D01*
X47753472Y-52807390D01*
X47761212Y-52813742D01*
X47761213Y-52813743D01*
X47761237Y-52813763D01*
X47767640Y-52821573D01*
X47767677Y-52821628D01*
X47775480Y-52831147D01*
X47775511Y-52831122D01*
X47786853Y-52844972D01*
X47805779Y-52860537D01*
X47827377Y-52872111D01*
X47850819Y-52879249D01*
X47875202Y-52881676D01*
X47899591Y-52879300D01*
X47923047Y-52872211D01*
X47944670Y-52860682D01*
X47963628Y-52845157D01*
X47979193Y-52826231D01*
X47981029Y-52823175D01*
X47982418Y-52821486D01*
X47982419Y-52821484D01*
X47988801Y-52813725D01*
X47996573Y-52807360D01*
X47996575Y-52807358D01*
X48005399Y-52802654D01*
X48005438Y-52802633D01*
X48015055Y-52799727D01*
X48015085Y-52799718D01*
X48031113Y-52798148D01*
X49168860Y-52798148D01*
X49184999Y-52799737D01*
X49194608Y-52802652D01*
X49203472Y-52807390D01*
X49211237Y-52813763D01*
X49217610Y-52821528D01*
X49222348Y-52830392D01*
X49225263Y-52840001D01*
X49226852Y-52856140D01*
X49226852Y-54343860D01*
X49225263Y-54359999D01*
X49222348Y-54369608D01*
X49217610Y-54378472D01*
X49211237Y-54386237D01*
X49203472Y-54392610D01*
X49194608Y-54397348D01*
X49184999Y-54400263D01*
X49168860Y-54401852D01*
X48031140Y-54401852D01*
X48015001Y-54400263D01*
X48005392Y-54397348D01*
X47996528Y-54392610D01*
X47988763Y-54386237D01*
X47978116Y-54373263D01*
X47971947Y-54364032D01*
X47954619Y-54346706D01*
X47934244Y-54333093D01*
X47911605Y-54323717D01*
X47887572Y-54318937D01*
X47863068Y-54318938D01*
X47839035Y-54323720D01*
X47816396Y-54333098D01*
X47796022Y-54346713D01*
X47778696Y-54364041D01*
X47771825Y-54373317D01*
X47767640Y-54378427D01*
X47761275Y-54386199D01*
X47753516Y-54392581D01*
X47744661Y-54397326D01*
X47741623Y-54398251D01*
X47735085Y-54400242D01*
X47735082Y-54400242D01*
X47735050Y-54400252D01*
X47725000Y-54401247D01*
X47724935Y-54401247D01*
X47718825Y-54401852D01*
X46731140Y-54401852D01*
X46715001Y-54400263D01*
X46705392Y-54397348D01*
X46696528Y-54392610D01*
X46688763Y-54386237D01*
X46682390Y-54378472D01*
X46677652Y-54369608D01*
X46674737Y-54359999D01*
X46673148Y-54343860D01*
X46673148Y-52856140D01*
X46674737Y-52840001D01*
X46677652Y-52830392D01*
X46682390Y-52821528D01*
X46688763Y-52813763D01*
X46696528Y-52807390D01*
X46705392Y-52802652D01*
X46715001Y-52799737D01*
X46731140Y-52798148D01*
X47718860Y-52798148D01*
X47734999Y-52799737D01*
X47734999Y-52799737D01*
G37*
G36*
X37990988Y-45537973D02*
G01*
X38578082Y-45781155D01*
X38578084Y-45781156D01*
X39106455Y-46134202D01*
X39555798Y-46583545D01*
X39908844Y-47111916D01*
X39908845Y-47111918D01*
X40152027Y-47699012D01*
X40276000Y-48322265D01*
X40276000Y-48957735D01*
X40152027Y-49580988D01*
X39963278Y-50036669D01*
X39908844Y-50168084D01*
X39555798Y-50696455D01*
X39106455Y-51145798D01*
X38578084Y-51498844D01*
X38578083Y-51498845D01*
X38578082Y-51498845D01*
X37990988Y-51742027D01*
X37367735Y-51866000D01*
X36732265Y-51866000D01*
X36109012Y-51742027D01*
X35521918Y-51498845D01*
X35521917Y-51498845D01*
X35521916Y-51498844D01*
X34993545Y-51145798D01*
X34544202Y-50696455D01*
X34191156Y-50168084D01*
X34136722Y-50036669D01*
X33947973Y-49580988D01*
X33824000Y-48957735D01*
X33824000Y-48322265D01*
X33947973Y-47699012D01*
X34191155Y-47111918D01*
X34191156Y-47111916D01*
X34544202Y-46583545D01*
X34993545Y-46134202D01*
X35521916Y-45781156D01*
X35521918Y-45781155D01*
X36109012Y-45537973D01*
X36732265Y-45414000D01*
X37367735Y-45414000D01*
X37990988Y-45537973D01*
X37990988Y-45537973D01*
G37*
G36*
X66026373Y-47007024D02*
G01*
X66227589Y-47047048D01*
X66606671Y-47204069D01*
X66947835Y-47432028D01*
X67237972Y-47722165D01*
X67465931Y-48063329D01*
X67622952Y-48442411D01*
X67703000Y-48844842D01*
X67703000Y-49255158D01*
X67622952Y-49657589D01*
X67465931Y-50036671D01*
X67237972Y-50377835D01*
X66947835Y-50667972D01*
X66606671Y-50895931D01*
X66227589Y-51052952D01*
X65825159Y-51133000D01*
X65414841Y-51133000D01*
X65012411Y-51052952D01*
X64633329Y-50895931D01*
X64292165Y-50667972D01*
X64002028Y-50377835D01*
X63774069Y-50036671D01*
X63617048Y-49657589D01*
X63537000Y-49255158D01*
X63537000Y-48844842D01*
X63617048Y-48442411D01*
X63774069Y-48063329D01*
X64002028Y-47722165D01*
X64292165Y-47432028D01*
X64633329Y-47204069D01*
X65012411Y-47047048D01*
X65213627Y-47007024D01*
X65414841Y-46967000D01*
X65825159Y-46967000D01*
X66026373Y-47007024D01*
X66026373Y-47007024D01*
G37*
G36*
X89056373Y-47007024D02*
G01*
X89257589Y-47047048D01*
X89636671Y-47204069D01*
X89977835Y-47432028D01*
X90267972Y-47722165D01*
X90495931Y-48063329D01*
X90652952Y-48442411D01*
X90733000Y-48844842D01*
X90733000Y-49255158D01*
X90652952Y-49657589D01*
X90495931Y-50036671D01*
X90267972Y-50377835D01*
X89977835Y-50667972D01*
X89636671Y-50895931D01*
X89257589Y-51052952D01*
X88855159Y-51133000D01*
X88444841Y-51133000D01*
X88042411Y-51052952D01*
X87663329Y-50895931D01*
X87322165Y-50667972D01*
X87032028Y-50377835D01*
X86804069Y-50036671D01*
X86647048Y-49657589D01*
X86567000Y-49255158D01*
X86567000Y-48844842D01*
X86647048Y-48442411D01*
X86804069Y-48063329D01*
X87032028Y-47722165D01*
X87322165Y-47432028D01*
X87663329Y-47204069D01*
X88042411Y-47047048D01*
X88243627Y-47007024D01*
X88444841Y-46967000D01*
X88855159Y-46967000D01*
X89056373Y-47007024D01*
X89056373Y-47007024D01*
G37*
G36*
X123720988Y-42997973D02*
G01*
X124308082Y-43241155D01*
X124308084Y-43241156D01*
X124836455Y-43594202D01*
X125285798Y-44043545D01*
X125638844Y-44571916D01*
X125638845Y-44571918D01*
X125882027Y-45159012D01*
X126006000Y-45782265D01*
X126006000Y-46417735D01*
X125882027Y-47040988D01*
X125720053Y-47432028D01*
X125638844Y-47628084D01*
X125285798Y-48156455D01*
X124836455Y-48605798D01*
X124308084Y-48958844D01*
X124308083Y-48958845D01*
X124308082Y-48958845D01*
X123720988Y-49202027D01*
X123097735Y-49326000D01*
X122462265Y-49326000D01*
X121839012Y-49202027D01*
X121251918Y-48958845D01*
X121251917Y-48958845D01*
X121251916Y-48958844D01*
X120723545Y-48605798D01*
X120274202Y-48156455D01*
X119921156Y-47628084D01*
X119839947Y-47432028D01*
X119677973Y-47040988D01*
X119554000Y-46417735D01*
X119554000Y-45782265D01*
X119677973Y-45159012D01*
X119921155Y-44571918D01*
X119921156Y-44571916D01*
X120274202Y-44043545D01*
X120723545Y-43594202D01*
X121251916Y-43241156D01*
X121251918Y-43241155D01*
X121839012Y-42997973D01*
X122462265Y-42874000D01*
X123097735Y-42874000D01*
X123720988Y-42997973D01*
X123720988Y-42997973D01*
G37*
M02*
