M48
; DRILL file {KiCad (5.1.2)-2} date 15/12/2021 08:53:56
; FORMAT={-:-/ absolute / metric / decimal}
; #@! TF.CreationDate,2021-12-15T08:53:56-03:00
; #@! TF.GenerationSoftware,Kicad,Pcbnew,(5.1.2)-2
FMAT,2
METRIC
T1C0.400
T2C0.500
T3C1.000
T4C1.016
T5C3.048
T6C3.200
%
G90
G05
T1
X43.69Y-121.2
X47.519Y-62.285
X47.95Y-70.0
X48.2Y-93.2
X48.475Y-65.1
X49.16Y-114.43
X50.595Y-100.875
X52.0Y-95.67
X52.61Y-72.2
X52.62Y-75.904
X53.18Y-79.73
X53.25Y-57.9
X53.35Y-56.7
X53.45Y-55.5
X54.245Y-96.315
X55.02Y-86.0
X55.118Y-71.628
X55.77Y-46.15
X55.89Y-60.18
X56.25Y-84.76
X56.53Y-81.62
X57.912Y-73.406
X58.65Y-49.96
X58.65Y-56.17
X59.3Y-99.81
X59.51Y-66.53
X60.58Y-98.18
X61.1Y-95.66
X61.2Y-62.9
X62.1Y-114.1
X62.14Y-109.79
X62.585Y-67.62
X64.5Y-114.1
X64.99Y-121.49
X66.78Y-114.65
X68.03Y-117.08
X68.82Y-122.37
X69.56Y-87.17
X70.04Y-84.02
X70.216Y-94.79
X71.04Y-76.85
X71.12Y-90.16
X71.32Y-116.26
X71.5Y-61.9
X72.22Y-52.56
X72.36Y-82.74
X72.47Y-129.51
X72.62Y-50.47
X72.775Y-51.635
X73.05Y-79.35
X73.41Y-87.71
X73.41Y-117.02
X73.48Y-72.8
X73.5Y-104.58
X73.53Y-81.53
X73.6Y-55.485
X73.76Y-96.4
X74.397Y-129.075
X75.02Y-88.04
X75.83Y-86.97
X75.99Y-72.8
X76.14Y-107.71
X76.84Y-70.16
X77.582Y-80.315
X78.45Y-64.55
X78.5Y-72.8
X78.937Y-94.453
X79.4Y-89.25
X79.44Y-81.07
X79.57Y-116.53
X79.6Y-48.1
X79.72Y-84.45
X80.0Y-63.4
X80.045Y-88.224
X80.275Y-57.45
X80.31Y-103.54
X80.77Y-85.16
X81.67Y-99.35
X81.9Y-87.8
X82.16Y-112.12
X82.3Y-115.9
X82.42Y-86.15
X82.8Y-64.7
X82.8Y-72.22
X83.44Y-107.55
X84.26Y-72.23
X84.26Y-78.63
X84.265Y-64.605
X84.435Y-98.935
X84.5Y-86.9
X85.39Y-64.25
X85.39Y-72.12
X85.52Y-81.64
X86.04Y-59.77
X86.15Y-122.0
X86.18Y-99.675
X86.315Y-83.522
X86.4Y-72.2
X86.65Y-115.725
X86.694Y-117.281
X86.925Y-64.125
X87.29Y-129.02
X87.8Y-118.91
X87.91Y-87.78
X88.16Y-96.43
X88.46Y-64.33
X88.47Y-72.01
X89.28Y-100.51
X90.73Y-96.15
X91.61Y-67.06
X91.74Y-74.62
X92.34Y-64.05
X93.54Y-63.81
X93.55Y-85.37
X93.64Y-107.95
X94.43Y-68.3
X95.302Y-57.192
X97.19Y-89.34
X97.58Y-78.91
X98.66Y-100.51
X99.4Y-86.7
X99.62Y-60.51
X99.97Y-77.86
X100.099Y-57.129
X100.17Y-91.53
X101.15Y-99.72
X101.69Y-105.36
X102.1Y-56.4
X106.03Y-46.95
X106.87Y-94.78
X106.96Y-61.45
X107.34Y-121.54
X107.4Y-54.5
X107.8Y-103.8
X107.94Y-75.33
X108.05Y-65.22
X108.05Y-71.83
X108.78Y-81.42
X109.05Y-98.76
X109.2Y-102.7
X109.46Y-61.36
X109.47Y-74.85
X111.06Y-89.16
X111.21Y-71.96
X111.3Y-63.7
X112.75Y-53.0
X112.87Y-94.81
X113.5Y-73.55
X113.55Y-70.31
X115.05Y-124.3
X115.25Y-54.5
X115.7Y-104.3
X116.01Y-102.8
X116.14Y-68.78
X116.172Y-88.802
X117.33Y-92.89
X117.81Y-94.29
X120.17Y-119.07
T2
X118.05Y-62.25
X118.05Y-63.5
X118.05Y-64.75
X118.05Y-66.0
X111.05Y-121.48
X112.3Y-121.48
X113.55Y-121.48
X114.8Y-121.48
X118.0Y-72.15
X118.0Y-73.4
X118.0Y-74.65
X118.0Y-75.9
X118.0Y-77.15
X118.0Y-78.4
X118.0Y-106.95
X118.0Y-108.2
X118.0Y-109.45
X118.0Y-110.7
X118.0Y-111.95
X118.0Y-113.2
X118.28Y-95.67
X118.28Y-96.92
X118.28Y-98.17
X118.28Y-99.42
X118.28Y-100.67
X118.28Y-101.92
T3
X98.45Y-105.5
X94.65Y-105.5
X64.41Y-53.7
X64.41Y-56.24
X64.41Y-58.78
X64.41Y-61.32
X64.41Y-63.86
X64.41Y-66.4
X64.41Y-68.94
X64.41Y-71.48
X64.41Y-74.02
X64.41Y-76.56
X64.41Y-79.1
X64.41Y-81.64
X64.41Y-84.18
X64.41Y-86.72
X64.41Y-89.26
X64.41Y-91.8
X64.41Y-94.34
X64.41Y-96.88
X64.41Y-99.42
X64.41Y-101.96
X66.95Y-53.7
X66.95Y-56.24
X66.95Y-58.78
X66.95Y-61.32
X66.95Y-63.86
X66.95Y-66.4
X66.95Y-68.94
X66.95Y-71.48
X66.95Y-74.02
X66.95Y-76.56
X66.95Y-79.1
X66.95Y-81.64
X66.95Y-84.18
X66.95Y-86.72
X66.95Y-89.26
X66.95Y-91.8
X66.95Y-94.34
X66.95Y-96.88
X66.95Y-99.42
X66.95Y-101.96
X53.15Y-105.4
X57.25Y-105.4
T4
X37.03Y-53.72
X37.03Y-56.26
X37.03Y-58.8
X37.03Y-61.34
X37.03Y-63.88
X37.03Y-66.42
X37.03Y-68.96
X37.03Y-71.5
X37.03Y-74.04
X37.03Y-76.58
X37.03Y-79.12
X37.03Y-81.66
X37.03Y-84.2
X37.03Y-86.74
X37.03Y-89.28
X37.03Y-91.82
X37.03Y-94.36
X37.03Y-96.9
X37.03Y-99.44
X37.03Y-101.98
X37.03Y-104.52
X37.03Y-107.06
X37.03Y-109.6
X37.03Y-112.14
X37.03Y-114.68
X37.03Y-117.22
X39.57Y-53.72
X39.57Y-56.26
X39.57Y-58.8
X39.57Y-61.34
X39.57Y-63.88
X39.57Y-66.42
X39.57Y-68.96
X39.57Y-71.5
X39.57Y-74.04
X39.57Y-76.58
X39.57Y-79.12
X39.57Y-81.66
X39.57Y-84.2
X39.57Y-86.74
X39.57Y-89.28
X39.57Y-91.82
X39.57Y-94.36
X39.57Y-96.9
X39.57Y-99.44
X39.57Y-101.98
X39.57Y-104.52
X39.57Y-107.06
X39.57Y-109.6
X39.57Y-112.14
X39.57Y-114.68
X39.57Y-117.22
X42.11Y-53.72
X42.11Y-56.26
X42.11Y-58.8
X42.11Y-61.34
X42.11Y-63.88
X42.11Y-66.42
X42.11Y-68.96
X42.11Y-71.5
X42.11Y-74.04
X42.11Y-76.58
X42.11Y-79.12
X42.11Y-81.66
X42.11Y-84.2
X42.11Y-86.74
X42.11Y-89.28
X42.11Y-91.82
X42.11Y-94.36
X42.11Y-96.9
X42.11Y-99.44
X42.11Y-101.98
X42.11Y-104.52
X42.11Y-107.06
X42.11Y-109.6
X42.11Y-112.14
X42.11Y-114.68
X42.11Y-117.22
X44.65Y-53.72
X44.65Y-56.26
X44.65Y-58.8
X44.65Y-61.34
X44.65Y-63.88
X44.65Y-66.42
X44.65Y-68.96
X44.65Y-71.5
X44.65Y-74.04
X44.65Y-76.58
X44.65Y-79.12
X44.65Y-81.66
X44.65Y-84.2
X44.65Y-86.74
X44.65Y-89.28
X44.65Y-91.82
X44.65Y-94.36
X44.65Y-96.9
X44.65Y-99.44
X44.65Y-101.98
X44.65Y-104.52
X44.65Y-107.06
X44.65Y-109.6
X44.65Y-112.14
X44.65Y-114.68
X44.65Y-117.22
T5
X65.65Y-106.94
X65.62Y-49.05
X88.62Y-106.94
X88.65Y-49.05
T6
X37.05Y-48.64
X37.05Y-122.3
X122.78Y-46.1
X122.78Y-126.11
T0
M30
