G04 #@! TF.GenerationSoftware,KiCad,Pcbnew,(5.1.2)-2*
G04 #@! TF.CreationDate,2021-08-28T01:10:26-04:00*
G04 #@! TF.ProjectId,MAG_Plus,4d41475f-506c-4757-932e-6b696361645f,rev?*
G04 #@! TF.SameCoordinates,Original*
G04 #@! TF.FileFunction,Copper,L2,Bot*
G04 #@! TF.FilePolarity,Positive*
%FSLAX46Y46*%
G04 Gerber Fmt 4.6, Leading zero omitted, Abs format (unit mm)*
G04 Created by KiCad (PCBNEW (5.1.2)-2) date 2021-08-28 01:10:26*
%MOMM*%
%LPD*%
G04 APERTURE LIST*
%ADD10C,4.500000*%
%ADD11C,3.200000*%
%ADD12C,9.200000*%
%ADD13C,0.800000*%
%ADD14C,0.250000*%
%ADD15C,0.254000*%
G04 APERTURE END LIST*
D10*
X124830000Y-251710000D03*
X201020000Y-251680000D03*
D11*
X194230000Y-332680000D03*
X131610000Y-332680000D03*
X194230000Y-290090000D03*
X131610000Y-290090000D03*
D12*
X132420000Y-311380000D03*
X193440000Y-311410000D03*
D10*
X201030000Y-343290000D03*
X124830000Y-343280000D03*
D13*
X183110000Y-298940000D03*
X177640000Y-302210000D03*
X178310000Y-297800000D03*
X184080000Y-295940000D03*
X144220000Y-299500000D03*
X141320000Y-299540000D03*
X148700000Y-306960000D03*
X154440000Y-304790000D03*
X143450000Y-306700000D03*
X138510000Y-299370000D03*
X152220000Y-293980000D03*
X144950000Y-292560000D03*
D14*
X179810000Y-302210000D02*
X177640000Y-302210000D01*
X183110000Y-298940000D02*
X183080000Y-298940000D01*
X183080000Y-298940000D02*
X179810000Y-302210000D01*
X182220000Y-297800000D02*
X183680001Y-296339999D01*
X183680001Y-296339999D02*
X184080000Y-295940000D01*
X178310000Y-297800000D02*
X182220000Y-297800000D01*
X144220000Y-299500000D02*
X141360000Y-299500000D01*
X141360000Y-299500000D02*
X141320000Y-299540000D01*
X149265685Y-306960000D02*
X149315685Y-307010000D01*
X148700000Y-306960000D02*
X149265685Y-306960000D01*
X149315685Y-307010000D02*
X152170000Y-307010000D01*
X152170000Y-307010000D02*
X154390000Y-304790000D01*
X154390000Y-304790000D02*
X154440000Y-304790000D01*
X143450000Y-306700000D02*
X142380000Y-307770000D01*
X142380000Y-307770000D02*
X141070000Y-307770000D01*
X141070000Y-307770000D02*
X138510000Y-305210000D01*
X138510000Y-305210000D02*
X138510000Y-299370000D01*
X151540000Y-292560000D02*
X152220000Y-293240000D01*
X144950000Y-292560000D02*
X151540000Y-292560000D01*
X152220000Y-293240000D02*
X152220000Y-293980000D01*
D15*
G36*
X122589074Y-345119080D02*
G01*
X122990920Y-345520926D01*
X123288855Y-345720000D01*
X122280000Y-345720000D01*
X122280000Y-344656518D01*
X122589074Y-345119080D01*
X122589074Y-345119080D01*
G37*
X122589074Y-345119080D02*
X122990920Y-345520926D01*
X123288855Y-345720000D01*
X122280000Y-345720000D01*
X122280000Y-344656518D01*
X122589074Y-345119080D01*
G36*
X203560000Y-345720000D02*
G01*
X202586111Y-345720000D01*
X202869080Y-345530926D01*
X203270926Y-345129080D01*
X203560000Y-344696450D01*
X203560000Y-345720000D01*
X203560000Y-345720000D01*
G37*
X203560000Y-345720000D02*
X202586111Y-345720000D01*
X202869080Y-345530926D01*
X203270926Y-345129080D01*
X203560000Y-344696450D01*
X203560000Y-345720000D01*
G36*
X199636252Y-249134831D02*
G01*
X199180920Y-249439074D01*
X198779074Y-249840920D01*
X198463346Y-250313440D01*
X198245869Y-250838477D01*
X198135000Y-251395852D01*
X198135000Y-251964148D01*
X198245869Y-252521523D01*
X198463346Y-253046560D01*
X198779074Y-253519080D01*
X199180920Y-253920926D01*
X199653440Y-254236654D01*
X200178477Y-254454131D01*
X200735852Y-254565000D01*
X201304148Y-254565000D01*
X201861523Y-254454131D01*
X202386560Y-254236654D01*
X202859080Y-253920926D01*
X203260926Y-253519080D01*
X203560001Y-253071483D01*
X203560000Y-341883550D01*
X203270926Y-341450920D01*
X202869080Y-341049074D01*
X202396560Y-340733346D01*
X201871523Y-340515869D01*
X201314148Y-340405000D01*
X200745852Y-340405000D01*
X200188477Y-340515869D01*
X199663440Y-340733346D01*
X199190920Y-341049074D01*
X198789074Y-341450920D01*
X198473346Y-341923440D01*
X198255869Y-342448477D01*
X198145000Y-343005852D01*
X198145000Y-343574148D01*
X198255869Y-344131523D01*
X198473346Y-344656560D01*
X198789074Y-345129080D01*
X199190920Y-345530926D01*
X199473889Y-345720000D01*
X126371145Y-345720000D01*
X126669080Y-345520926D01*
X127070926Y-345119080D01*
X127386654Y-344646560D01*
X127604131Y-344121523D01*
X127715000Y-343564148D01*
X127715000Y-342995852D01*
X127604131Y-342438477D01*
X127386654Y-341913440D01*
X127070926Y-341440920D01*
X126669080Y-341039074D01*
X126196560Y-340723346D01*
X125671523Y-340505869D01*
X125114148Y-340395000D01*
X124545852Y-340395000D01*
X123988477Y-340505869D01*
X123463440Y-340723346D01*
X122990920Y-341039074D01*
X122589074Y-341440920D01*
X122280000Y-341903482D01*
X122280000Y-332459872D01*
X129375000Y-332459872D01*
X129375000Y-332900128D01*
X129460890Y-333331925D01*
X129629369Y-333738669D01*
X129873962Y-334104729D01*
X130185271Y-334416038D01*
X130551331Y-334660631D01*
X130958075Y-334829110D01*
X131389872Y-334915000D01*
X131830128Y-334915000D01*
X132261925Y-334829110D01*
X132668669Y-334660631D01*
X133034729Y-334416038D01*
X133346038Y-334104729D01*
X133590631Y-333738669D01*
X133759110Y-333331925D01*
X133845000Y-332900128D01*
X133845000Y-332459872D01*
X191995000Y-332459872D01*
X191995000Y-332900128D01*
X192080890Y-333331925D01*
X192249369Y-333738669D01*
X192493962Y-334104729D01*
X192805271Y-334416038D01*
X193171331Y-334660631D01*
X193578075Y-334829110D01*
X194009872Y-334915000D01*
X194450128Y-334915000D01*
X194881925Y-334829110D01*
X195288669Y-334660631D01*
X195654729Y-334416038D01*
X195966038Y-334104729D01*
X196210631Y-333738669D01*
X196379110Y-333331925D01*
X196465000Y-332900128D01*
X196465000Y-332459872D01*
X196379110Y-332028075D01*
X196210631Y-331621331D01*
X195966038Y-331255271D01*
X195654729Y-330943962D01*
X195288669Y-330699369D01*
X194881925Y-330530890D01*
X194450128Y-330445000D01*
X194009872Y-330445000D01*
X193578075Y-330530890D01*
X193171331Y-330699369D01*
X192805271Y-330943962D01*
X192493962Y-331255271D01*
X192249369Y-331621331D01*
X192080890Y-332028075D01*
X191995000Y-332459872D01*
X133845000Y-332459872D01*
X133759110Y-332028075D01*
X133590631Y-331621331D01*
X133346038Y-331255271D01*
X133034729Y-330943962D01*
X132668669Y-330699369D01*
X132261925Y-330530890D01*
X131830128Y-330445000D01*
X131389872Y-330445000D01*
X130958075Y-330530890D01*
X130551331Y-330699369D01*
X130185271Y-330943962D01*
X129873962Y-331255271D01*
X129629369Y-331621331D01*
X129460890Y-332028075D01*
X129375000Y-332459872D01*
X122280000Y-332459872D01*
X122280000Y-310864397D01*
X127185000Y-310864397D01*
X127185000Y-311895603D01*
X127386178Y-312906993D01*
X127780803Y-313859702D01*
X128353710Y-314717118D01*
X129082882Y-315446290D01*
X129940298Y-316019197D01*
X130893007Y-316413822D01*
X131904397Y-316615000D01*
X132935603Y-316615000D01*
X133946993Y-316413822D01*
X134899702Y-316019197D01*
X135757118Y-315446290D01*
X136486290Y-314717118D01*
X137059197Y-313859702D01*
X137453822Y-312906993D01*
X137655000Y-311895603D01*
X137655000Y-310894397D01*
X188205000Y-310894397D01*
X188205000Y-311925603D01*
X188406178Y-312936993D01*
X188800803Y-313889702D01*
X189373710Y-314747118D01*
X190102882Y-315476290D01*
X190960298Y-316049197D01*
X191913007Y-316443822D01*
X192924397Y-316645000D01*
X193955603Y-316645000D01*
X194966993Y-316443822D01*
X195919702Y-316049197D01*
X196777118Y-315476290D01*
X197506290Y-314747118D01*
X198079197Y-313889702D01*
X198473822Y-312936993D01*
X198675000Y-311925603D01*
X198675000Y-310894397D01*
X198473822Y-309883007D01*
X198079197Y-308930298D01*
X197506290Y-308072882D01*
X196777118Y-307343710D01*
X195919702Y-306770803D01*
X194966993Y-306376178D01*
X193955603Y-306175000D01*
X192924397Y-306175000D01*
X191913007Y-306376178D01*
X190960298Y-306770803D01*
X190102882Y-307343710D01*
X189373710Y-308072882D01*
X188800803Y-308930298D01*
X188406178Y-309883007D01*
X188205000Y-310894397D01*
X137655000Y-310894397D01*
X137655000Y-310864397D01*
X137453822Y-309853007D01*
X137059197Y-308900298D01*
X136486290Y-308042882D01*
X135757118Y-307313710D01*
X134899702Y-306740803D01*
X133946993Y-306346178D01*
X132935603Y-306145000D01*
X131904397Y-306145000D01*
X130893007Y-306346178D01*
X129940298Y-306740803D01*
X129082882Y-307313710D01*
X128353710Y-308042882D01*
X127780803Y-308900298D01*
X127386178Y-309853007D01*
X127185000Y-310864397D01*
X122280000Y-310864397D01*
X122280000Y-299268061D01*
X137475000Y-299268061D01*
X137475000Y-299471939D01*
X137514774Y-299671898D01*
X137592795Y-299860256D01*
X137706063Y-300029774D01*
X137750001Y-300073712D01*
X137750000Y-305172677D01*
X137746324Y-305210000D01*
X137750000Y-305247322D01*
X137750000Y-305247332D01*
X137760997Y-305358985D01*
X137788537Y-305449774D01*
X137804454Y-305502246D01*
X137875026Y-305634276D01*
X137900241Y-305665000D01*
X137969999Y-305750001D01*
X137999003Y-305773804D01*
X140506201Y-308281003D01*
X140529999Y-308310001D01*
X140645724Y-308404974D01*
X140777753Y-308475546D01*
X140921014Y-308519003D01*
X141032667Y-308530000D01*
X141032675Y-308530000D01*
X141070000Y-308533676D01*
X141107325Y-308530000D01*
X142342678Y-308530000D01*
X142380000Y-308533676D01*
X142417322Y-308530000D01*
X142417333Y-308530000D01*
X142528986Y-308519003D01*
X142672247Y-308475546D01*
X142804276Y-308404974D01*
X142920001Y-308310001D01*
X142943804Y-308280998D01*
X143489802Y-307735000D01*
X143551939Y-307735000D01*
X143751898Y-307695226D01*
X143940256Y-307617205D01*
X144109774Y-307503937D01*
X144253937Y-307359774D01*
X144367205Y-307190256D01*
X144445226Y-307001898D01*
X144473836Y-306858061D01*
X147665000Y-306858061D01*
X147665000Y-307061939D01*
X147704774Y-307261898D01*
X147782795Y-307450256D01*
X147896063Y-307619774D01*
X148040226Y-307763937D01*
X148209744Y-307877205D01*
X148398102Y-307955226D01*
X148598061Y-307995000D01*
X148801939Y-307995000D01*
X149001898Y-307955226D01*
X149190256Y-307877205D01*
X149350301Y-307770267D01*
X149353010Y-307770000D01*
X152132678Y-307770000D01*
X152170000Y-307773676D01*
X152207322Y-307770000D01*
X152207333Y-307770000D01*
X152318986Y-307759003D01*
X152462247Y-307715546D01*
X152594276Y-307644974D01*
X152710001Y-307550001D01*
X152733804Y-307520997D01*
X154429802Y-305825000D01*
X154541939Y-305825000D01*
X154741898Y-305785226D01*
X154930256Y-305707205D01*
X155099774Y-305593937D01*
X155243937Y-305449774D01*
X155357205Y-305280256D01*
X155435226Y-305091898D01*
X155475000Y-304891939D01*
X155475000Y-304688061D01*
X155435226Y-304488102D01*
X155357205Y-304299744D01*
X155243937Y-304130226D01*
X155099774Y-303986063D01*
X154930256Y-303872795D01*
X154741898Y-303794774D01*
X154541939Y-303755000D01*
X154338061Y-303755000D01*
X154138102Y-303794774D01*
X153949744Y-303872795D01*
X153780226Y-303986063D01*
X153636063Y-304130226D01*
X153522795Y-304299744D01*
X153444774Y-304488102D01*
X153405000Y-304688061D01*
X153405000Y-304700198D01*
X151855199Y-306250000D01*
X149543249Y-306250000D01*
X149414724Y-306211013D01*
X149359774Y-306156063D01*
X149190256Y-306042795D01*
X149001898Y-305964774D01*
X148801939Y-305925000D01*
X148598061Y-305925000D01*
X148398102Y-305964774D01*
X148209744Y-306042795D01*
X148040226Y-306156063D01*
X147896063Y-306300226D01*
X147782795Y-306469744D01*
X147704774Y-306658102D01*
X147665000Y-306858061D01*
X144473836Y-306858061D01*
X144485000Y-306801939D01*
X144485000Y-306598061D01*
X144445226Y-306398102D01*
X144367205Y-306209744D01*
X144253937Y-306040226D01*
X144109774Y-305896063D01*
X143940256Y-305782795D01*
X143751898Y-305704774D01*
X143551939Y-305665000D01*
X143348061Y-305665000D01*
X143148102Y-305704774D01*
X142959744Y-305782795D01*
X142790226Y-305896063D01*
X142646063Y-306040226D01*
X142532795Y-306209744D01*
X142454774Y-306398102D01*
X142415000Y-306598061D01*
X142415000Y-306660198D01*
X142065199Y-307010000D01*
X141384802Y-307010000D01*
X139270000Y-304895199D01*
X139270000Y-302108061D01*
X176605000Y-302108061D01*
X176605000Y-302311939D01*
X176644774Y-302511898D01*
X176722795Y-302700256D01*
X176836063Y-302869774D01*
X176980226Y-303013937D01*
X177149744Y-303127205D01*
X177338102Y-303205226D01*
X177538061Y-303245000D01*
X177741939Y-303245000D01*
X177941898Y-303205226D01*
X178130256Y-303127205D01*
X178299774Y-303013937D01*
X178343711Y-302970000D01*
X179772678Y-302970000D01*
X179810000Y-302973676D01*
X179847322Y-302970000D01*
X179847333Y-302970000D01*
X179958986Y-302959003D01*
X180102247Y-302915546D01*
X180234276Y-302844974D01*
X180350001Y-302750001D01*
X180373804Y-302720997D01*
X183119802Y-299975000D01*
X183211939Y-299975000D01*
X183411898Y-299935226D01*
X183600256Y-299857205D01*
X183769774Y-299743937D01*
X183913937Y-299599774D01*
X184027205Y-299430256D01*
X184105226Y-299241898D01*
X184145000Y-299041939D01*
X184145000Y-298838061D01*
X184105226Y-298638102D01*
X184027205Y-298449744D01*
X183913937Y-298280226D01*
X183769774Y-298136063D01*
X183600256Y-298022795D01*
X183411898Y-297944774D01*
X183211939Y-297905000D01*
X183189801Y-297905000D01*
X184119802Y-296975000D01*
X184181939Y-296975000D01*
X184381898Y-296935226D01*
X184570256Y-296857205D01*
X184739774Y-296743937D01*
X184883937Y-296599774D01*
X184997205Y-296430256D01*
X185075226Y-296241898D01*
X185115000Y-296041939D01*
X185115000Y-295838061D01*
X185075226Y-295638102D01*
X184997205Y-295449744D01*
X184883937Y-295280226D01*
X184739774Y-295136063D01*
X184570256Y-295022795D01*
X184381898Y-294944774D01*
X184181939Y-294905000D01*
X183978061Y-294905000D01*
X183778102Y-294944774D01*
X183589744Y-295022795D01*
X183420226Y-295136063D01*
X183276063Y-295280226D01*
X183162795Y-295449744D01*
X183084774Y-295638102D01*
X183045000Y-295838061D01*
X183045000Y-295900198D01*
X181905199Y-297040000D01*
X179013711Y-297040000D01*
X178969774Y-296996063D01*
X178800256Y-296882795D01*
X178611898Y-296804774D01*
X178411939Y-296765000D01*
X178208061Y-296765000D01*
X178008102Y-296804774D01*
X177819744Y-296882795D01*
X177650226Y-296996063D01*
X177506063Y-297140226D01*
X177392795Y-297309744D01*
X177314774Y-297498102D01*
X177275000Y-297698061D01*
X177275000Y-297901939D01*
X177314774Y-298101898D01*
X177392795Y-298290256D01*
X177506063Y-298459774D01*
X177650226Y-298603937D01*
X177819744Y-298717205D01*
X178008102Y-298795226D01*
X178208061Y-298835000D01*
X178411939Y-298835000D01*
X178611898Y-298795226D01*
X178800256Y-298717205D01*
X178969774Y-298603937D01*
X179013711Y-298560000D01*
X182147125Y-298560000D01*
X182114774Y-298638102D01*
X182075000Y-298838061D01*
X182075000Y-298870198D01*
X179495199Y-301450000D01*
X178343711Y-301450000D01*
X178299774Y-301406063D01*
X178130256Y-301292795D01*
X177941898Y-301214774D01*
X177741939Y-301175000D01*
X177538061Y-301175000D01*
X177338102Y-301214774D01*
X177149744Y-301292795D01*
X176980226Y-301406063D01*
X176836063Y-301550226D01*
X176722795Y-301719744D01*
X176644774Y-301908102D01*
X176605000Y-302108061D01*
X139270000Y-302108061D01*
X139270000Y-300073711D01*
X139313937Y-300029774D01*
X139427205Y-299860256D01*
X139505226Y-299671898D01*
X139545000Y-299471939D01*
X139545000Y-299438061D01*
X140285000Y-299438061D01*
X140285000Y-299641939D01*
X140324774Y-299841898D01*
X140402795Y-300030256D01*
X140516063Y-300199774D01*
X140660226Y-300343937D01*
X140829744Y-300457205D01*
X141018102Y-300535226D01*
X141218061Y-300575000D01*
X141421939Y-300575000D01*
X141621898Y-300535226D01*
X141810256Y-300457205D01*
X141979774Y-300343937D01*
X142063711Y-300260000D01*
X143516289Y-300260000D01*
X143560226Y-300303937D01*
X143729744Y-300417205D01*
X143918102Y-300495226D01*
X144118061Y-300535000D01*
X144321939Y-300535000D01*
X144521898Y-300495226D01*
X144710256Y-300417205D01*
X144879774Y-300303937D01*
X145023937Y-300159774D01*
X145137205Y-299990256D01*
X145215226Y-299801898D01*
X145255000Y-299601939D01*
X145255000Y-299398061D01*
X145215226Y-299198102D01*
X145137205Y-299009744D01*
X145023937Y-298840226D01*
X144879774Y-298696063D01*
X144710256Y-298582795D01*
X144521898Y-298504774D01*
X144321939Y-298465000D01*
X144118061Y-298465000D01*
X143918102Y-298504774D01*
X143729744Y-298582795D01*
X143560226Y-298696063D01*
X143516289Y-298740000D01*
X141983711Y-298740000D01*
X141979774Y-298736063D01*
X141810256Y-298622795D01*
X141621898Y-298544774D01*
X141421939Y-298505000D01*
X141218061Y-298505000D01*
X141018102Y-298544774D01*
X140829744Y-298622795D01*
X140660226Y-298736063D01*
X140516063Y-298880226D01*
X140402795Y-299049744D01*
X140324774Y-299238102D01*
X140285000Y-299438061D01*
X139545000Y-299438061D01*
X139545000Y-299268061D01*
X139505226Y-299068102D01*
X139427205Y-298879744D01*
X139313937Y-298710226D01*
X139169774Y-298566063D01*
X139000256Y-298452795D01*
X138811898Y-298374774D01*
X138611939Y-298335000D01*
X138408061Y-298335000D01*
X138208102Y-298374774D01*
X138019744Y-298452795D01*
X137850226Y-298566063D01*
X137706063Y-298710226D01*
X137592795Y-298879744D01*
X137514774Y-299068102D01*
X137475000Y-299268061D01*
X122280000Y-299268061D01*
X122280000Y-292458061D01*
X143915000Y-292458061D01*
X143915000Y-292661939D01*
X143954774Y-292861898D01*
X144032795Y-293050256D01*
X144146063Y-293219774D01*
X144290226Y-293363937D01*
X144459744Y-293477205D01*
X144648102Y-293555226D01*
X144848061Y-293595000D01*
X145051939Y-293595000D01*
X145251898Y-293555226D01*
X145440256Y-293477205D01*
X145609774Y-293363937D01*
X145653711Y-293320000D01*
X151225199Y-293320000D01*
X151339704Y-293434506D01*
X151302795Y-293489744D01*
X151224774Y-293678102D01*
X151185000Y-293878061D01*
X151185000Y-294081939D01*
X151224774Y-294281898D01*
X151302795Y-294470256D01*
X151416063Y-294639774D01*
X151560226Y-294783937D01*
X151729744Y-294897205D01*
X151918102Y-294975226D01*
X152118061Y-295015000D01*
X152321939Y-295015000D01*
X152521898Y-294975226D01*
X152710256Y-294897205D01*
X152879774Y-294783937D01*
X153023937Y-294639774D01*
X153137205Y-294470256D01*
X153215226Y-294281898D01*
X153255000Y-294081939D01*
X153255000Y-293878061D01*
X153215226Y-293678102D01*
X153137205Y-293489744D01*
X153023937Y-293320226D01*
X152980093Y-293276382D01*
X152983676Y-293239999D01*
X152980000Y-293202676D01*
X152980000Y-293202667D01*
X152969003Y-293091014D01*
X152925546Y-292947753D01*
X152854974Y-292815724D01*
X152760001Y-292699999D01*
X152731004Y-292676202D01*
X152103803Y-292049002D01*
X152080001Y-292019999D01*
X151964276Y-291925026D01*
X151832247Y-291854454D01*
X151688986Y-291810997D01*
X151577333Y-291800000D01*
X151577322Y-291800000D01*
X151540000Y-291796324D01*
X151502678Y-291800000D01*
X145653711Y-291800000D01*
X145609774Y-291756063D01*
X145440256Y-291642795D01*
X145251898Y-291564774D01*
X145051939Y-291525000D01*
X144848061Y-291525000D01*
X144648102Y-291564774D01*
X144459744Y-291642795D01*
X144290226Y-291756063D01*
X144146063Y-291900226D01*
X144032795Y-292069744D01*
X143954774Y-292258102D01*
X143915000Y-292458061D01*
X122280000Y-292458061D01*
X122280000Y-289869872D01*
X129375000Y-289869872D01*
X129375000Y-290310128D01*
X129460890Y-290741925D01*
X129629369Y-291148669D01*
X129873962Y-291514729D01*
X130185271Y-291826038D01*
X130551331Y-292070631D01*
X130958075Y-292239110D01*
X131389872Y-292325000D01*
X131830128Y-292325000D01*
X132261925Y-292239110D01*
X132668669Y-292070631D01*
X133034729Y-291826038D01*
X133346038Y-291514729D01*
X133590631Y-291148669D01*
X133759110Y-290741925D01*
X133845000Y-290310128D01*
X133845000Y-289869872D01*
X191995000Y-289869872D01*
X191995000Y-290310128D01*
X192080890Y-290741925D01*
X192249369Y-291148669D01*
X192493962Y-291514729D01*
X192805271Y-291826038D01*
X193171331Y-292070631D01*
X193578075Y-292239110D01*
X194009872Y-292325000D01*
X194450128Y-292325000D01*
X194881925Y-292239110D01*
X195288669Y-292070631D01*
X195654729Y-291826038D01*
X195966038Y-291514729D01*
X196210631Y-291148669D01*
X196379110Y-290741925D01*
X196465000Y-290310128D01*
X196465000Y-289869872D01*
X196379110Y-289438075D01*
X196210631Y-289031331D01*
X195966038Y-288665271D01*
X195654729Y-288353962D01*
X195288669Y-288109369D01*
X194881925Y-287940890D01*
X194450128Y-287855000D01*
X194009872Y-287855000D01*
X193578075Y-287940890D01*
X193171331Y-288109369D01*
X192805271Y-288353962D01*
X192493962Y-288665271D01*
X192249369Y-289031331D01*
X192080890Y-289438075D01*
X191995000Y-289869872D01*
X133845000Y-289869872D01*
X133759110Y-289438075D01*
X133590631Y-289031331D01*
X133346038Y-288665271D01*
X133034729Y-288353962D01*
X132668669Y-288109369D01*
X132261925Y-287940890D01*
X131830128Y-287855000D01*
X131389872Y-287855000D01*
X130958075Y-287940890D01*
X130551331Y-288109369D01*
X130185271Y-288353962D01*
X129873962Y-288665271D01*
X129629369Y-289031331D01*
X129460890Y-289438075D01*
X129375000Y-289869872D01*
X122280000Y-289869872D01*
X122280000Y-253086518D01*
X122589074Y-253549080D01*
X122990920Y-253950926D01*
X123463440Y-254266654D01*
X123988477Y-254484131D01*
X124545852Y-254595000D01*
X125114148Y-254595000D01*
X125671523Y-254484131D01*
X126196560Y-254266654D01*
X126669080Y-253950926D01*
X127070926Y-253549080D01*
X127386654Y-253076560D01*
X127604131Y-252551523D01*
X127715000Y-251994148D01*
X127715000Y-251425852D01*
X127604131Y-250868477D01*
X127386654Y-250343440D01*
X127070926Y-249870920D01*
X126669080Y-249469074D01*
X126196560Y-249153346D01*
X126019487Y-249080000D01*
X151019644Y-249080000D01*
X199636252Y-249134831D01*
X199636252Y-249134831D01*
G37*
X199636252Y-249134831D02*
X199180920Y-249439074D01*
X198779074Y-249840920D01*
X198463346Y-250313440D01*
X198245869Y-250838477D01*
X198135000Y-251395852D01*
X198135000Y-251964148D01*
X198245869Y-252521523D01*
X198463346Y-253046560D01*
X198779074Y-253519080D01*
X199180920Y-253920926D01*
X199653440Y-254236654D01*
X200178477Y-254454131D01*
X200735852Y-254565000D01*
X201304148Y-254565000D01*
X201861523Y-254454131D01*
X202386560Y-254236654D01*
X202859080Y-253920926D01*
X203260926Y-253519080D01*
X203560001Y-253071483D01*
X203560000Y-341883550D01*
X203270926Y-341450920D01*
X202869080Y-341049074D01*
X202396560Y-340733346D01*
X201871523Y-340515869D01*
X201314148Y-340405000D01*
X200745852Y-340405000D01*
X200188477Y-340515869D01*
X199663440Y-340733346D01*
X199190920Y-341049074D01*
X198789074Y-341450920D01*
X198473346Y-341923440D01*
X198255869Y-342448477D01*
X198145000Y-343005852D01*
X198145000Y-343574148D01*
X198255869Y-344131523D01*
X198473346Y-344656560D01*
X198789074Y-345129080D01*
X199190920Y-345530926D01*
X199473889Y-345720000D01*
X126371145Y-345720000D01*
X126669080Y-345520926D01*
X127070926Y-345119080D01*
X127386654Y-344646560D01*
X127604131Y-344121523D01*
X127715000Y-343564148D01*
X127715000Y-342995852D01*
X127604131Y-342438477D01*
X127386654Y-341913440D01*
X127070926Y-341440920D01*
X126669080Y-341039074D01*
X126196560Y-340723346D01*
X125671523Y-340505869D01*
X125114148Y-340395000D01*
X124545852Y-340395000D01*
X123988477Y-340505869D01*
X123463440Y-340723346D01*
X122990920Y-341039074D01*
X122589074Y-341440920D01*
X122280000Y-341903482D01*
X122280000Y-332459872D01*
X129375000Y-332459872D01*
X129375000Y-332900128D01*
X129460890Y-333331925D01*
X129629369Y-333738669D01*
X129873962Y-334104729D01*
X130185271Y-334416038D01*
X130551331Y-334660631D01*
X130958075Y-334829110D01*
X131389872Y-334915000D01*
X131830128Y-334915000D01*
X132261925Y-334829110D01*
X132668669Y-334660631D01*
X133034729Y-334416038D01*
X133346038Y-334104729D01*
X133590631Y-333738669D01*
X133759110Y-333331925D01*
X133845000Y-332900128D01*
X133845000Y-332459872D01*
X191995000Y-332459872D01*
X191995000Y-332900128D01*
X192080890Y-333331925D01*
X192249369Y-333738669D01*
X192493962Y-334104729D01*
X192805271Y-334416038D01*
X193171331Y-334660631D01*
X193578075Y-334829110D01*
X194009872Y-334915000D01*
X194450128Y-334915000D01*
X194881925Y-334829110D01*
X195288669Y-334660631D01*
X195654729Y-334416038D01*
X195966038Y-334104729D01*
X196210631Y-333738669D01*
X196379110Y-333331925D01*
X196465000Y-332900128D01*
X196465000Y-332459872D01*
X196379110Y-332028075D01*
X196210631Y-331621331D01*
X195966038Y-331255271D01*
X195654729Y-330943962D01*
X195288669Y-330699369D01*
X194881925Y-330530890D01*
X194450128Y-330445000D01*
X194009872Y-330445000D01*
X193578075Y-330530890D01*
X193171331Y-330699369D01*
X192805271Y-330943962D01*
X192493962Y-331255271D01*
X192249369Y-331621331D01*
X192080890Y-332028075D01*
X191995000Y-332459872D01*
X133845000Y-332459872D01*
X133759110Y-332028075D01*
X133590631Y-331621331D01*
X133346038Y-331255271D01*
X133034729Y-330943962D01*
X132668669Y-330699369D01*
X132261925Y-330530890D01*
X131830128Y-330445000D01*
X131389872Y-330445000D01*
X130958075Y-330530890D01*
X130551331Y-330699369D01*
X130185271Y-330943962D01*
X129873962Y-331255271D01*
X129629369Y-331621331D01*
X129460890Y-332028075D01*
X129375000Y-332459872D01*
X122280000Y-332459872D01*
X122280000Y-310864397D01*
X127185000Y-310864397D01*
X127185000Y-311895603D01*
X127386178Y-312906993D01*
X127780803Y-313859702D01*
X128353710Y-314717118D01*
X129082882Y-315446290D01*
X129940298Y-316019197D01*
X130893007Y-316413822D01*
X131904397Y-316615000D01*
X132935603Y-316615000D01*
X133946993Y-316413822D01*
X134899702Y-316019197D01*
X135757118Y-315446290D01*
X136486290Y-314717118D01*
X137059197Y-313859702D01*
X137453822Y-312906993D01*
X137655000Y-311895603D01*
X137655000Y-310894397D01*
X188205000Y-310894397D01*
X188205000Y-311925603D01*
X188406178Y-312936993D01*
X188800803Y-313889702D01*
X189373710Y-314747118D01*
X190102882Y-315476290D01*
X190960298Y-316049197D01*
X191913007Y-316443822D01*
X192924397Y-316645000D01*
X193955603Y-316645000D01*
X194966993Y-316443822D01*
X195919702Y-316049197D01*
X196777118Y-315476290D01*
X197506290Y-314747118D01*
X198079197Y-313889702D01*
X198473822Y-312936993D01*
X198675000Y-311925603D01*
X198675000Y-310894397D01*
X198473822Y-309883007D01*
X198079197Y-308930298D01*
X197506290Y-308072882D01*
X196777118Y-307343710D01*
X195919702Y-306770803D01*
X194966993Y-306376178D01*
X193955603Y-306175000D01*
X192924397Y-306175000D01*
X191913007Y-306376178D01*
X190960298Y-306770803D01*
X190102882Y-307343710D01*
X189373710Y-308072882D01*
X188800803Y-308930298D01*
X188406178Y-309883007D01*
X188205000Y-310894397D01*
X137655000Y-310894397D01*
X137655000Y-310864397D01*
X137453822Y-309853007D01*
X137059197Y-308900298D01*
X136486290Y-308042882D01*
X135757118Y-307313710D01*
X134899702Y-306740803D01*
X133946993Y-306346178D01*
X132935603Y-306145000D01*
X131904397Y-306145000D01*
X130893007Y-306346178D01*
X129940298Y-306740803D01*
X129082882Y-307313710D01*
X128353710Y-308042882D01*
X127780803Y-308900298D01*
X127386178Y-309853007D01*
X127185000Y-310864397D01*
X122280000Y-310864397D01*
X122280000Y-299268061D01*
X137475000Y-299268061D01*
X137475000Y-299471939D01*
X137514774Y-299671898D01*
X137592795Y-299860256D01*
X137706063Y-300029774D01*
X137750001Y-300073712D01*
X137750000Y-305172677D01*
X137746324Y-305210000D01*
X137750000Y-305247322D01*
X137750000Y-305247332D01*
X137760997Y-305358985D01*
X137788537Y-305449774D01*
X137804454Y-305502246D01*
X137875026Y-305634276D01*
X137900241Y-305665000D01*
X137969999Y-305750001D01*
X137999003Y-305773804D01*
X140506201Y-308281003D01*
X140529999Y-308310001D01*
X140645724Y-308404974D01*
X140777753Y-308475546D01*
X140921014Y-308519003D01*
X141032667Y-308530000D01*
X141032675Y-308530000D01*
X141070000Y-308533676D01*
X141107325Y-308530000D01*
X142342678Y-308530000D01*
X142380000Y-308533676D01*
X142417322Y-308530000D01*
X142417333Y-308530000D01*
X142528986Y-308519003D01*
X142672247Y-308475546D01*
X142804276Y-308404974D01*
X142920001Y-308310001D01*
X142943804Y-308280998D01*
X143489802Y-307735000D01*
X143551939Y-307735000D01*
X143751898Y-307695226D01*
X143940256Y-307617205D01*
X144109774Y-307503937D01*
X144253937Y-307359774D01*
X144367205Y-307190256D01*
X144445226Y-307001898D01*
X144473836Y-306858061D01*
X147665000Y-306858061D01*
X147665000Y-307061939D01*
X147704774Y-307261898D01*
X147782795Y-307450256D01*
X147896063Y-307619774D01*
X148040226Y-307763937D01*
X148209744Y-307877205D01*
X148398102Y-307955226D01*
X148598061Y-307995000D01*
X148801939Y-307995000D01*
X149001898Y-307955226D01*
X149190256Y-307877205D01*
X149350301Y-307770267D01*
X149353010Y-307770000D01*
X152132678Y-307770000D01*
X152170000Y-307773676D01*
X152207322Y-307770000D01*
X152207333Y-307770000D01*
X152318986Y-307759003D01*
X152462247Y-307715546D01*
X152594276Y-307644974D01*
X152710001Y-307550001D01*
X152733804Y-307520997D01*
X154429802Y-305825000D01*
X154541939Y-305825000D01*
X154741898Y-305785226D01*
X154930256Y-305707205D01*
X155099774Y-305593937D01*
X155243937Y-305449774D01*
X155357205Y-305280256D01*
X155435226Y-305091898D01*
X155475000Y-304891939D01*
X155475000Y-304688061D01*
X155435226Y-304488102D01*
X155357205Y-304299744D01*
X155243937Y-304130226D01*
X155099774Y-303986063D01*
X154930256Y-303872795D01*
X154741898Y-303794774D01*
X154541939Y-303755000D01*
X154338061Y-303755000D01*
X154138102Y-303794774D01*
X153949744Y-303872795D01*
X153780226Y-303986063D01*
X153636063Y-304130226D01*
X153522795Y-304299744D01*
X153444774Y-304488102D01*
X153405000Y-304688061D01*
X153405000Y-304700198D01*
X151855199Y-306250000D01*
X149543249Y-306250000D01*
X149414724Y-306211013D01*
X149359774Y-306156063D01*
X149190256Y-306042795D01*
X149001898Y-305964774D01*
X148801939Y-305925000D01*
X148598061Y-305925000D01*
X148398102Y-305964774D01*
X148209744Y-306042795D01*
X148040226Y-306156063D01*
X147896063Y-306300226D01*
X147782795Y-306469744D01*
X147704774Y-306658102D01*
X147665000Y-306858061D01*
X144473836Y-306858061D01*
X144485000Y-306801939D01*
X144485000Y-306598061D01*
X144445226Y-306398102D01*
X144367205Y-306209744D01*
X144253937Y-306040226D01*
X144109774Y-305896063D01*
X143940256Y-305782795D01*
X143751898Y-305704774D01*
X143551939Y-305665000D01*
X143348061Y-305665000D01*
X143148102Y-305704774D01*
X142959744Y-305782795D01*
X142790226Y-305896063D01*
X142646063Y-306040226D01*
X142532795Y-306209744D01*
X142454774Y-306398102D01*
X142415000Y-306598061D01*
X142415000Y-306660198D01*
X142065199Y-307010000D01*
X141384802Y-307010000D01*
X139270000Y-304895199D01*
X139270000Y-302108061D01*
X176605000Y-302108061D01*
X176605000Y-302311939D01*
X176644774Y-302511898D01*
X176722795Y-302700256D01*
X176836063Y-302869774D01*
X176980226Y-303013937D01*
X177149744Y-303127205D01*
X177338102Y-303205226D01*
X177538061Y-303245000D01*
X177741939Y-303245000D01*
X177941898Y-303205226D01*
X178130256Y-303127205D01*
X178299774Y-303013937D01*
X178343711Y-302970000D01*
X179772678Y-302970000D01*
X179810000Y-302973676D01*
X179847322Y-302970000D01*
X179847333Y-302970000D01*
X179958986Y-302959003D01*
X180102247Y-302915546D01*
X180234276Y-302844974D01*
X180350001Y-302750001D01*
X180373804Y-302720997D01*
X183119802Y-299975000D01*
X183211939Y-299975000D01*
X183411898Y-299935226D01*
X183600256Y-299857205D01*
X183769774Y-299743937D01*
X183913937Y-299599774D01*
X184027205Y-299430256D01*
X184105226Y-299241898D01*
X184145000Y-299041939D01*
X184145000Y-298838061D01*
X184105226Y-298638102D01*
X184027205Y-298449744D01*
X183913937Y-298280226D01*
X183769774Y-298136063D01*
X183600256Y-298022795D01*
X183411898Y-297944774D01*
X183211939Y-297905000D01*
X183189801Y-297905000D01*
X184119802Y-296975000D01*
X184181939Y-296975000D01*
X184381898Y-296935226D01*
X184570256Y-296857205D01*
X184739774Y-296743937D01*
X184883937Y-296599774D01*
X184997205Y-296430256D01*
X185075226Y-296241898D01*
X185115000Y-296041939D01*
X185115000Y-295838061D01*
X185075226Y-295638102D01*
X184997205Y-295449744D01*
X184883937Y-295280226D01*
X184739774Y-295136063D01*
X184570256Y-295022795D01*
X184381898Y-294944774D01*
X184181939Y-294905000D01*
X183978061Y-294905000D01*
X183778102Y-294944774D01*
X183589744Y-295022795D01*
X183420226Y-295136063D01*
X183276063Y-295280226D01*
X183162795Y-295449744D01*
X183084774Y-295638102D01*
X183045000Y-295838061D01*
X183045000Y-295900198D01*
X181905199Y-297040000D01*
X179013711Y-297040000D01*
X178969774Y-296996063D01*
X178800256Y-296882795D01*
X178611898Y-296804774D01*
X178411939Y-296765000D01*
X178208061Y-296765000D01*
X178008102Y-296804774D01*
X177819744Y-296882795D01*
X177650226Y-296996063D01*
X177506063Y-297140226D01*
X177392795Y-297309744D01*
X177314774Y-297498102D01*
X177275000Y-297698061D01*
X177275000Y-297901939D01*
X177314774Y-298101898D01*
X177392795Y-298290256D01*
X177506063Y-298459774D01*
X177650226Y-298603937D01*
X177819744Y-298717205D01*
X178008102Y-298795226D01*
X178208061Y-298835000D01*
X178411939Y-298835000D01*
X178611898Y-298795226D01*
X178800256Y-298717205D01*
X178969774Y-298603937D01*
X179013711Y-298560000D01*
X182147125Y-298560000D01*
X182114774Y-298638102D01*
X182075000Y-298838061D01*
X182075000Y-298870198D01*
X179495199Y-301450000D01*
X178343711Y-301450000D01*
X178299774Y-301406063D01*
X178130256Y-301292795D01*
X177941898Y-301214774D01*
X177741939Y-301175000D01*
X177538061Y-301175000D01*
X177338102Y-301214774D01*
X177149744Y-301292795D01*
X176980226Y-301406063D01*
X176836063Y-301550226D01*
X176722795Y-301719744D01*
X176644774Y-301908102D01*
X176605000Y-302108061D01*
X139270000Y-302108061D01*
X139270000Y-300073711D01*
X139313937Y-300029774D01*
X139427205Y-299860256D01*
X139505226Y-299671898D01*
X139545000Y-299471939D01*
X139545000Y-299438061D01*
X140285000Y-299438061D01*
X140285000Y-299641939D01*
X140324774Y-299841898D01*
X140402795Y-300030256D01*
X140516063Y-300199774D01*
X140660226Y-300343937D01*
X140829744Y-300457205D01*
X141018102Y-300535226D01*
X141218061Y-300575000D01*
X141421939Y-300575000D01*
X141621898Y-300535226D01*
X141810256Y-300457205D01*
X141979774Y-300343937D01*
X142063711Y-300260000D01*
X143516289Y-300260000D01*
X143560226Y-300303937D01*
X143729744Y-300417205D01*
X143918102Y-300495226D01*
X144118061Y-300535000D01*
X144321939Y-300535000D01*
X144521898Y-300495226D01*
X144710256Y-300417205D01*
X144879774Y-300303937D01*
X145023937Y-300159774D01*
X145137205Y-299990256D01*
X145215226Y-299801898D01*
X145255000Y-299601939D01*
X145255000Y-299398061D01*
X145215226Y-299198102D01*
X145137205Y-299009744D01*
X145023937Y-298840226D01*
X144879774Y-298696063D01*
X144710256Y-298582795D01*
X144521898Y-298504774D01*
X144321939Y-298465000D01*
X144118061Y-298465000D01*
X143918102Y-298504774D01*
X143729744Y-298582795D01*
X143560226Y-298696063D01*
X143516289Y-298740000D01*
X141983711Y-298740000D01*
X141979774Y-298736063D01*
X141810256Y-298622795D01*
X141621898Y-298544774D01*
X141421939Y-298505000D01*
X141218061Y-298505000D01*
X141018102Y-298544774D01*
X140829744Y-298622795D01*
X140660226Y-298736063D01*
X140516063Y-298880226D01*
X140402795Y-299049744D01*
X140324774Y-299238102D01*
X140285000Y-299438061D01*
X139545000Y-299438061D01*
X139545000Y-299268061D01*
X139505226Y-299068102D01*
X139427205Y-298879744D01*
X139313937Y-298710226D01*
X139169774Y-298566063D01*
X139000256Y-298452795D01*
X138811898Y-298374774D01*
X138611939Y-298335000D01*
X138408061Y-298335000D01*
X138208102Y-298374774D01*
X138019744Y-298452795D01*
X137850226Y-298566063D01*
X137706063Y-298710226D01*
X137592795Y-298879744D01*
X137514774Y-299068102D01*
X137475000Y-299268061D01*
X122280000Y-299268061D01*
X122280000Y-292458061D01*
X143915000Y-292458061D01*
X143915000Y-292661939D01*
X143954774Y-292861898D01*
X144032795Y-293050256D01*
X144146063Y-293219774D01*
X144290226Y-293363937D01*
X144459744Y-293477205D01*
X144648102Y-293555226D01*
X144848061Y-293595000D01*
X145051939Y-293595000D01*
X145251898Y-293555226D01*
X145440256Y-293477205D01*
X145609774Y-293363937D01*
X145653711Y-293320000D01*
X151225199Y-293320000D01*
X151339704Y-293434506D01*
X151302795Y-293489744D01*
X151224774Y-293678102D01*
X151185000Y-293878061D01*
X151185000Y-294081939D01*
X151224774Y-294281898D01*
X151302795Y-294470256D01*
X151416063Y-294639774D01*
X151560226Y-294783937D01*
X151729744Y-294897205D01*
X151918102Y-294975226D01*
X152118061Y-295015000D01*
X152321939Y-295015000D01*
X152521898Y-294975226D01*
X152710256Y-294897205D01*
X152879774Y-294783937D01*
X153023937Y-294639774D01*
X153137205Y-294470256D01*
X153215226Y-294281898D01*
X153255000Y-294081939D01*
X153255000Y-293878061D01*
X153215226Y-293678102D01*
X153137205Y-293489744D01*
X153023937Y-293320226D01*
X152980093Y-293276382D01*
X152983676Y-293239999D01*
X152980000Y-293202676D01*
X152980000Y-293202667D01*
X152969003Y-293091014D01*
X152925546Y-292947753D01*
X152854974Y-292815724D01*
X152760001Y-292699999D01*
X152731004Y-292676202D01*
X152103803Y-292049002D01*
X152080001Y-292019999D01*
X151964276Y-291925026D01*
X151832247Y-291854454D01*
X151688986Y-291810997D01*
X151577333Y-291800000D01*
X151577322Y-291800000D01*
X151540000Y-291796324D01*
X151502678Y-291800000D01*
X145653711Y-291800000D01*
X145609774Y-291756063D01*
X145440256Y-291642795D01*
X145251898Y-291564774D01*
X145051939Y-291525000D01*
X144848061Y-291525000D01*
X144648102Y-291564774D01*
X144459744Y-291642795D01*
X144290226Y-291756063D01*
X144146063Y-291900226D01*
X144032795Y-292069744D01*
X143954774Y-292258102D01*
X143915000Y-292458061D01*
X122280000Y-292458061D01*
X122280000Y-289869872D01*
X129375000Y-289869872D01*
X129375000Y-290310128D01*
X129460890Y-290741925D01*
X129629369Y-291148669D01*
X129873962Y-291514729D01*
X130185271Y-291826038D01*
X130551331Y-292070631D01*
X130958075Y-292239110D01*
X131389872Y-292325000D01*
X131830128Y-292325000D01*
X132261925Y-292239110D01*
X132668669Y-292070631D01*
X133034729Y-291826038D01*
X133346038Y-291514729D01*
X133590631Y-291148669D01*
X133759110Y-290741925D01*
X133845000Y-290310128D01*
X133845000Y-289869872D01*
X191995000Y-289869872D01*
X191995000Y-290310128D01*
X192080890Y-290741925D01*
X192249369Y-291148669D01*
X192493962Y-291514729D01*
X192805271Y-291826038D01*
X193171331Y-292070631D01*
X193578075Y-292239110D01*
X194009872Y-292325000D01*
X194450128Y-292325000D01*
X194881925Y-292239110D01*
X195288669Y-292070631D01*
X195654729Y-291826038D01*
X195966038Y-291514729D01*
X196210631Y-291148669D01*
X196379110Y-290741925D01*
X196465000Y-290310128D01*
X196465000Y-289869872D01*
X196379110Y-289438075D01*
X196210631Y-289031331D01*
X195966038Y-288665271D01*
X195654729Y-288353962D01*
X195288669Y-288109369D01*
X194881925Y-287940890D01*
X194450128Y-287855000D01*
X194009872Y-287855000D01*
X193578075Y-287940890D01*
X193171331Y-288109369D01*
X192805271Y-288353962D01*
X192493962Y-288665271D01*
X192249369Y-289031331D01*
X192080890Y-289438075D01*
X191995000Y-289869872D01*
X133845000Y-289869872D01*
X133759110Y-289438075D01*
X133590631Y-289031331D01*
X133346038Y-288665271D01*
X133034729Y-288353962D01*
X132668669Y-288109369D01*
X132261925Y-287940890D01*
X131830128Y-287855000D01*
X131389872Y-287855000D01*
X130958075Y-287940890D01*
X130551331Y-288109369D01*
X130185271Y-288353962D01*
X129873962Y-288665271D01*
X129629369Y-289031331D01*
X129460890Y-289438075D01*
X129375000Y-289869872D01*
X122280000Y-289869872D01*
X122280000Y-253086518D01*
X122589074Y-253549080D01*
X122990920Y-253950926D01*
X123463440Y-254266654D01*
X123988477Y-254484131D01*
X124545852Y-254595000D01*
X125114148Y-254595000D01*
X125671523Y-254484131D01*
X126196560Y-254266654D01*
X126669080Y-253950926D01*
X127070926Y-253549080D01*
X127386654Y-253076560D01*
X127604131Y-252551523D01*
X127715000Y-251994148D01*
X127715000Y-251425852D01*
X127604131Y-250868477D01*
X127386654Y-250343440D01*
X127070926Y-249870920D01*
X126669080Y-249469074D01*
X126196560Y-249153346D01*
X126019487Y-249080000D01*
X151019644Y-249080000D01*
X199636252Y-249134831D01*
G36*
X123463440Y-249153346D02*
G01*
X122990920Y-249469074D01*
X122589074Y-249870920D01*
X122280000Y-250333482D01*
X122280000Y-249080000D01*
X123640513Y-249080000D01*
X123463440Y-249153346D01*
X123463440Y-249153346D01*
G37*
X123463440Y-249153346D02*
X122990920Y-249469074D01*
X122589074Y-249870920D01*
X122280000Y-250333482D01*
X122280000Y-249080000D01*
X123640513Y-249080000D01*
X123463440Y-249153346D01*
G36*
X203560001Y-249139256D02*
G01*
X203560001Y-250288517D01*
X203260926Y-249840920D01*
X202859080Y-249439074D01*
X202408427Y-249137957D01*
X203560001Y-249139256D01*
X203560001Y-249139256D01*
G37*
X203560001Y-249139256D02*
X203560001Y-250288517D01*
X203260926Y-249840920D01*
X202859080Y-249439074D01*
X202408427Y-249137957D01*
X203560001Y-249139256D01*
M02*
