G04 #@! TF.GenerationSoftware,KiCad,Pcbnew,(5.1.2)-2*
G04 #@! TF.CreationDate,2021-08-28T01:10:26-04:00*
G04 #@! TF.ProjectId,MAG_Plus,4d41475f-506c-4757-932e-6b696361645f,rev?*
G04 #@! TF.SameCoordinates,Original*
G04 #@! TF.FileFunction,Legend,Top*
G04 #@! TF.FilePolarity,Positive*
%FSLAX46Y46*%
G04 Gerber Fmt 4.6, Leading zero omitted, Abs format (unit mm)*
G04 Created by KiCad (PCBNEW (5.1.2)-2) date 2021-08-28 01:10:26*
%MOMM*%
%LPD*%
G04 APERTURE LIST*
%ADD10C,0.120000*%
%ADD11C,0.100000*%
%ADD12C,0.150000*%
G04 APERTURE END LIST*
D10*
X202270000Y-251680000D02*
G75*
G03X202270000Y-251680000I-1250000J0D01*
G01*
X202270000Y-251680000D02*
G75*
G03X202270000Y-251680000I-1250000J0D01*
G01*
X126070000Y-251680000D02*
G75*
G03X126070000Y-251680000I-1250000J0D01*
G01*
D11*
G36*
X132150000Y-273840000D02*
G01*
X127150000Y-273840000D01*
X127150000Y-268840000D01*
X132150000Y-268840000D01*
X132150000Y-273840000D01*
G37*
X132150000Y-273840000D02*
X127150000Y-273840000D01*
X127150000Y-268840000D01*
X132150000Y-268840000D01*
X132150000Y-273840000D01*
G36*
X132150000Y-267840000D02*
G01*
X127150000Y-267840000D01*
X127150000Y-262840000D01*
X132150000Y-262840000D01*
X132150000Y-267840000D01*
G37*
X132150000Y-267840000D02*
X127150000Y-267840000D01*
X127150000Y-262840000D01*
X132150000Y-262840000D01*
X132150000Y-267840000D01*
G36*
X132150000Y-279840000D02*
G01*
X127150000Y-279840000D01*
X127150000Y-274840000D01*
X132150000Y-274840000D01*
X132150000Y-279840000D01*
G37*
X132150000Y-279840000D02*
X127150000Y-279840000D01*
X127150000Y-274840000D01*
X132150000Y-274840000D01*
X132150000Y-279840000D01*
G36*
X132150000Y-261840000D02*
G01*
X127150000Y-261840000D01*
X127150000Y-256840000D01*
X132150000Y-256840000D01*
X132150000Y-261840000D01*
G37*
X132150000Y-261840000D02*
X127150000Y-261840000D01*
X127150000Y-256840000D01*
X132150000Y-256840000D01*
X132150000Y-261840000D01*
D12*
X126204761Y-281623333D02*
X126252380Y-281480476D01*
X126252380Y-281242380D01*
X126204761Y-281147142D01*
X126157142Y-281099523D01*
X126061904Y-281051904D01*
X125966666Y-281051904D01*
X125871428Y-281099523D01*
X125823809Y-281147142D01*
X125776190Y-281242380D01*
X125728571Y-281432857D01*
X125680952Y-281528095D01*
X125633333Y-281575714D01*
X125538095Y-281623333D01*
X125442857Y-281623333D01*
X125347619Y-281575714D01*
X125300000Y-281528095D01*
X125252380Y-281432857D01*
X125252380Y-281194761D01*
X125300000Y-281051904D01*
X126252380Y-280623333D02*
X125252380Y-280623333D01*
X125252380Y-280242380D01*
X125300000Y-280147142D01*
X125347619Y-280099523D01*
X125442857Y-280051904D01*
X125585714Y-280051904D01*
X125680952Y-280099523D01*
X125728571Y-280147142D01*
X125776190Y-280242380D01*
X125776190Y-280623333D01*
X125728571Y-279623333D02*
X125728571Y-279290000D01*
X126252380Y-279147142D02*
X126252380Y-279623333D01*
X125252380Y-279623333D01*
X125252380Y-279147142D01*
X126252380Y-278242380D02*
X126252380Y-278718571D01*
X125252380Y-278718571D01*
X125871428Y-277147142D02*
X125871428Y-276385238D01*
X125252380Y-275147142D02*
X126061904Y-275147142D01*
X126157142Y-275099523D01*
X126204761Y-275051904D01*
X126252380Y-274956666D01*
X126252380Y-274766190D01*
X126204761Y-274670952D01*
X126157142Y-274623333D01*
X126061904Y-274575714D01*
X125252380Y-274575714D01*
X125585714Y-274099523D02*
X126252380Y-274099523D01*
X125680952Y-274099523D02*
X125633333Y-274051904D01*
X125585714Y-273956666D01*
X125585714Y-273813809D01*
X125633333Y-273718571D01*
X125728571Y-273670952D01*
X126252380Y-273670952D01*
X126252380Y-273194761D02*
X125585714Y-273194761D01*
X125252380Y-273194761D02*
X125300000Y-273242380D01*
X125347619Y-273194761D01*
X125300000Y-273147142D01*
X125252380Y-273194761D01*
X125347619Y-273194761D01*
X125585714Y-272813809D02*
X126252380Y-272575714D01*
X125585714Y-272337619D01*
X126204761Y-271575714D02*
X126252380Y-271670952D01*
X126252380Y-271861428D01*
X126204761Y-271956666D01*
X126109523Y-272004285D01*
X125728571Y-272004285D01*
X125633333Y-271956666D01*
X125585714Y-271861428D01*
X125585714Y-271670952D01*
X125633333Y-271575714D01*
X125728571Y-271528095D01*
X125823809Y-271528095D01*
X125919047Y-272004285D01*
X126252380Y-271099523D02*
X125585714Y-271099523D01*
X125776190Y-271099523D02*
X125680952Y-271051904D01*
X125633333Y-271004285D01*
X125585714Y-270909047D01*
X125585714Y-270813809D01*
X126204761Y-270528095D02*
X126252380Y-270432857D01*
X126252380Y-270242380D01*
X126204761Y-270147142D01*
X126109523Y-270099523D01*
X126061904Y-270099523D01*
X125966666Y-270147142D01*
X125919047Y-270242380D01*
X125919047Y-270385238D01*
X125871428Y-270480476D01*
X125776190Y-270528095D01*
X125728571Y-270528095D01*
X125633333Y-270480476D01*
X125585714Y-270385238D01*
X125585714Y-270242380D01*
X125633333Y-270147142D01*
X126252380Y-269670952D02*
X125585714Y-269670952D01*
X125252380Y-269670952D02*
X125300000Y-269718571D01*
X125347619Y-269670952D01*
X125300000Y-269623333D01*
X125252380Y-269670952D01*
X125347619Y-269670952D01*
X125585714Y-269337619D02*
X125585714Y-268956666D01*
X125252380Y-269194761D02*
X126109523Y-269194761D01*
X126204761Y-269147142D01*
X126252380Y-269051904D01*
X126252380Y-268956666D01*
X125585714Y-268718571D02*
X126252380Y-268480476D01*
X125585714Y-268242380D02*
X126252380Y-268480476D01*
X126490476Y-268575714D01*
X126538095Y-268623333D01*
X126585714Y-268718571D01*
X126252380Y-266956666D02*
X126204761Y-267051904D01*
X126157142Y-267099523D01*
X126061904Y-267147142D01*
X125776190Y-267147142D01*
X125680952Y-267099523D01*
X125633333Y-267051904D01*
X125585714Y-266956666D01*
X125585714Y-266813809D01*
X125633333Y-266718571D01*
X125680952Y-266670952D01*
X125776190Y-266623333D01*
X126061904Y-266623333D01*
X126157142Y-266670952D01*
X126204761Y-266718571D01*
X126252380Y-266813809D01*
X126252380Y-266956666D01*
X125585714Y-266337619D02*
X125585714Y-265956666D01*
X126252380Y-266194761D02*
X125395238Y-266194761D01*
X125300000Y-266147142D01*
X125252380Y-266051904D01*
X125252380Y-265956666D01*
X126157142Y-264290000D02*
X126204761Y-264337619D01*
X126252380Y-264480476D01*
X126252380Y-264575714D01*
X126204761Y-264718571D01*
X126109523Y-264813809D01*
X126014285Y-264861428D01*
X125823809Y-264909047D01*
X125680952Y-264909047D01*
X125490476Y-264861428D01*
X125395238Y-264813809D01*
X125300000Y-264718571D01*
X125252380Y-264575714D01*
X125252380Y-264480476D01*
X125300000Y-264337619D01*
X125347619Y-264290000D01*
X126252380Y-263861428D02*
X125252380Y-263861428D01*
X126252380Y-263432857D02*
X125728571Y-263432857D01*
X125633333Y-263480476D01*
X125585714Y-263575714D01*
X125585714Y-263718571D01*
X125633333Y-263813809D01*
X125680952Y-263861428D01*
X126252380Y-262956666D02*
X125585714Y-262956666D01*
X125252380Y-262956666D02*
X125300000Y-263004285D01*
X125347619Y-262956666D01*
X125300000Y-262909047D01*
X125252380Y-262956666D01*
X125347619Y-262956666D01*
X126252380Y-262337619D02*
X126204761Y-262432857D01*
X126109523Y-262480476D01*
X125252380Y-262480476D01*
X126204761Y-261575714D02*
X126252380Y-261670952D01*
X126252380Y-261861428D01*
X126204761Y-261956666D01*
X126109523Y-262004285D01*
X125728571Y-262004285D01*
X125633333Y-261956666D01*
X125585714Y-261861428D01*
X125585714Y-261670952D01*
X125633333Y-261575714D01*
X125728571Y-261528095D01*
X125823809Y-261528095D01*
X125919047Y-262004285D01*
X125871428Y-260337619D02*
X125871428Y-259575714D01*
X125347619Y-258385238D02*
X125300000Y-258337619D01*
X125252380Y-258242380D01*
X125252380Y-258004285D01*
X125300000Y-257909047D01*
X125347619Y-257861428D01*
X125442857Y-257813809D01*
X125538095Y-257813809D01*
X125680952Y-257861428D01*
X126252380Y-258432857D01*
X126252380Y-257813809D01*
X125252380Y-257194761D02*
X125252380Y-257099523D01*
X125300000Y-257004285D01*
X125347619Y-256956666D01*
X125442857Y-256909047D01*
X125633333Y-256861428D01*
X125871428Y-256861428D01*
X126061904Y-256909047D01*
X126157142Y-256956666D01*
X126204761Y-257004285D01*
X126252380Y-257099523D01*
X126252380Y-257194761D01*
X126204761Y-257290000D01*
X126157142Y-257337619D01*
X126061904Y-257385238D01*
X125871428Y-257432857D01*
X125633333Y-257432857D01*
X125442857Y-257385238D01*
X125347619Y-257337619D01*
X125300000Y-257290000D01*
X125252380Y-257194761D01*
X125347619Y-256480476D02*
X125300000Y-256432857D01*
X125252380Y-256337619D01*
X125252380Y-256099523D01*
X125300000Y-256004285D01*
X125347619Y-255956666D01*
X125442857Y-255909047D01*
X125538095Y-255909047D01*
X125680952Y-255956666D01*
X126252380Y-256528095D01*
X126252380Y-255909047D01*
X126252380Y-254956666D02*
X126252380Y-255528095D01*
X126252380Y-255242380D02*
X125252380Y-255242380D01*
X125395238Y-255337619D01*
X125490476Y-255432857D01*
X125538095Y-255528095D01*
X133954761Y-282556666D02*
X134002380Y-282413809D01*
X134002380Y-282175714D01*
X133954761Y-282080476D01*
X133907142Y-282032857D01*
X133811904Y-281985238D01*
X133716666Y-281985238D01*
X133621428Y-282032857D01*
X133573809Y-282080476D01*
X133526190Y-282175714D01*
X133478571Y-282366190D01*
X133430952Y-282461428D01*
X133383333Y-282509047D01*
X133288095Y-282556666D01*
X133192857Y-282556666D01*
X133097619Y-282509047D01*
X133050000Y-282461428D01*
X133002380Y-282366190D01*
X133002380Y-282128095D01*
X133050000Y-281985238D01*
X133954761Y-281175714D02*
X134002380Y-281270952D01*
X134002380Y-281461428D01*
X133954761Y-281556666D01*
X133859523Y-281604285D01*
X133478571Y-281604285D01*
X133383333Y-281556666D01*
X133335714Y-281461428D01*
X133335714Y-281270952D01*
X133383333Y-281175714D01*
X133478571Y-281128095D01*
X133573809Y-281128095D01*
X133669047Y-281604285D01*
X133335714Y-280699523D02*
X134002380Y-280699523D01*
X133430952Y-280699523D02*
X133383333Y-280651904D01*
X133335714Y-280556666D01*
X133335714Y-280413809D01*
X133383333Y-280318571D01*
X133478571Y-280270952D01*
X134002380Y-280270952D01*
X133954761Y-279842380D02*
X134002380Y-279747142D01*
X134002380Y-279556666D01*
X133954761Y-279461428D01*
X133859523Y-279413809D01*
X133811904Y-279413809D01*
X133716666Y-279461428D01*
X133669047Y-279556666D01*
X133669047Y-279699523D01*
X133621428Y-279794761D01*
X133526190Y-279842380D01*
X133478571Y-279842380D01*
X133383333Y-279794761D01*
X133335714Y-279699523D01*
X133335714Y-279556666D01*
X133383333Y-279461428D01*
X134002380Y-278842380D02*
X133954761Y-278937619D01*
X133907142Y-278985238D01*
X133811904Y-279032857D01*
X133526190Y-279032857D01*
X133430952Y-278985238D01*
X133383333Y-278937619D01*
X133335714Y-278842380D01*
X133335714Y-278699523D01*
X133383333Y-278604285D01*
X133430952Y-278556666D01*
X133526190Y-278509047D01*
X133811904Y-278509047D01*
X133907142Y-278556666D01*
X133954761Y-278604285D01*
X134002380Y-278699523D01*
X134002380Y-278842380D01*
X134002380Y-278080476D02*
X133335714Y-278080476D01*
X133526190Y-278080476D02*
X133430952Y-278032857D01*
X133383333Y-277985238D01*
X133335714Y-277890000D01*
X133335714Y-277794761D01*
X133478571Y-276366190D02*
X133526190Y-276223333D01*
X133573809Y-276175714D01*
X133669047Y-276128095D01*
X133811904Y-276128095D01*
X133907142Y-276175714D01*
X133954761Y-276223333D01*
X134002380Y-276318571D01*
X134002380Y-276699523D01*
X133002380Y-276699523D01*
X133002380Y-276366190D01*
X133050000Y-276270952D01*
X133097619Y-276223333D01*
X133192857Y-276175714D01*
X133288095Y-276175714D01*
X133383333Y-276223333D01*
X133430952Y-276270952D01*
X133478571Y-276366190D01*
X133478571Y-276699523D01*
X134002380Y-275556666D02*
X133954761Y-275651904D01*
X133907142Y-275699523D01*
X133811904Y-275747142D01*
X133526190Y-275747142D01*
X133430952Y-275699523D01*
X133383333Y-275651904D01*
X133335714Y-275556666D01*
X133335714Y-275413809D01*
X133383333Y-275318571D01*
X133430952Y-275270952D01*
X133526190Y-275223333D01*
X133811904Y-275223333D01*
X133907142Y-275270952D01*
X133954761Y-275318571D01*
X134002380Y-275413809D01*
X134002380Y-275556666D01*
X134002380Y-274366190D02*
X133478571Y-274366190D01*
X133383333Y-274413809D01*
X133335714Y-274509047D01*
X133335714Y-274699523D01*
X133383333Y-274794761D01*
X133954761Y-274366190D02*
X134002380Y-274461428D01*
X134002380Y-274699523D01*
X133954761Y-274794761D01*
X133859523Y-274842380D01*
X133764285Y-274842380D01*
X133669047Y-274794761D01*
X133621428Y-274699523D01*
X133621428Y-274461428D01*
X133573809Y-274366190D01*
X134002380Y-273890000D02*
X133335714Y-273890000D01*
X133526190Y-273890000D02*
X133430952Y-273842380D01*
X133383333Y-273794761D01*
X133335714Y-273699523D01*
X133335714Y-273604285D01*
X134002380Y-272842380D02*
X133002380Y-272842380D01*
X133954761Y-272842380D02*
X134002380Y-272937619D01*
X134002380Y-273128095D01*
X133954761Y-273223333D01*
X133907142Y-273270952D01*
X133811904Y-273318571D01*
X133526190Y-273318571D01*
X133430952Y-273270952D01*
X133383333Y-273223333D01*
X133335714Y-273128095D01*
X133335714Y-272937619D01*
X133383333Y-272842380D01*
X134002380Y-271604285D02*
X133002380Y-271604285D01*
X133002380Y-271223333D01*
X133050000Y-271128095D01*
X133097619Y-271080476D01*
X133192857Y-271032857D01*
X133335714Y-271032857D01*
X133430952Y-271080476D01*
X133478571Y-271128095D01*
X133526190Y-271223333D01*
X133526190Y-271604285D01*
X134002380Y-270175714D02*
X133478571Y-270175714D01*
X133383333Y-270223333D01*
X133335714Y-270318571D01*
X133335714Y-270509047D01*
X133383333Y-270604285D01*
X133954761Y-270175714D02*
X134002380Y-270270952D01*
X134002380Y-270509047D01*
X133954761Y-270604285D01*
X133859523Y-270651904D01*
X133764285Y-270651904D01*
X133669047Y-270604285D01*
X133621428Y-270509047D01*
X133621428Y-270270952D01*
X133573809Y-270175714D01*
X133335714Y-269699523D02*
X134002380Y-269699523D01*
X133430952Y-269699523D02*
X133383333Y-269651904D01*
X133335714Y-269556666D01*
X133335714Y-269413809D01*
X133383333Y-269318571D01*
X133478571Y-269270952D01*
X134002380Y-269270952D01*
X133954761Y-268413809D02*
X134002380Y-268509047D01*
X134002380Y-268699523D01*
X133954761Y-268794761D01*
X133859523Y-268842380D01*
X133478571Y-268842380D01*
X133383333Y-268794761D01*
X133335714Y-268699523D01*
X133335714Y-268509047D01*
X133383333Y-268413809D01*
X133478571Y-268366190D01*
X133573809Y-268366190D01*
X133669047Y-268842380D01*
X134002380Y-267794761D02*
X133954761Y-267890000D01*
X133859523Y-267937619D01*
X133002380Y-267937619D01*
X133716666Y-266699523D02*
X133716666Y-266223333D01*
X134002380Y-266794761D02*
X133002380Y-266461428D01*
X134002380Y-266128095D01*
X133954761Y-265080476D02*
X134002380Y-264937619D01*
X134002380Y-264699523D01*
X133954761Y-264604285D01*
X133907142Y-264556666D01*
X133811904Y-264509047D01*
X133716666Y-264509047D01*
X133621428Y-264556666D01*
X133573809Y-264604285D01*
X133526190Y-264699523D01*
X133478571Y-264890000D01*
X133430952Y-264985238D01*
X133383333Y-265032857D01*
X133288095Y-265080476D01*
X133192857Y-265080476D01*
X133097619Y-265032857D01*
X133050000Y-264985238D01*
X133002380Y-264890000D01*
X133002380Y-264651904D01*
X133050000Y-264509047D01*
X133002380Y-264175714D02*
X133002380Y-263556666D01*
X133383333Y-263890000D01*
X133383333Y-263747142D01*
X133430952Y-263651904D01*
X133478571Y-263604285D01*
X133573809Y-263556666D01*
X133811904Y-263556666D01*
X133907142Y-263604285D01*
X133954761Y-263651904D01*
X134002380Y-263747142D01*
X134002380Y-264032857D01*
X133954761Y-264128095D01*
X133907142Y-264175714D01*
X133478571Y-262366190D02*
X133478571Y-262032857D01*
X134002380Y-261890000D02*
X134002380Y-262366190D01*
X133002380Y-262366190D01*
X133002380Y-261890000D01*
X133002380Y-260842380D02*
X134002380Y-260509047D01*
X133002380Y-260175714D01*
X134002380Y-259318571D02*
X134002380Y-259890000D01*
X134002380Y-259604285D02*
X133002380Y-259604285D01*
X133145238Y-259699523D01*
X133240476Y-259794761D01*
X133288095Y-259890000D01*
X133954761Y-258175714D02*
X134002380Y-258032857D01*
X134002380Y-257794761D01*
X133954761Y-257699523D01*
X133907142Y-257651904D01*
X133811904Y-257604285D01*
X133716666Y-257604285D01*
X133621428Y-257651904D01*
X133573809Y-257699523D01*
X133526190Y-257794761D01*
X133478571Y-257985238D01*
X133430952Y-258080476D01*
X133383333Y-258128095D01*
X133288095Y-258175714D01*
X133192857Y-258175714D01*
X133097619Y-258128095D01*
X133050000Y-258080476D01*
X133002380Y-257985238D01*
X133002380Y-257747142D01*
X133050000Y-257604285D01*
X133954761Y-256794761D02*
X134002380Y-256890000D01*
X134002380Y-257080476D01*
X133954761Y-257175714D01*
X133859523Y-257223333D01*
X133478571Y-257223333D01*
X133383333Y-257175714D01*
X133335714Y-257080476D01*
X133335714Y-256890000D01*
X133383333Y-256794761D01*
X133478571Y-256747142D01*
X133573809Y-256747142D01*
X133669047Y-257223333D01*
X134002380Y-256318571D02*
X133335714Y-256318571D01*
X133526190Y-256318571D02*
X133430952Y-256270952D01*
X133383333Y-256223333D01*
X133335714Y-256128095D01*
X133335714Y-256032857D01*
X134002380Y-255699523D02*
X133335714Y-255699523D01*
X133002380Y-255699523D02*
X133050000Y-255747142D01*
X133097619Y-255699523D01*
X133050000Y-255651904D01*
X133002380Y-255699523D01*
X133097619Y-255699523D01*
X134002380Y-254794761D02*
X133478571Y-254794761D01*
X133383333Y-254842380D01*
X133335714Y-254937619D01*
X133335714Y-255128095D01*
X133383333Y-255223333D01*
X133954761Y-254794761D02*
X134002380Y-254890000D01*
X134002380Y-255128095D01*
X133954761Y-255223333D01*
X133859523Y-255270952D01*
X133764285Y-255270952D01*
X133669047Y-255223333D01*
X133621428Y-255128095D01*
X133621428Y-254890000D01*
X133573809Y-254794761D01*
X134002380Y-254175714D02*
X133954761Y-254270952D01*
X133859523Y-254318571D01*
X133002380Y-254318571D01*
D10*
X124820000Y-340080000D02*
X124820000Y-254880000D01*
X204220000Y-254880000D02*
X121620000Y-254880000D01*
X121620000Y-340080000D02*
X204220000Y-340080000D01*
X202270000Y-343280000D02*
G75*
G03X202270000Y-343280000I-1250000J0D01*
G01*
X201020000Y-254880000D02*
X201020000Y-340080000D01*
X126070000Y-343280000D02*
G75*
G03X126070000Y-343280000I-1250000J0D01*
G01*
X151020000Y-254820000D02*
X204220000Y-254880000D01*
X150220000Y-284380000D02*
X150220000Y-309780000D01*
X175620000Y-284380000D02*
X175620000Y-309780000D01*
X150220000Y-284380000D02*
X175620000Y-284380000D01*
X150220000Y-309780000D02*
X175620000Y-309780000D01*
X150120000Y-288150000D02*
X152780000Y-288150000D01*
X150120000Y-306050000D02*
X152780000Y-306050000D01*
X152780000Y-288150000D02*
X152780000Y-291260000D01*
X150120000Y-288720000D02*
X148600000Y-288720000D01*
X150120000Y-288150000D02*
X150120000Y-288720000D01*
X152780000Y-305480000D02*
X152780000Y-306050000D01*
X152780000Y-292780000D02*
X152780000Y-296340000D01*
X152780000Y-297860000D02*
X152780000Y-301420000D01*
X152780000Y-302940000D02*
X152780000Y-306050000D01*
X150120000Y-290240000D02*
X150120000Y-293800000D01*
X150120000Y-295320000D02*
X150120000Y-298880000D01*
X150120000Y-300400000D02*
X150120000Y-303960000D01*
X175760000Y-293840000D02*
X175760000Y-290280000D01*
X175760000Y-298920000D02*
X175760000Y-295360000D01*
X175760000Y-304000000D02*
X175760000Y-300440000D01*
X173100000Y-291300000D02*
X173100000Y-288190000D01*
X173100000Y-296380000D02*
X173100000Y-292820000D01*
X173100000Y-301460000D02*
X173100000Y-297900000D01*
X173100000Y-288760000D02*
X173100000Y-288190000D01*
X175760000Y-306090000D02*
X175760000Y-305520000D01*
X175760000Y-305520000D02*
X177280000Y-305520000D01*
X173100000Y-306090000D02*
X173100000Y-302980000D01*
X175760000Y-288190000D02*
X173100000Y-288190000D01*
X175760000Y-306090000D02*
X173100000Y-306090000D01*
X189585000Y-266975000D02*
X188635000Y-266975000D01*
X188635000Y-266975000D02*
X188635000Y-266075000D01*
X188635000Y-266075000D02*
X187135000Y-266075000D01*
X194735000Y-266975000D02*
X195685000Y-266975000D01*
X195685000Y-266975000D02*
X195685000Y-266075000D01*
X195685000Y-266075000D02*
X197185000Y-266075000D01*
X195135000Y-262975000D02*
X189185000Y-262975000D01*
X194735000Y-266975000D02*
X194735000Y-267725000D01*
X145410000Y-302230000D02*
X145110000Y-302530000D01*
X145110000Y-301930000D02*
X145110000Y-302530000D01*
X145410000Y-302230000D02*
X145110000Y-301930000D01*
X146310000Y-301380000D02*
X146910000Y-301380000D01*
X145610000Y-304830000D02*
X145610000Y-302030000D01*
X146910000Y-305480000D02*
X146310000Y-305480000D01*
X147610000Y-302030000D02*
X147610000Y-304830000D01*
X147610000Y-304780000D02*
G75*
G02X146910000Y-305480000I-700000J0D01*
G01*
X146310000Y-305480000D02*
G75*
G02X145610000Y-304780000I0J700000D01*
G01*
X145610000Y-302080000D02*
G75*
G02X146310000Y-301380000I700000J0D01*
G01*
X146910000Y-301380000D02*
G75*
G02X147610000Y-302080000I0J-700000D01*
G01*
D12*
X164375000Y-298865000D02*
X164375000Y-298690000D01*
X161025000Y-298865000D02*
X161025000Y-298615000D01*
X161025000Y-295515000D02*
X161025000Y-295765000D01*
X164375000Y-295515000D02*
X164375000Y-295765000D01*
X164375000Y-298865000D02*
X161025000Y-298865000D01*
X164375000Y-295515000D02*
X161025000Y-295515000D01*
X164375000Y-298690000D02*
X165625000Y-298690000D01*
D10*
X178560000Y-305320000D02*
X179060000Y-305320000D01*
X179060000Y-304260000D02*
X178560000Y-304260000D01*
X144010000Y-301360000D02*
G75*
G02X144710000Y-302060000I0J-700000D01*
G01*
X142710000Y-302060000D02*
G75*
G02X143410000Y-301360000I700000J0D01*
G01*
X143410000Y-305460000D02*
G75*
G02X142710000Y-304760000I0J700000D01*
G01*
X144710000Y-304760000D02*
G75*
G02X144010000Y-305460000I-700000J0D01*
G01*
X144710000Y-302010000D02*
X144710000Y-304810000D01*
X144010000Y-305460000D02*
X143410000Y-305460000D01*
X142710000Y-304810000D02*
X142710000Y-302010000D01*
X143410000Y-301360000D02*
X144010000Y-301360000D01*
X142510000Y-302210000D02*
X142210000Y-301910000D01*
X142210000Y-301910000D02*
X142210000Y-302510000D01*
X142510000Y-302210000D02*
X142210000Y-302510000D01*
X179070000Y-299140000D02*
X178570000Y-299140000D01*
X178570000Y-300200000D02*
X179070000Y-300200000D01*
X142550000Y-294630000D02*
X142250000Y-294930000D01*
X142250000Y-294330000D02*
X142250000Y-294930000D01*
X142550000Y-294630000D02*
X142250000Y-294330000D01*
X143450000Y-293780000D02*
X144050000Y-293780000D01*
X142750000Y-297230000D02*
X142750000Y-294430000D01*
X144050000Y-297880000D02*
X143450000Y-297880000D01*
X144750000Y-294430000D02*
X144750000Y-297230000D01*
X144750000Y-297180000D02*
G75*
G02X144050000Y-297880000I-700000J0D01*
G01*
X143450000Y-297880000D02*
G75*
G02X142750000Y-297180000I0J700000D01*
G01*
X142750000Y-294480000D02*
G75*
G02X143450000Y-293780000I700000J0D01*
G01*
X144050000Y-293780000D02*
G75*
G02X144750000Y-294480000I0J-700000D01*
G01*
X141170000Y-293820000D02*
G75*
G02X141870000Y-294520000I0J-700000D01*
G01*
X139870000Y-294520000D02*
G75*
G02X140570000Y-293820000I700000J0D01*
G01*
X140570000Y-297920000D02*
G75*
G02X139870000Y-297220000I0J700000D01*
G01*
X141870000Y-297220000D02*
G75*
G02X141170000Y-297920000I-700000J0D01*
G01*
X141870000Y-294470000D02*
X141870000Y-297270000D01*
X141170000Y-297920000D02*
X140570000Y-297920000D01*
X139870000Y-297270000D02*
X139870000Y-294470000D01*
X140570000Y-293820000D02*
X141170000Y-293820000D01*
X139670000Y-294670000D02*
X139370000Y-294370000D01*
X139370000Y-294370000D02*
X139370000Y-294970000D01*
X139670000Y-294670000D02*
X139370000Y-294970000D01*
X145420000Y-294650000D02*
X145120000Y-294950000D01*
X145120000Y-294350000D02*
X145120000Y-294950000D01*
X145420000Y-294650000D02*
X145120000Y-294350000D01*
X146320000Y-293800000D02*
X146920000Y-293800000D01*
X145620000Y-297250000D02*
X145620000Y-294450000D01*
X146920000Y-297900000D02*
X146320000Y-297900000D01*
X147620000Y-294450000D02*
X147620000Y-297250000D01*
X147620000Y-297200000D02*
G75*
G02X146920000Y-297900000I-700000J0D01*
G01*
X146320000Y-297900000D02*
G75*
G02X145620000Y-297200000I0J700000D01*
G01*
X145620000Y-294500000D02*
G75*
G02X146320000Y-293800000I700000J0D01*
G01*
X146920000Y-293800000D02*
G75*
G02X147620000Y-294500000I0J-700000D01*
G01*
D12*
X123496666Y-248912380D02*
X123163333Y-248436190D01*
X122925238Y-248912380D02*
X122925238Y-247912380D01*
X123306190Y-247912380D01*
X123401428Y-247960000D01*
X123449047Y-248007619D01*
X123496666Y-248102857D01*
X123496666Y-248245714D01*
X123449047Y-248340952D01*
X123401428Y-248388571D01*
X123306190Y-248436190D01*
X122925238Y-248436190D01*
X123925238Y-248388571D02*
X124258571Y-248388571D01*
X124401428Y-248912380D02*
X123925238Y-248912380D01*
X123925238Y-247912380D01*
X124401428Y-247912380D01*
X125163333Y-248388571D02*
X124830000Y-248388571D01*
X124830000Y-248912380D02*
X124830000Y-247912380D01*
X125306190Y-247912380D01*
X125830000Y-247912380D02*
X125830000Y-248150476D01*
X125591904Y-248055238D02*
X125830000Y-248150476D01*
X126068095Y-248055238D01*
X125687142Y-248340952D02*
X125830000Y-248150476D01*
X125972857Y-248340952D01*
X126591904Y-247912380D02*
X126591904Y-248150476D01*
X126353809Y-248055238D02*
X126591904Y-248150476D01*
X126830000Y-248055238D01*
X126449047Y-248340952D02*
X126591904Y-248150476D01*
X126734761Y-248340952D01*
X199686666Y-248882380D02*
X199353333Y-248406190D01*
X199115238Y-248882380D02*
X199115238Y-247882380D01*
X199496190Y-247882380D01*
X199591428Y-247930000D01*
X199639047Y-247977619D01*
X199686666Y-248072857D01*
X199686666Y-248215714D01*
X199639047Y-248310952D01*
X199591428Y-248358571D01*
X199496190Y-248406190D01*
X199115238Y-248406190D01*
X200115238Y-248358571D02*
X200448571Y-248358571D01*
X200591428Y-248882380D02*
X200115238Y-248882380D01*
X200115238Y-247882380D01*
X200591428Y-247882380D01*
X201353333Y-248358571D02*
X201020000Y-248358571D01*
X201020000Y-248882380D02*
X201020000Y-247882380D01*
X201496190Y-247882380D01*
X202020000Y-247882380D02*
X202020000Y-248120476D01*
X201781904Y-248025238D02*
X202020000Y-248120476D01*
X202258095Y-248025238D01*
X201877142Y-248310952D02*
X202020000Y-248120476D01*
X202162857Y-248310952D01*
X202781904Y-247882380D02*
X202781904Y-248120476D01*
X202543809Y-248025238D02*
X202781904Y-248120476D01*
X203020000Y-248025238D01*
X202639047Y-248310952D02*
X202781904Y-248120476D01*
X202924761Y-248310952D01*
X192896666Y-330232380D02*
X192563333Y-329756190D01*
X192325238Y-330232380D02*
X192325238Y-329232380D01*
X192706190Y-329232380D01*
X192801428Y-329280000D01*
X192849047Y-329327619D01*
X192896666Y-329422857D01*
X192896666Y-329565714D01*
X192849047Y-329660952D01*
X192801428Y-329708571D01*
X192706190Y-329756190D01*
X192325238Y-329756190D01*
X193325238Y-329708571D02*
X193658571Y-329708571D01*
X193801428Y-330232380D02*
X193325238Y-330232380D01*
X193325238Y-329232380D01*
X193801428Y-329232380D01*
X194563333Y-329708571D02*
X194230000Y-329708571D01*
X194230000Y-330232380D02*
X194230000Y-329232380D01*
X194706190Y-329232380D01*
X195230000Y-329232380D02*
X195230000Y-329470476D01*
X194991904Y-329375238D02*
X195230000Y-329470476D01*
X195468095Y-329375238D01*
X195087142Y-329660952D02*
X195230000Y-329470476D01*
X195372857Y-329660952D01*
X195991904Y-329232380D02*
X195991904Y-329470476D01*
X195753809Y-329375238D02*
X195991904Y-329470476D01*
X196230000Y-329375238D01*
X195849047Y-329660952D02*
X195991904Y-329470476D01*
X196134761Y-329660952D01*
X130276666Y-330232380D02*
X129943333Y-329756190D01*
X129705238Y-330232380D02*
X129705238Y-329232380D01*
X130086190Y-329232380D01*
X130181428Y-329280000D01*
X130229047Y-329327619D01*
X130276666Y-329422857D01*
X130276666Y-329565714D01*
X130229047Y-329660952D01*
X130181428Y-329708571D01*
X130086190Y-329756190D01*
X129705238Y-329756190D01*
X130705238Y-329708571D02*
X131038571Y-329708571D01*
X131181428Y-330232380D02*
X130705238Y-330232380D01*
X130705238Y-329232380D01*
X131181428Y-329232380D01*
X131943333Y-329708571D02*
X131610000Y-329708571D01*
X131610000Y-330232380D02*
X131610000Y-329232380D01*
X132086190Y-329232380D01*
X132610000Y-329232380D02*
X132610000Y-329470476D01*
X132371904Y-329375238D02*
X132610000Y-329470476D01*
X132848095Y-329375238D01*
X132467142Y-329660952D02*
X132610000Y-329470476D01*
X132752857Y-329660952D01*
X133371904Y-329232380D02*
X133371904Y-329470476D01*
X133133809Y-329375238D02*
X133371904Y-329470476D01*
X133610000Y-329375238D01*
X133229047Y-329660952D02*
X133371904Y-329470476D01*
X133514761Y-329660952D01*
X192896666Y-287642380D02*
X192563333Y-287166190D01*
X192325238Y-287642380D02*
X192325238Y-286642380D01*
X192706190Y-286642380D01*
X192801428Y-286690000D01*
X192849047Y-286737619D01*
X192896666Y-286832857D01*
X192896666Y-286975714D01*
X192849047Y-287070952D01*
X192801428Y-287118571D01*
X192706190Y-287166190D01*
X192325238Y-287166190D01*
X193325238Y-287118571D02*
X193658571Y-287118571D01*
X193801428Y-287642380D02*
X193325238Y-287642380D01*
X193325238Y-286642380D01*
X193801428Y-286642380D01*
X194563333Y-287118571D02*
X194230000Y-287118571D01*
X194230000Y-287642380D02*
X194230000Y-286642380D01*
X194706190Y-286642380D01*
X195230000Y-286642380D02*
X195230000Y-286880476D01*
X194991904Y-286785238D02*
X195230000Y-286880476D01*
X195468095Y-286785238D01*
X195087142Y-287070952D02*
X195230000Y-286880476D01*
X195372857Y-287070952D01*
X195991904Y-286642380D02*
X195991904Y-286880476D01*
X195753809Y-286785238D02*
X195991904Y-286880476D01*
X196230000Y-286785238D01*
X195849047Y-287070952D02*
X195991904Y-286880476D01*
X196134761Y-287070952D01*
X130276666Y-287642380D02*
X129943333Y-287166190D01*
X129705238Y-287642380D02*
X129705238Y-286642380D01*
X130086190Y-286642380D01*
X130181428Y-286690000D01*
X130229047Y-286737619D01*
X130276666Y-286832857D01*
X130276666Y-286975714D01*
X130229047Y-287070952D01*
X130181428Y-287118571D01*
X130086190Y-287166190D01*
X129705238Y-287166190D01*
X130705238Y-287118571D02*
X131038571Y-287118571D01*
X131181428Y-287642380D02*
X130705238Y-287642380D01*
X130705238Y-286642380D01*
X131181428Y-286642380D01*
X131943333Y-287118571D02*
X131610000Y-287118571D01*
X131610000Y-287642380D02*
X131610000Y-286642380D01*
X132086190Y-286642380D01*
X132610000Y-286642380D02*
X132610000Y-286880476D01*
X132371904Y-286785238D02*
X132610000Y-286880476D01*
X132848095Y-286785238D01*
X132467142Y-287070952D02*
X132610000Y-286880476D01*
X132752857Y-287070952D01*
X133371904Y-286642380D02*
X133371904Y-286880476D01*
X133133809Y-286785238D02*
X133371904Y-286880476D01*
X133610000Y-286785238D01*
X133229047Y-287070952D02*
X133371904Y-286880476D01*
X133514761Y-287070952D01*
X131086666Y-306232380D02*
X130753333Y-305756190D01*
X130515238Y-306232380D02*
X130515238Y-305232380D01*
X130896190Y-305232380D01*
X130991428Y-305280000D01*
X131039047Y-305327619D01*
X131086666Y-305422857D01*
X131086666Y-305565714D01*
X131039047Y-305660952D01*
X130991428Y-305708571D01*
X130896190Y-305756190D01*
X130515238Y-305756190D01*
X131515238Y-305708571D02*
X131848571Y-305708571D01*
X131991428Y-306232380D02*
X131515238Y-306232380D01*
X131515238Y-305232380D01*
X131991428Y-305232380D01*
X132753333Y-305708571D02*
X132420000Y-305708571D01*
X132420000Y-306232380D02*
X132420000Y-305232380D01*
X132896190Y-305232380D01*
X133420000Y-305232380D02*
X133420000Y-305470476D01*
X133181904Y-305375238D02*
X133420000Y-305470476D01*
X133658095Y-305375238D01*
X133277142Y-305660952D02*
X133420000Y-305470476D01*
X133562857Y-305660952D01*
X134181904Y-305232380D02*
X134181904Y-305470476D01*
X133943809Y-305375238D02*
X134181904Y-305470476D01*
X134420000Y-305375238D01*
X134039047Y-305660952D02*
X134181904Y-305470476D01*
X134324761Y-305660952D01*
X192106666Y-306262380D02*
X191773333Y-305786190D01*
X191535238Y-306262380D02*
X191535238Y-305262380D01*
X191916190Y-305262380D01*
X192011428Y-305310000D01*
X192059047Y-305357619D01*
X192106666Y-305452857D01*
X192106666Y-305595714D01*
X192059047Y-305690952D01*
X192011428Y-305738571D01*
X191916190Y-305786190D01*
X191535238Y-305786190D01*
X192535238Y-305738571D02*
X192868571Y-305738571D01*
X193011428Y-306262380D02*
X192535238Y-306262380D01*
X192535238Y-305262380D01*
X193011428Y-305262380D01*
X193773333Y-305738571D02*
X193440000Y-305738571D01*
X193440000Y-306262380D02*
X193440000Y-305262380D01*
X193916190Y-305262380D01*
X194440000Y-305262380D02*
X194440000Y-305500476D01*
X194201904Y-305405238D02*
X194440000Y-305500476D01*
X194678095Y-305405238D01*
X194297142Y-305690952D02*
X194440000Y-305500476D01*
X194582857Y-305690952D01*
X195201904Y-305262380D02*
X195201904Y-305500476D01*
X194963809Y-305405238D02*
X195201904Y-305500476D01*
X195440000Y-305405238D01*
X195059047Y-305690952D02*
X195201904Y-305500476D01*
X195344761Y-305690952D01*
X199696666Y-340492380D02*
X199363333Y-340016190D01*
X199125238Y-340492380D02*
X199125238Y-339492380D01*
X199506190Y-339492380D01*
X199601428Y-339540000D01*
X199649047Y-339587619D01*
X199696666Y-339682857D01*
X199696666Y-339825714D01*
X199649047Y-339920952D01*
X199601428Y-339968571D01*
X199506190Y-340016190D01*
X199125238Y-340016190D01*
X200125238Y-339968571D02*
X200458571Y-339968571D01*
X200601428Y-340492380D02*
X200125238Y-340492380D01*
X200125238Y-339492380D01*
X200601428Y-339492380D01*
X201363333Y-339968571D02*
X201030000Y-339968571D01*
X201030000Y-340492380D02*
X201030000Y-339492380D01*
X201506190Y-339492380D01*
X202030000Y-339492380D02*
X202030000Y-339730476D01*
X201791904Y-339635238D02*
X202030000Y-339730476D01*
X202268095Y-339635238D01*
X201887142Y-339920952D02*
X202030000Y-339730476D01*
X202172857Y-339920952D01*
X202791904Y-339492380D02*
X202791904Y-339730476D01*
X202553809Y-339635238D02*
X202791904Y-339730476D01*
X203030000Y-339635238D01*
X202649047Y-339920952D02*
X202791904Y-339730476D01*
X202934761Y-339920952D01*
X123496666Y-340482380D02*
X123163333Y-340006190D01*
X122925238Y-340482380D02*
X122925238Y-339482380D01*
X123306190Y-339482380D01*
X123401428Y-339530000D01*
X123449047Y-339577619D01*
X123496666Y-339672857D01*
X123496666Y-339815714D01*
X123449047Y-339910952D01*
X123401428Y-339958571D01*
X123306190Y-340006190D01*
X122925238Y-340006190D01*
X123925238Y-339958571D02*
X124258571Y-339958571D01*
X124401428Y-340482380D02*
X123925238Y-340482380D01*
X123925238Y-339482380D01*
X124401428Y-339482380D01*
X125163333Y-339958571D02*
X124830000Y-339958571D01*
X124830000Y-340482380D02*
X124830000Y-339482380D01*
X125306190Y-339482380D01*
X125830000Y-339482380D02*
X125830000Y-339720476D01*
X125591904Y-339625238D02*
X125830000Y-339720476D01*
X126068095Y-339625238D01*
X125687142Y-339910952D02*
X125830000Y-339720476D01*
X125972857Y-339910952D01*
X126591904Y-339482380D02*
X126591904Y-339720476D01*
X126353809Y-339625238D02*
X126591904Y-339720476D01*
X126830000Y-339625238D01*
X126449047Y-339910952D02*
X126591904Y-339720476D01*
X126734761Y-339910952D01*
X150640476Y-286602380D02*
X150640476Y-287316666D01*
X150592857Y-287459523D01*
X150497619Y-287554761D01*
X150354761Y-287602380D01*
X150259523Y-287602380D01*
X151640476Y-287602380D02*
X151069047Y-287602380D01*
X151354761Y-287602380D02*
X151354761Y-286602380D01*
X151259523Y-286745238D01*
X151164285Y-286840476D01*
X151069047Y-286888095D01*
X152497619Y-286935714D02*
X152497619Y-287602380D01*
X152259523Y-286554761D02*
X152021428Y-287269047D01*
X152640476Y-287269047D01*
X173620476Y-306542380D02*
X173620476Y-307256666D01*
X173572857Y-307399523D01*
X173477619Y-307494761D01*
X173334761Y-307542380D01*
X173239523Y-307542380D01*
X174620476Y-307542380D02*
X174049047Y-307542380D01*
X174334761Y-307542380D02*
X174334761Y-306542380D01*
X174239523Y-306685238D01*
X174144285Y-306780476D01*
X174049047Y-306828095D01*
X175001428Y-306637619D02*
X175049047Y-306590000D01*
X175144285Y-306542380D01*
X175382380Y-306542380D01*
X175477619Y-306590000D01*
X175525238Y-306637619D01*
X175572857Y-306732857D01*
X175572857Y-306828095D01*
X175525238Y-306970952D01*
X174953809Y-307542380D01*
X175572857Y-307542380D01*
X191350476Y-268302380D02*
X191350476Y-269016666D01*
X191302857Y-269159523D01*
X191207619Y-269254761D01*
X191064761Y-269302380D01*
X190969523Y-269302380D01*
X192350476Y-269302380D02*
X191779047Y-269302380D01*
X192064761Y-269302380D02*
X192064761Y-268302380D01*
X191969523Y-268445238D01*
X191874285Y-268540476D01*
X191779047Y-268588095D01*
X192969523Y-268302380D02*
X193064761Y-268302380D01*
X193160000Y-268350000D01*
X193207619Y-268397619D01*
X193255238Y-268492857D01*
X193302857Y-268683333D01*
X193302857Y-268921428D01*
X193255238Y-269111904D01*
X193207619Y-269207142D01*
X193160000Y-269254761D01*
X193064761Y-269302380D01*
X192969523Y-269302380D01*
X192874285Y-269254761D01*
X192826666Y-269207142D01*
X192779047Y-269111904D01*
X192731428Y-268921428D01*
X192731428Y-268683333D01*
X192779047Y-268492857D01*
X192826666Y-268397619D01*
X192874285Y-268350000D01*
X192969523Y-268302380D01*
X146062380Y-308919523D02*
X146776666Y-308919523D01*
X146919523Y-308967142D01*
X147014761Y-309062380D01*
X147062380Y-309205238D01*
X147062380Y-309300476D01*
X147062380Y-308443333D02*
X146062380Y-308443333D01*
X146062380Y-308062380D01*
X146110000Y-307967142D01*
X146157619Y-307919523D01*
X146252857Y-307871904D01*
X146395714Y-307871904D01*
X146490952Y-307919523D01*
X146538571Y-307967142D01*
X146586190Y-308062380D01*
X146586190Y-308443333D01*
X147062380Y-306919523D02*
X147062380Y-307490952D01*
X147062380Y-307205238D02*
X146062380Y-307205238D01*
X146205238Y-307300476D01*
X146300476Y-307395714D01*
X146348095Y-307490952D01*
X147062380Y-306443333D02*
X147062380Y-306252857D01*
X147014761Y-306157619D01*
X146967142Y-306110000D01*
X146824285Y-306014761D01*
X146633809Y-305967142D01*
X146252857Y-305967142D01*
X146157619Y-306014761D01*
X146110000Y-306062380D01*
X146062380Y-306157619D01*
X146062380Y-306348095D01*
X146110000Y-306443333D01*
X146157619Y-306490952D01*
X146252857Y-306538571D01*
X146490952Y-306538571D01*
X146586190Y-306490952D01*
X146633809Y-306443333D01*
X146681428Y-306348095D01*
X146681428Y-306157619D01*
X146633809Y-306062380D01*
X146586190Y-306014761D01*
X146490952Y-305967142D01*
X161461904Y-299242380D02*
X161461904Y-300051904D01*
X161509523Y-300147142D01*
X161557142Y-300194761D01*
X161652380Y-300242380D01*
X161842857Y-300242380D01*
X161938095Y-300194761D01*
X161985714Y-300147142D01*
X162033333Y-300051904D01*
X162033333Y-299242380D01*
X163033333Y-300242380D02*
X162461904Y-300242380D01*
X162747619Y-300242380D02*
X162747619Y-299242380D01*
X162652380Y-299385238D01*
X162557142Y-299480476D01*
X162461904Y-299528095D01*
X163366666Y-299242380D02*
X164033333Y-299242380D01*
X163604761Y-300242380D01*
X178167142Y-306592380D02*
X177833809Y-306116190D01*
X177595714Y-306592380D02*
X177595714Y-305592380D01*
X177976666Y-305592380D01*
X178071904Y-305640000D01*
X178119523Y-305687619D01*
X178167142Y-305782857D01*
X178167142Y-305925714D01*
X178119523Y-306020952D01*
X178071904Y-306068571D01*
X177976666Y-306116190D01*
X177595714Y-306116190D01*
X179119523Y-306592380D02*
X178548095Y-306592380D01*
X178833809Y-306592380D02*
X178833809Y-305592380D01*
X178738571Y-305735238D01*
X178643333Y-305830476D01*
X178548095Y-305878095D01*
X179452857Y-305592380D02*
X180119523Y-305592380D01*
X179690952Y-306592380D01*
X143162380Y-308879523D02*
X143876666Y-308879523D01*
X144019523Y-308927142D01*
X144114761Y-309022380D01*
X144162380Y-309165238D01*
X144162380Y-309260476D01*
X144162380Y-308403333D02*
X143162380Y-308403333D01*
X143162380Y-308022380D01*
X143210000Y-307927142D01*
X143257619Y-307879523D01*
X143352857Y-307831904D01*
X143495714Y-307831904D01*
X143590952Y-307879523D01*
X143638571Y-307927142D01*
X143686190Y-308022380D01*
X143686190Y-308403333D01*
X143257619Y-307450952D02*
X143210000Y-307403333D01*
X143162380Y-307308095D01*
X143162380Y-307070000D01*
X143210000Y-306974761D01*
X143257619Y-306927142D01*
X143352857Y-306879523D01*
X143448095Y-306879523D01*
X143590952Y-306927142D01*
X144162380Y-307498571D01*
X144162380Y-306879523D01*
X144162380Y-305927142D02*
X144162380Y-306498571D01*
X144162380Y-306212857D02*
X143162380Y-306212857D01*
X143305238Y-306308095D01*
X143400476Y-306403333D01*
X143448095Y-306498571D01*
X178177142Y-301472380D02*
X177843809Y-300996190D01*
X177605714Y-301472380D02*
X177605714Y-300472380D01*
X177986666Y-300472380D01*
X178081904Y-300520000D01*
X178129523Y-300567619D01*
X178177142Y-300662857D01*
X178177142Y-300805714D01*
X178129523Y-300900952D01*
X178081904Y-300948571D01*
X177986666Y-300996190D01*
X177605714Y-300996190D01*
X179129523Y-301472380D02*
X178558095Y-301472380D01*
X178843809Y-301472380D02*
X178843809Y-300472380D01*
X178748571Y-300615238D01*
X178653333Y-300710476D01*
X178558095Y-300758095D01*
X179605714Y-301472380D02*
X179796190Y-301472380D01*
X179891428Y-301424761D01*
X179939047Y-301377142D01*
X180034285Y-301234285D01*
X180081904Y-301043809D01*
X180081904Y-300662857D01*
X180034285Y-300567619D01*
X179986666Y-300520000D01*
X179891428Y-300472380D01*
X179700952Y-300472380D01*
X179605714Y-300520000D01*
X179558095Y-300567619D01*
X179510476Y-300662857D01*
X179510476Y-300900952D01*
X179558095Y-300996190D01*
X179605714Y-301043809D01*
X179700952Y-301091428D01*
X179891428Y-301091428D01*
X179986666Y-301043809D01*
X180034285Y-300996190D01*
X180081904Y-300900952D01*
X143192380Y-301299523D02*
X143906666Y-301299523D01*
X144049523Y-301347142D01*
X144144761Y-301442380D01*
X144192380Y-301585238D01*
X144192380Y-301680476D01*
X144192380Y-300823333D02*
X143192380Y-300823333D01*
X143192380Y-300442380D01*
X143240000Y-300347142D01*
X143287619Y-300299523D01*
X143382857Y-300251904D01*
X143525714Y-300251904D01*
X143620952Y-300299523D01*
X143668571Y-300347142D01*
X143716190Y-300442380D01*
X143716190Y-300823333D01*
X143287619Y-299870952D02*
X143240000Y-299823333D01*
X143192380Y-299728095D01*
X143192380Y-299490000D01*
X143240000Y-299394761D01*
X143287619Y-299347142D01*
X143382857Y-299299523D01*
X143478095Y-299299523D01*
X143620952Y-299347142D01*
X144192380Y-299918571D01*
X144192380Y-299299523D01*
X143620952Y-298728095D02*
X143573333Y-298823333D01*
X143525714Y-298870952D01*
X143430476Y-298918571D01*
X143382857Y-298918571D01*
X143287619Y-298870952D01*
X143240000Y-298823333D01*
X143192380Y-298728095D01*
X143192380Y-298537619D01*
X143240000Y-298442380D01*
X143287619Y-298394761D01*
X143382857Y-298347142D01*
X143430476Y-298347142D01*
X143525714Y-298394761D01*
X143573333Y-298442380D01*
X143620952Y-298537619D01*
X143620952Y-298728095D01*
X143668571Y-298823333D01*
X143716190Y-298870952D01*
X143811428Y-298918571D01*
X144001904Y-298918571D01*
X144097142Y-298870952D01*
X144144761Y-298823333D01*
X144192380Y-298728095D01*
X144192380Y-298537619D01*
X144144761Y-298442380D01*
X144097142Y-298394761D01*
X144001904Y-298347142D01*
X143811428Y-298347142D01*
X143716190Y-298394761D01*
X143668571Y-298442380D01*
X143620952Y-298537619D01*
X140312380Y-301309523D02*
X141026666Y-301309523D01*
X141169523Y-301357142D01*
X141264761Y-301452380D01*
X141312380Y-301595238D01*
X141312380Y-301690476D01*
X141312380Y-300833333D02*
X140312380Y-300833333D01*
X140312380Y-300452380D01*
X140360000Y-300357142D01*
X140407619Y-300309523D01*
X140502857Y-300261904D01*
X140645714Y-300261904D01*
X140740952Y-300309523D01*
X140788571Y-300357142D01*
X140836190Y-300452380D01*
X140836190Y-300833333D01*
X140407619Y-299880952D02*
X140360000Y-299833333D01*
X140312380Y-299738095D01*
X140312380Y-299500000D01*
X140360000Y-299404761D01*
X140407619Y-299357142D01*
X140502857Y-299309523D01*
X140598095Y-299309523D01*
X140740952Y-299357142D01*
X141312380Y-299928571D01*
X141312380Y-299309523D01*
X140312380Y-298452380D02*
X140312380Y-298642857D01*
X140360000Y-298738095D01*
X140407619Y-298785714D01*
X140550476Y-298880952D01*
X140740952Y-298928571D01*
X141121904Y-298928571D01*
X141217142Y-298880952D01*
X141264761Y-298833333D01*
X141312380Y-298738095D01*
X141312380Y-298547619D01*
X141264761Y-298452380D01*
X141217142Y-298404761D01*
X141121904Y-298357142D01*
X140883809Y-298357142D01*
X140788571Y-298404761D01*
X140740952Y-298452380D01*
X140693333Y-298547619D01*
X140693333Y-298738095D01*
X140740952Y-298833333D01*
X140788571Y-298880952D01*
X140883809Y-298928571D01*
X146062380Y-301299523D02*
X146776666Y-301299523D01*
X146919523Y-301347142D01*
X147014761Y-301442380D01*
X147062380Y-301585238D01*
X147062380Y-301680476D01*
X147062380Y-300823333D02*
X146062380Y-300823333D01*
X146062380Y-300442380D01*
X146110000Y-300347142D01*
X146157619Y-300299523D01*
X146252857Y-300251904D01*
X146395714Y-300251904D01*
X146490952Y-300299523D01*
X146538571Y-300347142D01*
X146586190Y-300442380D01*
X146586190Y-300823333D01*
X146157619Y-299870952D02*
X146110000Y-299823333D01*
X146062380Y-299728095D01*
X146062380Y-299490000D01*
X146110000Y-299394761D01*
X146157619Y-299347142D01*
X146252857Y-299299523D01*
X146348095Y-299299523D01*
X146490952Y-299347142D01*
X147062380Y-299918571D01*
X147062380Y-299299523D01*
X146062380Y-298394761D02*
X146062380Y-298870952D01*
X146538571Y-298918571D01*
X146490952Y-298870952D01*
X146443333Y-298775714D01*
X146443333Y-298537619D01*
X146490952Y-298442380D01*
X146538571Y-298394761D01*
X146633809Y-298347142D01*
X146871904Y-298347142D01*
X146967142Y-298394761D01*
X147014761Y-298442380D01*
X147062380Y-298537619D01*
X147062380Y-298775714D01*
X147014761Y-298870952D01*
X146967142Y-298918571D01*
M02*
