G04 #@! TF.GenerationSoftware,KiCad,Pcbnew,(5.1.2)-2*
G04 #@! TF.CreationDate,2021-08-28T01:10:26-04:00*
G04 #@! TF.ProjectId,MAG_Plus,4d41475f-506c-4757-932e-6b696361645f,rev?*
G04 #@! TF.SameCoordinates,Original*
G04 #@! TF.FileFunction,Copper,L1,Top*
G04 #@! TF.FilePolarity,Positive*
%FSLAX46Y46*%
G04 Gerber Fmt 4.6, Leading zero omitted, Abs format (unit mm)*
G04 Created by KiCad (PCBNEW (5.1.2)-2) date 2021-08-28 01:10:26*
%MOMM*%
%LPD*%
G04 APERTURE LIST*
%ADD10C,4.500000*%
%ADD11C,3.200000*%
%ADD12C,9.200000*%
%ADD13R,2.510000X1.000000*%
%ADD14R,0.800000X1.500000*%
%ADD15R,2.200000X3.100000*%
%ADD16C,0.500000*%
%ADD17C,0.100000*%
%ADD18R,1.500000X1.000000*%
%ADD19R,1.450000X0.450000*%
%ADD20R,0.400000X0.600000*%
%ADD21C,0.800000*%
%ADD22C,0.250000*%
%ADD23C,0.254000*%
G04 APERTURE END LIST*
D10*
X124830000Y-251710000D03*
X201020000Y-251680000D03*
D11*
X194230000Y-332680000D03*
X131610000Y-332680000D03*
X194230000Y-290090000D03*
X131610000Y-290090000D03*
D12*
X132420000Y-311380000D03*
X193440000Y-311410000D03*
D10*
X201030000Y-343290000D03*
X124830000Y-343280000D03*
D13*
X149795000Y-289480000D03*
X149795000Y-294560000D03*
X149795000Y-299640000D03*
X149795000Y-304720000D03*
X153105000Y-292020000D03*
X153105000Y-297100000D03*
X153105000Y-302180000D03*
X172775000Y-292060000D03*
X172775000Y-297140000D03*
X172775000Y-302220000D03*
X176085000Y-289520000D03*
X176085000Y-294600000D03*
X176085000Y-299680000D03*
X176085000Y-304760000D03*
D14*
X194035000Y-266975000D03*
X192785000Y-266975000D03*
X191535000Y-266975000D03*
X190285000Y-266975000D03*
D15*
X196535000Y-264225000D03*
X187785000Y-264225000D03*
D16*
X146610000Y-302130000D03*
D17*
G36*
X145860000Y-302680000D02*
G01*
X145860000Y-302130000D01*
X145860602Y-302130000D01*
X145860602Y-302105466D01*
X145865412Y-302056635D01*
X145874984Y-302008510D01*
X145889228Y-301961555D01*
X145908005Y-301916222D01*
X145931136Y-301872949D01*
X145958396Y-301832150D01*
X145989524Y-301794221D01*
X146024221Y-301759524D01*
X146062150Y-301728396D01*
X146102949Y-301701136D01*
X146146222Y-301678005D01*
X146191555Y-301659228D01*
X146238510Y-301644984D01*
X146286635Y-301635412D01*
X146335466Y-301630602D01*
X146360000Y-301630602D01*
X146360000Y-301630000D01*
X146860000Y-301630000D01*
X146860000Y-301630602D01*
X146884534Y-301630602D01*
X146933365Y-301635412D01*
X146981490Y-301644984D01*
X147028445Y-301659228D01*
X147073778Y-301678005D01*
X147117051Y-301701136D01*
X147157850Y-301728396D01*
X147195779Y-301759524D01*
X147230476Y-301794221D01*
X147261604Y-301832150D01*
X147288864Y-301872949D01*
X147311995Y-301916222D01*
X147330772Y-301961555D01*
X147345016Y-302008510D01*
X147354588Y-302056635D01*
X147359398Y-302105466D01*
X147359398Y-302130000D01*
X147360000Y-302130000D01*
X147360000Y-302680000D01*
X145860000Y-302680000D01*
X145860000Y-302680000D01*
G37*
D16*
X146610000Y-304730000D03*
D17*
G36*
X147359398Y-304730000D02*
G01*
X147359398Y-304754534D01*
X147354588Y-304803365D01*
X147345016Y-304851490D01*
X147330772Y-304898445D01*
X147311995Y-304943778D01*
X147288864Y-304987051D01*
X147261604Y-305027850D01*
X147230476Y-305065779D01*
X147195779Y-305100476D01*
X147157850Y-305131604D01*
X147117051Y-305158864D01*
X147073778Y-305181995D01*
X147028445Y-305200772D01*
X146981490Y-305215016D01*
X146933365Y-305224588D01*
X146884534Y-305229398D01*
X146860000Y-305229398D01*
X146860000Y-305230000D01*
X146360000Y-305230000D01*
X146360000Y-305229398D01*
X146335466Y-305229398D01*
X146286635Y-305224588D01*
X146238510Y-305215016D01*
X146191555Y-305200772D01*
X146146222Y-305181995D01*
X146102949Y-305158864D01*
X146062150Y-305131604D01*
X146024221Y-305100476D01*
X145989524Y-305065779D01*
X145958396Y-305027850D01*
X145931136Y-304987051D01*
X145908005Y-304943778D01*
X145889228Y-304898445D01*
X145874984Y-304851490D01*
X145865412Y-304803365D01*
X145860602Y-304754534D01*
X145860602Y-304730000D01*
X145860000Y-304730000D01*
X145860000Y-304180000D01*
X147360000Y-304180000D01*
X147360000Y-304730000D01*
X147359398Y-304730000D01*
X147359398Y-304730000D01*
G37*
D18*
X146610000Y-303430000D03*
D19*
X164900000Y-298165000D03*
X164900000Y-297515000D03*
X164900000Y-296865000D03*
X164900000Y-296215000D03*
X160500000Y-296215000D03*
X160500000Y-296865000D03*
X160500000Y-297515000D03*
X160500000Y-298165000D03*
D20*
X179260000Y-304790000D03*
X178360000Y-304790000D03*
D18*
X143710000Y-303410000D03*
D16*
X143710000Y-304710000D03*
D17*
G36*
X144459398Y-304710000D02*
G01*
X144459398Y-304734534D01*
X144454588Y-304783365D01*
X144445016Y-304831490D01*
X144430772Y-304878445D01*
X144411995Y-304923778D01*
X144388864Y-304967051D01*
X144361604Y-305007850D01*
X144330476Y-305045779D01*
X144295779Y-305080476D01*
X144257850Y-305111604D01*
X144217051Y-305138864D01*
X144173778Y-305161995D01*
X144128445Y-305180772D01*
X144081490Y-305195016D01*
X144033365Y-305204588D01*
X143984534Y-305209398D01*
X143960000Y-305209398D01*
X143960000Y-305210000D01*
X143460000Y-305210000D01*
X143460000Y-305209398D01*
X143435466Y-305209398D01*
X143386635Y-305204588D01*
X143338510Y-305195016D01*
X143291555Y-305180772D01*
X143246222Y-305161995D01*
X143202949Y-305138864D01*
X143162150Y-305111604D01*
X143124221Y-305080476D01*
X143089524Y-305045779D01*
X143058396Y-305007850D01*
X143031136Y-304967051D01*
X143008005Y-304923778D01*
X142989228Y-304878445D01*
X142974984Y-304831490D01*
X142965412Y-304783365D01*
X142960602Y-304734534D01*
X142960602Y-304710000D01*
X142960000Y-304710000D01*
X142960000Y-304160000D01*
X144460000Y-304160000D01*
X144460000Y-304710000D01*
X144459398Y-304710000D01*
X144459398Y-304710000D01*
G37*
D16*
X143710000Y-302110000D03*
D17*
G36*
X142960000Y-302660000D02*
G01*
X142960000Y-302110000D01*
X142960602Y-302110000D01*
X142960602Y-302085466D01*
X142965412Y-302036635D01*
X142974984Y-301988510D01*
X142989228Y-301941555D01*
X143008005Y-301896222D01*
X143031136Y-301852949D01*
X143058396Y-301812150D01*
X143089524Y-301774221D01*
X143124221Y-301739524D01*
X143162150Y-301708396D01*
X143202949Y-301681136D01*
X143246222Y-301658005D01*
X143291555Y-301639228D01*
X143338510Y-301624984D01*
X143386635Y-301615412D01*
X143435466Y-301610602D01*
X143460000Y-301610602D01*
X143460000Y-301610000D01*
X143960000Y-301610000D01*
X143960000Y-301610602D01*
X143984534Y-301610602D01*
X144033365Y-301615412D01*
X144081490Y-301624984D01*
X144128445Y-301639228D01*
X144173778Y-301658005D01*
X144217051Y-301681136D01*
X144257850Y-301708396D01*
X144295779Y-301739524D01*
X144330476Y-301774221D01*
X144361604Y-301812150D01*
X144388864Y-301852949D01*
X144411995Y-301896222D01*
X144430772Y-301941555D01*
X144445016Y-301988510D01*
X144454588Y-302036635D01*
X144459398Y-302085466D01*
X144459398Y-302110000D01*
X144460000Y-302110000D01*
X144460000Y-302660000D01*
X142960000Y-302660000D01*
X142960000Y-302660000D01*
G37*
D20*
X178370000Y-299670000D03*
X179270000Y-299670000D03*
D16*
X143750000Y-294530000D03*
D17*
G36*
X143000000Y-295080000D02*
G01*
X143000000Y-294530000D01*
X143000602Y-294530000D01*
X143000602Y-294505466D01*
X143005412Y-294456635D01*
X143014984Y-294408510D01*
X143029228Y-294361555D01*
X143048005Y-294316222D01*
X143071136Y-294272949D01*
X143098396Y-294232150D01*
X143129524Y-294194221D01*
X143164221Y-294159524D01*
X143202150Y-294128396D01*
X143242949Y-294101136D01*
X143286222Y-294078005D01*
X143331555Y-294059228D01*
X143378510Y-294044984D01*
X143426635Y-294035412D01*
X143475466Y-294030602D01*
X143500000Y-294030602D01*
X143500000Y-294030000D01*
X144000000Y-294030000D01*
X144000000Y-294030602D01*
X144024534Y-294030602D01*
X144073365Y-294035412D01*
X144121490Y-294044984D01*
X144168445Y-294059228D01*
X144213778Y-294078005D01*
X144257051Y-294101136D01*
X144297850Y-294128396D01*
X144335779Y-294159524D01*
X144370476Y-294194221D01*
X144401604Y-294232150D01*
X144428864Y-294272949D01*
X144451995Y-294316222D01*
X144470772Y-294361555D01*
X144485016Y-294408510D01*
X144494588Y-294456635D01*
X144499398Y-294505466D01*
X144499398Y-294530000D01*
X144500000Y-294530000D01*
X144500000Y-295080000D01*
X143000000Y-295080000D01*
X143000000Y-295080000D01*
G37*
D16*
X143750000Y-297130000D03*
D17*
G36*
X144499398Y-297130000D02*
G01*
X144499398Y-297154534D01*
X144494588Y-297203365D01*
X144485016Y-297251490D01*
X144470772Y-297298445D01*
X144451995Y-297343778D01*
X144428864Y-297387051D01*
X144401604Y-297427850D01*
X144370476Y-297465779D01*
X144335779Y-297500476D01*
X144297850Y-297531604D01*
X144257051Y-297558864D01*
X144213778Y-297581995D01*
X144168445Y-297600772D01*
X144121490Y-297615016D01*
X144073365Y-297624588D01*
X144024534Y-297629398D01*
X144000000Y-297629398D01*
X144000000Y-297630000D01*
X143500000Y-297630000D01*
X143500000Y-297629398D01*
X143475466Y-297629398D01*
X143426635Y-297624588D01*
X143378510Y-297615016D01*
X143331555Y-297600772D01*
X143286222Y-297581995D01*
X143242949Y-297558864D01*
X143202150Y-297531604D01*
X143164221Y-297500476D01*
X143129524Y-297465779D01*
X143098396Y-297427850D01*
X143071136Y-297387051D01*
X143048005Y-297343778D01*
X143029228Y-297298445D01*
X143014984Y-297251490D01*
X143005412Y-297203365D01*
X143000602Y-297154534D01*
X143000602Y-297130000D01*
X143000000Y-297130000D01*
X143000000Y-296580000D01*
X144500000Y-296580000D01*
X144500000Y-297130000D01*
X144499398Y-297130000D01*
X144499398Y-297130000D01*
G37*
D18*
X143750000Y-295830000D03*
X140870000Y-295870000D03*
D16*
X140870000Y-297170000D03*
D17*
G36*
X141619398Y-297170000D02*
G01*
X141619398Y-297194534D01*
X141614588Y-297243365D01*
X141605016Y-297291490D01*
X141590772Y-297338445D01*
X141571995Y-297383778D01*
X141548864Y-297427051D01*
X141521604Y-297467850D01*
X141490476Y-297505779D01*
X141455779Y-297540476D01*
X141417850Y-297571604D01*
X141377051Y-297598864D01*
X141333778Y-297621995D01*
X141288445Y-297640772D01*
X141241490Y-297655016D01*
X141193365Y-297664588D01*
X141144534Y-297669398D01*
X141120000Y-297669398D01*
X141120000Y-297670000D01*
X140620000Y-297670000D01*
X140620000Y-297669398D01*
X140595466Y-297669398D01*
X140546635Y-297664588D01*
X140498510Y-297655016D01*
X140451555Y-297640772D01*
X140406222Y-297621995D01*
X140362949Y-297598864D01*
X140322150Y-297571604D01*
X140284221Y-297540476D01*
X140249524Y-297505779D01*
X140218396Y-297467850D01*
X140191136Y-297427051D01*
X140168005Y-297383778D01*
X140149228Y-297338445D01*
X140134984Y-297291490D01*
X140125412Y-297243365D01*
X140120602Y-297194534D01*
X140120602Y-297170000D01*
X140120000Y-297170000D01*
X140120000Y-296620000D01*
X141620000Y-296620000D01*
X141620000Y-297170000D01*
X141619398Y-297170000D01*
X141619398Y-297170000D01*
G37*
D16*
X140870000Y-294570000D03*
D17*
G36*
X140120000Y-295120000D02*
G01*
X140120000Y-294570000D01*
X140120602Y-294570000D01*
X140120602Y-294545466D01*
X140125412Y-294496635D01*
X140134984Y-294448510D01*
X140149228Y-294401555D01*
X140168005Y-294356222D01*
X140191136Y-294312949D01*
X140218396Y-294272150D01*
X140249524Y-294234221D01*
X140284221Y-294199524D01*
X140322150Y-294168396D01*
X140362949Y-294141136D01*
X140406222Y-294118005D01*
X140451555Y-294099228D01*
X140498510Y-294084984D01*
X140546635Y-294075412D01*
X140595466Y-294070602D01*
X140620000Y-294070602D01*
X140620000Y-294070000D01*
X141120000Y-294070000D01*
X141120000Y-294070602D01*
X141144534Y-294070602D01*
X141193365Y-294075412D01*
X141241490Y-294084984D01*
X141288445Y-294099228D01*
X141333778Y-294118005D01*
X141377051Y-294141136D01*
X141417850Y-294168396D01*
X141455779Y-294199524D01*
X141490476Y-294234221D01*
X141521604Y-294272150D01*
X141548864Y-294312949D01*
X141571995Y-294356222D01*
X141590772Y-294401555D01*
X141605016Y-294448510D01*
X141614588Y-294496635D01*
X141619398Y-294545466D01*
X141619398Y-294570000D01*
X141620000Y-294570000D01*
X141620000Y-295120000D01*
X140120000Y-295120000D01*
X140120000Y-295120000D01*
G37*
D16*
X146620000Y-294550000D03*
D17*
G36*
X145870000Y-295100000D02*
G01*
X145870000Y-294550000D01*
X145870602Y-294550000D01*
X145870602Y-294525466D01*
X145875412Y-294476635D01*
X145884984Y-294428510D01*
X145899228Y-294381555D01*
X145918005Y-294336222D01*
X145941136Y-294292949D01*
X145968396Y-294252150D01*
X145999524Y-294214221D01*
X146034221Y-294179524D01*
X146072150Y-294148396D01*
X146112949Y-294121136D01*
X146156222Y-294098005D01*
X146201555Y-294079228D01*
X146248510Y-294064984D01*
X146296635Y-294055412D01*
X146345466Y-294050602D01*
X146370000Y-294050602D01*
X146370000Y-294050000D01*
X146870000Y-294050000D01*
X146870000Y-294050602D01*
X146894534Y-294050602D01*
X146943365Y-294055412D01*
X146991490Y-294064984D01*
X147038445Y-294079228D01*
X147083778Y-294098005D01*
X147127051Y-294121136D01*
X147167850Y-294148396D01*
X147205779Y-294179524D01*
X147240476Y-294214221D01*
X147271604Y-294252150D01*
X147298864Y-294292949D01*
X147321995Y-294336222D01*
X147340772Y-294381555D01*
X147355016Y-294428510D01*
X147364588Y-294476635D01*
X147369398Y-294525466D01*
X147369398Y-294550000D01*
X147370000Y-294550000D01*
X147370000Y-295100000D01*
X145870000Y-295100000D01*
X145870000Y-295100000D01*
G37*
D16*
X146620000Y-297150000D03*
D17*
G36*
X147369398Y-297150000D02*
G01*
X147369398Y-297174534D01*
X147364588Y-297223365D01*
X147355016Y-297271490D01*
X147340772Y-297318445D01*
X147321995Y-297363778D01*
X147298864Y-297407051D01*
X147271604Y-297447850D01*
X147240476Y-297485779D01*
X147205779Y-297520476D01*
X147167850Y-297551604D01*
X147127051Y-297578864D01*
X147083778Y-297601995D01*
X147038445Y-297620772D01*
X146991490Y-297635016D01*
X146943365Y-297644588D01*
X146894534Y-297649398D01*
X146870000Y-297649398D01*
X146870000Y-297650000D01*
X146370000Y-297650000D01*
X146370000Y-297649398D01*
X146345466Y-297649398D01*
X146296635Y-297644588D01*
X146248510Y-297635016D01*
X146201555Y-297620772D01*
X146156222Y-297601995D01*
X146112949Y-297578864D01*
X146072150Y-297551604D01*
X146034221Y-297520476D01*
X145999524Y-297485779D01*
X145968396Y-297447850D01*
X145941136Y-297407051D01*
X145918005Y-297363778D01*
X145899228Y-297318445D01*
X145884984Y-297271490D01*
X145875412Y-297223365D01*
X145870602Y-297174534D01*
X145870602Y-297150000D01*
X145870000Y-297150000D01*
X145870000Y-296600000D01*
X147370000Y-296600000D01*
X147370000Y-297150000D01*
X147369398Y-297150000D01*
X147369398Y-297150000D01*
G37*
D18*
X146620000Y-295850000D03*
D21*
X183110000Y-298940000D03*
X177640000Y-302210000D03*
X178310000Y-297800000D03*
X184080000Y-295940000D03*
X144220000Y-299500000D03*
X141320000Y-299540000D03*
X148700000Y-306960000D03*
X154440000Y-304790000D03*
X143450000Y-306700000D03*
X138510000Y-299370000D03*
X152220000Y-293980000D03*
X144950000Y-292560000D03*
D22*
X178360000Y-304790000D02*
X176115000Y-304790000D01*
X176115000Y-304790000D02*
X176085000Y-304760000D01*
X176085000Y-304010000D02*
X176085000Y-304760000D01*
X174504999Y-302429999D02*
X176085000Y-304010000D01*
X163925000Y-297515000D02*
X163290000Y-298150000D01*
X163290000Y-299060000D02*
X163920000Y-299690000D01*
X163920000Y-299690000D02*
X166390000Y-299690000D01*
X164900000Y-297515000D02*
X163925000Y-297515000D01*
X174504999Y-296529997D02*
X174504999Y-302429999D01*
X173885002Y-295910000D02*
X174504999Y-296529997D01*
X170170000Y-295910000D02*
X173885002Y-295910000D01*
X163290000Y-298150000D02*
X163290000Y-299060000D01*
X166390000Y-299690000D02*
X170170000Y-295910000D01*
X191535000Y-267975000D02*
X191540000Y-267980000D01*
X191535000Y-266975000D02*
X191535000Y-267975000D01*
X191540000Y-267980000D02*
X191540000Y-268650000D01*
X191540000Y-268650000D02*
X183110000Y-277080000D01*
X183110000Y-277080000D02*
X183110000Y-298940000D01*
X176760000Y-304085000D02*
X176085000Y-304760000D01*
X177640000Y-302210000D02*
X176760000Y-303090000D01*
X176760000Y-303090000D02*
X176760000Y-304085000D01*
X176095000Y-299670000D02*
X176085000Y-299680000D01*
X178370000Y-299670000D02*
X176095000Y-299670000D01*
X174071402Y-295459989D02*
X169530011Y-295459989D01*
X176085000Y-299680000D02*
X176085000Y-297473587D01*
X166825000Y-298165000D02*
X165875000Y-298165000D01*
X176085000Y-297473587D02*
X174071402Y-295459989D01*
X165875000Y-298165000D02*
X164900000Y-298165000D01*
X169530011Y-295459989D02*
X166825000Y-298165000D01*
X176430000Y-299680000D02*
X176085000Y-299680000D01*
X178310000Y-297800000D02*
X176430000Y-299680000D01*
X184080000Y-277740000D02*
X184080000Y-295940000D01*
X192790000Y-269030000D02*
X184080000Y-277740000D01*
X192790000Y-267980000D02*
X192790000Y-269030000D01*
X192785000Y-266975000D02*
X192785000Y-267975000D01*
X192785000Y-267975000D02*
X192790000Y-267980000D01*
X146620000Y-297150000D02*
X144270000Y-299500000D01*
X144270000Y-299500000D02*
X144220000Y-299500000D01*
X140870000Y-299090000D02*
X140870000Y-297170000D01*
X141320000Y-299540000D02*
X140870000Y-299090000D01*
X143710000Y-304710000D02*
X145960000Y-306960000D01*
X145960000Y-306960000D02*
X148700000Y-306960000D01*
X149865000Y-304790000D02*
X149795000Y-304720000D01*
X154440000Y-304790000D02*
X149865000Y-304790000D01*
X143710000Y-304710000D02*
X143710000Y-306440000D01*
X143710000Y-306440000D02*
X143450000Y-306700000D01*
X140710000Y-297170000D02*
X140870000Y-297170000D01*
X138510000Y-299370000D02*
X140710000Y-297170000D01*
X146590000Y-302110000D02*
X146610000Y-302130000D01*
X143710000Y-302110000D02*
X146590000Y-302110000D01*
X153105000Y-302180000D02*
X153105000Y-301430000D01*
X151300000Y-299640000D02*
X149795000Y-299640000D01*
X151315000Y-299640000D02*
X151300000Y-299640000D01*
X153105000Y-301430000D02*
X151315000Y-299640000D01*
X146620000Y-294550000D02*
X149785000Y-294550000D01*
X149785000Y-294550000D02*
X149795000Y-294560000D01*
X153055000Y-302130000D02*
X153105000Y-302180000D01*
X146610000Y-302130000D02*
X153055000Y-302130000D01*
X143750000Y-294530000D02*
X143750000Y-293760000D01*
X143710000Y-294570000D02*
X143750000Y-294530000D01*
X140870000Y-294570000D02*
X143710000Y-294570000D01*
X143750000Y-293760000D02*
X144950000Y-292560000D01*
X149795000Y-294560000D02*
X151640000Y-294560000D01*
X151640000Y-294560000D02*
X151820001Y-294379999D01*
X151820001Y-294379999D02*
X152220000Y-293980000D01*
X157875000Y-298165000D02*
X160500000Y-298165000D01*
X153105000Y-302180000D02*
X153860000Y-302180000D01*
X153860000Y-302180000D02*
X157875000Y-298165000D01*
X179270000Y-299670000D02*
X179270000Y-304780000D01*
X179270000Y-304780000D02*
X179260000Y-304790000D01*
X143310000Y-308150000D02*
X141840000Y-306680000D01*
X141840000Y-303132408D02*
X142862408Y-302110000D01*
X141840000Y-306680000D02*
X141840000Y-303132408D01*
X176450000Y-308150000D02*
X143310000Y-308150000D01*
X179260000Y-304790000D02*
X179260000Y-305340000D01*
X142862408Y-302110000D02*
X143710000Y-302110000D01*
X179260000Y-305340000D02*
X176450000Y-308150000D01*
X142300000Y-300700000D02*
X143710000Y-302110000D01*
X143750000Y-294530000D02*
X142902408Y-294530000D01*
X142902408Y-294530000D02*
X142300000Y-295132408D01*
X142300000Y-295132408D02*
X142300000Y-300700000D01*
X190285000Y-267975000D02*
X181930000Y-276330000D01*
X190285000Y-266975000D02*
X190285000Y-267975000D01*
X181930000Y-276330000D02*
X181930000Y-298220000D01*
X179720000Y-299670000D02*
X179270000Y-299670000D01*
X180480000Y-299670000D02*
X179720000Y-299670000D01*
X181930000Y-298220000D02*
X180480000Y-299670000D01*
X145720000Y-305850000D02*
X165980000Y-305850000D01*
X144169636Y-303410000D02*
X145080000Y-304320364D01*
X145080000Y-304320364D02*
X145080000Y-305210000D01*
X165980000Y-305850000D02*
X169610000Y-302220000D01*
X145080000Y-305210000D02*
X145720000Y-305850000D01*
X169610000Y-302220000D02*
X172775000Y-302220000D01*
X143710000Y-303410000D02*
X144169636Y-303410000D01*
X169880000Y-297140000D02*
X172775000Y-297140000D01*
X146610000Y-303430000D02*
X163590000Y-303430000D01*
X163590000Y-303430000D02*
X169880000Y-297140000D01*
X156310000Y-295890000D02*
X157935000Y-297515000D01*
X146620000Y-295850000D02*
X146620000Y-296000000D01*
X157935000Y-297515000D02*
X160500000Y-297515000D01*
X146730000Y-295890000D02*
X156310000Y-295890000D01*
X146620000Y-296000000D02*
X146730000Y-295890000D01*
X141600000Y-290820000D02*
X154130000Y-290820000D01*
X154130000Y-290820000D02*
X159525000Y-296215000D01*
X159525000Y-296215000D02*
X160500000Y-296215000D01*
X138860000Y-294860000D02*
X138860000Y-293560000D01*
X139870000Y-295870000D02*
X138860000Y-294860000D01*
X140870000Y-295870000D02*
X139870000Y-295870000D01*
X138860000Y-293560000D02*
X141600000Y-290820000D01*
X158565000Y-296865000D02*
X159525000Y-296865000D01*
X145160000Y-295420000D02*
X145160000Y-293840000D01*
X159525000Y-296865000D02*
X160500000Y-296865000D01*
X144750000Y-295830000D02*
X145160000Y-295420000D01*
X145760000Y-293240000D02*
X154940000Y-293240000D01*
X154940000Y-293240000D02*
X158565000Y-296865000D01*
X145160000Y-293840000D02*
X145760000Y-293240000D01*
X143750000Y-295830000D02*
X144750000Y-295830000D01*
D23*
G36*
X199636252Y-249134831D02*
G01*
X199180920Y-249439074D01*
X198779074Y-249840920D01*
X198463346Y-250313440D01*
X198245869Y-250838477D01*
X198135000Y-251395852D01*
X198135000Y-251964148D01*
X198245869Y-252521523D01*
X198463346Y-253046560D01*
X198779074Y-253519080D01*
X199180920Y-253920926D01*
X199653440Y-254236654D01*
X200178477Y-254454131D01*
X200735852Y-254565000D01*
X201304148Y-254565000D01*
X201861523Y-254454131D01*
X202386560Y-254236654D01*
X202859080Y-253920926D01*
X203260926Y-253519080D01*
X203560001Y-253071483D01*
X203560000Y-341883550D01*
X203270926Y-341450920D01*
X202869080Y-341049074D01*
X202396560Y-340733346D01*
X201871523Y-340515869D01*
X201314148Y-340405000D01*
X200745852Y-340405000D01*
X200188477Y-340515869D01*
X199663440Y-340733346D01*
X199190920Y-341049074D01*
X198789074Y-341450920D01*
X198473346Y-341923440D01*
X198255869Y-342448477D01*
X198145000Y-343005852D01*
X198145000Y-343574148D01*
X198255869Y-344131523D01*
X198473346Y-344656560D01*
X198789074Y-345129080D01*
X199190920Y-345530926D01*
X199473889Y-345720000D01*
X126371145Y-345720000D01*
X126669080Y-345520926D01*
X127070926Y-345119080D01*
X127386654Y-344646560D01*
X127604131Y-344121523D01*
X127715000Y-343564148D01*
X127715000Y-342995852D01*
X127604131Y-342438477D01*
X127386654Y-341913440D01*
X127070926Y-341440920D01*
X126669080Y-341039074D01*
X126196560Y-340723346D01*
X125671523Y-340505869D01*
X125114148Y-340395000D01*
X124545852Y-340395000D01*
X123988477Y-340505869D01*
X123463440Y-340723346D01*
X122990920Y-341039074D01*
X122589074Y-341440920D01*
X122280000Y-341903482D01*
X122280000Y-332459872D01*
X129375000Y-332459872D01*
X129375000Y-332900128D01*
X129460890Y-333331925D01*
X129629369Y-333738669D01*
X129873962Y-334104729D01*
X130185271Y-334416038D01*
X130551331Y-334660631D01*
X130958075Y-334829110D01*
X131389872Y-334915000D01*
X131830128Y-334915000D01*
X132261925Y-334829110D01*
X132668669Y-334660631D01*
X133034729Y-334416038D01*
X133346038Y-334104729D01*
X133590631Y-333738669D01*
X133759110Y-333331925D01*
X133845000Y-332900128D01*
X133845000Y-332459872D01*
X191995000Y-332459872D01*
X191995000Y-332900128D01*
X192080890Y-333331925D01*
X192249369Y-333738669D01*
X192493962Y-334104729D01*
X192805271Y-334416038D01*
X193171331Y-334660631D01*
X193578075Y-334829110D01*
X194009872Y-334915000D01*
X194450128Y-334915000D01*
X194881925Y-334829110D01*
X195288669Y-334660631D01*
X195654729Y-334416038D01*
X195966038Y-334104729D01*
X196210631Y-333738669D01*
X196379110Y-333331925D01*
X196465000Y-332900128D01*
X196465000Y-332459872D01*
X196379110Y-332028075D01*
X196210631Y-331621331D01*
X195966038Y-331255271D01*
X195654729Y-330943962D01*
X195288669Y-330699369D01*
X194881925Y-330530890D01*
X194450128Y-330445000D01*
X194009872Y-330445000D01*
X193578075Y-330530890D01*
X193171331Y-330699369D01*
X192805271Y-330943962D01*
X192493962Y-331255271D01*
X192249369Y-331621331D01*
X192080890Y-332028075D01*
X191995000Y-332459872D01*
X133845000Y-332459872D01*
X133759110Y-332028075D01*
X133590631Y-331621331D01*
X133346038Y-331255271D01*
X133034729Y-330943962D01*
X132668669Y-330699369D01*
X132261925Y-330530890D01*
X131830128Y-330445000D01*
X131389872Y-330445000D01*
X130958075Y-330530890D01*
X130551331Y-330699369D01*
X130185271Y-330943962D01*
X129873962Y-331255271D01*
X129629369Y-331621331D01*
X129460890Y-332028075D01*
X129375000Y-332459872D01*
X122280000Y-332459872D01*
X122280000Y-310864397D01*
X127185000Y-310864397D01*
X127185000Y-311895603D01*
X127386178Y-312906993D01*
X127780803Y-313859702D01*
X128353710Y-314717118D01*
X129082882Y-315446290D01*
X129940298Y-316019197D01*
X130893007Y-316413822D01*
X131904397Y-316615000D01*
X132935603Y-316615000D01*
X133946993Y-316413822D01*
X134899702Y-316019197D01*
X135757118Y-315446290D01*
X136486290Y-314717118D01*
X137059197Y-313859702D01*
X137453822Y-312906993D01*
X137655000Y-311895603D01*
X137655000Y-310894397D01*
X188205000Y-310894397D01*
X188205000Y-311925603D01*
X188406178Y-312936993D01*
X188800803Y-313889702D01*
X189373710Y-314747118D01*
X190102882Y-315476290D01*
X190960298Y-316049197D01*
X191913007Y-316443822D01*
X192924397Y-316645000D01*
X193955603Y-316645000D01*
X194966993Y-316443822D01*
X195919702Y-316049197D01*
X196777118Y-315476290D01*
X197506290Y-314747118D01*
X198079197Y-313889702D01*
X198473822Y-312936993D01*
X198675000Y-311925603D01*
X198675000Y-310894397D01*
X198473822Y-309883007D01*
X198079197Y-308930298D01*
X197506290Y-308072882D01*
X196777118Y-307343710D01*
X195919702Y-306770803D01*
X194966993Y-306376178D01*
X193955603Y-306175000D01*
X192924397Y-306175000D01*
X191913007Y-306376178D01*
X190960298Y-306770803D01*
X190102882Y-307343710D01*
X189373710Y-308072882D01*
X188800803Y-308930298D01*
X188406178Y-309883007D01*
X188205000Y-310894397D01*
X137655000Y-310894397D01*
X137655000Y-310864397D01*
X137453822Y-309853007D01*
X137059197Y-308900298D01*
X136486290Y-308042882D01*
X135757118Y-307313710D01*
X134899702Y-306740803D01*
X133946993Y-306346178D01*
X132935603Y-306145000D01*
X131904397Y-306145000D01*
X130893007Y-306346178D01*
X129940298Y-306740803D01*
X129082882Y-307313710D01*
X128353710Y-308042882D01*
X127780803Y-308900298D01*
X127386178Y-309853007D01*
X127185000Y-310864397D01*
X122280000Y-310864397D01*
X122280000Y-293560000D01*
X138096324Y-293560000D01*
X138100001Y-293597332D01*
X138100000Y-294822677D01*
X138096324Y-294860000D01*
X138100000Y-294897322D01*
X138100000Y-294897332D01*
X138110997Y-295008985D01*
X138144975Y-295120997D01*
X138154454Y-295152246D01*
X138225026Y-295284276D01*
X138253522Y-295318998D01*
X138319999Y-295400001D01*
X138349002Y-295423804D01*
X139306201Y-296381003D01*
X139329999Y-296410001D01*
X139445724Y-296504974D01*
X139507366Y-296537923D01*
X139530498Y-296614180D01*
X139589463Y-296724494D01*
X139668815Y-296821185D01*
X139765506Y-296900537D01*
X139875820Y-296959502D01*
X139995518Y-296995812D01*
X140120000Y-297008072D01*
X141540000Y-297008072D01*
X141540001Y-300662668D01*
X141536324Y-300700000D01*
X141540001Y-300737333D01*
X141544014Y-300778072D01*
X141550998Y-300848985D01*
X141594454Y-300992246D01*
X141665026Y-301124276D01*
X141721393Y-301192958D01*
X141760000Y-301240001D01*
X141788998Y-301263799D01*
X142211402Y-301686204D01*
X141328998Y-302568609D01*
X141300000Y-302592407D01*
X141276202Y-302621405D01*
X141276201Y-302621406D01*
X141205026Y-302708132D01*
X141134454Y-302840162D01*
X141107203Y-302930000D01*
X141090998Y-302983422D01*
X141087938Y-303014494D01*
X141076324Y-303132408D01*
X141080001Y-303169740D01*
X141080000Y-306642677D01*
X141076324Y-306680000D01*
X141080000Y-306717322D01*
X141080000Y-306717332D01*
X141090997Y-306828985D01*
X141134454Y-306972246D01*
X141205026Y-307104276D01*
X141244871Y-307152826D01*
X141299999Y-307220001D01*
X141329003Y-307243804D01*
X142746201Y-308661003D01*
X142769999Y-308690001D01*
X142798997Y-308713799D01*
X142885723Y-308784974D01*
X143017753Y-308855546D01*
X143161014Y-308899003D01*
X143272667Y-308910000D01*
X143272677Y-308910000D01*
X143310000Y-308913676D01*
X143347323Y-308910000D01*
X176412678Y-308910000D01*
X176450000Y-308913676D01*
X176487322Y-308910000D01*
X176487333Y-308910000D01*
X176598986Y-308899003D01*
X176742247Y-308855546D01*
X176874276Y-308784974D01*
X176990001Y-308690001D01*
X177013804Y-308660997D01*
X179771003Y-305903799D01*
X179800001Y-305880001D01*
X179857858Y-305809502D01*
X179894974Y-305764277D01*
X179965546Y-305632247D01*
X179983065Y-305574494D01*
X180009003Y-305488986D01*
X180018546Y-305392093D01*
X180049502Y-305334180D01*
X180085812Y-305214482D01*
X180098072Y-305090000D01*
X180098072Y-304490000D01*
X180085812Y-304365518D01*
X180049502Y-304245820D01*
X180030000Y-304209335D01*
X180030000Y-300430000D01*
X180442678Y-300430000D01*
X180480000Y-300433676D01*
X180517322Y-300430000D01*
X180517333Y-300430000D01*
X180628986Y-300419003D01*
X180772247Y-300375546D01*
X180904276Y-300304974D01*
X181020001Y-300210001D01*
X181043804Y-300180997D01*
X182092895Y-299131906D01*
X182114774Y-299241898D01*
X182192795Y-299430256D01*
X182306063Y-299599774D01*
X182450226Y-299743937D01*
X182619744Y-299857205D01*
X182808102Y-299935226D01*
X183008061Y-299975000D01*
X183211939Y-299975000D01*
X183411898Y-299935226D01*
X183600256Y-299857205D01*
X183769774Y-299743937D01*
X183913937Y-299599774D01*
X184027205Y-299430256D01*
X184105226Y-299241898D01*
X184145000Y-299041939D01*
X184145000Y-298838061D01*
X184105226Y-298638102D01*
X184027205Y-298449744D01*
X183913937Y-298280226D01*
X183870000Y-298236289D01*
X183870000Y-296953506D01*
X183978061Y-296975000D01*
X184181939Y-296975000D01*
X184381898Y-296935226D01*
X184570256Y-296857205D01*
X184739774Y-296743937D01*
X184883937Y-296599774D01*
X184997205Y-296430256D01*
X185075226Y-296241898D01*
X185115000Y-296041939D01*
X185115000Y-295838061D01*
X185075226Y-295638102D01*
X184997205Y-295449744D01*
X184883937Y-295280226D01*
X184840000Y-295236289D01*
X184840000Y-289869872D01*
X191995000Y-289869872D01*
X191995000Y-290310128D01*
X192080890Y-290741925D01*
X192249369Y-291148669D01*
X192493962Y-291514729D01*
X192805271Y-291826038D01*
X193171331Y-292070631D01*
X193578075Y-292239110D01*
X194009872Y-292325000D01*
X194450128Y-292325000D01*
X194881925Y-292239110D01*
X195288669Y-292070631D01*
X195654729Y-291826038D01*
X195966038Y-291514729D01*
X196210631Y-291148669D01*
X196379110Y-290741925D01*
X196465000Y-290310128D01*
X196465000Y-289869872D01*
X196379110Y-289438075D01*
X196210631Y-289031331D01*
X195966038Y-288665271D01*
X195654729Y-288353962D01*
X195288669Y-288109369D01*
X194881925Y-287940890D01*
X194450128Y-287855000D01*
X194009872Y-287855000D01*
X193578075Y-287940890D01*
X193171331Y-288109369D01*
X192805271Y-288353962D01*
X192493962Y-288665271D01*
X192249369Y-289031331D01*
X192080890Y-289438075D01*
X191995000Y-289869872D01*
X184840000Y-289869872D01*
X184840000Y-278054801D01*
X193301003Y-269593799D01*
X193330001Y-269570001D01*
X193356332Y-269537917D01*
X193424974Y-269454277D01*
X193495546Y-269322247D01*
X193506852Y-269284974D01*
X193539003Y-269178986D01*
X193550000Y-269067333D01*
X193550000Y-269067324D01*
X193553676Y-269030001D01*
X193550000Y-268992678D01*
X193550000Y-268354701D01*
X193635000Y-268363072D01*
X193749250Y-268360000D01*
X193908000Y-268201250D01*
X193908000Y-267102000D01*
X194162000Y-267102000D01*
X194162000Y-268201250D01*
X194320750Y-268360000D01*
X194435000Y-268363072D01*
X194559482Y-268350812D01*
X194679180Y-268314502D01*
X194789494Y-268255537D01*
X194886185Y-268176185D01*
X194965537Y-268079494D01*
X195024502Y-267969180D01*
X195060812Y-267849482D01*
X195073072Y-267725000D01*
X195070000Y-267260750D01*
X194911250Y-267102000D01*
X194162000Y-267102000D01*
X193908000Y-267102000D01*
X193888000Y-267102000D01*
X193888000Y-266848000D01*
X193908000Y-266848000D01*
X193908000Y-265748750D01*
X194162000Y-265748750D01*
X194162000Y-266848000D01*
X194911250Y-266848000D01*
X195070000Y-266689250D01*
X195072582Y-266299034D01*
X195080506Y-266305537D01*
X195190820Y-266364502D01*
X195310518Y-266400812D01*
X195435000Y-266413072D01*
X197635000Y-266413072D01*
X197759482Y-266400812D01*
X197879180Y-266364502D01*
X197989494Y-266305537D01*
X198086185Y-266226185D01*
X198165537Y-266129494D01*
X198224502Y-266019180D01*
X198260812Y-265899482D01*
X198273072Y-265775000D01*
X198273072Y-262675000D01*
X198260812Y-262550518D01*
X198224502Y-262430820D01*
X198165537Y-262320506D01*
X198086185Y-262223815D01*
X197989494Y-262144463D01*
X197879180Y-262085498D01*
X197759482Y-262049188D01*
X197635000Y-262036928D01*
X195435000Y-262036928D01*
X195310518Y-262049188D01*
X195190820Y-262085498D01*
X195080506Y-262144463D01*
X194983815Y-262223815D01*
X194904463Y-262320506D01*
X194845498Y-262430820D01*
X194809188Y-262550518D01*
X194796928Y-262675000D01*
X194796928Y-265700564D01*
X194789494Y-265694463D01*
X194679180Y-265635498D01*
X194559482Y-265599188D01*
X194435000Y-265586928D01*
X194320750Y-265590000D01*
X194162000Y-265748750D01*
X193908000Y-265748750D01*
X193749250Y-265590000D01*
X193635000Y-265586928D01*
X193510518Y-265599188D01*
X193410000Y-265629680D01*
X193309482Y-265599188D01*
X193185000Y-265586928D01*
X192385000Y-265586928D01*
X192260518Y-265599188D01*
X192160000Y-265629680D01*
X192059482Y-265599188D01*
X191935000Y-265586928D01*
X191135000Y-265586928D01*
X191010518Y-265599188D01*
X190910000Y-265629680D01*
X190809482Y-265599188D01*
X190685000Y-265586928D01*
X189885000Y-265586928D01*
X189760518Y-265599188D01*
X189640820Y-265635498D01*
X189530506Y-265694463D01*
X189523072Y-265700564D01*
X189523072Y-262675000D01*
X189510812Y-262550518D01*
X189474502Y-262430820D01*
X189415537Y-262320506D01*
X189336185Y-262223815D01*
X189239494Y-262144463D01*
X189129180Y-262085498D01*
X189009482Y-262049188D01*
X188885000Y-262036928D01*
X186685000Y-262036928D01*
X186560518Y-262049188D01*
X186440820Y-262085498D01*
X186330506Y-262144463D01*
X186233815Y-262223815D01*
X186154463Y-262320506D01*
X186095498Y-262430820D01*
X186059188Y-262550518D01*
X186046928Y-262675000D01*
X186046928Y-265775000D01*
X186059188Y-265899482D01*
X186095498Y-266019180D01*
X186154463Y-266129494D01*
X186233815Y-266226185D01*
X186330506Y-266305537D01*
X186440820Y-266364502D01*
X186560518Y-266400812D01*
X186685000Y-266413072D01*
X188885000Y-266413072D01*
X189009482Y-266400812D01*
X189129180Y-266364502D01*
X189239494Y-266305537D01*
X189246928Y-266299436D01*
X189246928Y-267725000D01*
X189259188Y-267849482D01*
X189276999Y-267908199D01*
X181419003Y-275766196D01*
X181389999Y-275789999D01*
X181334871Y-275857174D01*
X181295026Y-275905724D01*
X181224455Y-276037753D01*
X181224454Y-276037754D01*
X181180997Y-276181015D01*
X181170000Y-276292668D01*
X181170000Y-276292678D01*
X181166324Y-276330000D01*
X181170000Y-276367322D01*
X181170001Y-297905197D01*
X180165199Y-298910000D01*
X179910444Y-298910000D01*
X179824494Y-298839463D01*
X179714180Y-298780498D01*
X179594482Y-298744188D01*
X179470000Y-298731928D01*
X179070000Y-298731928D01*
X178945518Y-298744188D01*
X178825820Y-298780498D01*
X178820000Y-298783609D01*
X178814180Y-298780498D01*
X178717937Y-298751303D01*
X178800256Y-298717205D01*
X178969774Y-298603937D01*
X179113937Y-298459774D01*
X179227205Y-298290256D01*
X179305226Y-298101898D01*
X179345000Y-297901939D01*
X179345000Y-297698061D01*
X179305226Y-297498102D01*
X179227205Y-297309744D01*
X179113937Y-297140226D01*
X178969774Y-296996063D01*
X178800256Y-296882795D01*
X178611898Y-296804774D01*
X178411939Y-296765000D01*
X178208061Y-296765000D01*
X178008102Y-296804774D01*
X177819744Y-296882795D01*
X177650226Y-296996063D01*
X177506063Y-297140226D01*
X177392795Y-297309744D01*
X177314774Y-297498102D01*
X177275000Y-297698061D01*
X177275000Y-297760198D01*
X176845000Y-298190198D01*
X176845000Y-297510920D01*
X176848677Y-297473587D01*
X176834003Y-297324601D01*
X176790546Y-297181340D01*
X176719974Y-297049311D01*
X176648799Y-296962584D01*
X176625001Y-296933586D01*
X176596003Y-296909788D01*
X175424286Y-295738072D01*
X177340000Y-295738072D01*
X177464482Y-295725812D01*
X177584180Y-295689502D01*
X177694494Y-295630537D01*
X177791185Y-295551185D01*
X177870537Y-295454494D01*
X177929502Y-295344180D01*
X177965812Y-295224482D01*
X177978072Y-295100000D01*
X177978072Y-294100000D01*
X177965812Y-293975518D01*
X177929502Y-293855820D01*
X177870537Y-293745506D01*
X177791185Y-293648815D01*
X177694494Y-293569463D01*
X177584180Y-293510498D01*
X177464482Y-293474188D01*
X177340000Y-293461928D01*
X174830000Y-293461928D01*
X174705518Y-293474188D01*
X174585820Y-293510498D01*
X174475506Y-293569463D01*
X174378815Y-293648815D01*
X174299463Y-293745506D01*
X174240498Y-293855820D01*
X174204188Y-293975518D01*
X174191928Y-294100000D01*
X174191928Y-294708183D01*
X174108735Y-294699989D01*
X174108724Y-294699989D01*
X174071402Y-294696313D01*
X174034080Y-294699989D01*
X169567333Y-294699989D01*
X169530010Y-294696313D01*
X169492687Y-294699989D01*
X169492678Y-294699989D01*
X169381025Y-294710986D01*
X169237764Y-294754443D01*
X169105735Y-294825015D01*
X168990010Y-294919988D01*
X168966212Y-294948986D01*
X166510199Y-297405000D01*
X166263072Y-297405000D01*
X166263072Y-297290000D01*
X166253223Y-297190000D01*
X166263072Y-297090000D01*
X166263072Y-296640000D01*
X166252905Y-296536773D01*
X166260000Y-296471750D01*
X166227753Y-296439503D01*
X166214502Y-296395820D01*
X166155537Y-296285506D01*
X166076185Y-296188815D01*
X165988678Y-296117000D01*
X166101250Y-296117000D01*
X166260000Y-295958250D01*
X166248844Y-295856004D01*
X166210715Y-295736873D01*
X166150078Y-295627469D01*
X166069263Y-295531997D01*
X165971375Y-295454126D01*
X165860175Y-295396849D01*
X165739939Y-295362366D01*
X165615285Y-295352002D01*
X165185750Y-295355000D01*
X165027000Y-295513750D01*
X165027000Y-296001928D01*
X164773000Y-296001928D01*
X164773000Y-295513750D01*
X164614250Y-295355000D01*
X164184715Y-295352002D01*
X164060061Y-295362366D01*
X163939825Y-295396849D01*
X163828625Y-295454126D01*
X163730737Y-295531997D01*
X163649922Y-295627469D01*
X163589285Y-295736873D01*
X163551156Y-295856004D01*
X163540000Y-295958250D01*
X163698750Y-296117000D01*
X163811322Y-296117000D01*
X163723815Y-296188815D01*
X163644463Y-296285506D01*
X163585498Y-296395820D01*
X163572247Y-296439503D01*
X163540000Y-296471750D01*
X163547095Y-296536773D01*
X163536928Y-296640000D01*
X163536928Y-296860674D01*
X163500724Y-296880026D01*
X163384999Y-296974999D01*
X163361201Y-297003997D01*
X162779002Y-297586197D01*
X162749999Y-297609999D01*
X162694871Y-297677174D01*
X162655026Y-297725724D01*
X162628701Y-297774974D01*
X162584454Y-297857754D01*
X162540997Y-298001015D01*
X162530000Y-298112668D01*
X162530000Y-298112678D01*
X162526324Y-298150000D01*
X162530000Y-298187322D01*
X162530000Y-299022678D01*
X162526324Y-299060000D01*
X162530000Y-299097322D01*
X162530000Y-299097333D01*
X162540998Y-299208986D01*
X162554180Y-299252442D01*
X162584454Y-299352246D01*
X162655026Y-299484276D01*
X162701591Y-299541015D01*
X162750000Y-299600001D01*
X162778998Y-299623799D01*
X163356200Y-300201002D01*
X163379999Y-300230001D01*
X163408997Y-300253799D01*
X163495724Y-300324974D01*
X163627753Y-300395546D01*
X163771014Y-300439003D01*
X163920000Y-300453677D01*
X163957333Y-300450000D01*
X165495199Y-300450000D01*
X163275199Y-302670000D01*
X154998072Y-302670000D01*
X154998072Y-302116729D01*
X158189803Y-298925000D01*
X159428856Y-298925000D01*
X159530820Y-298979502D01*
X159650518Y-299015812D01*
X159775000Y-299028072D01*
X161225000Y-299028072D01*
X161349482Y-299015812D01*
X161469180Y-298979502D01*
X161579494Y-298920537D01*
X161676185Y-298841185D01*
X161755537Y-298744494D01*
X161814502Y-298634180D01*
X161850812Y-298514482D01*
X161863072Y-298390000D01*
X161863072Y-297940000D01*
X161853223Y-297840000D01*
X161863072Y-297740000D01*
X161863072Y-297290000D01*
X161853223Y-297190000D01*
X161863072Y-297090000D01*
X161863072Y-296640000D01*
X161853223Y-296540000D01*
X161863072Y-296440000D01*
X161863072Y-295990000D01*
X161850812Y-295865518D01*
X161814502Y-295745820D01*
X161755537Y-295635506D01*
X161676185Y-295538815D01*
X161579494Y-295459463D01*
X161469180Y-295400498D01*
X161349482Y-295364188D01*
X161225000Y-295351928D01*
X159775000Y-295351928D01*
X159740161Y-295355359D01*
X155944802Y-291560000D01*
X170881928Y-291560000D01*
X170881928Y-292560000D01*
X170894188Y-292684482D01*
X170930498Y-292804180D01*
X170989463Y-292914494D01*
X171068815Y-293011185D01*
X171165506Y-293090537D01*
X171275820Y-293149502D01*
X171395518Y-293185812D01*
X171520000Y-293198072D01*
X174030000Y-293198072D01*
X174154482Y-293185812D01*
X174274180Y-293149502D01*
X174384494Y-293090537D01*
X174481185Y-293011185D01*
X174560537Y-292914494D01*
X174619502Y-292804180D01*
X174655812Y-292684482D01*
X174668072Y-292560000D01*
X174668072Y-291560000D01*
X174655812Y-291435518D01*
X174619502Y-291315820D01*
X174560537Y-291205506D01*
X174481185Y-291108815D01*
X174384494Y-291029463D01*
X174274180Y-290970498D01*
X174154482Y-290934188D01*
X174030000Y-290921928D01*
X171520000Y-290921928D01*
X171395518Y-290934188D01*
X171275820Y-290970498D01*
X171165506Y-291029463D01*
X171068815Y-291108815D01*
X170989463Y-291205506D01*
X170930498Y-291315820D01*
X170894188Y-291435518D01*
X170881928Y-291560000D01*
X155944802Y-291560000D01*
X154693804Y-290309003D01*
X154670001Y-290279999D01*
X154554276Y-290185026D01*
X154422247Y-290114454D01*
X154278986Y-290070997D01*
X154167333Y-290060000D01*
X154167322Y-290060000D01*
X154130000Y-290056324D01*
X154092678Y-290060000D01*
X151680193Y-290060000D01*
X151684132Y-290020000D01*
X174191928Y-290020000D01*
X174204188Y-290144482D01*
X174240498Y-290264180D01*
X174299463Y-290374494D01*
X174378815Y-290471185D01*
X174475506Y-290550537D01*
X174585820Y-290609502D01*
X174705518Y-290645812D01*
X174830000Y-290658072D01*
X175799250Y-290655000D01*
X175958000Y-290496250D01*
X175958000Y-289647000D01*
X176212000Y-289647000D01*
X176212000Y-290496250D01*
X176370750Y-290655000D01*
X177340000Y-290658072D01*
X177464482Y-290645812D01*
X177584180Y-290609502D01*
X177694494Y-290550537D01*
X177791185Y-290471185D01*
X177870537Y-290374494D01*
X177929502Y-290264180D01*
X177965812Y-290144482D01*
X177978072Y-290020000D01*
X177975000Y-289805750D01*
X177816250Y-289647000D01*
X176212000Y-289647000D01*
X175958000Y-289647000D01*
X174353750Y-289647000D01*
X174195000Y-289805750D01*
X174191928Y-290020000D01*
X151684132Y-290020000D01*
X151688072Y-289980000D01*
X151688072Y-289020000D01*
X174191928Y-289020000D01*
X174195000Y-289234250D01*
X174353750Y-289393000D01*
X175958000Y-289393000D01*
X175958000Y-288543750D01*
X176212000Y-288543750D01*
X176212000Y-289393000D01*
X177816250Y-289393000D01*
X177975000Y-289234250D01*
X177978072Y-289020000D01*
X177965812Y-288895518D01*
X177929502Y-288775820D01*
X177870537Y-288665506D01*
X177791185Y-288568815D01*
X177694494Y-288489463D01*
X177584180Y-288430498D01*
X177464482Y-288394188D01*
X177340000Y-288381928D01*
X176370750Y-288385000D01*
X176212000Y-288543750D01*
X175958000Y-288543750D01*
X175799250Y-288385000D01*
X174830000Y-288381928D01*
X174705518Y-288394188D01*
X174585820Y-288430498D01*
X174475506Y-288489463D01*
X174378815Y-288568815D01*
X174299463Y-288665506D01*
X174240498Y-288775820D01*
X174204188Y-288895518D01*
X174191928Y-289020000D01*
X151688072Y-289020000D01*
X151688072Y-288980000D01*
X151675812Y-288855518D01*
X151639502Y-288735820D01*
X151580537Y-288625506D01*
X151501185Y-288528815D01*
X151404494Y-288449463D01*
X151294180Y-288390498D01*
X151174482Y-288354188D01*
X151050000Y-288341928D01*
X148540000Y-288341928D01*
X148415518Y-288354188D01*
X148295820Y-288390498D01*
X148185506Y-288449463D01*
X148088815Y-288528815D01*
X148009463Y-288625506D01*
X147950498Y-288735820D01*
X147914188Y-288855518D01*
X147901928Y-288980000D01*
X147901928Y-289980000D01*
X147909807Y-290060000D01*
X141637322Y-290060000D01*
X141599999Y-290056324D01*
X141562676Y-290060000D01*
X141562667Y-290060000D01*
X141451014Y-290070997D01*
X141307753Y-290114454D01*
X141175724Y-290185026D01*
X141059999Y-290279999D01*
X141036201Y-290308997D01*
X138348998Y-292996201D01*
X138320000Y-293019999D01*
X138296202Y-293048997D01*
X138296201Y-293048998D01*
X138225026Y-293135724D01*
X138154454Y-293267754D01*
X138131015Y-293345026D01*
X138110998Y-293411014D01*
X138105983Y-293461928D01*
X138096324Y-293560000D01*
X122280000Y-293560000D01*
X122280000Y-289869872D01*
X129375000Y-289869872D01*
X129375000Y-290310128D01*
X129460890Y-290741925D01*
X129629369Y-291148669D01*
X129873962Y-291514729D01*
X130185271Y-291826038D01*
X130551331Y-292070631D01*
X130958075Y-292239110D01*
X131389872Y-292325000D01*
X131830128Y-292325000D01*
X132261925Y-292239110D01*
X132668669Y-292070631D01*
X133034729Y-291826038D01*
X133346038Y-291514729D01*
X133590631Y-291148669D01*
X133759110Y-290741925D01*
X133845000Y-290310128D01*
X133845000Y-289869872D01*
X133759110Y-289438075D01*
X133590631Y-289031331D01*
X133346038Y-288665271D01*
X133034729Y-288353962D01*
X132668669Y-288109369D01*
X132261925Y-287940890D01*
X131830128Y-287855000D01*
X131389872Y-287855000D01*
X130958075Y-287940890D01*
X130551331Y-288109369D01*
X130185271Y-288353962D01*
X129873962Y-288665271D01*
X129629369Y-289031331D01*
X129460890Y-289438075D01*
X129375000Y-289869872D01*
X122280000Y-289869872D01*
X122280000Y-253086518D01*
X122589074Y-253549080D01*
X122990920Y-253950926D01*
X123463440Y-254266654D01*
X123988477Y-254484131D01*
X124545852Y-254595000D01*
X125114148Y-254595000D01*
X125671523Y-254484131D01*
X126196560Y-254266654D01*
X126669080Y-253950926D01*
X127070926Y-253549080D01*
X127386654Y-253076560D01*
X127604131Y-252551523D01*
X127715000Y-251994148D01*
X127715000Y-251425852D01*
X127604131Y-250868477D01*
X127386654Y-250343440D01*
X127070926Y-249870920D01*
X126669080Y-249469074D01*
X126196560Y-249153346D01*
X126019487Y-249080000D01*
X151019644Y-249080000D01*
X199636252Y-249134831D01*
X199636252Y-249134831D01*
G37*
X199636252Y-249134831D02*
X199180920Y-249439074D01*
X198779074Y-249840920D01*
X198463346Y-250313440D01*
X198245869Y-250838477D01*
X198135000Y-251395852D01*
X198135000Y-251964148D01*
X198245869Y-252521523D01*
X198463346Y-253046560D01*
X198779074Y-253519080D01*
X199180920Y-253920926D01*
X199653440Y-254236654D01*
X200178477Y-254454131D01*
X200735852Y-254565000D01*
X201304148Y-254565000D01*
X201861523Y-254454131D01*
X202386560Y-254236654D01*
X202859080Y-253920926D01*
X203260926Y-253519080D01*
X203560001Y-253071483D01*
X203560000Y-341883550D01*
X203270926Y-341450920D01*
X202869080Y-341049074D01*
X202396560Y-340733346D01*
X201871523Y-340515869D01*
X201314148Y-340405000D01*
X200745852Y-340405000D01*
X200188477Y-340515869D01*
X199663440Y-340733346D01*
X199190920Y-341049074D01*
X198789074Y-341450920D01*
X198473346Y-341923440D01*
X198255869Y-342448477D01*
X198145000Y-343005852D01*
X198145000Y-343574148D01*
X198255869Y-344131523D01*
X198473346Y-344656560D01*
X198789074Y-345129080D01*
X199190920Y-345530926D01*
X199473889Y-345720000D01*
X126371145Y-345720000D01*
X126669080Y-345520926D01*
X127070926Y-345119080D01*
X127386654Y-344646560D01*
X127604131Y-344121523D01*
X127715000Y-343564148D01*
X127715000Y-342995852D01*
X127604131Y-342438477D01*
X127386654Y-341913440D01*
X127070926Y-341440920D01*
X126669080Y-341039074D01*
X126196560Y-340723346D01*
X125671523Y-340505869D01*
X125114148Y-340395000D01*
X124545852Y-340395000D01*
X123988477Y-340505869D01*
X123463440Y-340723346D01*
X122990920Y-341039074D01*
X122589074Y-341440920D01*
X122280000Y-341903482D01*
X122280000Y-332459872D01*
X129375000Y-332459872D01*
X129375000Y-332900128D01*
X129460890Y-333331925D01*
X129629369Y-333738669D01*
X129873962Y-334104729D01*
X130185271Y-334416038D01*
X130551331Y-334660631D01*
X130958075Y-334829110D01*
X131389872Y-334915000D01*
X131830128Y-334915000D01*
X132261925Y-334829110D01*
X132668669Y-334660631D01*
X133034729Y-334416038D01*
X133346038Y-334104729D01*
X133590631Y-333738669D01*
X133759110Y-333331925D01*
X133845000Y-332900128D01*
X133845000Y-332459872D01*
X191995000Y-332459872D01*
X191995000Y-332900128D01*
X192080890Y-333331925D01*
X192249369Y-333738669D01*
X192493962Y-334104729D01*
X192805271Y-334416038D01*
X193171331Y-334660631D01*
X193578075Y-334829110D01*
X194009872Y-334915000D01*
X194450128Y-334915000D01*
X194881925Y-334829110D01*
X195288669Y-334660631D01*
X195654729Y-334416038D01*
X195966038Y-334104729D01*
X196210631Y-333738669D01*
X196379110Y-333331925D01*
X196465000Y-332900128D01*
X196465000Y-332459872D01*
X196379110Y-332028075D01*
X196210631Y-331621331D01*
X195966038Y-331255271D01*
X195654729Y-330943962D01*
X195288669Y-330699369D01*
X194881925Y-330530890D01*
X194450128Y-330445000D01*
X194009872Y-330445000D01*
X193578075Y-330530890D01*
X193171331Y-330699369D01*
X192805271Y-330943962D01*
X192493962Y-331255271D01*
X192249369Y-331621331D01*
X192080890Y-332028075D01*
X191995000Y-332459872D01*
X133845000Y-332459872D01*
X133759110Y-332028075D01*
X133590631Y-331621331D01*
X133346038Y-331255271D01*
X133034729Y-330943962D01*
X132668669Y-330699369D01*
X132261925Y-330530890D01*
X131830128Y-330445000D01*
X131389872Y-330445000D01*
X130958075Y-330530890D01*
X130551331Y-330699369D01*
X130185271Y-330943962D01*
X129873962Y-331255271D01*
X129629369Y-331621331D01*
X129460890Y-332028075D01*
X129375000Y-332459872D01*
X122280000Y-332459872D01*
X122280000Y-310864397D01*
X127185000Y-310864397D01*
X127185000Y-311895603D01*
X127386178Y-312906993D01*
X127780803Y-313859702D01*
X128353710Y-314717118D01*
X129082882Y-315446290D01*
X129940298Y-316019197D01*
X130893007Y-316413822D01*
X131904397Y-316615000D01*
X132935603Y-316615000D01*
X133946993Y-316413822D01*
X134899702Y-316019197D01*
X135757118Y-315446290D01*
X136486290Y-314717118D01*
X137059197Y-313859702D01*
X137453822Y-312906993D01*
X137655000Y-311895603D01*
X137655000Y-310894397D01*
X188205000Y-310894397D01*
X188205000Y-311925603D01*
X188406178Y-312936993D01*
X188800803Y-313889702D01*
X189373710Y-314747118D01*
X190102882Y-315476290D01*
X190960298Y-316049197D01*
X191913007Y-316443822D01*
X192924397Y-316645000D01*
X193955603Y-316645000D01*
X194966993Y-316443822D01*
X195919702Y-316049197D01*
X196777118Y-315476290D01*
X197506290Y-314747118D01*
X198079197Y-313889702D01*
X198473822Y-312936993D01*
X198675000Y-311925603D01*
X198675000Y-310894397D01*
X198473822Y-309883007D01*
X198079197Y-308930298D01*
X197506290Y-308072882D01*
X196777118Y-307343710D01*
X195919702Y-306770803D01*
X194966993Y-306376178D01*
X193955603Y-306175000D01*
X192924397Y-306175000D01*
X191913007Y-306376178D01*
X190960298Y-306770803D01*
X190102882Y-307343710D01*
X189373710Y-308072882D01*
X188800803Y-308930298D01*
X188406178Y-309883007D01*
X188205000Y-310894397D01*
X137655000Y-310894397D01*
X137655000Y-310864397D01*
X137453822Y-309853007D01*
X137059197Y-308900298D01*
X136486290Y-308042882D01*
X135757118Y-307313710D01*
X134899702Y-306740803D01*
X133946993Y-306346178D01*
X132935603Y-306145000D01*
X131904397Y-306145000D01*
X130893007Y-306346178D01*
X129940298Y-306740803D01*
X129082882Y-307313710D01*
X128353710Y-308042882D01*
X127780803Y-308900298D01*
X127386178Y-309853007D01*
X127185000Y-310864397D01*
X122280000Y-310864397D01*
X122280000Y-293560000D01*
X138096324Y-293560000D01*
X138100001Y-293597332D01*
X138100000Y-294822677D01*
X138096324Y-294860000D01*
X138100000Y-294897322D01*
X138100000Y-294897332D01*
X138110997Y-295008985D01*
X138144975Y-295120997D01*
X138154454Y-295152246D01*
X138225026Y-295284276D01*
X138253522Y-295318998D01*
X138319999Y-295400001D01*
X138349002Y-295423804D01*
X139306201Y-296381003D01*
X139329999Y-296410001D01*
X139445724Y-296504974D01*
X139507366Y-296537923D01*
X139530498Y-296614180D01*
X139589463Y-296724494D01*
X139668815Y-296821185D01*
X139765506Y-296900537D01*
X139875820Y-296959502D01*
X139995518Y-296995812D01*
X140120000Y-297008072D01*
X141540000Y-297008072D01*
X141540001Y-300662668D01*
X141536324Y-300700000D01*
X141540001Y-300737333D01*
X141544014Y-300778072D01*
X141550998Y-300848985D01*
X141594454Y-300992246D01*
X141665026Y-301124276D01*
X141721393Y-301192958D01*
X141760000Y-301240001D01*
X141788998Y-301263799D01*
X142211402Y-301686204D01*
X141328998Y-302568609D01*
X141300000Y-302592407D01*
X141276202Y-302621405D01*
X141276201Y-302621406D01*
X141205026Y-302708132D01*
X141134454Y-302840162D01*
X141107203Y-302930000D01*
X141090998Y-302983422D01*
X141087938Y-303014494D01*
X141076324Y-303132408D01*
X141080001Y-303169740D01*
X141080000Y-306642677D01*
X141076324Y-306680000D01*
X141080000Y-306717322D01*
X141080000Y-306717332D01*
X141090997Y-306828985D01*
X141134454Y-306972246D01*
X141205026Y-307104276D01*
X141244871Y-307152826D01*
X141299999Y-307220001D01*
X141329003Y-307243804D01*
X142746201Y-308661003D01*
X142769999Y-308690001D01*
X142798997Y-308713799D01*
X142885723Y-308784974D01*
X143017753Y-308855546D01*
X143161014Y-308899003D01*
X143272667Y-308910000D01*
X143272677Y-308910000D01*
X143310000Y-308913676D01*
X143347323Y-308910000D01*
X176412678Y-308910000D01*
X176450000Y-308913676D01*
X176487322Y-308910000D01*
X176487333Y-308910000D01*
X176598986Y-308899003D01*
X176742247Y-308855546D01*
X176874276Y-308784974D01*
X176990001Y-308690001D01*
X177013804Y-308660997D01*
X179771003Y-305903799D01*
X179800001Y-305880001D01*
X179857858Y-305809502D01*
X179894974Y-305764277D01*
X179965546Y-305632247D01*
X179983065Y-305574494D01*
X180009003Y-305488986D01*
X180018546Y-305392093D01*
X180049502Y-305334180D01*
X180085812Y-305214482D01*
X180098072Y-305090000D01*
X180098072Y-304490000D01*
X180085812Y-304365518D01*
X180049502Y-304245820D01*
X180030000Y-304209335D01*
X180030000Y-300430000D01*
X180442678Y-300430000D01*
X180480000Y-300433676D01*
X180517322Y-300430000D01*
X180517333Y-300430000D01*
X180628986Y-300419003D01*
X180772247Y-300375546D01*
X180904276Y-300304974D01*
X181020001Y-300210001D01*
X181043804Y-300180997D01*
X182092895Y-299131906D01*
X182114774Y-299241898D01*
X182192795Y-299430256D01*
X182306063Y-299599774D01*
X182450226Y-299743937D01*
X182619744Y-299857205D01*
X182808102Y-299935226D01*
X183008061Y-299975000D01*
X183211939Y-299975000D01*
X183411898Y-299935226D01*
X183600256Y-299857205D01*
X183769774Y-299743937D01*
X183913937Y-299599774D01*
X184027205Y-299430256D01*
X184105226Y-299241898D01*
X184145000Y-299041939D01*
X184145000Y-298838061D01*
X184105226Y-298638102D01*
X184027205Y-298449744D01*
X183913937Y-298280226D01*
X183870000Y-298236289D01*
X183870000Y-296953506D01*
X183978061Y-296975000D01*
X184181939Y-296975000D01*
X184381898Y-296935226D01*
X184570256Y-296857205D01*
X184739774Y-296743937D01*
X184883937Y-296599774D01*
X184997205Y-296430256D01*
X185075226Y-296241898D01*
X185115000Y-296041939D01*
X185115000Y-295838061D01*
X185075226Y-295638102D01*
X184997205Y-295449744D01*
X184883937Y-295280226D01*
X184840000Y-295236289D01*
X184840000Y-289869872D01*
X191995000Y-289869872D01*
X191995000Y-290310128D01*
X192080890Y-290741925D01*
X192249369Y-291148669D01*
X192493962Y-291514729D01*
X192805271Y-291826038D01*
X193171331Y-292070631D01*
X193578075Y-292239110D01*
X194009872Y-292325000D01*
X194450128Y-292325000D01*
X194881925Y-292239110D01*
X195288669Y-292070631D01*
X195654729Y-291826038D01*
X195966038Y-291514729D01*
X196210631Y-291148669D01*
X196379110Y-290741925D01*
X196465000Y-290310128D01*
X196465000Y-289869872D01*
X196379110Y-289438075D01*
X196210631Y-289031331D01*
X195966038Y-288665271D01*
X195654729Y-288353962D01*
X195288669Y-288109369D01*
X194881925Y-287940890D01*
X194450128Y-287855000D01*
X194009872Y-287855000D01*
X193578075Y-287940890D01*
X193171331Y-288109369D01*
X192805271Y-288353962D01*
X192493962Y-288665271D01*
X192249369Y-289031331D01*
X192080890Y-289438075D01*
X191995000Y-289869872D01*
X184840000Y-289869872D01*
X184840000Y-278054801D01*
X193301003Y-269593799D01*
X193330001Y-269570001D01*
X193356332Y-269537917D01*
X193424974Y-269454277D01*
X193495546Y-269322247D01*
X193506852Y-269284974D01*
X193539003Y-269178986D01*
X193550000Y-269067333D01*
X193550000Y-269067324D01*
X193553676Y-269030001D01*
X193550000Y-268992678D01*
X193550000Y-268354701D01*
X193635000Y-268363072D01*
X193749250Y-268360000D01*
X193908000Y-268201250D01*
X193908000Y-267102000D01*
X194162000Y-267102000D01*
X194162000Y-268201250D01*
X194320750Y-268360000D01*
X194435000Y-268363072D01*
X194559482Y-268350812D01*
X194679180Y-268314502D01*
X194789494Y-268255537D01*
X194886185Y-268176185D01*
X194965537Y-268079494D01*
X195024502Y-267969180D01*
X195060812Y-267849482D01*
X195073072Y-267725000D01*
X195070000Y-267260750D01*
X194911250Y-267102000D01*
X194162000Y-267102000D01*
X193908000Y-267102000D01*
X193888000Y-267102000D01*
X193888000Y-266848000D01*
X193908000Y-266848000D01*
X193908000Y-265748750D01*
X194162000Y-265748750D01*
X194162000Y-266848000D01*
X194911250Y-266848000D01*
X195070000Y-266689250D01*
X195072582Y-266299034D01*
X195080506Y-266305537D01*
X195190820Y-266364502D01*
X195310518Y-266400812D01*
X195435000Y-266413072D01*
X197635000Y-266413072D01*
X197759482Y-266400812D01*
X197879180Y-266364502D01*
X197989494Y-266305537D01*
X198086185Y-266226185D01*
X198165537Y-266129494D01*
X198224502Y-266019180D01*
X198260812Y-265899482D01*
X198273072Y-265775000D01*
X198273072Y-262675000D01*
X198260812Y-262550518D01*
X198224502Y-262430820D01*
X198165537Y-262320506D01*
X198086185Y-262223815D01*
X197989494Y-262144463D01*
X197879180Y-262085498D01*
X197759482Y-262049188D01*
X197635000Y-262036928D01*
X195435000Y-262036928D01*
X195310518Y-262049188D01*
X195190820Y-262085498D01*
X195080506Y-262144463D01*
X194983815Y-262223815D01*
X194904463Y-262320506D01*
X194845498Y-262430820D01*
X194809188Y-262550518D01*
X194796928Y-262675000D01*
X194796928Y-265700564D01*
X194789494Y-265694463D01*
X194679180Y-265635498D01*
X194559482Y-265599188D01*
X194435000Y-265586928D01*
X194320750Y-265590000D01*
X194162000Y-265748750D01*
X193908000Y-265748750D01*
X193749250Y-265590000D01*
X193635000Y-265586928D01*
X193510518Y-265599188D01*
X193410000Y-265629680D01*
X193309482Y-265599188D01*
X193185000Y-265586928D01*
X192385000Y-265586928D01*
X192260518Y-265599188D01*
X192160000Y-265629680D01*
X192059482Y-265599188D01*
X191935000Y-265586928D01*
X191135000Y-265586928D01*
X191010518Y-265599188D01*
X190910000Y-265629680D01*
X190809482Y-265599188D01*
X190685000Y-265586928D01*
X189885000Y-265586928D01*
X189760518Y-265599188D01*
X189640820Y-265635498D01*
X189530506Y-265694463D01*
X189523072Y-265700564D01*
X189523072Y-262675000D01*
X189510812Y-262550518D01*
X189474502Y-262430820D01*
X189415537Y-262320506D01*
X189336185Y-262223815D01*
X189239494Y-262144463D01*
X189129180Y-262085498D01*
X189009482Y-262049188D01*
X188885000Y-262036928D01*
X186685000Y-262036928D01*
X186560518Y-262049188D01*
X186440820Y-262085498D01*
X186330506Y-262144463D01*
X186233815Y-262223815D01*
X186154463Y-262320506D01*
X186095498Y-262430820D01*
X186059188Y-262550518D01*
X186046928Y-262675000D01*
X186046928Y-265775000D01*
X186059188Y-265899482D01*
X186095498Y-266019180D01*
X186154463Y-266129494D01*
X186233815Y-266226185D01*
X186330506Y-266305537D01*
X186440820Y-266364502D01*
X186560518Y-266400812D01*
X186685000Y-266413072D01*
X188885000Y-266413072D01*
X189009482Y-266400812D01*
X189129180Y-266364502D01*
X189239494Y-266305537D01*
X189246928Y-266299436D01*
X189246928Y-267725000D01*
X189259188Y-267849482D01*
X189276999Y-267908199D01*
X181419003Y-275766196D01*
X181389999Y-275789999D01*
X181334871Y-275857174D01*
X181295026Y-275905724D01*
X181224455Y-276037753D01*
X181224454Y-276037754D01*
X181180997Y-276181015D01*
X181170000Y-276292668D01*
X181170000Y-276292678D01*
X181166324Y-276330000D01*
X181170000Y-276367322D01*
X181170001Y-297905197D01*
X180165199Y-298910000D01*
X179910444Y-298910000D01*
X179824494Y-298839463D01*
X179714180Y-298780498D01*
X179594482Y-298744188D01*
X179470000Y-298731928D01*
X179070000Y-298731928D01*
X178945518Y-298744188D01*
X178825820Y-298780498D01*
X178820000Y-298783609D01*
X178814180Y-298780498D01*
X178717937Y-298751303D01*
X178800256Y-298717205D01*
X178969774Y-298603937D01*
X179113937Y-298459774D01*
X179227205Y-298290256D01*
X179305226Y-298101898D01*
X179345000Y-297901939D01*
X179345000Y-297698061D01*
X179305226Y-297498102D01*
X179227205Y-297309744D01*
X179113937Y-297140226D01*
X178969774Y-296996063D01*
X178800256Y-296882795D01*
X178611898Y-296804774D01*
X178411939Y-296765000D01*
X178208061Y-296765000D01*
X178008102Y-296804774D01*
X177819744Y-296882795D01*
X177650226Y-296996063D01*
X177506063Y-297140226D01*
X177392795Y-297309744D01*
X177314774Y-297498102D01*
X177275000Y-297698061D01*
X177275000Y-297760198D01*
X176845000Y-298190198D01*
X176845000Y-297510920D01*
X176848677Y-297473587D01*
X176834003Y-297324601D01*
X176790546Y-297181340D01*
X176719974Y-297049311D01*
X176648799Y-296962584D01*
X176625001Y-296933586D01*
X176596003Y-296909788D01*
X175424286Y-295738072D01*
X177340000Y-295738072D01*
X177464482Y-295725812D01*
X177584180Y-295689502D01*
X177694494Y-295630537D01*
X177791185Y-295551185D01*
X177870537Y-295454494D01*
X177929502Y-295344180D01*
X177965812Y-295224482D01*
X177978072Y-295100000D01*
X177978072Y-294100000D01*
X177965812Y-293975518D01*
X177929502Y-293855820D01*
X177870537Y-293745506D01*
X177791185Y-293648815D01*
X177694494Y-293569463D01*
X177584180Y-293510498D01*
X177464482Y-293474188D01*
X177340000Y-293461928D01*
X174830000Y-293461928D01*
X174705518Y-293474188D01*
X174585820Y-293510498D01*
X174475506Y-293569463D01*
X174378815Y-293648815D01*
X174299463Y-293745506D01*
X174240498Y-293855820D01*
X174204188Y-293975518D01*
X174191928Y-294100000D01*
X174191928Y-294708183D01*
X174108735Y-294699989D01*
X174108724Y-294699989D01*
X174071402Y-294696313D01*
X174034080Y-294699989D01*
X169567333Y-294699989D01*
X169530010Y-294696313D01*
X169492687Y-294699989D01*
X169492678Y-294699989D01*
X169381025Y-294710986D01*
X169237764Y-294754443D01*
X169105735Y-294825015D01*
X168990010Y-294919988D01*
X168966212Y-294948986D01*
X166510199Y-297405000D01*
X166263072Y-297405000D01*
X166263072Y-297290000D01*
X166253223Y-297190000D01*
X166263072Y-297090000D01*
X166263072Y-296640000D01*
X166252905Y-296536773D01*
X166260000Y-296471750D01*
X166227753Y-296439503D01*
X166214502Y-296395820D01*
X166155537Y-296285506D01*
X166076185Y-296188815D01*
X165988678Y-296117000D01*
X166101250Y-296117000D01*
X166260000Y-295958250D01*
X166248844Y-295856004D01*
X166210715Y-295736873D01*
X166150078Y-295627469D01*
X166069263Y-295531997D01*
X165971375Y-295454126D01*
X165860175Y-295396849D01*
X165739939Y-295362366D01*
X165615285Y-295352002D01*
X165185750Y-295355000D01*
X165027000Y-295513750D01*
X165027000Y-296001928D01*
X164773000Y-296001928D01*
X164773000Y-295513750D01*
X164614250Y-295355000D01*
X164184715Y-295352002D01*
X164060061Y-295362366D01*
X163939825Y-295396849D01*
X163828625Y-295454126D01*
X163730737Y-295531997D01*
X163649922Y-295627469D01*
X163589285Y-295736873D01*
X163551156Y-295856004D01*
X163540000Y-295958250D01*
X163698750Y-296117000D01*
X163811322Y-296117000D01*
X163723815Y-296188815D01*
X163644463Y-296285506D01*
X163585498Y-296395820D01*
X163572247Y-296439503D01*
X163540000Y-296471750D01*
X163547095Y-296536773D01*
X163536928Y-296640000D01*
X163536928Y-296860674D01*
X163500724Y-296880026D01*
X163384999Y-296974999D01*
X163361201Y-297003997D01*
X162779002Y-297586197D01*
X162749999Y-297609999D01*
X162694871Y-297677174D01*
X162655026Y-297725724D01*
X162628701Y-297774974D01*
X162584454Y-297857754D01*
X162540997Y-298001015D01*
X162530000Y-298112668D01*
X162530000Y-298112678D01*
X162526324Y-298150000D01*
X162530000Y-298187322D01*
X162530000Y-299022678D01*
X162526324Y-299060000D01*
X162530000Y-299097322D01*
X162530000Y-299097333D01*
X162540998Y-299208986D01*
X162554180Y-299252442D01*
X162584454Y-299352246D01*
X162655026Y-299484276D01*
X162701591Y-299541015D01*
X162750000Y-299600001D01*
X162778998Y-299623799D01*
X163356200Y-300201002D01*
X163379999Y-300230001D01*
X163408997Y-300253799D01*
X163495724Y-300324974D01*
X163627753Y-300395546D01*
X163771014Y-300439003D01*
X163920000Y-300453677D01*
X163957333Y-300450000D01*
X165495199Y-300450000D01*
X163275199Y-302670000D01*
X154998072Y-302670000D01*
X154998072Y-302116729D01*
X158189803Y-298925000D01*
X159428856Y-298925000D01*
X159530820Y-298979502D01*
X159650518Y-299015812D01*
X159775000Y-299028072D01*
X161225000Y-299028072D01*
X161349482Y-299015812D01*
X161469180Y-298979502D01*
X161579494Y-298920537D01*
X161676185Y-298841185D01*
X161755537Y-298744494D01*
X161814502Y-298634180D01*
X161850812Y-298514482D01*
X161863072Y-298390000D01*
X161863072Y-297940000D01*
X161853223Y-297840000D01*
X161863072Y-297740000D01*
X161863072Y-297290000D01*
X161853223Y-297190000D01*
X161863072Y-297090000D01*
X161863072Y-296640000D01*
X161853223Y-296540000D01*
X161863072Y-296440000D01*
X161863072Y-295990000D01*
X161850812Y-295865518D01*
X161814502Y-295745820D01*
X161755537Y-295635506D01*
X161676185Y-295538815D01*
X161579494Y-295459463D01*
X161469180Y-295400498D01*
X161349482Y-295364188D01*
X161225000Y-295351928D01*
X159775000Y-295351928D01*
X159740161Y-295355359D01*
X155944802Y-291560000D01*
X170881928Y-291560000D01*
X170881928Y-292560000D01*
X170894188Y-292684482D01*
X170930498Y-292804180D01*
X170989463Y-292914494D01*
X171068815Y-293011185D01*
X171165506Y-293090537D01*
X171275820Y-293149502D01*
X171395518Y-293185812D01*
X171520000Y-293198072D01*
X174030000Y-293198072D01*
X174154482Y-293185812D01*
X174274180Y-293149502D01*
X174384494Y-293090537D01*
X174481185Y-293011185D01*
X174560537Y-292914494D01*
X174619502Y-292804180D01*
X174655812Y-292684482D01*
X174668072Y-292560000D01*
X174668072Y-291560000D01*
X174655812Y-291435518D01*
X174619502Y-291315820D01*
X174560537Y-291205506D01*
X174481185Y-291108815D01*
X174384494Y-291029463D01*
X174274180Y-290970498D01*
X174154482Y-290934188D01*
X174030000Y-290921928D01*
X171520000Y-290921928D01*
X171395518Y-290934188D01*
X171275820Y-290970498D01*
X171165506Y-291029463D01*
X171068815Y-291108815D01*
X170989463Y-291205506D01*
X170930498Y-291315820D01*
X170894188Y-291435518D01*
X170881928Y-291560000D01*
X155944802Y-291560000D01*
X154693804Y-290309003D01*
X154670001Y-290279999D01*
X154554276Y-290185026D01*
X154422247Y-290114454D01*
X154278986Y-290070997D01*
X154167333Y-290060000D01*
X154167322Y-290060000D01*
X154130000Y-290056324D01*
X154092678Y-290060000D01*
X151680193Y-290060000D01*
X151684132Y-290020000D01*
X174191928Y-290020000D01*
X174204188Y-290144482D01*
X174240498Y-290264180D01*
X174299463Y-290374494D01*
X174378815Y-290471185D01*
X174475506Y-290550537D01*
X174585820Y-290609502D01*
X174705518Y-290645812D01*
X174830000Y-290658072D01*
X175799250Y-290655000D01*
X175958000Y-290496250D01*
X175958000Y-289647000D01*
X176212000Y-289647000D01*
X176212000Y-290496250D01*
X176370750Y-290655000D01*
X177340000Y-290658072D01*
X177464482Y-290645812D01*
X177584180Y-290609502D01*
X177694494Y-290550537D01*
X177791185Y-290471185D01*
X177870537Y-290374494D01*
X177929502Y-290264180D01*
X177965812Y-290144482D01*
X177978072Y-290020000D01*
X177975000Y-289805750D01*
X177816250Y-289647000D01*
X176212000Y-289647000D01*
X175958000Y-289647000D01*
X174353750Y-289647000D01*
X174195000Y-289805750D01*
X174191928Y-290020000D01*
X151684132Y-290020000D01*
X151688072Y-289980000D01*
X151688072Y-289020000D01*
X174191928Y-289020000D01*
X174195000Y-289234250D01*
X174353750Y-289393000D01*
X175958000Y-289393000D01*
X175958000Y-288543750D01*
X176212000Y-288543750D01*
X176212000Y-289393000D01*
X177816250Y-289393000D01*
X177975000Y-289234250D01*
X177978072Y-289020000D01*
X177965812Y-288895518D01*
X177929502Y-288775820D01*
X177870537Y-288665506D01*
X177791185Y-288568815D01*
X177694494Y-288489463D01*
X177584180Y-288430498D01*
X177464482Y-288394188D01*
X177340000Y-288381928D01*
X176370750Y-288385000D01*
X176212000Y-288543750D01*
X175958000Y-288543750D01*
X175799250Y-288385000D01*
X174830000Y-288381928D01*
X174705518Y-288394188D01*
X174585820Y-288430498D01*
X174475506Y-288489463D01*
X174378815Y-288568815D01*
X174299463Y-288665506D01*
X174240498Y-288775820D01*
X174204188Y-288895518D01*
X174191928Y-289020000D01*
X151688072Y-289020000D01*
X151688072Y-288980000D01*
X151675812Y-288855518D01*
X151639502Y-288735820D01*
X151580537Y-288625506D01*
X151501185Y-288528815D01*
X151404494Y-288449463D01*
X151294180Y-288390498D01*
X151174482Y-288354188D01*
X151050000Y-288341928D01*
X148540000Y-288341928D01*
X148415518Y-288354188D01*
X148295820Y-288390498D01*
X148185506Y-288449463D01*
X148088815Y-288528815D01*
X148009463Y-288625506D01*
X147950498Y-288735820D01*
X147914188Y-288855518D01*
X147901928Y-288980000D01*
X147901928Y-289980000D01*
X147909807Y-290060000D01*
X141637322Y-290060000D01*
X141599999Y-290056324D01*
X141562676Y-290060000D01*
X141562667Y-290060000D01*
X141451014Y-290070997D01*
X141307753Y-290114454D01*
X141175724Y-290185026D01*
X141059999Y-290279999D01*
X141036201Y-290308997D01*
X138348998Y-292996201D01*
X138320000Y-293019999D01*
X138296202Y-293048997D01*
X138296201Y-293048998D01*
X138225026Y-293135724D01*
X138154454Y-293267754D01*
X138131015Y-293345026D01*
X138110998Y-293411014D01*
X138105983Y-293461928D01*
X138096324Y-293560000D01*
X122280000Y-293560000D01*
X122280000Y-289869872D01*
X129375000Y-289869872D01*
X129375000Y-290310128D01*
X129460890Y-290741925D01*
X129629369Y-291148669D01*
X129873962Y-291514729D01*
X130185271Y-291826038D01*
X130551331Y-292070631D01*
X130958075Y-292239110D01*
X131389872Y-292325000D01*
X131830128Y-292325000D01*
X132261925Y-292239110D01*
X132668669Y-292070631D01*
X133034729Y-291826038D01*
X133346038Y-291514729D01*
X133590631Y-291148669D01*
X133759110Y-290741925D01*
X133845000Y-290310128D01*
X133845000Y-289869872D01*
X133759110Y-289438075D01*
X133590631Y-289031331D01*
X133346038Y-288665271D01*
X133034729Y-288353962D01*
X132668669Y-288109369D01*
X132261925Y-287940890D01*
X131830128Y-287855000D01*
X131389872Y-287855000D01*
X130958075Y-287940890D01*
X130551331Y-288109369D01*
X130185271Y-288353962D01*
X129873962Y-288665271D01*
X129629369Y-289031331D01*
X129460890Y-289438075D01*
X129375000Y-289869872D01*
X122280000Y-289869872D01*
X122280000Y-253086518D01*
X122589074Y-253549080D01*
X122990920Y-253950926D01*
X123463440Y-254266654D01*
X123988477Y-254484131D01*
X124545852Y-254595000D01*
X125114148Y-254595000D01*
X125671523Y-254484131D01*
X126196560Y-254266654D01*
X126669080Y-253950926D01*
X127070926Y-253549080D01*
X127386654Y-253076560D01*
X127604131Y-252551523D01*
X127715000Y-251994148D01*
X127715000Y-251425852D01*
X127604131Y-250868477D01*
X127386654Y-250343440D01*
X127070926Y-249870920D01*
X126669080Y-249469074D01*
X126196560Y-249153346D01*
X126019487Y-249080000D01*
X151019644Y-249080000D01*
X199636252Y-249134831D01*
G36*
X170989463Y-303074494D02*
G01*
X171068815Y-303171185D01*
X171165506Y-303250537D01*
X171275820Y-303309502D01*
X171395518Y-303345812D01*
X171520000Y-303358072D01*
X174030000Y-303358072D01*
X174154482Y-303345812D01*
X174274180Y-303309502D01*
X174297328Y-303297129D01*
X174650942Y-303650743D01*
X174585820Y-303670498D01*
X174475506Y-303729463D01*
X174378815Y-303808815D01*
X174299463Y-303905506D01*
X174240498Y-304015820D01*
X174204188Y-304135518D01*
X174191928Y-304260000D01*
X174191928Y-305260000D01*
X174204188Y-305384482D01*
X174240498Y-305504180D01*
X174299463Y-305614494D01*
X174378815Y-305711185D01*
X174475506Y-305790537D01*
X174585820Y-305849502D01*
X174705518Y-305885812D01*
X174830000Y-305898072D01*
X177340000Y-305898072D01*
X177464482Y-305885812D01*
X177584180Y-305849502D01*
X177694494Y-305790537D01*
X177791185Y-305711185D01*
X177847261Y-305642856D01*
X177870123Y-305655076D01*
X176135199Y-307390000D01*
X143624802Y-307390000D01*
X142600000Y-306365199D01*
X142600000Y-304436018D01*
X142605506Y-304440537D01*
X142715820Y-304499502D01*
X142835518Y-304535812D01*
X142960000Y-304548072D01*
X144232906Y-304548072D01*
X144320000Y-304635166D01*
X144320000Y-305172678D01*
X144316324Y-305210000D01*
X144320000Y-305247322D01*
X144320000Y-305247333D01*
X144330998Y-305358986D01*
X144338732Y-305384482D01*
X144374454Y-305502246D01*
X144445026Y-305634276D01*
X144511942Y-305715812D01*
X144540000Y-305750001D01*
X144568998Y-305773799D01*
X145156200Y-306361002D01*
X145179999Y-306390001D01*
X145295724Y-306484974D01*
X145427753Y-306555546D01*
X145571014Y-306599003D01*
X145682667Y-306610000D01*
X145682675Y-306610000D01*
X145720000Y-306613676D01*
X145757325Y-306610000D01*
X165942678Y-306610000D01*
X165980000Y-306613676D01*
X166017322Y-306610000D01*
X166017333Y-306610000D01*
X166128986Y-306599003D01*
X166272247Y-306555546D01*
X166404276Y-306484974D01*
X166520001Y-306390001D01*
X166543804Y-306360997D01*
X169924802Y-302980000D01*
X170938954Y-302980000D01*
X170989463Y-303074494D01*
X170989463Y-303074494D01*
G37*
X170989463Y-303074494D02*
X171068815Y-303171185D01*
X171165506Y-303250537D01*
X171275820Y-303309502D01*
X171395518Y-303345812D01*
X171520000Y-303358072D01*
X174030000Y-303358072D01*
X174154482Y-303345812D01*
X174274180Y-303309502D01*
X174297328Y-303297129D01*
X174650942Y-303650743D01*
X174585820Y-303670498D01*
X174475506Y-303729463D01*
X174378815Y-303808815D01*
X174299463Y-303905506D01*
X174240498Y-304015820D01*
X174204188Y-304135518D01*
X174191928Y-304260000D01*
X174191928Y-305260000D01*
X174204188Y-305384482D01*
X174240498Y-305504180D01*
X174299463Y-305614494D01*
X174378815Y-305711185D01*
X174475506Y-305790537D01*
X174585820Y-305849502D01*
X174705518Y-305885812D01*
X174830000Y-305898072D01*
X177340000Y-305898072D01*
X177464482Y-305885812D01*
X177584180Y-305849502D01*
X177694494Y-305790537D01*
X177791185Y-305711185D01*
X177847261Y-305642856D01*
X177870123Y-305655076D01*
X176135199Y-307390000D01*
X143624802Y-307390000D01*
X142600000Y-306365199D01*
X142600000Y-304436018D01*
X142605506Y-304440537D01*
X142715820Y-304499502D01*
X142835518Y-304535812D01*
X142960000Y-304548072D01*
X144232906Y-304548072D01*
X144320000Y-304635166D01*
X144320000Y-305172678D01*
X144316324Y-305210000D01*
X144320000Y-305247322D01*
X144320000Y-305247333D01*
X144330998Y-305358986D01*
X144338732Y-305384482D01*
X144374454Y-305502246D01*
X144445026Y-305634276D01*
X144511942Y-305715812D01*
X144540000Y-305750001D01*
X144568998Y-305773799D01*
X145156200Y-306361002D01*
X145179999Y-306390001D01*
X145295724Y-306484974D01*
X145427753Y-306555546D01*
X145571014Y-306599003D01*
X145682667Y-306610000D01*
X145682675Y-306610000D01*
X145720000Y-306613676D01*
X145757325Y-306610000D01*
X165942678Y-306610000D01*
X165980000Y-306613676D01*
X166017322Y-306610000D01*
X166017333Y-306610000D01*
X166128986Y-306599003D01*
X166272247Y-306555546D01*
X166404276Y-306484974D01*
X166520001Y-306390001D01*
X166543804Y-306360997D01*
X169924802Y-302980000D01*
X170938954Y-302980000D01*
X170989463Y-303074494D01*
G36*
X170989463Y-297994494D02*
G01*
X171068815Y-298091185D01*
X171165506Y-298170537D01*
X171275820Y-298229502D01*
X171395518Y-298265812D01*
X171520000Y-298278072D01*
X173744999Y-298278072D01*
X173745000Y-301081928D01*
X171520000Y-301081928D01*
X171395518Y-301094188D01*
X171275820Y-301130498D01*
X171165506Y-301189463D01*
X171068815Y-301268815D01*
X170989463Y-301365506D01*
X170938954Y-301460000D01*
X169647322Y-301460000D01*
X169609999Y-301456324D01*
X169572676Y-301460000D01*
X169572667Y-301460000D01*
X169461014Y-301470997D01*
X169317753Y-301514454D01*
X169185724Y-301585026D01*
X169069999Y-301679999D01*
X169046201Y-301708997D01*
X165665199Y-305090000D01*
X151686208Y-305090000D01*
X151685000Y-305005750D01*
X151526250Y-304847000D01*
X149922000Y-304847000D01*
X149922000Y-304867000D01*
X149668000Y-304867000D01*
X149668000Y-304847000D01*
X148063750Y-304847000D01*
X147905000Y-305005750D01*
X147903792Y-305090000D01*
X146034802Y-305090000D01*
X145840000Y-304895199D01*
X145840000Y-304566102D01*
X145860000Y-304568072D01*
X147360000Y-304568072D01*
X147484482Y-304555812D01*
X147604180Y-304519502D01*
X147714494Y-304460537D01*
X147811185Y-304381185D01*
X147890537Y-304284494D01*
X147902531Y-304262055D01*
X147905000Y-304434250D01*
X148063750Y-304593000D01*
X149668000Y-304593000D01*
X149668000Y-304573000D01*
X149922000Y-304573000D01*
X149922000Y-304593000D01*
X151526250Y-304593000D01*
X151685000Y-304434250D01*
X151688072Y-304220000D01*
X151685117Y-304190000D01*
X163552678Y-304190000D01*
X163590000Y-304193676D01*
X163627322Y-304190000D01*
X163627333Y-304190000D01*
X163738986Y-304179003D01*
X163882247Y-304135546D01*
X164014276Y-304064974D01*
X164130001Y-303970001D01*
X164153804Y-303940997D01*
X170194802Y-297900000D01*
X170938954Y-297900000D01*
X170989463Y-297994494D01*
X170989463Y-297994494D01*
G37*
X170989463Y-297994494D02*
X171068815Y-298091185D01*
X171165506Y-298170537D01*
X171275820Y-298229502D01*
X171395518Y-298265812D01*
X171520000Y-298278072D01*
X173744999Y-298278072D01*
X173745000Y-301081928D01*
X171520000Y-301081928D01*
X171395518Y-301094188D01*
X171275820Y-301130498D01*
X171165506Y-301189463D01*
X171068815Y-301268815D01*
X170989463Y-301365506D01*
X170938954Y-301460000D01*
X169647322Y-301460000D01*
X169609999Y-301456324D01*
X169572676Y-301460000D01*
X169572667Y-301460000D01*
X169461014Y-301470997D01*
X169317753Y-301514454D01*
X169185724Y-301585026D01*
X169069999Y-301679999D01*
X169046201Y-301708997D01*
X165665199Y-305090000D01*
X151686208Y-305090000D01*
X151685000Y-305005750D01*
X151526250Y-304847000D01*
X149922000Y-304847000D01*
X149922000Y-304867000D01*
X149668000Y-304867000D01*
X149668000Y-304847000D01*
X148063750Y-304847000D01*
X147905000Y-305005750D01*
X147903792Y-305090000D01*
X146034802Y-305090000D01*
X145840000Y-304895199D01*
X145840000Y-304566102D01*
X145860000Y-304568072D01*
X147360000Y-304568072D01*
X147484482Y-304555812D01*
X147604180Y-304519502D01*
X147714494Y-304460537D01*
X147811185Y-304381185D01*
X147890537Y-304284494D01*
X147902531Y-304262055D01*
X147905000Y-304434250D01*
X148063750Y-304593000D01*
X149668000Y-304593000D01*
X149668000Y-304573000D01*
X149922000Y-304573000D01*
X149922000Y-304593000D01*
X151526250Y-304593000D01*
X151685000Y-304434250D01*
X151688072Y-304220000D01*
X151685117Y-304190000D01*
X163552678Y-304190000D01*
X163590000Y-304193676D01*
X163627322Y-304190000D01*
X163627333Y-304190000D01*
X163738986Y-304179003D01*
X163882247Y-304135546D01*
X164014276Y-304064974D01*
X164130001Y-303970001D01*
X164153804Y-303940997D01*
X170194802Y-297900000D01*
X170938954Y-297900000D01*
X170989463Y-297994494D01*
G36*
X145244188Y-296474482D02*
G01*
X145280498Y-296594180D01*
X145339463Y-296704494D01*
X145418815Y-296801185D01*
X145515506Y-296880537D01*
X145625820Y-296939502D01*
X145745518Y-296975812D01*
X145870000Y-296988072D01*
X147370000Y-296988072D01*
X147494482Y-296975812D01*
X147614180Y-296939502D01*
X147724494Y-296880537D01*
X147821185Y-296801185D01*
X147900537Y-296704494D01*
X147929665Y-296650000D01*
X151211928Y-296650000D01*
X151211928Y-297600000D01*
X151224188Y-297724482D01*
X151260498Y-297844180D01*
X151319463Y-297954494D01*
X151398815Y-298051185D01*
X151495506Y-298130537D01*
X151605820Y-298189502D01*
X151725518Y-298225812D01*
X151850000Y-298238072D01*
X154360000Y-298238072D01*
X154484482Y-298225812D01*
X154604180Y-298189502D01*
X154714494Y-298130537D01*
X154811185Y-298051185D01*
X154890537Y-297954494D01*
X154949502Y-297844180D01*
X154985812Y-297724482D01*
X154998072Y-297600000D01*
X154998072Y-296650000D01*
X155995199Y-296650000D01*
X157155198Y-297809999D01*
X153923271Y-301041928D01*
X153759326Y-301041928D01*
X153739974Y-301005724D01*
X153645001Y-300889999D01*
X153616003Y-300866201D01*
X151878804Y-299129003D01*
X151855001Y-299099999D01*
X151739276Y-299005026D01*
X151659732Y-298962508D01*
X151639502Y-298895820D01*
X151580537Y-298785506D01*
X151501185Y-298688815D01*
X151404494Y-298609463D01*
X151294180Y-298550498D01*
X151174482Y-298514188D01*
X151050000Y-298501928D01*
X148540000Y-298501928D01*
X148415518Y-298514188D01*
X148295820Y-298550498D01*
X148185506Y-298609463D01*
X148088815Y-298688815D01*
X148009463Y-298785506D01*
X147950498Y-298895820D01*
X147914188Y-299015518D01*
X147901928Y-299140000D01*
X147901928Y-300140000D01*
X147914188Y-300264482D01*
X147950498Y-300384180D01*
X148009463Y-300494494D01*
X148088815Y-300591185D01*
X148185506Y-300670537D01*
X148295820Y-300729502D01*
X148415518Y-300765812D01*
X148540000Y-300778072D01*
X151050000Y-300778072D01*
X151174482Y-300765812D01*
X151294180Y-300729502D01*
X151317328Y-300717129D01*
X151670942Y-301070743D01*
X151605820Y-301090498D01*
X151495506Y-301149463D01*
X151398815Y-301228815D01*
X151319463Y-301325506D01*
X151295680Y-301370000D01*
X147704569Y-301370000D01*
X147697690Y-301361618D01*
X147628382Y-301292310D01*
X147531691Y-301212958D01*
X147450192Y-301158502D01*
X147339875Y-301099536D01*
X147249319Y-301062027D01*
X147129623Y-301025718D01*
X147033490Y-301006596D01*
X146909009Y-300994336D01*
X146884450Y-300994336D01*
X146860000Y-300991928D01*
X146360000Y-300991928D01*
X146335550Y-300994336D01*
X146310991Y-300994336D01*
X146186510Y-301006596D01*
X146090377Y-301025718D01*
X145970681Y-301062027D01*
X145880125Y-301099536D01*
X145769808Y-301158502D01*
X145688309Y-301212958D01*
X145591618Y-301292310D01*
X145533928Y-301350000D01*
X144804569Y-301350000D01*
X144797690Y-301341618D01*
X144728382Y-301272310D01*
X144631691Y-301192958D01*
X144550192Y-301138502D01*
X144439875Y-301079536D01*
X144349319Y-301042027D01*
X144229623Y-301005718D01*
X144133490Y-300986596D01*
X144009009Y-300974336D01*
X143984450Y-300974336D01*
X143960000Y-300971928D01*
X143646730Y-300971928D01*
X143060000Y-300385199D01*
X143060000Y-296968072D01*
X144500000Y-296968072D01*
X144624482Y-296955812D01*
X144744180Y-296919502D01*
X144854494Y-296860537D01*
X144951185Y-296781185D01*
X145030537Y-296684494D01*
X145089502Y-296574180D01*
X145112634Y-296497923D01*
X145174276Y-296464974D01*
X145238093Y-296412600D01*
X145244188Y-296474482D01*
X145244188Y-296474482D01*
G37*
X145244188Y-296474482D02*
X145280498Y-296594180D01*
X145339463Y-296704494D01*
X145418815Y-296801185D01*
X145515506Y-296880537D01*
X145625820Y-296939502D01*
X145745518Y-296975812D01*
X145870000Y-296988072D01*
X147370000Y-296988072D01*
X147494482Y-296975812D01*
X147614180Y-296939502D01*
X147724494Y-296880537D01*
X147821185Y-296801185D01*
X147900537Y-296704494D01*
X147929665Y-296650000D01*
X151211928Y-296650000D01*
X151211928Y-297600000D01*
X151224188Y-297724482D01*
X151260498Y-297844180D01*
X151319463Y-297954494D01*
X151398815Y-298051185D01*
X151495506Y-298130537D01*
X151605820Y-298189502D01*
X151725518Y-298225812D01*
X151850000Y-298238072D01*
X154360000Y-298238072D01*
X154484482Y-298225812D01*
X154604180Y-298189502D01*
X154714494Y-298130537D01*
X154811185Y-298051185D01*
X154890537Y-297954494D01*
X154949502Y-297844180D01*
X154985812Y-297724482D01*
X154998072Y-297600000D01*
X154998072Y-296650000D01*
X155995199Y-296650000D01*
X157155198Y-297809999D01*
X153923271Y-301041928D01*
X153759326Y-301041928D01*
X153739974Y-301005724D01*
X153645001Y-300889999D01*
X153616003Y-300866201D01*
X151878804Y-299129003D01*
X151855001Y-299099999D01*
X151739276Y-299005026D01*
X151659732Y-298962508D01*
X151639502Y-298895820D01*
X151580537Y-298785506D01*
X151501185Y-298688815D01*
X151404494Y-298609463D01*
X151294180Y-298550498D01*
X151174482Y-298514188D01*
X151050000Y-298501928D01*
X148540000Y-298501928D01*
X148415518Y-298514188D01*
X148295820Y-298550498D01*
X148185506Y-298609463D01*
X148088815Y-298688815D01*
X148009463Y-298785506D01*
X147950498Y-298895820D01*
X147914188Y-299015518D01*
X147901928Y-299140000D01*
X147901928Y-300140000D01*
X147914188Y-300264482D01*
X147950498Y-300384180D01*
X148009463Y-300494494D01*
X148088815Y-300591185D01*
X148185506Y-300670537D01*
X148295820Y-300729502D01*
X148415518Y-300765812D01*
X148540000Y-300778072D01*
X151050000Y-300778072D01*
X151174482Y-300765812D01*
X151294180Y-300729502D01*
X151317328Y-300717129D01*
X151670942Y-301070743D01*
X151605820Y-301090498D01*
X151495506Y-301149463D01*
X151398815Y-301228815D01*
X151319463Y-301325506D01*
X151295680Y-301370000D01*
X147704569Y-301370000D01*
X147697690Y-301361618D01*
X147628382Y-301292310D01*
X147531691Y-301212958D01*
X147450192Y-301158502D01*
X147339875Y-301099536D01*
X147249319Y-301062027D01*
X147129623Y-301025718D01*
X147033490Y-301006596D01*
X146909009Y-300994336D01*
X146884450Y-300994336D01*
X146860000Y-300991928D01*
X146360000Y-300991928D01*
X146335550Y-300994336D01*
X146310991Y-300994336D01*
X146186510Y-301006596D01*
X146090377Y-301025718D01*
X145970681Y-301062027D01*
X145880125Y-301099536D01*
X145769808Y-301158502D01*
X145688309Y-301212958D01*
X145591618Y-301292310D01*
X145533928Y-301350000D01*
X144804569Y-301350000D01*
X144797690Y-301341618D01*
X144728382Y-301272310D01*
X144631691Y-301192958D01*
X144550192Y-301138502D01*
X144439875Y-301079536D01*
X144349319Y-301042027D01*
X144229623Y-301005718D01*
X144133490Y-300986596D01*
X144009009Y-300974336D01*
X143984450Y-300974336D01*
X143960000Y-300971928D01*
X143646730Y-300971928D01*
X143060000Y-300385199D01*
X143060000Y-296968072D01*
X144500000Y-296968072D01*
X144624482Y-296955812D01*
X144744180Y-296919502D01*
X144854494Y-296860537D01*
X144951185Y-296781185D01*
X145030537Y-296684494D01*
X145089502Y-296574180D01*
X145112634Y-296497923D01*
X145174276Y-296464974D01*
X145238093Y-296412600D01*
X145244188Y-296474482D01*
M02*
