M48
; DRILL file {KiCad (5.1.2)-2} date 28/08/2021 01:10:22
; FORMAT={-:-/ absolute / metric / decimal}
; #@! TF.CreationDate,2021-08-28T01:10:22-04:00
; #@! TF.GenerationSoftware,Kicad,Pcbnew,(5.1.2)-2
FMAT,2
METRIC
T1C0.400
T2C1.800
T3C2.700
T4C5.300
%
G90
G05
T1
X138.51Y-299.37
X141.32Y-299.54
X143.45Y-306.7
X144.22Y-299.5
X144.95Y-292.56
X148.7Y-306.96
X152.22Y-293.98
X154.44Y-304.79
X177.64Y-302.21
X178.31Y-297.8
X183.11Y-298.94
X184.08Y-295.94
T2
X131.61Y-332.68
X194.23Y-290.09
X131.61Y-290.09
X194.23Y-332.68
T3
X201.02Y-251.68
X124.83Y-251.71
X124.83Y-343.28
X201.03Y-343.29
T4
X193.44Y-311.41
X132.42Y-311.38
T0
M30
