G04 #@! TF.GenerationSoftware,KiCad,Pcbnew,(5.1.2)-2*
G04 #@! TF.CreationDate,2021-12-15T08:57:31-03:00*
G04 #@! TF.ProjectId,MAG_Plus,4d41475f-506c-4757-932e-6b696361645f,rev?*
G04 #@! TF.SameCoordinates,Original*
G04 #@! TF.FileFunction,Soldermask,Top*
G04 #@! TF.FilePolarity,Negative*
%FSLAX46Y46*%
G04 Gerber Fmt 4.6, Leading zero omitted, Abs format (unit mm)*
G04 Created by KiCad (PCBNEW (5.1.2)-2) date 2021-12-15 08:57:31*
%MOMM*%
%LPD*%
G04 APERTURE LIST*
%ADD10C,0.100000*%
G04 APERTURE END LIST*
D10*
G36*
X125248903Y-233563213D02*
G01*
X125471177Y-233607426D01*
X125889932Y-233780880D01*
X126266802Y-234032696D01*
X126587304Y-234353198D01*
X126839120Y-234730068D01*
X127012574Y-235148823D01*
X127101000Y-235593371D01*
X127101000Y-236046629D01*
X127012574Y-236491177D01*
X126839120Y-236909932D01*
X126587304Y-237286802D01*
X126266802Y-237607304D01*
X125889932Y-237859120D01*
X125471177Y-238032574D01*
X125248903Y-238076787D01*
X125026630Y-238121000D01*
X124573370Y-238121000D01*
X124351097Y-238076787D01*
X124128823Y-238032574D01*
X123710068Y-237859120D01*
X123333198Y-237607304D01*
X123012696Y-237286802D01*
X122760880Y-236909932D01*
X122587426Y-236491177D01*
X122499000Y-236046629D01*
X122499000Y-235593371D01*
X122587426Y-235148823D01*
X122760880Y-234730068D01*
X123012696Y-234353198D01*
X123333198Y-234032696D01*
X123710068Y-233780880D01*
X124128823Y-233607426D01*
X124351097Y-233563213D01*
X124573370Y-233519000D01*
X125026630Y-233519000D01*
X125248903Y-233563213D01*
X125248903Y-233563213D01*
G37*
G36*
X201438903Y-233553213D02*
G01*
X201661177Y-233597426D01*
X202079932Y-233770880D01*
X202456802Y-234022696D01*
X202777304Y-234343198D01*
X203029120Y-234720068D01*
X203202574Y-235138823D01*
X203291000Y-235583371D01*
X203291000Y-236036629D01*
X203202574Y-236481177D01*
X203029120Y-236899932D01*
X202777304Y-237276802D01*
X202456802Y-237597304D01*
X202079932Y-237849120D01*
X201661177Y-238022574D01*
X201438903Y-238066787D01*
X201216630Y-238111000D01*
X200763370Y-238111000D01*
X200541097Y-238066787D01*
X200318823Y-238022574D01*
X199900068Y-237849120D01*
X199523198Y-237597304D01*
X199202696Y-237276802D01*
X198950880Y-236899932D01*
X198777426Y-236481177D01*
X198689000Y-236036629D01*
X198689000Y-235583371D01*
X198777426Y-235138823D01*
X198950880Y-234720068D01*
X199202696Y-234343198D01*
X199523198Y-234022696D01*
X199900068Y-233770880D01*
X200318823Y-233597426D01*
X200541097Y-233553213D01*
X200763370Y-233509000D01*
X201216630Y-233509000D01*
X201438903Y-233553213D01*
X201438903Y-233553213D01*
G37*
G36*
X146672199Y-182669954D02*
G01*
X146684450Y-182670556D01*
X146702869Y-182670556D01*
X146725149Y-182672750D01*
X146809233Y-182689476D01*
X146830660Y-182695976D01*
X146909858Y-182728780D01*
X146915303Y-182731691D01*
X146915309Y-182731693D01*
X146924169Y-182736429D01*
X146924173Y-182736432D01*
X146929614Y-182739340D01*
X147000899Y-182786971D01*
X147018204Y-182801172D01*
X147078828Y-182861796D01*
X147093029Y-182879101D01*
X147140660Y-182950386D01*
X147143568Y-182955827D01*
X147143571Y-182955831D01*
X147148307Y-182964691D01*
X147148309Y-182964697D01*
X147151220Y-182970142D01*
X147184024Y-183049340D01*
X147190524Y-183070767D01*
X147207250Y-183154851D01*
X147209444Y-183177131D01*
X147209444Y-183195550D01*
X147210046Y-183207801D01*
X147211852Y-183226139D01*
X147211852Y-183763860D01*
X147210263Y-183779999D01*
X147205855Y-183794528D01*
X147200394Y-183807711D01*
X147195612Y-183831745D01*
X147195611Y-183856249D01*
X147200391Y-183880282D01*
X147209768Y-183902921D01*
X147211000Y-183904765D01*
X147211000Y-185136050D01*
X147204525Y-185148164D01*
X147197412Y-185171613D01*
X147195010Y-185195999D01*
X147197412Y-185220385D01*
X147204525Y-185243834D01*
X147206848Y-185248746D01*
X147210263Y-185260001D01*
X147211852Y-185276140D01*
X147211852Y-185813862D01*
X147210046Y-185832199D01*
X147209444Y-185844450D01*
X147209444Y-185862869D01*
X147207250Y-185885149D01*
X147190524Y-185969233D01*
X147184024Y-185990660D01*
X147151220Y-186069858D01*
X147148309Y-186075303D01*
X147148307Y-186075309D01*
X147143571Y-186084169D01*
X147143568Y-186084173D01*
X147140660Y-186089614D01*
X147093029Y-186160899D01*
X147078828Y-186178204D01*
X147018204Y-186238828D01*
X147000899Y-186253029D01*
X146929614Y-186300660D01*
X146924173Y-186303568D01*
X146924169Y-186303571D01*
X146915309Y-186308307D01*
X146915303Y-186308309D01*
X146909858Y-186311220D01*
X146830660Y-186344024D01*
X146809233Y-186350524D01*
X146725149Y-186367250D01*
X146702869Y-186369444D01*
X146684450Y-186369444D01*
X146672199Y-186370046D01*
X146653862Y-186371852D01*
X146166138Y-186371852D01*
X146147801Y-186370046D01*
X146135550Y-186369444D01*
X146117131Y-186369444D01*
X146094851Y-186367250D01*
X146010767Y-186350524D01*
X145989340Y-186344024D01*
X145910142Y-186311220D01*
X145904697Y-186308309D01*
X145904691Y-186308307D01*
X145895831Y-186303571D01*
X145895827Y-186303568D01*
X145890386Y-186300660D01*
X145819101Y-186253029D01*
X145801796Y-186238828D01*
X145741172Y-186178204D01*
X145726971Y-186160899D01*
X145679340Y-186089614D01*
X145676432Y-186084173D01*
X145676429Y-186084169D01*
X145671693Y-186075309D01*
X145671691Y-186075303D01*
X145668780Y-186069858D01*
X145635976Y-185990660D01*
X145629476Y-185969233D01*
X145612750Y-185885149D01*
X145610556Y-185862869D01*
X145610556Y-185844450D01*
X145609954Y-185832199D01*
X145608148Y-185813862D01*
X145608148Y-185276140D01*
X145609737Y-185260001D01*
X145614145Y-185245472D01*
X145619606Y-185232289D01*
X145624388Y-185208255D01*
X145624389Y-185183751D01*
X145619609Y-185159718D01*
X145610232Y-185137079D01*
X145609000Y-185135235D01*
X145609000Y-183903950D01*
X145615475Y-183891836D01*
X145622588Y-183868387D01*
X145624990Y-183844001D01*
X145622588Y-183819615D01*
X145615475Y-183796166D01*
X145613152Y-183791254D01*
X145609737Y-183779999D01*
X145608148Y-183763860D01*
X145608148Y-183226139D01*
X145609954Y-183207801D01*
X145610556Y-183195550D01*
X145610556Y-183177131D01*
X145612750Y-183154851D01*
X145629476Y-183070767D01*
X145635976Y-183049340D01*
X145668780Y-182970142D01*
X145671691Y-182964697D01*
X145671693Y-182964691D01*
X145676429Y-182955831D01*
X145676432Y-182955827D01*
X145679340Y-182950386D01*
X145726971Y-182879101D01*
X145741172Y-182861796D01*
X145801796Y-182801172D01*
X145819101Y-182786971D01*
X145890386Y-182739340D01*
X145895827Y-182736432D01*
X145895831Y-182736429D01*
X145904691Y-182731693D01*
X145904697Y-182731691D01*
X145910142Y-182728780D01*
X145989340Y-182695976D01*
X146010767Y-182689476D01*
X146094851Y-182672750D01*
X146117131Y-182670556D01*
X146135550Y-182670556D01*
X146147801Y-182669954D01*
X146166139Y-182668148D01*
X146653861Y-182668148D01*
X146672199Y-182669954D01*
X146672199Y-182669954D01*
G37*
G36*
X173971000Y-186371000D02*
G01*
X171359000Y-186371000D01*
X171359000Y-185269000D01*
X173971000Y-185269000D01*
X173971000Y-186371000D01*
X173971000Y-186371000D01*
G37*
G36*
X143802199Y-182649954D02*
G01*
X143814450Y-182650556D01*
X143832869Y-182650556D01*
X143855149Y-182652750D01*
X143939233Y-182669476D01*
X143960660Y-182675976D01*
X144039858Y-182708780D01*
X144045303Y-182711691D01*
X144045309Y-182711693D01*
X144054169Y-182716429D01*
X144054173Y-182716432D01*
X144059614Y-182719340D01*
X144130899Y-182766971D01*
X144148204Y-182781172D01*
X144208828Y-182841796D01*
X144223029Y-182859101D01*
X144270660Y-182930386D01*
X144273568Y-182935827D01*
X144273571Y-182935831D01*
X144278307Y-182944691D01*
X144278309Y-182944697D01*
X144281220Y-182950142D01*
X144314024Y-183029340D01*
X144320524Y-183050767D01*
X144337250Y-183134851D01*
X144339444Y-183157131D01*
X144339444Y-183175550D01*
X144340046Y-183187801D01*
X144341852Y-183206139D01*
X144341852Y-183743860D01*
X144340263Y-183759999D01*
X144335855Y-183774528D01*
X144330394Y-183787711D01*
X144325612Y-183811745D01*
X144325611Y-183836249D01*
X144330391Y-183860282D01*
X144339768Y-183882921D01*
X144341000Y-183884765D01*
X144341000Y-185116050D01*
X144334525Y-185128164D01*
X144327412Y-185151613D01*
X144325010Y-185175999D01*
X144327412Y-185200385D01*
X144334525Y-185223834D01*
X144336848Y-185228746D01*
X144340263Y-185240001D01*
X144341852Y-185256140D01*
X144341852Y-185793862D01*
X144340046Y-185812199D01*
X144339444Y-185824450D01*
X144339444Y-185842869D01*
X144337250Y-185865149D01*
X144320524Y-185949233D01*
X144314024Y-185970660D01*
X144281220Y-186049858D01*
X144278309Y-186055303D01*
X144278307Y-186055309D01*
X144273571Y-186064169D01*
X144273568Y-186064173D01*
X144270660Y-186069614D01*
X144223029Y-186140899D01*
X144208828Y-186158204D01*
X144148204Y-186218828D01*
X144130899Y-186233029D01*
X144059614Y-186280660D01*
X144054173Y-186283568D01*
X144054169Y-186283571D01*
X144045309Y-186288307D01*
X144045303Y-186288309D01*
X144039858Y-186291220D01*
X143960660Y-186324024D01*
X143939233Y-186330524D01*
X143855149Y-186347250D01*
X143832869Y-186349444D01*
X143814450Y-186349444D01*
X143802199Y-186350046D01*
X143783862Y-186351852D01*
X143296138Y-186351852D01*
X143277801Y-186350046D01*
X143265550Y-186349444D01*
X143247131Y-186349444D01*
X143224851Y-186347250D01*
X143140767Y-186330524D01*
X143119340Y-186324024D01*
X143040142Y-186291220D01*
X143034697Y-186288309D01*
X143034691Y-186288307D01*
X143025831Y-186283571D01*
X143025827Y-186283568D01*
X143020386Y-186280660D01*
X142949101Y-186233029D01*
X142931796Y-186218828D01*
X142871172Y-186158204D01*
X142856971Y-186140899D01*
X142809340Y-186069614D01*
X142806432Y-186064173D01*
X142806429Y-186064169D01*
X142801693Y-186055309D01*
X142801691Y-186055303D01*
X142798780Y-186049858D01*
X142765976Y-185970660D01*
X142759476Y-185949233D01*
X142742750Y-185865149D01*
X142740556Y-185842869D01*
X142740556Y-185824450D01*
X142739954Y-185812199D01*
X142738148Y-185793862D01*
X142738148Y-185256140D01*
X142739737Y-185240001D01*
X142744145Y-185225472D01*
X142749606Y-185212289D01*
X142754388Y-185188255D01*
X142754389Y-185163751D01*
X142749609Y-185139718D01*
X142740232Y-185117079D01*
X142739000Y-185115235D01*
X142739000Y-183883950D01*
X142745475Y-183871836D01*
X142752588Y-183848387D01*
X142754990Y-183824001D01*
X142752588Y-183799615D01*
X142745475Y-183776166D01*
X142743152Y-183771254D01*
X142739737Y-183759999D01*
X142738148Y-183743860D01*
X142738148Y-183206139D01*
X142739954Y-183187801D01*
X142740556Y-183175550D01*
X142740556Y-183157131D01*
X142742750Y-183134851D01*
X142759476Y-183050767D01*
X142765976Y-183029340D01*
X142798780Y-182950142D01*
X142801691Y-182944697D01*
X142801693Y-182944691D01*
X142806429Y-182935831D01*
X142806432Y-182935827D01*
X142809340Y-182930386D01*
X142856971Y-182859101D01*
X142871172Y-182841796D01*
X142931796Y-182781172D01*
X142949101Y-182766971D01*
X143020386Y-182719340D01*
X143025827Y-182716432D01*
X143025831Y-182716429D01*
X143034691Y-182711693D01*
X143034697Y-182711691D01*
X143040142Y-182708780D01*
X143119340Y-182675976D01*
X143140767Y-182669476D01*
X143224851Y-182652750D01*
X143247131Y-182650556D01*
X143265550Y-182650556D01*
X143277801Y-182649954D01*
X143296139Y-182648148D01*
X143783861Y-182648148D01*
X143802199Y-182649954D01*
X143802199Y-182649954D01*
G37*
G36*
X154281000Y-186351000D02*
G01*
X151669000Y-186351000D01*
X151669000Y-185249000D01*
X154281000Y-185249000D01*
X154281000Y-186351000D01*
X154281000Y-186351000D01*
G37*
G36*
X178501000Y-186181000D02*
G01*
X177999000Y-186181000D01*
X177999000Y-185479000D01*
X178501000Y-185479000D01*
X178501000Y-186181000D01*
X178501000Y-186181000D01*
G37*
G36*
X179401000Y-186181000D02*
G01*
X178899000Y-186181000D01*
X178899000Y-185479000D01*
X179401000Y-185479000D01*
X179401000Y-186181000D01*
X179401000Y-186181000D01*
G37*
G36*
X177281000Y-183831000D02*
G01*
X174669000Y-183831000D01*
X174669000Y-182729000D01*
X177281000Y-182729000D01*
X177281000Y-183831000D01*
X177281000Y-183831000D01*
G37*
G36*
X150971000Y-183811000D02*
G01*
X148359000Y-183811000D01*
X148359000Y-182709000D01*
X150971000Y-182709000D01*
X150971000Y-183811000D01*
X150971000Y-183811000D01*
G37*
G36*
X173971000Y-181291000D02*
G01*
X171359000Y-181291000D01*
X171359000Y-180189000D01*
X173971000Y-180189000D01*
X173971000Y-181291000D01*
X173971000Y-181291000D01*
G37*
G36*
X154281000Y-181271000D02*
G01*
X151669000Y-181271000D01*
X151669000Y-180169000D01*
X154281000Y-180169000D01*
X154281000Y-181271000D01*
X154281000Y-181271000D01*
G37*
G36*
X179391000Y-181091000D02*
G01*
X178889000Y-181091000D01*
X178889000Y-180389000D01*
X179391000Y-180389000D01*
X179391000Y-181091000D01*
X179391000Y-181091000D01*
G37*
G36*
X178491000Y-181091000D02*
G01*
X177989000Y-181091000D01*
X177989000Y-180389000D01*
X178491000Y-180389000D01*
X178491000Y-181091000D01*
X178491000Y-181091000D01*
G37*
G36*
X161156000Y-179106000D02*
G01*
X159604000Y-179106000D01*
X159604000Y-176604000D01*
X161156000Y-176604000D01*
X161156000Y-179106000D01*
X161156000Y-179106000D01*
G37*
G36*
X165556000Y-179106000D02*
G01*
X164004000Y-179106000D01*
X164004000Y-176604000D01*
X165556000Y-176604000D01*
X165556000Y-179106000D01*
X165556000Y-179106000D01*
G37*
G36*
X141002199Y-175119954D02*
G01*
X141014450Y-175120556D01*
X141032869Y-175120556D01*
X141055149Y-175122750D01*
X141139233Y-175139476D01*
X141160660Y-175145976D01*
X141239858Y-175178780D01*
X141245303Y-175181691D01*
X141245309Y-175181693D01*
X141254169Y-175186429D01*
X141254173Y-175186432D01*
X141259614Y-175189340D01*
X141330899Y-175236971D01*
X141348204Y-175251172D01*
X141408828Y-175311796D01*
X141423029Y-175329101D01*
X141470660Y-175400386D01*
X141473568Y-175405827D01*
X141473571Y-175405831D01*
X141478307Y-175414691D01*
X141478309Y-175414697D01*
X141481220Y-175420142D01*
X141514024Y-175499340D01*
X141520524Y-175520767D01*
X141537250Y-175604851D01*
X141539444Y-175627131D01*
X141539444Y-175645550D01*
X141540046Y-175657801D01*
X141541852Y-175676139D01*
X141541852Y-176213860D01*
X141540263Y-176229999D01*
X141535855Y-176244528D01*
X141530394Y-176257711D01*
X141525612Y-176281745D01*
X141525611Y-176306249D01*
X141530391Y-176330282D01*
X141539768Y-176352921D01*
X141541000Y-176354765D01*
X141541000Y-177586050D01*
X141534525Y-177598164D01*
X141527412Y-177621613D01*
X141525010Y-177645999D01*
X141527412Y-177670385D01*
X141534525Y-177693834D01*
X141536848Y-177698746D01*
X141540263Y-177710001D01*
X141541852Y-177726140D01*
X141541852Y-178263862D01*
X141540046Y-178282199D01*
X141539444Y-178294450D01*
X141539444Y-178312869D01*
X141537250Y-178335149D01*
X141520524Y-178419233D01*
X141514024Y-178440660D01*
X141481220Y-178519858D01*
X141478309Y-178525303D01*
X141478307Y-178525309D01*
X141473571Y-178534169D01*
X141473568Y-178534173D01*
X141470660Y-178539614D01*
X141423029Y-178610899D01*
X141408828Y-178628204D01*
X141348204Y-178688828D01*
X141330899Y-178703029D01*
X141259614Y-178750660D01*
X141254173Y-178753568D01*
X141254169Y-178753571D01*
X141245309Y-178758307D01*
X141245303Y-178758309D01*
X141239858Y-178761220D01*
X141160660Y-178794024D01*
X141139233Y-178800524D01*
X141055149Y-178817250D01*
X141032869Y-178819444D01*
X141014450Y-178819444D01*
X141002199Y-178820046D01*
X140983862Y-178821852D01*
X140496138Y-178821852D01*
X140477801Y-178820046D01*
X140465550Y-178819444D01*
X140447131Y-178819444D01*
X140424851Y-178817250D01*
X140340767Y-178800524D01*
X140319340Y-178794024D01*
X140240142Y-178761220D01*
X140234697Y-178758309D01*
X140234691Y-178758307D01*
X140225831Y-178753571D01*
X140225827Y-178753568D01*
X140220386Y-178750660D01*
X140149101Y-178703029D01*
X140131796Y-178688828D01*
X140071172Y-178628204D01*
X140056971Y-178610899D01*
X140009340Y-178539614D01*
X140006432Y-178534173D01*
X140006429Y-178534169D01*
X140001693Y-178525309D01*
X140001691Y-178525303D01*
X139998780Y-178519858D01*
X139965976Y-178440660D01*
X139959476Y-178419233D01*
X139942750Y-178335149D01*
X139940556Y-178312869D01*
X139940556Y-178294450D01*
X139939954Y-178282199D01*
X139938148Y-178263862D01*
X139938148Y-177726140D01*
X139939737Y-177710001D01*
X139944145Y-177695472D01*
X139949606Y-177682289D01*
X139954388Y-177658255D01*
X139954389Y-177633751D01*
X139949609Y-177609718D01*
X139940232Y-177587079D01*
X139939000Y-177585235D01*
X139939000Y-176353950D01*
X139945475Y-176341836D01*
X139952588Y-176318387D01*
X139954990Y-176294001D01*
X139952588Y-176269615D01*
X139945475Y-176246166D01*
X139943152Y-176241254D01*
X139939737Y-176229999D01*
X139938148Y-176213860D01*
X139938148Y-175676139D01*
X139939954Y-175657801D01*
X139940556Y-175645550D01*
X139940556Y-175627131D01*
X139942750Y-175604851D01*
X139959476Y-175520767D01*
X139965976Y-175499340D01*
X139998780Y-175420142D01*
X140001691Y-175414697D01*
X140001693Y-175414691D01*
X140006429Y-175405831D01*
X140006432Y-175405827D01*
X140009340Y-175400386D01*
X140056971Y-175329101D01*
X140071172Y-175311796D01*
X140131796Y-175251172D01*
X140149101Y-175236971D01*
X140220386Y-175189340D01*
X140225827Y-175186432D01*
X140225831Y-175186429D01*
X140234691Y-175181693D01*
X140234697Y-175181691D01*
X140240142Y-175178780D01*
X140319340Y-175145976D01*
X140340767Y-175139476D01*
X140424851Y-175122750D01*
X140447131Y-175120556D01*
X140465550Y-175120556D01*
X140477801Y-175119954D01*
X140496139Y-175118148D01*
X140983861Y-175118148D01*
X141002199Y-175119954D01*
X141002199Y-175119954D01*
G37*
G36*
X143882199Y-175099954D02*
G01*
X143894450Y-175100556D01*
X143912869Y-175100556D01*
X143935149Y-175102750D01*
X144019233Y-175119476D01*
X144040660Y-175125976D01*
X144119858Y-175158780D01*
X144125303Y-175161691D01*
X144125309Y-175161693D01*
X144134169Y-175166429D01*
X144134173Y-175166432D01*
X144139614Y-175169340D01*
X144210899Y-175216971D01*
X144228204Y-175231172D01*
X144288828Y-175291796D01*
X144303029Y-175309101D01*
X144350660Y-175380386D01*
X144353568Y-175385827D01*
X144353571Y-175385831D01*
X144358307Y-175394691D01*
X144358309Y-175394697D01*
X144361220Y-175400142D01*
X144394024Y-175479340D01*
X144400524Y-175500767D01*
X144417250Y-175584851D01*
X144419444Y-175607131D01*
X144419444Y-175625550D01*
X144420046Y-175637801D01*
X144421852Y-175656139D01*
X144421852Y-176193860D01*
X144420263Y-176209999D01*
X144415855Y-176224528D01*
X144410394Y-176237711D01*
X144405612Y-176261745D01*
X144405611Y-176286249D01*
X144410391Y-176310282D01*
X144419768Y-176332921D01*
X144421000Y-176334765D01*
X144421000Y-177566050D01*
X144414525Y-177578164D01*
X144407412Y-177601613D01*
X144405010Y-177625999D01*
X144407412Y-177650385D01*
X144414525Y-177673834D01*
X144416848Y-177678746D01*
X144420263Y-177690001D01*
X144421852Y-177706140D01*
X144421852Y-178243862D01*
X144420046Y-178262199D01*
X144419444Y-178274450D01*
X144419444Y-178292869D01*
X144417250Y-178315149D01*
X144400524Y-178399233D01*
X144394024Y-178420660D01*
X144361220Y-178499858D01*
X144358309Y-178505303D01*
X144358307Y-178505309D01*
X144353571Y-178514169D01*
X144353568Y-178514173D01*
X144350660Y-178519614D01*
X144303029Y-178590899D01*
X144288828Y-178608204D01*
X144228204Y-178668828D01*
X144210899Y-178683029D01*
X144139614Y-178730660D01*
X144134173Y-178733568D01*
X144134169Y-178733571D01*
X144125309Y-178738307D01*
X144125303Y-178738309D01*
X144119858Y-178741220D01*
X144040660Y-178774024D01*
X144019233Y-178780524D01*
X143935149Y-178797250D01*
X143912869Y-178799444D01*
X143894450Y-178799444D01*
X143882199Y-178800046D01*
X143863862Y-178801852D01*
X143376138Y-178801852D01*
X143357801Y-178800046D01*
X143345550Y-178799444D01*
X143327131Y-178799444D01*
X143304851Y-178797250D01*
X143220767Y-178780524D01*
X143199340Y-178774024D01*
X143120142Y-178741220D01*
X143114697Y-178738309D01*
X143114691Y-178738307D01*
X143105831Y-178733571D01*
X143105827Y-178733568D01*
X143100386Y-178730660D01*
X143029101Y-178683029D01*
X143011796Y-178668828D01*
X142951172Y-178608204D01*
X142936971Y-178590899D01*
X142889340Y-178519614D01*
X142886432Y-178514173D01*
X142886429Y-178514169D01*
X142881693Y-178505309D01*
X142881691Y-178505303D01*
X142878780Y-178499858D01*
X142845976Y-178420660D01*
X142839476Y-178399233D01*
X142822750Y-178315149D01*
X142820556Y-178292869D01*
X142820556Y-178274450D01*
X142819954Y-178262199D01*
X142818148Y-178243862D01*
X142818148Y-177706140D01*
X142819737Y-177690001D01*
X142824145Y-177675472D01*
X142829606Y-177662289D01*
X142834388Y-177638255D01*
X142834389Y-177613751D01*
X142829609Y-177589718D01*
X142820232Y-177567079D01*
X142819000Y-177565235D01*
X142819000Y-176333950D01*
X142825475Y-176321836D01*
X142832588Y-176298387D01*
X142834990Y-176274001D01*
X142832588Y-176249615D01*
X142825475Y-176226166D01*
X142823152Y-176221254D01*
X142819737Y-176209999D01*
X142818148Y-176193860D01*
X142818148Y-175656139D01*
X142819954Y-175637801D01*
X142820556Y-175625550D01*
X142820556Y-175607131D01*
X142822750Y-175584851D01*
X142839476Y-175500767D01*
X142845976Y-175479340D01*
X142878780Y-175400142D01*
X142881691Y-175394697D01*
X142881693Y-175394691D01*
X142886429Y-175385831D01*
X142886432Y-175385827D01*
X142889340Y-175380386D01*
X142936971Y-175309101D01*
X142951172Y-175291796D01*
X143011796Y-175231172D01*
X143029101Y-175216971D01*
X143100386Y-175169340D01*
X143105827Y-175166432D01*
X143105831Y-175166429D01*
X143114691Y-175161693D01*
X143114697Y-175161691D01*
X143120142Y-175158780D01*
X143199340Y-175125976D01*
X143220767Y-175119476D01*
X143304851Y-175102750D01*
X143327131Y-175100556D01*
X143345550Y-175100556D01*
X143357801Y-175099954D01*
X143376139Y-175098148D01*
X143863861Y-175098148D01*
X143882199Y-175099954D01*
X143882199Y-175099954D01*
G37*
G36*
X146762199Y-175099954D02*
G01*
X146774450Y-175100556D01*
X146792869Y-175100556D01*
X146815149Y-175102750D01*
X146899233Y-175119476D01*
X146920660Y-175125976D01*
X146999858Y-175158780D01*
X147005303Y-175161691D01*
X147005309Y-175161693D01*
X147014169Y-175166429D01*
X147014173Y-175166432D01*
X147019614Y-175169340D01*
X147090899Y-175216971D01*
X147108204Y-175231172D01*
X147168828Y-175291796D01*
X147183029Y-175309101D01*
X147230660Y-175380386D01*
X147233568Y-175385827D01*
X147233571Y-175385831D01*
X147238307Y-175394691D01*
X147238309Y-175394697D01*
X147241220Y-175400142D01*
X147274024Y-175479340D01*
X147280524Y-175500767D01*
X147297250Y-175584851D01*
X147299444Y-175607131D01*
X147299444Y-175625550D01*
X147300046Y-175637801D01*
X147301852Y-175656139D01*
X147301852Y-176193860D01*
X147300263Y-176209999D01*
X147295855Y-176224528D01*
X147290394Y-176237711D01*
X147285612Y-176261745D01*
X147285611Y-176286249D01*
X147290391Y-176310282D01*
X147299768Y-176332921D01*
X147301000Y-176334765D01*
X147301000Y-177566050D01*
X147294525Y-177578164D01*
X147287412Y-177601613D01*
X147285010Y-177625999D01*
X147287412Y-177650385D01*
X147294525Y-177673834D01*
X147296848Y-177678746D01*
X147300263Y-177690001D01*
X147301852Y-177706140D01*
X147301852Y-178243862D01*
X147300046Y-178262199D01*
X147299444Y-178274450D01*
X147299444Y-178292869D01*
X147297250Y-178315149D01*
X147280524Y-178399233D01*
X147274024Y-178420660D01*
X147241220Y-178499858D01*
X147238309Y-178505303D01*
X147238307Y-178505309D01*
X147233571Y-178514169D01*
X147233568Y-178514173D01*
X147230660Y-178519614D01*
X147183029Y-178590899D01*
X147168828Y-178608204D01*
X147108204Y-178668828D01*
X147090899Y-178683029D01*
X147019614Y-178730660D01*
X147014173Y-178733568D01*
X147014169Y-178733571D01*
X147005309Y-178738307D01*
X147005303Y-178738309D01*
X146999858Y-178741220D01*
X146920660Y-178774024D01*
X146899233Y-178780524D01*
X146815149Y-178797250D01*
X146792869Y-178799444D01*
X146774450Y-178799444D01*
X146762199Y-178800046D01*
X146743862Y-178801852D01*
X146256138Y-178801852D01*
X146237801Y-178800046D01*
X146225550Y-178799444D01*
X146207131Y-178799444D01*
X146184851Y-178797250D01*
X146100767Y-178780524D01*
X146079340Y-178774024D01*
X146000142Y-178741220D01*
X145994697Y-178738309D01*
X145994691Y-178738307D01*
X145985831Y-178733571D01*
X145985827Y-178733568D01*
X145980386Y-178730660D01*
X145909101Y-178683029D01*
X145891796Y-178668828D01*
X145831172Y-178608204D01*
X145816971Y-178590899D01*
X145769340Y-178519614D01*
X145766432Y-178514173D01*
X145766429Y-178514169D01*
X145761693Y-178505309D01*
X145761691Y-178505303D01*
X145758780Y-178499858D01*
X145725976Y-178420660D01*
X145719476Y-178399233D01*
X145702750Y-178315149D01*
X145700556Y-178292869D01*
X145700556Y-178274450D01*
X145699954Y-178262199D01*
X145698148Y-178243862D01*
X145698148Y-177706140D01*
X145699737Y-177690001D01*
X145704145Y-177675472D01*
X145709606Y-177662289D01*
X145714388Y-177638255D01*
X145714389Y-177613751D01*
X145709609Y-177589718D01*
X145700232Y-177567079D01*
X145699000Y-177565235D01*
X145699000Y-176333950D01*
X145705475Y-176321836D01*
X145712588Y-176298387D01*
X145714990Y-176274001D01*
X145712588Y-176249615D01*
X145705475Y-176226166D01*
X145703152Y-176221254D01*
X145699737Y-176209999D01*
X145698148Y-176193860D01*
X145698148Y-175656139D01*
X145699954Y-175637801D01*
X145700556Y-175625550D01*
X145700556Y-175607131D01*
X145702750Y-175584851D01*
X145719476Y-175500767D01*
X145725976Y-175479340D01*
X145758780Y-175400142D01*
X145761691Y-175394697D01*
X145761693Y-175394691D01*
X145766429Y-175385831D01*
X145766432Y-175385827D01*
X145769340Y-175380386D01*
X145816971Y-175309101D01*
X145831172Y-175291796D01*
X145891796Y-175231172D01*
X145909101Y-175216971D01*
X145980386Y-175169340D01*
X145985827Y-175166432D01*
X145985831Y-175166429D01*
X145994691Y-175161693D01*
X145994697Y-175161691D01*
X146000142Y-175158780D01*
X146079340Y-175125976D01*
X146100767Y-175119476D01*
X146184851Y-175102750D01*
X146207131Y-175100556D01*
X146225550Y-175100556D01*
X146237801Y-175099954D01*
X146256139Y-175098148D01*
X146743861Y-175098148D01*
X146762199Y-175099954D01*
X146762199Y-175099954D01*
G37*
G36*
X177281000Y-178751000D02*
G01*
X174669000Y-178751000D01*
X174669000Y-177649000D01*
X177281000Y-177649000D01*
X177281000Y-178751000D01*
X177281000Y-178751000D01*
G37*
G36*
X150971000Y-178731000D02*
G01*
X148359000Y-178731000D01*
X148359000Y-177629000D01*
X150971000Y-177629000D01*
X150971000Y-178731000D01*
X150971000Y-178731000D01*
G37*
G36*
X173971000Y-176211000D02*
G01*
X171359000Y-176211000D01*
X171359000Y-175109000D01*
X173971000Y-175109000D01*
X173971000Y-176211000D01*
X173971000Y-176211000D01*
G37*
G36*
X154281000Y-176191000D02*
G01*
X151669000Y-176191000D01*
X151669000Y-175089000D01*
X154281000Y-175089000D01*
X154281000Y-176191000D01*
X154281000Y-176191000D01*
G37*
G36*
X177281000Y-173671000D02*
G01*
X174669000Y-173671000D01*
X174669000Y-172569000D01*
X177281000Y-172569000D01*
X177281000Y-173671000D01*
X177281000Y-173671000D01*
G37*
G36*
X150971000Y-173651000D02*
G01*
X148359000Y-173651000D01*
X148359000Y-172549000D01*
X150971000Y-172549000D01*
X150971000Y-173651000D01*
X150971000Y-173651000D01*
G37*
G36*
X173971000Y-171131000D02*
G01*
X171359000Y-171131000D01*
X171359000Y-170029000D01*
X173971000Y-170029000D01*
X173971000Y-171131000D01*
X173971000Y-171131000D01*
G37*
G36*
X154281000Y-171111000D02*
G01*
X151669000Y-171111000D01*
X151669000Y-170009000D01*
X154281000Y-170009000D01*
X154281000Y-171111000D01*
X154281000Y-171111000D01*
G37*
G36*
X193206000Y-160326000D02*
G01*
X192304000Y-160326000D01*
X192304000Y-158724000D01*
X193206000Y-158724000D01*
X193206000Y-160326000D01*
X193206000Y-160326000D01*
G37*
G36*
X191956000Y-160326000D02*
G01*
X191054000Y-160326000D01*
X191054000Y-158724000D01*
X191956000Y-158724000D01*
X191956000Y-160326000D01*
X191956000Y-160326000D01*
G37*
G36*
X190706000Y-160326000D02*
G01*
X189804000Y-160326000D01*
X189804000Y-158724000D01*
X190706000Y-158724000D01*
X190706000Y-160326000D01*
X190706000Y-160326000D01*
G37*
G36*
X194456000Y-160326000D02*
G01*
X193554000Y-160326000D01*
X193554000Y-158724000D01*
X194456000Y-158724000D01*
X194456000Y-160326000D01*
X194456000Y-160326000D01*
G37*
G36*
X197656000Y-158376000D02*
G01*
X195354000Y-158376000D01*
X195354000Y-155174000D01*
X197656000Y-155174000D01*
X197656000Y-158376000D01*
X197656000Y-158376000D01*
G37*
G36*
X188906000Y-158376000D02*
G01*
X186604000Y-158376000D01*
X186604000Y-155174000D01*
X188906000Y-155174000D01*
X188906000Y-158376000D01*
X188906000Y-158376000D01*
G37*
G36*
X201448903Y-141953213D02*
G01*
X201671177Y-141997426D01*
X202089932Y-142170880D01*
X202466802Y-142422696D01*
X202787304Y-142743198D01*
X203039120Y-143120068D01*
X203212574Y-143538823D01*
X203301000Y-143983371D01*
X203301000Y-144436629D01*
X203212574Y-144881177D01*
X203039120Y-145299932D01*
X202787304Y-145676802D01*
X202466802Y-145997304D01*
X202089932Y-146249120D01*
X201671177Y-146422574D01*
X201448903Y-146466787D01*
X201226630Y-146511000D01*
X200773370Y-146511000D01*
X200551097Y-146466787D01*
X200328823Y-146422574D01*
X199910068Y-146249120D01*
X199533198Y-145997304D01*
X199212696Y-145676802D01*
X198960880Y-145299932D01*
X198787426Y-144881177D01*
X198699000Y-144436629D01*
X198699000Y-143983371D01*
X198787426Y-143538823D01*
X198960880Y-143120068D01*
X199212696Y-142743198D01*
X199533198Y-142422696D01*
X199910068Y-142170880D01*
X200328823Y-141997426D01*
X200551097Y-141953213D01*
X200773370Y-141909000D01*
X201226630Y-141909000D01*
X201448903Y-141953213D01*
X201448903Y-141953213D01*
G37*
G36*
X125248903Y-141943213D02*
G01*
X125471177Y-141987426D01*
X125889932Y-142160880D01*
X126266802Y-142412696D01*
X126587304Y-142733198D01*
X126839120Y-143110068D01*
X127012574Y-143528823D01*
X127101000Y-143973371D01*
X127101000Y-144426629D01*
X127012574Y-144871177D01*
X126839120Y-145289932D01*
X126587304Y-145666802D01*
X126266802Y-145987304D01*
X125889932Y-146239120D01*
X125471177Y-146412574D01*
X125248903Y-146456787D01*
X125026630Y-146501000D01*
X124573370Y-146501000D01*
X124351097Y-146456787D01*
X124128823Y-146412574D01*
X123710068Y-146239120D01*
X123333198Y-145987304D01*
X123012696Y-145666802D01*
X122760880Y-145289932D01*
X122587426Y-144871177D01*
X122499000Y-144426629D01*
X122499000Y-143973371D01*
X122587426Y-143528823D01*
X122760880Y-143110068D01*
X123012696Y-142733198D01*
X123333198Y-142412696D01*
X123710068Y-142160880D01*
X124128823Y-141987426D01*
X124351097Y-141943213D01*
X124573370Y-141899000D01*
X125026630Y-141899000D01*
X125248903Y-141943213D01*
X125248903Y-141943213D01*
G37*
M02*
