G04 #@! TF.GenerationSoftware,KiCad,Pcbnew,(5.1.2)-2*
G04 #@! TF.CreationDate,2021-12-15T08:57:30-03:00*
G04 #@! TF.ProjectId,MAG_Plus,4d41475f-506c-4757-932e-6b696361645f,rev?*
G04 #@! TF.SameCoordinates,Original*
G04 #@! TF.FileFunction,Copper,L2,Bot*
G04 #@! TF.FilePolarity,Positive*
%FSLAX46Y46*%
G04 Gerber Fmt 4.6, Leading zero omitted, Abs format (unit mm)*
G04 Created by KiCad (PCBNEW (5.1.2)-2) date 2021-12-15 08:57:30*
%MOMM*%
%LPD*%
G04 APERTURE LIST*
%ADD10C,4.500000*%
%ADD11C,0.800000*%
%ADD12C,0.250000*%
%ADD13C,0.254000*%
G04 APERTURE END LIST*
D10*
X200990000Y-235810000D03*
X124800000Y-235820000D03*
X201000000Y-144210000D03*
X124800000Y-144200000D03*
D11*
X184495000Y-178590000D03*
X175410000Y-181355000D03*
X145090000Y-180820000D03*
X138350000Y-180960000D03*
X156570000Y-186190000D03*
X143870000Y-187970000D03*
X167840000Y-175400000D03*
X170550000Y-172690000D03*
X144570000Y-173970000D03*
X148800000Y-175235000D03*
D12*
X184095001Y-178989999D02*
X184095001Y-179014999D01*
X184495000Y-178590000D02*
X184095001Y-178989999D01*
X184095001Y-179014999D02*
X181755000Y-181355000D01*
X181755000Y-181355000D02*
X175410000Y-181355000D01*
X138490000Y-180820000D02*
X138350000Y-180960000D01*
X145090000Y-180820000D02*
X138490000Y-180820000D01*
X156570000Y-186190000D02*
X156570000Y-186755685D01*
X156570000Y-186755685D02*
X156570000Y-187400000D01*
X156570000Y-187400000D02*
X155080000Y-188890000D01*
X155080000Y-188890000D02*
X144790000Y-188890000D01*
X144790000Y-188890000D02*
X143870000Y-187970000D01*
X167840000Y-175400000D02*
X168239999Y-175000001D01*
X168239999Y-175000001D02*
X170550000Y-172690000D01*
X148800000Y-175220000D02*
X148800000Y-175235000D01*
X147540000Y-173960000D02*
X148800000Y-175220000D01*
X144570000Y-173970000D02*
X144580000Y-173960000D01*
X144580000Y-173960000D02*
X147540000Y-173960000D01*
D13*
G36*
X122559074Y-237659080D02*
G01*
X122960920Y-238060926D01*
X123378583Y-238340000D01*
X122260000Y-238340000D01*
X122260000Y-237211484D01*
X122559074Y-237659080D01*
X122559074Y-237659080D01*
G37*
X122559074Y-237659080D02*
X122960920Y-238060926D01*
X123378583Y-238340000D01*
X122260000Y-238340000D01*
X122260000Y-237211484D01*
X122559074Y-237659080D01*
G36*
X203540001Y-238340000D02*
G01*
X202396451Y-238340000D01*
X202829080Y-238050926D01*
X203230926Y-237649080D01*
X203540001Y-237186517D01*
X203540001Y-238340000D01*
X203540001Y-238340000D01*
G37*
X203540001Y-238340000D02*
X202396451Y-238340000D01*
X202829080Y-238050926D01*
X203230926Y-237649080D01*
X203540001Y-237186517D01*
X203540001Y-238340000D01*
G36*
X199160920Y-141969074D02*
G01*
X198759074Y-142370920D01*
X198443346Y-142843440D01*
X198225869Y-143368477D01*
X198115000Y-143925852D01*
X198115000Y-144494148D01*
X198225869Y-145051523D01*
X198443346Y-145576560D01*
X198759074Y-146049080D01*
X199160920Y-146450926D01*
X199633440Y-146766654D01*
X200158477Y-146984131D01*
X200715852Y-147095000D01*
X201284148Y-147095000D01*
X201841523Y-146984131D01*
X202366560Y-146766654D01*
X202839080Y-146450926D01*
X203240926Y-146049080D01*
X203540000Y-145601484D01*
X203540001Y-234433483D01*
X203230926Y-233970920D01*
X202829080Y-233569074D01*
X202356560Y-233253346D01*
X201831523Y-233035869D01*
X201274148Y-232925000D01*
X200705852Y-232925000D01*
X200148477Y-233035869D01*
X199623440Y-233253346D01*
X199150920Y-233569074D01*
X198749074Y-233970920D01*
X198433346Y-234443440D01*
X198215869Y-234968477D01*
X198105000Y-235525852D01*
X198105000Y-236094148D01*
X198215869Y-236651523D01*
X198433346Y-237176560D01*
X198749074Y-237649080D01*
X199150920Y-238050926D01*
X199583549Y-238340000D01*
X126221417Y-238340000D01*
X126639080Y-238060926D01*
X127040926Y-237659080D01*
X127356654Y-237186560D01*
X127574131Y-236661523D01*
X127685000Y-236104148D01*
X127685000Y-235535852D01*
X127574131Y-234978477D01*
X127356654Y-234453440D01*
X127040926Y-233980920D01*
X126639080Y-233579074D01*
X126166560Y-233263346D01*
X125641523Y-233045869D01*
X125084148Y-232935000D01*
X124515852Y-232935000D01*
X123958477Y-233045869D01*
X123433440Y-233263346D01*
X122960920Y-233579074D01*
X122559074Y-233980920D01*
X122260000Y-234428516D01*
X122260000Y-187868061D01*
X142835000Y-187868061D01*
X142835000Y-188071939D01*
X142874774Y-188271898D01*
X142952795Y-188460256D01*
X143066063Y-188629774D01*
X143210226Y-188773937D01*
X143379744Y-188887205D01*
X143568102Y-188965226D01*
X143768061Y-189005000D01*
X143830198Y-189005000D01*
X144226205Y-189401008D01*
X144249999Y-189430001D01*
X144278992Y-189453795D01*
X144278996Y-189453799D01*
X144349685Y-189511811D01*
X144365724Y-189524974D01*
X144497753Y-189595546D01*
X144641014Y-189639003D01*
X144752667Y-189650000D01*
X144752676Y-189650000D01*
X144789999Y-189653676D01*
X144827322Y-189650000D01*
X155042678Y-189650000D01*
X155080000Y-189653676D01*
X155117322Y-189650000D01*
X155117333Y-189650000D01*
X155228986Y-189639003D01*
X155372247Y-189595546D01*
X155504276Y-189524974D01*
X155620001Y-189430001D01*
X155643804Y-189400997D01*
X157081003Y-187963799D01*
X157110001Y-187940001D01*
X157204974Y-187824276D01*
X157275546Y-187692247D01*
X157319003Y-187548986D01*
X157330000Y-187437333D01*
X157330000Y-187437324D01*
X157333676Y-187400001D01*
X157330000Y-187362678D01*
X157330000Y-186893711D01*
X157373937Y-186849774D01*
X157487205Y-186680256D01*
X157565226Y-186491898D01*
X157605000Y-186291939D01*
X157605000Y-186088061D01*
X157565226Y-185888102D01*
X157487205Y-185699744D01*
X157373937Y-185530226D01*
X157229774Y-185386063D01*
X157060256Y-185272795D01*
X156871898Y-185194774D01*
X156671939Y-185155000D01*
X156468061Y-185155000D01*
X156268102Y-185194774D01*
X156079744Y-185272795D01*
X155910226Y-185386063D01*
X155766063Y-185530226D01*
X155652795Y-185699744D01*
X155574774Y-185888102D01*
X155535000Y-186088061D01*
X155535000Y-186291939D01*
X155574774Y-186491898D01*
X155652795Y-186680256D01*
X155766063Y-186849774D01*
X155810000Y-186893711D01*
X155810000Y-187085198D01*
X154765199Y-188130000D01*
X145104802Y-188130000D01*
X144905000Y-187930198D01*
X144905000Y-187868061D01*
X144865226Y-187668102D01*
X144787205Y-187479744D01*
X144673937Y-187310226D01*
X144529774Y-187166063D01*
X144360256Y-187052795D01*
X144171898Y-186974774D01*
X143971939Y-186935000D01*
X143768061Y-186935000D01*
X143568102Y-186974774D01*
X143379744Y-187052795D01*
X143210226Y-187166063D01*
X143066063Y-187310226D01*
X142952795Y-187479744D01*
X142874774Y-187668102D01*
X142835000Y-187868061D01*
X122260000Y-187868061D01*
X122260000Y-180858061D01*
X137315000Y-180858061D01*
X137315000Y-181061939D01*
X137354774Y-181261898D01*
X137432795Y-181450256D01*
X137546063Y-181619774D01*
X137690226Y-181763937D01*
X137859744Y-181877205D01*
X138048102Y-181955226D01*
X138248061Y-181995000D01*
X138451939Y-181995000D01*
X138651898Y-181955226D01*
X138840256Y-181877205D01*
X139009774Y-181763937D01*
X139153937Y-181619774D01*
X139180513Y-181580000D01*
X144386289Y-181580000D01*
X144430226Y-181623937D01*
X144599744Y-181737205D01*
X144788102Y-181815226D01*
X144988061Y-181855000D01*
X145191939Y-181855000D01*
X145391898Y-181815226D01*
X145580256Y-181737205D01*
X145749774Y-181623937D01*
X145893937Y-181479774D01*
X146007205Y-181310256D01*
X146030896Y-181253061D01*
X174375000Y-181253061D01*
X174375000Y-181456939D01*
X174414774Y-181656898D01*
X174492795Y-181845256D01*
X174606063Y-182014774D01*
X174750226Y-182158937D01*
X174919744Y-182272205D01*
X175108102Y-182350226D01*
X175308061Y-182390000D01*
X175511939Y-182390000D01*
X175711898Y-182350226D01*
X175900256Y-182272205D01*
X176069774Y-182158937D01*
X176113711Y-182115000D01*
X181717678Y-182115000D01*
X181755000Y-182118676D01*
X181792322Y-182115000D01*
X181792333Y-182115000D01*
X181903986Y-182104003D01*
X182047247Y-182060546D01*
X182179276Y-181989974D01*
X182295001Y-181895001D01*
X182318804Y-181865997D01*
X184559802Y-179625000D01*
X184596939Y-179625000D01*
X184796898Y-179585226D01*
X184985256Y-179507205D01*
X185154774Y-179393937D01*
X185298937Y-179249774D01*
X185412205Y-179080256D01*
X185490226Y-178891898D01*
X185530000Y-178691939D01*
X185530000Y-178488061D01*
X185490226Y-178288102D01*
X185412205Y-178099744D01*
X185298937Y-177930226D01*
X185154774Y-177786063D01*
X184985256Y-177672795D01*
X184796898Y-177594774D01*
X184596939Y-177555000D01*
X184393061Y-177555000D01*
X184193102Y-177594774D01*
X184004744Y-177672795D01*
X183835226Y-177786063D01*
X183691063Y-177930226D01*
X183577795Y-178099744D01*
X183499774Y-178288102D01*
X183460000Y-178488061D01*
X183460000Y-178565774D01*
X183449178Y-178586020D01*
X181440199Y-180595000D01*
X176113711Y-180595000D01*
X176069774Y-180551063D01*
X175900256Y-180437795D01*
X175711898Y-180359774D01*
X175511939Y-180320000D01*
X175308061Y-180320000D01*
X175108102Y-180359774D01*
X174919744Y-180437795D01*
X174750226Y-180551063D01*
X174606063Y-180695226D01*
X174492795Y-180864744D01*
X174414774Y-181053102D01*
X174375000Y-181253061D01*
X146030896Y-181253061D01*
X146085226Y-181121898D01*
X146125000Y-180921939D01*
X146125000Y-180718061D01*
X146085226Y-180518102D01*
X146007205Y-180329744D01*
X145893937Y-180160226D01*
X145749774Y-180016063D01*
X145580256Y-179902795D01*
X145391898Y-179824774D01*
X145191939Y-179785000D01*
X144988061Y-179785000D01*
X144788102Y-179824774D01*
X144599744Y-179902795D01*
X144430226Y-180016063D01*
X144386289Y-180060000D01*
X138866005Y-180060000D01*
X138840256Y-180042795D01*
X138651898Y-179964774D01*
X138451939Y-179925000D01*
X138248061Y-179925000D01*
X138048102Y-179964774D01*
X137859744Y-180042795D01*
X137690226Y-180156063D01*
X137546063Y-180300226D01*
X137432795Y-180469744D01*
X137354774Y-180658102D01*
X137315000Y-180858061D01*
X122260000Y-180858061D01*
X122260000Y-173868061D01*
X143535000Y-173868061D01*
X143535000Y-174071939D01*
X143574774Y-174271898D01*
X143652795Y-174460256D01*
X143766063Y-174629774D01*
X143910226Y-174773937D01*
X144079744Y-174887205D01*
X144268102Y-174965226D01*
X144468061Y-175005000D01*
X144671939Y-175005000D01*
X144871898Y-174965226D01*
X145060256Y-174887205D01*
X145229774Y-174773937D01*
X145283711Y-174720000D01*
X147225199Y-174720000D01*
X147765000Y-175259802D01*
X147765000Y-175336939D01*
X147804774Y-175536898D01*
X147882795Y-175725256D01*
X147996063Y-175894774D01*
X148140226Y-176038937D01*
X148309744Y-176152205D01*
X148498102Y-176230226D01*
X148698061Y-176270000D01*
X148901939Y-176270000D01*
X149101898Y-176230226D01*
X149290256Y-176152205D01*
X149459774Y-176038937D01*
X149603937Y-175894774D01*
X149717205Y-175725256D01*
X149795226Y-175536898D01*
X149835000Y-175336939D01*
X149835000Y-175298061D01*
X166805000Y-175298061D01*
X166805000Y-175501939D01*
X166844774Y-175701898D01*
X166922795Y-175890256D01*
X167036063Y-176059774D01*
X167180226Y-176203937D01*
X167349744Y-176317205D01*
X167538102Y-176395226D01*
X167738061Y-176435000D01*
X167941939Y-176435000D01*
X168141898Y-176395226D01*
X168330256Y-176317205D01*
X168499774Y-176203937D01*
X168643937Y-176059774D01*
X168757205Y-175890256D01*
X168835226Y-175701898D01*
X168875000Y-175501939D01*
X168875000Y-175439801D01*
X170589802Y-173725000D01*
X170651939Y-173725000D01*
X170851898Y-173685226D01*
X171040256Y-173607205D01*
X171209774Y-173493937D01*
X171353937Y-173349774D01*
X171467205Y-173180256D01*
X171545226Y-172991898D01*
X171585000Y-172791939D01*
X171585000Y-172588061D01*
X171545226Y-172388102D01*
X171467205Y-172199744D01*
X171353937Y-172030226D01*
X171209774Y-171886063D01*
X171040256Y-171772795D01*
X170851898Y-171694774D01*
X170651939Y-171655000D01*
X170448061Y-171655000D01*
X170248102Y-171694774D01*
X170059744Y-171772795D01*
X169890226Y-171886063D01*
X169746063Y-172030226D01*
X169632795Y-172199744D01*
X169554774Y-172388102D01*
X169515000Y-172588061D01*
X169515000Y-172650198D01*
X167800199Y-174365000D01*
X167738061Y-174365000D01*
X167538102Y-174404774D01*
X167349744Y-174482795D01*
X167180226Y-174596063D01*
X167036063Y-174740226D01*
X166922795Y-174909744D01*
X166844774Y-175098102D01*
X166805000Y-175298061D01*
X149835000Y-175298061D01*
X149835000Y-175133061D01*
X149795226Y-174933102D01*
X149717205Y-174744744D01*
X149603937Y-174575226D01*
X149459774Y-174431063D01*
X149290256Y-174317795D01*
X149101898Y-174239774D01*
X148901939Y-174200000D01*
X148854802Y-174200000D01*
X148103804Y-173449003D01*
X148080001Y-173419999D01*
X147964276Y-173325026D01*
X147832247Y-173254454D01*
X147688986Y-173210997D01*
X147577333Y-173200000D01*
X147577322Y-173200000D01*
X147540000Y-173196324D01*
X147502678Y-173200000D01*
X145263711Y-173200000D01*
X145229774Y-173166063D01*
X145060256Y-173052795D01*
X144871898Y-172974774D01*
X144671939Y-172935000D01*
X144468061Y-172935000D01*
X144268102Y-172974774D01*
X144079744Y-173052795D01*
X143910226Y-173166063D01*
X143766063Y-173310226D01*
X143652795Y-173479744D01*
X143574774Y-173668102D01*
X143535000Y-173868061D01*
X122260000Y-173868061D01*
X122260000Y-145591484D01*
X122559074Y-146039080D01*
X122960920Y-146440926D01*
X123433440Y-146756654D01*
X123958477Y-146974131D01*
X124515852Y-147085000D01*
X125084148Y-147085000D01*
X125641523Y-146974131D01*
X126166560Y-146756654D01*
X126639080Y-146440926D01*
X127040926Y-146039080D01*
X127356654Y-145566560D01*
X127574131Y-145041523D01*
X127685000Y-144484148D01*
X127685000Y-143915852D01*
X127574131Y-143358477D01*
X127356654Y-142833440D01*
X127040926Y-142360920D01*
X126639080Y-141959074D01*
X126191484Y-141660000D01*
X199623482Y-141660000D01*
X199160920Y-141969074D01*
X199160920Y-141969074D01*
G37*
X199160920Y-141969074D02*
X198759074Y-142370920D01*
X198443346Y-142843440D01*
X198225869Y-143368477D01*
X198115000Y-143925852D01*
X198115000Y-144494148D01*
X198225869Y-145051523D01*
X198443346Y-145576560D01*
X198759074Y-146049080D01*
X199160920Y-146450926D01*
X199633440Y-146766654D01*
X200158477Y-146984131D01*
X200715852Y-147095000D01*
X201284148Y-147095000D01*
X201841523Y-146984131D01*
X202366560Y-146766654D01*
X202839080Y-146450926D01*
X203240926Y-146049080D01*
X203540000Y-145601484D01*
X203540001Y-234433483D01*
X203230926Y-233970920D01*
X202829080Y-233569074D01*
X202356560Y-233253346D01*
X201831523Y-233035869D01*
X201274148Y-232925000D01*
X200705852Y-232925000D01*
X200148477Y-233035869D01*
X199623440Y-233253346D01*
X199150920Y-233569074D01*
X198749074Y-233970920D01*
X198433346Y-234443440D01*
X198215869Y-234968477D01*
X198105000Y-235525852D01*
X198105000Y-236094148D01*
X198215869Y-236651523D01*
X198433346Y-237176560D01*
X198749074Y-237649080D01*
X199150920Y-238050926D01*
X199583549Y-238340000D01*
X126221417Y-238340000D01*
X126639080Y-238060926D01*
X127040926Y-237659080D01*
X127356654Y-237186560D01*
X127574131Y-236661523D01*
X127685000Y-236104148D01*
X127685000Y-235535852D01*
X127574131Y-234978477D01*
X127356654Y-234453440D01*
X127040926Y-233980920D01*
X126639080Y-233579074D01*
X126166560Y-233263346D01*
X125641523Y-233045869D01*
X125084148Y-232935000D01*
X124515852Y-232935000D01*
X123958477Y-233045869D01*
X123433440Y-233263346D01*
X122960920Y-233579074D01*
X122559074Y-233980920D01*
X122260000Y-234428516D01*
X122260000Y-187868061D01*
X142835000Y-187868061D01*
X142835000Y-188071939D01*
X142874774Y-188271898D01*
X142952795Y-188460256D01*
X143066063Y-188629774D01*
X143210226Y-188773937D01*
X143379744Y-188887205D01*
X143568102Y-188965226D01*
X143768061Y-189005000D01*
X143830198Y-189005000D01*
X144226205Y-189401008D01*
X144249999Y-189430001D01*
X144278992Y-189453795D01*
X144278996Y-189453799D01*
X144349685Y-189511811D01*
X144365724Y-189524974D01*
X144497753Y-189595546D01*
X144641014Y-189639003D01*
X144752667Y-189650000D01*
X144752676Y-189650000D01*
X144789999Y-189653676D01*
X144827322Y-189650000D01*
X155042678Y-189650000D01*
X155080000Y-189653676D01*
X155117322Y-189650000D01*
X155117333Y-189650000D01*
X155228986Y-189639003D01*
X155372247Y-189595546D01*
X155504276Y-189524974D01*
X155620001Y-189430001D01*
X155643804Y-189400997D01*
X157081003Y-187963799D01*
X157110001Y-187940001D01*
X157204974Y-187824276D01*
X157275546Y-187692247D01*
X157319003Y-187548986D01*
X157330000Y-187437333D01*
X157330000Y-187437324D01*
X157333676Y-187400001D01*
X157330000Y-187362678D01*
X157330000Y-186893711D01*
X157373937Y-186849774D01*
X157487205Y-186680256D01*
X157565226Y-186491898D01*
X157605000Y-186291939D01*
X157605000Y-186088061D01*
X157565226Y-185888102D01*
X157487205Y-185699744D01*
X157373937Y-185530226D01*
X157229774Y-185386063D01*
X157060256Y-185272795D01*
X156871898Y-185194774D01*
X156671939Y-185155000D01*
X156468061Y-185155000D01*
X156268102Y-185194774D01*
X156079744Y-185272795D01*
X155910226Y-185386063D01*
X155766063Y-185530226D01*
X155652795Y-185699744D01*
X155574774Y-185888102D01*
X155535000Y-186088061D01*
X155535000Y-186291939D01*
X155574774Y-186491898D01*
X155652795Y-186680256D01*
X155766063Y-186849774D01*
X155810000Y-186893711D01*
X155810000Y-187085198D01*
X154765199Y-188130000D01*
X145104802Y-188130000D01*
X144905000Y-187930198D01*
X144905000Y-187868061D01*
X144865226Y-187668102D01*
X144787205Y-187479744D01*
X144673937Y-187310226D01*
X144529774Y-187166063D01*
X144360256Y-187052795D01*
X144171898Y-186974774D01*
X143971939Y-186935000D01*
X143768061Y-186935000D01*
X143568102Y-186974774D01*
X143379744Y-187052795D01*
X143210226Y-187166063D01*
X143066063Y-187310226D01*
X142952795Y-187479744D01*
X142874774Y-187668102D01*
X142835000Y-187868061D01*
X122260000Y-187868061D01*
X122260000Y-180858061D01*
X137315000Y-180858061D01*
X137315000Y-181061939D01*
X137354774Y-181261898D01*
X137432795Y-181450256D01*
X137546063Y-181619774D01*
X137690226Y-181763937D01*
X137859744Y-181877205D01*
X138048102Y-181955226D01*
X138248061Y-181995000D01*
X138451939Y-181995000D01*
X138651898Y-181955226D01*
X138840256Y-181877205D01*
X139009774Y-181763937D01*
X139153937Y-181619774D01*
X139180513Y-181580000D01*
X144386289Y-181580000D01*
X144430226Y-181623937D01*
X144599744Y-181737205D01*
X144788102Y-181815226D01*
X144988061Y-181855000D01*
X145191939Y-181855000D01*
X145391898Y-181815226D01*
X145580256Y-181737205D01*
X145749774Y-181623937D01*
X145893937Y-181479774D01*
X146007205Y-181310256D01*
X146030896Y-181253061D01*
X174375000Y-181253061D01*
X174375000Y-181456939D01*
X174414774Y-181656898D01*
X174492795Y-181845256D01*
X174606063Y-182014774D01*
X174750226Y-182158937D01*
X174919744Y-182272205D01*
X175108102Y-182350226D01*
X175308061Y-182390000D01*
X175511939Y-182390000D01*
X175711898Y-182350226D01*
X175900256Y-182272205D01*
X176069774Y-182158937D01*
X176113711Y-182115000D01*
X181717678Y-182115000D01*
X181755000Y-182118676D01*
X181792322Y-182115000D01*
X181792333Y-182115000D01*
X181903986Y-182104003D01*
X182047247Y-182060546D01*
X182179276Y-181989974D01*
X182295001Y-181895001D01*
X182318804Y-181865997D01*
X184559802Y-179625000D01*
X184596939Y-179625000D01*
X184796898Y-179585226D01*
X184985256Y-179507205D01*
X185154774Y-179393937D01*
X185298937Y-179249774D01*
X185412205Y-179080256D01*
X185490226Y-178891898D01*
X185530000Y-178691939D01*
X185530000Y-178488061D01*
X185490226Y-178288102D01*
X185412205Y-178099744D01*
X185298937Y-177930226D01*
X185154774Y-177786063D01*
X184985256Y-177672795D01*
X184796898Y-177594774D01*
X184596939Y-177555000D01*
X184393061Y-177555000D01*
X184193102Y-177594774D01*
X184004744Y-177672795D01*
X183835226Y-177786063D01*
X183691063Y-177930226D01*
X183577795Y-178099744D01*
X183499774Y-178288102D01*
X183460000Y-178488061D01*
X183460000Y-178565774D01*
X183449178Y-178586020D01*
X181440199Y-180595000D01*
X176113711Y-180595000D01*
X176069774Y-180551063D01*
X175900256Y-180437795D01*
X175711898Y-180359774D01*
X175511939Y-180320000D01*
X175308061Y-180320000D01*
X175108102Y-180359774D01*
X174919744Y-180437795D01*
X174750226Y-180551063D01*
X174606063Y-180695226D01*
X174492795Y-180864744D01*
X174414774Y-181053102D01*
X174375000Y-181253061D01*
X146030896Y-181253061D01*
X146085226Y-181121898D01*
X146125000Y-180921939D01*
X146125000Y-180718061D01*
X146085226Y-180518102D01*
X146007205Y-180329744D01*
X145893937Y-180160226D01*
X145749774Y-180016063D01*
X145580256Y-179902795D01*
X145391898Y-179824774D01*
X145191939Y-179785000D01*
X144988061Y-179785000D01*
X144788102Y-179824774D01*
X144599744Y-179902795D01*
X144430226Y-180016063D01*
X144386289Y-180060000D01*
X138866005Y-180060000D01*
X138840256Y-180042795D01*
X138651898Y-179964774D01*
X138451939Y-179925000D01*
X138248061Y-179925000D01*
X138048102Y-179964774D01*
X137859744Y-180042795D01*
X137690226Y-180156063D01*
X137546063Y-180300226D01*
X137432795Y-180469744D01*
X137354774Y-180658102D01*
X137315000Y-180858061D01*
X122260000Y-180858061D01*
X122260000Y-173868061D01*
X143535000Y-173868061D01*
X143535000Y-174071939D01*
X143574774Y-174271898D01*
X143652795Y-174460256D01*
X143766063Y-174629774D01*
X143910226Y-174773937D01*
X144079744Y-174887205D01*
X144268102Y-174965226D01*
X144468061Y-175005000D01*
X144671939Y-175005000D01*
X144871898Y-174965226D01*
X145060256Y-174887205D01*
X145229774Y-174773937D01*
X145283711Y-174720000D01*
X147225199Y-174720000D01*
X147765000Y-175259802D01*
X147765000Y-175336939D01*
X147804774Y-175536898D01*
X147882795Y-175725256D01*
X147996063Y-175894774D01*
X148140226Y-176038937D01*
X148309744Y-176152205D01*
X148498102Y-176230226D01*
X148698061Y-176270000D01*
X148901939Y-176270000D01*
X149101898Y-176230226D01*
X149290256Y-176152205D01*
X149459774Y-176038937D01*
X149603937Y-175894774D01*
X149717205Y-175725256D01*
X149795226Y-175536898D01*
X149835000Y-175336939D01*
X149835000Y-175298061D01*
X166805000Y-175298061D01*
X166805000Y-175501939D01*
X166844774Y-175701898D01*
X166922795Y-175890256D01*
X167036063Y-176059774D01*
X167180226Y-176203937D01*
X167349744Y-176317205D01*
X167538102Y-176395226D01*
X167738061Y-176435000D01*
X167941939Y-176435000D01*
X168141898Y-176395226D01*
X168330256Y-176317205D01*
X168499774Y-176203937D01*
X168643937Y-176059774D01*
X168757205Y-175890256D01*
X168835226Y-175701898D01*
X168875000Y-175501939D01*
X168875000Y-175439801D01*
X170589802Y-173725000D01*
X170651939Y-173725000D01*
X170851898Y-173685226D01*
X171040256Y-173607205D01*
X171209774Y-173493937D01*
X171353937Y-173349774D01*
X171467205Y-173180256D01*
X171545226Y-172991898D01*
X171585000Y-172791939D01*
X171585000Y-172588061D01*
X171545226Y-172388102D01*
X171467205Y-172199744D01*
X171353937Y-172030226D01*
X171209774Y-171886063D01*
X171040256Y-171772795D01*
X170851898Y-171694774D01*
X170651939Y-171655000D01*
X170448061Y-171655000D01*
X170248102Y-171694774D01*
X170059744Y-171772795D01*
X169890226Y-171886063D01*
X169746063Y-172030226D01*
X169632795Y-172199744D01*
X169554774Y-172388102D01*
X169515000Y-172588061D01*
X169515000Y-172650198D01*
X167800199Y-174365000D01*
X167738061Y-174365000D01*
X167538102Y-174404774D01*
X167349744Y-174482795D01*
X167180226Y-174596063D01*
X167036063Y-174740226D01*
X166922795Y-174909744D01*
X166844774Y-175098102D01*
X166805000Y-175298061D01*
X149835000Y-175298061D01*
X149835000Y-175133061D01*
X149795226Y-174933102D01*
X149717205Y-174744744D01*
X149603937Y-174575226D01*
X149459774Y-174431063D01*
X149290256Y-174317795D01*
X149101898Y-174239774D01*
X148901939Y-174200000D01*
X148854802Y-174200000D01*
X148103804Y-173449003D01*
X148080001Y-173419999D01*
X147964276Y-173325026D01*
X147832247Y-173254454D01*
X147688986Y-173210997D01*
X147577333Y-173200000D01*
X147577322Y-173200000D01*
X147540000Y-173196324D01*
X147502678Y-173200000D01*
X145263711Y-173200000D01*
X145229774Y-173166063D01*
X145060256Y-173052795D01*
X144871898Y-172974774D01*
X144671939Y-172935000D01*
X144468061Y-172935000D01*
X144268102Y-172974774D01*
X144079744Y-173052795D01*
X143910226Y-173166063D01*
X143766063Y-173310226D01*
X143652795Y-173479744D01*
X143574774Y-173668102D01*
X143535000Y-173868061D01*
X122260000Y-173868061D01*
X122260000Y-145591484D01*
X122559074Y-146039080D01*
X122960920Y-146440926D01*
X123433440Y-146756654D01*
X123958477Y-146974131D01*
X124515852Y-147085000D01*
X125084148Y-147085000D01*
X125641523Y-146974131D01*
X126166560Y-146756654D01*
X126639080Y-146440926D01*
X127040926Y-146039080D01*
X127356654Y-145566560D01*
X127574131Y-145041523D01*
X127685000Y-144484148D01*
X127685000Y-143915852D01*
X127574131Y-143358477D01*
X127356654Y-142833440D01*
X127040926Y-142360920D01*
X126639080Y-141959074D01*
X126191484Y-141660000D01*
X199623482Y-141660000D01*
X199160920Y-141969074D01*
G36*
X203540000Y-142818516D02*
G01*
X203240926Y-142370920D01*
X202839080Y-141969074D01*
X202376518Y-141660000D01*
X203540000Y-141660000D01*
X203540000Y-142818516D01*
X203540000Y-142818516D01*
G37*
X203540000Y-142818516D02*
X203240926Y-142370920D01*
X202839080Y-141969074D01*
X202376518Y-141660000D01*
X203540000Y-141660000D01*
X203540000Y-142818516D01*
G36*
X122960920Y-141959074D02*
G01*
X122559074Y-142360920D01*
X122260000Y-142808516D01*
X122260000Y-141660000D01*
X123408516Y-141660000D01*
X122960920Y-141959074D01*
X122960920Y-141959074D01*
G37*
X122960920Y-141959074D02*
X122559074Y-142360920D01*
X122260000Y-142808516D01*
X122260000Y-141660000D01*
X123408516Y-141660000D01*
X122960920Y-141959074D01*
M02*
