G04 #@! TF.GenerationSoftware,KiCad,Pcbnew,(5.1.2)-2*
G04 #@! TF.CreationDate,2021-12-15T08:57:30-03:00*
G04 #@! TF.ProjectId,MAG_Plus,4d41475f-506c-4757-932e-6b696361645f,rev?*
G04 #@! TF.SameCoordinates,Original*
G04 #@! TF.FileFunction,Copper,L1,Top*
G04 #@! TF.FilePolarity,Positive*
%FSLAX46Y46*%
G04 Gerber Fmt 4.6, Leading zero omitted, Abs format (unit mm)*
G04 Created by KiCad (PCBNEW (5.1.2)-2) date 2021-12-15 08:57:30*
%MOMM*%
%LPD*%
G04 APERTURE LIST*
%ADD10C,4.500000*%
%ADD11R,0.800000X1.500000*%
%ADD12R,2.200000X3.100000*%
%ADD13R,2.510000X1.000000*%
%ADD14C,0.500000*%
%ADD15C,0.100000*%
%ADD16R,1.500000X1.000000*%
%ADD17R,0.400000X0.600000*%
%ADD18R,1.450000X0.450000*%
%ADD19C,0.800000*%
%ADD20C,0.250000*%
%ADD21C,0.254000*%
G04 APERTURE END LIST*
D10*
X200990000Y-235810000D03*
X124800000Y-235820000D03*
X201000000Y-144210000D03*
X124800000Y-144200000D03*
D11*
X194005000Y-159525000D03*
X192755000Y-159525000D03*
X191505000Y-159525000D03*
X190255000Y-159525000D03*
D12*
X196505000Y-156775000D03*
X187755000Y-156775000D03*
D13*
X172665000Y-170580000D03*
X172665000Y-175660000D03*
X172665000Y-180740000D03*
X172665000Y-185820000D03*
X175975000Y-173120000D03*
X175975000Y-178200000D03*
X175975000Y-183280000D03*
X149665000Y-173100000D03*
X149665000Y-178180000D03*
X149665000Y-183260000D03*
X152975000Y-170560000D03*
X152975000Y-175640000D03*
X152975000Y-180720000D03*
X152975000Y-185800000D03*
D14*
X146410000Y-183220000D03*
D15*
G36*
X145660000Y-183770000D02*
G01*
X145660000Y-183220000D01*
X145660602Y-183220000D01*
X145660602Y-183195466D01*
X145665412Y-183146635D01*
X145674984Y-183098510D01*
X145689228Y-183051555D01*
X145708005Y-183006222D01*
X145731136Y-182962949D01*
X145758396Y-182922150D01*
X145789524Y-182884221D01*
X145824221Y-182849524D01*
X145862150Y-182818396D01*
X145902949Y-182791136D01*
X145946222Y-182768005D01*
X145991555Y-182749228D01*
X146038510Y-182734984D01*
X146086635Y-182725412D01*
X146135466Y-182720602D01*
X146160000Y-182720602D01*
X146160000Y-182720000D01*
X146660000Y-182720000D01*
X146660000Y-182720602D01*
X146684534Y-182720602D01*
X146733365Y-182725412D01*
X146781490Y-182734984D01*
X146828445Y-182749228D01*
X146873778Y-182768005D01*
X146917051Y-182791136D01*
X146957850Y-182818396D01*
X146995779Y-182849524D01*
X147030476Y-182884221D01*
X147061604Y-182922150D01*
X147088864Y-182962949D01*
X147111995Y-183006222D01*
X147130772Y-183051555D01*
X147145016Y-183098510D01*
X147154588Y-183146635D01*
X147159398Y-183195466D01*
X147159398Y-183220000D01*
X147160000Y-183220000D01*
X147160000Y-183770000D01*
X145660000Y-183770000D01*
X145660000Y-183770000D01*
G37*
D14*
X146410000Y-185820000D03*
D15*
G36*
X147159398Y-185820000D02*
G01*
X147159398Y-185844534D01*
X147154588Y-185893365D01*
X147145016Y-185941490D01*
X147130772Y-185988445D01*
X147111995Y-186033778D01*
X147088864Y-186077051D01*
X147061604Y-186117850D01*
X147030476Y-186155779D01*
X146995779Y-186190476D01*
X146957850Y-186221604D01*
X146917051Y-186248864D01*
X146873778Y-186271995D01*
X146828445Y-186290772D01*
X146781490Y-186305016D01*
X146733365Y-186314588D01*
X146684534Y-186319398D01*
X146660000Y-186319398D01*
X146660000Y-186320000D01*
X146160000Y-186320000D01*
X146160000Y-186319398D01*
X146135466Y-186319398D01*
X146086635Y-186314588D01*
X146038510Y-186305016D01*
X145991555Y-186290772D01*
X145946222Y-186271995D01*
X145902949Y-186248864D01*
X145862150Y-186221604D01*
X145824221Y-186190476D01*
X145789524Y-186155779D01*
X145758396Y-186117850D01*
X145731136Y-186077051D01*
X145708005Y-186033778D01*
X145689228Y-185988445D01*
X145674984Y-185941490D01*
X145665412Y-185893365D01*
X145660602Y-185844534D01*
X145660602Y-185820000D01*
X145660000Y-185820000D01*
X145660000Y-185270000D01*
X147160000Y-185270000D01*
X147160000Y-185820000D01*
X147159398Y-185820000D01*
X147159398Y-185820000D01*
G37*
D16*
X146410000Y-184520000D03*
X143540000Y-184500000D03*
D14*
X143540000Y-185800000D03*
D15*
G36*
X144289398Y-185800000D02*
G01*
X144289398Y-185824534D01*
X144284588Y-185873365D01*
X144275016Y-185921490D01*
X144260772Y-185968445D01*
X144241995Y-186013778D01*
X144218864Y-186057051D01*
X144191604Y-186097850D01*
X144160476Y-186135779D01*
X144125779Y-186170476D01*
X144087850Y-186201604D01*
X144047051Y-186228864D01*
X144003778Y-186251995D01*
X143958445Y-186270772D01*
X143911490Y-186285016D01*
X143863365Y-186294588D01*
X143814534Y-186299398D01*
X143790000Y-186299398D01*
X143790000Y-186300000D01*
X143290000Y-186300000D01*
X143290000Y-186299398D01*
X143265466Y-186299398D01*
X143216635Y-186294588D01*
X143168510Y-186285016D01*
X143121555Y-186270772D01*
X143076222Y-186251995D01*
X143032949Y-186228864D01*
X142992150Y-186201604D01*
X142954221Y-186170476D01*
X142919524Y-186135779D01*
X142888396Y-186097850D01*
X142861136Y-186057051D01*
X142838005Y-186013778D01*
X142819228Y-185968445D01*
X142804984Y-185921490D01*
X142795412Y-185873365D01*
X142790602Y-185824534D01*
X142790602Y-185800000D01*
X142790000Y-185800000D01*
X142790000Y-185250000D01*
X144290000Y-185250000D01*
X144290000Y-185800000D01*
X144289398Y-185800000D01*
X144289398Y-185800000D01*
G37*
D14*
X143540000Y-183200000D03*
D15*
G36*
X142790000Y-183750000D02*
G01*
X142790000Y-183200000D01*
X142790602Y-183200000D01*
X142790602Y-183175466D01*
X142795412Y-183126635D01*
X142804984Y-183078510D01*
X142819228Y-183031555D01*
X142838005Y-182986222D01*
X142861136Y-182942949D01*
X142888396Y-182902150D01*
X142919524Y-182864221D01*
X142954221Y-182829524D01*
X142992150Y-182798396D01*
X143032949Y-182771136D01*
X143076222Y-182748005D01*
X143121555Y-182729228D01*
X143168510Y-182714984D01*
X143216635Y-182705412D01*
X143265466Y-182700602D01*
X143290000Y-182700602D01*
X143290000Y-182700000D01*
X143790000Y-182700000D01*
X143790000Y-182700602D01*
X143814534Y-182700602D01*
X143863365Y-182705412D01*
X143911490Y-182714984D01*
X143958445Y-182729228D01*
X144003778Y-182748005D01*
X144047051Y-182771136D01*
X144087850Y-182798396D01*
X144125779Y-182829524D01*
X144160476Y-182864221D01*
X144191604Y-182902150D01*
X144218864Y-182942949D01*
X144241995Y-182986222D01*
X144260772Y-183031555D01*
X144275016Y-183078510D01*
X144284588Y-183126635D01*
X144289398Y-183175466D01*
X144289398Y-183200000D01*
X144290000Y-183200000D01*
X144290000Y-183750000D01*
X142790000Y-183750000D01*
X142790000Y-183750000D01*
G37*
D17*
X178250000Y-185830000D03*
X179150000Y-185830000D03*
X179140000Y-180740000D03*
X178240000Y-180740000D03*
D14*
X146500000Y-175650000D03*
D15*
G36*
X145750000Y-176200000D02*
G01*
X145750000Y-175650000D01*
X145750602Y-175650000D01*
X145750602Y-175625466D01*
X145755412Y-175576635D01*
X145764984Y-175528510D01*
X145779228Y-175481555D01*
X145798005Y-175436222D01*
X145821136Y-175392949D01*
X145848396Y-175352150D01*
X145879524Y-175314221D01*
X145914221Y-175279524D01*
X145952150Y-175248396D01*
X145992949Y-175221136D01*
X146036222Y-175198005D01*
X146081555Y-175179228D01*
X146128510Y-175164984D01*
X146176635Y-175155412D01*
X146225466Y-175150602D01*
X146250000Y-175150602D01*
X146250000Y-175150000D01*
X146750000Y-175150000D01*
X146750000Y-175150602D01*
X146774534Y-175150602D01*
X146823365Y-175155412D01*
X146871490Y-175164984D01*
X146918445Y-175179228D01*
X146963778Y-175198005D01*
X147007051Y-175221136D01*
X147047850Y-175248396D01*
X147085779Y-175279524D01*
X147120476Y-175314221D01*
X147151604Y-175352150D01*
X147178864Y-175392949D01*
X147201995Y-175436222D01*
X147220772Y-175481555D01*
X147235016Y-175528510D01*
X147244588Y-175576635D01*
X147249398Y-175625466D01*
X147249398Y-175650000D01*
X147250000Y-175650000D01*
X147250000Y-176200000D01*
X145750000Y-176200000D01*
X145750000Y-176200000D01*
G37*
D14*
X146500000Y-178250000D03*
D15*
G36*
X147249398Y-178250000D02*
G01*
X147249398Y-178274534D01*
X147244588Y-178323365D01*
X147235016Y-178371490D01*
X147220772Y-178418445D01*
X147201995Y-178463778D01*
X147178864Y-178507051D01*
X147151604Y-178547850D01*
X147120476Y-178585779D01*
X147085779Y-178620476D01*
X147047850Y-178651604D01*
X147007051Y-178678864D01*
X146963778Y-178701995D01*
X146918445Y-178720772D01*
X146871490Y-178735016D01*
X146823365Y-178744588D01*
X146774534Y-178749398D01*
X146750000Y-178749398D01*
X146750000Y-178750000D01*
X146250000Y-178750000D01*
X146250000Y-178749398D01*
X146225466Y-178749398D01*
X146176635Y-178744588D01*
X146128510Y-178735016D01*
X146081555Y-178720772D01*
X146036222Y-178701995D01*
X145992949Y-178678864D01*
X145952150Y-178651604D01*
X145914221Y-178620476D01*
X145879524Y-178585779D01*
X145848396Y-178547850D01*
X145821136Y-178507051D01*
X145798005Y-178463778D01*
X145779228Y-178418445D01*
X145764984Y-178371490D01*
X145755412Y-178323365D01*
X145750602Y-178274534D01*
X145750602Y-178250000D01*
X145750000Y-178250000D01*
X145750000Y-177700000D01*
X147250000Y-177700000D01*
X147250000Y-178250000D01*
X147249398Y-178250000D01*
X147249398Y-178250000D01*
G37*
D16*
X146500000Y-176950000D03*
X140740000Y-176970000D03*
D14*
X140740000Y-178270000D03*
D15*
G36*
X141489398Y-178270000D02*
G01*
X141489398Y-178294534D01*
X141484588Y-178343365D01*
X141475016Y-178391490D01*
X141460772Y-178438445D01*
X141441995Y-178483778D01*
X141418864Y-178527051D01*
X141391604Y-178567850D01*
X141360476Y-178605779D01*
X141325779Y-178640476D01*
X141287850Y-178671604D01*
X141247051Y-178698864D01*
X141203778Y-178721995D01*
X141158445Y-178740772D01*
X141111490Y-178755016D01*
X141063365Y-178764588D01*
X141014534Y-178769398D01*
X140990000Y-178769398D01*
X140990000Y-178770000D01*
X140490000Y-178770000D01*
X140490000Y-178769398D01*
X140465466Y-178769398D01*
X140416635Y-178764588D01*
X140368510Y-178755016D01*
X140321555Y-178740772D01*
X140276222Y-178721995D01*
X140232949Y-178698864D01*
X140192150Y-178671604D01*
X140154221Y-178640476D01*
X140119524Y-178605779D01*
X140088396Y-178567850D01*
X140061136Y-178527051D01*
X140038005Y-178483778D01*
X140019228Y-178438445D01*
X140004984Y-178391490D01*
X139995412Y-178343365D01*
X139990602Y-178294534D01*
X139990602Y-178270000D01*
X139990000Y-178270000D01*
X139990000Y-177720000D01*
X141490000Y-177720000D01*
X141490000Y-178270000D01*
X141489398Y-178270000D01*
X141489398Y-178270000D01*
G37*
D14*
X140740000Y-175670000D03*
D15*
G36*
X139990000Y-176220000D02*
G01*
X139990000Y-175670000D01*
X139990602Y-175670000D01*
X139990602Y-175645466D01*
X139995412Y-175596635D01*
X140004984Y-175548510D01*
X140019228Y-175501555D01*
X140038005Y-175456222D01*
X140061136Y-175412949D01*
X140088396Y-175372150D01*
X140119524Y-175334221D01*
X140154221Y-175299524D01*
X140192150Y-175268396D01*
X140232949Y-175241136D01*
X140276222Y-175218005D01*
X140321555Y-175199228D01*
X140368510Y-175184984D01*
X140416635Y-175175412D01*
X140465466Y-175170602D01*
X140490000Y-175170602D01*
X140490000Y-175170000D01*
X140990000Y-175170000D01*
X140990000Y-175170602D01*
X141014534Y-175170602D01*
X141063365Y-175175412D01*
X141111490Y-175184984D01*
X141158445Y-175199228D01*
X141203778Y-175218005D01*
X141247051Y-175241136D01*
X141287850Y-175268396D01*
X141325779Y-175299524D01*
X141360476Y-175334221D01*
X141391604Y-175372150D01*
X141418864Y-175412949D01*
X141441995Y-175456222D01*
X141460772Y-175501555D01*
X141475016Y-175548510D01*
X141484588Y-175596635D01*
X141489398Y-175645466D01*
X141489398Y-175670000D01*
X141490000Y-175670000D01*
X141490000Y-176220000D01*
X139990000Y-176220000D01*
X139990000Y-176220000D01*
G37*
D14*
X143620000Y-175650000D03*
D15*
G36*
X142870000Y-176200000D02*
G01*
X142870000Y-175650000D01*
X142870602Y-175650000D01*
X142870602Y-175625466D01*
X142875412Y-175576635D01*
X142884984Y-175528510D01*
X142899228Y-175481555D01*
X142918005Y-175436222D01*
X142941136Y-175392949D01*
X142968396Y-175352150D01*
X142999524Y-175314221D01*
X143034221Y-175279524D01*
X143072150Y-175248396D01*
X143112949Y-175221136D01*
X143156222Y-175198005D01*
X143201555Y-175179228D01*
X143248510Y-175164984D01*
X143296635Y-175155412D01*
X143345466Y-175150602D01*
X143370000Y-175150602D01*
X143370000Y-175150000D01*
X143870000Y-175150000D01*
X143870000Y-175150602D01*
X143894534Y-175150602D01*
X143943365Y-175155412D01*
X143991490Y-175164984D01*
X144038445Y-175179228D01*
X144083778Y-175198005D01*
X144127051Y-175221136D01*
X144167850Y-175248396D01*
X144205779Y-175279524D01*
X144240476Y-175314221D01*
X144271604Y-175352150D01*
X144298864Y-175392949D01*
X144321995Y-175436222D01*
X144340772Y-175481555D01*
X144355016Y-175528510D01*
X144364588Y-175576635D01*
X144369398Y-175625466D01*
X144369398Y-175650000D01*
X144370000Y-175650000D01*
X144370000Y-176200000D01*
X142870000Y-176200000D01*
X142870000Y-176200000D01*
G37*
D14*
X143620000Y-178250000D03*
D15*
G36*
X144369398Y-178250000D02*
G01*
X144369398Y-178274534D01*
X144364588Y-178323365D01*
X144355016Y-178371490D01*
X144340772Y-178418445D01*
X144321995Y-178463778D01*
X144298864Y-178507051D01*
X144271604Y-178547850D01*
X144240476Y-178585779D01*
X144205779Y-178620476D01*
X144167850Y-178651604D01*
X144127051Y-178678864D01*
X144083778Y-178701995D01*
X144038445Y-178720772D01*
X143991490Y-178735016D01*
X143943365Y-178744588D01*
X143894534Y-178749398D01*
X143870000Y-178749398D01*
X143870000Y-178750000D01*
X143370000Y-178750000D01*
X143370000Y-178749398D01*
X143345466Y-178749398D01*
X143296635Y-178744588D01*
X143248510Y-178735016D01*
X143201555Y-178720772D01*
X143156222Y-178701995D01*
X143112949Y-178678864D01*
X143072150Y-178651604D01*
X143034221Y-178620476D01*
X142999524Y-178585779D01*
X142968396Y-178547850D01*
X142941136Y-178507051D01*
X142918005Y-178463778D01*
X142899228Y-178418445D01*
X142884984Y-178371490D01*
X142875412Y-178323365D01*
X142870602Y-178274534D01*
X142870602Y-178250000D01*
X142870000Y-178250000D01*
X142870000Y-177700000D01*
X144370000Y-177700000D01*
X144370000Y-178250000D01*
X144369398Y-178250000D01*
X144369398Y-178250000D01*
G37*
D16*
X143620000Y-176950000D03*
D18*
X164780000Y-178830000D03*
X164780000Y-178180000D03*
X164780000Y-177530000D03*
X164780000Y-176880000D03*
X160380000Y-176880000D03*
X160380000Y-177530000D03*
X160380000Y-178180000D03*
X160380000Y-178830000D03*
D19*
X184495000Y-178590000D03*
X175410000Y-181355000D03*
X145090000Y-180820000D03*
X138350000Y-180960000D03*
X156570000Y-186190000D03*
X143870000Y-187970000D03*
X167840000Y-175400000D03*
X170550000Y-172690000D03*
X144570000Y-173970000D03*
X148800000Y-175235000D03*
D20*
X178240000Y-185820000D02*
X178250000Y-185830000D01*
X172665000Y-185820000D02*
X178240000Y-185820000D01*
X174340000Y-184610000D02*
X173130000Y-185820000D01*
X177770000Y-184610000D02*
X174340000Y-184610000D01*
X178260000Y-184120000D02*
X177770000Y-184610000D01*
X178260000Y-182590000D02*
X178260000Y-184120000D01*
X165840000Y-179740000D02*
X168205001Y-177374999D01*
X163690000Y-179740000D02*
X165840000Y-179740000D01*
X163260000Y-178660000D02*
X163260000Y-179310000D01*
X178090000Y-177690000D02*
X178090000Y-178820000D01*
X164780000Y-178180000D02*
X163740000Y-178180000D01*
X168205001Y-177374999D02*
X177774999Y-177374999D01*
X163740000Y-178180000D02*
X163260000Y-178660000D01*
X178090000Y-178820000D02*
X177670010Y-179239990D01*
X177774999Y-177374999D02*
X178090000Y-177690000D01*
X177670010Y-179239990D02*
X171130010Y-179239990D01*
X171130010Y-179239990D02*
X170320000Y-180050000D01*
X171160000Y-182080000D02*
X177750000Y-182080000D01*
X173130000Y-185820000D02*
X172665000Y-185820000D01*
X170320000Y-180050000D02*
X170320000Y-181240000D01*
X170320000Y-181240000D02*
X171160000Y-182080000D01*
X163260000Y-179310000D02*
X163690000Y-179740000D01*
X177750000Y-182080000D02*
X178260000Y-182590000D01*
X172665000Y-187085000D02*
X173730000Y-188150000D01*
X172665000Y-185820000D02*
X172665000Y-187085000D01*
X173730000Y-188150000D02*
X179450000Y-188150000D01*
X183769999Y-183830001D02*
X183675000Y-183925000D01*
X183769999Y-168480001D02*
X183769999Y-183830001D01*
X191505000Y-160745000D02*
X183769999Y-168480001D01*
X191505000Y-159525000D02*
X191505000Y-160745000D01*
X179450000Y-188150000D02*
X183675000Y-183925000D01*
X183675000Y-183925000D02*
X183770000Y-183830000D01*
X165755000Y-178830000D02*
X164780000Y-178830000D01*
X167905000Y-176680000D02*
X165755000Y-178830000D01*
X173055000Y-180350000D02*
X177196411Y-180350000D01*
X172665000Y-180740000D02*
X173055000Y-180350000D01*
X177196411Y-180350000D02*
X178580000Y-178966411D01*
X178580000Y-178966411D02*
X178580000Y-177440000D01*
X178580000Y-177440000D02*
X177820000Y-176680000D01*
X177820000Y-176680000D02*
X167905000Y-176680000D01*
X172665000Y-180740000D02*
X178240000Y-180740000D01*
X173280000Y-181355000D02*
X172665000Y-180740000D01*
X175410000Y-181355000D02*
X173280000Y-181355000D01*
X192755000Y-160525000D02*
X192755000Y-159525000D01*
X192760000Y-160530000D02*
X192755000Y-160525000D01*
X192760000Y-160980000D02*
X192760000Y-160530000D01*
X184990000Y-168750000D02*
X192760000Y-160980000D01*
X184495000Y-178590000D02*
X184990000Y-178095000D01*
X184990000Y-178095000D02*
X184990000Y-168750000D01*
X143620000Y-179350000D02*
X145090000Y-180820000D01*
X143620000Y-178250000D02*
X143620000Y-179350000D01*
X152975000Y-185800000D02*
X156180000Y-185800000D01*
X156180000Y-185800000D02*
X156570000Y-186190000D01*
X143870000Y-186130000D02*
X143540000Y-185800000D01*
X143870000Y-187970000D02*
X143870000Y-186130000D01*
X164780000Y-176880000D02*
X166360000Y-176880000D01*
X166360000Y-176880000D02*
X167840000Y-175400000D01*
X172660000Y-170580000D02*
X172665000Y-170580000D01*
X170550000Y-172690000D02*
X172660000Y-170580000D01*
X143600000Y-175670000D02*
X143620000Y-175650000D01*
X140740000Y-175670000D02*
X143600000Y-175670000D01*
X146390000Y-183200000D02*
X146410000Y-183220000D01*
X143540000Y-183200000D02*
X146390000Y-183200000D01*
X149625000Y-183220000D02*
X149665000Y-183260000D01*
X146410000Y-183220000D02*
X149625000Y-183220000D01*
X152975000Y-180720000D02*
X156580000Y-180720000D01*
X158470000Y-178830000D02*
X160380000Y-178830000D01*
X156580000Y-180720000D02*
X158470000Y-178830000D01*
X151170000Y-183260000D02*
X149665000Y-183260000D01*
X151185000Y-183260000D02*
X151170000Y-183260000D01*
X152975000Y-181470000D02*
X151185000Y-183260000D01*
X152975000Y-180720000D02*
X152975000Y-181470000D01*
X143084998Y-175650000D02*
X142280000Y-176454998D01*
X143620000Y-175650000D02*
X143084998Y-175650000D01*
X142280000Y-181940000D02*
X143540000Y-183200000D01*
X142280000Y-176454998D02*
X142280000Y-181940000D01*
X143620000Y-175650000D02*
X143620000Y-174920000D01*
X143620000Y-174920000D02*
X144570000Y-173970000D01*
X152755000Y-175420000D02*
X152975000Y-175640000D01*
X148800000Y-175235000D02*
X148985000Y-175420000D01*
X148985000Y-175420000D02*
X152755000Y-175420000D01*
X152695000Y-175920000D02*
X152975000Y-175640000D01*
X146500000Y-175650000D02*
X146770000Y-175920000D01*
X146770000Y-175920000D02*
X152695000Y-175920000D01*
X179140000Y-185820000D02*
X179150000Y-185830000D01*
X179140000Y-180740000D02*
X179140000Y-185820000D01*
X179140000Y-180190000D02*
X179140000Y-180740000D01*
X179140000Y-176880000D02*
X179140000Y-180190000D01*
X161355000Y-178830000D02*
X161820000Y-178365000D01*
X161820000Y-178365000D02*
X161820000Y-176510000D01*
X161820000Y-176510000D02*
X164090000Y-174240000D01*
X164090000Y-174240000D02*
X176500000Y-174240000D01*
X160380000Y-178830000D02*
X161355000Y-178830000D01*
X176500000Y-174240000D02*
X179140000Y-176880000D01*
X180290000Y-180740000D02*
X179140000Y-180740000D01*
X182520000Y-178510000D02*
X180290000Y-180740000D01*
X182520000Y-168260000D02*
X182520000Y-178510000D01*
X190255000Y-159525000D02*
X190255000Y-160525000D01*
X190255000Y-160525000D02*
X182520000Y-168260000D01*
X168480000Y-178200000D02*
X175975000Y-178200000D01*
X146410000Y-184520000D02*
X162160000Y-184520000D01*
X162160000Y-184520000D02*
X168480000Y-178200000D01*
X144540000Y-184500000D02*
X143540000Y-184500000D01*
X165870000Y-183280000D02*
X161850000Y-187300000D01*
X175975000Y-183280000D02*
X165870000Y-183280000D01*
X161850000Y-187300000D02*
X146070000Y-187300000D01*
X146070000Y-187300000D02*
X144940000Y-186170000D01*
X144940000Y-186170000D02*
X144940000Y-184900000D01*
X144940000Y-184900000D02*
X144540000Y-184500000D01*
X159405000Y-178180000D02*
X160380000Y-178180000D01*
X152003590Y-178180000D02*
X159405000Y-178180000D01*
X150773590Y-176950000D02*
X152003590Y-178180000D01*
X146500000Y-176950000D02*
X150773590Y-176950000D01*
X159405000Y-176880000D02*
X160380000Y-176880000D01*
X140280364Y-176970000D02*
X139480000Y-176169636D01*
X140740000Y-176970000D02*
X140280364Y-176970000D01*
X139480000Y-176169636D02*
X139480000Y-174830000D01*
X139480000Y-174830000D02*
X142420000Y-171890000D01*
X142420000Y-171890000D02*
X154415000Y-171890000D01*
X154415000Y-171890000D02*
X159405000Y-176880000D01*
X159405000Y-177530000D02*
X160380000Y-177530000D01*
X157460000Y-177530000D02*
X159405000Y-177530000D01*
X144220000Y-176950000D02*
X144930000Y-176240000D01*
X143620000Y-176950000D02*
X144220000Y-176950000D01*
X144930000Y-176240000D02*
X144930000Y-175360000D01*
X144930000Y-175360000D02*
X145780000Y-174510000D01*
X145780000Y-174510000D02*
X154440000Y-174510000D01*
X154440000Y-174510000D02*
X157460000Y-177530000D01*
D21*
G36*
X199160920Y-141969074D02*
G01*
X198759074Y-142370920D01*
X198443346Y-142843440D01*
X198225869Y-143368477D01*
X198115000Y-143925852D01*
X198115000Y-144494148D01*
X198225869Y-145051523D01*
X198443346Y-145576560D01*
X198759074Y-146049080D01*
X199160920Y-146450926D01*
X199633440Y-146766654D01*
X200158477Y-146984131D01*
X200715852Y-147095000D01*
X201284148Y-147095000D01*
X201841523Y-146984131D01*
X202366560Y-146766654D01*
X202839080Y-146450926D01*
X203240926Y-146049080D01*
X203540000Y-145601484D01*
X203540001Y-234433483D01*
X203230926Y-233970920D01*
X202829080Y-233569074D01*
X202356560Y-233253346D01*
X201831523Y-233035869D01*
X201274148Y-232925000D01*
X200705852Y-232925000D01*
X200148477Y-233035869D01*
X199623440Y-233253346D01*
X199150920Y-233569074D01*
X198749074Y-233970920D01*
X198433346Y-234443440D01*
X198215869Y-234968477D01*
X198105000Y-235525852D01*
X198105000Y-236094148D01*
X198215869Y-236651523D01*
X198433346Y-237176560D01*
X198749074Y-237649080D01*
X199150920Y-238050926D01*
X199583549Y-238340000D01*
X126221417Y-238340000D01*
X126639080Y-238060926D01*
X127040926Y-237659080D01*
X127356654Y-237186560D01*
X127574131Y-236661523D01*
X127685000Y-236104148D01*
X127685000Y-235535852D01*
X127574131Y-234978477D01*
X127356654Y-234453440D01*
X127040926Y-233980920D01*
X126639080Y-233579074D01*
X126166560Y-233263346D01*
X125641523Y-233045869D01*
X125084148Y-232935000D01*
X124515852Y-232935000D01*
X123958477Y-233045869D01*
X123433440Y-233263346D01*
X122960920Y-233579074D01*
X122559074Y-233980920D01*
X122260000Y-234428516D01*
X122260000Y-174830000D01*
X138716324Y-174830000D01*
X138720001Y-174867332D01*
X138720000Y-176132313D01*
X138716324Y-176169636D01*
X138720000Y-176206958D01*
X138720000Y-176206968D01*
X138730997Y-176318621D01*
X138761447Y-176419002D01*
X138774454Y-176461882D01*
X138845026Y-176593912D01*
X138870988Y-176625546D01*
X138939999Y-176709637D01*
X138969002Y-176733439D01*
X139351928Y-177116366D01*
X139351928Y-177470000D01*
X139364188Y-177594482D01*
X139400498Y-177714180D01*
X139459463Y-177824494D01*
X139538815Y-177921185D01*
X139635506Y-178000537D01*
X139745820Y-178059502D01*
X139865518Y-178095812D01*
X139990000Y-178108072D01*
X141490000Y-178108072D01*
X141520000Y-178105117D01*
X141520001Y-181902668D01*
X141516324Y-181940000D01*
X141520001Y-181977333D01*
X141530998Y-182088986D01*
X141535553Y-182104002D01*
X141574454Y-182232246D01*
X141645026Y-182364276D01*
X141695277Y-182425506D01*
X141740000Y-182480001D01*
X141768998Y-182503799D01*
X142188012Y-182922814D01*
X142185718Y-182930377D01*
X142166596Y-183026510D01*
X142154336Y-183150991D01*
X142154336Y-183175550D01*
X142151928Y-183200000D01*
X142151928Y-183750000D01*
X142164188Y-183874482D01*
X142164345Y-183875000D01*
X142164188Y-183875518D01*
X142151928Y-184000000D01*
X142151928Y-185000000D01*
X142164188Y-185124482D01*
X142200498Y-185244180D01*
X142259463Y-185354494D01*
X142338815Y-185451185D01*
X142435506Y-185530537D01*
X142545820Y-185589502D01*
X142665518Y-185625812D01*
X142790000Y-185638072D01*
X144180000Y-185638072D01*
X144180000Y-186132677D01*
X144176324Y-186170000D01*
X144180000Y-186207322D01*
X144180000Y-186207332D01*
X144190997Y-186318985D01*
X144230747Y-186450026D01*
X144234454Y-186462246D01*
X144305026Y-186594276D01*
X144344871Y-186642826D01*
X144399999Y-186710001D01*
X144429002Y-186733804D01*
X145506201Y-187811003D01*
X145529999Y-187840001D01*
X145645724Y-187934974D01*
X145777753Y-188005546D01*
X145921014Y-188049003D01*
X146032667Y-188060000D01*
X146032676Y-188060000D01*
X146069999Y-188063676D01*
X146107322Y-188060000D01*
X161812678Y-188060000D01*
X161850000Y-188063676D01*
X161887322Y-188060000D01*
X161887333Y-188060000D01*
X161998986Y-188049003D01*
X162142247Y-188005546D01*
X162274276Y-187934974D01*
X162390001Y-187840001D01*
X162413804Y-187810997D01*
X166184802Y-184040000D01*
X173836552Y-184040000D01*
X173828996Y-184046201D01*
X173828992Y-184046205D01*
X173799999Y-184069999D01*
X173776205Y-184098992D01*
X173193270Y-184681928D01*
X171410000Y-184681928D01*
X171285518Y-184694188D01*
X171165820Y-184730498D01*
X171055506Y-184789463D01*
X170958815Y-184868815D01*
X170879463Y-184965506D01*
X170820498Y-185075820D01*
X170784188Y-185195518D01*
X170771928Y-185320000D01*
X170771928Y-186320000D01*
X170784188Y-186444482D01*
X170820498Y-186564180D01*
X170879463Y-186674494D01*
X170958815Y-186771185D01*
X171055506Y-186850537D01*
X171165820Y-186909502D01*
X171285518Y-186945812D01*
X171410000Y-186958072D01*
X171905001Y-186958072D01*
X171905001Y-187047668D01*
X171901324Y-187085000D01*
X171915998Y-187233985D01*
X171959454Y-187377246D01*
X172030026Y-187509276D01*
X172101201Y-187596002D01*
X172125000Y-187625001D01*
X172153998Y-187648799D01*
X173166205Y-188661008D01*
X173189999Y-188690001D01*
X173218992Y-188713795D01*
X173218996Y-188713799D01*
X173289685Y-188771811D01*
X173305724Y-188784974D01*
X173437753Y-188855546D01*
X173581014Y-188899003D01*
X173692667Y-188910000D01*
X173692676Y-188910000D01*
X173729999Y-188913676D01*
X173767322Y-188910000D01*
X179412678Y-188910000D01*
X179450000Y-188913676D01*
X179487322Y-188910000D01*
X179487333Y-188910000D01*
X179598986Y-188899003D01*
X179742247Y-188855546D01*
X179874276Y-188784974D01*
X179990001Y-188690001D01*
X180013804Y-188660997D01*
X184238799Y-184436003D01*
X184238804Y-184435997D01*
X184280996Y-184393805D01*
X184310000Y-184370002D01*
X184404973Y-184254277D01*
X184475545Y-184122248D01*
X184519002Y-183978987D01*
X184529999Y-183867334D01*
X184533676Y-183830001D01*
X184529999Y-183792668D01*
X184529999Y-179625000D01*
X184596939Y-179625000D01*
X184796898Y-179585226D01*
X184985256Y-179507205D01*
X185154774Y-179393937D01*
X185298937Y-179249774D01*
X185412205Y-179080256D01*
X185490226Y-178891898D01*
X185530000Y-178691939D01*
X185530000Y-178635002D01*
X185530001Y-178635001D01*
X185624974Y-178519276D01*
X185695546Y-178387247D01*
X185739003Y-178243986D01*
X185750000Y-178132333D01*
X185750000Y-178132325D01*
X185753676Y-178095000D01*
X185750000Y-178057675D01*
X185750000Y-169064801D01*
X193271009Y-161543794D01*
X193300001Y-161520001D01*
X193323795Y-161491008D01*
X193323799Y-161491004D01*
X193394973Y-161404277D01*
X193394974Y-161404276D01*
X193465546Y-161272247D01*
X193509003Y-161128986D01*
X193520000Y-161017333D01*
X193520000Y-161017324D01*
X193523676Y-160980001D01*
X193520000Y-160942678D01*
X193520000Y-160904701D01*
X193605000Y-160913072D01*
X193719250Y-160910000D01*
X193878000Y-160751250D01*
X193878000Y-159652000D01*
X194132000Y-159652000D01*
X194132000Y-160751250D01*
X194290750Y-160910000D01*
X194405000Y-160913072D01*
X194529482Y-160900812D01*
X194649180Y-160864502D01*
X194759494Y-160805537D01*
X194856185Y-160726185D01*
X194935537Y-160629494D01*
X194994502Y-160519180D01*
X195030812Y-160399482D01*
X195043072Y-160275000D01*
X195040000Y-159810750D01*
X194881250Y-159652000D01*
X194132000Y-159652000D01*
X193878000Y-159652000D01*
X193858000Y-159652000D01*
X193858000Y-159398000D01*
X193878000Y-159398000D01*
X193878000Y-158298750D01*
X194132000Y-158298750D01*
X194132000Y-159398000D01*
X194881250Y-159398000D01*
X195040000Y-159239250D01*
X195042582Y-158849034D01*
X195050506Y-158855537D01*
X195160820Y-158914502D01*
X195280518Y-158950812D01*
X195405000Y-158963072D01*
X197605000Y-158963072D01*
X197729482Y-158950812D01*
X197849180Y-158914502D01*
X197959494Y-158855537D01*
X198056185Y-158776185D01*
X198135537Y-158679494D01*
X198194502Y-158569180D01*
X198230812Y-158449482D01*
X198243072Y-158325000D01*
X198243072Y-155225000D01*
X198230812Y-155100518D01*
X198194502Y-154980820D01*
X198135537Y-154870506D01*
X198056185Y-154773815D01*
X197959494Y-154694463D01*
X197849180Y-154635498D01*
X197729482Y-154599188D01*
X197605000Y-154586928D01*
X195405000Y-154586928D01*
X195280518Y-154599188D01*
X195160820Y-154635498D01*
X195050506Y-154694463D01*
X194953815Y-154773815D01*
X194874463Y-154870506D01*
X194815498Y-154980820D01*
X194779188Y-155100518D01*
X194766928Y-155225000D01*
X194766928Y-158250564D01*
X194759494Y-158244463D01*
X194649180Y-158185498D01*
X194529482Y-158149188D01*
X194405000Y-158136928D01*
X194290750Y-158140000D01*
X194132000Y-158298750D01*
X193878000Y-158298750D01*
X193719250Y-158140000D01*
X193605000Y-158136928D01*
X193480518Y-158149188D01*
X193380000Y-158179680D01*
X193279482Y-158149188D01*
X193155000Y-158136928D01*
X192355000Y-158136928D01*
X192230518Y-158149188D01*
X192130000Y-158179680D01*
X192029482Y-158149188D01*
X191905000Y-158136928D01*
X191105000Y-158136928D01*
X190980518Y-158149188D01*
X190880000Y-158179680D01*
X190779482Y-158149188D01*
X190655000Y-158136928D01*
X189855000Y-158136928D01*
X189730518Y-158149188D01*
X189610820Y-158185498D01*
X189500506Y-158244463D01*
X189493072Y-158250564D01*
X189493072Y-155225000D01*
X189480812Y-155100518D01*
X189444502Y-154980820D01*
X189385537Y-154870506D01*
X189306185Y-154773815D01*
X189209494Y-154694463D01*
X189099180Y-154635498D01*
X188979482Y-154599188D01*
X188855000Y-154586928D01*
X186655000Y-154586928D01*
X186530518Y-154599188D01*
X186410820Y-154635498D01*
X186300506Y-154694463D01*
X186203815Y-154773815D01*
X186124463Y-154870506D01*
X186065498Y-154980820D01*
X186029188Y-155100518D01*
X186016928Y-155225000D01*
X186016928Y-158325000D01*
X186029188Y-158449482D01*
X186065498Y-158569180D01*
X186124463Y-158679494D01*
X186203815Y-158776185D01*
X186300506Y-158855537D01*
X186410820Y-158914502D01*
X186530518Y-158950812D01*
X186655000Y-158963072D01*
X188855000Y-158963072D01*
X188979482Y-158950812D01*
X189099180Y-158914502D01*
X189209494Y-158855537D01*
X189216928Y-158849436D01*
X189216928Y-160275000D01*
X189229188Y-160399482D01*
X189246999Y-160458199D01*
X182009003Y-167696196D01*
X181979999Y-167719999D01*
X181935309Y-167774455D01*
X181885026Y-167835724D01*
X181829289Y-167940000D01*
X181814454Y-167967754D01*
X181770997Y-168111015D01*
X181760000Y-168222668D01*
X181760000Y-168222678D01*
X181756324Y-168260000D01*
X181760000Y-168297322D01*
X181760001Y-178195197D01*
X179975199Y-179980000D01*
X179900000Y-179980000D01*
X179900000Y-176917323D01*
X179903676Y-176880000D01*
X179900000Y-176842677D01*
X179900000Y-176842667D01*
X179889003Y-176731014D01*
X179845546Y-176587753D01*
X179774974Y-176455724D01*
X179680001Y-176339999D01*
X179651004Y-176316202D01*
X177519877Y-174185076D01*
X177584494Y-174150537D01*
X177681185Y-174071185D01*
X177760537Y-173974494D01*
X177819502Y-173864180D01*
X177855812Y-173744482D01*
X177868072Y-173620000D01*
X177868072Y-172620000D01*
X177855812Y-172495518D01*
X177819502Y-172375820D01*
X177760537Y-172265506D01*
X177681185Y-172168815D01*
X177584494Y-172089463D01*
X177474180Y-172030498D01*
X177354482Y-171994188D01*
X177230000Y-171981928D01*
X174720000Y-171981928D01*
X174595518Y-171994188D01*
X174475820Y-172030498D01*
X174365506Y-172089463D01*
X174268815Y-172168815D01*
X174189463Y-172265506D01*
X174130498Y-172375820D01*
X174094188Y-172495518D01*
X174081928Y-172620000D01*
X174081928Y-173480000D01*
X164127325Y-173480000D01*
X164090000Y-173476324D01*
X164052675Y-173480000D01*
X164052667Y-173480000D01*
X163941014Y-173490997D01*
X163797753Y-173534454D01*
X163665724Y-173605026D01*
X163549999Y-173699999D01*
X163526201Y-173728997D01*
X161308998Y-175946201D01*
X161280000Y-175969999D01*
X161256202Y-175998997D01*
X161256201Y-175998998D01*
X161231037Y-176029660D01*
X161229482Y-176029188D01*
X161105000Y-176016928D01*
X159655000Y-176016928D01*
X159620161Y-176020359D01*
X154978804Y-171379003D01*
X154955001Y-171349999D01*
X154839276Y-171255026D01*
X154835091Y-171252789D01*
X154855812Y-171184482D01*
X154866102Y-171080000D01*
X170771928Y-171080000D01*
X170784188Y-171204482D01*
X170820498Y-171324180D01*
X170879463Y-171434494D01*
X170958815Y-171531185D01*
X171055506Y-171610537D01*
X171165820Y-171669502D01*
X171285518Y-171705812D01*
X171410000Y-171718072D01*
X172379250Y-171715000D01*
X172538000Y-171556250D01*
X172538000Y-170707000D01*
X172792000Y-170707000D01*
X172792000Y-171556250D01*
X172950750Y-171715000D01*
X173920000Y-171718072D01*
X174044482Y-171705812D01*
X174164180Y-171669502D01*
X174274494Y-171610537D01*
X174371185Y-171531185D01*
X174450537Y-171434494D01*
X174509502Y-171324180D01*
X174545812Y-171204482D01*
X174558072Y-171080000D01*
X174555000Y-170865750D01*
X174396250Y-170707000D01*
X172792000Y-170707000D01*
X172538000Y-170707000D01*
X170933750Y-170707000D01*
X170775000Y-170865750D01*
X170771928Y-171080000D01*
X154866102Y-171080000D01*
X154868072Y-171060000D01*
X154868072Y-170080000D01*
X170771928Y-170080000D01*
X170775000Y-170294250D01*
X170933750Y-170453000D01*
X172538000Y-170453000D01*
X172538000Y-169603750D01*
X172792000Y-169603750D01*
X172792000Y-170453000D01*
X174396250Y-170453000D01*
X174555000Y-170294250D01*
X174558072Y-170080000D01*
X174545812Y-169955518D01*
X174509502Y-169835820D01*
X174450537Y-169725506D01*
X174371185Y-169628815D01*
X174274494Y-169549463D01*
X174164180Y-169490498D01*
X174044482Y-169454188D01*
X173920000Y-169441928D01*
X172950750Y-169445000D01*
X172792000Y-169603750D01*
X172538000Y-169603750D01*
X172379250Y-169445000D01*
X171410000Y-169441928D01*
X171285518Y-169454188D01*
X171165820Y-169490498D01*
X171055506Y-169549463D01*
X170958815Y-169628815D01*
X170879463Y-169725506D01*
X170820498Y-169835820D01*
X170784188Y-169955518D01*
X170771928Y-170080000D01*
X154868072Y-170080000D01*
X154868072Y-170060000D01*
X154855812Y-169935518D01*
X154819502Y-169815820D01*
X154760537Y-169705506D01*
X154681185Y-169608815D01*
X154584494Y-169529463D01*
X154474180Y-169470498D01*
X154354482Y-169434188D01*
X154230000Y-169421928D01*
X151720000Y-169421928D01*
X151595518Y-169434188D01*
X151475820Y-169470498D01*
X151365506Y-169529463D01*
X151268815Y-169608815D01*
X151189463Y-169705506D01*
X151130498Y-169815820D01*
X151094188Y-169935518D01*
X151081928Y-170060000D01*
X151081928Y-171060000D01*
X151088822Y-171130000D01*
X142457323Y-171130000D01*
X142420000Y-171126324D01*
X142382677Y-171130000D01*
X142382667Y-171130000D01*
X142271014Y-171140997D01*
X142127753Y-171184454D01*
X141995724Y-171255026D01*
X141879999Y-171349999D01*
X141856201Y-171378997D01*
X138968998Y-174266201D01*
X138940000Y-174289999D01*
X138916202Y-174318997D01*
X138916201Y-174318998D01*
X138845026Y-174405724D01*
X138774454Y-174537754D01*
X138746541Y-174629774D01*
X138734037Y-174670998D01*
X138730998Y-174681015D01*
X138716324Y-174830000D01*
X122260000Y-174830000D01*
X122260000Y-145591484D01*
X122559074Y-146039080D01*
X122960920Y-146440926D01*
X123433440Y-146756654D01*
X123958477Y-146974131D01*
X124515852Y-147085000D01*
X125084148Y-147085000D01*
X125641523Y-146974131D01*
X126166560Y-146756654D01*
X126639080Y-146440926D01*
X127040926Y-146039080D01*
X127356654Y-145566560D01*
X127574131Y-145041523D01*
X127685000Y-144484148D01*
X127685000Y-143915852D01*
X127574131Y-143358477D01*
X127356654Y-142833440D01*
X127040926Y-142360920D01*
X126639080Y-141959074D01*
X126191484Y-141660000D01*
X199623482Y-141660000D01*
X199160920Y-141969074D01*
X199160920Y-141969074D01*
G37*
X199160920Y-141969074D02*
X198759074Y-142370920D01*
X198443346Y-142843440D01*
X198225869Y-143368477D01*
X198115000Y-143925852D01*
X198115000Y-144494148D01*
X198225869Y-145051523D01*
X198443346Y-145576560D01*
X198759074Y-146049080D01*
X199160920Y-146450926D01*
X199633440Y-146766654D01*
X200158477Y-146984131D01*
X200715852Y-147095000D01*
X201284148Y-147095000D01*
X201841523Y-146984131D01*
X202366560Y-146766654D01*
X202839080Y-146450926D01*
X203240926Y-146049080D01*
X203540000Y-145601484D01*
X203540001Y-234433483D01*
X203230926Y-233970920D01*
X202829080Y-233569074D01*
X202356560Y-233253346D01*
X201831523Y-233035869D01*
X201274148Y-232925000D01*
X200705852Y-232925000D01*
X200148477Y-233035869D01*
X199623440Y-233253346D01*
X199150920Y-233569074D01*
X198749074Y-233970920D01*
X198433346Y-234443440D01*
X198215869Y-234968477D01*
X198105000Y-235525852D01*
X198105000Y-236094148D01*
X198215869Y-236651523D01*
X198433346Y-237176560D01*
X198749074Y-237649080D01*
X199150920Y-238050926D01*
X199583549Y-238340000D01*
X126221417Y-238340000D01*
X126639080Y-238060926D01*
X127040926Y-237659080D01*
X127356654Y-237186560D01*
X127574131Y-236661523D01*
X127685000Y-236104148D01*
X127685000Y-235535852D01*
X127574131Y-234978477D01*
X127356654Y-234453440D01*
X127040926Y-233980920D01*
X126639080Y-233579074D01*
X126166560Y-233263346D01*
X125641523Y-233045869D01*
X125084148Y-232935000D01*
X124515852Y-232935000D01*
X123958477Y-233045869D01*
X123433440Y-233263346D01*
X122960920Y-233579074D01*
X122559074Y-233980920D01*
X122260000Y-234428516D01*
X122260000Y-174830000D01*
X138716324Y-174830000D01*
X138720001Y-174867332D01*
X138720000Y-176132313D01*
X138716324Y-176169636D01*
X138720000Y-176206958D01*
X138720000Y-176206968D01*
X138730997Y-176318621D01*
X138761447Y-176419002D01*
X138774454Y-176461882D01*
X138845026Y-176593912D01*
X138870988Y-176625546D01*
X138939999Y-176709637D01*
X138969002Y-176733439D01*
X139351928Y-177116366D01*
X139351928Y-177470000D01*
X139364188Y-177594482D01*
X139400498Y-177714180D01*
X139459463Y-177824494D01*
X139538815Y-177921185D01*
X139635506Y-178000537D01*
X139745820Y-178059502D01*
X139865518Y-178095812D01*
X139990000Y-178108072D01*
X141490000Y-178108072D01*
X141520000Y-178105117D01*
X141520001Y-181902668D01*
X141516324Y-181940000D01*
X141520001Y-181977333D01*
X141530998Y-182088986D01*
X141535553Y-182104002D01*
X141574454Y-182232246D01*
X141645026Y-182364276D01*
X141695277Y-182425506D01*
X141740000Y-182480001D01*
X141768998Y-182503799D01*
X142188012Y-182922814D01*
X142185718Y-182930377D01*
X142166596Y-183026510D01*
X142154336Y-183150991D01*
X142154336Y-183175550D01*
X142151928Y-183200000D01*
X142151928Y-183750000D01*
X142164188Y-183874482D01*
X142164345Y-183875000D01*
X142164188Y-183875518D01*
X142151928Y-184000000D01*
X142151928Y-185000000D01*
X142164188Y-185124482D01*
X142200498Y-185244180D01*
X142259463Y-185354494D01*
X142338815Y-185451185D01*
X142435506Y-185530537D01*
X142545820Y-185589502D01*
X142665518Y-185625812D01*
X142790000Y-185638072D01*
X144180000Y-185638072D01*
X144180000Y-186132677D01*
X144176324Y-186170000D01*
X144180000Y-186207322D01*
X144180000Y-186207332D01*
X144190997Y-186318985D01*
X144230747Y-186450026D01*
X144234454Y-186462246D01*
X144305026Y-186594276D01*
X144344871Y-186642826D01*
X144399999Y-186710001D01*
X144429002Y-186733804D01*
X145506201Y-187811003D01*
X145529999Y-187840001D01*
X145645724Y-187934974D01*
X145777753Y-188005546D01*
X145921014Y-188049003D01*
X146032667Y-188060000D01*
X146032676Y-188060000D01*
X146069999Y-188063676D01*
X146107322Y-188060000D01*
X161812678Y-188060000D01*
X161850000Y-188063676D01*
X161887322Y-188060000D01*
X161887333Y-188060000D01*
X161998986Y-188049003D01*
X162142247Y-188005546D01*
X162274276Y-187934974D01*
X162390001Y-187840001D01*
X162413804Y-187810997D01*
X166184802Y-184040000D01*
X173836552Y-184040000D01*
X173828996Y-184046201D01*
X173828992Y-184046205D01*
X173799999Y-184069999D01*
X173776205Y-184098992D01*
X173193270Y-184681928D01*
X171410000Y-184681928D01*
X171285518Y-184694188D01*
X171165820Y-184730498D01*
X171055506Y-184789463D01*
X170958815Y-184868815D01*
X170879463Y-184965506D01*
X170820498Y-185075820D01*
X170784188Y-185195518D01*
X170771928Y-185320000D01*
X170771928Y-186320000D01*
X170784188Y-186444482D01*
X170820498Y-186564180D01*
X170879463Y-186674494D01*
X170958815Y-186771185D01*
X171055506Y-186850537D01*
X171165820Y-186909502D01*
X171285518Y-186945812D01*
X171410000Y-186958072D01*
X171905001Y-186958072D01*
X171905001Y-187047668D01*
X171901324Y-187085000D01*
X171915998Y-187233985D01*
X171959454Y-187377246D01*
X172030026Y-187509276D01*
X172101201Y-187596002D01*
X172125000Y-187625001D01*
X172153998Y-187648799D01*
X173166205Y-188661008D01*
X173189999Y-188690001D01*
X173218992Y-188713795D01*
X173218996Y-188713799D01*
X173289685Y-188771811D01*
X173305724Y-188784974D01*
X173437753Y-188855546D01*
X173581014Y-188899003D01*
X173692667Y-188910000D01*
X173692676Y-188910000D01*
X173729999Y-188913676D01*
X173767322Y-188910000D01*
X179412678Y-188910000D01*
X179450000Y-188913676D01*
X179487322Y-188910000D01*
X179487333Y-188910000D01*
X179598986Y-188899003D01*
X179742247Y-188855546D01*
X179874276Y-188784974D01*
X179990001Y-188690001D01*
X180013804Y-188660997D01*
X184238799Y-184436003D01*
X184238804Y-184435997D01*
X184280996Y-184393805D01*
X184310000Y-184370002D01*
X184404973Y-184254277D01*
X184475545Y-184122248D01*
X184519002Y-183978987D01*
X184529999Y-183867334D01*
X184533676Y-183830001D01*
X184529999Y-183792668D01*
X184529999Y-179625000D01*
X184596939Y-179625000D01*
X184796898Y-179585226D01*
X184985256Y-179507205D01*
X185154774Y-179393937D01*
X185298937Y-179249774D01*
X185412205Y-179080256D01*
X185490226Y-178891898D01*
X185530000Y-178691939D01*
X185530000Y-178635002D01*
X185530001Y-178635001D01*
X185624974Y-178519276D01*
X185695546Y-178387247D01*
X185739003Y-178243986D01*
X185750000Y-178132333D01*
X185750000Y-178132325D01*
X185753676Y-178095000D01*
X185750000Y-178057675D01*
X185750000Y-169064801D01*
X193271009Y-161543794D01*
X193300001Y-161520001D01*
X193323795Y-161491008D01*
X193323799Y-161491004D01*
X193394973Y-161404277D01*
X193394974Y-161404276D01*
X193465546Y-161272247D01*
X193509003Y-161128986D01*
X193520000Y-161017333D01*
X193520000Y-161017324D01*
X193523676Y-160980001D01*
X193520000Y-160942678D01*
X193520000Y-160904701D01*
X193605000Y-160913072D01*
X193719250Y-160910000D01*
X193878000Y-160751250D01*
X193878000Y-159652000D01*
X194132000Y-159652000D01*
X194132000Y-160751250D01*
X194290750Y-160910000D01*
X194405000Y-160913072D01*
X194529482Y-160900812D01*
X194649180Y-160864502D01*
X194759494Y-160805537D01*
X194856185Y-160726185D01*
X194935537Y-160629494D01*
X194994502Y-160519180D01*
X195030812Y-160399482D01*
X195043072Y-160275000D01*
X195040000Y-159810750D01*
X194881250Y-159652000D01*
X194132000Y-159652000D01*
X193878000Y-159652000D01*
X193858000Y-159652000D01*
X193858000Y-159398000D01*
X193878000Y-159398000D01*
X193878000Y-158298750D01*
X194132000Y-158298750D01*
X194132000Y-159398000D01*
X194881250Y-159398000D01*
X195040000Y-159239250D01*
X195042582Y-158849034D01*
X195050506Y-158855537D01*
X195160820Y-158914502D01*
X195280518Y-158950812D01*
X195405000Y-158963072D01*
X197605000Y-158963072D01*
X197729482Y-158950812D01*
X197849180Y-158914502D01*
X197959494Y-158855537D01*
X198056185Y-158776185D01*
X198135537Y-158679494D01*
X198194502Y-158569180D01*
X198230812Y-158449482D01*
X198243072Y-158325000D01*
X198243072Y-155225000D01*
X198230812Y-155100518D01*
X198194502Y-154980820D01*
X198135537Y-154870506D01*
X198056185Y-154773815D01*
X197959494Y-154694463D01*
X197849180Y-154635498D01*
X197729482Y-154599188D01*
X197605000Y-154586928D01*
X195405000Y-154586928D01*
X195280518Y-154599188D01*
X195160820Y-154635498D01*
X195050506Y-154694463D01*
X194953815Y-154773815D01*
X194874463Y-154870506D01*
X194815498Y-154980820D01*
X194779188Y-155100518D01*
X194766928Y-155225000D01*
X194766928Y-158250564D01*
X194759494Y-158244463D01*
X194649180Y-158185498D01*
X194529482Y-158149188D01*
X194405000Y-158136928D01*
X194290750Y-158140000D01*
X194132000Y-158298750D01*
X193878000Y-158298750D01*
X193719250Y-158140000D01*
X193605000Y-158136928D01*
X193480518Y-158149188D01*
X193380000Y-158179680D01*
X193279482Y-158149188D01*
X193155000Y-158136928D01*
X192355000Y-158136928D01*
X192230518Y-158149188D01*
X192130000Y-158179680D01*
X192029482Y-158149188D01*
X191905000Y-158136928D01*
X191105000Y-158136928D01*
X190980518Y-158149188D01*
X190880000Y-158179680D01*
X190779482Y-158149188D01*
X190655000Y-158136928D01*
X189855000Y-158136928D01*
X189730518Y-158149188D01*
X189610820Y-158185498D01*
X189500506Y-158244463D01*
X189493072Y-158250564D01*
X189493072Y-155225000D01*
X189480812Y-155100518D01*
X189444502Y-154980820D01*
X189385537Y-154870506D01*
X189306185Y-154773815D01*
X189209494Y-154694463D01*
X189099180Y-154635498D01*
X188979482Y-154599188D01*
X188855000Y-154586928D01*
X186655000Y-154586928D01*
X186530518Y-154599188D01*
X186410820Y-154635498D01*
X186300506Y-154694463D01*
X186203815Y-154773815D01*
X186124463Y-154870506D01*
X186065498Y-154980820D01*
X186029188Y-155100518D01*
X186016928Y-155225000D01*
X186016928Y-158325000D01*
X186029188Y-158449482D01*
X186065498Y-158569180D01*
X186124463Y-158679494D01*
X186203815Y-158776185D01*
X186300506Y-158855537D01*
X186410820Y-158914502D01*
X186530518Y-158950812D01*
X186655000Y-158963072D01*
X188855000Y-158963072D01*
X188979482Y-158950812D01*
X189099180Y-158914502D01*
X189209494Y-158855537D01*
X189216928Y-158849436D01*
X189216928Y-160275000D01*
X189229188Y-160399482D01*
X189246999Y-160458199D01*
X182009003Y-167696196D01*
X181979999Y-167719999D01*
X181935309Y-167774455D01*
X181885026Y-167835724D01*
X181829289Y-167940000D01*
X181814454Y-167967754D01*
X181770997Y-168111015D01*
X181760000Y-168222668D01*
X181760000Y-168222678D01*
X181756324Y-168260000D01*
X181760000Y-168297322D01*
X181760001Y-178195197D01*
X179975199Y-179980000D01*
X179900000Y-179980000D01*
X179900000Y-176917323D01*
X179903676Y-176880000D01*
X179900000Y-176842677D01*
X179900000Y-176842667D01*
X179889003Y-176731014D01*
X179845546Y-176587753D01*
X179774974Y-176455724D01*
X179680001Y-176339999D01*
X179651004Y-176316202D01*
X177519877Y-174185076D01*
X177584494Y-174150537D01*
X177681185Y-174071185D01*
X177760537Y-173974494D01*
X177819502Y-173864180D01*
X177855812Y-173744482D01*
X177868072Y-173620000D01*
X177868072Y-172620000D01*
X177855812Y-172495518D01*
X177819502Y-172375820D01*
X177760537Y-172265506D01*
X177681185Y-172168815D01*
X177584494Y-172089463D01*
X177474180Y-172030498D01*
X177354482Y-171994188D01*
X177230000Y-171981928D01*
X174720000Y-171981928D01*
X174595518Y-171994188D01*
X174475820Y-172030498D01*
X174365506Y-172089463D01*
X174268815Y-172168815D01*
X174189463Y-172265506D01*
X174130498Y-172375820D01*
X174094188Y-172495518D01*
X174081928Y-172620000D01*
X174081928Y-173480000D01*
X164127325Y-173480000D01*
X164090000Y-173476324D01*
X164052675Y-173480000D01*
X164052667Y-173480000D01*
X163941014Y-173490997D01*
X163797753Y-173534454D01*
X163665724Y-173605026D01*
X163549999Y-173699999D01*
X163526201Y-173728997D01*
X161308998Y-175946201D01*
X161280000Y-175969999D01*
X161256202Y-175998997D01*
X161256201Y-175998998D01*
X161231037Y-176029660D01*
X161229482Y-176029188D01*
X161105000Y-176016928D01*
X159655000Y-176016928D01*
X159620161Y-176020359D01*
X154978804Y-171379003D01*
X154955001Y-171349999D01*
X154839276Y-171255026D01*
X154835091Y-171252789D01*
X154855812Y-171184482D01*
X154866102Y-171080000D01*
X170771928Y-171080000D01*
X170784188Y-171204482D01*
X170820498Y-171324180D01*
X170879463Y-171434494D01*
X170958815Y-171531185D01*
X171055506Y-171610537D01*
X171165820Y-171669502D01*
X171285518Y-171705812D01*
X171410000Y-171718072D01*
X172379250Y-171715000D01*
X172538000Y-171556250D01*
X172538000Y-170707000D01*
X172792000Y-170707000D01*
X172792000Y-171556250D01*
X172950750Y-171715000D01*
X173920000Y-171718072D01*
X174044482Y-171705812D01*
X174164180Y-171669502D01*
X174274494Y-171610537D01*
X174371185Y-171531185D01*
X174450537Y-171434494D01*
X174509502Y-171324180D01*
X174545812Y-171204482D01*
X174558072Y-171080000D01*
X174555000Y-170865750D01*
X174396250Y-170707000D01*
X172792000Y-170707000D01*
X172538000Y-170707000D01*
X170933750Y-170707000D01*
X170775000Y-170865750D01*
X170771928Y-171080000D01*
X154866102Y-171080000D01*
X154868072Y-171060000D01*
X154868072Y-170080000D01*
X170771928Y-170080000D01*
X170775000Y-170294250D01*
X170933750Y-170453000D01*
X172538000Y-170453000D01*
X172538000Y-169603750D01*
X172792000Y-169603750D01*
X172792000Y-170453000D01*
X174396250Y-170453000D01*
X174555000Y-170294250D01*
X174558072Y-170080000D01*
X174545812Y-169955518D01*
X174509502Y-169835820D01*
X174450537Y-169725506D01*
X174371185Y-169628815D01*
X174274494Y-169549463D01*
X174164180Y-169490498D01*
X174044482Y-169454188D01*
X173920000Y-169441928D01*
X172950750Y-169445000D01*
X172792000Y-169603750D01*
X172538000Y-169603750D01*
X172379250Y-169445000D01*
X171410000Y-169441928D01*
X171285518Y-169454188D01*
X171165820Y-169490498D01*
X171055506Y-169549463D01*
X170958815Y-169628815D01*
X170879463Y-169725506D01*
X170820498Y-169835820D01*
X170784188Y-169955518D01*
X170771928Y-170080000D01*
X154868072Y-170080000D01*
X154868072Y-170060000D01*
X154855812Y-169935518D01*
X154819502Y-169815820D01*
X154760537Y-169705506D01*
X154681185Y-169608815D01*
X154584494Y-169529463D01*
X154474180Y-169470498D01*
X154354482Y-169434188D01*
X154230000Y-169421928D01*
X151720000Y-169421928D01*
X151595518Y-169434188D01*
X151475820Y-169470498D01*
X151365506Y-169529463D01*
X151268815Y-169608815D01*
X151189463Y-169705506D01*
X151130498Y-169815820D01*
X151094188Y-169935518D01*
X151081928Y-170060000D01*
X151081928Y-171060000D01*
X151088822Y-171130000D01*
X142457323Y-171130000D01*
X142420000Y-171126324D01*
X142382677Y-171130000D01*
X142382667Y-171130000D01*
X142271014Y-171140997D01*
X142127753Y-171184454D01*
X141995724Y-171255026D01*
X141879999Y-171349999D01*
X141856201Y-171378997D01*
X138968998Y-174266201D01*
X138940000Y-174289999D01*
X138916202Y-174318997D01*
X138916201Y-174318998D01*
X138845026Y-174405724D01*
X138774454Y-174537754D01*
X138746541Y-174629774D01*
X138734037Y-174670998D01*
X138730998Y-174681015D01*
X138716324Y-174830000D01*
X122260000Y-174830000D01*
X122260000Y-145591484D01*
X122559074Y-146039080D01*
X122960920Y-146440926D01*
X123433440Y-146756654D01*
X123958477Y-146974131D01*
X124515852Y-147085000D01*
X125084148Y-147085000D01*
X125641523Y-146974131D01*
X126166560Y-146756654D01*
X126639080Y-146440926D01*
X127040926Y-146039080D01*
X127356654Y-145566560D01*
X127574131Y-145041523D01*
X127685000Y-144484148D01*
X127685000Y-143915852D01*
X127574131Y-143358477D01*
X127356654Y-142833440D01*
X127040926Y-142360920D01*
X126639080Y-141959074D01*
X126191484Y-141660000D01*
X199623482Y-141660000D01*
X199160920Y-141969074D01*
G36*
X169809002Y-179486197D02*
G01*
X169779999Y-179509999D01*
X169743047Y-179555026D01*
X169685026Y-179625724D01*
X169629242Y-179730088D01*
X169614454Y-179757754D01*
X169570997Y-179901015D01*
X169560000Y-180012668D01*
X169560000Y-180012678D01*
X169556324Y-180050000D01*
X169560000Y-180087323D01*
X169560001Y-181202668D01*
X169556324Y-181240000D01*
X169570998Y-181388985D01*
X169614454Y-181532246D01*
X169685026Y-181664276D01*
X169756201Y-181751002D01*
X169780000Y-181780001D01*
X169808998Y-181803799D01*
X170525197Y-182520000D01*
X165907333Y-182520000D01*
X165870000Y-182516323D01*
X165832667Y-182520000D01*
X165721014Y-182530997D01*
X165577753Y-182574454D01*
X165445724Y-182645026D01*
X165329999Y-182739999D01*
X165306201Y-182768997D01*
X161535199Y-186540000D01*
X154820770Y-186540000D01*
X154855812Y-186424482D01*
X154868072Y-186300000D01*
X154865000Y-186085750D01*
X154706250Y-185927000D01*
X153102000Y-185927000D01*
X153102000Y-185947000D01*
X152848000Y-185947000D01*
X152848000Y-185927000D01*
X151243750Y-185927000D01*
X151085000Y-186085750D01*
X151081928Y-186300000D01*
X151094188Y-186424482D01*
X151129230Y-186540000D01*
X146384802Y-186540000D01*
X145700000Y-185855199D01*
X145700000Y-185658072D01*
X147160000Y-185658072D01*
X147284482Y-185645812D01*
X147404180Y-185609502D01*
X147514494Y-185550537D01*
X147611185Y-185471185D01*
X147690537Y-185374494D01*
X147741046Y-185280000D01*
X151083898Y-185280000D01*
X151081928Y-185300000D01*
X151085000Y-185514250D01*
X151243750Y-185673000D01*
X152848000Y-185673000D01*
X152848000Y-185653000D01*
X153102000Y-185653000D01*
X153102000Y-185673000D01*
X154706250Y-185673000D01*
X154865000Y-185514250D01*
X154868072Y-185300000D01*
X154866102Y-185280000D01*
X162122678Y-185280000D01*
X162160000Y-185283676D01*
X162197322Y-185280000D01*
X162197333Y-185280000D01*
X162308986Y-185269003D01*
X162452247Y-185225546D01*
X162584276Y-185154974D01*
X162700001Y-185060001D01*
X162723804Y-185030997D01*
X168794802Y-178960000D01*
X170335198Y-178960000D01*
X169809002Y-179486197D01*
X169809002Y-179486197D01*
G37*
X169809002Y-179486197D02*
X169779999Y-179509999D01*
X169743047Y-179555026D01*
X169685026Y-179625724D01*
X169629242Y-179730088D01*
X169614454Y-179757754D01*
X169570997Y-179901015D01*
X169560000Y-180012668D01*
X169560000Y-180012678D01*
X169556324Y-180050000D01*
X169560000Y-180087323D01*
X169560001Y-181202668D01*
X169556324Y-181240000D01*
X169570998Y-181388985D01*
X169614454Y-181532246D01*
X169685026Y-181664276D01*
X169756201Y-181751002D01*
X169780000Y-181780001D01*
X169808998Y-181803799D01*
X170525197Y-182520000D01*
X165907333Y-182520000D01*
X165870000Y-182516323D01*
X165832667Y-182520000D01*
X165721014Y-182530997D01*
X165577753Y-182574454D01*
X165445724Y-182645026D01*
X165329999Y-182739999D01*
X165306201Y-182768997D01*
X161535199Y-186540000D01*
X154820770Y-186540000D01*
X154855812Y-186424482D01*
X154868072Y-186300000D01*
X154865000Y-186085750D01*
X154706250Y-185927000D01*
X153102000Y-185927000D01*
X153102000Y-185947000D01*
X152848000Y-185947000D01*
X152848000Y-185927000D01*
X151243750Y-185927000D01*
X151085000Y-186085750D01*
X151081928Y-186300000D01*
X151094188Y-186424482D01*
X151129230Y-186540000D01*
X146384802Y-186540000D01*
X145700000Y-185855199D01*
X145700000Y-185658072D01*
X147160000Y-185658072D01*
X147284482Y-185645812D01*
X147404180Y-185609502D01*
X147514494Y-185550537D01*
X147611185Y-185471185D01*
X147690537Y-185374494D01*
X147741046Y-185280000D01*
X151083898Y-185280000D01*
X151081928Y-185300000D01*
X151085000Y-185514250D01*
X151243750Y-185673000D01*
X152848000Y-185673000D01*
X152848000Y-185653000D01*
X153102000Y-185653000D01*
X153102000Y-185673000D01*
X154706250Y-185673000D01*
X154865000Y-185514250D01*
X154868072Y-185300000D01*
X154866102Y-185280000D01*
X162122678Y-185280000D01*
X162160000Y-185283676D01*
X162197322Y-185280000D01*
X162197333Y-185280000D01*
X162308986Y-185269003D01*
X162452247Y-185225546D01*
X162584276Y-185154974D01*
X162700001Y-185060001D01*
X162723804Y-185030997D01*
X168794802Y-178960000D01*
X170335198Y-178960000D01*
X169809002Y-179486197D01*
G36*
X145111928Y-177450000D02*
G01*
X145124188Y-177574482D01*
X145160498Y-177694180D01*
X145219463Y-177804494D01*
X145298815Y-177901185D01*
X145395506Y-177980537D01*
X145505820Y-178039502D01*
X145625518Y-178075812D01*
X145750000Y-178088072D01*
X147250000Y-178088072D01*
X147374482Y-178075812D01*
X147494180Y-178039502D01*
X147604494Y-177980537D01*
X147701185Y-177901185D01*
X147771928Y-177814984D01*
X147771928Y-178680000D01*
X147784188Y-178804482D01*
X147820498Y-178924180D01*
X147879463Y-179034494D01*
X147958815Y-179131185D01*
X148055506Y-179210537D01*
X148165820Y-179269502D01*
X148285518Y-179305812D01*
X148410000Y-179318072D01*
X150920000Y-179318072D01*
X151044482Y-179305812D01*
X151164180Y-179269502D01*
X151274494Y-179210537D01*
X151371185Y-179131185D01*
X151450537Y-179034494D01*
X151509502Y-178924180D01*
X151545812Y-178804482D01*
X151547361Y-178788751D01*
X151579314Y-178814974D01*
X151711343Y-178885546D01*
X151854604Y-178929003D01*
X151966257Y-178940000D01*
X151966265Y-178940000D01*
X152003590Y-178943676D01*
X152040915Y-178940000D01*
X157285198Y-178940000D01*
X156265199Y-179960000D01*
X154811046Y-179960000D01*
X154760537Y-179865506D01*
X154681185Y-179768815D01*
X154584494Y-179689463D01*
X154474180Y-179630498D01*
X154354482Y-179594188D01*
X154230000Y-179581928D01*
X151720000Y-179581928D01*
X151595518Y-179594188D01*
X151475820Y-179630498D01*
X151365506Y-179689463D01*
X151268815Y-179768815D01*
X151189463Y-179865506D01*
X151130498Y-179975820D01*
X151094188Y-180095518D01*
X151081928Y-180220000D01*
X151081928Y-181220000D01*
X151094188Y-181344482D01*
X151130498Y-181464180D01*
X151189463Y-181574494D01*
X151268815Y-181671185D01*
X151365506Y-181750537D01*
X151475820Y-181809502D01*
X151540942Y-181829257D01*
X151187328Y-182182871D01*
X151164180Y-182170498D01*
X151044482Y-182134188D01*
X150920000Y-182121928D01*
X148410000Y-182121928D01*
X148285518Y-182134188D01*
X148165820Y-182170498D01*
X148055506Y-182229463D01*
X147958815Y-182308815D01*
X147879463Y-182405506D01*
X147850335Y-182460000D01*
X147504569Y-182460000D01*
X147497690Y-182451618D01*
X147428382Y-182382310D01*
X147331691Y-182302958D01*
X147250192Y-182248502D01*
X147139875Y-182189536D01*
X147049319Y-182152027D01*
X146929623Y-182115718D01*
X146833490Y-182096596D01*
X146709009Y-182084336D01*
X146684450Y-182084336D01*
X146660000Y-182081928D01*
X146160000Y-182081928D01*
X146135550Y-182084336D01*
X146110991Y-182084336D01*
X145986510Y-182096596D01*
X145890377Y-182115718D01*
X145770681Y-182152027D01*
X145680125Y-182189536D01*
X145569808Y-182248502D01*
X145488309Y-182302958D01*
X145391618Y-182382310D01*
X145333928Y-182440000D01*
X144634569Y-182440000D01*
X144627690Y-182431618D01*
X144558382Y-182362310D01*
X144461691Y-182282958D01*
X144380192Y-182228502D01*
X144269875Y-182169536D01*
X144179319Y-182132027D01*
X144059623Y-182095718D01*
X143963490Y-182076596D01*
X143839009Y-182064336D01*
X143814450Y-182064336D01*
X143790000Y-182061928D01*
X143476730Y-182061928D01*
X143040000Y-181625199D01*
X143040000Y-178088072D01*
X144370000Y-178088072D01*
X144494482Y-178075812D01*
X144614180Y-178039502D01*
X144724494Y-177980537D01*
X144821185Y-177901185D01*
X144900537Y-177804494D01*
X144959502Y-177694180D01*
X144995812Y-177574482D01*
X145008072Y-177450000D01*
X145008072Y-177236729D01*
X145111928Y-177132873D01*
X145111928Y-177450000D01*
X145111928Y-177450000D01*
G37*
X145111928Y-177450000D02*
X145124188Y-177574482D01*
X145160498Y-177694180D01*
X145219463Y-177804494D01*
X145298815Y-177901185D01*
X145395506Y-177980537D01*
X145505820Y-178039502D01*
X145625518Y-178075812D01*
X145750000Y-178088072D01*
X147250000Y-178088072D01*
X147374482Y-178075812D01*
X147494180Y-178039502D01*
X147604494Y-177980537D01*
X147701185Y-177901185D01*
X147771928Y-177814984D01*
X147771928Y-178680000D01*
X147784188Y-178804482D01*
X147820498Y-178924180D01*
X147879463Y-179034494D01*
X147958815Y-179131185D01*
X148055506Y-179210537D01*
X148165820Y-179269502D01*
X148285518Y-179305812D01*
X148410000Y-179318072D01*
X150920000Y-179318072D01*
X151044482Y-179305812D01*
X151164180Y-179269502D01*
X151274494Y-179210537D01*
X151371185Y-179131185D01*
X151450537Y-179034494D01*
X151509502Y-178924180D01*
X151545812Y-178804482D01*
X151547361Y-178788751D01*
X151579314Y-178814974D01*
X151711343Y-178885546D01*
X151854604Y-178929003D01*
X151966257Y-178940000D01*
X151966265Y-178940000D01*
X152003590Y-178943676D01*
X152040915Y-178940000D01*
X157285198Y-178940000D01*
X156265199Y-179960000D01*
X154811046Y-179960000D01*
X154760537Y-179865506D01*
X154681185Y-179768815D01*
X154584494Y-179689463D01*
X154474180Y-179630498D01*
X154354482Y-179594188D01*
X154230000Y-179581928D01*
X151720000Y-179581928D01*
X151595518Y-179594188D01*
X151475820Y-179630498D01*
X151365506Y-179689463D01*
X151268815Y-179768815D01*
X151189463Y-179865506D01*
X151130498Y-179975820D01*
X151094188Y-180095518D01*
X151081928Y-180220000D01*
X151081928Y-181220000D01*
X151094188Y-181344482D01*
X151130498Y-181464180D01*
X151189463Y-181574494D01*
X151268815Y-181671185D01*
X151365506Y-181750537D01*
X151475820Y-181809502D01*
X151540942Y-181829257D01*
X151187328Y-182182871D01*
X151164180Y-182170498D01*
X151044482Y-182134188D01*
X150920000Y-182121928D01*
X148410000Y-182121928D01*
X148285518Y-182134188D01*
X148165820Y-182170498D01*
X148055506Y-182229463D01*
X147958815Y-182308815D01*
X147879463Y-182405506D01*
X147850335Y-182460000D01*
X147504569Y-182460000D01*
X147497690Y-182451618D01*
X147428382Y-182382310D01*
X147331691Y-182302958D01*
X147250192Y-182248502D01*
X147139875Y-182189536D01*
X147049319Y-182152027D01*
X146929623Y-182115718D01*
X146833490Y-182096596D01*
X146709009Y-182084336D01*
X146684450Y-182084336D01*
X146660000Y-182081928D01*
X146160000Y-182081928D01*
X146135550Y-182084336D01*
X146110991Y-182084336D01*
X145986510Y-182096596D01*
X145890377Y-182115718D01*
X145770681Y-182152027D01*
X145680125Y-182189536D01*
X145569808Y-182248502D01*
X145488309Y-182302958D01*
X145391618Y-182382310D01*
X145333928Y-182440000D01*
X144634569Y-182440000D01*
X144627690Y-182431618D01*
X144558382Y-182362310D01*
X144461691Y-182282958D01*
X144380192Y-182228502D01*
X144269875Y-182169536D01*
X144179319Y-182132027D01*
X144059623Y-182095718D01*
X143963490Y-182076596D01*
X143839009Y-182064336D01*
X143814450Y-182064336D01*
X143790000Y-182061928D01*
X143476730Y-182061928D01*
X143040000Y-181625199D01*
X143040000Y-178088072D01*
X144370000Y-178088072D01*
X144494482Y-178075812D01*
X144614180Y-178039502D01*
X144724494Y-177980537D01*
X144821185Y-177901185D01*
X144900537Y-177804494D01*
X144959502Y-177694180D01*
X144995812Y-177574482D01*
X145008072Y-177450000D01*
X145008072Y-177236729D01*
X145111928Y-177132873D01*
X145111928Y-177450000D01*
G36*
X170784188Y-175035518D02*
G01*
X170771928Y-175160000D01*
X170771928Y-175920000D01*
X167942322Y-175920000D01*
X167904999Y-175916324D01*
X167867676Y-175920000D01*
X167867667Y-175920000D01*
X167756014Y-175930997D01*
X167612753Y-175974454D01*
X167480724Y-176045026D01*
X167364999Y-176139999D01*
X167341201Y-176168997D01*
X166143072Y-177367127D01*
X166143072Y-177305000D01*
X166132905Y-177201773D01*
X166140000Y-177136750D01*
X166107753Y-177104503D01*
X166094502Y-177060820D01*
X166035537Y-176950506D01*
X165956185Y-176853815D01*
X165868678Y-176782000D01*
X165981250Y-176782000D01*
X166140000Y-176623250D01*
X166128844Y-176521004D01*
X166090715Y-176401873D01*
X166030078Y-176292469D01*
X165949263Y-176196997D01*
X165851375Y-176119126D01*
X165740175Y-176061849D01*
X165619939Y-176027366D01*
X165495285Y-176017002D01*
X165065750Y-176020000D01*
X164907000Y-176178750D01*
X164907000Y-176666928D01*
X164653000Y-176666928D01*
X164653000Y-176178750D01*
X164494250Y-176020000D01*
X164064715Y-176017002D01*
X163940061Y-176027366D01*
X163819825Y-176061849D01*
X163708625Y-176119126D01*
X163610737Y-176196997D01*
X163529922Y-176292469D01*
X163469285Y-176401873D01*
X163431156Y-176521004D01*
X163420000Y-176623250D01*
X163578750Y-176782000D01*
X163691322Y-176782000D01*
X163603815Y-176853815D01*
X163524463Y-176950506D01*
X163465498Y-177060820D01*
X163452247Y-177104503D01*
X163420000Y-177136750D01*
X163427095Y-177201773D01*
X163416928Y-177305000D01*
X163416928Y-177490931D01*
X163315724Y-177545026D01*
X163199999Y-177639999D01*
X163176196Y-177669003D01*
X162749003Y-178096196D01*
X162719999Y-178119999D01*
X162682474Y-178165724D01*
X162625026Y-178235724D01*
X162580000Y-178319961D01*
X162580000Y-176824801D01*
X164404802Y-175000000D01*
X170794962Y-175000000D01*
X170784188Y-175035518D01*
X170784188Y-175035518D01*
G37*
X170784188Y-175035518D02*
X170771928Y-175160000D01*
X170771928Y-175920000D01*
X167942322Y-175920000D01*
X167904999Y-175916324D01*
X167867676Y-175920000D01*
X167867667Y-175920000D01*
X167756014Y-175930997D01*
X167612753Y-175974454D01*
X167480724Y-176045026D01*
X167364999Y-176139999D01*
X167341201Y-176168997D01*
X166143072Y-177367127D01*
X166143072Y-177305000D01*
X166132905Y-177201773D01*
X166140000Y-177136750D01*
X166107753Y-177104503D01*
X166094502Y-177060820D01*
X166035537Y-176950506D01*
X165956185Y-176853815D01*
X165868678Y-176782000D01*
X165981250Y-176782000D01*
X166140000Y-176623250D01*
X166128844Y-176521004D01*
X166090715Y-176401873D01*
X166030078Y-176292469D01*
X165949263Y-176196997D01*
X165851375Y-176119126D01*
X165740175Y-176061849D01*
X165619939Y-176027366D01*
X165495285Y-176017002D01*
X165065750Y-176020000D01*
X164907000Y-176178750D01*
X164907000Y-176666928D01*
X164653000Y-176666928D01*
X164653000Y-176178750D01*
X164494250Y-176020000D01*
X164064715Y-176017002D01*
X163940061Y-176027366D01*
X163819825Y-176061849D01*
X163708625Y-176119126D01*
X163610737Y-176196997D01*
X163529922Y-176292469D01*
X163469285Y-176401873D01*
X163431156Y-176521004D01*
X163420000Y-176623250D01*
X163578750Y-176782000D01*
X163691322Y-176782000D01*
X163603815Y-176853815D01*
X163524463Y-176950506D01*
X163465498Y-177060820D01*
X163452247Y-177104503D01*
X163420000Y-177136750D01*
X163427095Y-177201773D01*
X163416928Y-177305000D01*
X163416928Y-177490931D01*
X163315724Y-177545026D01*
X163199999Y-177639999D01*
X163176196Y-177669003D01*
X162749003Y-178096196D01*
X162719999Y-178119999D01*
X162682474Y-178165724D01*
X162625026Y-178235724D01*
X162580000Y-178319961D01*
X162580000Y-176824801D01*
X164404802Y-175000000D01*
X170794962Y-175000000D01*
X170784188Y-175035518D01*
M02*
