G04 #@! TF.GenerationSoftware,KiCad,Pcbnew,(5.1.2)-2*
G04 #@! TF.CreationDate,2021-12-15T08:57:31-03:00*
G04 #@! TF.ProjectId,MAG_Plus,4d41475f-506c-4757-932e-6b696361645f,rev?*
G04 #@! TF.SameCoordinates,Original*
G04 #@! TF.FileFunction,Soldermask,Bot*
G04 #@! TF.FilePolarity,Negative*
%FSLAX46Y46*%
G04 Gerber Fmt 4.6, Leading zero omitted, Abs format (unit mm)*
G04 Created by KiCad (PCBNEW (5.1.2)-2) date 2021-12-15 08:57:31*
%MOMM*%
%LPD*%
G04 APERTURE LIST*
%ADD10C,0.100000*%
G04 APERTURE END LIST*
D10*
G36*
X125248903Y-233563213D02*
G01*
X125471177Y-233607426D01*
X125889932Y-233780880D01*
X126266802Y-234032696D01*
X126587304Y-234353198D01*
X126839120Y-234730068D01*
X127012574Y-235148823D01*
X127101000Y-235593371D01*
X127101000Y-236046629D01*
X127012574Y-236491177D01*
X126839120Y-236909932D01*
X126587304Y-237286802D01*
X126266802Y-237607304D01*
X125889932Y-237859120D01*
X125471177Y-238032574D01*
X125248903Y-238076787D01*
X125026630Y-238121000D01*
X124573370Y-238121000D01*
X124351097Y-238076787D01*
X124128823Y-238032574D01*
X123710068Y-237859120D01*
X123333198Y-237607304D01*
X123012696Y-237286802D01*
X122760880Y-236909932D01*
X122587426Y-236491177D01*
X122499000Y-236046629D01*
X122499000Y-235593371D01*
X122587426Y-235148823D01*
X122760880Y-234730068D01*
X123012696Y-234353198D01*
X123333198Y-234032696D01*
X123710068Y-233780880D01*
X124128823Y-233607426D01*
X124351097Y-233563213D01*
X124573370Y-233519000D01*
X125026630Y-233519000D01*
X125248903Y-233563213D01*
X125248903Y-233563213D01*
G37*
G36*
X201438903Y-233553213D02*
G01*
X201661177Y-233597426D01*
X202079932Y-233770880D01*
X202456802Y-234022696D01*
X202777304Y-234343198D01*
X203029120Y-234720068D01*
X203202574Y-235138823D01*
X203291000Y-235583371D01*
X203291000Y-236036629D01*
X203202574Y-236481177D01*
X203029120Y-236899932D01*
X202777304Y-237276802D01*
X202456802Y-237597304D01*
X202079932Y-237849120D01*
X201661177Y-238022574D01*
X201438903Y-238066787D01*
X201216630Y-238111000D01*
X200763370Y-238111000D01*
X200541097Y-238066787D01*
X200318823Y-238022574D01*
X199900068Y-237849120D01*
X199523198Y-237597304D01*
X199202696Y-237276802D01*
X198950880Y-236899932D01*
X198777426Y-236481177D01*
X198689000Y-236036629D01*
X198689000Y-235583371D01*
X198777426Y-235138823D01*
X198950880Y-234720068D01*
X199202696Y-234343198D01*
X199523198Y-234022696D01*
X199900068Y-233770880D01*
X200318823Y-233597426D01*
X200541097Y-233553213D01*
X200763370Y-233509000D01*
X201216630Y-233509000D01*
X201438903Y-233553213D01*
X201438903Y-233553213D01*
G37*
G36*
X201448903Y-141953213D02*
G01*
X201671177Y-141997426D01*
X202089932Y-142170880D01*
X202466802Y-142422696D01*
X202787304Y-142743198D01*
X203039120Y-143120068D01*
X203212574Y-143538823D01*
X203301000Y-143983371D01*
X203301000Y-144436629D01*
X203212574Y-144881177D01*
X203039120Y-145299932D01*
X202787304Y-145676802D01*
X202466802Y-145997304D01*
X202089932Y-146249120D01*
X201671177Y-146422574D01*
X201448903Y-146466787D01*
X201226630Y-146511000D01*
X200773370Y-146511000D01*
X200551097Y-146466787D01*
X200328823Y-146422574D01*
X199910068Y-146249120D01*
X199533198Y-145997304D01*
X199212696Y-145676802D01*
X198960880Y-145299932D01*
X198787426Y-144881177D01*
X198699000Y-144436629D01*
X198699000Y-143983371D01*
X198787426Y-143538823D01*
X198960880Y-143120068D01*
X199212696Y-142743198D01*
X199533198Y-142422696D01*
X199910068Y-142170880D01*
X200328823Y-141997426D01*
X200551097Y-141953213D01*
X200773370Y-141909000D01*
X201226630Y-141909000D01*
X201448903Y-141953213D01*
X201448903Y-141953213D01*
G37*
G36*
X125248903Y-141943213D02*
G01*
X125471177Y-141987426D01*
X125889932Y-142160880D01*
X126266802Y-142412696D01*
X126587304Y-142733198D01*
X126839120Y-143110068D01*
X127012574Y-143528823D01*
X127101000Y-143973371D01*
X127101000Y-144426629D01*
X127012574Y-144871177D01*
X126839120Y-145289932D01*
X126587304Y-145666802D01*
X126266802Y-145987304D01*
X125889932Y-146239120D01*
X125471177Y-146412574D01*
X125248903Y-146456787D01*
X125026630Y-146501000D01*
X124573370Y-146501000D01*
X124351097Y-146456787D01*
X124128823Y-146412574D01*
X123710068Y-146239120D01*
X123333198Y-145987304D01*
X123012696Y-145666802D01*
X122760880Y-145289932D01*
X122587426Y-144871177D01*
X122499000Y-144426629D01*
X122499000Y-143973371D01*
X122587426Y-143528823D01*
X122760880Y-143110068D01*
X123012696Y-142733198D01*
X123333198Y-142412696D01*
X123710068Y-142160880D01*
X124128823Y-141987426D01*
X124351097Y-141943213D01*
X124573370Y-141899000D01*
X125026630Y-141899000D01*
X125248903Y-141943213D01*
X125248903Y-141943213D01*
G37*
M02*
