G04 #@! TF.GenerationSoftware,KiCad,Pcbnew,(5.1.2)-2*
G04 #@! TF.CreationDate,2021-12-15T08:57:30-03:00*
G04 #@! TF.ProjectId,MAG_Plus,4d41475f-506c-4757-932e-6b696361645f,rev?*
G04 #@! TF.SameCoordinates,Original*
G04 #@! TF.FileFunction,Legend,Top*
G04 #@! TF.FilePolarity,Positive*
%FSLAX46Y46*%
G04 Gerber Fmt 4.6, Leading zero omitted, Abs format (unit mm)*
G04 Created by KiCad (PCBNEW (5.1.2)-2) date 2021-12-15 08:57:30*
%MOMM*%
%LPD*%
G04 APERTURE LIST*
%ADD10C,0.150000*%
%ADD11C,0.300000*%
%ADD12C,0.100000*%
%ADD13C,0.120000*%
G04 APERTURE END LIST*
D10*
X141345714Y-183412380D02*
X140774285Y-183412380D01*
X141060000Y-183412380D02*
X141060000Y-182412380D01*
X140964761Y-182555238D01*
X140869523Y-182650476D01*
X140774285Y-182698095D01*
X140679047Y-184681428D02*
X141440952Y-184681428D01*
X141012380Y-185712380D02*
X141107619Y-185712380D01*
X141202857Y-185760000D01*
X141250476Y-185807619D01*
X141298095Y-185902857D01*
X141345714Y-186093333D01*
X141345714Y-186331428D01*
X141298095Y-186521904D01*
X141250476Y-186617142D01*
X141202857Y-186664761D01*
X141107619Y-186712380D01*
X141012380Y-186712380D01*
X140917142Y-186664761D01*
X140869523Y-186617142D01*
X140821904Y-186521904D01*
X140774285Y-186331428D01*
X140774285Y-186093333D01*
X140821904Y-185902857D01*
X140869523Y-185807619D01*
X140917142Y-185760000D01*
X141012380Y-185712380D01*
X138525714Y-175972380D02*
X137954285Y-175972380D01*
X138240000Y-175972380D02*
X138240000Y-174972380D01*
X138144761Y-175115238D01*
X138049523Y-175210476D01*
X137954285Y-175258095D01*
X137859047Y-177241428D02*
X138620952Y-177241428D01*
X138192380Y-178272380D02*
X138287619Y-178272380D01*
X138382857Y-178320000D01*
X138430476Y-178367619D01*
X138478095Y-178462857D01*
X138525714Y-178653333D01*
X138525714Y-178891428D01*
X138478095Y-179081904D01*
X138430476Y-179177142D01*
X138382857Y-179224761D01*
X138287619Y-179272380D01*
X138192380Y-179272380D01*
X138097142Y-179224761D01*
X138049523Y-179177142D01*
X138001904Y-179081904D01*
X137954285Y-178891428D01*
X137954285Y-178653333D01*
X138001904Y-178462857D01*
X138049523Y-178367619D01*
X138097142Y-178320000D01*
X138192380Y-178272380D01*
D11*
X140905714Y-168413571D02*
X141762857Y-168413571D01*
X141334285Y-169913571D02*
X141334285Y-168413571D01*
X142262857Y-169127857D02*
X142762857Y-169127857D01*
X142977142Y-169913571D02*
X142262857Y-169913571D01*
X142262857Y-168413571D01*
X142977142Y-168413571D01*
X143620000Y-169913571D02*
X143620000Y-168413571D01*
X144120000Y-169485000D01*
X144620000Y-168413571D01*
X144620000Y-169913571D01*
X145334285Y-169913571D02*
X145334285Y-168413571D01*
X145905714Y-168413571D01*
X146048571Y-168485000D01*
X146120000Y-168556428D01*
X146191428Y-168699285D01*
X146191428Y-168913571D01*
X146120000Y-169056428D01*
X146048571Y-169127857D01*
X145905714Y-169199285D01*
X145334285Y-169199285D01*
X140334285Y-171106428D02*
X140405714Y-171035000D01*
X140548571Y-170963571D01*
X140905714Y-170963571D01*
X141048571Y-171035000D01*
X141120000Y-171106428D01*
X141191428Y-171249285D01*
X141191428Y-171392142D01*
X141120000Y-171606428D01*
X140262857Y-172463571D01*
X141191428Y-172463571D01*
X142191428Y-172963571D02*
X142191428Y-170820714D01*
X144048571Y-172463571D02*
X143191428Y-172463571D01*
X143620000Y-172463571D02*
X143620000Y-170963571D01*
X143477142Y-171177857D01*
X143334285Y-171320714D01*
X143191428Y-171392142D01*
X145048571Y-172963571D02*
X145048571Y-170820714D01*
X146405714Y-170963571D02*
X146548571Y-170963571D01*
X146691428Y-171035000D01*
X146762857Y-171106428D01*
X146834285Y-171249285D01*
X146905714Y-171535000D01*
X146905714Y-171892142D01*
X146834285Y-172177857D01*
X146762857Y-172320714D01*
X146691428Y-172392142D01*
X146548571Y-172463571D01*
X146405714Y-172463571D01*
X146262857Y-172392142D01*
X146191428Y-172320714D01*
X146120000Y-172177857D01*
X146048571Y-171892142D01*
X146048571Y-171535000D01*
X146120000Y-171249285D01*
X146191428Y-171106428D01*
X146262857Y-171035000D01*
X146405714Y-170963571D01*
X143237142Y-188483571D02*
X143237142Y-186983571D01*
X143737142Y-188055000D01*
X144237142Y-186983571D01*
X144237142Y-188483571D01*
X144880000Y-188055000D02*
X145594285Y-188055000D01*
X144737142Y-188483571D02*
X145237142Y-186983571D01*
X145737142Y-188483571D01*
X147022857Y-187055000D02*
X146880000Y-186983571D01*
X146665714Y-186983571D01*
X146451428Y-187055000D01*
X146308571Y-187197857D01*
X146237142Y-187340714D01*
X146165714Y-187626428D01*
X146165714Y-187840714D01*
X146237142Y-188126428D01*
X146308571Y-188269285D01*
X146451428Y-188412142D01*
X146665714Y-188483571D01*
X146808571Y-188483571D01*
X147022857Y-188412142D01*
X147094285Y-188340714D01*
X147094285Y-187840714D01*
X146808571Y-187840714D01*
X144130000Y-191033571D02*
X143272857Y-191033571D01*
X143701428Y-191033571D02*
X143701428Y-189533571D01*
X143558571Y-189747857D01*
X143415714Y-189890714D01*
X143272857Y-189962142D01*
X145130000Y-191533571D02*
X145130000Y-189390714D01*
X146487142Y-189533571D02*
X146630000Y-189533571D01*
X146772857Y-189605000D01*
X146844285Y-189676428D01*
X146915714Y-189819285D01*
X146987142Y-190105000D01*
X146987142Y-190462142D01*
X146915714Y-190747857D01*
X146844285Y-190890714D01*
X146772857Y-190962142D01*
X146630000Y-191033571D01*
X146487142Y-191033571D01*
X146344285Y-190962142D01*
X146272857Y-190890714D01*
X146201428Y-190747857D01*
X146130000Y-190462142D01*
X146130000Y-190105000D01*
X146201428Y-189819285D01*
X146272857Y-189676428D01*
X146344285Y-189605000D01*
X146487142Y-189533571D01*
D12*
G36*
X132290000Y-166660000D02*
G01*
X127290000Y-166660000D01*
X127290000Y-161660000D01*
X132290000Y-161660000D01*
X132290000Y-166660000D01*
G37*
X132290000Y-166660000D02*
X127290000Y-166660000D01*
X127290000Y-161660000D01*
X132290000Y-161660000D01*
X132290000Y-166660000D01*
G36*
X132290000Y-160660000D02*
G01*
X127290000Y-160660000D01*
X127290000Y-155660000D01*
X132290000Y-155660000D01*
X132290000Y-160660000D01*
G37*
X132290000Y-160660000D02*
X127290000Y-160660000D01*
X127290000Y-155660000D01*
X132290000Y-155660000D01*
X132290000Y-160660000D01*
G36*
X132290000Y-172660000D02*
G01*
X127290000Y-172660000D01*
X127290000Y-167660000D01*
X132290000Y-167660000D01*
X132290000Y-172660000D01*
G37*
X132290000Y-172660000D02*
X127290000Y-172660000D01*
X127290000Y-167660000D01*
X132290000Y-167660000D01*
X132290000Y-172660000D01*
G36*
X132290000Y-154660000D02*
G01*
X127290000Y-154660000D01*
X127290000Y-149660000D01*
X132290000Y-149660000D01*
X132290000Y-154660000D01*
G37*
X132290000Y-154660000D02*
X127290000Y-154660000D01*
X127290000Y-149660000D01*
X132290000Y-149660000D01*
X132290000Y-154660000D01*
D10*
X126344761Y-174443333D02*
X126392380Y-174300476D01*
X126392380Y-174062380D01*
X126344761Y-173967142D01*
X126297142Y-173919523D01*
X126201904Y-173871904D01*
X126106666Y-173871904D01*
X126011428Y-173919523D01*
X125963809Y-173967142D01*
X125916190Y-174062380D01*
X125868571Y-174252857D01*
X125820952Y-174348095D01*
X125773333Y-174395714D01*
X125678095Y-174443333D01*
X125582857Y-174443333D01*
X125487619Y-174395714D01*
X125440000Y-174348095D01*
X125392380Y-174252857D01*
X125392380Y-174014761D01*
X125440000Y-173871904D01*
X126392380Y-173443333D02*
X125392380Y-173443333D01*
X125392380Y-173062380D01*
X125440000Y-172967142D01*
X125487619Y-172919523D01*
X125582857Y-172871904D01*
X125725714Y-172871904D01*
X125820952Y-172919523D01*
X125868571Y-172967142D01*
X125916190Y-173062380D01*
X125916190Y-173443333D01*
X125868571Y-172443333D02*
X125868571Y-172110000D01*
X126392380Y-171967142D02*
X126392380Y-172443333D01*
X125392380Y-172443333D01*
X125392380Y-171967142D01*
X126392380Y-171062380D02*
X126392380Y-171538571D01*
X125392380Y-171538571D01*
X126011428Y-169967142D02*
X126011428Y-169205238D01*
X125392380Y-167967142D02*
X126201904Y-167967142D01*
X126297142Y-167919523D01*
X126344761Y-167871904D01*
X126392380Y-167776666D01*
X126392380Y-167586190D01*
X126344761Y-167490952D01*
X126297142Y-167443333D01*
X126201904Y-167395714D01*
X125392380Y-167395714D01*
X125725714Y-166919523D02*
X126392380Y-166919523D01*
X125820952Y-166919523D02*
X125773333Y-166871904D01*
X125725714Y-166776666D01*
X125725714Y-166633809D01*
X125773333Y-166538571D01*
X125868571Y-166490952D01*
X126392380Y-166490952D01*
X126392380Y-166014761D02*
X125725714Y-166014761D01*
X125392380Y-166014761D02*
X125440000Y-166062380D01*
X125487619Y-166014761D01*
X125440000Y-165967142D01*
X125392380Y-166014761D01*
X125487619Y-166014761D01*
X125725714Y-165633809D02*
X126392380Y-165395714D01*
X125725714Y-165157619D01*
X126344761Y-164395714D02*
X126392380Y-164490952D01*
X126392380Y-164681428D01*
X126344761Y-164776666D01*
X126249523Y-164824285D01*
X125868571Y-164824285D01*
X125773333Y-164776666D01*
X125725714Y-164681428D01*
X125725714Y-164490952D01*
X125773333Y-164395714D01*
X125868571Y-164348095D01*
X125963809Y-164348095D01*
X126059047Y-164824285D01*
X126392380Y-163919523D02*
X125725714Y-163919523D01*
X125916190Y-163919523D02*
X125820952Y-163871904D01*
X125773333Y-163824285D01*
X125725714Y-163729047D01*
X125725714Y-163633809D01*
X126344761Y-163348095D02*
X126392380Y-163252857D01*
X126392380Y-163062380D01*
X126344761Y-162967142D01*
X126249523Y-162919523D01*
X126201904Y-162919523D01*
X126106666Y-162967142D01*
X126059047Y-163062380D01*
X126059047Y-163205238D01*
X126011428Y-163300476D01*
X125916190Y-163348095D01*
X125868571Y-163348095D01*
X125773333Y-163300476D01*
X125725714Y-163205238D01*
X125725714Y-163062380D01*
X125773333Y-162967142D01*
X126392380Y-162490952D02*
X125725714Y-162490952D01*
X125392380Y-162490952D02*
X125440000Y-162538571D01*
X125487619Y-162490952D01*
X125440000Y-162443333D01*
X125392380Y-162490952D01*
X125487619Y-162490952D01*
X125725714Y-162157619D02*
X125725714Y-161776666D01*
X125392380Y-162014761D02*
X126249523Y-162014761D01*
X126344761Y-161967142D01*
X126392380Y-161871904D01*
X126392380Y-161776666D01*
X125725714Y-161538571D02*
X126392380Y-161300476D01*
X125725714Y-161062380D02*
X126392380Y-161300476D01*
X126630476Y-161395714D01*
X126678095Y-161443333D01*
X126725714Y-161538571D01*
X126392380Y-159776666D02*
X126344761Y-159871904D01*
X126297142Y-159919523D01*
X126201904Y-159967142D01*
X125916190Y-159967142D01*
X125820952Y-159919523D01*
X125773333Y-159871904D01*
X125725714Y-159776666D01*
X125725714Y-159633809D01*
X125773333Y-159538571D01*
X125820952Y-159490952D01*
X125916190Y-159443333D01*
X126201904Y-159443333D01*
X126297142Y-159490952D01*
X126344761Y-159538571D01*
X126392380Y-159633809D01*
X126392380Y-159776666D01*
X125725714Y-159157619D02*
X125725714Y-158776666D01*
X126392380Y-159014761D02*
X125535238Y-159014761D01*
X125440000Y-158967142D01*
X125392380Y-158871904D01*
X125392380Y-158776666D01*
X126297142Y-157110000D02*
X126344761Y-157157619D01*
X126392380Y-157300476D01*
X126392380Y-157395714D01*
X126344761Y-157538571D01*
X126249523Y-157633809D01*
X126154285Y-157681428D01*
X125963809Y-157729047D01*
X125820952Y-157729047D01*
X125630476Y-157681428D01*
X125535238Y-157633809D01*
X125440000Y-157538571D01*
X125392380Y-157395714D01*
X125392380Y-157300476D01*
X125440000Y-157157619D01*
X125487619Y-157110000D01*
X126392380Y-156681428D02*
X125392380Y-156681428D01*
X126392380Y-156252857D02*
X125868571Y-156252857D01*
X125773333Y-156300476D01*
X125725714Y-156395714D01*
X125725714Y-156538571D01*
X125773333Y-156633809D01*
X125820952Y-156681428D01*
X126392380Y-155776666D02*
X125725714Y-155776666D01*
X125392380Y-155776666D02*
X125440000Y-155824285D01*
X125487619Y-155776666D01*
X125440000Y-155729047D01*
X125392380Y-155776666D01*
X125487619Y-155776666D01*
X126392380Y-155157619D02*
X126344761Y-155252857D01*
X126249523Y-155300476D01*
X125392380Y-155300476D01*
X126344761Y-154395714D02*
X126392380Y-154490952D01*
X126392380Y-154681428D01*
X126344761Y-154776666D01*
X126249523Y-154824285D01*
X125868571Y-154824285D01*
X125773333Y-154776666D01*
X125725714Y-154681428D01*
X125725714Y-154490952D01*
X125773333Y-154395714D01*
X125868571Y-154348095D01*
X125963809Y-154348095D01*
X126059047Y-154824285D01*
X126011428Y-153157619D02*
X126011428Y-152395714D01*
X125487619Y-151205238D02*
X125440000Y-151157619D01*
X125392380Y-151062380D01*
X125392380Y-150824285D01*
X125440000Y-150729047D01*
X125487619Y-150681428D01*
X125582857Y-150633809D01*
X125678095Y-150633809D01*
X125820952Y-150681428D01*
X126392380Y-151252857D01*
X126392380Y-150633809D01*
X125392380Y-150014761D02*
X125392380Y-149919523D01*
X125440000Y-149824285D01*
X125487619Y-149776666D01*
X125582857Y-149729047D01*
X125773333Y-149681428D01*
X126011428Y-149681428D01*
X126201904Y-149729047D01*
X126297142Y-149776666D01*
X126344761Y-149824285D01*
X126392380Y-149919523D01*
X126392380Y-150014761D01*
X126344761Y-150110000D01*
X126297142Y-150157619D01*
X126201904Y-150205238D01*
X126011428Y-150252857D01*
X125773333Y-150252857D01*
X125582857Y-150205238D01*
X125487619Y-150157619D01*
X125440000Y-150110000D01*
X125392380Y-150014761D01*
X125487619Y-149300476D02*
X125440000Y-149252857D01*
X125392380Y-149157619D01*
X125392380Y-148919523D01*
X125440000Y-148824285D01*
X125487619Y-148776666D01*
X125582857Y-148729047D01*
X125678095Y-148729047D01*
X125820952Y-148776666D01*
X126392380Y-149348095D01*
X126392380Y-148729047D01*
X126392380Y-147776666D02*
X126392380Y-148348095D01*
X126392380Y-148062380D02*
X125392380Y-148062380D01*
X125535238Y-148157619D01*
X125630476Y-148252857D01*
X125678095Y-148348095D01*
X134094761Y-176114761D02*
X134142380Y-175971904D01*
X134142380Y-175733809D01*
X134094761Y-175638571D01*
X134047142Y-175590952D01*
X133951904Y-175543333D01*
X133856666Y-175543333D01*
X133761428Y-175590952D01*
X133713809Y-175638571D01*
X133666190Y-175733809D01*
X133618571Y-175924285D01*
X133570952Y-176019523D01*
X133523333Y-176067142D01*
X133428095Y-176114761D01*
X133332857Y-176114761D01*
X133237619Y-176067142D01*
X133190000Y-176019523D01*
X133142380Y-175924285D01*
X133142380Y-175686190D01*
X133190000Y-175543333D01*
X134094761Y-174733809D02*
X134142380Y-174829047D01*
X134142380Y-175019523D01*
X134094761Y-175114761D01*
X133999523Y-175162380D01*
X133618571Y-175162380D01*
X133523333Y-175114761D01*
X133475714Y-175019523D01*
X133475714Y-174829047D01*
X133523333Y-174733809D01*
X133618571Y-174686190D01*
X133713809Y-174686190D01*
X133809047Y-175162380D01*
X133475714Y-174257619D02*
X134142380Y-174257619D01*
X133570952Y-174257619D02*
X133523333Y-174210000D01*
X133475714Y-174114761D01*
X133475714Y-173971904D01*
X133523333Y-173876666D01*
X133618571Y-173829047D01*
X134142380Y-173829047D01*
X134094761Y-173400476D02*
X134142380Y-173305238D01*
X134142380Y-173114761D01*
X134094761Y-173019523D01*
X133999523Y-172971904D01*
X133951904Y-172971904D01*
X133856666Y-173019523D01*
X133809047Y-173114761D01*
X133809047Y-173257619D01*
X133761428Y-173352857D01*
X133666190Y-173400476D01*
X133618571Y-173400476D01*
X133523333Y-173352857D01*
X133475714Y-173257619D01*
X133475714Y-173114761D01*
X133523333Y-173019523D01*
X134142380Y-172400476D02*
X134094761Y-172495714D01*
X134047142Y-172543333D01*
X133951904Y-172590952D01*
X133666190Y-172590952D01*
X133570952Y-172543333D01*
X133523333Y-172495714D01*
X133475714Y-172400476D01*
X133475714Y-172257619D01*
X133523333Y-172162380D01*
X133570952Y-172114761D01*
X133666190Y-172067142D01*
X133951904Y-172067142D01*
X134047142Y-172114761D01*
X134094761Y-172162380D01*
X134142380Y-172257619D01*
X134142380Y-172400476D01*
X134142380Y-171638571D02*
X133475714Y-171638571D01*
X133666190Y-171638571D02*
X133570952Y-171590952D01*
X133523333Y-171543333D01*
X133475714Y-171448095D01*
X133475714Y-171352857D01*
X133618571Y-169924285D02*
X133666190Y-169781428D01*
X133713809Y-169733809D01*
X133809047Y-169686190D01*
X133951904Y-169686190D01*
X134047142Y-169733809D01*
X134094761Y-169781428D01*
X134142380Y-169876666D01*
X134142380Y-170257619D01*
X133142380Y-170257619D01*
X133142380Y-169924285D01*
X133190000Y-169829047D01*
X133237619Y-169781428D01*
X133332857Y-169733809D01*
X133428095Y-169733809D01*
X133523333Y-169781428D01*
X133570952Y-169829047D01*
X133618571Y-169924285D01*
X133618571Y-170257619D01*
X134142380Y-169114761D02*
X134094761Y-169210000D01*
X134047142Y-169257619D01*
X133951904Y-169305238D01*
X133666190Y-169305238D01*
X133570952Y-169257619D01*
X133523333Y-169210000D01*
X133475714Y-169114761D01*
X133475714Y-168971904D01*
X133523333Y-168876666D01*
X133570952Y-168829047D01*
X133666190Y-168781428D01*
X133951904Y-168781428D01*
X134047142Y-168829047D01*
X134094761Y-168876666D01*
X134142380Y-168971904D01*
X134142380Y-169114761D01*
X134142380Y-167924285D02*
X133618571Y-167924285D01*
X133523333Y-167971904D01*
X133475714Y-168067142D01*
X133475714Y-168257619D01*
X133523333Y-168352857D01*
X134094761Y-167924285D02*
X134142380Y-168019523D01*
X134142380Y-168257619D01*
X134094761Y-168352857D01*
X133999523Y-168400476D01*
X133904285Y-168400476D01*
X133809047Y-168352857D01*
X133761428Y-168257619D01*
X133761428Y-168019523D01*
X133713809Y-167924285D01*
X134142380Y-167448095D02*
X133475714Y-167448095D01*
X133666190Y-167448095D02*
X133570952Y-167400476D01*
X133523333Y-167352857D01*
X133475714Y-167257619D01*
X133475714Y-167162380D01*
X134142380Y-166400476D02*
X133142380Y-166400476D01*
X134094761Y-166400476D02*
X134142380Y-166495714D01*
X134142380Y-166686190D01*
X134094761Y-166781428D01*
X134047142Y-166829047D01*
X133951904Y-166876666D01*
X133666190Y-166876666D01*
X133570952Y-166829047D01*
X133523333Y-166781428D01*
X133475714Y-166686190D01*
X133475714Y-166495714D01*
X133523333Y-166400476D01*
X134142380Y-165162380D02*
X133142380Y-165162380D01*
X133142380Y-164781428D01*
X133190000Y-164686190D01*
X133237619Y-164638571D01*
X133332857Y-164590952D01*
X133475714Y-164590952D01*
X133570952Y-164638571D01*
X133618571Y-164686190D01*
X133666190Y-164781428D01*
X133666190Y-165162380D01*
X134142380Y-163733809D02*
X133618571Y-163733809D01*
X133523333Y-163781428D01*
X133475714Y-163876666D01*
X133475714Y-164067142D01*
X133523333Y-164162380D01*
X134094761Y-163733809D02*
X134142380Y-163829047D01*
X134142380Y-164067142D01*
X134094761Y-164162380D01*
X133999523Y-164210000D01*
X133904285Y-164210000D01*
X133809047Y-164162380D01*
X133761428Y-164067142D01*
X133761428Y-163829047D01*
X133713809Y-163733809D01*
X133475714Y-163257619D02*
X134142380Y-163257619D01*
X133570952Y-163257619D02*
X133523333Y-163210000D01*
X133475714Y-163114761D01*
X133475714Y-162971904D01*
X133523333Y-162876666D01*
X133618571Y-162829047D01*
X134142380Y-162829047D01*
X134094761Y-161971904D02*
X134142380Y-162067142D01*
X134142380Y-162257619D01*
X134094761Y-162352857D01*
X133999523Y-162400476D01*
X133618571Y-162400476D01*
X133523333Y-162352857D01*
X133475714Y-162257619D01*
X133475714Y-162067142D01*
X133523333Y-161971904D01*
X133618571Y-161924285D01*
X133713809Y-161924285D01*
X133809047Y-162400476D01*
X134142380Y-161352857D02*
X134094761Y-161448095D01*
X133999523Y-161495714D01*
X133142380Y-161495714D01*
X133856666Y-160257619D02*
X133856666Y-159781428D01*
X134142380Y-160352857D02*
X133142380Y-160019523D01*
X134142380Y-159686190D01*
X134142380Y-158590952D02*
X133142380Y-158590952D01*
X133142380Y-158210000D01*
X133190000Y-158114761D01*
X133237619Y-158067142D01*
X133332857Y-158019523D01*
X133475714Y-158019523D01*
X133570952Y-158067142D01*
X133618571Y-158114761D01*
X133666190Y-158210000D01*
X133666190Y-158590952D01*
X134094761Y-157638571D02*
X134142380Y-157495714D01*
X134142380Y-157257619D01*
X134094761Y-157162380D01*
X134047142Y-157114761D01*
X133951904Y-157067142D01*
X133856666Y-157067142D01*
X133761428Y-157114761D01*
X133713809Y-157162380D01*
X133666190Y-157257619D01*
X133618571Y-157448095D01*
X133570952Y-157543333D01*
X133523333Y-157590952D01*
X133428095Y-157638571D01*
X133332857Y-157638571D01*
X133237619Y-157590952D01*
X133190000Y-157543333D01*
X133142380Y-157448095D01*
X133142380Y-157210000D01*
X133190000Y-157067142D01*
X133618571Y-155876666D02*
X133618571Y-155543333D01*
X134142380Y-155400476D02*
X134142380Y-155876666D01*
X133142380Y-155876666D01*
X133142380Y-155400476D01*
X133142380Y-154352857D02*
X134142380Y-154019523D01*
X133142380Y-153686190D01*
X134142380Y-152829047D02*
X134142380Y-153400476D01*
X134142380Y-153114761D02*
X133142380Y-153114761D01*
X133285238Y-153210000D01*
X133380476Y-153305238D01*
X133428095Y-153400476D01*
X134047142Y-152400476D02*
X134094761Y-152352857D01*
X134142380Y-152400476D01*
X134094761Y-152448095D01*
X134047142Y-152400476D01*
X134142380Y-152400476D01*
X134142380Y-151400476D02*
X134142380Y-151971904D01*
X134142380Y-151686190D02*
X133142380Y-151686190D01*
X133285238Y-151781428D01*
X133380476Y-151876666D01*
X133428095Y-151971904D01*
X134094761Y-150257619D02*
X134142380Y-150114761D01*
X134142380Y-149876666D01*
X134094761Y-149781428D01*
X134047142Y-149733809D01*
X133951904Y-149686190D01*
X133856666Y-149686190D01*
X133761428Y-149733809D01*
X133713809Y-149781428D01*
X133666190Y-149876666D01*
X133618571Y-150067142D01*
X133570952Y-150162380D01*
X133523333Y-150210000D01*
X133428095Y-150257619D01*
X133332857Y-150257619D01*
X133237619Y-150210000D01*
X133190000Y-150162380D01*
X133142380Y-150067142D01*
X133142380Y-149829047D01*
X133190000Y-149686190D01*
X134094761Y-148876666D02*
X134142380Y-148971904D01*
X134142380Y-149162380D01*
X134094761Y-149257619D01*
X133999523Y-149305238D01*
X133618571Y-149305238D01*
X133523333Y-149257619D01*
X133475714Y-149162380D01*
X133475714Y-148971904D01*
X133523333Y-148876666D01*
X133618571Y-148829047D01*
X133713809Y-148829047D01*
X133809047Y-149305238D01*
X134142380Y-148400476D02*
X133475714Y-148400476D01*
X133666190Y-148400476D02*
X133570952Y-148352857D01*
X133523333Y-148305238D01*
X133475714Y-148210000D01*
X133475714Y-148114761D01*
X134142380Y-147781428D02*
X133475714Y-147781428D01*
X133142380Y-147781428D02*
X133190000Y-147829047D01*
X133237619Y-147781428D01*
X133190000Y-147733809D01*
X133142380Y-147781428D01*
X133237619Y-147781428D01*
X134142380Y-146876666D02*
X133618571Y-146876666D01*
X133523333Y-146924285D01*
X133475714Y-147019523D01*
X133475714Y-147210000D01*
X133523333Y-147305238D01*
X134094761Y-146876666D02*
X134142380Y-146971904D01*
X134142380Y-147210000D01*
X134094761Y-147305238D01*
X133999523Y-147352857D01*
X133904285Y-147352857D01*
X133809047Y-147305238D01*
X133761428Y-147210000D01*
X133761428Y-146971904D01*
X133713809Y-146876666D01*
X134142380Y-146257619D02*
X134094761Y-146352857D01*
X133999523Y-146400476D01*
X133142380Y-146400476D01*
D13*
X190400000Y-227600000D02*
X190400000Y-232600000D01*
X135400000Y-227600000D02*
X135400000Y-232600000D01*
X140860000Y-230100000D02*
G75*
G03X140860000Y-230100000I-1250000J0D01*
G01*
X188690000Y-230100000D02*
G75*
G03X188690000Y-230100000I-1250000J0D01*
G01*
X151320000Y-186399978D02*
X151320000Y-170000000D01*
X174320000Y-186400000D02*
X174320000Y-170000000D01*
X175520000Y-165500000D02*
X150120000Y-165500000D01*
X150120000Y-190900000D02*
X150120000Y-165500000D01*
X175520000Y-190900000D02*
X175520000Y-165500000D01*
X129000000Y-195090000D02*
G75*
G03X129000000Y-195090000I-1250000J0D01*
G01*
X199320040Y-195089967D02*
G75*
G03X199320040Y-195089967I-1250040J0D01*
G01*
X201000000Y-198500000D02*
X124800000Y-198500000D01*
X201000000Y-227600000D02*
X124800000Y-227600000D01*
X201000000Y-193500000D02*
X124800000Y-193200000D01*
X202250000Y-235800000D02*
G75*
G03X202250000Y-235800000I-1250000J0D01*
G01*
X126050000Y-235800000D02*
G75*
G03X126050000Y-235800000I-1250000J0D01*
G01*
X126050000Y-144200000D02*
G75*
G03X126050000Y-144200000I-1250000J0D01*
G01*
X202250000Y-144200000D02*
G75*
G03X202250000Y-144200000I-1250000J0D01*
G01*
X201000000Y-147400000D02*
X201000000Y-232600000D01*
X124800000Y-232600000D02*
X124800000Y-147400000D01*
X121600000Y-232600000D02*
X204200000Y-232600000D01*
X204200000Y-147400000D02*
X121600000Y-147400000D01*
X189555000Y-159525000D02*
X188605000Y-159525000D01*
X188605000Y-159525000D02*
X188605000Y-158625000D01*
X188605000Y-158625000D02*
X187105000Y-158625000D01*
X194705000Y-159525000D02*
X195655000Y-159525000D01*
X195655000Y-159525000D02*
X195655000Y-158625000D01*
X195655000Y-158625000D02*
X197155000Y-158625000D01*
X195105000Y-155525000D02*
X189155000Y-155525000D01*
X194705000Y-159525000D02*
X194705000Y-160275000D01*
X175650000Y-172360000D02*
X175650000Y-169250000D01*
X175650000Y-177440000D02*
X175650000Y-173880000D01*
X175650000Y-182520000D02*
X175650000Y-178960000D01*
X175650000Y-169820000D02*
X175650000Y-169250000D01*
X172990000Y-187150000D02*
X172990000Y-186580000D01*
X172990000Y-186580000D02*
X171470000Y-186580000D01*
X175650000Y-187150000D02*
X175650000Y-184040000D01*
X172990000Y-174900000D02*
X172990000Y-171340000D01*
X172990000Y-179980000D02*
X172990000Y-176420000D01*
X172990000Y-185060000D02*
X172990000Y-181500000D01*
X175650000Y-169250000D02*
X172990000Y-169250000D01*
X175650000Y-187150000D02*
X172990000Y-187150000D01*
X149990000Y-169230000D02*
X152650000Y-169230000D01*
X149990000Y-187130000D02*
X152650000Y-187130000D01*
X152650000Y-171320000D02*
X152650000Y-174880000D01*
X152650000Y-176400000D02*
X152650000Y-179960000D01*
X152650000Y-181480000D02*
X152650000Y-185040000D01*
X149990000Y-169230000D02*
X149990000Y-172340000D01*
X152650000Y-169800000D02*
X154170000Y-169800000D01*
X152650000Y-169230000D02*
X152650000Y-169800000D01*
X149990000Y-186560000D02*
X149990000Y-187130000D01*
X149990000Y-173860000D02*
X149990000Y-177420000D01*
X149990000Y-178940000D02*
X149990000Y-182500000D01*
X149990000Y-184020000D02*
X149990000Y-187130000D01*
X145210000Y-183320000D02*
X144910000Y-183620000D01*
X144910000Y-183020000D02*
X144910000Y-183620000D01*
X145210000Y-183320000D02*
X144910000Y-183020000D01*
X146110000Y-182470000D02*
X146710000Y-182470000D01*
X145410000Y-185920000D02*
X145410000Y-183120000D01*
X146710000Y-186570000D02*
X146110000Y-186570000D01*
X147410000Y-183120000D02*
X147410000Y-185920000D01*
X147410000Y-185870000D02*
G75*
G02X146710000Y-186570000I-700000J0D01*
G01*
X146110000Y-186570000D02*
G75*
G02X145410000Y-185870000I0J700000D01*
G01*
X145410000Y-183170000D02*
G75*
G02X146110000Y-182470000I700000J0D01*
G01*
X146710000Y-182470000D02*
G75*
G02X147410000Y-183170000I0J-700000D01*
G01*
X143840000Y-182450000D02*
G75*
G02X144540000Y-183150000I0J-700000D01*
G01*
X142540000Y-183150000D02*
G75*
G02X143240000Y-182450000I700000J0D01*
G01*
X143240000Y-186550000D02*
G75*
G02X142540000Y-185850000I0J700000D01*
G01*
X144540000Y-185850000D02*
G75*
G02X143840000Y-186550000I-700000J0D01*
G01*
X144540000Y-183100000D02*
X144540000Y-185900000D01*
X143840000Y-186550000D02*
X143240000Y-186550000D01*
X142540000Y-185900000D02*
X142540000Y-183100000D01*
X143240000Y-182450000D02*
X143840000Y-182450000D01*
X142340000Y-183300000D02*
X142040000Y-183000000D01*
X142040000Y-183000000D02*
X142040000Y-183600000D01*
X142340000Y-183300000D02*
X142040000Y-183600000D01*
X178950000Y-185300000D02*
X178450000Y-185300000D01*
X178450000Y-186360000D02*
X178950000Y-186360000D01*
X178440000Y-181270000D02*
X178940000Y-181270000D01*
X178940000Y-180210000D02*
X178440000Y-180210000D01*
X145300000Y-175750000D02*
X145000000Y-176050000D01*
X145000000Y-175450000D02*
X145000000Y-176050000D01*
X145300000Y-175750000D02*
X145000000Y-175450000D01*
X146200000Y-174900000D02*
X146800000Y-174900000D01*
X145500000Y-178350000D02*
X145500000Y-175550000D01*
X146800000Y-179000000D02*
X146200000Y-179000000D01*
X147500000Y-175550000D02*
X147500000Y-178350000D01*
X147500000Y-178300000D02*
G75*
G02X146800000Y-179000000I-700000J0D01*
G01*
X146200000Y-179000000D02*
G75*
G02X145500000Y-178300000I0J700000D01*
G01*
X145500000Y-175600000D02*
G75*
G02X146200000Y-174900000I700000J0D01*
G01*
X146800000Y-174900000D02*
G75*
G02X147500000Y-175600000I0J-700000D01*
G01*
X141040000Y-174920000D02*
G75*
G02X141740000Y-175620000I0J-700000D01*
G01*
X139740000Y-175620000D02*
G75*
G02X140440000Y-174920000I700000J0D01*
G01*
X140440000Y-179020000D02*
G75*
G02X139740000Y-178320000I0J700000D01*
G01*
X141740000Y-178320000D02*
G75*
G02X141040000Y-179020000I-700000J0D01*
G01*
X141740000Y-175570000D02*
X141740000Y-178370000D01*
X141040000Y-179020000D02*
X140440000Y-179020000D01*
X139740000Y-178370000D02*
X139740000Y-175570000D01*
X140440000Y-174920000D02*
X141040000Y-174920000D01*
X139540000Y-175770000D02*
X139240000Y-175470000D01*
X139240000Y-175470000D02*
X139240000Y-176070000D01*
X139540000Y-175770000D02*
X139240000Y-176070000D01*
X142420000Y-175750000D02*
X142120000Y-176050000D01*
X142120000Y-175450000D02*
X142120000Y-176050000D01*
X142420000Y-175750000D02*
X142120000Y-175450000D01*
X143320000Y-174900000D02*
X143920000Y-174900000D01*
X142620000Y-178350000D02*
X142620000Y-175550000D01*
X143920000Y-179000000D02*
X143320000Y-179000000D01*
X144620000Y-175550000D02*
X144620000Y-178350000D01*
X144620000Y-178300000D02*
G75*
G02X143920000Y-179000000I-700000J0D01*
G01*
X143320000Y-179000000D02*
G75*
G02X142620000Y-178300000I0J700000D01*
G01*
X142620000Y-175600000D02*
G75*
G02X143320000Y-174900000I700000J0D01*
G01*
X143920000Y-174900000D02*
G75*
G02X144620000Y-175600000I0J-700000D01*
G01*
D10*
X164255000Y-179530000D02*
X164255000Y-179355000D01*
X160905000Y-179530000D02*
X160905000Y-179280000D01*
X160905000Y-176180000D02*
X160905000Y-176430000D01*
X164255000Y-176180000D02*
X164255000Y-176430000D01*
X164255000Y-179530000D02*
X160905000Y-179530000D01*
X164255000Y-176180000D02*
X160905000Y-176180000D01*
X164255000Y-179355000D02*
X165505000Y-179355000D01*
X199656666Y-233012380D02*
X199323333Y-232536190D01*
X199085238Y-233012380D02*
X199085238Y-232012380D01*
X199466190Y-232012380D01*
X199561428Y-232060000D01*
X199609047Y-232107619D01*
X199656666Y-232202857D01*
X199656666Y-232345714D01*
X199609047Y-232440952D01*
X199561428Y-232488571D01*
X199466190Y-232536190D01*
X199085238Y-232536190D01*
X200085238Y-232488571D02*
X200418571Y-232488571D01*
X200561428Y-233012380D02*
X200085238Y-233012380D01*
X200085238Y-232012380D01*
X200561428Y-232012380D01*
X201323333Y-232488571D02*
X200990000Y-232488571D01*
X200990000Y-233012380D02*
X200990000Y-232012380D01*
X201466190Y-232012380D01*
X201990000Y-232012380D02*
X201990000Y-232250476D01*
X201751904Y-232155238D02*
X201990000Y-232250476D01*
X202228095Y-232155238D01*
X201847142Y-232440952D02*
X201990000Y-232250476D01*
X202132857Y-232440952D01*
X202751904Y-232012380D02*
X202751904Y-232250476D01*
X202513809Y-232155238D02*
X202751904Y-232250476D01*
X202990000Y-232155238D01*
X202609047Y-232440952D02*
X202751904Y-232250476D01*
X202894761Y-232440952D01*
X123466666Y-233022380D02*
X123133333Y-232546190D01*
X122895238Y-233022380D02*
X122895238Y-232022380D01*
X123276190Y-232022380D01*
X123371428Y-232070000D01*
X123419047Y-232117619D01*
X123466666Y-232212857D01*
X123466666Y-232355714D01*
X123419047Y-232450952D01*
X123371428Y-232498571D01*
X123276190Y-232546190D01*
X122895238Y-232546190D01*
X123895238Y-232498571D02*
X124228571Y-232498571D01*
X124371428Y-233022380D02*
X123895238Y-233022380D01*
X123895238Y-232022380D01*
X124371428Y-232022380D01*
X125133333Y-232498571D02*
X124800000Y-232498571D01*
X124800000Y-233022380D02*
X124800000Y-232022380D01*
X125276190Y-232022380D01*
X125800000Y-232022380D02*
X125800000Y-232260476D01*
X125561904Y-232165238D02*
X125800000Y-232260476D01*
X126038095Y-232165238D01*
X125657142Y-232450952D02*
X125800000Y-232260476D01*
X125942857Y-232450952D01*
X126561904Y-232022380D02*
X126561904Y-232260476D01*
X126323809Y-232165238D02*
X126561904Y-232260476D01*
X126800000Y-232165238D01*
X126419047Y-232450952D02*
X126561904Y-232260476D01*
X126704761Y-232450952D01*
X199666666Y-141412380D02*
X199333333Y-140936190D01*
X199095238Y-141412380D02*
X199095238Y-140412380D01*
X199476190Y-140412380D01*
X199571428Y-140460000D01*
X199619047Y-140507619D01*
X199666666Y-140602857D01*
X199666666Y-140745714D01*
X199619047Y-140840952D01*
X199571428Y-140888571D01*
X199476190Y-140936190D01*
X199095238Y-140936190D01*
X200095238Y-140888571D02*
X200428571Y-140888571D01*
X200571428Y-141412380D02*
X200095238Y-141412380D01*
X200095238Y-140412380D01*
X200571428Y-140412380D01*
X201333333Y-140888571D02*
X201000000Y-140888571D01*
X201000000Y-141412380D02*
X201000000Y-140412380D01*
X201476190Y-140412380D01*
X202000000Y-140412380D02*
X202000000Y-140650476D01*
X201761904Y-140555238D02*
X202000000Y-140650476D01*
X202238095Y-140555238D01*
X201857142Y-140840952D02*
X202000000Y-140650476D01*
X202142857Y-140840952D01*
X202761904Y-140412380D02*
X202761904Y-140650476D01*
X202523809Y-140555238D02*
X202761904Y-140650476D01*
X203000000Y-140555238D01*
X202619047Y-140840952D02*
X202761904Y-140650476D01*
X202904761Y-140840952D01*
X123466666Y-141402380D02*
X123133333Y-140926190D01*
X122895238Y-141402380D02*
X122895238Y-140402380D01*
X123276190Y-140402380D01*
X123371428Y-140450000D01*
X123419047Y-140497619D01*
X123466666Y-140592857D01*
X123466666Y-140735714D01*
X123419047Y-140830952D01*
X123371428Y-140878571D01*
X123276190Y-140926190D01*
X122895238Y-140926190D01*
X123895238Y-140878571D02*
X124228571Y-140878571D01*
X124371428Y-141402380D02*
X123895238Y-141402380D01*
X123895238Y-140402380D01*
X124371428Y-140402380D01*
X125133333Y-140878571D02*
X124800000Y-140878571D01*
X124800000Y-141402380D02*
X124800000Y-140402380D01*
X125276190Y-140402380D01*
X125800000Y-140402380D02*
X125800000Y-140640476D01*
X125561904Y-140545238D02*
X125800000Y-140640476D01*
X126038095Y-140545238D01*
X125657142Y-140830952D02*
X125800000Y-140640476D01*
X125942857Y-140830952D01*
X126561904Y-140402380D02*
X126561904Y-140640476D01*
X126323809Y-140545238D02*
X126561904Y-140640476D01*
X126800000Y-140545238D01*
X126419047Y-140830952D02*
X126561904Y-140640476D01*
X126704761Y-140830952D01*
X191320476Y-160852380D02*
X191320476Y-161566666D01*
X191272857Y-161709523D01*
X191177619Y-161804761D01*
X191034761Y-161852380D01*
X190939523Y-161852380D01*
X192320476Y-161852380D02*
X191749047Y-161852380D01*
X192034761Y-161852380D02*
X192034761Y-160852380D01*
X191939523Y-160995238D01*
X191844285Y-161090476D01*
X191749047Y-161138095D01*
X193272857Y-161852380D02*
X192701428Y-161852380D01*
X192987142Y-161852380D02*
X192987142Y-160852380D01*
X192891904Y-160995238D01*
X192796666Y-161090476D01*
X192701428Y-161138095D01*
X173510476Y-187602380D02*
X173510476Y-188316666D01*
X173462857Y-188459523D01*
X173367619Y-188554761D01*
X173224761Y-188602380D01*
X173129523Y-188602380D01*
X174510476Y-188602380D02*
X173939047Y-188602380D01*
X174224761Y-188602380D02*
X174224761Y-187602380D01*
X174129523Y-187745238D01*
X174034285Y-187840476D01*
X173939047Y-187888095D01*
X174843809Y-187602380D02*
X175462857Y-187602380D01*
X175129523Y-187983333D01*
X175272380Y-187983333D01*
X175367619Y-188030952D01*
X175415238Y-188078571D01*
X175462857Y-188173809D01*
X175462857Y-188411904D01*
X175415238Y-188507142D01*
X175367619Y-188554761D01*
X175272380Y-188602380D01*
X174986666Y-188602380D01*
X174891428Y-188554761D01*
X174843809Y-188507142D01*
X150510476Y-167682380D02*
X150510476Y-168396666D01*
X150462857Y-168539523D01*
X150367619Y-168634761D01*
X150224761Y-168682380D01*
X150129523Y-168682380D01*
X151510476Y-168682380D02*
X150939047Y-168682380D01*
X151224761Y-168682380D02*
X151224761Y-167682380D01*
X151129523Y-167825238D01*
X151034285Y-167920476D01*
X150939047Y-167968095D01*
X152415238Y-167682380D02*
X151939047Y-167682380D01*
X151891428Y-168158571D01*
X151939047Y-168110952D01*
X152034285Y-168063333D01*
X152272380Y-168063333D01*
X152367619Y-168110952D01*
X152415238Y-168158571D01*
X152462857Y-168253809D01*
X152462857Y-168491904D01*
X152415238Y-168587142D01*
X152367619Y-168634761D01*
X152272380Y-168682380D01*
X152034285Y-168682380D01*
X151939047Y-168634761D01*
X151891428Y-168587142D01*
X145872380Y-181669523D02*
X146586666Y-181669523D01*
X146729523Y-181717142D01*
X146824761Y-181812380D01*
X146872380Y-181955238D01*
X146872380Y-182050476D01*
X146872380Y-181193333D02*
X145872380Y-181193333D01*
X145872380Y-180812380D01*
X145920000Y-180717142D01*
X145967619Y-180669523D01*
X146062857Y-180621904D01*
X146205714Y-180621904D01*
X146300952Y-180669523D01*
X146348571Y-180717142D01*
X146396190Y-180812380D01*
X146396190Y-181193333D01*
X145967619Y-180240952D02*
X145920000Y-180193333D01*
X145872380Y-180098095D01*
X145872380Y-179860000D01*
X145920000Y-179764761D01*
X145967619Y-179717142D01*
X146062857Y-179669523D01*
X146158095Y-179669523D01*
X146300952Y-179717142D01*
X146872380Y-180288571D01*
X146872380Y-179669523D01*
X145872380Y-179050476D02*
X145872380Y-178955238D01*
X145920000Y-178860000D01*
X145967619Y-178812380D01*
X146062857Y-178764761D01*
X146253333Y-178717142D01*
X146491428Y-178717142D01*
X146681904Y-178764761D01*
X146777142Y-178812380D01*
X146824761Y-178860000D01*
X146872380Y-178955238D01*
X146872380Y-179050476D01*
X146824761Y-179145714D01*
X146777142Y-179193333D01*
X146681904Y-179240952D01*
X146491428Y-179288571D01*
X146253333Y-179288571D01*
X146062857Y-179240952D01*
X145967619Y-179193333D01*
X145920000Y-179145714D01*
X145872380Y-179050476D01*
X142802380Y-181599523D02*
X143516666Y-181599523D01*
X143659523Y-181647142D01*
X143754761Y-181742380D01*
X143802380Y-181885238D01*
X143802380Y-181980476D01*
X143802380Y-181123333D02*
X142802380Y-181123333D01*
X142802380Y-180742380D01*
X142850000Y-180647142D01*
X142897619Y-180599523D01*
X142992857Y-180551904D01*
X143135714Y-180551904D01*
X143230952Y-180599523D01*
X143278571Y-180647142D01*
X143326190Y-180742380D01*
X143326190Y-181123333D01*
X142897619Y-180170952D02*
X142850000Y-180123333D01*
X142802380Y-180028095D01*
X142802380Y-179790000D01*
X142850000Y-179694761D01*
X142897619Y-179647142D01*
X142992857Y-179599523D01*
X143088095Y-179599523D01*
X143230952Y-179647142D01*
X143802380Y-180218571D01*
X143802380Y-179599523D01*
X142897619Y-179218571D02*
X142850000Y-179170952D01*
X142802380Y-179075714D01*
X142802380Y-178837619D01*
X142850000Y-178742380D01*
X142897619Y-178694761D01*
X142992857Y-178647142D01*
X143088095Y-178647142D01*
X143230952Y-178694761D01*
X143802380Y-179266190D01*
X143802380Y-178647142D01*
X178057142Y-187632380D02*
X177723809Y-187156190D01*
X177485714Y-187632380D02*
X177485714Y-186632380D01*
X177866666Y-186632380D01*
X177961904Y-186680000D01*
X178009523Y-186727619D01*
X178057142Y-186822857D01*
X178057142Y-186965714D01*
X178009523Y-187060952D01*
X177961904Y-187108571D01*
X177866666Y-187156190D01*
X177485714Y-187156190D01*
X179009523Y-187632380D02*
X178438095Y-187632380D01*
X178723809Y-187632380D02*
X178723809Y-186632380D01*
X178628571Y-186775238D01*
X178533333Y-186870476D01*
X178438095Y-186918095D01*
X179866666Y-186632380D02*
X179676190Y-186632380D01*
X179580952Y-186680000D01*
X179533333Y-186727619D01*
X179438095Y-186870476D01*
X179390476Y-187060952D01*
X179390476Y-187441904D01*
X179438095Y-187537142D01*
X179485714Y-187584761D01*
X179580952Y-187632380D01*
X179771428Y-187632380D01*
X179866666Y-187584761D01*
X179914285Y-187537142D01*
X179961904Y-187441904D01*
X179961904Y-187203809D01*
X179914285Y-187108571D01*
X179866666Y-187060952D01*
X179771428Y-187013333D01*
X179580952Y-187013333D01*
X179485714Y-187060952D01*
X179438095Y-187108571D01*
X179390476Y-187203809D01*
X178047142Y-182542380D02*
X177713809Y-182066190D01*
X177475714Y-182542380D02*
X177475714Y-181542380D01*
X177856666Y-181542380D01*
X177951904Y-181590000D01*
X177999523Y-181637619D01*
X178047142Y-181732857D01*
X178047142Y-181875714D01*
X177999523Y-181970952D01*
X177951904Y-182018571D01*
X177856666Y-182066190D01*
X177475714Y-182066190D01*
X178999523Y-182542380D02*
X178428095Y-182542380D01*
X178713809Y-182542380D02*
X178713809Y-181542380D01*
X178618571Y-181685238D01*
X178523333Y-181780476D01*
X178428095Y-181828095D01*
X179570952Y-181970952D02*
X179475714Y-181923333D01*
X179428095Y-181875714D01*
X179380476Y-181780476D01*
X179380476Y-181732857D01*
X179428095Y-181637619D01*
X179475714Y-181590000D01*
X179570952Y-181542380D01*
X179761428Y-181542380D01*
X179856666Y-181590000D01*
X179904285Y-181637619D01*
X179951904Y-181732857D01*
X179951904Y-181780476D01*
X179904285Y-181875714D01*
X179856666Y-181923333D01*
X179761428Y-181970952D01*
X179570952Y-181970952D01*
X179475714Y-182018571D01*
X179428095Y-182066190D01*
X179380476Y-182161428D01*
X179380476Y-182351904D01*
X179428095Y-182447142D01*
X179475714Y-182494761D01*
X179570952Y-182542380D01*
X179761428Y-182542380D01*
X179856666Y-182494761D01*
X179904285Y-182447142D01*
X179951904Y-182351904D01*
X179951904Y-182161428D01*
X179904285Y-182066190D01*
X179856666Y-182018571D01*
X179761428Y-181970952D01*
X148222380Y-176969523D02*
X148936666Y-176969523D01*
X149079523Y-177017142D01*
X149174761Y-177112380D01*
X149222380Y-177255238D01*
X149222380Y-177350476D01*
X149222380Y-176493333D02*
X148222380Y-176493333D01*
X148222380Y-176112380D01*
X148270000Y-176017142D01*
X148317619Y-175969523D01*
X148412857Y-175921904D01*
X148555714Y-175921904D01*
X148650952Y-175969523D01*
X148698571Y-176017142D01*
X148746190Y-176112380D01*
X148746190Y-176493333D01*
X148317619Y-175540952D02*
X148270000Y-175493333D01*
X148222380Y-175398095D01*
X148222380Y-175160000D01*
X148270000Y-175064761D01*
X148317619Y-175017142D01*
X148412857Y-174969523D01*
X148508095Y-174969523D01*
X148650952Y-175017142D01*
X149222380Y-175588571D01*
X149222380Y-174969523D01*
X148222380Y-174636190D02*
X148222380Y-174017142D01*
X148603333Y-174350476D01*
X148603333Y-174207619D01*
X148650952Y-174112380D01*
X148698571Y-174064761D01*
X148793809Y-174017142D01*
X149031904Y-174017142D01*
X149127142Y-174064761D01*
X149174761Y-174112380D01*
X149222380Y-174207619D01*
X149222380Y-174493333D01*
X149174761Y-174588571D01*
X149127142Y-174636190D01*
X138512380Y-174709523D02*
X139226666Y-174709523D01*
X139369523Y-174757142D01*
X139464761Y-174852380D01*
X139512380Y-174995238D01*
X139512380Y-175090476D01*
X139512380Y-174233333D02*
X138512380Y-174233333D01*
X138512380Y-173852380D01*
X138560000Y-173757142D01*
X138607619Y-173709523D01*
X138702857Y-173661904D01*
X138845714Y-173661904D01*
X138940952Y-173709523D01*
X138988571Y-173757142D01*
X139036190Y-173852380D01*
X139036190Y-174233333D01*
X138607619Y-173280952D02*
X138560000Y-173233333D01*
X138512380Y-173138095D01*
X138512380Y-172900000D01*
X138560000Y-172804761D01*
X138607619Y-172757142D01*
X138702857Y-172709523D01*
X138798095Y-172709523D01*
X138940952Y-172757142D01*
X139512380Y-173328571D01*
X139512380Y-172709523D01*
X138845714Y-171852380D02*
X139512380Y-171852380D01*
X138464761Y-172090476D02*
X139179047Y-172328571D01*
X139179047Y-171709523D01*
X141780476Y-173252380D02*
X141780476Y-173966666D01*
X141732857Y-174109523D01*
X141637619Y-174204761D01*
X141494761Y-174252380D01*
X141399523Y-174252380D01*
X142256666Y-174252380D02*
X142256666Y-173252380D01*
X142637619Y-173252380D01*
X142732857Y-173300000D01*
X142780476Y-173347619D01*
X142828095Y-173442857D01*
X142828095Y-173585714D01*
X142780476Y-173680952D01*
X142732857Y-173728571D01*
X142637619Y-173776190D01*
X142256666Y-173776190D01*
X143209047Y-173347619D02*
X143256666Y-173300000D01*
X143351904Y-173252380D01*
X143590000Y-173252380D01*
X143685238Y-173300000D01*
X143732857Y-173347619D01*
X143780476Y-173442857D01*
X143780476Y-173538095D01*
X143732857Y-173680952D01*
X143161428Y-174252380D01*
X143780476Y-174252380D01*
X144113809Y-173252380D02*
X144780476Y-173252380D01*
X144351904Y-174252380D01*
X161341904Y-179907380D02*
X161341904Y-180716904D01*
X161389523Y-180812142D01*
X161437142Y-180859761D01*
X161532380Y-180907380D01*
X161722857Y-180907380D01*
X161818095Y-180859761D01*
X161865714Y-180812142D01*
X161913333Y-180716904D01*
X161913333Y-179907380D01*
X162913333Y-180907380D02*
X162341904Y-180907380D01*
X162627619Y-180907380D02*
X162627619Y-179907380D01*
X162532380Y-180050238D01*
X162437142Y-180145476D01*
X162341904Y-180193095D01*
X163484761Y-180335952D02*
X163389523Y-180288333D01*
X163341904Y-180240714D01*
X163294285Y-180145476D01*
X163294285Y-180097857D01*
X163341904Y-180002619D01*
X163389523Y-179955000D01*
X163484761Y-179907380D01*
X163675238Y-179907380D01*
X163770476Y-179955000D01*
X163818095Y-180002619D01*
X163865714Y-180097857D01*
X163865714Y-180145476D01*
X163818095Y-180240714D01*
X163770476Y-180288333D01*
X163675238Y-180335952D01*
X163484761Y-180335952D01*
X163389523Y-180383571D01*
X163341904Y-180431190D01*
X163294285Y-180526428D01*
X163294285Y-180716904D01*
X163341904Y-180812142D01*
X163389523Y-180859761D01*
X163484761Y-180907380D01*
X163675238Y-180907380D01*
X163770476Y-180859761D01*
X163818095Y-180812142D01*
X163865714Y-180716904D01*
X163865714Y-180526428D01*
X163818095Y-180431190D01*
X163770476Y-180383571D01*
X163675238Y-180335952D01*
M02*
