M48
; DRILL file {KiCad (5.1.2)-2} date 19/01/2022 07:15:06
; FORMAT={-:-/ absolute / metric / decimal}
; #@! TF.CreationDate,2022-01-19T07:15:06-03:00
; #@! TF.GenerationSoftware,Kicad,Pcbnew,(5.1.2)-2
FMAT,2
METRIC
T1C0.400
T2C0.500
T3C0.813
T4C1.100
T5C1.321
T6C2.700
%
G90
G05
T1
X36.0Y-84.9
X36.2Y-57.5
X39.3Y-69.8
X40.06Y-46.33
X40.2Y-55.2
X40.58Y-30.24
X40.9Y-68.725
X42.5Y-71.2
X42.573Y-70.2
X43.3Y-69.3
X43.531Y-61.011
X43.684Y-59.834
X43.705Y-62.532
X43.996Y-58.496
X44.387Y-69.287
X44.977Y-55.41
X45.0Y-47.6
X45.35Y-36.328
X45.8Y-41.4
X45.9Y-55.025
X46.67Y-59.96
X46.8Y-36.4
X47.1Y-44.9
X47.1Y-53.575
X47.6Y-78.2
X47.8Y-77.0
X48.3Y-68.075
X49.487Y-55.925
X49.8Y-63.0
X50.125Y-34.6
X50.7Y-62.1
X50.89Y-55.925
X51.0Y-21.1
X51.19Y-23.52
X51.3Y-39.3
X51.69Y-43.3
X51.787Y-64.612
X52.0Y-60.7
X52.1Y-77.8
X52.213Y-69.313
X53.0Y-70.9
X53.06Y-25.03
X53.9Y-67.1
X53.99Y-50.39
X54.3Y-63.9
X55.16Y-51.15
X55.82Y-52.13
X56.5Y-67.5
X56.93Y-52.6
X57.5Y-39.6
X57.5Y-41.0
X58.0Y-69.6
X58.4Y-76.2
X58.9Y-69.0
X59.073Y-60.55
X59.5Y-44.29
X59.759Y-68.349
X59.77Y-59.825
X60.718Y-75.892
X61.445Y-40.576
X61.626Y-41.56
X61.83Y-75.11
X62.4Y-25.5
X62.519Y-42.011
X62.89Y-73.84
X63.3Y-60.8
X63.6Y-13.9
X63.6Y-61.9
X63.605Y-43.22
X63.905Y-39.35
X63.912Y-25.312
X64.0Y-64.5
X64.27Y-41.04
X64.325Y-38.175
X64.4Y-67.8
X64.5Y-57.0
X64.553Y-42.206
X64.6Y-62.6
X67.625Y-56.0
X67.7Y-38.8
X68.11Y-41.06
X69.3Y-81.9
X72.687Y-37.187
X72.9Y-39.8
T2
X51.65Y-82.4
X52.9Y-82.4
X54.15Y-82.4
X55.4Y-82.4
X56.65Y-82.4
X57.9Y-82.4
X55.63Y-56.19
X56.88Y-56.19
X58.13Y-56.19
X59.38Y-56.19
X60.63Y-56.19
X61.88Y-56.19
T3
X68.5Y-63.587
X68.5Y-68.413
T4
X40.9Y-23.0
X44.45Y-19.45
X48.0Y-23.0
T5
X71.5Y-31.7
X37.9Y-37.25
X67.65Y-31.6
X57.8Y-31.6
X54.8Y-31.6
X71.15Y-17.85
X51.65Y-31.8
X60.95Y-31.6
X55.6Y-18.0
T6
X14.81Y-83.82
X106.7Y-83.81
X15.2Y-22.8
X106.7Y-22.81
T0
M30
