G04 #@! TF.GenerationSoftware,KiCad,Pcbnew,(5.1.2)-2*
G04 #@! TF.CreationDate,2022-01-19T07:15:10-03:00*
G04 #@! TF.ProjectId,MAG_Plus,4d41475f-506c-4757-932e-6b696361645f,rev?*
G04 #@! TF.SameCoordinates,Original*
G04 #@! TF.FileFunction,Paste,Top*
G04 #@! TF.FilePolarity,Positive*
%FSLAX46Y46*%
G04 Gerber Fmt 4.6, Leading zero omitted, Abs format (unit mm)*
G04 Created by KiCad (PCBNEW (5.1.2)-2) date 2022-01-19 07:15:10*
%MOMM*%
%LPD*%
G04 APERTURE LIST*
%ADD10R,1.600000X0.357500*%
%ADD11R,1.000000X1.100000*%
%ADD12C,0.100000*%
%ADD13C,0.690000*%
%ADD14R,1.422400X0.355600*%
%ADD15R,0.700000X0.900000*%
%ADD16R,0.558800X1.981200*%
%ADD17R,3.000000X26.300000*%
%ADD18R,2.500000X1.200000*%
%ADD19R,1.200000X2.500000*%
%ADD20R,1.100000X1.000000*%
%ADD21R,0.600000X0.700000*%
%ADD22R,1.600000X1.803000*%
%ADD23R,2.700000X1.600000*%
%ADD24R,1.300000X1.500000*%
%ADD25R,1.500000X0.500000*%
%ADD26R,0.500000X1.500000*%
%ADD27R,1.600000X2.000000*%
%ADD28R,2.000000X1.600000*%
G04 APERTURE END LIST*
D10*
X47275000Y-61850500D03*
X47275000Y-62517250D03*
X47275000Y-61183750D03*
X47275000Y-63184000D03*
X47275000Y-63850750D03*
X47275000Y-64517500D03*
X47275000Y-65184250D03*
X47275000Y-65851000D03*
X47275000Y-66517750D03*
X47275000Y-67184500D03*
X40925000Y-61183750D03*
X40925000Y-61850500D03*
X40925000Y-62517250D03*
X40925000Y-63184000D03*
X40925000Y-63850750D03*
X40925000Y-64517500D03*
X40925000Y-65184250D03*
X40925000Y-65851000D03*
X40925000Y-66517750D03*
X40925000Y-67184500D03*
X40925000Y-75584500D03*
X40925000Y-74917750D03*
X40925000Y-74251000D03*
X40925000Y-73584250D03*
X40925000Y-72917500D03*
X40925000Y-72250750D03*
X40925000Y-71584000D03*
X40925000Y-70917250D03*
X40925000Y-70250500D03*
X40925000Y-69583750D03*
X47275000Y-75584500D03*
X47275000Y-74917750D03*
X47275000Y-74251000D03*
X47275000Y-73584250D03*
X47275000Y-72917500D03*
X47275000Y-72250750D03*
X47275000Y-71584000D03*
X47275000Y-69583750D03*
X47275000Y-70917250D03*
X47275000Y-70250500D03*
D11*
X53960000Y-20530000D03*
X55660000Y-20530000D03*
X59020000Y-20520000D03*
X57320000Y-20520000D03*
D12*
G36*
X53877204Y-34955415D02*
G01*
X53885577Y-34956657D01*
X53893787Y-34958714D01*
X53901756Y-34961565D01*
X53909408Y-34965184D01*
X53916668Y-34969536D01*
X53923466Y-34974578D01*
X53929738Y-34980262D01*
X53935422Y-34986534D01*
X53940464Y-34993332D01*
X53944816Y-35000592D01*
X53948435Y-35008244D01*
X53951286Y-35016213D01*
X53953343Y-35024423D01*
X53954585Y-35032796D01*
X53955000Y-35041250D01*
X53955000Y-35558750D01*
X53954585Y-35567204D01*
X53953343Y-35575577D01*
X53951286Y-35583787D01*
X53948435Y-35591756D01*
X53944816Y-35599408D01*
X53940464Y-35606668D01*
X53935422Y-35613466D01*
X53929738Y-35619738D01*
X53923466Y-35625422D01*
X53916668Y-35630464D01*
X53909408Y-35634816D01*
X53901756Y-35638435D01*
X53893787Y-35641286D01*
X53885577Y-35643343D01*
X53877204Y-35644585D01*
X53868750Y-35645000D01*
X52831250Y-35645000D01*
X52822796Y-35644585D01*
X52814423Y-35643343D01*
X52806213Y-35641286D01*
X52798244Y-35638435D01*
X52790592Y-35634816D01*
X52783332Y-35630464D01*
X52776534Y-35625422D01*
X52770262Y-35619738D01*
X52764578Y-35613466D01*
X52759536Y-35606668D01*
X52755184Y-35599408D01*
X52751565Y-35591756D01*
X52748714Y-35583787D01*
X52746657Y-35575577D01*
X52745415Y-35567204D01*
X52745000Y-35558750D01*
X52745000Y-35041250D01*
X52745415Y-35032796D01*
X52746657Y-35024423D01*
X52748714Y-35016213D01*
X52751565Y-35008244D01*
X52755184Y-35000592D01*
X52759536Y-34993332D01*
X52764578Y-34986534D01*
X52770262Y-34980262D01*
X52776534Y-34974578D01*
X52783332Y-34969536D01*
X52790592Y-34965184D01*
X52798244Y-34961565D01*
X52806213Y-34958714D01*
X52814423Y-34956657D01*
X52822796Y-34955415D01*
X52831250Y-34955000D01*
X53868750Y-34955000D01*
X53877204Y-34955415D01*
X53877204Y-34955415D01*
G37*
D13*
X53350000Y-35300000D03*
D12*
G36*
X56077204Y-34005415D02*
G01*
X56085577Y-34006657D01*
X56093787Y-34008714D01*
X56101756Y-34011565D01*
X56109408Y-34015184D01*
X56116668Y-34019536D01*
X56123466Y-34024578D01*
X56129738Y-34030262D01*
X56135422Y-34036534D01*
X56140464Y-34043332D01*
X56144816Y-34050592D01*
X56148435Y-34058244D01*
X56151286Y-34066213D01*
X56153343Y-34074423D01*
X56154585Y-34082796D01*
X56155000Y-34091250D01*
X56155000Y-34608750D01*
X56154585Y-34617204D01*
X56153343Y-34625577D01*
X56151286Y-34633787D01*
X56148435Y-34641756D01*
X56144816Y-34649408D01*
X56140464Y-34656668D01*
X56135422Y-34663466D01*
X56129738Y-34669738D01*
X56123466Y-34675422D01*
X56116668Y-34680464D01*
X56109408Y-34684816D01*
X56101756Y-34688435D01*
X56093787Y-34691286D01*
X56085577Y-34693343D01*
X56077204Y-34694585D01*
X56068750Y-34695000D01*
X55031250Y-34695000D01*
X55022796Y-34694585D01*
X55014423Y-34693343D01*
X55006213Y-34691286D01*
X54998244Y-34688435D01*
X54990592Y-34684816D01*
X54983332Y-34680464D01*
X54976534Y-34675422D01*
X54970262Y-34669738D01*
X54964578Y-34663466D01*
X54959536Y-34656668D01*
X54955184Y-34649408D01*
X54951565Y-34641756D01*
X54948714Y-34633787D01*
X54946657Y-34625577D01*
X54945415Y-34617204D01*
X54945000Y-34608750D01*
X54945000Y-34091250D01*
X54945415Y-34082796D01*
X54946657Y-34074423D01*
X54948714Y-34066213D01*
X54951565Y-34058244D01*
X54955184Y-34050592D01*
X54959536Y-34043332D01*
X54964578Y-34036534D01*
X54970262Y-34030262D01*
X54976534Y-34024578D01*
X54983332Y-34019536D01*
X54990592Y-34015184D01*
X54998244Y-34011565D01*
X55006213Y-34008714D01*
X55014423Y-34006657D01*
X55022796Y-34005415D01*
X55031250Y-34005000D01*
X56068750Y-34005000D01*
X56077204Y-34005415D01*
X56077204Y-34005415D01*
G37*
D13*
X55550000Y-34350000D03*
D12*
G36*
X56077204Y-35905415D02*
G01*
X56085577Y-35906657D01*
X56093787Y-35908714D01*
X56101756Y-35911565D01*
X56109408Y-35915184D01*
X56116668Y-35919536D01*
X56123466Y-35924578D01*
X56129738Y-35930262D01*
X56135422Y-35936534D01*
X56140464Y-35943332D01*
X56144816Y-35950592D01*
X56148435Y-35958244D01*
X56151286Y-35966213D01*
X56153343Y-35974423D01*
X56154585Y-35982796D01*
X56155000Y-35991250D01*
X56155000Y-36508750D01*
X56154585Y-36517204D01*
X56153343Y-36525577D01*
X56151286Y-36533787D01*
X56148435Y-36541756D01*
X56144816Y-36549408D01*
X56140464Y-36556668D01*
X56135422Y-36563466D01*
X56129738Y-36569738D01*
X56123466Y-36575422D01*
X56116668Y-36580464D01*
X56109408Y-36584816D01*
X56101756Y-36588435D01*
X56093787Y-36591286D01*
X56085577Y-36593343D01*
X56077204Y-36594585D01*
X56068750Y-36595000D01*
X55031250Y-36595000D01*
X55022796Y-36594585D01*
X55014423Y-36593343D01*
X55006213Y-36591286D01*
X54998244Y-36588435D01*
X54990592Y-36584816D01*
X54983332Y-36580464D01*
X54976534Y-36575422D01*
X54970262Y-36569738D01*
X54964578Y-36563466D01*
X54959536Y-36556668D01*
X54955184Y-36549408D01*
X54951565Y-36541756D01*
X54948714Y-36533787D01*
X54946657Y-36525577D01*
X54945415Y-36517204D01*
X54945000Y-36508750D01*
X54945000Y-35991250D01*
X54945415Y-35982796D01*
X54946657Y-35974423D01*
X54948714Y-35966213D01*
X54951565Y-35958244D01*
X54955184Y-35950592D01*
X54959536Y-35943332D01*
X54964578Y-35936534D01*
X54970262Y-35930262D01*
X54976534Y-35924578D01*
X54983332Y-35919536D01*
X54990592Y-35915184D01*
X54998244Y-35911565D01*
X55006213Y-35908714D01*
X55014423Y-35906657D01*
X55022796Y-35905415D01*
X55031250Y-35905000D01*
X56068750Y-35905000D01*
X56077204Y-35905415D01*
X56077204Y-35905415D01*
G37*
D13*
X55550000Y-36250000D03*
D12*
G36*
X70677204Y-34805415D02*
G01*
X70685577Y-34806657D01*
X70693787Y-34808714D01*
X70701756Y-34811565D01*
X70709408Y-34815184D01*
X70716668Y-34819536D01*
X70723466Y-34824578D01*
X70729738Y-34830262D01*
X70735422Y-34836534D01*
X70740464Y-34843332D01*
X70744816Y-34850592D01*
X70748435Y-34858244D01*
X70751286Y-34866213D01*
X70753343Y-34874423D01*
X70754585Y-34882796D01*
X70755000Y-34891250D01*
X70755000Y-35408750D01*
X70754585Y-35417204D01*
X70753343Y-35425577D01*
X70751286Y-35433787D01*
X70748435Y-35441756D01*
X70744816Y-35449408D01*
X70740464Y-35456668D01*
X70735422Y-35463466D01*
X70729738Y-35469738D01*
X70723466Y-35475422D01*
X70716668Y-35480464D01*
X70709408Y-35484816D01*
X70701756Y-35488435D01*
X70693787Y-35491286D01*
X70685577Y-35493343D01*
X70677204Y-35494585D01*
X70668750Y-35495000D01*
X69631250Y-35495000D01*
X69622796Y-35494585D01*
X69614423Y-35493343D01*
X69606213Y-35491286D01*
X69598244Y-35488435D01*
X69590592Y-35484816D01*
X69583332Y-35480464D01*
X69576534Y-35475422D01*
X69570262Y-35469738D01*
X69564578Y-35463466D01*
X69559536Y-35456668D01*
X69555184Y-35449408D01*
X69551565Y-35441756D01*
X69548714Y-35433787D01*
X69546657Y-35425577D01*
X69545415Y-35417204D01*
X69545000Y-35408750D01*
X69545000Y-34891250D01*
X69545415Y-34882796D01*
X69546657Y-34874423D01*
X69548714Y-34866213D01*
X69551565Y-34858244D01*
X69555184Y-34850592D01*
X69559536Y-34843332D01*
X69564578Y-34836534D01*
X69570262Y-34830262D01*
X69576534Y-34824578D01*
X69583332Y-34819536D01*
X69590592Y-34815184D01*
X69598244Y-34811565D01*
X69606213Y-34808714D01*
X69614423Y-34806657D01*
X69622796Y-34805415D01*
X69631250Y-34805000D01*
X70668750Y-34805000D01*
X70677204Y-34805415D01*
X70677204Y-34805415D01*
G37*
D13*
X70150000Y-35150000D03*
D12*
G36*
X70677204Y-36705415D02*
G01*
X70685577Y-36706657D01*
X70693787Y-36708714D01*
X70701756Y-36711565D01*
X70709408Y-36715184D01*
X70716668Y-36719536D01*
X70723466Y-36724578D01*
X70729738Y-36730262D01*
X70735422Y-36736534D01*
X70740464Y-36743332D01*
X70744816Y-36750592D01*
X70748435Y-36758244D01*
X70751286Y-36766213D01*
X70753343Y-36774423D01*
X70754585Y-36782796D01*
X70755000Y-36791250D01*
X70755000Y-37308750D01*
X70754585Y-37317204D01*
X70753343Y-37325577D01*
X70751286Y-37333787D01*
X70748435Y-37341756D01*
X70744816Y-37349408D01*
X70740464Y-37356668D01*
X70735422Y-37363466D01*
X70729738Y-37369738D01*
X70723466Y-37375422D01*
X70716668Y-37380464D01*
X70709408Y-37384816D01*
X70701756Y-37388435D01*
X70693787Y-37391286D01*
X70685577Y-37393343D01*
X70677204Y-37394585D01*
X70668750Y-37395000D01*
X69631250Y-37395000D01*
X69622796Y-37394585D01*
X69614423Y-37393343D01*
X69606213Y-37391286D01*
X69598244Y-37388435D01*
X69590592Y-37384816D01*
X69583332Y-37380464D01*
X69576534Y-37375422D01*
X69570262Y-37369738D01*
X69564578Y-37363466D01*
X69559536Y-37356668D01*
X69555184Y-37349408D01*
X69551565Y-37341756D01*
X69548714Y-37333787D01*
X69546657Y-37325577D01*
X69545415Y-37317204D01*
X69545000Y-37308750D01*
X69545000Y-36791250D01*
X69545415Y-36782796D01*
X69546657Y-36774423D01*
X69548714Y-36766213D01*
X69551565Y-36758244D01*
X69555184Y-36750592D01*
X69559536Y-36743332D01*
X69564578Y-36736534D01*
X69570262Y-36730262D01*
X69576534Y-36724578D01*
X69583332Y-36719536D01*
X69590592Y-36715184D01*
X69598244Y-36711565D01*
X69606213Y-36708714D01*
X69614423Y-36706657D01*
X69622796Y-36705415D01*
X69631250Y-36705000D01*
X70668750Y-36705000D01*
X70677204Y-36705415D01*
X70677204Y-36705415D01*
G37*
D13*
X70150000Y-37050000D03*
D12*
G36*
X72877204Y-35755415D02*
G01*
X72885577Y-35756657D01*
X72893787Y-35758714D01*
X72901756Y-35761565D01*
X72909408Y-35765184D01*
X72916668Y-35769536D01*
X72923466Y-35774578D01*
X72929738Y-35780262D01*
X72935422Y-35786534D01*
X72940464Y-35793332D01*
X72944816Y-35800592D01*
X72948435Y-35808244D01*
X72951286Y-35816213D01*
X72953343Y-35824423D01*
X72954585Y-35832796D01*
X72955000Y-35841250D01*
X72955000Y-36358750D01*
X72954585Y-36367204D01*
X72953343Y-36375577D01*
X72951286Y-36383787D01*
X72948435Y-36391756D01*
X72944816Y-36399408D01*
X72940464Y-36406668D01*
X72935422Y-36413466D01*
X72929738Y-36419738D01*
X72923466Y-36425422D01*
X72916668Y-36430464D01*
X72909408Y-36434816D01*
X72901756Y-36438435D01*
X72893787Y-36441286D01*
X72885577Y-36443343D01*
X72877204Y-36444585D01*
X72868750Y-36445000D01*
X71831250Y-36445000D01*
X71822796Y-36444585D01*
X71814423Y-36443343D01*
X71806213Y-36441286D01*
X71798244Y-36438435D01*
X71790592Y-36434816D01*
X71783332Y-36430464D01*
X71776534Y-36425422D01*
X71770262Y-36419738D01*
X71764578Y-36413466D01*
X71759536Y-36406668D01*
X71755184Y-36399408D01*
X71751565Y-36391756D01*
X71748714Y-36383787D01*
X71746657Y-36375577D01*
X71745415Y-36367204D01*
X71745000Y-36358750D01*
X71745000Y-35841250D01*
X71745415Y-35832796D01*
X71746657Y-35824423D01*
X71748714Y-35816213D01*
X71751565Y-35808244D01*
X71755184Y-35800592D01*
X71759536Y-35793332D01*
X71764578Y-35786534D01*
X71770262Y-35780262D01*
X71776534Y-35774578D01*
X71783332Y-35769536D01*
X71790592Y-35765184D01*
X71798244Y-35761565D01*
X71806213Y-35758714D01*
X71814423Y-35756657D01*
X71822796Y-35755415D01*
X71831250Y-35755000D01*
X72868750Y-35755000D01*
X72877204Y-35755415D01*
X72877204Y-35755415D01*
G37*
D13*
X72350000Y-36100000D03*
D11*
X55830000Y-40840000D03*
X54130000Y-40840000D03*
D14*
X65844800Y-38624200D03*
X65844800Y-39284600D03*
X65844800Y-39919600D03*
X65844800Y-40580000D03*
X65844800Y-41240400D03*
X65844800Y-41875400D03*
X65844800Y-42535800D03*
X60155200Y-42535800D03*
X60155200Y-41875400D03*
X60155200Y-41240400D03*
X60155200Y-40580000D03*
X60155200Y-39919600D03*
X60155200Y-39284600D03*
X60155200Y-38624200D03*
D15*
X63520000Y-19370000D03*
X64820000Y-19370000D03*
X63500000Y-21360000D03*
X62200000Y-21360000D03*
D16*
X64775000Y-23406200D03*
X63505000Y-23406200D03*
X62235000Y-23406200D03*
X60965000Y-23406200D03*
X60965000Y-28333800D03*
X62235000Y-28333800D03*
X63505000Y-28333800D03*
X64775000Y-28333800D03*
D17*
X27480000Y-40160000D03*
D18*
X46850000Y-42650000D03*
X46850000Y-39350000D03*
D19*
X61280000Y-45780000D03*
X64580000Y-45780000D03*
D15*
X64720000Y-32070000D03*
X63420000Y-32070000D03*
X42750000Y-32900000D03*
X44050000Y-32900000D03*
D11*
X38150000Y-39450000D03*
X38150000Y-41150000D03*
D20*
X42850000Y-47600000D03*
X41150000Y-47600000D03*
D11*
X42850000Y-51150000D03*
X42850000Y-49450000D03*
D20*
X62800000Y-36700000D03*
X61100000Y-36700000D03*
D11*
X38000000Y-34800000D03*
X39700000Y-34800000D03*
D21*
X41100000Y-49600000D03*
X40100000Y-49600000D03*
D11*
X66890000Y-20560000D03*
X68590000Y-20560000D03*
D21*
X71590000Y-20580000D03*
X70590000Y-20580000D03*
D22*
X44772000Y-34800000D03*
X41928000Y-34800000D03*
D11*
X42850000Y-45200000D03*
X41150000Y-45200000D03*
D20*
X38800000Y-47050000D03*
X38800000Y-45350000D03*
X38400000Y-49600000D03*
X38400000Y-51300000D03*
D11*
X54130000Y-42940000D03*
X55830000Y-42940000D03*
X70940000Y-45420000D03*
X69240000Y-45420000D03*
X59050000Y-34440000D03*
X57350000Y-34440000D03*
X59110000Y-36630000D03*
X57410000Y-36630000D03*
D20*
X65850000Y-35350000D03*
X65850000Y-37050000D03*
X67950000Y-37050000D03*
X67950000Y-35350000D03*
D11*
X62800000Y-34430000D03*
X61100000Y-34430000D03*
X54130000Y-45040000D03*
X55830000Y-45040000D03*
X70940000Y-43320000D03*
X69240000Y-43320000D03*
X55830000Y-38740000D03*
X54130000Y-38740000D03*
X69240000Y-39110000D03*
X70940000Y-39110000D03*
X69240000Y-41220000D03*
X70940000Y-41220000D03*
D16*
X43805000Y-42663800D03*
X42535000Y-42663800D03*
X41265000Y-42663800D03*
X39995000Y-42663800D03*
X39995000Y-37736200D03*
X41265000Y-37736200D03*
X42535000Y-37736200D03*
X43805000Y-37736200D03*
D12*
G36*
X55007204Y-46845415D02*
G01*
X55015577Y-46846657D01*
X55023787Y-46848714D01*
X55031756Y-46851565D01*
X55039408Y-46855184D01*
X55046668Y-46859536D01*
X55053466Y-46864578D01*
X55059738Y-46870262D01*
X55065422Y-46876534D01*
X55070464Y-46883332D01*
X55074816Y-46890592D01*
X55078435Y-46898244D01*
X55081286Y-46906213D01*
X55083343Y-46914423D01*
X55084585Y-46922796D01*
X55085000Y-46931250D01*
X55085000Y-47448750D01*
X55084585Y-47457204D01*
X55083343Y-47465577D01*
X55081286Y-47473787D01*
X55078435Y-47481756D01*
X55074816Y-47489408D01*
X55070464Y-47496668D01*
X55065422Y-47503466D01*
X55059738Y-47509738D01*
X55053466Y-47515422D01*
X55046668Y-47520464D01*
X55039408Y-47524816D01*
X55031756Y-47528435D01*
X55023787Y-47531286D01*
X55015577Y-47533343D01*
X55007204Y-47534585D01*
X54998750Y-47535000D01*
X53961250Y-47535000D01*
X53952796Y-47534585D01*
X53944423Y-47533343D01*
X53936213Y-47531286D01*
X53928244Y-47528435D01*
X53920592Y-47524816D01*
X53913332Y-47520464D01*
X53906534Y-47515422D01*
X53900262Y-47509738D01*
X53894578Y-47503466D01*
X53889536Y-47496668D01*
X53885184Y-47489408D01*
X53881565Y-47481756D01*
X53878714Y-47473787D01*
X53876657Y-47465577D01*
X53875415Y-47457204D01*
X53875000Y-47448750D01*
X53875000Y-46931250D01*
X53875415Y-46922796D01*
X53876657Y-46914423D01*
X53878714Y-46906213D01*
X53881565Y-46898244D01*
X53885184Y-46890592D01*
X53889536Y-46883332D01*
X53894578Y-46876534D01*
X53900262Y-46870262D01*
X53906534Y-46864578D01*
X53913332Y-46859536D01*
X53920592Y-46855184D01*
X53928244Y-46851565D01*
X53936213Y-46848714D01*
X53944423Y-46846657D01*
X53952796Y-46845415D01*
X53961250Y-46845000D01*
X54998750Y-46845000D01*
X55007204Y-46845415D01*
X55007204Y-46845415D01*
G37*
D13*
X54480000Y-47190000D03*
D12*
G36*
X55007204Y-48745415D02*
G01*
X55015577Y-48746657D01*
X55023787Y-48748714D01*
X55031756Y-48751565D01*
X55039408Y-48755184D01*
X55046668Y-48759536D01*
X55053466Y-48764578D01*
X55059738Y-48770262D01*
X55065422Y-48776534D01*
X55070464Y-48783332D01*
X55074816Y-48790592D01*
X55078435Y-48798244D01*
X55081286Y-48806213D01*
X55083343Y-48814423D01*
X55084585Y-48822796D01*
X55085000Y-48831250D01*
X55085000Y-49348750D01*
X55084585Y-49357204D01*
X55083343Y-49365577D01*
X55081286Y-49373787D01*
X55078435Y-49381756D01*
X55074816Y-49389408D01*
X55070464Y-49396668D01*
X55065422Y-49403466D01*
X55059738Y-49409738D01*
X55053466Y-49415422D01*
X55046668Y-49420464D01*
X55039408Y-49424816D01*
X55031756Y-49428435D01*
X55023787Y-49431286D01*
X55015577Y-49433343D01*
X55007204Y-49434585D01*
X54998750Y-49435000D01*
X53961250Y-49435000D01*
X53952796Y-49434585D01*
X53944423Y-49433343D01*
X53936213Y-49431286D01*
X53928244Y-49428435D01*
X53920592Y-49424816D01*
X53913332Y-49420464D01*
X53906534Y-49415422D01*
X53900262Y-49409738D01*
X53894578Y-49403466D01*
X53889536Y-49396668D01*
X53885184Y-49389408D01*
X53881565Y-49381756D01*
X53878714Y-49373787D01*
X53876657Y-49365577D01*
X53875415Y-49357204D01*
X53875000Y-49348750D01*
X53875000Y-48831250D01*
X53875415Y-48822796D01*
X53876657Y-48814423D01*
X53878714Y-48806213D01*
X53881565Y-48798244D01*
X53885184Y-48790592D01*
X53889536Y-48783332D01*
X53894578Y-48776534D01*
X53900262Y-48770262D01*
X53906534Y-48764578D01*
X53913332Y-48759536D01*
X53920592Y-48755184D01*
X53928244Y-48751565D01*
X53936213Y-48748714D01*
X53944423Y-48746657D01*
X53952796Y-48745415D01*
X53961250Y-48745000D01*
X54998750Y-48745000D01*
X55007204Y-48745415D01*
X55007204Y-48745415D01*
G37*
D13*
X54480000Y-49090000D03*
D12*
G36*
X57207204Y-47795415D02*
G01*
X57215577Y-47796657D01*
X57223787Y-47798714D01*
X57231756Y-47801565D01*
X57239408Y-47805184D01*
X57246668Y-47809536D01*
X57253466Y-47814578D01*
X57259738Y-47820262D01*
X57265422Y-47826534D01*
X57270464Y-47833332D01*
X57274816Y-47840592D01*
X57278435Y-47848244D01*
X57281286Y-47856213D01*
X57283343Y-47864423D01*
X57284585Y-47872796D01*
X57285000Y-47881250D01*
X57285000Y-48398750D01*
X57284585Y-48407204D01*
X57283343Y-48415577D01*
X57281286Y-48423787D01*
X57278435Y-48431756D01*
X57274816Y-48439408D01*
X57270464Y-48446668D01*
X57265422Y-48453466D01*
X57259738Y-48459738D01*
X57253466Y-48465422D01*
X57246668Y-48470464D01*
X57239408Y-48474816D01*
X57231756Y-48478435D01*
X57223787Y-48481286D01*
X57215577Y-48483343D01*
X57207204Y-48484585D01*
X57198750Y-48485000D01*
X56161250Y-48485000D01*
X56152796Y-48484585D01*
X56144423Y-48483343D01*
X56136213Y-48481286D01*
X56128244Y-48478435D01*
X56120592Y-48474816D01*
X56113332Y-48470464D01*
X56106534Y-48465422D01*
X56100262Y-48459738D01*
X56094578Y-48453466D01*
X56089536Y-48446668D01*
X56085184Y-48439408D01*
X56081565Y-48431756D01*
X56078714Y-48423787D01*
X56076657Y-48415577D01*
X56075415Y-48407204D01*
X56075000Y-48398750D01*
X56075000Y-47881250D01*
X56075415Y-47872796D01*
X56076657Y-47864423D01*
X56078714Y-47856213D01*
X56081565Y-47848244D01*
X56085184Y-47840592D01*
X56089536Y-47833332D01*
X56094578Y-47826534D01*
X56100262Y-47820262D01*
X56106534Y-47814578D01*
X56113332Y-47809536D01*
X56120592Y-47805184D01*
X56128244Y-47801565D01*
X56136213Y-47798714D01*
X56144423Y-47796657D01*
X56152796Y-47795415D01*
X56161250Y-47795000D01*
X57198750Y-47795000D01*
X57207204Y-47795415D01*
X57207204Y-47795415D01*
G37*
D13*
X56680000Y-48140000D03*
D12*
G36*
X69017204Y-48275415D02*
G01*
X69025577Y-48276657D01*
X69033787Y-48278714D01*
X69041756Y-48281565D01*
X69049408Y-48285184D01*
X69056668Y-48289536D01*
X69063466Y-48294578D01*
X69069738Y-48300262D01*
X69075422Y-48306534D01*
X69080464Y-48313332D01*
X69084816Y-48320592D01*
X69088435Y-48328244D01*
X69091286Y-48336213D01*
X69093343Y-48344423D01*
X69094585Y-48352796D01*
X69095000Y-48361250D01*
X69095000Y-48878750D01*
X69094585Y-48887204D01*
X69093343Y-48895577D01*
X69091286Y-48903787D01*
X69088435Y-48911756D01*
X69084816Y-48919408D01*
X69080464Y-48926668D01*
X69075422Y-48933466D01*
X69069738Y-48939738D01*
X69063466Y-48945422D01*
X69056668Y-48950464D01*
X69049408Y-48954816D01*
X69041756Y-48958435D01*
X69033787Y-48961286D01*
X69025577Y-48963343D01*
X69017204Y-48964585D01*
X69008750Y-48965000D01*
X67971250Y-48965000D01*
X67962796Y-48964585D01*
X67954423Y-48963343D01*
X67946213Y-48961286D01*
X67938244Y-48958435D01*
X67930592Y-48954816D01*
X67923332Y-48950464D01*
X67916534Y-48945422D01*
X67910262Y-48939738D01*
X67904578Y-48933466D01*
X67899536Y-48926668D01*
X67895184Y-48919408D01*
X67891565Y-48911756D01*
X67888714Y-48903787D01*
X67886657Y-48895577D01*
X67885415Y-48887204D01*
X67885000Y-48878750D01*
X67885000Y-48361250D01*
X67885415Y-48352796D01*
X67886657Y-48344423D01*
X67888714Y-48336213D01*
X67891565Y-48328244D01*
X67895184Y-48320592D01*
X67899536Y-48313332D01*
X67904578Y-48306534D01*
X67910262Y-48300262D01*
X67916534Y-48294578D01*
X67923332Y-48289536D01*
X67930592Y-48285184D01*
X67938244Y-48281565D01*
X67946213Y-48278714D01*
X67954423Y-48276657D01*
X67962796Y-48275415D01*
X67971250Y-48275000D01*
X69008750Y-48275000D01*
X69017204Y-48275415D01*
X69017204Y-48275415D01*
G37*
D13*
X68490000Y-48620000D03*
D12*
G36*
X71217204Y-47325415D02*
G01*
X71225577Y-47326657D01*
X71233787Y-47328714D01*
X71241756Y-47331565D01*
X71249408Y-47335184D01*
X71256668Y-47339536D01*
X71263466Y-47344578D01*
X71269738Y-47350262D01*
X71275422Y-47356534D01*
X71280464Y-47363332D01*
X71284816Y-47370592D01*
X71288435Y-47378244D01*
X71291286Y-47386213D01*
X71293343Y-47394423D01*
X71294585Y-47402796D01*
X71295000Y-47411250D01*
X71295000Y-47928750D01*
X71294585Y-47937204D01*
X71293343Y-47945577D01*
X71291286Y-47953787D01*
X71288435Y-47961756D01*
X71284816Y-47969408D01*
X71280464Y-47976668D01*
X71275422Y-47983466D01*
X71269738Y-47989738D01*
X71263466Y-47995422D01*
X71256668Y-48000464D01*
X71249408Y-48004816D01*
X71241756Y-48008435D01*
X71233787Y-48011286D01*
X71225577Y-48013343D01*
X71217204Y-48014585D01*
X71208750Y-48015000D01*
X70171250Y-48015000D01*
X70162796Y-48014585D01*
X70154423Y-48013343D01*
X70146213Y-48011286D01*
X70138244Y-48008435D01*
X70130592Y-48004816D01*
X70123332Y-48000464D01*
X70116534Y-47995422D01*
X70110262Y-47989738D01*
X70104578Y-47983466D01*
X70099536Y-47976668D01*
X70095184Y-47969408D01*
X70091565Y-47961756D01*
X70088714Y-47953787D01*
X70086657Y-47945577D01*
X70085415Y-47937204D01*
X70085000Y-47928750D01*
X70085000Y-47411250D01*
X70085415Y-47402796D01*
X70086657Y-47394423D01*
X70088714Y-47386213D01*
X70091565Y-47378244D01*
X70095184Y-47370592D01*
X70099536Y-47363332D01*
X70104578Y-47356534D01*
X70110262Y-47350262D01*
X70116534Y-47344578D01*
X70123332Y-47339536D01*
X70130592Y-47335184D01*
X70138244Y-47331565D01*
X70146213Y-47328714D01*
X70154423Y-47326657D01*
X70162796Y-47325415D01*
X70171250Y-47325000D01*
X71208750Y-47325000D01*
X71217204Y-47325415D01*
X71217204Y-47325415D01*
G37*
D13*
X70690000Y-47670000D03*
D12*
G36*
X71217204Y-49225415D02*
G01*
X71225577Y-49226657D01*
X71233787Y-49228714D01*
X71241756Y-49231565D01*
X71249408Y-49235184D01*
X71256668Y-49239536D01*
X71263466Y-49244578D01*
X71269738Y-49250262D01*
X71275422Y-49256534D01*
X71280464Y-49263332D01*
X71284816Y-49270592D01*
X71288435Y-49278244D01*
X71291286Y-49286213D01*
X71293343Y-49294423D01*
X71294585Y-49302796D01*
X71295000Y-49311250D01*
X71295000Y-49828750D01*
X71294585Y-49837204D01*
X71293343Y-49845577D01*
X71291286Y-49853787D01*
X71288435Y-49861756D01*
X71284816Y-49869408D01*
X71280464Y-49876668D01*
X71275422Y-49883466D01*
X71269738Y-49889738D01*
X71263466Y-49895422D01*
X71256668Y-49900464D01*
X71249408Y-49904816D01*
X71241756Y-49908435D01*
X71233787Y-49911286D01*
X71225577Y-49913343D01*
X71217204Y-49914585D01*
X71208750Y-49915000D01*
X70171250Y-49915000D01*
X70162796Y-49914585D01*
X70154423Y-49913343D01*
X70146213Y-49911286D01*
X70138244Y-49908435D01*
X70130592Y-49904816D01*
X70123332Y-49900464D01*
X70116534Y-49895422D01*
X70110262Y-49889738D01*
X70104578Y-49883466D01*
X70099536Y-49876668D01*
X70095184Y-49869408D01*
X70091565Y-49861756D01*
X70088714Y-49853787D01*
X70086657Y-49845577D01*
X70085415Y-49837204D01*
X70085000Y-49828750D01*
X70085000Y-49311250D01*
X70085415Y-49302796D01*
X70086657Y-49294423D01*
X70088714Y-49286213D01*
X70091565Y-49278244D01*
X70095184Y-49270592D01*
X70099536Y-49263332D01*
X70104578Y-49256534D01*
X70110262Y-49250262D01*
X70116534Y-49244578D01*
X70123332Y-49239536D01*
X70130592Y-49235184D01*
X70138244Y-49231565D01*
X70146213Y-49228714D01*
X70154423Y-49226657D01*
X70162796Y-49225415D01*
X70171250Y-49225000D01*
X71208750Y-49225000D01*
X71217204Y-49225415D01*
X71217204Y-49225415D01*
G37*
D13*
X70690000Y-49570000D03*
D20*
X57460000Y-28300000D03*
X57460000Y-26600000D03*
X57460000Y-23280000D03*
X57460000Y-24980000D03*
X54780000Y-28300000D03*
X54780000Y-26600000D03*
X54780000Y-23220000D03*
X54780000Y-24920000D03*
X70290000Y-28370000D03*
X70290000Y-26670000D03*
X70280000Y-23210000D03*
X70280000Y-24910000D03*
X67680000Y-28330000D03*
X67680000Y-26630000D03*
X67690000Y-23240000D03*
X67690000Y-24940000D03*
D23*
X37900000Y-72800000D03*
X37900000Y-75600000D03*
D24*
X70250000Y-58600000D03*
X68350000Y-58600000D03*
X68550000Y-73600000D03*
X70450000Y-73600000D03*
D25*
X50100000Y-64000000D03*
X50100000Y-64800000D03*
X50100000Y-65600000D03*
X50100000Y-66400000D03*
X50100000Y-67200000D03*
X50100000Y-68000000D03*
X50100000Y-68800000D03*
X50100000Y-69600000D03*
X50100000Y-70400000D03*
X50100000Y-71200000D03*
X50100000Y-72000000D03*
D26*
X51900000Y-73800000D03*
X52700000Y-73800000D03*
X53500000Y-73800000D03*
X54300000Y-73800000D03*
X55100000Y-73800000D03*
X55900000Y-73800000D03*
X56700000Y-73800000D03*
X57500000Y-73800000D03*
X58300000Y-73800000D03*
X59100000Y-73800000D03*
X59900000Y-73800000D03*
D25*
X61700000Y-72000000D03*
X61700000Y-71200000D03*
X61700000Y-70400000D03*
X61700000Y-69600000D03*
X61700000Y-68800000D03*
X61700000Y-68000000D03*
X61700000Y-67200000D03*
X61700000Y-66400000D03*
X61700000Y-65600000D03*
X61700000Y-64800000D03*
X61700000Y-64000000D03*
D26*
X59900000Y-62200000D03*
X59100000Y-62200000D03*
X58300000Y-62200000D03*
X57500000Y-62200000D03*
X56700000Y-62200000D03*
X55900000Y-62200000D03*
X55100000Y-62200000D03*
X54300000Y-62200000D03*
X53500000Y-62200000D03*
X52700000Y-62200000D03*
X51900000Y-62200000D03*
D27*
X56900000Y-78400000D03*
X59700000Y-78400000D03*
D28*
X64400000Y-72100000D03*
X64400000Y-69300000D03*
D11*
X50150000Y-49000000D03*
X48450000Y-49000000D03*
M02*
