G04 #@! TF.GenerationSoftware,KiCad,Pcbnew,(5.1.2)-2*
G04 #@! TF.CreationDate,2022-01-19T07:15:10-03:00*
G04 #@! TF.ProjectId,MAG_Plus,4d41475f-506c-4757-932e-6b696361645f,rev?*
G04 #@! TF.SameCoordinates,Original*
G04 #@! TF.FileFunction,Soldermask,Bot*
G04 #@! TF.FilePolarity,Negative*
%FSLAX46Y46*%
G04 Gerber Fmt 4.6, Leading zero omitted, Abs format (unit mm)*
G04 Created by KiCad (PCBNEW (5.1.2)-2) date 2022-01-19 07:15:10*
%MOMM*%
%LPD*%
G04 APERTURE LIST*
%ADD10C,0.100000*%
G04 APERTURE END LIST*
D10*
G36*
X15258903Y-81563213D02*
G01*
X15481177Y-81607426D01*
X15899932Y-81780880D01*
X16276802Y-82032696D01*
X16597304Y-82353198D01*
X16849120Y-82730068D01*
X17022574Y-83148823D01*
X17111000Y-83593371D01*
X17111000Y-84046629D01*
X17022574Y-84491177D01*
X16849120Y-84909932D01*
X16597304Y-85286802D01*
X16276802Y-85607304D01*
X15899932Y-85859120D01*
X15481177Y-86032574D01*
X15258903Y-86076787D01*
X15036630Y-86121000D01*
X14583370Y-86121000D01*
X14361097Y-86076787D01*
X14138823Y-86032574D01*
X13720068Y-85859120D01*
X13343198Y-85607304D01*
X13022696Y-85286802D01*
X12770880Y-84909932D01*
X12597426Y-84491177D01*
X12509000Y-84046629D01*
X12509000Y-83593371D01*
X12597426Y-83148823D01*
X12770880Y-82730068D01*
X13022696Y-82353198D01*
X13343198Y-82032696D01*
X13720068Y-81780880D01*
X14138823Y-81607426D01*
X14361097Y-81563213D01*
X14583370Y-81519000D01*
X15036630Y-81519000D01*
X15258903Y-81563213D01*
X15258903Y-81563213D01*
G37*
G36*
X107148903Y-81553213D02*
G01*
X107371177Y-81597426D01*
X107789932Y-81770880D01*
X108166802Y-82022696D01*
X108487304Y-82343198D01*
X108739120Y-82720068D01*
X108912574Y-83138823D01*
X109001000Y-83583371D01*
X109001000Y-84036629D01*
X108912574Y-84481177D01*
X108739120Y-84899932D01*
X108487304Y-85276802D01*
X108166802Y-85597304D01*
X107789932Y-85849120D01*
X107371177Y-86022574D01*
X107148903Y-86066787D01*
X106926630Y-86111000D01*
X106473370Y-86111000D01*
X106251097Y-86066787D01*
X106028823Y-86022574D01*
X105610068Y-85849120D01*
X105233198Y-85597304D01*
X104912696Y-85276802D01*
X104660880Y-84899932D01*
X104487426Y-84481177D01*
X104399000Y-84036629D01*
X104399000Y-83583371D01*
X104487426Y-83138823D01*
X104660880Y-82720068D01*
X104912696Y-82343198D01*
X105233198Y-82022696D01*
X105610068Y-81770880D01*
X106028823Y-81597426D01*
X106251097Y-81553213D01*
X106473370Y-81509000D01*
X106926630Y-81509000D01*
X107148903Y-81553213D01*
X107148903Y-81553213D01*
G37*
G36*
X53038843Y-81942292D02*
G01*
X53089588Y-81963311D01*
X53125470Y-81978174D01*
X53203432Y-82030267D01*
X53269733Y-82096568D01*
X53321826Y-82174530D01*
X53321826Y-82174531D01*
X53357708Y-82261157D01*
X53376000Y-82353117D01*
X53376000Y-82446883D01*
X53357708Y-82538843D01*
X53336689Y-82589588D01*
X53321826Y-82625470D01*
X53269733Y-82703432D01*
X53203432Y-82769733D01*
X53125470Y-82821826D01*
X53089588Y-82836689D01*
X53038843Y-82857708D01*
X52946883Y-82876000D01*
X52853117Y-82876000D01*
X52761157Y-82857708D01*
X52710412Y-82836689D01*
X52674530Y-82821826D01*
X52596568Y-82769733D01*
X52530267Y-82703432D01*
X52478174Y-82625470D01*
X52463311Y-82589588D01*
X52442292Y-82538843D01*
X52424000Y-82446883D01*
X52424000Y-82353117D01*
X52442292Y-82261157D01*
X52478174Y-82174531D01*
X52478174Y-82174530D01*
X52530267Y-82096568D01*
X52596568Y-82030267D01*
X52674530Y-81978174D01*
X52710412Y-81963311D01*
X52761157Y-81942292D01*
X52853117Y-81924000D01*
X52946883Y-81924000D01*
X53038843Y-81942292D01*
X53038843Y-81942292D01*
G37*
G36*
X55538843Y-81942292D02*
G01*
X55589588Y-81963311D01*
X55625470Y-81978174D01*
X55703432Y-82030267D01*
X55769733Y-82096568D01*
X55821826Y-82174530D01*
X55821826Y-82174531D01*
X55857708Y-82261157D01*
X55876000Y-82353117D01*
X55876000Y-82446883D01*
X55857708Y-82538843D01*
X55836689Y-82589588D01*
X55821826Y-82625470D01*
X55769733Y-82703432D01*
X55703432Y-82769733D01*
X55625470Y-82821826D01*
X55589588Y-82836689D01*
X55538843Y-82857708D01*
X55446883Y-82876000D01*
X55353117Y-82876000D01*
X55261157Y-82857708D01*
X55210412Y-82836689D01*
X55174530Y-82821826D01*
X55096568Y-82769733D01*
X55030267Y-82703432D01*
X54978174Y-82625470D01*
X54963311Y-82589588D01*
X54942292Y-82538843D01*
X54924000Y-82446883D01*
X54924000Y-82353117D01*
X54942292Y-82261157D01*
X54978174Y-82174531D01*
X54978174Y-82174530D01*
X55030267Y-82096568D01*
X55096568Y-82030267D01*
X55174530Y-81978174D01*
X55210412Y-81963311D01*
X55261157Y-81942292D01*
X55353117Y-81924000D01*
X55446883Y-81924000D01*
X55538843Y-81942292D01*
X55538843Y-81942292D01*
G37*
G36*
X56788843Y-81942292D02*
G01*
X56839588Y-81963311D01*
X56875470Y-81978174D01*
X56953432Y-82030267D01*
X57019733Y-82096568D01*
X57071826Y-82174530D01*
X57071826Y-82174531D01*
X57107708Y-82261157D01*
X57126000Y-82353117D01*
X57126000Y-82446883D01*
X57107708Y-82538843D01*
X57086689Y-82589588D01*
X57071826Y-82625470D01*
X57019733Y-82703432D01*
X56953432Y-82769733D01*
X56875470Y-82821826D01*
X56839588Y-82836689D01*
X56788843Y-82857708D01*
X56696883Y-82876000D01*
X56603117Y-82876000D01*
X56511157Y-82857708D01*
X56460412Y-82836689D01*
X56424530Y-82821826D01*
X56346568Y-82769733D01*
X56280267Y-82703432D01*
X56228174Y-82625470D01*
X56213311Y-82589588D01*
X56192292Y-82538843D01*
X56174000Y-82446883D01*
X56174000Y-82353117D01*
X56192292Y-82261157D01*
X56228174Y-82174531D01*
X56228174Y-82174530D01*
X56280267Y-82096568D01*
X56346568Y-82030267D01*
X56424530Y-81978174D01*
X56460412Y-81963311D01*
X56511157Y-81942292D01*
X56603117Y-81924000D01*
X56696883Y-81924000D01*
X56788843Y-81942292D01*
X56788843Y-81942292D01*
G37*
G36*
X58376000Y-82876000D02*
G01*
X57424000Y-82876000D01*
X57424000Y-81924000D01*
X58376000Y-81924000D01*
X58376000Y-82876000D01*
X58376000Y-82876000D01*
G37*
G36*
X51788843Y-81942292D02*
G01*
X51839588Y-81963311D01*
X51875470Y-81978174D01*
X51953432Y-82030267D01*
X52019733Y-82096568D01*
X52071826Y-82174530D01*
X52071826Y-82174531D01*
X52107708Y-82261157D01*
X52126000Y-82353117D01*
X52126000Y-82446883D01*
X52107708Y-82538843D01*
X52086689Y-82589588D01*
X52071826Y-82625470D01*
X52019733Y-82703432D01*
X51953432Y-82769733D01*
X51875470Y-82821826D01*
X51839588Y-82836689D01*
X51788843Y-82857708D01*
X51696883Y-82876000D01*
X51603117Y-82876000D01*
X51511157Y-82857708D01*
X51460412Y-82836689D01*
X51424530Y-82821826D01*
X51346568Y-82769733D01*
X51280267Y-82703432D01*
X51228174Y-82625470D01*
X51213311Y-82589588D01*
X51192292Y-82538843D01*
X51174000Y-82446883D01*
X51174000Y-82353117D01*
X51192292Y-82261157D01*
X51228174Y-82174531D01*
X51228174Y-82174530D01*
X51280267Y-82096568D01*
X51346568Y-82030267D01*
X51424530Y-81978174D01*
X51460412Y-81963311D01*
X51511157Y-81942292D01*
X51603117Y-81924000D01*
X51696883Y-81924000D01*
X51788843Y-81942292D01*
X51788843Y-81942292D01*
G37*
G36*
X54288843Y-81942292D02*
G01*
X54339588Y-81963311D01*
X54375470Y-81978174D01*
X54453432Y-82030267D01*
X54519733Y-82096568D01*
X54571826Y-82174530D01*
X54571826Y-82174531D01*
X54607708Y-82261157D01*
X54626000Y-82353117D01*
X54626000Y-82446883D01*
X54607708Y-82538843D01*
X54586689Y-82589588D01*
X54571826Y-82625470D01*
X54519733Y-82703432D01*
X54453432Y-82769733D01*
X54375470Y-82821826D01*
X54339588Y-82836689D01*
X54288843Y-82857708D01*
X54196883Y-82876000D01*
X54103117Y-82876000D01*
X54011157Y-82857708D01*
X53960412Y-82836689D01*
X53924530Y-82821826D01*
X53846568Y-82769733D01*
X53780267Y-82703432D01*
X53728174Y-82625470D01*
X53713311Y-82589588D01*
X53692292Y-82538843D01*
X53674000Y-82446883D01*
X53674000Y-82353117D01*
X53692292Y-82261157D01*
X53728174Y-82174531D01*
X53728174Y-82174530D01*
X53780267Y-82096568D01*
X53846568Y-82030267D01*
X53924530Y-81978174D01*
X53960412Y-81963311D01*
X54011157Y-81942292D01*
X54103117Y-81924000D01*
X54196883Y-81924000D01*
X54288843Y-81942292D01*
X54288843Y-81942292D01*
G37*
G36*
X68673195Y-67670522D02*
G01*
X68722267Y-67680283D01*
X68860942Y-67737724D01*
X68985747Y-67821116D01*
X69091884Y-67927253D01*
X69175276Y-68052058D01*
X69232717Y-68190733D01*
X69262000Y-68337950D01*
X69262000Y-68488050D01*
X69232717Y-68635267D01*
X69175276Y-68773942D01*
X69091884Y-68898747D01*
X68985747Y-69004884D01*
X68860942Y-69088276D01*
X68722267Y-69145717D01*
X68673195Y-69155478D01*
X68575052Y-69175000D01*
X68424948Y-69175000D01*
X68326805Y-69155478D01*
X68277733Y-69145717D01*
X68139058Y-69088276D01*
X68014253Y-69004884D01*
X67908116Y-68898747D01*
X67824724Y-68773942D01*
X67767283Y-68635267D01*
X67738000Y-68488050D01*
X67738000Y-68337950D01*
X67767283Y-68190733D01*
X67824724Y-68052058D01*
X67908116Y-67927253D01*
X68014253Y-67821116D01*
X68139058Y-67737724D01*
X68277733Y-67680283D01*
X68326805Y-67670522D01*
X68424948Y-67651000D01*
X68575052Y-67651000D01*
X68673195Y-67670522D01*
X68673195Y-67670522D01*
G37*
G36*
X68673195Y-62844522D02*
G01*
X68722267Y-62854283D01*
X68860942Y-62911724D01*
X68985747Y-62995116D01*
X69091884Y-63101253D01*
X69175276Y-63226058D01*
X69232717Y-63364733D01*
X69262000Y-63511950D01*
X69262000Y-63662050D01*
X69232717Y-63809267D01*
X69175276Y-63947942D01*
X69091884Y-64072747D01*
X68985747Y-64178884D01*
X68860942Y-64262276D01*
X68722267Y-64319717D01*
X68673195Y-64329478D01*
X68575052Y-64349000D01*
X68424948Y-64349000D01*
X68326805Y-64329478D01*
X68277733Y-64319717D01*
X68139058Y-64262276D01*
X68014253Y-64178884D01*
X67908116Y-64072747D01*
X67824724Y-63947942D01*
X67767283Y-63809267D01*
X67738000Y-63662050D01*
X67738000Y-63511950D01*
X67767283Y-63364733D01*
X67824724Y-63226058D01*
X67908116Y-63101253D01*
X68014253Y-62995116D01*
X68139058Y-62911724D01*
X68277733Y-62854283D01*
X68326805Y-62844522D01*
X68424948Y-62825000D01*
X68575052Y-62825000D01*
X68673195Y-62844522D01*
X68673195Y-62844522D01*
G37*
G36*
X59518843Y-55732292D02*
G01*
X59569588Y-55753311D01*
X59605470Y-55768174D01*
X59683432Y-55820267D01*
X59749733Y-55886568D01*
X59801826Y-55964530D01*
X59801826Y-55964531D01*
X59837708Y-56051157D01*
X59856000Y-56143117D01*
X59856000Y-56236883D01*
X59837708Y-56328843D01*
X59816689Y-56379588D01*
X59801826Y-56415470D01*
X59749733Y-56493432D01*
X59683432Y-56559733D01*
X59605470Y-56611826D01*
X59569588Y-56626689D01*
X59518843Y-56647708D01*
X59426883Y-56666000D01*
X59333117Y-56666000D01*
X59241157Y-56647708D01*
X59190412Y-56626689D01*
X59154530Y-56611826D01*
X59076568Y-56559733D01*
X59010267Y-56493432D01*
X58958174Y-56415470D01*
X58943311Y-56379588D01*
X58922292Y-56328843D01*
X58904000Y-56236883D01*
X58904000Y-56143117D01*
X58922292Y-56051157D01*
X58958174Y-55964531D01*
X58958174Y-55964530D01*
X59010267Y-55886568D01*
X59076568Y-55820267D01*
X59154530Y-55768174D01*
X59190412Y-55753311D01*
X59241157Y-55732292D01*
X59333117Y-55714000D01*
X59426883Y-55714000D01*
X59518843Y-55732292D01*
X59518843Y-55732292D01*
G37*
G36*
X56106000Y-56666000D02*
G01*
X55154000Y-56666000D01*
X55154000Y-55714000D01*
X56106000Y-55714000D01*
X56106000Y-56666000D01*
X56106000Y-56666000D01*
G37*
G36*
X57018843Y-55732292D02*
G01*
X57069588Y-55753311D01*
X57105470Y-55768174D01*
X57183432Y-55820267D01*
X57249733Y-55886568D01*
X57301826Y-55964530D01*
X57301826Y-55964531D01*
X57337708Y-56051157D01*
X57356000Y-56143117D01*
X57356000Y-56236883D01*
X57337708Y-56328843D01*
X57316689Y-56379588D01*
X57301826Y-56415470D01*
X57249733Y-56493432D01*
X57183432Y-56559733D01*
X57105470Y-56611826D01*
X57069588Y-56626689D01*
X57018843Y-56647708D01*
X56926883Y-56666000D01*
X56833117Y-56666000D01*
X56741157Y-56647708D01*
X56690412Y-56626689D01*
X56654530Y-56611826D01*
X56576568Y-56559733D01*
X56510267Y-56493432D01*
X56458174Y-56415470D01*
X56443311Y-56379588D01*
X56422292Y-56328843D01*
X56404000Y-56236883D01*
X56404000Y-56143117D01*
X56422292Y-56051157D01*
X56458174Y-55964531D01*
X56458174Y-55964530D01*
X56510267Y-55886568D01*
X56576568Y-55820267D01*
X56654530Y-55768174D01*
X56690412Y-55753311D01*
X56741157Y-55732292D01*
X56833117Y-55714000D01*
X56926883Y-55714000D01*
X57018843Y-55732292D01*
X57018843Y-55732292D01*
G37*
G36*
X58268843Y-55732292D02*
G01*
X58319588Y-55753311D01*
X58355470Y-55768174D01*
X58433432Y-55820267D01*
X58499733Y-55886568D01*
X58551826Y-55964530D01*
X58551826Y-55964531D01*
X58587708Y-56051157D01*
X58606000Y-56143117D01*
X58606000Y-56236883D01*
X58587708Y-56328843D01*
X58566689Y-56379588D01*
X58551826Y-56415470D01*
X58499733Y-56493432D01*
X58433432Y-56559733D01*
X58355470Y-56611826D01*
X58319588Y-56626689D01*
X58268843Y-56647708D01*
X58176883Y-56666000D01*
X58083117Y-56666000D01*
X57991157Y-56647708D01*
X57940412Y-56626689D01*
X57904530Y-56611826D01*
X57826568Y-56559733D01*
X57760267Y-56493432D01*
X57708174Y-56415470D01*
X57693311Y-56379588D01*
X57672292Y-56328843D01*
X57654000Y-56236883D01*
X57654000Y-56143117D01*
X57672292Y-56051157D01*
X57708174Y-55964531D01*
X57708174Y-55964530D01*
X57760267Y-55886568D01*
X57826568Y-55820267D01*
X57904530Y-55768174D01*
X57940412Y-55753311D01*
X57991157Y-55732292D01*
X58083117Y-55714000D01*
X58176883Y-55714000D01*
X58268843Y-55732292D01*
X58268843Y-55732292D01*
G37*
G36*
X62018843Y-55732292D02*
G01*
X62069588Y-55753311D01*
X62105470Y-55768174D01*
X62183432Y-55820267D01*
X62249733Y-55886568D01*
X62301826Y-55964530D01*
X62301826Y-55964531D01*
X62337708Y-56051157D01*
X62356000Y-56143117D01*
X62356000Y-56236883D01*
X62337708Y-56328843D01*
X62316689Y-56379588D01*
X62301826Y-56415470D01*
X62249733Y-56493432D01*
X62183432Y-56559733D01*
X62105470Y-56611826D01*
X62069588Y-56626689D01*
X62018843Y-56647708D01*
X61926883Y-56666000D01*
X61833117Y-56666000D01*
X61741157Y-56647708D01*
X61690412Y-56626689D01*
X61654530Y-56611826D01*
X61576568Y-56559733D01*
X61510267Y-56493432D01*
X61458174Y-56415470D01*
X61443311Y-56379588D01*
X61422292Y-56328843D01*
X61404000Y-56236883D01*
X61404000Y-56143117D01*
X61422292Y-56051157D01*
X61458174Y-55964531D01*
X61458174Y-55964530D01*
X61510267Y-55886568D01*
X61576568Y-55820267D01*
X61654530Y-55768174D01*
X61690412Y-55753311D01*
X61741157Y-55732292D01*
X61833117Y-55714000D01*
X61926883Y-55714000D01*
X62018843Y-55732292D01*
X62018843Y-55732292D01*
G37*
G36*
X60768843Y-55732292D02*
G01*
X60819588Y-55753311D01*
X60855470Y-55768174D01*
X60933432Y-55820267D01*
X60999733Y-55886568D01*
X61051826Y-55964530D01*
X61051826Y-55964531D01*
X61087708Y-56051157D01*
X61106000Y-56143117D01*
X61106000Y-56236883D01*
X61087708Y-56328843D01*
X61066689Y-56379588D01*
X61051826Y-56415470D01*
X60999733Y-56493432D01*
X60933432Y-56559733D01*
X60855470Y-56611826D01*
X60819588Y-56626689D01*
X60768843Y-56647708D01*
X60676883Y-56666000D01*
X60583117Y-56666000D01*
X60491157Y-56647708D01*
X60440412Y-56626689D01*
X60404530Y-56611826D01*
X60326568Y-56559733D01*
X60260267Y-56493432D01*
X60208174Y-56415470D01*
X60193311Y-56379588D01*
X60172292Y-56328843D01*
X60154000Y-56236883D01*
X60154000Y-56143117D01*
X60172292Y-56051157D01*
X60208174Y-55964531D01*
X60208174Y-55964530D01*
X60260267Y-55886568D01*
X60326568Y-55820267D01*
X60404530Y-55768174D01*
X60440412Y-55753311D01*
X60491157Y-55732292D01*
X60583117Y-55714000D01*
X60676883Y-55714000D01*
X60768843Y-55732292D01*
X60768843Y-55732292D01*
G37*
G36*
X29031000Y-53371000D02*
G01*
X25929000Y-53371000D01*
X25929000Y-26969000D01*
X29031000Y-26969000D01*
X29031000Y-53371000D01*
X29031000Y-53371000D01*
G37*
G36*
X43171000Y-43126000D02*
G01*
X40669000Y-43126000D01*
X40669000Y-41574000D01*
X43171000Y-41574000D01*
X43171000Y-43126000D01*
X43171000Y-43126000D01*
G37*
G36*
X43171000Y-38726000D02*
G01*
X40669000Y-38726000D01*
X40669000Y-37174000D01*
X43171000Y-37174000D01*
X43171000Y-38726000D01*
X43171000Y-38726000D01*
G37*
G36*
X38244513Y-36114288D02*
G01*
X38459462Y-36203323D01*
X38652905Y-36332577D01*
X38817423Y-36497095D01*
X38946677Y-36690538D01*
X39035712Y-36905487D01*
X39081100Y-37133670D01*
X39081100Y-37366330D01*
X39035712Y-37594513D01*
X38946677Y-37809462D01*
X38817423Y-38002905D01*
X38652905Y-38167423D01*
X38459462Y-38296677D01*
X38244513Y-38385712D01*
X38016330Y-38431100D01*
X37783670Y-38431100D01*
X37555487Y-38385712D01*
X37340538Y-38296677D01*
X37147095Y-38167423D01*
X36982577Y-38002905D01*
X36853323Y-37809462D01*
X36764288Y-37594513D01*
X36718900Y-37366330D01*
X36718900Y-37133670D01*
X36764288Y-36905487D01*
X36853323Y-36690538D01*
X36982577Y-36497095D01*
X37147095Y-36332577D01*
X37340538Y-36203323D01*
X37555487Y-36114288D01*
X37783670Y-36068900D01*
X38016330Y-36068900D01*
X38244513Y-36114288D01*
X38244513Y-36114288D01*
G37*
G36*
X41362199Y-31349954D02*
G01*
X41374450Y-31350556D01*
X41392869Y-31350556D01*
X41415149Y-31352750D01*
X41499233Y-31369476D01*
X41520660Y-31375976D01*
X41599858Y-31408780D01*
X41605303Y-31411691D01*
X41605309Y-31411693D01*
X41614169Y-31416429D01*
X41614173Y-31416432D01*
X41619614Y-31419340D01*
X41690899Y-31466971D01*
X41708204Y-31481172D01*
X41768828Y-31541796D01*
X41783029Y-31559101D01*
X41830660Y-31630386D01*
X41833568Y-31635827D01*
X41833571Y-31635831D01*
X41838307Y-31644691D01*
X41838309Y-31644697D01*
X41841220Y-31650142D01*
X41874024Y-31729340D01*
X41880524Y-31750767D01*
X41897250Y-31834851D01*
X41899444Y-31857131D01*
X41899444Y-31875550D01*
X41900046Y-31887801D01*
X41901852Y-31906139D01*
X41901852Y-32443860D01*
X41900263Y-32459999D01*
X41895855Y-32474528D01*
X41890394Y-32487711D01*
X41885612Y-32511745D01*
X41885611Y-32536249D01*
X41890391Y-32560282D01*
X41899768Y-32582921D01*
X41901000Y-32584765D01*
X41901000Y-33816050D01*
X41894525Y-33828164D01*
X41887412Y-33851613D01*
X41885010Y-33875999D01*
X41887412Y-33900385D01*
X41894525Y-33923834D01*
X41896848Y-33928746D01*
X41900263Y-33940001D01*
X41901852Y-33956140D01*
X41901852Y-34493862D01*
X41900046Y-34512199D01*
X41899444Y-34524450D01*
X41899444Y-34542869D01*
X41897250Y-34565149D01*
X41880524Y-34649233D01*
X41874024Y-34670660D01*
X41841220Y-34749858D01*
X41838309Y-34755303D01*
X41838307Y-34755309D01*
X41833571Y-34764169D01*
X41833568Y-34764173D01*
X41830660Y-34769614D01*
X41783029Y-34840899D01*
X41768828Y-34858204D01*
X41708204Y-34918828D01*
X41690899Y-34933029D01*
X41619614Y-34980660D01*
X41614173Y-34983568D01*
X41614169Y-34983571D01*
X41605309Y-34988307D01*
X41605303Y-34988309D01*
X41599858Y-34991220D01*
X41520660Y-35024024D01*
X41499233Y-35030524D01*
X41415149Y-35047250D01*
X41392869Y-35049444D01*
X41374450Y-35049444D01*
X41362199Y-35050046D01*
X41343862Y-35051852D01*
X40856138Y-35051852D01*
X40837801Y-35050046D01*
X40825550Y-35049444D01*
X40807131Y-35049444D01*
X40784851Y-35047250D01*
X40700767Y-35030524D01*
X40679340Y-35024024D01*
X40600142Y-34991220D01*
X40594697Y-34988309D01*
X40594691Y-34988307D01*
X40585831Y-34983571D01*
X40585827Y-34983568D01*
X40580386Y-34980660D01*
X40509101Y-34933029D01*
X40491796Y-34918828D01*
X40431172Y-34858204D01*
X40416971Y-34840899D01*
X40369340Y-34769614D01*
X40366432Y-34764173D01*
X40366429Y-34764169D01*
X40361693Y-34755309D01*
X40361691Y-34755303D01*
X40358780Y-34749858D01*
X40325976Y-34670660D01*
X40319476Y-34649233D01*
X40302750Y-34565149D01*
X40300556Y-34542869D01*
X40300556Y-34524450D01*
X40299954Y-34512199D01*
X40298148Y-34493862D01*
X40298148Y-33956140D01*
X40299737Y-33940001D01*
X40304145Y-33925472D01*
X40309606Y-33912289D01*
X40314388Y-33888255D01*
X40314389Y-33863751D01*
X40309609Y-33839718D01*
X40300232Y-33817079D01*
X40299000Y-33815235D01*
X40299000Y-32583950D01*
X40305475Y-32571836D01*
X40312588Y-32548387D01*
X40314990Y-32524001D01*
X40312588Y-32499615D01*
X40305475Y-32476166D01*
X40303152Y-32471254D01*
X40299737Y-32459999D01*
X40298148Y-32443860D01*
X40298148Y-31906139D01*
X40299954Y-31887801D01*
X40300556Y-31875550D01*
X40300556Y-31857131D01*
X40302750Y-31834851D01*
X40319476Y-31750767D01*
X40325976Y-31729340D01*
X40358780Y-31650142D01*
X40361691Y-31644697D01*
X40361693Y-31644691D01*
X40366429Y-31635831D01*
X40366432Y-31635827D01*
X40369340Y-31630386D01*
X40416971Y-31559101D01*
X40431172Y-31541796D01*
X40491796Y-31481172D01*
X40509101Y-31466971D01*
X40580386Y-31419340D01*
X40585827Y-31416432D01*
X40585831Y-31416429D01*
X40594691Y-31411693D01*
X40594697Y-31411691D01*
X40600142Y-31408780D01*
X40679340Y-31375976D01*
X40700767Y-31369476D01*
X40784851Y-31352750D01*
X40807131Y-31350556D01*
X40825550Y-31350556D01*
X40837801Y-31349954D01*
X40856139Y-31348148D01*
X41343861Y-31348148D01*
X41362199Y-31349954D01*
X41362199Y-31349954D01*
G37*
G36*
X44662199Y-31349954D02*
G01*
X44674450Y-31350556D01*
X44692869Y-31350556D01*
X44715149Y-31352750D01*
X44799233Y-31369476D01*
X44820660Y-31375976D01*
X44899858Y-31408780D01*
X44905303Y-31411691D01*
X44905309Y-31411693D01*
X44914169Y-31416429D01*
X44914173Y-31416432D01*
X44919614Y-31419340D01*
X44990899Y-31466971D01*
X45008204Y-31481172D01*
X45068828Y-31541796D01*
X45083029Y-31559101D01*
X45130660Y-31630386D01*
X45133568Y-31635827D01*
X45133571Y-31635831D01*
X45138307Y-31644691D01*
X45138309Y-31644697D01*
X45141220Y-31650142D01*
X45174024Y-31729340D01*
X45180524Y-31750767D01*
X45197250Y-31834851D01*
X45199444Y-31857131D01*
X45199444Y-31875550D01*
X45200046Y-31887801D01*
X45201852Y-31906139D01*
X45201852Y-32443860D01*
X45200263Y-32459999D01*
X45195855Y-32474528D01*
X45190394Y-32487711D01*
X45185612Y-32511745D01*
X45185611Y-32536249D01*
X45190391Y-32560282D01*
X45199768Y-32582921D01*
X45201000Y-32584765D01*
X45201000Y-33816050D01*
X45194525Y-33828164D01*
X45187412Y-33851613D01*
X45185010Y-33875999D01*
X45187412Y-33900385D01*
X45194525Y-33923834D01*
X45196848Y-33928746D01*
X45200263Y-33940001D01*
X45201852Y-33956140D01*
X45201852Y-34493862D01*
X45200046Y-34512199D01*
X45199444Y-34524450D01*
X45199444Y-34542869D01*
X45197250Y-34565149D01*
X45180524Y-34649233D01*
X45174024Y-34670660D01*
X45141220Y-34749858D01*
X45138309Y-34755303D01*
X45138307Y-34755309D01*
X45133571Y-34764169D01*
X45133568Y-34764173D01*
X45130660Y-34769614D01*
X45083029Y-34840899D01*
X45068828Y-34858204D01*
X45008204Y-34918828D01*
X44990899Y-34933029D01*
X44919614Y-34980660D01*
X44914173Y-34983568D01*
X44914169Y-34983571D01*
X44905309Y-34988307D01*
X44905303Y-34988309D01*
X44899858Y-34991220D01*
X44820660Y-35024024D01*
X44799233Y-35030524D01*
X44715149Y-35047250D01*
X44692869Y-35049444D01*
X44674450Y-35049444D01*
X44662199Y-35050046D01*
X44643862Y-35051852D01*
X44156138Y-35051852D01*
X44137801Y-35050046D01*
X44125550Y-35049444D01*
X44107131Y-35049444D01*
X44084851Y-35047250D01*
X44000767Y-35030524D01*
X43979340Y-35024024D01*
X43900142Y-34991220D01*
X43894697Y-34988309D01*
X43894691Y-34988307D01*
X43885831Y-34983571D01*
X43885827Y-34983568D01*
X43880386Y-34980660D01*
X43809101Y-34933029D01*
X43791796Y-34918828D01*
X43731172Y-34858204D01*
X43716971Y-34840899D01*
X43669340Y-34769614D01*
X43666432Y-34764173D01*
X43666429Y-34764169D01*
X43661693Y-34755309D01*
X43661691Y-34755303D01*
X43658780Y-34749858D01*
X43625976Y-34670660D01*
X43619476Y-34649233D01*
X43602750Y-34565149D01*
X43600556Y-34542869D01*
X43600556Y-34524450D01*
X43599954Y-34512199D01*
X43598148Y-34493862D01*
X43598148Y-33956140D01*
X43599737Y-33940001D01*
X43604145Y-33925472D01*
X43609606Y-33912289D01*
X43614388Y-33888255D01*
X43614389Y-33863751D01*
X43609609Y-33839718D01*
X43600232Y-33817079D01*
X43599000Y-33815235D01*
X43599000Y-32583950D01*
X43605475Y-32571836D01*
X43612588Y-32548387D01*
X43614990Y-32524001D01*
X43612588Y-32499615D01*
X43605475Y-32476166D01*
X43603152Y-32471254D01*
X43599737Y-32459999D01*
X43598148Y-32443860D01*
X43598148Y-31906139D01*
X43599954Y-31887801D01*
X43600556Y-31875550D01*
X43600556Y-31857131D01*
X43602750Y-31834851D01*
X43619476Y-31750767D01*
X43625976Y-31729340D01*
X43658780Y-31650142D01*
X43661691Y-31644697D01*
X43661693Y-31644691D01*
X43666429Y-31635831D01*
X43666432Y-31635827D01*
X43669340Y-31630386D01*
X43716971Y-31559101D01*
X43731172Y-31541796D01*
X43791796Y-31481172D01*
X43809101Y-31466971D01*
X43880386Y-31419340D01*
X43885827Y-31416432D01*
X43885831Y-31416429D01*
X43894691Y-31411693D01*
X43894697Y-31411691D01*
X43900142Y-31408780D01*
X43979340Y-31375976D01*
X44000767Y-31369476D01*
X44084851Y-31352750D01*
X44107131Y-31350556D01*
X44125550Y-31350556D01*
X44137801Y-31349954D01*
X44156139Y-31348148D01*
X44643861Y-31348148D01*
X44662199Y-31349954D01*
X44662199Y-31349954D01*
G37*
G36*
X47262199Y-31349954D02*
G01*
X47274450Y-31350556D01*
X47292869Y-31350556D01*
X47315149Y-31352750D01*
X47399233Y-31369476D01*
X47420660Y-31375976D01*
X47499858Y-31408780D01*
X47505303Y-31411691D01*
X47505309Y-31411693D01*
X47514169Y-31416429D01*
X47514173Y-31416432D01*
X47519614Y-31419340D01*
X47590899Y-31466971D01*
X47608204Y-31481172D01*
X47668828Y-31541796D01*
X47683029Y-31559101D01*
X47730660Y-31630386D01*
X47733568Y-31635827D01*
X47733571Y-31635831D01*
X47738307Y-31644691D01*
X47738309Y-31644697D01*
X47741220Y-31650142D01*
X47774024Y-31729340D01*
X47780524Y-31750767D01*
X47797250Y-31834851D01*
X47799444Y-31857131D01*
X47799444Y-31875550D01*
X47800046Y-31887801D01*
X47801852Y-31906139D01*
X47801852Y-32443860D01*
X47800263Y-32459999D01*
X47795855Y-32474528D01*
X47790394Y-32487711D01*
X47785612Y-32511745D01*
X47785611Y-32536249D01*
X47790391Y-32560282D01*
X47799768Y-32582921D01*
X47801000Y-32584765D01*
X47801000Y-33816050D01*
X47794525Y-33828164D01*
X47787412Y-33851613D01*
X47785010Y-33875999D01*
X47787412Y-33900385D01*
X47794525Y-33923834D01*
X47796848Y-33928746D01*
X47800263Y-33940001D01*
X47801852Y-33956140D01*
X47801852Y-34493862D01*
X47800046Y-34512199D01*
X47799444Y-34524450D01*
X47799444Y-34542869D01*
X47797250Y-34565149D01*
X47780524Y-34649233D01*
X47774024Y-34670660D01*
X47741220Y-34749858D01*
X47738309Y-34755303D01*
X47738307Y-34755309D01*
X47733571Y-34764169D01*
X47733568Y-34764173D01*
X47730660Y-34769614D01*
X47683029Y-34840899D01*
X47668828Y-34858204D01*
X47608204Y-34918828D01*
X47590899Y-34933029D01*
X47519614Y-34980660D01*
X47514173Y-34983568D01*
X47514169Y-34983571D01*
X47505309Y-34988307D01*
X47505303Y-34988309D01*
X47499858Y-34991220D01*
X47420660Y-35024024D01*
X47399233Y-35030524D01*
X47315149Y-35047250D01*
X47292869Y-35049444D01*
X47274450Y-35049444D01*
X47262199Y-35050046D01*
X47243862Y-35051852D01*
X46756138Y-35051852D01*
X46737801Y-35050046D01*
X46725550Y-35049444D01*
X46707131Y-35049444D01*
X46684851Y-35047250D01*
X46600767Y-35030524D01*
X46579340Y-35024024D01*
X46500142Y-34991220D01*
X46494697Y-34988309D01*
X46494691Y-34988307D01*
X46485831Y-34983571D01*
X46485827Y-34983568D01*
X46480386Y-34980660D01*
X46409101Y-34933029D01*
X46391796Y-34918828D01*
X46331172Y-34858204D01*
X46316971Y-34840899D01*
X46269340Y-34769614D01*
X46266432Y-34764173D01*
X46266429Y-34764169D01*
X46261693Y-34755309D01*
X46261691Y-34755303D01*
X46258780Y-34749858D01*
X46225976Y-34670660D01*
X46219476Y-34649233D01*
X46202750Y-34565149D01*
X46200556Y-34542869D01*
X46200556Y-34524450D01*
X46199954Y-34512199D01*
X46198148Y-34493862D01*
X46198148Y-33956140D01*
X46199737Y-33940001D01*
X46204145Y-33925472D01*
X46209606Y-33912289D01*
X46214388Y-33888255D01*
X46214389Y-33863751D01*
X46209609Y-33839718D01*
X46200232Y-33817079D01*
X46199000Y-33815235D01*
X46199000Y-32583950D01*
X46205475Y-32571836D01*
X46212588Y-32548387D01*
X46214990Y-32524001D01*
X46212588Y-32499615D01*
X46205475Y-32476166D01*
X46203152Y-32471254D01*
X46199737Y-32459999D01*
X46198148Y-32443860D01*
X46198148Y-31906139D01*
X46199954Y-31887801D01*
X46200556Y-31875550D01*
X46200556Y-31857131D01*
X46202750Y-31834851D01*
X46219476Y-31750767D01*
X46225976Y-31729340D01*
X46258780Y-31650142D01*
X46261691Y-31644697D01*
X46261693Y-31644691D01*
X46266429Y-31635831D01*
X46266432Y-31635827D01*
X46269340Y-31630386D01*
X46316971Y-31559101D01*
X46331172Y-31541796D01*
X46391796Y-31481172D01*
X46409101Y-31466971D01*
X46480386Y-31419340D01*
X46485827Y-31416432D01*
X46485831Y-31416429D01*
X46494691Y-31411693D01*
X46494697Y-31411691D01*
X46500142Y-31408780D01*
X46579340Y-31375976D01*
X46600767Y-31369476D01*
X46684851Y-31352750D01*
X46707131Y-31350556D01*
X46725550Y-31350556D01*
X46737801Y-31349954D01*
X46756139Y-31348148D01*
X47243861Y-31348148D01*
X47262199Y-31349954D01*
X47262199Y-31349954D01*
G37*
G36*
X51994513Y-30664288D02*
G01*
X52209462Y-30753323D01*
X52402905Y-30882577D01*
X52567423Y-31047095D01*
X52696677Y-31240538D01*
X52785712Y-31455487D01*
X52831100Y-31683670D01*
X52831100Y-31916330D01*
X52785712Y-32144513D01*
X52696677Y-32359462D01*
X52567423Y-32552905D01*
X52402905Y-32717423D01*
X52209462Y-32846677D01*
X51994513Y-32935712D01*
X51766330Y-32981100D01*
X51533670Y-32981100D01*
X51305487Y-32935712D01*
X51090538Y-32846677D01*
X50897095Y-32717423D01*
X50732577Y-32552905D01*
X50603323Y-32359462D01*
X50514288Y-32144513D01*
X50468900Y-31916330D01*
X50468900Y-31683670D01*
X50514288Y-31455487D01*
X50603323Y-31240538D01*
X50732577Y-31047095D01*
X50897095Y-30882577D01*
X51090538Y-30753323D01*
X51305487Y-30664288D01*
X51533670Y-30618900D01*
X51766330Y-30618900D01*
X51994513Y-30664288D01*
X51994513Y-30664288D01*
G37*
G36*
X71844513Y-30564288D02*
G01*
X72059462Y-30653323D01*
X72252905Y-30782577D01*
X72417423Y-30947095D01*
X72546677Y-31140538D01*
X72635712Y-31355487D01*
X72681100Y-31583670D01*
X72681100Y-31816330D01*
X72635712Y-32044513D01*
X72546677Y-32259462D01*
X72417423Y-32452905D01*
X72252905Y-32617423D01*
X72059462Y-32746677D01*
X71844513Y-32835712D01*
X71616330Y-32881100D01*
X71383670Y-32881100D01*
X71155487Y-32835712D01*
X70940538Y-32746677D01*
X70747095Y-32617423D01*
X70582577Y-32452905D01*
X70453323Y-32259462D01*
X70364288Y-32044513D01*
X70318900Y-31816330D01*
X70318900Y-31583670D01*
X70364288Y-31355487D01*
X70453323Y-31140538D01*
X70582577Y-30947095D01*
X70747095Y-30782577D01*
X70940538Y-30653323D01*
X71155487Y-30564288D01*
X71383670Y-30518900D01*
X71616330Y-30518900D01*
X71844513Y-30564288D01*
X71844513Y-30564288D01*
G37*
G36*
X67994513Y-30464288D02*
G01*
X68209462Y-30553323D01*
X68402905Y-30682577D01*
X68567423Y-30847095D01*
X68696677Y-31040538D01*
X68785712Y-31255487D01*
X68831100Y-31483670D01*
X68831100Y-31716330D01*
X68785712Y-31944513D01*
X68696677Y-32159462D01*
X68567423Y-32352905D01*
X68402905Y-32517423D01*
X68209462Y-32646677D01*
X67994513Y-32735712D01*
X67766330Y-32781100D01*
X67533670Y-32781100D01*
X67305487Y-32735712D01*
X67090538Y-32646677D01*
X66897095Y-32517423D01*
X66732577Y-32352905D01*
X66603323Y-32159462D01*
X66514288Y-31944513D01*
X66468900Y-31716330D01*
X66468900Y-31483670D01*
X66514288Y-31255487D01*
X66603323Y-31040538D01*
X66732577Y-30847095D01*
X66897095Y-30682577D01*
X67090538Y-30553323D01*
X67305487Y-30464288D01*
X67533670Y-30418900D01*
X67766330Y-30418900D01*
X67994513Y-30464288D01*
X67994513Y-30464288D01*
G37*
G36*
X55144513Y-30464288D02*
G01*
X55359462Y-30553323D01*
X55552905Y-30682577D01*
X55717423Y-30847095D01*
X55846677Y-31040538D01*
X55935712Y-31255487D01*
X55981100Y-31483670D01*
X55981100Y-31716330D01*
X55935712Y-31944513D01*
X55846677Y-32159462D01*
X55717423Y-32352905D01*
X55552905Y-32517423D01*
X55359462Y-32646677D01*
X55144513Y-32735712D01*
X54916330Y-32781100D01*
X54683670Y-32781100D01*
X54455487Y-32735712D01*
X54240538Y-32646677D01*
X54047095Y-32517423D01*
X53882577Y-32352905D01*
X53753323Y-32159462D01*
X53664288Y-31944513D01*
X53618900Y-31716330D01*
X53618900Y-31483670D01*
X53664288Y-31255487D01*
X53753323Y-31040538D01*
X53882577Y-30847095D01*
X54047095Y-30682577D01*
X54240538Y-30553323D01*
X54455487Y-30464288D01*
X54683670Y-30418900D01*
X54916330Y-30418900D01*
X55144513Y-30464288D01*
X55144513Y-30464288D01*
G37*
G36*
X61294513Y-30464288D02*
G01*
X61509462Y-30553323D01*
X61702905Y-30682577D01*
X61867423Y-30847095D01*
X61996677Y-31040538D01*
X62085712Y-31255487D01*
X62131100Y-31483670D01*
X62131100Y-31716330D01*
X62085712Y-31944513D01*
X61996677Y-32159462D01*
X61867423Y-32352905D01*
X61702905Y-32517423D01*
X61509462Y-32646677D01*
X61294513Y-32735712D01*
X61066330Y-32781100D01*
X60833670Y-32781100D01*
X60605487Y-32735712D01*
X60390538Y-32646677D01*
X60197095Y-32517423D01*
X60032577Y-32352905D01*
X59903323Y-32159462D01*
X59814288Y-31944513D01*
X59768900Y-31716330D01*
X59768900Y-31483670D01*
X59814288Y-31255487D01*
X59903323Y-31040538D01*
X60032577Y-30847095D01*
X60197095Y-30682577D01*
X60390538Y-30553323D01*
X60605487Y-30464288D01*
X60833670Y-30418900D01*
X61066330Y-30418900D01*
X61294513Y-30464288D01*
X61294513Y-30464288D01*
G37*
G36*
X58144513Y-30464288D02*
G01*
X58359462Y-30553323D01*
X58552905Y-30682577D01*
X58717423Y-30847095D01*
X58846677Y-31040538D01*
X58935712Y-31255487D01*
X58981100Y-31483670D01*
X58981100Y-31716330D01*
X58935712Y-31944513D01*
X58846677Y-32159462D01*
X58717423Y-32352905D01*
X58552905Y-32517423D01*
X58359462Y-32646677D01*
X58144513Y-32735712D01*
X57916330Y-32781100D01*
X57683670Y-32781100D01*
X57455487Y-32735712D01*
X57240538Y-32646677D01*
X57047095Y-32517423D01*
X56882577Y-32352905D01*
X56753323Y-32159462D01*
X56664288Y-31944513D01*
X56618900Y-31716330D01*
X56618900Y-31483670D01*
X56664288Y-31255487D01*
X56753323Y-31040538D01*
X56882577Y-30847095D01*
X57047095Y-30682577D01*
X57240538Y-30553323D01*
X57455487Y-30464288D01*
X57683670Y-30418900D01*
X57916330Y-30418900D01*
X58144513Y-30464288D01*
X58144513Y-30464288D01*
G37*
G36*
X107148903Y-20553213D02*
G01*
X107371177Y-20597426D01*
X107789932Y-20770880D01*
X108166802Y-21022696D01*
X108487304Y-21343198D01*
X108739120Y-21720068D01*
X108912574Y-22138823D01*
X108917048Y-22161314D01*
X109001000Y-22583370D01*
X109001000Y-23036630D01*
X108956787Y-23258903D01*
X108912574Y-23481177D01*
X108739120Y-23899932D01*
X108487304Y-24276802D01*
X108166802Y-24597304D01*
X107789932Y-24849120D01*
X107371177Y-25022574D01*
X107148903Y-25066787D01*
X106926630Y-25111000D01*
X106473370Y-25111000D01*
X106251097Y-25066787D01*
X106028823Y-25022574D01*
X105610068Y-24849120D01*
X105233198Y-24597304D01*
X104912696Y-24276802D01*
X104660880Y-23899932D01*
X104487426Y-23481177D01*
X104443213Y-23258903D01*
X104399000Y-23036630D01*
X104399000Y-22583370D01*
X104482952Y-22161314D01*
X104487426Y-22138823D01*
X104660880Y-21720068D01*
X104912696Y-21343198D01*
X105233198Y-21022696D01*
X105610068Y-20770880D01*
X106028823Y-20597426D01*
X106251097Y-20553213D01*
X106473370Y-20509000D01*
X106926630Y-20509000D01*
X107148903Y-20553213D01*
X107148903Y-20553213D01*
G37*
G36*
X15648903Y-20543213D02*
G01*
X15871177Y-20587426D01*
X16289932Y-20760880D01*
X16666802Y-21012696D01*
X16987304Y-21333198D01*
X17239120Y-21710068D01*
X17412574Y-22128823D01*
X17501000Y-22573371D01*
X17501000Y-23026629D01*
X17412574Y-23471177D01*
X17239120Y-23889932D01*
X16987304Y-24266802D01*
X16666802Y-24587304D01*
X16289932Y-24839120D01*
X15871177Y-25012574D01*
X15648903Y-25056787D01*
X15426630Y-25101000D01*
X14973370Y-25101000D01*
X14751097Y-25056787D01*
X14528823Y-25012574D01*
X14110068Y-24839120D01*
X13733198Y-24587304D01*
X13412696Y-24266802D01*
X13160880Y-23889932D01*
X12987426Y-23471177D01*
X12899000Y-23026629D01*
X12899000Y-22573371D01*
X12987426Y-22128823D01*
X13160880Y-21710068D01*
X13412696Y-21333198D01*
X13733198Y-21012696D01*
X14110068Y-20760880D01*
X14528823Y-20587426D01*
X14751097Y-20543213D01*
X14973370Y-20499000D01*
X15426630Y-20499000D01*
X15648903Y-20543213D01*
X15648903Y-20543213D01*
G37*
G36*
X41066823Y-22161313D02*
G01*
X41227242Y-22209976D01*
X41359906Y-22280886D01*
X41375078Y-22288996D01*
X41504659Y-22395341D01*
X41611004Y-22524922D01*
X41611005Y-22524924D01*
X41690024Y-22672758D01*
X41738687Y-22833177D01*
X41755117Y-23000000D01*
X41738687Y-23166823D01*
X41690024Y-23327242D01*
X41619114Y-23459906D01*
X41611004Y-23475078D01*
X41504659Y-23604659D01*
X41375078Y-23711004D01*
X41375076Y-23711005D01*
X41227242Y-23790024D01*
X41066823Y-23838687D01*
X40941804Y-23851000D01*
X40858196Y-23851000D01*
X40733177Y-23838687D01*
X40572758Y-23790024D01*
X40424924Y-23711005D01*
X40424922Y-23711004D01*
X40295341Y-23604659D01*
X40188996Y-23475078D01*
X40180886Y-23459906D01*
X40109976Y-23327242D01*
X40061313Y-23166823D01*
X40044883Y-23000000D01*
X40061313Y-22833177D01*
X40109976Y-22672758D01*
X40188995Y-22524924D01*
X40188996Y-22524922D01*
X40295341Y-22395341D01*
X40424922Y-22288996D01*
X40440094Y-22280886D01*
X40572758Y-22209976D01*
X40733177Y-22161313D01*
X40858196Y-22149000D01*
X40941804Y-22149000D01*
X41066823Y-22161313D01*
X41066823Y-22161313D01*
G37*
G36*
X48416823Y-22161313D02*
G01*
X48577242Y-22209976D01*
X48709906Y-22280886D01*
X48725078Y-22288996D01*
X48854659Y-22395341D01*
X48961004Y-22524922D01*
X48961005Y-22524924D01*
X49040024Y-22672758D01*
X49088687Y-22833177D01*
X49105117Y-23000000D01*
X49088687Y-23166823D01*
X49040024Y-23327242D01*
X48969114Y-23459906D01*
X48961004Y-23475078D01*
X48854659Y-23604659D01*
X48725078Y-23711004D01*
X48725076Y-23711005D01*
X48577242Y-23790024D01*
X48416823Y-23838687D01*
X48291804Y-23851000D01*
X47708196Y-23851000D01*
X47583177Y-23838687D01*
X47422758Y-23790024D01*
X47274924Y-23711005D01*
X47274922Y-23711004D01*
X47145341Y-23604659D01*
X47038996Y-23475078D01*
X47030886Y-23459906D01*
X46959976Y-23327242D01*
X46911313Y-23166823D01*
X46894883Y-23000000D01*
X46911313Y-22833177D01*
X46959976Y-22672758D01*
X47038995Y-22524924D01*
X47038996Y-22524922D01*
X47145341Y-22395341D01*
X47274922Y-22288996D01*
X47290094Y-22280886D01*
X47422758Y-22209976D01*
X47583177Y-22161313D01*
X47708196Y-22149000D01*
X48291804Y-22149000D01*
X48416823Y-22161313D01*
X48416823Y-22161313D01*
G37*
G36*
X44616823Y-18611313D02*
G01*
X44777242Y-18659976D01*
X44909906Y-18730886D01*
X44925078Y-18738996D01*
X45054659Y-18845341D01*
X45161004Y-18974922D01*
X45161005Y-18974924D01*
X45240024Y-19122758D01*
X45288687Y-19283177D01*
X45305117Y-19450000D01*
X45288687Y-19616823D01*
X45240024Y-19777242D01*
X45169114Y-19909906D01*
X45161004Y-19925078D01*
X45054659Y-20054659D01*
X44925078Y-20161004D01*
X44925076Y-20161005D01*
X44777242Y-20240024D01*
X44616823Y-20288687D01*
X44491804Y-20301000D01*
X44408196Y-20301000D01*
X44283177Y-20288687D01*
X44122758Y-20240024D01*
X43974924Y-20161005D01*
X43974922Y-20161004D01*
X43845341Y-20054659D01*
X43738996Y-19925078D01*
X43730886Y-19909906D01*
X43659976Y-19777242D01*
X43611313Y-19616823D01*
X43594883Y-19450000D01*
X43611313Y-19283177D01*
X43659976Y-19122758D01*
X43738995Y-18974924D01*
X43738996Y-18974922D01*
X43845341Y-18845341D01*
X43974922Y-18738996D01*
X43990094Y-18730886D01*
X44122758Y-18659976D01*
X44283177Y-18611313D01*
X44408196Y-18599000D01*
X44491804Y-18599000D01*
X44616823Y-18611313D01*
X44616823Y-18611313D01*
G37*
G36*
X55944513Y-16864288D02*
G01*
X56159462Y-16953323D01*
X56352905Y-17082577D01*
X56517423Y-17247095D01*
X56646677Y-17440538D01*
X56735712Y-17655487D01*
X56781100Y-17883670D01*
X56781100Y-18116330D01*
X56735712Y-18344513D01*
X56646677Y-18559462D01*
X56517423Y-18752905D01*
X56352905Y-18917423D01*
X56159462Y-19046677D01*
X55944513Y-19135712D01*
X55716330Y-19181100D01*
X55483670Y-19181100D01*
X55255487Y-19135712D01*
X55040538Y-19046677D01*
X54847095Y-18917423D01*
X54682577Y-18752905D01*
X54553323Y-18559462D01*
X54464288Y-18344513D01*
X54418900Y-18116330D01*
X54418900Y-17883670D01*
X54464288Y-17655487D01*
X54553323Y-17440538D01*
X54682577Y-17247095D01*
X54847095Y-17082577D01*
X55040538Y-16953323D01*
X55255487Y-16864288D01*
X55483670Y-16818900D01*
X55716330Y-16818900D01*
X55944513Y-16864288D01*
X55944513Y-16864288D01*
G37*
G36*
X71494513Y-16714288D02*
G01*
X71709462Y-16803323D01*
X71902905Y-16932577D01*
X72067423Y-17097095D01*
X72196677Y-17290538D01*
X72285712Y-17505487D01*
X72331100Y-17733670D01*
X72331100Y-17966330D01*
X72285712Y-18194513D01*
X72196677Y-18409462D01*
X72067423Y-18602905D01*
X71902905Y-18767423D01*
X71709462Y-18896677D01*
X71494513Y-18985712D01*
X71266330Y-19031100D01*
X71033670Y-19031100D01*
X70805487Y-18985712D01*
X70590538Y-18896677D01*
X70397095Y-18767423D01*
X70232577Y-18602905D01*
X70103323Y-18409462D01*
X70014288Y-18194513D01*
X69968900Y-17966330D01*
X69968900Y-17733670D01*
X70014288Y-17505487D01*
X70103323Y-17290538D01*
X70232577Y-17097095D01*
X70397095Y-16932577D01*
X70590538Y-16803323D01*
X70805487Y-16714288D01*
X71033670Y-16668900D01*
X71266330Y-16668900D01*
X71494513Y-16714288D01*
X71494513Y-16714288D01*
G37*
M02*
