G04 #@! TF.GenerationSoftware,KiCad,Pcbnew,(5.1.2)-2*
G04 #@! TF.CreationDate,2022-01-19T20:52:11-03:00*
G04 #@! TF.ProjectId,MAG_Plus,4d41475f-506c-4757-932e-6b696361645f,rev?*
G04 #@! TF.SameCoordinates,Original*
G04 #@! TF.FileFunction,Legend,Top*
G04 #@! TF.FilePolarity,Positive*
%FSLAX46Y46*%
G04 Gerber Fmt 4.6, Leading zero omitted, Abs format (unit mm)*
G04 Created by KiCad (PCBNEW (5.1.2)-2) date 2022-01-19 20:52:11*
%MOMM*%
%LPD*%
G04 APERTURE LIST*
%ADD10C,0.150000*%
G04 APERTURE END LIST*
D10*
X150666666Y-168802380D02*
X150333333Y-168326190D01*
X150095238Y-168802380D02*
X150095238Y-167802380D01*
X150476190Y-167802380D01*
X150571428Y-167850000D01*
X150619047Y-167897619D01*
X150666666Y-167992857D01*
X150666666Y-168135714D01*
X150619047Y-168230952D01*
X150571428Y-168278571D01*
X150476190Y-168326190D01*
X150095238Y-168326190D01*
X151095238Y-168278571D02*
X151428571Y-168278571D01*
X151571428Y-168802380D02*
X151095238Y-168802380D01*
X151095238Y-167802380D01*
X151571428Y-167802380D01*
X152333333Y-168278571D02*
X152000000Y-168278571D01*
X152000000Y-168802380D02*
X152000000Y-167802380D01*
X152476190Y-167802380D01*
X153000000Y-167802380D02*
X153000000Y-168040476D01*
X152761904Y-167945238D02*
X153000000Y-168040476D01*
X153238095Y-167945238D01*
X152857142Y-168230952D02*
X153000000Y-168040476D01*
X153142857Y-168230952D01*
X153761904Y-167802380D02*
X153761904Y-168040476D01*
X153523809Y-167945238D02*
X153761904Y-168040476D01*
X154000000Y-167945238D01*
X153619047Y-168230952D02*
X153761904Y-168040476D01*
X153904761Y-168230952D01*
X240666666Y-168802380D02*
X240333333Y-168326190D01*
X240095238Y-168802380D02*
X240095238Y-167802380D01*
X240476190Y-167802380D01*
X240571428Y-167850000D01*
X240619047Y-167897619D01*
X240666666Y-167992857D01*
X240666666Y-168135714D01*
X240619047Y-168230952D01*
X240571428Y-168278571D01*
X240476190Y-168326190D01*
X240095238Y-168326190D01*
X241095238Y-168278571D02*
X241428571Y-168278571D01*
X241571428Y-168802380D02*
X241095238Y-168802380D01*
X241095238Y-167802380D01*
X241571428Y-167802380D01*
X242333333Y-168278571D02*
X242000000Y-168278571D01*
X242000000Y-168802380D02*
X242000000Y-167802380D01*
X242476190Y-167802380D01*
X243000000Y-167802380D02*
X243000000Y-168040476D01*
X242761904Y-167945238D02*
X243000000Y-168040476D01*
X243238095Y-167945238D01*
X242857142Y-168230952D02*
X243000000Y-168040476D01*
X243142857Y-168230952D01*
X243761904Y-167802380D02*
X243761904Y-168040476D01*
X243523809Y-167945238D02*
X243761904Y-168040476D01*
X244000000Y-167945238D01*
X243619047Y-168230952D02*
X243761904Y-168040476D01*
X243904761Y-168230952D01*
M02*
