G04 #@! TF.GenerationSoftware,KiCad,Pcbnew,(5.1.2)-2*
G04 #@! TF.CreationDate,2022-01-19T20:52:11-03:00*
G04 #@! TF.ProjectId,MAG_Plus,4d41475f-506c-4757-932e-6b696361645f,rev?*
G04 #@! TF.SameCoordinates,Original*
G04 #@! TF.FileFunction,Soldermask,Top*
G04 #@! TF.FilePolarity,Negative*
%FSLAX46Y46*%
G04 Gerber Fmt 4.6, Leading zero omitted, Abs format (unit mm)*
G04 Created by KiCad (PCBNEW (5.1.2)-2) date 2022-01-19 20:52:11*
%MOMM*%
%LPD*%
G04 APERTURE LIST*
%ADD10C,0.100000*%
G04 APERTURE END LIST*
D10*
G36*
X242831606Y-169408562D02*
G01*
X243350455Y-169623476D01*
X243817407Y-169935484D01*
X244214516Y-170332593D01*
X244526524Y-170799545D01*
X244741438Y-171318394D01*
X244851000Y-171869201D01*
X244851000Y-172430799D01*
X244741438Y-172981606D01*
X244526524Y-173500455D01*
X244214516Y-173967407D01*
X243817407Y-174364516D01*
X243350455Y-174676524D01*
X242831606Y-174891438D01*
X242556202Y-174946219D01*
X242280800Y-175001000D01*
X241719200Y-175001000D01*
X241168394Y-174891438D01*
X240649545Y-174676524D01*
X240182593Y-174364516D01*
X239785484Y-173967407D01*
X239473476Y-173500455D01*
X239258562Y-172981606D01*
X239149000Y-172430799D01*
X239149000Y-171869201D01*
X239258562Y-171318394D01*
X239473476Y-170799545D01*
X239785484Y-170332593D01*
X240182593Y-169935484D01*
X240649545Y-169623476D01*
X241168394Y-169408562D01*
X241719200Y-169299000D01*
X242280800Y-169299000D01*
X242831606Y-169408562D01*
X242831606Y-169408562D01*
G37*
G36*
X152831606Y-169408562D02*
G01*
X153350455Y-169623476D01*
X153817407Y-169935484D01*
X154214516Y-170332593D01*
X154526524Y-170799545D01*
X154741438Y-171318394D01*
X154851000Y-171869201D01*
X154851000Y-172430799D01*
X154741438Y-172981606D01*
X154526524Y-173500455D01*
X154214516Y-173967407D01*
X153817407Y-174364516D01*
X153350455Y-174676524D01*
X152831606Y-174891438D01*
X152280800Y-175001000D01*
X151719200Y-175001000D01*
X151168394Y-174891438D01*
X150649545Y-174676524D01*
X150182593Y-174364516D01*
X149785484Y-173967407D01*
X149473476Y-173500455D01*
X149258562Y-172981606D01*
X149149000Y-172430799D01*
X149149000Y-171869201D01*
X149258562Y-171318394D01*
X149473476Y-170799545D01*
X149785484Y-170332593D01*
X150182593Y-169935484D01*
X150649545Y-169623476D01*
X151168394Y-169408562D01*
X151719200Y-169299000D01*
X152280800Y-169299000D01*
X152831606Y-169408562D01*
X152831606Y-169408562D01*
G37*
M02*
