G04 #@! TF.GenerationSoftware,KiCad,Pcbnew,(5.1.2)-2*
G04 #@! TF.CreationDate,2021-11-10T11:22:02-03:00*
G04 #@! TF.ProjectId,MAG_Plus,4d41475f-506c-4757-932e-6b696361645f,rev?*
G04 #@! TF.SameCoordinates,Original*
G04 #@! TF.FileFunction,Soldermask,Top*
G04 #@! TF.FilePolarity,Negative*
%FSLAX46Y46*%
G04 Gerber Fmt 4.6, Leading zero omitted, Abs format (unit mm)*
G04 Created by KiCad (PCBNEW (5.1.2)-2) date 2021-11-10 11:22:02*
%MOMM*%
%LPD*%
G04 APERTURE LIST*
%ADD10C,0.100000*%
G04 APERTURE END LIST*
D10*
G36*
X39648903Y-233573213D02*
G01*
X39871177Y-233617426D01*
X40289932Y-233790880D01*
X40666802Y-234042696D01*
X40987304Y-234363198D01*
X41239120Y-234740068D01*
X41412574Y-235158823D01*
X41501000Y-235603371D01*
X41501000Y-236056629D01*
X41412574Y-236501177D01*
X41239120Y-236919932D01*
X40987304Y-237296802D01*
X40666802Y-237617304D01*
X40289932Y-237869120D01*
X39871177Y-238042574D01*
X39648903Y-238086787D01*
X39426630Y-238131000D01*
X38973370Y-238131000D01*
X38751097Y-238086787D01*
X38528823Y-238042574D01*
X38110068Y-237869120D01*
X37733198Y-237617304D01*
X37412696Y-237296802D01*
X37160880Y-236919932D01*
X36987426Y-236501177D01*
X36899000Y-236056629D01*
X36899000Y-235603371D01*
X36987426Y-235158823D01*
X37160880Y-234740068D01*
X37412696Y-234363198D01*
X37733198Y-234042696D01*
X38110068Y-233790880D01*
X38528823Y-233617426D01*
X38751097Y-233573213D01*
X38973370Y-233529000D01*
X39426630Y-233529000D01*
X39648903Y-233573213D01*
X39648903Y-233573213D01*
G37*
G36*
X115838903Y-233563213D02*
G01*
X116061177Y-233607426D01*
X116479932Y-233780880D01*
X116856802Y-234032696D01*
X117177304Y-234353198D01*
X117429120Y-234730068D01*
X117602574Y-235148823D01*
X117691000Y-235593371D01*
X117691000Y-236046629D01*
X117602574Y-236491177D01*
X117429120Y-236909932D01*
X117177304Y-237286802D01*
X116856802Y-237607304D01*
X116479932Y-237859120D01*
X116061177Y-238032574D01*
X115838903Y-238076787D01*
X115616630Y-238121000D01*
X115163370Y-238121000D01*
X114941097Y-238076787D01*
X114718823Y-238032574D01*
X114300068Y-237859120D01*
X113923198Y-237607304D01*
X113602696Y-237286802D01*
X113350880Y-236909932D01*
X113177426Y-236491177D01*
X113089000Y-236046629D01*
X113089000Y-235593371D01*
X113177426Y-235148823D01*
X113350880Y-234730068D01*
X113602696Y-234353198D01*
X113923198Y-234032696D01*
X114300068Y-233780880D01*
X114718823Y-233607426D01*
X114941097Y-233563213D01*
X115163370Y-233519000D01*
X115616630Y-233519000D01*
X115838903Y-233563213D01*
X115838903Y-233563213D01*
G37*
G36*
X74420442Y-189375518D02*
G01*
X74486627Y-189382037D01*
X74656466Y-189433557D01*
X74812991Y-189517222D01*
X74848729Y-189546552D01*
X74950186Y-189629814D01*
X75033448Y-189731271D01*
X75062778Y-189767009D01*
X75146443Y-189923534D01*
X75197963Y-190093373D01*
X75215359Y-190270000D01*
X75197963Y-190446627D01*
X75146443Y-190616466D01*
X75062778Y-190772991D01*
X75033448Y-190808729D01*
X74950186Y-190910186D01*
X74848729Y-190993448D01*
X74812991Y-191022778D01*
X74656466Y-191106443D01*
X74486627Y-191157963D01*
X74420442Y-191164482D01*
X74354260Y-191171000D01*
X74265740Y-191171000D01*
X74199558Y-191164482D01*
X74133373Y-191157963D01*
X73963534Y-191106443D01*
X73807009Y-191022778D01*
X73771271Y-190993448D01*
X73669814Y-190910186D01*
X73586552Y-190808729D01*
X73557222Y-190772991D01*
X73473557Y-190616466D01*
X73422037Y-190446627D01*
X73404641Y-190270000D01*
X73422037Y-190093373D01*
X73473557Y-189923534D01*
X73557222Y-189767009D01*
X73586552Y-189731271D01*
X73669814Y-189629814D01*
X73771271Y-189546552D01*
X73807009Y-189517222D01*
X73963534Y-189433557D01*
X74133373Y-189382037D01*
X74199558Y-189375518D01*
X74265740Y-189369000D01*
X74354260Y-189369000D01*
X74420442Y-189375518D01*
X74420442Y-189375518D01*
G37*
G36*
X71880442Y-189375518D02*
G01*
X71946627Y-189382037D01*
X72116466Y-189433557D01*
X72272991Y-189517222D01*
X72308729Y-189546552D01*
X72410186Y-189629814D01*
X72493448Y-189731271D01*
X72522778Y-189767009D01*
X72606443Y-189923534D01*
X72657963Y-190093373D01*
X72675359Y-190270000D01*
X72657963Y-190446627D01*
X72606443Y-190616466D01*
X72522778Y-190772991D01*
X72493448Y-190808729D01*
X72410186Y-190910186D01*
X72308729Y-190993448D01*
X72272991Y-191022778D01*
X72116466Y-191106443D01*
X71946627Y-191157963D01*
X71880442Y-191164482D01*
X71814260Y-191171000D01*
X71725740Y-191171000D01*
X71659558Y-191164482D01*
X71593373Y-191157963D01*
X71423534Y-191106443D01*
X71267009Y-191022778D01*
X71231271Y-190993448D01*
X71129814Y-190910186D01*
X71046552Y-190808729D01*
X71017222Y-190772991D01*
X70933557Y-190616466D01*
X70882037Y-190446627D01*
X70864641Y-190270000D01*
X70882037Y-190093373D01*
X70933557Y-189923534D01*
X71017222Y-189767009D01*
X71046552Y-189731271D01*
X71129814Y-189629814D01*
X71231271Y-189546552D01*
X71267009Y-189517222D01*
X71423534Y-189433557D01*
X71593373Y-189382037D01*
X71659558Y-189375518D01*
X71725740Y-189369000D01*
X71814260Y-189369000D01*
X71880442Y-189375518D01*
X71880442Y-189375518D01*
G37*
G36*
X70131000Y-191171000D02*
G01*
X68329000Y-191171000D01*
X68329000Y-189369000D01*
X70131000Y-189369000D01*
X70131000Y-191171000D01*
X70131000Y-191171000D01*
G37*
G36*
X82040442Y-189375518D02*
G01*
X82106627Y-189382037D01*
X82276466Y-189433557D01*
X82432991Y-189517222D01*
X82468729Y-189546552D01*
X82570186Y-189629814D01*
X82653448Y-189731271D01*
X82682778Y-189767009D01*
X82766443Y-189923534D01*
X82817963Y-190093373D01*
X82835359Y-190270000D01*
X82817963Y-190446627D01*
X82766443Y-190616466D01*
X82682778Y-190772991D01*
X82653448Y-190808729D01*
X82570186Y-190910186D01*
X82468729Y-190993448D01*
X82432991Y-191022778D01*
X82276466Y-191106443D01*
X82106627Y-191157963D01*
X82040442Y-191164482D01*
X81974260Y-191171000D01*
X81885740Y-191171000D01*
X81819558Y-191164482D01*
X81753373Y-191157963D01*
X81583534Y-191106443D01*
X81427009Y-191022778D01*
X81391271Y-190993448D01*
X81289814Y-190910186D01*
X81206552Y-190808729D01*
X81177222Y-190772991D01*
X81093557Y-190616466D01*
X81042037Y-190446627D01*
X81024641Y-190270000D01*
X81042037Y-190093373D01*
X81093557Y-189923534D01*
X81177222Y-189767009D01*
X81206552Y-189731271D01*
X81289814Y-189629814D01*
X81391271Y-189546552D01*
X81427009Y-189517222D01*
X81583534Y-189433557D01*
X81753373Y-189382037D01*
X81819558Y-189375518D01*
X81885740Y-189369000D01*
X81974260Y-189369000D01*
X82040442Y-189375518D01*
X82040442Y-189375518D01*
G37*
G36*
X79500442Y-189375518D02*
G01*
X79566627Y-189382037D01*
X79736466Y-189433557D01*
X79892991Y-189517222D01*
X79928729Y-189546552D01*
X80030186Y-189629814D01*
X80113448Y-189731271D01*
X80142778Y-189767009D01*
X80226443Y-189923534D01*
X80277963Y-190093373D01*
X80295359Y-190270000D01*
X80277963Y-190446627D01*
X80226443Y-190616466D01*
X80142778Y-190772991D01*
X80113448Y-190808729D01*
X80030186Y-190910186D01*
X79928729Y-190993448D01*
X79892991Y-191022778D01*
X79736466Y-191106443D01*
X79566627Y-191157963D01*
X79500442Y-191164482D01*
X79434260Y-191171000D01*
X79345740Y-191171000D01*
X79279558Y-191164482D01*
X79213373Y-191157963D01*
X79043534Y-191106443D01*
X78887009Y-191022778D01*
X78851271Y-190993448D01*
X78749814Y-190910186D01*
X78666552Y-190808729D01*
X78637222Y-190772991D01*
X78553557Y-190616466D01*
X78502037Y-190446627D01*
X78484641Y-190270000D01*
X78502037Y-190093373D01*
X78553557Y-189923534D01*
X78637222Y-189767009D01*
X78666552Y-189731271D01*
X78749814Y-189629814D01*
X78851271Y-189546552D01*
X78887009Y-189517222D01*
X79043534Y-189433557D01*
X79213373Y-189382037D01*
X79279558Y-189375518D01*
X79345740Y-189369000D01*
X79434260Y-189369000D01*
X79500442Y-189375518D01*
X79500442Y-189375518D01*
G37*
G36*
X76960442Y-189375518D02*
G01*
X77026627Y-189382037D01*
X77196466Y-189433557D01*
X77352991Y-189517222D01*
X77388729Y-189546552D01*
X77490186Y-189629814D01*
X77573448Y-189731271D01*
X77602778Y-189767009D01*
X77686443Y-189923534D01*
X77737963Y-190093373D01*
X77755359Y-190270000D01*
X77737963Y-190446627D01*
X77686443Y-190616466D01*
X77602778Y-190772991D01*
X77573448Y-190808729D01*
X77490186Y-190910186D01*
X77388729Y-190993448D01*
X77352991Y-191022778D01*
X77196466Y-191106443D01*
X77026627Y-191157963D01*
X76960442Y-191164482D01*
X76894260Y-191171000D01*
X76805740Y-191171000D01*
X76739558Y-191164482D01*
X76673373Y-191157963D01*
X76503534Y-191106443D01*
X76347009Y-191022778D01*
X76311271Y-190993448D01*
X76209814Y-190910186D01*
X76126552Y-190808729D01*
X76097222Y-190772991D01*
X76013557Y-190616466D01*
X75962037Y-190446627D01*
X75944641Y-190270000D01*
X75962037Y-190093373D01*
X76013557Y-189923534D01*
X76097222Y-189767009D01*
X76126552Y-189731271D01*
X76209814Y-189629814D01*
X76311271Y-189546552D01*
X76347009Y-189517222D01*
X76503534Y-189433557D01*
X76673373Y-189382037D01*
X76739558Y-189375518D01*
X76805740Y-189369000D01*
X76894260Y-189369000D01*
X76960442Y-189375518D01*
X76960442Y-189375518D01*
G37*
G36*
X59830443Y-172025519D02*
G01*
X59896627Y-172032037D01*
X60066466Y-172083557D01*
X60066468Y-172083558D01*
X60144729Y-172125390D01*
X60222991Y-172167222D01*
X60258729Y-172196552D01*
X60360186Y-172279814D01*
X60443448Y-172381271D01*
X60472778Y-172417009D01*
X60556443Y-172573534D01*
X60607963Y-172743373D01*
X60625359Y-172920000D01*
X60607963Y-173096627D01*
X60556443Y-173266466D01*
X60472778Y-173422991D01*
X60443448Y-173458729D01*
X60360186Y-173560186D01*
X60258729Y-173643448D01*
X60222991Y-173672778D01*
X60066466Y-173756443D01*
X59896627Y-173807963D01*
X59830443Y-173814481D01*
X59764260Y-173821000D01*
X59675740Y-173821000D01*
X59609557Y-173814481D01*
X59543373Y-173807963D01*
X59373534Y-173756443D01*
X59217009Y-173672778D01*
X59181271Y-173643448D01*
X59079814Y-173560186D01*
X58996552Y-173458729D01*
X58967222Y-173422991D01*
X58883557Y-173266466D01*
X58832037Y-173096627D01*
X58814641Y-172920000D01*
X58832037Y-172743373D01*
X58883557Y-172573534D01*
X58967222Y-172417009D01*
X58996552Y-172381271D01*
X59079814Y-172279814D01*
X59181271Y-172196552D01*
X59217009Y-172167222D01*
X59295271Y-172125390D01*
X59373532Y-172083558D01*
X59373534Y-172083557D01*
X59543373Y-172032037D01*
X59609557Y-172025519D01*
X59675740Y-172019000D01*
X59764260Y-172019000D01*
X59830443Y-172025519D01*
X59830443Y-172025519D01*
G37*
G36*
X110961000Y-173811000D02*
G01*
X109159000Y-173811000D01*
X109159000Y-172009000D01*
X110961000Y-172009000D01*
X110961000Y-173811000D01*
X110961000Y-173811000D01*
G37*
G36*
X46341000Y-170217265D02*
G01*
X46343402Y-170241651D01*
X46350515Y-170265100D01*
X46362066Y-170286711D01*
X46377611Y-170305653D01*
X46396553Y-170321198D01*
X46418164Y-170332749D01*
X46441613Y-170339862D01*
X46465999Y-170342264D01*
X46490385Y-170339862D01*
X46513834Y-170332749D01*
X46535445Y-170321198D01*
X46554387Y-170305653D01*
X46569932Y-170286711D01*
X46576233Y-170276198D01*
X46599644Y-170232400D01*
X46668499Y-170148499D01*
X46752400Y-170079643D01*
X46838668Y-170033532D01*
X46848121Y-170028479D01*
X46951985Y-169996973D01*
X47032933Y-169989000D01*
X47087067Y-169989000D01*
X47168015Y-169996973D01*
X47271879Y-170028479D01*
X47281332Y-170033532D01*
X47367600Y-170079643D01*
X47451501Y-170148499D01*
X47520357Y-170232400D01*
X47556995Y-170300945D01*
X47571521Y-170328121D01*
X47575388Y-170340869D01*
X47584760Y-170363496D01*
X47598374Y-170383870D01*
X47615701Y-170401197D01*
X47636075Y-170414811D01*
X47658714Y-170424188D01*
X47682747Y-170428969D01*
X47707251Y-170428969D01*
X47731285Y-170424189D01*
X47753924Y-170414812D01*
X47774298Y-170401198D01*
X47791625Y-170383871D01*
X47805239Y-170363497D01*
X47814612Y-170340869D01*
X47818479Y-170328121D01*
X47833005Y-170300945D01*
X47869643Y-170232400D01*
X47938499Y-170148499D01*
X48022400Y-170079643D01*
X48108668Y-170033532D01*
X48118121Y-170028479D01*
X48221985Y-169996973D01*
X48302933Y-169989000D01*
X48357067Y-169989000D01*
X48438015Y-169996973D01*
X48541879Y-170028479D01*
X48551332Y-170033532D01*
X48637600Y-170079643D01*
X48721501Y-170148499D01*
X48790357Y-170232400D01*
X48826995Y-170300945D01*
X48841521Y-170328121D01*
X48845388Y-170340869D01*
X48854760Y-170363496D01*
X48868374Y-170383870D01*
X48885701Y-170401197D01*
X48906075Y-170414811D01*
X48928714Y-170424188D01*
X48952747Y-170428969D01*
X48977251Y-170428969D01*
X49001285Y-170424189D01*
X49023924Y-170414812D01*
X49044298Y-170401198D01*
X49061625Y-170383871D01*
X49075239Y-170363497D01*
X49084612Y-170340869D01*
X49088479Y-170328121D01*
X49103005Y-170300945D01*
X49139643Y-170232400D01*
X49208499Y-170148499D01*
X49292400Y-170079643D01*
X49378668Y-170033532D01*
X49388121Y-170028479D01*
X49491985Y-169996973D01*
X49572933Y-169989000D01*
X49627067Y-169989000D01*
X49708015Y-169996973D01*
X49811879Y-170028479D01*
X49821332Y-170033532D01*
X49907600Y-170079643D01*
X49991501Y-170148499D01*
X50060357Y-170232400D01*
X50096995Y-170300945D01*
X50111521Y-170328121D01*
X50115388Y-170340869D01*
X50124760Y-170363496D01*
X50138374Y-170383870D01*
X50155701Y-170401197D01*
X50176075Y-170414811D01*
X50198714Y-170424188D01*
X50222747Y-170428969D01*
X50247251Y-170428969D01*
X50271285Y-170424189D01*
X50293924Y-170414812D01*
X50314298Y-170401198D01*
X50331625Y-170383871D01*
X50345239Y-170363497D01*
X50354612Y-170340869D01*
X50358479Y-170328121D01*
X50373005Y-170300945D01*
X50409643Y-170232400D01*
X50478499Y-170148499D01*
X50562400Y-170079643D01*
X50648668Y-170033532D01*
X50658121Y-170028479D01*
X50761985Y-169996973D01*
X50842933Y-169989000D01*
X50897067Y-169989000D01*
X50978015Y-169996973D01*
X51081879Y-170028479D01*
X51091332Y-170033532D01*
X51177600Y-170079643D01*
X51261501Y-170148499D01*
X51330357Y-170232400D01*
X51366995Y-170300945D01*
X51381521Y-170328121D01*
X51413027Y-170431985D01*
X51423666Y-170540000D01*
X51413027Y-170648015D01*
X51381521Y-170751879D01*
X51381191Y-170752496D01*
X51330357Y-170847600D01*
X51261501Y-170931501D01*
X51177600Y-171000357D01*
X51109055Y-171036995D01*
X51081879Y-171051521D01*
X51069131Y-171055388D01*
X51046504Y-171064760D01*
X51026130Y-171078374D01*
X51008803Y-171095701D01*
X50995189Y-171116075D01*
X50985812Y-171138714D01*
X50981031Y-171162747D01*
X50981031Y-171187251D01*
X50985811Y-171211285D01*
X50995188Y-171233924D01*
X51008802Y-171254298D01*
X51026129Y-171271625D01*
X51046503Y-171285239D01*
X51069131Y-171294612D01*
X51081879Y-171298479D01*
X51108344Y-171312625D01*
X51177600Y-171349643D01*
X51261501Y-171418499D01*
X51330357Y-171502400D01*
X51366995Y-171570945D01*
X51381521Y-171598121D01*
X51413027Y-171701985D01*
X51423666Y-171810000D01*
X51413027Y-171918015D01*
X51381521Y-172021879D01*
X51381519Y-172021882D01*
X51330357Y-172117600D01*
X51261501Y-172201501D01*
X51177600Y-172270357D01*
X51109055Y-172306995D01*
X51081879Y-172321521D01*
X50978015Y-172353027D01*
X50897067Y-172361000D01*
X50842933Y-172361000D01*
X50761985Y-172353027D01*
X50658121Y-172321521D01*
X50630945Y-172306995D01*
X50562400Y-172270357D01*
X50478499Y-172201501D01*
X50409643Y-172117600D01*
X50358481Y-172021882D01*
X50358479Y-172021879D01*
X50354612Y-172009131D01*
X50345240Y-171986504D01*
X50331626Y-171966130D01*
X50314299Y-171948803D01*
X50293925Y-171935189D01*
X50271286Y-171925812D01*
X50247253Y-171921031D01*
X50222749Y-171921031D01*
X50198715Y-171925811D01*
X50176076Y-171935188D01*
X50155702Y-171948802D01*
X50138375Y-171966129D01*
X50124761Y-171986503D01*
X50115388Y-172009131D01*
X50111521Y-172021879D01*
X50111519Y-172021882D01*
X50060357Y-172117600D01*
X49991501Y-172201501D01*
X49907600Y-172270357D01*
X49839055Y-172306995D01*
X49811879Y-172321521D01*
X49708015Y-172353027D01*
X49627067Y-172361000D01*
X49572933Y-172361000D01*
X49491985Y-172353027D01*
X49388121Y-172321521D01*
X49360945Y-172306995D01*
X49292400Y-172270357D01*
X49208499Y-172201501D01*
X49139643Y-172117600D01*
X49088481Y-172021882D01*
X49088479Y-172021879D01*
X49084612Y-172009131D01*
X49075240Y-171986504D01*
X49061626Y-171966130D01*
X49044299Y-171948803D01*
X49023925Y-171935189D01*
X49001286Y-171925812D01*
X48977253Y-171921031D01*
X48952749Y-171921031D01*
X48928715Y-171925811D01*
X48906076Y-171935188D01*
X48885702Y-171948802D01*
X48868375Y-171966129D01*
X48854761Y-171986503D01*
X48845388Y-172009131D01*
X48841521Y-172021879D01*
X48841519Y-172021882D01*
X48790357Y-172117600D01*
X48721501Y-172201501D01*
X48637600Y-172270357D01*
X48569055Y-172306995D01*
X48541879Y-172321521D01*
X48438015Y-172353027D01*
X48357067Y-172361000D01*
X48302933Y-172361000D01*
X48221985Y-172353027D01*
X48118121Y-172321521D01*
X48090945Y-172306995D01*
X48022400Y-172270357D01*
X47938499Y-172201501D01*
X47869643Y-172117600D01*
X47818481Y-172021882D01*
X47818479Y-172021879D01*
X47814612Y-172009131D01*
X47805240Y-171986504D01*
X47791626Y-171966130D01*
X47774299Y-171948803D01*
X47753925Y-171935189D01*
X47731286Y-171925812D01*
X47707253Y-171921031D01*
X47682749Y-171921031D01*
X47658715Y-171925811D01*
X47636076Y-171935188D01*
X47615702Y-171948802D01*
X47598375Y-171966129D01*
X47584761Y-171986503D01*
X47575388Y-172009131D01*
X47571521Y-172021879D01*
X47571519Y-172021882D01*
X47520357Y-172117600D01*
X47451501Y-172201501D01*
X47367600Y-172270357D01*
X47299055Y-172306995D01*
X47271879Y-172321521D01*
X47168015Y-172353027D01*
X47087067Y-172361000D01*
X47032933Y-172361000D01*
X46951985Y-172353027D01*
X46848121Y-172321521D01*
X46820945Y-172306995D01*
X46752400Y-172270357D01*
X46668499Y-172201501D01*
X46599643Y-172117600D01*
X46548481Y-172021882D01*
X46548479Y-172021879D01*
X46544612Y-172009131D01*
X46535240Y-171986504D01*
X46521626Y-171966130D01*
X46504299Y-171948803D01*
X46483925Y-171935189D01*
X46461286Y-171925812D01*
X46437253Y-171921031D01*
X46412749Y-171921031D01*
X46388715Y-171925811D01*
X46366076Y-171935188D01*
X46345702Y-171948802D01*
X46328375Y-171966129D01*
X46314761Y-171986503D01*
X46305388Y-172009131D01*
X46301521Y-172021879D01*
X46301519Y-172021882D01*
X46250357Y-172117600D01*
X46181501Y-172201501D01*
X46097600Y-172270357D01*
X46029055Y-172306995D01*
X46001879Y-172321521D01*
X45898015Y-172353027D01*
X45817067Y-172361000D01*
X45762933Y-172361000D01*
X45681985Y-172353027D01*
X45578121Y-172321521D01*
X45550945Y-172306995D01*
X45482400Y-172270357D01*
X45398499Y-172201501D01*
X45329643Y-172117600D01*
X45278481Y-172021882D01*
X45278479Y-172021879D01*
X45246973Y-171918015D01*
X45236334Y-171810000D01*
X45246973Y-171701985D01*
X45278479Y-171598121D01*
X45293005Y-171570945D01*
X45329643Y-171502400D01*
X45398499Y-171418499D01*
X45482399Y-171349645D01*
X45482398Y-171349645D01*
X45482400Y-171349644D01*
X45526193Y-171326236D01*
X45546563Y-171312625D01*
X45563890Y-171295298D01*
X45577504Y-171274924D01*
X45586881Y-171252285D01*
X45591662Y-171228252D01*
X45591662Y-171215999D01*
X45987736Y-171215999D01*
X45990138Y-171240385D01*
X45997251Y-171263834D01*
X46008802Y-171285445D01*
X46024347Y-171304387D01*
X46043289Y-171319932D01*
X46053802Y-171326233D01*
X46097600Y-171349644D01*
X46097602Y-171349645D01*
X46097601Y-171349645D01*
X46181501Y-171418499D01*
X46250357Y-171502400D01*
X46286995Y-171570945D01*
X46301521Y-171598121D01*
X46305388Y-171610869D01*
X46314760Y-171633496D01*
X46328374Y-171653870D01*
X46345701Y-171671197D01*
X46366075Y-171684811D01*
X46388714Y-171694188D01*
X46412747Y-171698969D01*
X46437251Y-171698969D01*
X46461285Y-171694189D01*
X46483924Y-171684812D01*
X46504298Y-171671198D01*
X46521625Y-171653871D01*
X46535239Y-171633497D01*
X46544612Y-171610869D01*
X46548479Y-171598121D01*
X46563005Y-171570945D01*
X46599643Y-171502400D01*
X46668499Y-171418499D01*
X46752400Y-171349643D01*
X46821656Y-171312625D01*
X46848121Y-171298479D01*
X46860869Y-171294612D01*
X46883496Y-171285240D01*
X46903870Y-171271626D01*
X46921197Y-171254299D01*
X46934811Y-171233925D01*
X46944188Y-171211286D01*
X46948969Y-171187253D01*
X46948969Y-171162749D01*
X46948969Y-171162747D01*
X47171031Y-171162747D01*
X47171031Y-171187251D01*
X47175811Y-171211285D01*
X47185188Y-171233924D01*
X47198802Y-171254298D01*
X47216129Y-171271625D01*
X47236503Y-171285239D01*
X47259131Y-171294612D01*
X47271879Y-171298479D01*
X47298344Y-171312625D01*
X47367600Y-171349643D01*
X47451501Y-171418499D01*
X47520357Y-171502400D01*
X47556995Y-171570945D01*
X47571521Y-171598121D01*
X47575388Y-171610869D01*
X47584760Y-171633496D01*
X47598374Y-171653870D01*
X47615701Y-171671197D01*
X47636075Y-171684811D01*
X47658714Y-171694188D01*
X47682747Y-171698969D01*
X47707251Y-171698969D01*
X47731285Y-171694189D01*
X47753924Y-171684812D01*
X47774298Y-171671198D01*
X47791625Y-171653871D01*
X47805239Y-171633497D01*
X47814612Y-171610869D01*
X47818479Y-171598121D01*
X47833005Y-171570945D01*
X47869643Y-171502400D01*
X47938499Y-171418499D01*
X48022400Y-171349643D01*
X48091656Y-171312625D01*
X48118121Y-171298479D01*
X48130869Y-171294612D01*
X48153496Y-171285240D01*
X48173870Y-171271626D01*
X48191197Y-171254299D01*
X48204811Y-171233925D01*
X48214188Y-171211286D01*
X48218969Y-171187253D01*
X48218969Y-171162749D01*
X48218969Y-171162747D01*
X48441031Y-171162747D01*
X48441031Y-171187251D01*
X48445811Y-171211285D01*
X48455188Y-171233924D01*
X48468802Y-171254298D01*
X48486129Y-171271625D01*
X48506503Y-171285239D01*
X48529131Y-171294612D01*
X48541879Y-171298479D01*
X48568344Y-171312625D01*
X48637600Y-171349643D01*
X48721501Y-171418499D01*
X48790357Y-171502400D01*
X48826995Y-171570945D01*
X48841521Y-171598121D01*
X48845388Y-171610869D01*
X48854760Y-171633496D01*
X48868374Y-171653870D01*
X48885701Y-171671197D01*
X48906075Y-171684811D01*
X48928714Y-171694188D01*
X48952747Y-171698969D01*
X48977251Y-171698969D01*
X49001285Y-171694189D01*
X49023924Y-171684812D01*
X49044298Y-171671198D01*
X49061625Y-171653871D01*
X49075239Y-171633497D01*
X49084612Y-171610869D01*
X49088479Y-171598121D01*
X49103005Y-171570945D01*
X49139643Y-171502400D01*
X49208499Y-171418499D01*
X49292400Y-171349643D01*
X49361656Y-171312625D01*
X49388121Y-171298479D01*
X49400869Y-171294612D01*
X49423496Y-171285240D01*
X49443870Y-171271626D01*
X49461197Y-171254299D01*
X49474811Y-171233925D01*
X49484188Y-171211286D01*
X49488969Y-171187253D01*
X49488969Y-171162749D01*
X49488969Y-171162747D01*
X49711031Y-171162747D01*
X49711031Y-171187251D01*
X49715811Y-171211285D01*
X49725188Y-171233924D01*
X49738802Y-171254298D01*
X49756129Y-171271625D01*
X49776503Y-171285239D01*
X49799131Y-171294612D01*
X49811879Y-171298479D01*
X49838344Y-171312625D01*
X49907600Y-171349643D01*
X49991501Y-171418499D01*
X50060357Y-171502400D01*
X50096995Y-171570945D01*
X50111521Y-171598121D01*
X50115388Y-171610869D01*
X50124760Y-171633496D01*
X50138374Y-171653870D01*
X50155701Y-171671197D01*
X50176075Y-171684811D01*
X50198714Y-171694188D01*
X50222747Y-171698969D01*
X50247251Y-171698969D01*
X50271285Y-171694189D01*
X50293924Y-171684812D01*
X50314298Y-171671198D01*
X50331625Y-171653871D01*
X50345239Y-171633497D01*
X50354612Y-171610869D01*
X50358479Y-171598121D01*
X50373005Y-171570945D01*
X50409643Y-171502400D01*
X50478499Y-171418499D01*
X50562400Y-171349643D01*
X50631656Y-171312625D01*
X50658121Y-171298479D01*
X50670869Y-171294612D01*
X50693496Y-171285240D01*
X50713870Y-171271626D01*
X50731197Y-171254299D01*
X50744811Y-171233925D01*
X50754188Y-171211286D01*
X50758969Y-171187253D01*
X50758969Y-171162749D01*
X50754189Y-171138715D01*
X50744812Y-171116076D01*
X50731198Y-171095702D01*
X50713871Y-171078375D01*
X50693497Y-171064761D01*
X50670869Y-171055388D01*
X50658121Y-171051521D01*
X50630945Y-171036995D01*
X50562400Y-171000357D01*
X50478499Y-170931501D01*
X50409643Y-170847600D01*
X50358809Y-170752496D01*
X50358479Y-170751879D01*
X50354612Y-170739131D01*
X50345240Y-170716504D01*
X50331626Y-170696130D01*
X50314299Y-170678803D01*
X50293925Y-170665189D01*
X50271286Y-170655812D01*
X50247253Y-170651031D01*
X50222749Y-170651031D01*
X50198715Y-170655811D01*
X50176076Y-170665188D01*
X50155702Y-170678802D01*
X50138375Y-170696129D01*
X50124761Y-170716503D01*
X50115388Y-170739131D01*
X50111521Y-170751879D01*
X50111191Y-170752496D01*
X50060357Y-170847600D01*
X49991501Y-170931501D01*
X49907600Y-171000357D01*
X49839055Y-171036995D01*
X49811879Y-171051521D01*
X49799131Y-171055388D01*
X49776504Y-171064760D01*
X49756130Y-171078374D01*
X49738803Y-171095701D01*
X49725189Y-171116075D01*
X49715812Y-171138714D01*
X49711031Y-171162747D01*
X49488969Y-171162747D01*
X49484189Y-171138715D01*
X49474812Y-171116076D01*
X49461198Y-171095702D01*
X49443871Y-171078375D01*
X49423497Y-171064761D01*
X49400869Y-171055388D01*
X49388121Y-171051521D01*
X49360945Y-171036995D01*
X49292400Y-171000357D01*
X49208499Y-170931501D01*
X49139643Y-170847600D01*
X49088809Y-170752496D01*
X49088479Y-170751879D01*
X49084612Y-170739131D01*
X49075240Y-170716504D01*
X49061626Y-170696130D01*
X49044299Y-170678803D01*
X49023925Y-170665189D01*
X49001286Y-170655812D01*
X48977253Y-170651031D01*
X48952749Y-170651031D01*
X48928715Y-170655811D01*
X48906076Y-170665188D01*
X48885702Y-170678802D01*
X48868375Y-170696129D01*
X48854761Y-170716503D01*
X48845388Y-170739131D01*
X48841521Y-170751879D01*
X48841191Y-170752496D01*
X48790357Y-170847600D01*
X48721501Y-170931501D01*
X48637600Y-171000357D01*
X48569055Y-171036995D01*
X48541879Y-171051521D01*
X48529131Y-171055388D01*
X48506504Y-171064760D01*
X48486130Y-171078374D01*
X48468803Y-171095701D01*
X48455189Y-171116075D01*
X48445812Y-171138714D01*
X48441031Y-171162747D01*
X48218969Y-171162747D01*
X48214189Y-171138715D01*
X48204812Y-171116076D01*
X48191198Y-171095702D01*
X48173871Y-171078375D01*
X48153497Y-171064761D01*
X48130869Y-171055388D01*
X48118121Y-171051521D01*
X48090945Y-171036995D01*
X48022400Y-171000357D01*
X47938499Y-170931501D01*
X47869643Y-170847600D01*
X47818809Y-170752496D01*
X47818479Y-170751879D01*
X47814612Y-170739131D01*
X47805240Y-170716504D01*
X47791626Y-170696130D01*
X47774299Y-170678803D01*
X47753925Y-170665189D01*
X47731286Y-170655812D01*
X47707253Y-170651031D01*
X47682749Y-170651031D01*
X47658715Y-170655811D01*
X47636076Y-170665188D01*
X47615702Y-170678802D01*
X47598375Y-170696129D01*
X47584761Y-170716503D01*
X47575388Y-170739131D01*
X47571521Y-170751879D01*
X47571191Y-170752496D01*
X47520357Y-170847600D01*
X47451501Y-170931501D01*
X47367600Y-171000357D01*
X47299055Y-171036995D01*
X47271879Y-171051521D01*
X47259131Y-171055388D01*
X47236504Y-171064760D01*
X47216130Y-171078374D01*
X47198803Y-171095701D01*
X47185189Y-171116075D01*
X47175812Y-171138714D01*
X47171031Y-171162747D01*
X46948969Y-171162747D01*
X46944189Y-171138715D01*
X46934812Y-171116076D01*
X46921198Y-171095702D01*
X46903871Y-171078375D01*
X46883497Y-171064761D01*
X46860869Y-171055388D01*
X46848121Y-171051521D01*
X46820945Y-171036995D01*
X46752400Y-171000357D01*
X46668499Y-170931501D01*
X46599645Y-170847601D01*
X46599644Y-170847600D01*
X46576236Y-170803807D01*
X46562625Y-170783437D01*
X46545298Y-170766110D01*
X46524924Y-170752496D01*
X46502285Y-170743119D01*
X46478252Y-170738338D01*
X46453748Y-170738338D01*
X46429714Y-170743118D01*
X46407076Y-170752495D01*
X46386701Y-170766109D01*
X46369374Y-170783436D01*
X46355760Y-170803810D01*
X46346383Y-170826449D01*
X46341602Y-170850482D01*
X46341000Y-170862735D01*
X46341000Y-171091000D01*
X46112735Y-171091000D01*
X46088349Y-171093402D01*
X46064900Y-171100515D01*
X46043289Y-171112066D01*
X46024347Y-171127611D01*
X46008802Y-171146553D01*
X45997251Y-171168164D01*
X45990138Y-171191613D01*
X45987736Y-171215999D01*
X45591662Y-171215999D01*
X45591662Y-171203748D01*
X45586882Y-171179714D01*
X45577505Y-171157076D01*
X45563891Y-171136701D01*
X45546564Y-171119374D01*
X45526190Y-171105760D01*
X45503551Y-171096383D01*
X45479518Y-171091602D01*
X45467265Y-171091000D01*
X45239000Y-171091000D01*
X45239000Y-169989000D01*
X46341000Y-169989000D01*
X46341000Y-170217265D01*
X46341000Y-170217265D01*
G37*
G36*
X59830442Y-169485518D02*
G01*
X59896627Y-169492037D01*
X60066466Y-169543557D01*
X60222991Y-169627222D01*
X60258729Y-169656552D01*
X60360186Y-169739814D01*
X60443448Y-169841271D01*
X60472778Y-169877009D01*
X60556443Y-170033534D01*
X60607963Y-170203373D01*
X60625359Y-170380000D01*
X60607963Y-170556627D01*
X60556443Y-170726466D01*
X60472778Y-170882991D01*
X60443448Y-170918729D01*
X60360186Y-171020186D01*
X60268169Y-171095701D01*
X60222991Y-171132778D01*
X60211884Y-171138715D01*
X60085177Y-171206442D01*
X60066466Y-171216443D01*
X59896627Y-171267963D01*
X59830443Y-171274481D01*
X59764260Y-171281000D01*
X59675740Y-171281000D01*
X59609557Y-171274481D01*
X59543373Y-171267963D01*
X59373534Y-171216443D01*
X59354824Y-171206442D01*
X59228116Y-171138715D01*
X59217009Y-171132778D01*
X59171831Y-171095701D01*
X59079814Y-171020186D01*
X58996552Y-170918729D01*
X58967222Y-170882991D01*
X58883557Y-170726466D01*
X58832037Y-170556627D01*
X58814641Y-170380000D01*
X58832037Y-170203373D01*
X58883557Y-170033534D01*
X58967222Y-169877009D01*
X58996552Y-169841271D01*
X59079814Y-169739814D01*
X59181271Y-169656552D01*
X59217009Y-169627222D01*
X59373534Y-169543557D01*
X59543373Y-169492037D01*
X59609558Y-169485518D01*
X59675740Y-169479000D01*
X59764260Y-169479000D01*
X59830442Y-169485518D01*
X59830442Y-169485518D01*
G37*
G36*
X110170442Y-169475518D02*
G01*
X110236627Y-169482037D01*
X110406466Y-169533557D01*
X110406468Y-169533558D01*
X110484728Y-169575389D01*
X110562991Y-169617222D01*
X110598729Y-169646552D01*
X110700186Y-169729814D01*
X110783448Y-169831271D01*
X110812778Y-169867009D01*
X110896443Y-170023534D01*
X110947963Y-170193373D01*
X110965359Y-170370000D01*
X110947963Y-170546627D01*
X110896443Y-170716466D01*
X110812778Y-170872991D01*
X110804571Y-170882991D01*
X110700186Y-171010186D01*
X110601712Y-171091000D01*
X110562991Y-171122778D01*
X110406466Y-171206443D01*
X110236627Y-171257963D01*
X110177017Y-171263834D01*
X110104260Y-171271000D01*
X110015740Y-171271000D01*
X109942983Y-171263834D01*
X109883373Y-171257963D01*
X109713534Y-171206443D01*
X109557009Y-171122778D01*
X109518288Y-171091000D01*
X109419814Y-171010186D01*
X109315429Y-170882991D01*
X109307222Y-170872991D01*
X109223557Y-170716466D01*
X109172037Y-170546627D01*
X109154641Y-170370000D01*
X109172037Y-170193373D01*
X109223557Y-170023534D01*
X109307222Y-169867009D01*
X109336552Y-169831271D01*
X109419814Y-169729814D01*
X109521271Y-169646552D01*
X109557009Y-169617222D01*
X109635272Y-169575389D01*
X109713532Y-169533558D01*
X109713534Y-169533557D01*
X109883373Y-169482037D01*
X109949558Y-169475518D01*
X110015740Y-169469000D01*
X110104260Y-169469000D01*
X110170442Y-169475518D01*
X110170442Y-169475518D01*
G37*
G36*
X59830443Y-166945519D02*
G01*
X59896627Y-166952037D01*
X60066466Y-167003557D01*
X60222991Y-167087222D01*
X60258729Y-167116552D01*
X60360186Y-167199814D01*
X60443448Y-167301271D01*
X60472778Y-167337009D01*
X60556443Y-167493534D01*
X60607963Y-167663373D01*
X60625359Y-167840000D01*
X60607963Y-168016627D01*
X60556443Y-168186466D01*
X60472778Y-168342991D01*
X60443448Y-168378729D01*
X60360186Y-168480186D01*
X60258729Y-168563448D01*
X60222991Y-168592778D01*
X60222989Y-168592779D01*
X60085177Y-168666442D01*
X60066466Y-168676443D01*
X59896627Y-168727963D01*
X59830443Y-168734481D01*
X59764260Y-168741000D01*
X59675740Y-168741000D01*
X59609557Y-168734481D01*
X59543373Y-168727963D01*
X59373534Y-168676443D01*
X59354824Y-168666442D01*
X59217011Y-168592779D01*
X59217009Y-168592778D01*
X59181271Y-168563448D01*
X59079814Y-168480186D01*
X58996552Y-168378729D01*
X58967222Y-168342991D01*
X58883557Y-168186466D01*
X58832037Y-168016627D01*
X58814641Y-167840000D01*
X58832037Y-167663373D01*
X58883557Y-167493534D01*
X58967222Y-167337009D01*
X58996552Y-167301271D01*
X59079814Y-167199814D01*
X59181271Y-167116552D01*
X59217009Y-167087222D01*
X59373534Y-167003557D01*
X59543373Y-166952037D01*
X59609557Y-166945519D01*
X59675740Y-166939000D01*
X59764260Y-166939000D01*
X59830443Y-166945519D01*
X59830443Y-166945519D01*
G37*
G36*
X110170443Y-166935519D02*
G01*
X110236627Y-166942037D01*
X110406466Y-166993557D01*
X110406468Y-166993558D01*
X110484729Y-167035390D01*
X110562991Y-167077222D01*
X110598729Y-167106552D01*
X110700186Y-167189814D01*
X110783448Y-167291271D01*
X110812778Y-167327009D01*
X110896443Y-167483534D01*
X110947963Y-167653373D01*
X110965359Y-167830000D01*
X110947963Y-168006627D01*
X110896443Y-168176466D01*
X110812778Y-168332991D01*
X110804571Y-168342991D01*
X110700186Y-168470186D01*
X110598729Y-168553448D01*
X110562991Y-168582778D01*
X110406466Y-168666443D01*
X110236627Y-168717963D01*
X110170442Y-168724482D01*
X110104260Y-168731000D01*
X110015740Y-168731000D01*
X109949558Y-168724482D01*
X109883373Y-168717963D01*
X109713534Y-168666443D01*
X109557009Y-168582778D01*
X109521271Y-168553448D01*
X109419814Y-168470186D01*
X109315429Y-168342991D01*
X109307222Y-168332991D01*
X109223557Y-168176466D01*
X109172037Y-168006627D01*
X109154641Y-167830000D01*
X109172037Y-167653373D01*
X109223557Y-167483534D01*
X109307222Y-167327009D01*
X109336552Y-167291271D01*
X109419814Y-167189814D01*
X109521271Y-167106552D01*
X109557009Y-167077222D01*
X109635271Y-167035390D01*
X109713532Y-166993558D01*
X109713534Y-166993557D01*
X109883373Y-166942037D01*
X109949557Y-166935519D01*
X110015740Y-166929000D01*
X110104260Y-166929000D01*
X110170443Y-166935519D01*
X110170443Y-166935519D01*
G37*
G36*
X59830442Y-164405518D02*
G01*
X59896627Y-164412037D01*
X60066466Y-164463557D01*
X60222991Y-164547222D01*
X60258729Y-164576552D01*
X60360186Y-164659814D01*
X60443448Y-164761271D01*
X60472778Y-164797009D01*
X60556443Y-164953534D01*
X60607963Y-165123373D01*
X60625359Y-165300000D01*
X60607963Y-165476627D01*
X60556443Y-165646466D01*
X60472778Y-165802991D01*
X60443448Y-165838729D01*
X60360186Y-165940186D01*
X60258729Y-166023448D01*
X60222991Y-166052778D01*
X60222989Y-166052779D01*
X60085177Y-166126442D01*
X60066466Y-166136443D01*
X59896627Y-166187963D01*
X59830442Y-166194482D01*
X59764260Y-166201000D01*
X59675740Y-166201000D01*
X59609558Y-166194482D01*
X59543373Y-166187963D01*
X59373534Y-166136443D01*
X59354824Y-166126442D01*
X59217011Y-166052779D01*
X59217009Y-166052778D01*
X59181271Y-166023448D01*
X59079814Y-165940186D01*
X58996552Y-165838729D01*
X58967222Y-165802991D01*
X58883557Y-165646466D01*
X58832037Y-165476627D01*
X58814641Y-165300000D01*
X58832037Y-165123373D01*
X58883557Y-164953534D01*
X58967222Y-164797009D01*
X58996552Y-164761271D01*
X59079814Y-164659814D01*
X59181271Y-164576552D01*
X59217009Y-164547222D01*
X59373534Y-164463557D01*
X59543373Y-164412037D01*
X59609558Y-164405518D01*
X59675740Y-164399000D01*
X59764260Y-164399000D01*
X59830442Y-164405518D01*
X59830442Y-164405518D01*
G37*
G36*
X110170443Y-164395519D02*
G01*
X110236627Y-164402037D01*
X110406466Y-164453557D01*
X110406468Y-164453558D01*
X110484728Y-164495389D01*
X110562991Y-164537222D01*
X110598729Y-164566552D01*
X110700186Y-164649814D01*
X110783448Y-164751271D01*
X110812778Y-164787009D01*
X110896443Y-164943534D01*
X110947963Y-165113373D01*
X110965359Y-165290000D01*
X110947963Y-165466627D01*
X110896443Y-165636466D01*
X110812778Y-165792991D01*
X110804571Y-165802991D01*
X110700186Y-165930186D01*
X110598729Y-166013448D01*
X110562991Y-166042778D01*
X110406466Y-166126443D01*
X110236627Y-166177963D01*
X110170443Y-166184481D01*
X110104260Y-166191000D01*
X110015740Y-166191000D01*
X109949557Y-166184481D01*
X109883373Y-166177963D01*
X109713534Y-166126443D01*
X109557009Y-166042778D01*
X109521271Y-166013448D01*
X109419814Y-165930186D01*
X109315429Y-165802991D01*
X109307222Y-165792991D01*
X109223557Y-165636466D01*
X109172037Y-165466627D01*
X109154641Y-165290000D01*
X109172037Y-165113373D01*
X109223557Y-164943534D01*
X109307222Y-164787009D01*
X109336552Y-164751271D01*
X109419814Y-164649814D01*
X109521271Y-164566552D01*
X109557009Y-164537222D01*
X109635272Y-164495389D01*
X109713532Y-164453558D01*
X109713534Y-164453557D01*
X109883373Y-164402037D01*
X109949557Y-164395519D01*
X110015740Y-164389000D01*
X110104260Y-164389000D01*
X110170443Y-164395519D01*
X110170443Y-164395519D01*
G37*
G36*
X59830442Y-161865518D02*
G01*
X59896627Y-161872037D01*
X60066466Y-161923557D01*
X60222991Y-162007222D01*
X60258729Y-162036552D01*
X60360186Y-162119814D01*
X60443448Y-162221271D01*
X60472778Y-162257009D01*
X60556443Y-162413534D01*
X60607963Y-162583373D01*
X60625359Y-162760000D01*
X60607963Y-162936627D01*
X60556443Y-163106466D01*
X60472778Y-163262991D01*
X60443448Y-163298729D01*
X60360186Y-163400186D01*
X60258729Y-163483448D01*
X60222991Y-163512778D01*
X60222989Y-163512779D01*
X60085177Y-163586442D01*
X60066466Y-163596443D01*
X59896627Y-163647963D01*
X59830442Y-163654482D01*
X59764260Y-163661000D01*
X59675740Y-163661000D01*
X59609558Y-163654482D01*
X59543373Y-163647963D01*
X59373534Y-163596443D01*
X59354824Y-163586442D01*
X59217011Y-163512779D01*
X59217009Y-163512778D01*
X59181271Y-163483448D01*
X59079814Y-163400186D01*
X58996552Y-163298729D01*
X58967222Y-163262991D01*
X58883557Y-163106466D01*
X58832037Y-162936627D01*
X58814641Y-162760000D01*
X58832037Y-162583373D01*
X58883557Y-162413534D01*
X58967222Y-162257009D01*
X58996552Y-162221271D01*
X59079814Y-162119814D01*
X59181271Y-162036552D01*
X59217009Y-162007222D01*
X59373534Y-161923557D01*
X59543373Y-161872037D01*
X59609558Y-161865518D01*
X59675740Y-161859000D01*
X59764260Y-161859000D01*
X59830442Y-161865518D01*
X59830442Y-161865518D01*
G37*
G36*
X110170443Y-161855519D02*
G01*
X110236627Y-161862037D01*
X110406466Y-161913557D01*
X110406468Y-161913558D01*
X110484729Y-161955390D01*
X110562991Y-161997222D01*
X110598729Y-162026552D01*
X110700186Y-162109814D01*
X110783448Y-162211271D01*
X110812778Y-162247009D01*
X110896443Y-162403534D01*
X110947963Y-162573373D01*
X110965359Y-162750000D01*
X110947963Y-162926627D01*
X110896443Y-163096466D01*
X110812778Y-163252991D01*
X110804571Y-163262991D01*
X110700186Y-163390186D01*
X110598729Y-163473448D01*
X110562991Y-163502778D01*
X110406466Y-163586443D01*
X110236627Y-163637963D01*
X110170443Y-163644481D01*
X110104260Y-163651000D01*
X110015740Y-163651000D01*
X109949557Y-163644481D01*
X109883373Y-163637963D01*
X109713534Y-163586443D01*
X109557009Y-163502778D01*
X109521271Y-163473448D01*
X109419814Y-163390186D01*
X109315429Y-163262991D01*
X109307222Y-163252991D01*
X109223557Y-163096466D01*
X109172037Y-162926627D01*
X109154641Y-162750000D01*
X109172037Y-162573373D01*
X109223557Y-162403534D01*
X109307222Y-162247009D01*
X109336552Y-162211271D01*
X109419814Y-162109814D01*
X109521271Y-162026552D01*
X109557009Y-161997222D01*
X109635271Y-161955390D01*
X109713532Y-161913558D01*
X109713534Y-161913557D01*
X109883373Y-161862037D01*
X109949557Y-161855519D01*
X110015740Y-161849000D01*
X110104260Y-161849000D01*
X110170443Y-161855519D01*
X110170443Y-161855519D01*
G37*
G36*
X60621000Y-161121000D02*
G01*
X58819000Y-161121000D01*
X58819000Y-159319000D01*
X60621000Y-159319000D01*
X60621000Y-161121000D01*
X60621000Y-161121000D01*
G37*
G36*
X110170442Y-159315518D02*
G01*
X110236627Y-159322037D01*
X110406466Y-159373557D01*
X110562991Y-159457222D01*
X110598729Y-159486552D01*
X110700186Y-159569814D01*
X110783448Y-159671271D01*
X110812778Y-159707009D01*
X110896443Y-159863534D01*
X110947963Y-160033373D01*
X110965359Y-160210000D01*
X110947963Y-160386627D01*
X110896443Y-160556466D01*
X110812778Y-160712991D01*
X110783448Y-160748729D01*
X110700186Y-160850186D01*
X110598729Y-160933448D01*
X110562991Y-160962778D01*
X110406466Y-161046443D01*
X110236627Y-161097963D01*
X110170443Y-161104481D01*
X110104260Y-161111000D01*
X110015740Y-161111000D01*
X109949557Y-161104481D01*
X109883373Y-161097963D01*
X109713534Y-161046443D01*
X109557009Y-160962778D01*
X109521271Y-160933448D01*
X109419814Y-160850186D01*
X109336552Y-160748729D01*
X109307222Y-160712991D01*
X109223557Y-160556466D01*
X109172037Y-160386627D01*
X109154641Y-160210000D01*
X109172037Y-160033373D01*
X109223557Y-159863534D01*
X109307222Y-159707009D01*
X109336552Y-159671271D01*
X109419814Y-159569814D01*
X109521271Y-159486552D01*
X109557009Y-159457222D01*
X109713534Y-159373557D01*
X109883373Y-159322037D01*
X109949558Y-159315518D01*
X110015740Y-159309000D01*
X110104260Y-159309000D01*
X110170442Y-159315518D01*
X110170442Y-159315518D01*
G37*
G36*
X69009999Y-156219737D02*
G01*
X69024528Y-156224145D01*
X69037711Y-156229606D01*
X69061745Y-156234388D01*
X69086249Y-156234389D01*
X69110282Y-156229609D01*
X69132921Y-156220232D01*
X69134765Y-156219000D01*
X70366050Y-156219000D01*
X70378164Y-156225475D01*
X70401613Y-156232588D01*
X70425999Y-156234990D01*
X70450385Y-156232588D01*
X70473834Y-156225475D01*
X70478746Y-156223152D01*
X70490001Y-156219737D01*
X70506140Y-156218148D01*
X71043861Y-156218148D01*
X71062199Y-156219954D01*
X71074450Y-156220556D01*
X71092869Y-156220556D01*
X71115149Y-156222750D01*
X71199233Y-156239476D01*
X71220660Y-156245976D01*
X71299858Y-156278780D01*
X71305303Y-156281691D01*
X71305309Y-156281693D01*
X71314169Y-156286429D01*
X71314173Y-156286432D01*
X71319614Y-156289340D01*
X71390899Y-156336971D01*
X71408204Y-156351172D01*
X71468828Y-156411796D01*
X71483029Y-156429101D01*
X71530660Y-156500386D01*
X71533568Y-156505827D01*
X71533571Y-156505831D01*
X71538307Y-156514691D01*
X71538309Y-156514697D01*
X71541220Y-156520142D01*
X71574024Y-156599340D01*
X71580524Y-156620767D01*
X71597250Y-156704851D01*
X71599444Y-156727131D01*
X71599444Y-156745550D01*
X71600046Y-156757801D01*
X71601852Y-156776139D01*
X71601852Y-157263862D01*
X71600046Y-157282199D01*
X71599444Y-157294450D01*
X71599444Y-157312869D01*
X71597250Y-157335149D01*
X71580524Y-157419233D01*
X71574024Y-157440660D01*
X71541220Y-157519858D01*
X71538309Y-157525303D01*
X71538307Y-157525309D01*
X71533571Y-157534169D01*
X71533568Y-157534173D01*
X71530660Y-157539614D01*
X71483029Y-157610899D01*
X71468828Y-157628204D01*
X71408204Y-157688828D01*
X71390899Y-157703029D01*
X71319614Y-157750660D01*
X71314173Y-157753568D01*
X71314169Y-157753571D01*
X71305309Y-157758307D01*
X71305303Y-157758309D01*
X71299858Y-157761220D01*
X71220660Y-157794024D01*
X71199233Y-157800524D01*
X71115149Y-157817250D01*
X71092869Y-157819444D01*
X71074450Y-157819444D01*
X71062199Y-157820046D01*
X71043862Y-157821852D01*
X70506140Y-157821852D01*
X70490001Y-157820263D01*
X70475472Y-157815855D01*
X70462289Y-157810394D01*
X70438255Y-157805612D01*
X70413751Y-157805611D01*
X70389718Y-157810391D01*
X70367079Y-157819768D01*
X70365235Y-157821000D01*
X69133950Y-157821000D01*
X69121836Y-157814525D01*
X69098387Y-157807412D01*
X69074001Y-157805010D01*
X69049615Y-157807412D01*
X69026166Y-157814525D01*
X69021254Y-157816848D01*
X69009999Y-157820263D01*
X68993860Y-157821852D01*
X68456138Y-157821852D01*
X68437801Y-157820046D01*
X68425550Y-157819444D01*
X68407131Y-157819444D01*
X68384851Y-157817250D01*
X68300767Y-157800524D01*
X68279340Y-157794024D01*
X68200142Y-157761220D01*
X68194697Y-157758309D01*
X68194691Y-157758307D01*
X68185831Y-157753571D01*
X68185827Y-157753568D01*
X68180386Y-157750660D01*
X68109101Y-157703029D01*
X68091796Y-157688828D01*
X68031172Y-157628204D01*
X68016971Y-157610899D01*
X67969340Y-157539614D01*
X67966432Y-157534173D01*
X67966429Y-157534169D01*
X67961693Y-157525309D01*
X67961691Y-157525303D01*
X67958780Y-157519858D01*
X67925976Y-157440660D01*
X67919476Y-157419233D01*
X67902750Y-157335149D01*
X67900556Y-157312869D01*
X67900556Y-157294450D01*
X67899954Y-157282199D01*
X67898148Y-157263862D01*
X67898148Y-156776139D01*
X67899954Y-156757801D01*
X67900556Y-156745550D01*
X67900556Y-156727131D01*
X67902750Y-156704851D01*
X67919476Y-156620767D01*
X67925976Y-156599340D01*
X67958780Y-156520142D01*
X67961691Y-156514697D01*
X67961693Y-156514691D01*
X67966429Y-156505831D01*
X67966432Y-156505827D01*
X67969340Y-156500386D01*
X68016971Y-156429101D01*
X68031172Y-156411796D01*
X68091796Y-156351172D01*
X68109101Y-156336971D01*
X68180386Y-156289340D01*
X68185827Y-156286432D01*
X68185831Y-156286429D01*
X68194691Y-156281693D01*
X68194697Y-156281691D01*
X68200142Y-156278780D01*
X68279340Y-156245976D01*
X68300767Y-156239476D01*
X68384851Y-156222750D01*
X68407131Y-156220556D01*
X68425550Y-156220556D01*
X68437801Y-156219954D01*
X68456139Y-156218148D01*
X68993860Y-156218148D01*
X69009999Y-156219737D01*
X69009999Y-156219737D01*
G37*
G36*
X99299999Y-156189737D02*
G01*
X99314528Y-156194145D01*
X99327711Y-156199606D01*
X99351745Y-156204388D01*
X99376249Y-156204389D01*
X99400282Y-156199609D01*
X99422921Y-156190232D01*
X99424765Y-156189000D01*
X100656050Y-156189000D01*
X100668164Y-156195475D01*
X100691613Y-156202588D01*
X100715999Y-156204990D01*
X100740385Y-156202588D01*
X100763834Y-156195475D01*
X100768746Y-156193152D01*
X100780001Y-156189737D01*
X100796140Y-156188148D01*
X101333861Y-156188148D01*
X101352199Y-156189954D01*
X101364450Y-156190556D01*
X101382869Y-156190556D01*
X101405149Y-156192750D01*
X101489233Y-156209476D01*
X101510660Y-156215976D01*
X101589858Y-156248780D01*
X101595303Y-156251691D01*
X101595309Y-156251693D01*
X101604169Y-156256429D01*
X101604173Y-156256432D01*
X101609614Y-156259340D01*
X101680899Y-156306971D01*
X101698204Y-156321172D01*
X101758828Y-156381796D01*
X101773029Y-156399101D01*
X101820660Y-156470386D01*
X101823568Y-156475827D01*
X101823571Y-156475831D01*
X101828307Y-156484691D01*
X101828309Y-156484697D01*
X101831220Y-156490142D01*
X101864024Y-156569340D01*
X101870524Y-156590767D01*
X101887250Y-156674851D01*
X101889444Y-156697131D01*
X101889444Y-156715550D01*
X101890046Y-156727801D01*
X101891852Y-156746139D01*
X101891852Y-157233861D01*
X101890046Y-157252199D01*
X101889444Y-157264450D01*
X101889444Y-157282869D01*
X101887250Y-157305149D01*
X101870524Y-157389233D01*
X101864024Y-157410660D01*
X101831220Y-157489858D01*
X101828309Y-157495303D01*
X101828307Y-157495309D01*
X101823571Y-157504169D01*
X101823568Y-157504173D01*
X101820660Y-157509614D01*
X101773029Y-157580899D01*
X101758828Y-157598204D01*
X101698204Y-157658828D01*
X101680899Y-157673029D01*
X101609614Y-157720660D01*
X101604173Y-157723568D01*
X101604169Y-157723571D01*
X101595309Y-157728307D01*
X101595303Y-157728309D01*
X101589858Y-157731220D01*
X101510660Y-157764024D01*
X101489233Y-157770524D01*
X101405149Y-157787250D01*
X101382869Y-157789444D01*
X101364450Y-157789444D01*
X101352199Y-157790046D01*
X101333862Y-157791852D01*
X100796140Y-157791852D01*
X100780001Y-157790263D01*
X100765472Y-157785855D01*
X100752289Y-157780394D01*
X100728255Y-157775612D01*
X100703751Y-157775611D01*
X100679718Y-157780391D01*
X100657079Y-157789768D01*
X100655235Y-157791000D01*
X99423950Y-157791000D01*
X99411836Y-157784525D01*
X99388387Y-157777412D01*
X99364001Y-157775010D01*
X99339615Y-157777412D01*
X99316166Y-157784525D01*
X99311254Y-157786848D01*
X99299999Y-157790263D01*
X99283860Y-157791852D01*
X98746138Y-157791852D01*
X98727801Y-157790046D01*
X98715550Y-157789444D01*
X98697131Y-157789444D01*
X98674851Y-157787250D01*
X98590767Y-157770524D01*
X98569340Y-157764024D01*
X98490142Y-157731220D01*
X98484697Y-157728309D01*
X98484691Y-157728307D01*
X98475831Y-157723571D01*
X98475827Y-157723568D01*
X98470386Y-157720660D01*
X98399101Y-157673029D01*
X98381796Y-157658828D01*
X98321172Y-157598204D01*
X98306971Y-157580899D01*
X98259340Y-157509614D01*
X98256432Y-157504173D01*
X98256429Y-157504169D01*
X98251693Y-157495309D01*
X98251691Y-157495303D01*
X98248780Y-157489858D01*
X98215976Y-157410660D01*
X98209476Y-157389233D01*
X98192750Y-157305149D01*
X98190556Y-157282869D01*
X98190556Y-157264450D01*
X98189954Y-157252199D01*
X98188148Y-157233862D01*
X98188148Y-156746138D01*
X98189954Y-156727801D01*
X98190556Y-156715550D01*
X98190556Y-156697131D01*
X98192750Y-156674851D01*
X98209476Y-156590767D01*
X98215976Y-156569340D01*
X98248780Y-156490142D01*
X98251691Y-156484697D01*
X98251693Y-156484691D01*
X98256429Y-156475831D01*
X98256432Y-156475827D01*
X98259340Y-156470386D01*
X98306971Y-156399101D01*
X98321172Y-156381796D01*
X98381796Y-156321172D01*
X98399101Y-156306971D01*
X98470386Y-156259340D01*
X98475827Y-156256432D01*
X98475831Y-156256429D01*
X98484691Y-156251693D01*
X98484697Y-156251691D01*
X98490142Y-156248780D01*
X98569340Y-156215976D01*
X98590767Y-156209476D01*
X98674851Y-156192750D01*
X98697131Y-156190556D01*
X98715550Y-156190556D01*
X98727801Y-156189954D01*
X98746139Y-156188148D01*
X99283860Y-156188148D01*
X99299999Y-156189737D01*
X99299999Y-156189737D01*
G37*
G36*
X89199999Y-156169737D02*
G01*
X89214528Y-156174145D01*
X89227711Y-156179606D01*
X89251745Y-156184388D01*
X89276249Y-156184389D01*
X89300282Y-156179609D01*
X89322921Y-156170232D01*
X89324765Y-156169000D01*
X90556050Y-156169000D01*
X90568164Y-156175475D01*
X90591613Y-156182588D01*
X90615999Y-156184990D01*
X90640385Y-156182588D01*
X90663834Y-156175475D01*
X90668746Y-156173152D01*
X90680001Y-156169737D01*
X90696140Y-156168148D01*
X91233861Y-156168148D01*
X91252199Y-156169954D01*
X91264450Y-156170556D01*
X91282869Y-156170556D01*
X91305149Y-156172750D01*
X91389233Y-156189476D01*
X91410660Y-156195976D01*
X91489858Y-156228780D01*
X91495303Y-156231691D01*
X91495309Y-156231693D01*
X91504169Y-156236429D01*
X91504173Y-156236432D01*
X91509614Y-156239340D01*
X91580899Y-156286971D01*
X91598204Y-156301172D01*
X91658828Y-156361796D01*
X91673029Y-156379101D01*
X91720660Y-156450386D01*
X91723568Y-156455827D01*
X91723571Y-156455831D01*
X91728307Y-156464691D01*
X91728309Y-156464697D01*
X91731220Y-156470142D01*
X91764024Y-156549340D01*
X91770524Y-156570767D01*
X91787250Y-156654851D01*
X91789444Y-156677131D01*
X91789444Y-156695550D01*
X91790046Y-156707801D01*
X91791852Y-156726139D01*
X91791852Y-157213862D01*
X91790046Y-157232199D01*
X91789444Y-157244450D01*
X91789444Y-157262869D01*
X91787250Y-157285149D01*
X91770524Y-157369233D01*
X91764024Y-157390660D01*
X91731220Y-157469858D01*
X91728309Y-157475303D01*
X91728307Y-157475309D01*
X91723571Y-157484169D01*
X91723568Y-157484173D01*
X91720660Y-157489614D01*
X91673029Y-157560899D01*
X91658828Y-157578204D01*
X91598204Y-157638828D01*
X91580899Y-157653029D01*
X91509614Y-157700660D01*
X91504173Y-157703568D01*
X91504169Y-157703571D01*
X91495309Y-157708307D01*
X91495303Y-157708309D01*
X91489858Y-157711220D01*
X91410660Y-157744024D01*
X91389233Y-157750524D01*
X91305149Y-157767250D01*
X91282869Y-157769444D01*
X91264450Y-157769444D01*
X91252199Y-157770046D01*
X91233862Y-157771852D01*
X90696140Y-157771852D01*
X90680001Y-157770263D01*
X90665472Y-157765855D01*
X90652289Y-157760394D01*
X90628255Y-157755612D01*
X90603751Y-157755611D01*
X90579718Y-157760391D01*
X90557079Y-157769768D01*
X90555235Y-157771000D01*
X89323950Y-157771000D01*
X89311836Y-157764525D01*
X89288387Y-157757412D01*
X89264001Y-157755010D01*
X89239615Y-157757412D01*
X89216166Y-157764525D01*
X89211254Y-157766848D01*
X89199999Y-157770263D01*
X89183860Y-157771852D01*
X88646138Y-157771852D01*
X88627801Y-157770046D01*
X88615550Y-157769444D01*
X88597131Y-157769444D01*
X88574851Y-157767250D01*
X88490767Y-157750524D01*
X88469340Y-157744024D01*
X88390142Y-157711220D01*
X88384697Y-157708309D01*
X88384691Y-157708307D01*
X88375831Y-157703571D01*
X88375827Y-157703568D01*
X88370386Y-157700660D01*
X88299101Y-157653029D01*
X88281796Y-157638828D01*
X88221172Y-157578204D01*
X88206971Y-157560899D01*
X88159340Y-157489614D01*
X88156432Y-157484173D01*
X88156429Y-157484169D01*
X88151693Y-157475309D01*
X88151691Y-157475303D01*
X88148780Y-157469858D01*
X88115976Y-157390660D01*
X88109476Y-157369233D01*
X88092750Y-157285149D01*
X88090556Y-157262869D01*
X88090556Y-157244450D01*
X88089954Y-157232199D01*
X88088148Y-157213862D01*
X88088148Y-156726139D01*
X88089954Y-156707801D01*
X88090556Y-156695550D01*
X88090556Y-156677131D01*
X88092750Y-156654851D01*
X88109476Y-156570767D01*
X88115976Y-156549340D01*
X88148780Y-156470142D01*
X88151691Y-156464697D01*
X88151693Y-156464691D01*
X88156429Y-156455831D01*
X88156432Y-156455827D01*
X88159340Y-156450386D01*
X88206971Y-156379101D01*
X88221172Y-156361796D01*
X88281796Y-156301172D01*
X88299101Y-156286971D01*
X88370386Y-156239340D01*
X88375827Y-156236432D01*
X88375831Y-156236429D01*
X88384691Y-156231693D01*
X88384697Y-156231691D01*
X88390142Y-156228780D01*
X88469340Y-156195976D01*
X88490767Y-156189476D01*
X88574851Y-156172750D01*
X88597131Y-156170556D01*
X88615550Y-156170556D01*
X88627801Y-156169954D01*
X88646139Y-156168148D01*
X89183860Y-156168148D01*
X89199999Y-156169737D01*
X89199999Y-156169737D01*
G37*
G36*
X79269999Y-156159737D02*
G01*
X79284528Y-156164145D01*
X79297711Y-156169606D01*
X79321745Y-156174388D01*
X79346249Y-156174389D01*
X79370282Y-156169609D01*
X79392921Y-156160232D01*
X79394765Y-156159000D01*
X80626050Y-156159000D01*
X80638164Y-156165475D01*
X80661613Y-156172588D01*
X80685999Y-156174990D01*
X80710385Y-156172588D01*
X80733834Y-156165475D01*
X80738746Y-156163152D01*
X80750001Y-156159737D01*
X80766140Y-156158148D01*
X81303861Y-156158148D01*
X81322199Y-156159954D01*
X81334450Y-156160556D01*
X81352869Y-156160556D01*
X81375149Y-156162750D01*
X81459233Y-156179476D01*
X81480660Y-156185976D01*
X81559858Y-156218780D01*
X81565303Y-156221691D01*
X81565309Y-156221693D01*
X81574169Y-156226429D01*
X81574173Y-156226432D01*
X81579614Y-156229340D01*
X81650899Y-156276971D01*
X81668204Y-156291172D01*
X81728828Y-156351796D01*
X81743029Y-156369101D01*
X81790660Y-156440386D01*
X81793568Y-156445827D01*
X81793571Y-156445831D01*
X81798307Y-156454691D01*
X81798309Y-156454697D01*
X81801220Y-156460142D01*
X81834024Y-156539340D01*
X81840524Y-156560767D01*
X81857250Y-156644851D01*
X81859444Y-156667131D01*
X81859444Y-156685550D01*
X81860046Y-156697801D01*
X81861852Y-156716139D01*
X81861852Y-157203862D01*
X81860046Y-157222199D01*
X81859444Y-157234450D01*
X81859444Y-157252869D01*
X81857250Y-157275149D01*
X81840524Y-157359233D01*
X81834024Y-157380660D01*
X81801220Y-157459858D01*
X81798309Y-157465303D01*
X81798307Y-157465309D01*
X81793571Y-157474169D01*
X81793568Y-157474173D01*
X81790660Y-157479614D01*
X81743029Y-157550899D01*
X81728828Y-157568204D01*
X81668204Y-157628828D01*
X81650899Y-157643029D01*
X81579614Y-157690660D01*
X81574173Y-157693568D01*
X81574169Y-157693571D01*
X81565309Y-157698307D01*
X81565303Y-157698309D01*
X81559858Y-157701220D01*
X81480660Y-157734024D01*
X81459233Y-157740524D01*
X81375149Y-157757250D01*
X81352869Y-157759444D01*
X81334450Y-157759444D01*
X81322199Y-157760046D01*
X81303862Y-157761852D01*
X80766140Y-157761852D01*
X80750001Y-157760263D01*
X80735472Y-157755855D01*
X80722289Y-157750394D01*
X80698255Y-157745612D01*
X80673751Y-157745611D01*
X80649718Y-157750391D01*
X80627079Y-157759768D01*
X80625235Y-157761000D01*
X79393950Y-157761000D01*
X79381836Y-157754525D01*
X79358387Y-157747412D01*
X79334001Y-157745010D01*
X79309615Y-157747412D01*
X79286166Y-157754525D01*
X79281254Y-157756848D01*
X79269999Y-157760263D01*
X79253860Y-157761852D01*
X78716138Y-157761852D01*
X78697801Y-157760046D01*
X78685550Y-157759444D01*
X78667131Y-157759444D01*
X78644851Y-157757250D01*
X78560767Y-157740524D01*
X78539340Y-157734024D01*
X78460142Y-157701220D01*
X78454697Y-157698309D01*
X78454691Y-157698307D01*
X78445831Y-157693571D01*
X78445827Y-157693568D01*
X78440386Y-157690660D01*
X78369101Y-157643029D01*
X78351796Y-157628828D01*
X78291172Y-157568204D01*
X78276971Y-157550899D01*
X78229340Y-157479614D01*
X78226432Y-157474173D01*
X78226429Y-157474169D01*
X78221693Y-157465309D01*
X78221691Y-157465303D01*
X78218780Y-157459858D01*
X78185976Y-157380660D01*
X78179476Y-157359233D01*
X78162750Y-157275149D01*
X78160556Y-157252869D01*
X78160556Y-157234450D01*
X78159954Y-157222199D01*
X78158148Y-157203862D01*
X78158148Y-156716139D01*
X78159954Y-156697801D01*
X78160556Y-156685550D01*
X78160556Y-156667131D01*
X78162750Y-156644851D01*
X78179476Y-156560767D01*
X78185976Y-156539340D01*
X78218780Y-156460142D01*
X78221691Y-156454697D01*
X78221693Y-156454691D01*
X78226429Y-156445831D01*
X78226432Y-156445827D01*
X78229340Y-156440386D01*
X78276971Y-156369101D01*
X78291172Y-156351796D01*
X78351796Y-156291172D01*
X78369101Y-156276971D01*
X78440386Y-156229340D01*
X78445827Y-156226432D01*
X78445831Y-156226429D01*
X78454691Y-156221693D01*
X78454697Y-156221691D01*
X78460142Y-156218780D01*
X78539340Y-156185976D01*
X78560767Y-156179476D01*
X78644851Y-156162750D01*
X78667131Y-156160556D01*
X78685550Y-156160556D01*
X78697801Y-156159954D01*
X78716139Y-156158148D01*
X79253860Y-156158148D01*
X79269999Y-156159737D01*
X79269999Y-156159737D01*
G37*
G36*
X57242199Y-152419954D02*
G01*
X57254450Y-152420556D01*
X57272869Y-152420556D01*
X57295149Y-152422750D01*
X57379233Y-152439476D01*
X57400660Y-152445976D01*
X57479858Y-152478780D01*
X57485303Y-152481691D01*
X57485309Y-152481693D01*
X57494169Y-152486429D01*
X57494173Y-152486432D01*
X57499614Y-152489340D01*
X57570899Y-152536971D01*
X57588204Y-152551172D01*
X57648828Y-152611796D01*
X57663029Y-152629101D01*
X57710660Y-152700386D01*
X57713568Y-152705827D01*
X57713571Y-152705831D01*
X57718307Y-152714691D01*
X57718309Y-152714697D01*
X57721220Y-152720142D01*
X57754024Y-152799340D01*
X57760524Y-152820767D01*
X57777249Y-152904846D01*
X57779444Y-152927131D01*
X57779444Y-152945550D01*
X57780046Y-152957801D01*
X57781852Y-152976139D01*
X57781852Y-153463860D01*
X57780263Y-153479999D01*
X57777348Y-153489608D01*
X57772610Y-153498472D01*
X57766237Y-153506237D01*
X57753794Y-153516448D01*
X57743425Y-153523378D01*
X57726098Y-153540705D01*
X57712485Y-153561080D01*
X57703109Y-153583720D01*
X57698329Y-153607753D01*
X57698330Y-153632257D01*
X57703112Y-153656290D01*
X57712490Y-153678929D01*
X57726105Y-153699302D01*
X57743432Y-153716629D01*
X57753802Y-153723558D01*
X57766237Y-153733763D01*
X57772610Y-153741528D01*
X57777348Y-153750392D01*
X57780263Y-153760001D01*
X57781852Y-153776140D01*
X57781852Y-154263862D01*
X57780046Y-154282199D01*
X57779444Y-154294450D01*
X57779444Y-154312869D01*
X57777250Y-154335149D01*
X57760524Y-154419233D01*
X57754024Y-154440660D01*
X57721220Y-154519858D01*
X57718309Y-154525303D01*
X57718307Y-154525309D01*
X57713571Y-154534169D01*
X57713568Y-154534173D01*
X57710660Y-154539614D01*
X57663029Y-154610899D01*
X57648828Y-154628204D01*
X57588204Y-154688828D01*
X57570899Y-154703029D01*
X57499614Y-154750660D01*
X57494173Y-154753568D01*
X57494169Y-154753571D01*
X57485309Y-154758307D01*
X57485303Y-154758309D01*
X57479858Y-154761220D01*
X57400660Y-154794024D01*
X57379233Y-154800524D01*
X57295149Y-154817250D01*
X57272869Y-154819444D01*
X57254450Y-154819444D01*
X57242199Y-154820046D01*
X57223862Y-154821852D01*
X56736138Y-154821852D01*
X56717801Y-154820046D01*
X56705550Y-154819444D01*
X56687131Y-154819444D01*
X56664851Y-154817250D01*
X56580767Y-154800524D01*
X56559340Y-154794024D01*
X56480142Y-154761220D01*
X56474697Y-154758309D01*
X56474691Y-154758307D01*
X56465831Y-154753571D01*
X56465827Y-154753568D01*
X56460386Y-154750660D01*
X56389101Y-154703029D01*
X56371796Y-154688828D01*
X56311172Y-154628204D01*
X56296971Y-154610899D01*
X56249340Y-154539614D01*
X56246432Y-154534173D01*
X56246429Y-154534169D01*
X56241693Y-154525309D01*
X56241691Y-154525303D01*
X56238780Y-154519858D01*
X56205976Y-154440660D01*
X56199476Y-154419233D01*
X56182750Y-154335149D01*
X56180556Y-154312869D01*
X56180556Y-154294450D01*
X56179954Y-154282199D01*
X56178148Y-154263862D01*
X56178148Y-153776140D01*
X56179737Y-153760001D01*
X56182652Y-153750392D01*
X56187390Y-153741528D01*
X56193763Y-153733763D01*
X56206206Y-153723552D01*
X56216575Y-153716622D01*
X56233902Y-153699295D01*
X56247515Y-153678920D01*
X56256891Y-153656280D01*
X56261671Y-153632247D01*
X56261670Y-153607743D01*
X56256888Y-153583710D01*
X56247510Y-153561071D01*
X56233895Y-153540698D01*
X56216568Y-153523371D01*
X56206198Y-153516442D01*
X56193763Y-153506237D01*
X56187390Y-153498472D01*
X56182652Y-153489608D01*
X56179737Y-153479999D01*
X56178148Y-153463860D01*
X56178148Y-152976139D01*
X56179954Y-152957801D01*
X56180556Y-152945550D01*
X56180556Y-152927131D01*
X56182751Y-152904846D01*
X56199476Y-152820767D01*
X56205976Y-152799340D01*
X56238780Y-152720142D01*
X56241691Y-152714697D01*
X56241693Y-152714691D01*
X56246429Y-152705831D01*
X56246432Y-152705827D01*
X56249340Y-152700386D01*
X56296971Y-152629101D01*
X56311172Y-152611796D01*
X56371796Y-152551172D01*
X56389101Y-152536971D01*
X56460386Y-152489340D01*
X56465827Y-152486432D01*
X56465831Y-152486429D01*
X56474691Y-152481693D01*
X56474697Y-152481691D01*
X56480142Y-152478780D01*
X56559340Y-152445976D01*
X56580767Y-152439476D01*
X56664851Y-152422750D01*
X56687131Y-152420556D01*
X56705550Y-152420556D01*
X56717801Y-152419954D01*
X56736139Y-152418148D01*
X57223861Y-152418148D01*
X57242199Y-152419954D01*
X57242199Y-152419954D01*
G37*
G36*
X69890443Y-151845519D02*
G01*
X69956627Y-151852037D01*
X70126466Y-151903557D01*
X70282991Y-151987222D01*
X70318729Y-152016552D01*
X70420186Y-152099814D01*
X70503448Y-152201271D01*
X70532778Y-152237009D01*
X70616443Y-152393534D01*
X70667963Y-152563373D01*
X70685359Y-152740000D01*
X70667963Y-152916627D01*
X70616443Y-153086466D01*
X70532778Y-153242991D01*
X70503448Y-153278729D01*
X70420186Y-153380186D01*
X70318729Y-153463448D01*
X70282991Y-153492778D01*
X70126466Y-153576443D01*
X69956627Y-153627963D01*
X69890443Y-153634481D01*
X69824260Y-153641000D01*
X69735740Y-153641000D01*
X69669557Y-153634481D01*
X69603373Y-153627963D01*
X69433534Y-153576443D01*
X69277009Y-153492778D01*
X69241271Y-153463448D01*
X69139814Y-153380186D01*
X69056552Y-153278729D01*
X69027222Y-153242991D01*
X68943557Y-153086466D01*
X68892037Y-152916627D01*
X68874641Y-152740000D01*
X68892037Y-152563373D01*
X68943557Y-152393534D01*
X69027222Y-152237009D01*
X69056552Y-152201271D01*
X69139814Y-152099814D01*
X69241271Y-152016552D01*
X69277009Y-151987222D01*
X69433534Y-151903557D01*
X69603373Y-151852037D01*
X69669557Y-151845519D01*
X69735740Y-151839000D01*
X69824260Y-151839000D01*
X69890443Y-151845519D01*
X69890443Y-151845519D01*
G37*
G36*
X103471000Y-153641000D02*
G01*
X101669000Y-153641000D01*
X101669000Y-151839000D01*
X103471000Y-151839000D01*
X103471000Y-153641000D01*
X103471000Y-153641000D01*
G37*
G36*
X73221000Y-153641000D02*
G01*
X71419000Y-153641000D01*
X71419000Y-151839000D01*
X73221000Y-151839000D01*
X73221000Y-153641000D01*
X73221000Y-153641000D01*
G37*
G36*
X77430443Y-151845519D02*
G01*
X77496627Y-151852037D01*
X77666466Y-151903557D01*
X77822991Y-151987222D01*
X77858729Y-152016552D01*
X77960186Y-152099814D01*
X78043448Y-152201271D01*
X78072778Y-152237009D01*
X78156443Y-152393534D01*
X78207963Y-152563373D01*
X78225359Y-152740000D01*
X78207963Y-152916627D01*
X78156443Y-153086466D01*
X78072778Y-153242991D01*
X78043448Y-153278729D01*
X77960186Y-153380186D01*
X77858729Y-153463448D01*
X77822991Y-153492778D01*
X77666466Y-153576443D01*
X77496627Y-153627963D01*
X77430443Y-153634481D01*
X77364260Y-153641000D01*
X77275740Y-153641000D01*
X77209557Y-153634481D01*
X77143373Y-153627963D01*
X76973534Y-153576443D01*
X76817009Y-153492778D01*
X76781271Y-153463448D01*
X76679814Y-153380186D01*
X76596552Y-153278729D01*
X76567222Y-153242991D01*
X76483557Y-153086466D01*
X76432037Y-152916627D01*
X76414641Y-152740000D01*
X76432037Y-152563373D01*
X76483557Y-152393534D01*
X76567222Y-152237009D01*
X76596552Y-152201271D01*
X76679814Y-152099814D01*
X76781271Y-152016552D01*
X76817009Y-151987222D01*
X76973534Y-151903557D01*
X77143373Y-151852037D01*
X77209557Y-151845519D01*
X77275740Y-151839000D01*
X77364260Y-151839000D01*
X77430443Y-151845519D01*
X77430443Y-151845519D01*
G37*
G36*
X79970443Y-151845519D02*
G01*
X80036627Y-151852037D01*
X80206466Y-151903557D01*
X80362991Y-151987222D01*
X80398729Y-152016552D01*
X80500186Y-152099814D01*
X80583448Y-152201271D01*
X80612778Y-152237009D01*
X80696443Y-152393534D01*
X80747963Y-152563373D01*
X80765359Y-152740000D01*
X80747963Y-152916627D01*
X80696443Y-153086466D01*
X80612778Y-153242991D01*
X80583448Y-153278729D01*
X80500186Y-153380186D01*
X80398729Y-153463448D01*
X80362991Y-153492778D01*
X80206466Y-153576443D01*
X80036627Y-153627963D01*
X79970443Y-153634481D01*
X79904260Y-153641000D01*
X79815740Y-153641000D01*
X79749557Y-153634481D01*
X79683373Y-153627963D01*
X79513534Y-153576443D01*
X79357009Y-153492778D01*
X79321271Y-153463448D01*
X79219814Y-153380186D01*
X79136552Y-153278729D01*
X79107222Y-153242991D01*
X79023557Y-153086466D01*
X78972037Y-152916627D01*
X78954641Y-152740000D01*
X78972037Y-152563373D01*
X79023557Y-152393534D01*
X79107222Y-152237009D01*
X79136552Y-152201271D01*
X79219814Y-152099814D01*
X79321271Y-152016552D01*
X79357009Y-151987222D01*
X79513534Y-151903557D01*
X79683373Y-151852037D01*
X79749557Y-151845519D01*
X79815740Y-151839000D01*
X79904260Y-151839000D01*
X79970443Y-151845519D01*
X79970443Y-151845519D01*
G37*
G36*
X83301000Y-153641000D02*
G01*
X81499000Y-153641000D01*
X81499000Y-151839000D01*
X83301000Y-151839000D01*
X83301000Y-153641000D01*
X83301000Y-153641000D01*
G37*
G36*
X87510443Y-151845519D02*
G01*
X87576627Y-151852037D01*
X87746466Y-151903557D01*
X87902991Y-151987222D01*
X87938729Y-152016552D01*
X88040186Y-152099814D01*
X88123448Y-152201271D01*
X88152778Y-152237009D01*
X88236443Y-152393534D01*
X88287963Y-152563373D01*
X88305359Y-152740000D01*
X88287963Y-152916627D01*
X88236443Y-153086466D01*
X88152778Y-153242991D01*
X88123448Y-153278729D01*
X88040186Y-153380186D01*
X87938729Y-153463448D01*
X87902991Y-153492778D01*
X87746466Y-153576443D01*
X87576627Y-153627963D01*
X87510443Y-153634481D01*
X87444260Y-153641000D01*
X87355740Y-153641000D01*
X87289557Y-153634481D01*
X87223373Y-153627963D01*
X87053534Y-153576443D01*
X86897009Y-153492778D01*
X86861271Y-153463448D01*
X86759814Y-153380186D01*
X86676552Y-153278729D01*
X86647222Y-153242991D01*
X86563557Y-153086466D01*
X86512037Y-152916627D01*
X86494641Y-152740000D01*
X86512037Y-152563373D01*
X86563557Y-152393534D01*
X86647222Y-152237009D01*
X86676552Y-152201271D01*
X86759814Y-152099814D01*
X86861271Y-152016552D01*
X86897009Y-151987222D01*
X87053534Y-151903557D01*
X87223373Y-151852037D01*
X87289557Y-151845519D01*
X87355740Y-151839000D01*
X87444260Y-151839000D01*
X87510443Y-151845519D01*
X87510443Y-151845519D01*
G37*
G36*
X90050443Y-151845519D02*
G01*
X90116627Y-151852037D01*
X90286466Y-151903557D01*
X90442991Y-151987222D01*
X90478729Y-152016552D01*
X90580186Y-152099814D01*
X90663448Y-152201271D01*
X90692778Y-152237009D01*
X90776443Y-152393534D01*
X90827963Y-152563373D01*
X90845359Y-152740000D01*
X90827963Y-152916627D01*
X90776443Y-153086466D01*
X90692778Y-153242991D01*
X90663448Y-153278729D01*
X90580186Y-153380186D01*
X90478729Y-153463448D01*
X90442991Y-153492778D01*
X90286466Y-153576443D01*
X90116627Y-153627963D01*
X90050443Y-153634481D01*
X89984260Y-153641000D01*
X89895740Y-153641000D01*
X89829557Y-153634481D01*
X89763373Y-153627963D01*
X89593534Y-153576443D01*
X89437009Y-153492778D01*
X89401271Y-153463448D01*
X89299814Y-153380186D01*
X89216552Y-153278729D01*
X89187222Y-153242991D01*
X89103557Y-153086466D01*
X89052037Y-152916627D01*
X89034641Y-152740000D01*
X89052037Y-152563373D01*
X89103557Y-152393534D01*
X89187222Y-152237009D01*
X89216552Y-152201271D01*
X89299814Y-152099814D01*
X89401271Y-152016552D01*
X89437009Y-151987222D01*
X89593534Y-151903557D01*
X89763373Y-151852037D01*
X89829557Y-151845519D01*
X89895740Y-151839000D01*
X89984260Y-151839000D01*
X90050443Y-151845519D01*
X90050443Y-151845519D01*
G37*
G36*
X93381000Y-153641000D02*
G01*
X91579000Y-153641000D01*
X91579000Y-151839000D01*
X93381000Y-151839000D01*
X93381000Y-153641000D01*
X93381000Y-153641000D01*
G37*
G36*
X97600443Y-151845519D02*
G01*
X97666627Y-151852037D01*
X97836466Y-151903557D01*
X97992991Y-151987222D01*
X98028729Y-152016552D01*
X98130186Y-152099814D01*
X98213448Y-152201271D01*
X98242778Y-152237009D01*
X98326443Y-152393534D01*
X98377963Y-152563373D01*
X98395359Y-152740000D01*
X98377963Y-152916627D01*
X98326443Y-153086466D01*
X98242778Y-153242991D01*
X98213448Y-153278729D01*
X98130186Y-153380186D01*
X98028729Y-153463448D01*
X97992991Y-153492778D01*
X97836466Y-153576443D01*
X97666627Y-153627963D01*
X97600443Y-153634481D01*
X97534260Y-153641000D01*
X97445740Y-153641000D01*
X97379557Y-153634481D01*
X97313373Y-153627963D01*
X97143534Y-153576443D01*
X96987009Y-153492778D01*
X96951271Y-153463448D01*
X96849814Y-153380186D01*
X96766552Y-153278729D01*
X96737222Y-153242991D01*
X96653557Y-153086466D01*
X96602037Y-152916627D01*
X96584641Y-152740000D01*
X96602037Y-152563373D01*
X96653557Y-152393534D01*
X96737222Y-152237009D01*
X96766552Y-152201271D01*
X96849814Y-152099814D01*
X96951271Y-152016552D01*
X96987009Y-151987222D01*
X97143534Y-151903557D01*
X97313373Y-151852037D01*
X97379557Y-151845519D01*
X97445740Y-151839000D01*
X97534260Y-151839000D01*
X97600443Y-151845519D01*
X97600443Y-151845519D01*
G37*
G36*
X100140443Y-151845519D02*
G01*
X100206627Y-151852037D01*
X100376466Y-151903557D01*
X100532991Y-151987222D01*
X100568729Y-152016552D01*
X100670186Y-152099814D01*
X100753448Y-152201271D01*
X100782778Y-152237009D01*
X100866443Y-152393534D01*
X100917963Y-152563373D01*
X100935359Y-152740000D01*
X100917963Y-152916627D01*
X100866443Y-153086466D01*
X100782778Y-153242991D01*
X100753448Y-153278729D01*
X100670186Y-153380186D01*
X100568729Y-153463448D01*
X100532991Y-153492778D01*
X100376466Y-153576443D01*
X100206627Y-153627963D01*
X100140443Y-153634481D01*
X100074260Y-153641000D01*
X99985740Y-153641000D01*
X99919557Y-153634481D01*
X99853373Y-153627963D01*
X99683534Y-153576443D01*
X99527009Y-153492778D01*
X99491271Y-153463448D01*
X99389814Y-153380186D01*
X99306552Y-153278729D01*
X99277222Y-153242991D01*
X99193557Y-153086466D01*
X99142037Y-152916627D01*
X99124641Y-152740000D01*
X99142037Y-152563373D01*
X99193557Y-152393534D01*
X99277222Y-152237009D01*
X99306552Y-152201271D01*
X99389814Y-152099814D01*
X99491271Y-152016552D01*
X99527009Y-151987222D01*
X99683534Y-151903557D01*
X99853373Y-151852037D01*
X99919557Y-151845519D01*
X99985740Y-151839000D01*
X100074260Y-151839000D01*
X100140443Y-151845519D01*
X100140443Y-151845519D01*
G37*
G36*
X67350443Y-151845519D02*
G01*
X67416627Y-151852037D01*
X67586466Y-151903557D01*
X67742991Y-151987222D01*
X67778729Y-152016552D01*
X67880186Y-152099814D01*
X67963448Y-152201271D01*
X67992778Y-152237009D01*
X68076443Y-152393534D01*
X68127963Y-152563373D01*
X68145359Y-152740000D01*
X68127963Y-152916627D01*
X68076443Y-153086466D01*
X67992778Y-153242991D01*
X67963448Y-153278729D01*
X67880186Y-153380186D01*
X67778729Y-153463448D01*
X67742991Y-153492778D01*
X67586466Y-153576443D01*
X67416627Y-153627963D01*
X67350443Y-153634481D01*
X67284260Y-153641000D01*
X67195740Y-153641000D01*
X67129557Y-153634481D01*
X67063373Y-153627963D01*
X66893534Y-153576443D01*
X66737009Y-153492778D01*
X66701271Y-153463448D01*
X66599814Y-153380186D01*
X66516552Y-153278729D01*
X66487222Y-153242991D01*
X66403557Y-153086466D01*
X66352037Y-152916627D01*
X66334641Y-152740000D01*
X66352037Y-152563373D01*
X66403557Y-152393534D01*
X66487222Y-152237009D01*
X66516552Y-152201271D01*
X66599814Y-152099814D01*
X66701271Y-152016552D01*
X66737009Y-151987222D01*
X66893534Y-151903557D01*
X67063373Y-151852037D01*
X67129557Y-151845519D01*
X67195740Y-151839000D01*
X67284260Y-151839000D01*
X67350443Y-151845519D01*
X67350443Y-151845519D01*
G37*
G36*
X44468843Y-149892292D02*
G01*
X44519588Y-149913311D01*
X44555470Y-149928174D01*
X44633432Y-149980267D01*
X44699733Y-150046568D01*
X44751826Y-150124530D01*
X44751826Y-150124531D01*
X44787708Y-150211157D01*
X44806000Y-150303117D01*
X44806000Y-150396883D01*
X44787708Y-150488843D01*
X44766689Y-150539588D01*
X44751826Y-150575470D01*
X44699733Y-150653432D01*
X44633432Y-150719733D01*
X44555470Y-150771826D01*
X44519588Y-150786689D01*
X44468843Y-150807708D01*
X44376883Y-150826000D01*
X44283117Y-150826000D01*
X44191157Y-150807708D01*
X44140412Y-150786689D01*
X44104530Y-150771826D01*
X44026568Y-150719733D01*
X43960267Y-150653432D01*
X43908174Y-150575470D01*
X43893311Y-150539588D01*
X43872292Y-150488843D01*
X43854000Y-150396883D01*
X43854000Y-150303117D01*
X43872292Y-150211157D01*
X43908174Y-150124531D01*
X43908174Y-150124530D01*
X43960267Y-150046568D01*
X44026568Y-149980267D01*
X44104530Y-149928174D01*
X44140412Y-149913311D01*
X44191157Y-149892292D01*
X44283117Y-149874000D01*
X44376883Y-149874000D01*
X44468843Y-149892292D01*
X44468843Y-149892292D01*
G37*
G36*
X45718843Y-149892292D02*
G01*
X45769588Y-149913311D01*
X45805470Y-149928174D01*
X45883432Y-149980267D01*
X45949733Y-150046568D01*
X46001826Y-150124530D01*
X46001826Y-150124531D01*
X46037708Y-150211157D01*
X46056000Y-150303117D01*
X46056000Y-150396883D01*
X46037708Y-150488843D01*
X46016689Y-150539588D01*
X46001826Y-150575470D01*
X45949733Y-150653432D01*
X45883432Y-150719733D01*
X45805470Y-150771826D01*
X45769588Y-150786689D01*
X45718843Y-150807708D01*
X45626883Y-150826000D01*
X45533117Y-150826000D01*
X45441157Y-150807708D01*
X45390412Y-150786689D01*
X45354530Y-150771826D01*
X45276568Y-150719733D01*
X45210267Y-150653432D01*
X45158174Y-150575470D01*
X45143311Y-150539588D01*
X45122292Y-150488843D01*
X45104000Y-150396883D01*
X45104000Y-150303117D01*
X45122292Y-150211157D01*
X45158174Y-150124531D01*
X45158174Y-150124530D01*
X45210267Y-150046568D01*
X45276568Y-149980267D01*
X45354530Y-149928174D01*
X45390412Y-149913311D01*
X45441157Y-149892292D01*
X45533117Y-149874000D01*
X45626883Y-149874000D01*
X45718843Y-149892292D01*
X45718843Y-149892292D01*
G37*
G36*
X46968843Y-149892292D02*
G01*
X47019588Y-149913311D01*
X47055470Y-149928174D01*
X47133432Y-149980267D01*
X47199733Y-150046568D01*
X47251826Y-150124530D01*
X47251826Y-150124531D01*
X47287708Y-150211157D01*
X47306000Y-150303117D01*
X47306000Y-150396883D01*
X47287708Y-150488843D01*
X47266689Y-150539588D01*
X47251826Y-150575470D01*
X47199733Y-150653432D01*
X47133432Y-150719733D01*
X47055470Y-150771826D01*
X47019588Y-150786689D01*
X46968843Y-150807708D01*
X46876883Y-150826000D01*
X46783117Y-150826000D01*
X46691157Y-150807708D01*
X46640412Y-150786689D01*
X46604530Y-150771826D01*
X46526568Y-150719733D01*
X46460267Y-150653432D01*
X46408174Y-150575470D01*
X46393311Y-150539588D01*
X46372292Y-150488843D01*
X46354000Y-150396883D01*
X46354000Y-150303117D01*
X46372292Y-150211157D01*
X46408174Y-150124531D01*
X46408174Y-150124530D01*
X46460267Y-150046568D01*
X46526568Y-149980267D01*
X46604530Y-149928174D01*
X46640412Y-149913311D01*
X46691157Y-149892292D01*
X46783117Y-149874000D01*
X46876883Y-149874000D01*
X46968843Y-149892292D01*
X46968843Y-149892292D01*
G37*
G36*
X48218843Y-149892292D02*
G01*
X48269588Y-149913311D01*
X48305470Y-149928174D01*
X48383432Y-149980267D01*
X48449733Y-150046568D01*
X48501826Y-150124530D01*
X48501826Y-150124531D01*
X48537708Y-150211157D01*
X48556000Y-150303117D01*
X48556000Y-150396883D01*
X48537708Y-150488843D01*
X48516689Y-150539588D01*
X48501826Y-150575470D01*
X48449733Y-150653432D01*
X48383432Y-150719733D01*
X48305470Y-150771826D01*
X48269588Y-150786689D01*
X48218843Y-150807708D01*
X48126883Y-150826000D01*
X48033117Y-150826000D01*
X47941157Y-150807708D01*
X47890412Y-150786689D01*
X47854530Y-150771826D01*
X47776568Y-150719733D01*
X47710267Y-150653432D01*
X47658174Y-150575470D01*
X47643311Y-150539588D01*
X47622292Y-150488843D01*
X47604000Y-150396883D01*
X47604000Y-150303117D01*
X47622292Y-150211157D01*
X47658174Y-150124531D01*
X47658174Y-150124530D01*
X47710267Y-150046568D01*
X47776568Y-149980267D01*
X47854530Y-149928174D01*
X47890412Y-149913311D01*
X47941157Y-149892292D01*
X48033117Y-149874000D01*
X48126883Y-149874000D01*
X48218843Y-149892292D01*
X48218843Y-149892292D01*
G37*
G36*
X49468843Y-149892292D02*
G01*
X49519588Y-149913311D01*
X49555470Y-149928174D01*
X49633432Y-149980267D01*
X49699733Y-150046568D01*
X49751826Y-150124530D01*
X49751826Y-150124531D01*
X49787708Y-150211157D01*
X49806000Y-150303117D01*
X49806000Y-150396883D01*
X49787708Y-150488843D01*
X49766689Y-150539588D01*
X49751826Y-150575470D01*
X49699733Y-150653432D01*
X49633432Y-150719733D01*
X49555470Y-150771826D01*
X49519588Y-150786689D01*
X49468843Y-150807708D01*
X49376883Y-150826000D01*
X49283117Y-150826000D01*
X49191157Y-150807708D01*
X49140412Y-150786689D01*
X49104530Y-150771826D01*
X49026568Y-150719733D01*
X48960267Y-150653432D01*
X48908174Y-150575470D01*
X48893311Y-150539588D01*
X48872292Y-150488843D01*
X48854000Y-150396883D01*
X48854000Y-150303117D01*
X48872292Y-150211157D01*
X48908174Y-150124531D01*
X48908174Y-150124530D01*
X48960267Y-150046568D01*
X49026568Y-149980267D01*
X49104530Y-149928174D01*
X49140412Y-149913311D01*
X49191157Y-149892292D01*
X49283117Y-149874000D01*
X49376883Y-149874000D01*
X49468843Y-149892292D01*
X49468843Y-149892292D01*
G37*
G36*
X43556000Y-150826000D02*
G01*
X42604000Y-150826000D01*
X42604000Y-149874000D01*
X43556000Y-149874000D01*
X43556000Y-150826000D01*
X43556000Y-150826000D01*
G37*
G36*
X115848903Y-141963213D02*
G01*
X116071177Y-142007426D01*
X116489932Y-142180880D01*
X116866802Y-142432696D01*
X117187304Y-142753198D01*
X117439120Y-143130068D01*
X117612574Y-143548823D01*
X117701000Y-143993371D01*
X117701000Y-144446629D01*
X117612574Y-144891177D01*
X117439120Y-145309932D01*
X117187304Y-145686802D01*
X116866802Y-146007304D01*
X116489932Y-146259120D01*
X116071177Y-146432574D01*
X115848903Y-146476787D01*
X115626630Y-146521000D01*
X115173370Y-146521000D01*
X114951097Y-146476787D01*
X114728823Y-146432574D01*
X114310068Y-146259120D01*
X113933198Y-146007304D01*
X113612696Y-145686802D01*
X113360880Y-145309932D01*
X113187426Y-144891177D01*
X113099000Y-144446629D01*
X113099000Y-143993371D01*
X113187426Y-143548823D01*
X113360880Y-143130068D01*
X113612696Y-142753198D01*
X113933198Y-142432696D01*
X114310068Y-142180880D01*
X114728823Y-142007426D01*
X114951097Y-141963213D01*
X115173370Y-141919000D01*
X115626630Y-141919000D01*
X115848903Y-141963213D01*
X115848903Y-141963213D01*
G37*
G36*
X39648903Y-141953213D02*
G01*
X39871177Y-141997426D01*
X40289932Y-142170880D01*
X40666802Y-142422696D01*
X40987304Y-142743198D01*
X41239120Y-143120068D01*
X41412574Y-143538823D01*
X41501000Y-143983371D01*
X41501000Y-144436629D01*
X41412574Y-144881177D01*
X41239120Y-145299932D01*
X40987304Y-145676802D01*
X40666802Y-145997304D01*
X40289932Y-146249120D01*
X39871177Y-146422574D01*
X39648903Y-146466787D01*
X39426630Y-146511000D01*
X38973370Y-146511000D01*
X38751097Y-146466787D01*
X38528823Y-146422574D01*
X38110068Y-146249120D01*
X37733198Y-145997304D01*
X37412696Y-145676802D01*
X37160880Y-145299932D01*
X36987426Y-144881177D01*
X36899000Y-144436629D01*
X36899000Y-143983371D01*
X36987426Y-143538823D01*
X37160880Y-143120068D01*
X37412696Y-142743198D01*
X37733198Y-142422696D01*
X38110068Y-142170880D01*
X38528823Y-141997426D01*
X38751097Y-141953213D01*
X38973370Y-141909000D01*
X39426630Y-141909000D01*
X39648903Y-141953213D01*
X39648903Y-141953213D01*
G37*
M02*
