G04 #@! TF.GenerationSoftware,KiCad,Pcbnew,(5.1.2)-2*
G04 #@! TF.CreationDate,2021-11-10T11:22:02-03:00*
G04 #@! TF.ProjectId,MAG_Plus,4d41475f-506c-4757-932e-6b696361645f,rev?*
G04 #@! TF.SameCoordinates,Original*
G04 #@! TF.FileFunction,Legend,Bot*
G04 #@! TF.FilePolarity,Positive*
%FSLAX46Y46*%
G04 Gerber Fmt 4.6, Leading zero omitted, Abs format (unit mm)*
G04 Created by KiCad (PCBNEW (5.1.2)-2) date 2021-11-10 11:22:02*
%MOMM*%
%LPD*%
G04 APERTURE LIST*
%ADD10C,0.120000*%
%ADD11C,0.150000*%
G04 APERTURE END LIST*
D10*
X54236000Y-161036000D02*
G75*
G03X54236000Y-161036000I-7500000J0D01*
G01*
X54400000Y-147400000D02*
X54400000Y-177600000D01*
X45030000Y-169780000D02*
X45030000Y-170540000D01*
X45790000Y-169780000D02*
X45030000Y-169780000D01*
X51130000Y-177370000D02*
X51130000Y-173370000D01*
X50610000Y-177370000D02*
X51130000Y-177370000D01*
X50610000Y-173370000D02*
X50610000Y-177370000D01*
X50219677Y-172250000D02*
X50250323Y-172250000D01*
X50235000Y-172250000D02*
X50235000Y-173370000D01*
X49860000Y-177370000D02*
X49860000Y-173370000D01*
X49340000Y-177370000D02*
X49860000Y-177370000D01*
X49340000Y-173370000D02*
X49340000Y-177370000D01*
X48949677Y-172250000D02*
X48980323Y-172250000D01*
X48965000Y-172250000D02*
X48965000Y-173370000D01*
X48590000Y-177370000D02*
X48590000Y-173370000D01*
X48070000Y-177370000D02*
X48590000Y-177370000D01*
X48070000Y-173370000D02*
X48070000Y-177370000D01*
X47679677Y-172250000D02*
X47710323Y-172250000D01*
X47695000Y-172250000D02*
X47695000Y-173370000D01*
X47320000Y-177370000D02*
X47320000Y-173370000D01*
X46800000Y-177370000D02*
X47320000Y-177370000D01*
X46800000Y-173370000D02*
X46800000Y-177370000D01*
X46409677Y-172250000D02*
X46440323Y-172250000D01*
X46425000Y-172250000D02*
X46425000Y-173370000D01*
X45950000Y-173370000D02*
X45950000Y-177370000D01*
X45830000Y-173370000D02*
X45830000Y-177370000D01*
X45710000Y-173370000D02*
X45710000Y-177370000D01*
X45590000Y-173370000D02*
X45590000Y-177370000D01*
X46050000Y-177370000D02*
X46050000Y-173370000D01*
X45530000Y-177370000D02*
X46050000Y-177370000D01*
X45530000Y-173370000D02*
X45530000Y-177370000D01*
X51565000Y-172250000D02*
X51489677Y-172250000D01*
X51565000Y-173370000D02*
X51565000Y-172250000D01*
X45095000Y-173370000D02*
X51565000Y-173370000D01*
X45095000Y-172250000D02*
X45095000Y-173370000D01*
X45170323Y-172250000D02*
X45095000Y-172250000D01*
X108730000Y-158880000D02*
X111390000Y-158880000D01*
X108730000Y-171640000D02*
X108730000Y-158880000D01*
X111390000Y-171640000D02*
X111390000Y-158880000D01*
X108730000Y-171640000D02*
X111390000Y-171640000D01*
X108730000Y-172910000D02*
X108730000Y-174240000D01*
X108730000Y-174240000D02*
X110060000Y-174240000D01*
X103900000Y-154070000D02*
X103900000Y-152740000D01*
X102570000Y-154070000D02*
X103900000Y-154070000D01*
X101300000Y-154070000D02*
X101300000Y-151410000D01*
X101300000Y-151410000D02*
X96160000Y-151410000D01*
X101300000Y-154070000D02*
X96160000Y-154070000D01*
X96160000Y-154070000D02*
X96160000Y-151410000D01*
X86070000Y-154070000D02*
X86070000Y-151410000D01*
X91210000Y-154070000D02*
X86070000Y-154070000D01*
X91210000Y-151410000D02*
X86070000Y-151410000D01*
X91210000Y-154070000D02*
X91210000Y-151410000D01*
X92480000Y-154070000D02*
X93810000Y-154070000D01*
X93810000Y-154070000D02*
X93810000Y-152740000D01*
X67900000Y-188940000D02*
X67900000Y-190270000D01*
X69230000Y-188940000D02*
X67900000Y-188940000D01*
X70500000Y-188940000D02*
X70500000Y-191600000D01*
X70500000Y-191600000D02*
X83260000Y-191600000D01*
X70500000Y-188940000D02*
X83260000Y-188940000D01*
X83260000Y-188940000D02*
X83260000Y-191600000D01*
X83730000Y-154070000D02*
X83730000Y-152740000D01*
X82400000Y-154070000D02*
X83730000Y-154070000D01*
X81130000Y-154070000D02*
X81130000Y-151410000D01*
X81130000Y-151410000D02*
X75990000Y-151410000D01*
X81130000Y-154070000D02*
X75990000Y-154070000D01*
X75990000Y-154070000D02*
X75990000Y-151410000D01*
X65910000Y-154070000D02*
X65910000Y-151410000D01*
X71050000Y-154070000D02*
X65910000Y-154070000D01*
X71050000Y-151410000D02*
X65910000Y-151410000D01*
X71050000Y-154070000D02*
X71050000Y-151410000D01*
X72320000Y-154070000D02*
X73650000Y-154070000D01*
X73650000Y-154070000D02*
X73650000Y-152740000D01*
X61050000Y-158890000D02*
X59720000Y-158890000D01*
X61050000Y-160220000D02*
X61050000Y-158890000D01*
X61050000Y-161490000D02*
X58390000Y-161490000D01*
X58390000Y-161490000D02*
X58390000Y-174250000D01*
X61050000Y-161490000D02*
X61050000Y-174250000D01*
X61050000Y-174250000D02*
X58390000Y-174250000D01*
D11*
X43607380Y-172797976D02*
X44321666Y-172797976D01*
X44464523Y-172750357D01*
X44559761Y-172655119D01*
X44607380Y-172512261D01*
X44607380Y-172417023D01*
X44607380Y-173797976D02*
X44607380Y-173226547D01*
X44607380Y-173512261D02*
X43607380Y-173512261D01*
X43750238Y-173417023D01*
X43845476Y-173321785D01*
X43893095Y-173226547D01*
X43607380Y-174131309D02*
X43607380Y-174797976D01*
X44607380Y-174369404D01*
X110869523Y-174692380D02*
X110869523Y-175406666D01*
X110917142Y-175549523D01*
X111012380Y-175644761D01*
X111155238Y-175692380D01*
X111250476Y-175692380D01*
X109869523Y-175692380D02*
X110440952Y-175692380D01*
X110155238Y-175692380D02*
X110155238Y-174692380D01*
X110250476Y-174835238D01*
X110345714Y-174930476D01*
X110440952Y-174978095D01*
X109298095Y-175120952D02*
X109393333Y-175073333D01*
X109440952Y-175025714D01*
X109488571Y-174930476D01*
X109488571Y-174882857D01*
X109440952Y-174787619D01*
X109393333Y-174740000D01*
X109298095Y-174692380D01*
X109107619Y-174692380D01*
X109012380Y-174740000D01*
X108964761Y-174787619D01*
X108917142Y-174882857D01*
X108917142Y-174930476D01*
X108964761Y-175025714D01*
X109012380Y-175073333D01*
X109107619Y-175120952D01*
X109298095Y-175120952D01*
X109393333Y-175168571D01*
X109440952Y-175216190D01*
X109488571Y-175311428D01*
X109488571Y-175501904D01*
X109440952Y-175597142D01*
X109393333Y-175644761D01*
X109298095Y-175692380D01*
X109107619Y-175692380D01*
X109012380Y-175644761D01*
X108964761Y-175597142D01*
X108917142Y-175501904D01*
X108917142Y-175311428D01*
X108964761Y-175216190D01*
X109012380Y-175168571D01*
X109107619Y-175120952D01*
X100789523Y-149822380D02*
X100789523Y-150536666D01*
X100837142Y-150679523D01*
X100932380Y-150774761D01*
X101075238Y-150822380D01*
X101170476Y-150822380D01*
X99789523Y-150822380D02*
X100360952Y-150822380D01*
X100075238Y-150822380D02*
X100075238Y-149822380D01*
X100170476Y-149965238D01*
X100265714Y-150060476D01*
X100360952Y-150108095D01*
X99313333Y-150822380D02*
X99122857Y-150822380D01*
X99027619Y-150774761D01*
X98980000Y-150727142D01*
X98884761Y-150584285D01*
X98837142Y-150393809D01*
X98837142Y-150012857D01*
X98884761Y-149917619D01*
X98932380Y-149870000D01*
X99027619Y-149822380D01*
X99218095Y-149822380D01*
X99313333Y-149870000D01*
X99360952Y-149917619D01*
X99408571Y-150012857D01*
X99408571Y-150250952D01*
X99360952Y-150346190D01*
X99313333Y-150393809D01*
X99218095Y-150441428D01*
X99027619Y-150441428D01*
X98932380Y-150393809D01*
X98884761Y-150346190D01*
X98837142Y-150250952D01*
X90379523Y-149832380D02*
X90379523Y-150546666D01*
X90427142Y-150689523D01*
X90522380Y-150784761D01*
X90665238Y-150832380D01*
X90760476Y-150832380D01*
X89950952Y-149927619D02*
X89903333Y-149880000D01*
X89808095Y-149832380D01*
X89570000Y-149832380D01*
X89474761Y-149880000D01*
X89427142Y-149927619D01*
X89379523Y-150022857D01*
X89379523Y-150118095D01*
X89427142Y-150260952D01*
X89998571Y-150832380D01*
X89379523Y-150832380D01*
X88760476Y-149832380D02*
X88665238Y-149832380D01*
X88570000Y-149880000D01*
X88522380Y-149927619D01*
X88474761Y-150022857D01*
X88427142Y-150213333D01*
X88427142Y-150451428D01*
X88474761Y-150641904D01*
X88522380Y-150737142D01*
X88570000Y-150784761D01*
X88665238Y-150832380D01*
X88760476Y-150832380D01*
X88855714Y-150784761D01*
X88903333Y-150737142D01*
X88950952Y-150641904D01*
X88998571Y-150451428D01*
X88998571Y-150213333D01*
X88950952Y-150022857D01*
X88903333Y-149927619D01*
X88855714Y-149880000D01*
X88760476Y-149832380D01*
X66352380Y-189460476D02*
X67066666Y-189460476D01*
X67209523Y-189412857D01*
X67304761Y-189317619D01*
X67352380Y-189174761D01*
X67352380Y-189079523D01*
X66447619Y-189889047D02*
X66400000Y-189936666D01*
X66352380Y-190031904D01*
X66352380Y-190270000D01*
X66400000Y-190365238D01*
X66447619Y-190412857D01*
X66542857Y-190460476D01*
X66638095Y-190460476D01*
X66780952Y-190412857D01*
X67352380Y-189841428D01*
X67352380Y-190460476D01*
X67352380Y-191412857D02*
X67352380Y-190841428D01*
X67352380Y-191127142D02*
X66352380Y-191127142D01*
X66495238Y-191031904D01*
X66590476Y-190936666D01*
X66638095Y-190841428D01*
X80659523Y-149812380D02*
X80659523Y-150526666D01*
X80707142Y-150669523D01*
X80802380Y-150764761D01*
X80945238Y-150812380D01*
X81040476Y-150812380D01*
X80230952Y-149907619D02*
X80183333Y-149860000D01*
X80088095Y-149812380D01*
X79850000Y-149812380D01*
X79754761Y-149860000D01*
X79707142Y-149907619D01*
X79659523Y-150002857D01*
X79659523Y-150098095D01*
X79707142Y-150240952D01*
X80278571Y-150812380D01*
X79659523Y-150812380D01*
X79278571Y-149907619D02*
X79230952Y-149860000D01*
X79135714Y-149812380D01*
X78897619Y-149812380D01*
X78802380Y-149860000D01*
X78754761Y-149907619D01*
X78707142Y-150002857D01*
X78707142Y-150098095D01*
X78754761Y-150240952D01*
X79326190Y-150812380D01*
X78707142Y-150812380D01*
X70579523Y-149962380D02*
X70579523Y-150676666D01*
X70627142Y-150819523D01*
X70722380Y-150914761D01*
X70865238Y-150962380D01*
X70960476Y-150962380D01*
X70150952Y-150057619D02*
X70103333Y-150010000D01*
X70008095Y-149962380D01*
X69770000Y-149962380D01*
X69674761Y-150010000D01*
X69627142Y-150057619D01*
X69579523Y-150152857D01*
X69579523Y-150248095D01*
X69627142Y-150390952D01*
X70198571Y-150962380D01*
X69579523Y-150962380D01*
X69246190Y-149962380D02*
X68627142Y-149962380D01*
X68960476Y-150343333D01*
X68817619Y-150343333D01*
X68722380Y-150390952D01*
X68674761Y-150438571D01*
X68627142Y-150533809D01*
X68627142Y-150771904D01*
X68674761Y-150867142D01*
X68722380Y-150914761D01*
X68817619Y-150962380D01*
X69103333Y-150962380D01*
X69198571Y-150914761D01*
X69246190Y-150867142D01*
X60529523Y-157342380D02*
X60529523Y-158056666D01*
X60577142Y-158199523D01*
X60672380Y-158294761D01*
X60815238Y-158342380D01*
X60910476Y-158342380D01*
X60100952Y-157437619D02*
X60053333Y-157390000D01*
X59958095Y-157342380D01*
X59720000Y-157342380D01*
X59624761Y-157390000D01*
X59577142Y-157437619D01*
X59529523Y-157532857D01*
X59529523Y-157628095D01*
X59577142Y-157770952D01*
X60148571Y-158342380D01*
X59529523Y-158342380D01*
X58672380Y-157675714D02*
X58672380Y-158342380D01*
X58910476Y-157294761D02*
X59148571Y-158009047D01*
X58529523Y-158009047D01*
M02*
