M48
; DRILL file {KiCad (5.1.2)-2} date 10/11/2021 11:22:00
; FORMAT={-:-/ absolute / metric / decimal}
; #@! TF.CreationDate,2021-11-10T11:22:00-03:00
; #@! TF.GenerationSoftware,Kicad,Pcbnew,(5.1.2)-2
FMAT,2
METRIC
T1C0.400
T2C0.500
T3C0.650
T4C1.000
T5C2.700
%
G90
G05
T1
X52.85Y-167.84
X56.99Y-157.41
T2
X43.08Y-150.35
X44.33Y-150.35
X45.58Y-150.35
X46.83Y-150.35
X48.08Y-150.35
X49.33Y-150.35
T3
X45.79Y-170.54
X45.79Y-171.81
X47.06Y-170.54
X47.06Y-171.81
X48.33Y-170.54
X48.33Y-171.81
X49.6Y-170.54
X49.6Y-171.81
X50.87Y-170.54
X50.87Y-171.81
T4
X87.4Y-152.74
X89.94Y-152.74
X92.48Y-152.74
X97.49Y-152.74
X100.03Y-152.74
X102.57Y-152.74
X69.23Y-190.27
X71.77Y-190.27
X74.31Y-190.27
X76.85Y-190.27
X79.39Y-190.27
X81.93Y-190.27
X59.72Y-160.22
X59.72Y-162.76
X59.72Y-165.3
X59.72Y-167.84
X59.72Y-170.38
X59.72Y-172.92
X110.06Y-160.21
X110.06Y-162.75
X110.06Y-165.29
X110.06Y-167.83
X110.06Y-170.37
X110.06Y-172.91
X67.24Y-152.74
X69.78Y-152.74
X72.32Y-152.74
X77.32Y-152.74
X79.86Y-152.74
X82.4Y-152.74
T5
X39.2Y-144.21
X115.39Y-235.82
X115.4Y-144.22
X39.2Y-235.83
T0
M30
