G04 #@! TF.GenerationSoftware,KiCad,Pcbnew,(5.1.2)-2*
G04 #@! TF.CreationDate,2021-12-15T08:53:20-03:00*
G04 #@! TF.ProjectId,Magnetometer_A,4d61676e-6574-46f6-9d65-7465725f412e,rev?*
G04 #@! TF.SameCoordinates,Original*
G04 #@! TF.FileFunction,Soldermask,Bot*
G04 #@! TF.FilePolarity,Negative*
%FSLAX46Y46*%
G04 Gerber Fmt 4.6, Leading zero omitted, Abs format (unit mm)*
G04 Created by KiCad (PCBNEW (5.1.2)-2) date 2021-12-15 08:53:20*
%MOMM*%
%LPD*%
G04 APERTURE LIST*
%ADD10C,0.100000*%
G04 APERTURE END LIST*
D10*
G36*
X120590988Y-238017973D02*
G01*
X121153539Y-238250989D01*
X121178084Y-238261156D01*
X121706455Y-238614202D01*
X122155798Y-239063545D01*
X122508844Y-239591916D01*
X122508845Y-239591918D01*
X122752027Y-240179012D01*
X122876000Y-240802265D01*
X122876000Y-241437735D01*
X122752027Y-242060988D01*
X122508845Y-242648082D01*
X122508844Y-242648084D01*
X122155798Y-243176455D01*
X121706455Y-243625798D01*
X121178084Y-243978844D01*
X121178083Y-243978845D01*
X121178082Y-243978845D01*
X120590988Y-244222027D01*
X119967735Y-244346000D01*
X119332265Y-244346000D01*
X118709012Y-244222027D01*
X118121918Y-243978845D01*
X118121917Y-243978845D01*
X118121916Y-243978844D01*
X117593545Y-243625798D01*
X117144202Y-243176455D01*
X116791156Y-242648084D01*
X116791155Y-242648082D01*
X116547973Y-242060988D01*
X116424000Y-241437735D01*
X116424000Y-240802265D01*
X116547973Y-240179012D01*
X116791155Y-239591918D01*
X116791156Y-239591916D01*
X117144202Y-239063545D01*
X117593545Y-238614202D01*
X118121916Y-238261156D01*
X118146461Y-238250989D01*
X118709012Y-238017973D01*
X119332265Y-237894000D01*
X119967735Y-237894000D01*
X120590988Y-238017973D01*
X120590988Y-238017973D01*
G37*
G36*
X34860988Y-234207973D02*
G01*
X35448082Y-234451155D01*
X35448084Y-234451156D01*
X35976455Y-234804202D01*
X36425798Y-235253545D01*
X36778844Y-235781916D01*
X36778845Y-235781918D01*
X37022027Y-236369012D01*
X37146000Y-236992265D01*
X37146000Y-237627735D01*
X37022027Y-238250988D01*
X37017815Y-238261156D01*
X36778844Y-238838084D01*
X36425798Y-239366455D01*
X35976455Y-239815798D01*
X35448084Y-240168844D01*
X35448083Y-240168845D01*
X35448082Y-240168845D01*
X34860988Y-240412027D01*
X34237735Y-240536000D01*
X33602265Y-240536000D01*
X32979012Y-240412027D01*
X32391918Y-240168845D01*
X32391917Y-240168845D01*
X32391916Y-240168844D01*
X31863545Y-239815798D01*
X31414202Y-239366455D01*
X31061156Y-238838084D01*
X30822185Y-238261156D01*
X30817973Y-238250988D01*
X30694000Y-237627735D01*
X30694000Y-236992265D01*
X30817973Y-236369012D01*
X31061155Y-235781918D01*
X31061156Y-235781916D01*
X31414202Y-235253545D01*
X31863545Y-234804202D01*
X32391916Y-234451156D01*
X32391918Y-234451155D01*
X32979012Y-234207973D01*
X33602265Y-234084000D01*
X34237735Y-234084000D01*
X34860988Y-234207973D01*
X34860988Y-234207973D01*
G37*
G36*
X108306000Y-236786000D02*
G01*
X107354000Y-236786000D01*
X107354000Y-235834000D01*
X108306000Y-235834000D01*
X108306000Y-236786000D01*
X108306000Y-236786000D01*
G37*
G36*
X110468843Y-235852292D02*
G01*
X110519588Y-235873311D01*
X110555470Y-235888174D01*
X110633432Y-235940267D01*
X110699733Y-236006568D01*
X110751826Y-236084530D01*
X110751826Y-236084531D01*
X110787708Y-236171157D01*
X110806000Y-236263117D01*
X110806000Y-236356883D01*
X110787708Y-236448843D01*
X110766689Y-236499588D01*
X110751826Y-236535470D01*
X110699733Y-236613432D01*
X110633432Y-236679733D01*
X110555470Y-236731826D01*
X110519588Y-236746689D01*
X110468843Y-236767708D01*
X110376883Y-236786000D01*
X110283117Y-236786000D01*
X110191157Y-236767708D01*
X110140412Y-236746689D01*
X110104530Y-236731826D01*
X110026568Y-236679733D01*
X109960267Y-236613432D01*
X109908174Y-236535470D01*
X109893311Y-236499588D01*
X109872292Y-236448843D01*
X109854000Y-236356883D01*
X109854000Y-236263117D01*
X109872292Y-236171157D01*
X109908174Y-236084531D01*
X109908174Y-236084530D01*
X109960267Y-236006568D01*
X110026568Y-235940267D01*
X110104530Y-235888174D01*
X110140412Y-235873311D01*
X110191157Y-235852292D01*
X110283117Y-235834000D01*
X110376883Y-235834000D01*
X110468843Y-235852292D01*
X110468843Y-235852292D01*
G37*
G36*
X111718843Y-235852292D02*
G01*
X111769588Y-235873311D01*
X111805470Y-235888174D01*
X111883432Y-235940267D01*
X111949733Y-236006568D01*
X112001826Y-236084530D01*
X112001826Y-236084531D01*
X112037708Y-236171157D01*
X112056000Y-236263117D01*
X112056000Y-236356883D01*
X112037708Y-236448843D01*
X112016689Y-236499588D01*
X112001826Y-236535470D01*
X111949733Y-236613432D01*
X111883432Y-236679733D01*
X111805470Y-236731826D01*
X111769588Y-236746689D01*
X111718843Y-236767708D01*
X111626883Y-236786000D01*
X111533117Y-236786000D01*
X111441157Y-236767708D01*
X111390412Y-236746689D01*
X111354530Y-236731826D01*
X111276568Y-236679733D01*
X111210267Y-236613432D01*
X111158174Y-236535470D01*
X111143311Y-236499588D01*
X111122292Y-236448843D01*
X111104000Y-236356883D01*
X111104000Y-236263117D01*
X111122292Y-236171157D01*
X111158174Y-236084531D01*
X111158174Y-236084530D01*
X111210267Y-236006568D01*
X111276568Y-235940267D01*
X111354530Y-235888174D01*
X111390412Y-235873311D01*
X111441157Y-235852292D01*
X111533117Y-235834000D01*
X111626883Y-235834000D01*
X111718843Y-235852292D01*
X111718843Y-235852292D01*
G37*
G36*
X109218843Y-235852292D02*
G01*
X109269588Y-235873311D01*
X109305470Y-235888174D01*
X109383432Y-235940267D01*
X109449733Y-236006568D01*
X109501826Y-236084530D01*
X109501826Y-236084531D01*
X109537708Y-236171157D01*
X109556000Y-236263117D01*
X109556000Y-236356883D01*
X109537708Y-236448843D01*
X109516689Y-236499588D01*
X109501826Y-236535470D01*
X109449733Y-236613432D01*
X109383432Y-236679733D01*
X109305470Y-236731826D01*
X109269588Y-236746689D01*
X109218843Y-236767708D01*
X109126883Y-236786000D01*
X109033117Y-236786000D01*
X108941157Y-236767708D01*
X108890412Y-236746689D01*
X108854530Y-236731826D01*
X108776568Y-236679733D01*
X108710267Y-236613432D01*
X108658174Y-236535470D01*
X108643311Y-236499588D01*
X108622292Y-236448843D01*
X108604000Y-236356883D01*
X108604000Y-236263117D01*
X108622292Y-236171157D01*
X108658174Y-236084531D01*
X108658174Y-236084530D01*
X108710267Y-236006568D01*
X108776568Y-235940267D01*
X108854530Y-235888174D01*
X108890412Y-235873311D01*
X108941157Y-235852292D01*
X109033117Y-235834000D01*
X109126883Y-235834000D01*
X109218843Y-235852292D01*
X109218843Y-235852292D01*
G37*
G36*
X34148228Y-231411703D02*
G01*
X34303100Y-231475853D01*
X34442481Y-231568985D01*
X34561015Y-231687519D01*
X34654147Y-231826900D01*
X34718297Y-231981772D01*
X34751000Y-232146184D01*
X34751000Y-232313816D01*
X34718297Y-232478228D01*
X34654147Y-232633100D01*
X34561015Y-232772481D01*
X34442481Y-232891015D01*
X34303100Y-232984147D01*
X34148228Y-233048297D01*
X33983816Y-233081000D01*
X33816184Y-233081000D01*
X33651772Y-233048297D01*
X33496900Y-232984147D01*
X33357519Y-232891015D01*
X33238985Y-232772481D01*
X33145853Y-232633100D01*
X33081703Y-232478228D01*
X33049000Y-232313816D01*
X33049000Y-232146184D01*
X33081703Y-231981772D01*
X33145853Y-231826900D01*
X33238985Y-231687519D01*
X33357519Y-231568985D01*
X33496900Y-231475853D01*
X33651772Y-231411703D01*
X33816184Y-231379000D01*
X33983816Y-231379000D01*
X34148228Y-231411703D01*
X34148228Y-231411703D01*
G37*
G36*
X36688228Y-231411703D02*
G01*
X36843100Y-231475853D01*
X36982481Y-231568985D01*
X37101015Y-231687519D01*
X37194147Y-231826900D01*
X37258297Y-231981772D01*
X37291000Y-232146184D01*
X37291000Y-232313816D01*
X37258297Y-232478228D01*
X37194147Y-232633100D01*
X37101015Y-232772481D01*
X36982481Y-232891015D01*
X36843100Y-232984147D01*
X36688228Y-233048297D01*
X36523816Y-233081000D01*
X36356184Y-233081000D01*
X36191772Y-233048297D01*
X36036900Y-232984147D01*
X35897519Y-232891015D01*
X35778985Y-232772481D01*
X35685853Y-232633100D01*
X35621703Y-232478228D01*
X35589000Y-232313816D01*
X35589000Y-232146184D01*
X35621703Y-231981772D01*
X35685853Y-231826900D01*
X35778985Y-231687519D01*
X35897519Y-231568985D01*
X36036900Y-231475853D01*
X36191772Y-231411703D01*
X36356184Y-231379000D01*
X36523816Y-231379000D01*
X36688228Y-231411703D01*
X36688228Y-231411703D01*
G37*
G36*
X42371000Y-233081000D02*
G01*
X40669000Y-233081000D01*
X40669000Y-231379000D01*
X42371000Y-231379000D01*
X42371000Y-233081000D01*
X42371000Y-233081000D01*
G37*
G36*
X39228228Y-231411703D02*
G01*
X39383100Y-231475853D01*
X39522481Y-231568985D01*
X39641015Y-231687519D01*
X39734147Y-231826900D01*
X39798297Y-231981772D01*
X39831000Y-232146184D01*
X39831000Y-232313816D01*
X39798297Y-232478228D01*
X39734147Y-232633100D01*
X39641015Y-232772481D01*
X39522481Y-232891015D01*
X39383100Y-232984147D01*
X39228228Y-233048297D01*
X39063816Y-233081000D01*
X38896184Y-233081000D01*
X38731772Y-233048297D01*
X38576900Y-232984147D01*
X38437519Y-232891015D01*
X38318985Y-232772481D01*
X38225853Y-232633100D01*
X38161703Y-232478228D01*
X38129000Y-232313816D01*
X38129000Y-232146184D01*
X38161703Y-231981772D01*
X38225853Y-231826900D01*
X38318985Y-231687519D01*
X38437519Y-231568985D01*
X38576900Y-231475853D01*
X38731772Y-231411703D01*
X38896184Y-231379000D01*
X39063816Y-231379000D01*
X39228228Y-231411703D01*
X39228228Y-231411703D01*
G37*
G36*
X41768228Y-228871703D02*
G01*
X41923100Y-228935853D01*
X42062481Y-229028985D01*
X42181015Y-229147519D01*
X42274147Y-229286900D01*
X42338297Y-229441772D01*
X42371000Y-229606184D01*
X42371000Y-229773816D01*
X42338297Y-229938228D01*
X42274147Y-230093100D01*
X42181015Y-230232481D01*
X42062481Y-230351015D01*
X41923100Y-230444147D01*
X41768228Y-230508297D01*
X41603816Y-230541000D01*
X41436184Y-230541000D01*
X41271772Y-230508297D01*
X41116900Y-230444147D01*
X40977519Y-230351015D01*
X40858985Y-230232481D01*
X40765853Y-230093100D01*
X40701703Y-229938228D01*
X40669000Y-229773816D01*
X40669000Y-229606184D01*
X40701703Y-229441772D01*
X40765853Y-229286900D01*
X40858985Y-229147519D01*
X40977519Y-229028985D01*
X41116900Y-228935853D01*
X41271772Y-228871703D01*
X41436184Y-228839000D01*
X41603816Y-228839000D01*
X41768228Y-228871703D01*
X41768228Y-228871703D01*
G37*
G36*
X36688228Y-228871703D02*
G01*
X36843100Y-228935853D01*
X36982481Y-229028985D01*
X37101015Y-229147519D01*
X37194147Y-229286900D01*
X37258297Y-229441772D01*
X37291000Y-229606184D01*
X37291000Y-229773816D01*
X37258297Y-229938228D01*
X37194147Y-230093100D01*
X37101015Y-230232481D01*
X36982481Y-230351015D01*
X36843100Y-230444147D01*
X36688228Y-230508297D01*
X36523816Y-230541000D01*
X36356184Y-230541000D01*
X36191772Y-230508297D01*
X36036900Y-230444147D01*
X35897519Y-230351015D01*
X35778985Y-230232481D01*
X35685853Y-230093100D01*
X35621703Y-229938228D01*
X35589000Y-229773816D01*
X35589000Y-229606184D01*
X35621703Y-229441772D01*
X35685853Y-229286900D01*
X35778985Y-229147519D01*
X35897519Y-229028985D01*
X36036900Y-228935853D01*
X36191772Y-228871703D01*
X36356184Y-228839000D01*
X36523816Y-228839000D01*
X36688228Y-228871703D01*
X36688228Y-228871703D01*
G37*
G36*
X34148228Y-228871703D02*
G01*
X34303100Y-228935853D01*
X34442481Y-229028985D01*
X34561015Y-229147519D01*
X34654147Y-229286900D01*
X34718297Y-229441772D01*
X34751000Y-229606184D01*
X34751000Y-229773816D01*
X34718297Y-229938228D01*
X34654147Y-230093100D01*
X34561015Y-230232481D01*
X34442481Y-230351015D01*
X34303100Y-230444147D01*
X34148228Y-230508297D01*
X33983816Y-230541000D01*
X33816184Y-230541000D01*
X33651772Y-230508297D01*
X33496900Y-230444147D01*
X33357519Y-230351015D01*
X33238985Y-230232481D01*
X33145853Y-230093100D01*
X33081703Y-229938228D01*
X33049000Y-229773816D01*
X33049000Y-229606184D01*
X33081703Y-229441772D01*
X33145853Y-229286900D01*
X33238985Y-229147519D01*
X33357519Y-229028985D01*
X33496900Y-228935853D01*
X33651772Y-228871703D01*
X33816184Y-228839000D01*
X33983816Y-228839000D01*
X34148228Y-228871703D01*
X34148228Y-228871703D01*
G37*
G36*
X39228228Y-228871703D02*
G01*
X39383100Y-228935853D01*
X39522481Y-229028985D01*
X39641015Y-229147519D01*
X39734147Y-229286900D01*
X39798297Y-229441772D01*
X39831000Y-229606184D01*
X39831000Y-229773816D01*
X39798297Y-229938228D01*
X39734147Y-230093100D01*
X39641015Y-230232481D01*
X39522481Y-230351015D01*
X39383100Y-230444147D01*
X39228228Y-230508297D01*
X39063816Y-230541000D01*
X38896184Y-230541000D01*
X38731772Y-230508297D01*
X38576900Y-230444147D01*
X38437519Y-230351015D01*
X38318985Y-230232481D01*
X38225853Y-230093100D01*
X38161703Y-229938228D01*
X38129000Y-229773816D01*
X38129000Y-229606184D01*
X38161703Y-229441772D01*
X38225853Y-229286900D01*
X38318985Y-229147519D01*
X38437519Y-229028985D01*
X38576900Y-228935853D01*
X38731772Y-228871703D01*
X38896184Y-228839000D01*
X39063816Y-228839000D01*
X39228228Y-228871703D01*
X39228228Y-228871703D01*
G37*
G36*
X39228228Y-226331703D02*
G01*
X39383100Y-226395853D01*
X39522481Y-226488985D01*
X39641015Y-226607519D01*
X39734147Y-226746900D01*
X39798297Y-226901772D01*
X39831000Y-227066184D01*
X39831000Y-227233816D01*
X39798297Y-227398228D01*
X39734147Y-227553100D01*
X39641015Y-227692481D01*
X39522481Y-227811015D01*
X39383100Y-227904147D01*
X39228228Y-227968297D01*
X39063816Y-228001000D01*
X38896184Y-228001000D01*
X38731772Y-227968297D01*
X38576900Y-227904147D01*
X38437519Y-227811015D01*
X38318985Y-227692481D01*
X38225853Y-227553100D01*
X38161703Y-227398228D01*
X38129000Y-227233816D01*
X38129000Y-227066184D01*
X38161703Y-226901772D01*
X38225853Y-226746900D01*
X38318985Y-226607519D01*
X38437519Y-226488985D01*
X38576900Y-226395853D01*
X38731772Y-226331703D01*
X38896184Y-226299000D01*
X39063816Y-226299000D01*
X39228228Y-226331703D01*
X39228228Y-226331703D01*
G37*
G36*
X41768228Y-226331703D02*
G01*
X41923100Y-226395853D01*
X42062481Y-226488985D01*
X42181015Y-226607519D01*
X42274147Y-226746900D01*
X42338297Y-226901772D01*
X42371000Y-227066184D01*
X42371000Y-227233816D01*
X42338297Y-227398228D01*
X42274147Y-227553100D01*
X42181015Y-227692481D01*
X42062481Y-227811015D01*
X41923100Y-227904147D01*
X41768228Y-227968297D01*
X41603816Y-228001000D01*
X41436184Y-228001000D01*
X41271772Y-227968297D01*
X41116900Y-227904147D01*
X40977519Y-227811015D01*
X40858985Y-227692481D01*
X40765853Y-227553100D01*
X40701703Y-227398228D01*
X40669000Y-227233816D01*
X40669000Y-227066184D01*
X40701703Y-226901772D01*
X40765853Y-226746900D01*
X40858985Y-226607519D01*
X40977519Y-226488985D01*
X41116900Y-226395853D01*
X41271772Y-226331703D01*
X41436184Y-226299000D01*
X41603816Y-226299000D01*
X41768228Y-226331703D01*
X41768228Y-226331703D01*
G37*
G36*
X36688228Y-226331703D02*
G01*
X36843100Y-226395853D01*
X36982481Y-226488985D01*
X37101015Y-226607519D01*
X37194147Y-226746900D01*
X37258297Y-226901772D01*
X37291000Y-227066184D01*
X37291000Y-227233816D01*
X37258297Y-227398228D01*
X37194147Y-227553100D01*
X37101015Y-227692481D01*
X36982481Y-227811015D01*
X36843100Y-227904147D01*
X36688228Y-227968297D01*
X36523816Y-228001000D01*
X36356184Y-228001000D01*
X36191772Y-227968297D01*
X36036900Y-227904147D01*
X35897519Y-227811015D01*
X35778985Y-227692481D01*
X35685853Y-227553100D01*
X35621703Y-227398228D01*
X35589000Y-227233816D01*
X35589000Y-227066184D01*
X35621703Y-226901772D01*
X35685853Y-226746900D01*
X35778985Y-226607519D01*
X35897519Y-226488985D01*
X36036900Y-226395853D01*
X36191772Y-226331703D01*
X36356184Y-226299000D01*
X36523816Y-226299000D01*
X36688228Y-226331703D01*
X36688228Y-226331703D01*
G37*
G36*
X34148228Y-226331703D02*
G01*
X34303100Y-226395853D01*
X34442481Y-226488985D01*
X34561015Y-226607519D01*
X34654147Y-226746900D01*
X34718297Y-226901772D01*
X34751000Y-227066184D01*
X34751000Y-227233816D01*
X34718297Y-227398228D01*
X34654147Y-227553100D01*
X34561015Y-227692481D01*
X34442481Y-227811015D01*
X34303100Y-227904147D01*
X34148228Y-227968297D01*
X33983816Y-228001000D01*
X33816184Y-228001000D01*
X33651772Y-227968297D01*
X33496900Y-227904147D01*
X33357519Y-227811015D01*
X33238985Y-227692481D01*
X33145853Y-227553100D01*
X33081703Y-227398228D01*
X33049000Y-227233816D01*
X33049000Y-227066184D01*
X33081703Y-226901772D01*
X33145853Y-226746900D01*
X33238985Y-226607519D01*
X33357519Y-226488985D01*
X33496900Y-226395853D01*
X33651772Y-226331703D01*
X33816184Y-226299000D01*
X33983816Y-226299000D01*
X34148228Y-226331703D01*
X34148228Y-226331703D01*
G37*
G36*
X36688228Y-223791703D02*
G01*
X36843100Y-223855853D01*
X36982481Y-223948985D01*
X37101015Y-224067519D01*
X37194147Y-224206900D01*
X37258297Y-224361772D01*
X37291000Y-224526184D01*
X37291000Y-224693816D01*
X37258297Y-224858228D01*
X37194147Y-225013100D01*
X37101015Y-225152481D01*
X36982481Y-225271015D01*
X36843100Y-225364147D01*
X36688228Y-225428297D01*
X36523816Y-225461000D01*
X36356184Y-225461000D01*
X36191772Y-225428297D01*
X36036900Y-225364147D01*
X35897519Y-225271015D01*
X35778985Y-225152481D01*
X35685853Y-225013100D01*
X35621703Y-224858228D01*
X35589000Y-224693816D01*
X35589000Y-224526184D01*
X35621703Y-224361772D01*
X35685853Y-224206900D01*
X35778985Y-224067519D01*
X35897519Y-223948985D01*
X36036900Y-223855853D01*
X36191772Y-223791703D01*
X36356184Y-223759000D01*
X36523816Y-223759000D01*
X36688228Y-223791703D01*
X36688228Y-223791703D01*
G37*
G36*
X39228228Y-223791703D02*
G01*
X39383100Y-223855853D01*
X39522481Y-223948985D01*
X39641015Y-224067519D01*
X39734147Y-224206900D01*
X39798297Y-224361772D01*
X39831000Y-224526184D01*
X39831000Y-224693816D01*
X39798297Y-224858228D01*
X39734147Y-225013100D01*
X39641015Y-225152481D01*
X39522481Y-225271015D01*
X39383100Y-225364147D01*
X39228228Y-225428297D01*
X39063816Y-225461000D01*
X38896184Y-225461000D01*
X38731772Y-225428297D01*
X38576900Y-225364147D01*
X38437519Y-225271015D01*
X38318985Y-225152481D01*
X38225853Y-225013100D01*
X38161703Y-224858228D01*
X38129000Y-224693816D01*
X38129000Y-224526184D01*
X38161703Y-224361772D01*
X38225853Y-224206900D01*
X38318985Y-224067519D01*
X38437519Y-223948985D01*
X38576900Y-223855853D01*
X38731772Y-223791703D01*
X38896184Y-223759000D01*
X39063816Y-223759000D01*
X39228228Y-223791703D01*
X39228228Y-223791703D01*
G37*
G36*
X34148228Y-223791703D02*
G01*
X34303100Y-223855853D01*
X34442481Y-223948985D01*
X34561015Y-224067519D01*
X34654147Y-224206900D01*
X34718297Y-224361772D01*
X34751000Y-224526184D01*
X34751000Y-224693816D01*
X34718297Y-224858228D01*
X34654147Y-225013100D01*
X34561015Y-225152481D01*
X34442481Y-225271015D01*
X34303100Y-225364147D01*
X34148228Y-225428297D01*
X33983816Y-225461000D01*
X33816184Y-225461000D01*
X33651772Y-225428297D01*
X33496900Y-225364147D01*
X33357519Y-225271015D01*
X33238985Y-225152481D01*
X33145853Y-225013100D01*
X33081703Y-224858228D01*
X33049000Y-224693816D01*
X33049000Y-224526184D01*
X33081703Y-224361772D01*
X33145853Y-224206900D01*
X33238985Y-224067519D01*
X33357519Y-223948985D01*
X33496900Y-223855853D01*
X33651772Y-223791703D01*
X33816184Y-223759000D01*
X33983816Y-223759000D01*
X34148228Y-223791703D01*
X34148228Y-223791703D01*
G37*
G36*
X41768228Y-223791703D02*
G01*
X41923100Y-223855853D01*
X42062481Y-223948985D01*
X42181015Y-224067519D01*
X42274147Y-224206900D01*
X42338297Y-224361772D01*
X42371000Y-224526184D01*
X42371000Y-224693816D01*
X42338297Y-224858228D01*
X42274147Y-225013100D01*
X42181015Y-225152481D01*
X42062481Y-225271015D01*
X41923100Y-225364147D01*
X41768228Y-225428297D01*
X41603816Y-225461000D01*
X41436184Y-225461000D01*
X41271772Y-225428297D01*
X41116900Y-225364147D01*
X40977519Y-225271015D01*
X40858985Y-225152481D01*
X40765853Y-225013100D01*
X40701703Y-224858228D01*
X40669000Y-224693816D01*
X40669000Y-224526184D01*
X40701703Y-224361772D01*
X40765853Y-224206900D01*
X40858985Y-224067519D01*
X40977519Y-223948985D01*
X41116900Y-223855853D01*
X41271772Y-223791703D01*
X41436184Y-223759000D01*
X41603816Y-223759000D01*
X41768228Y-223791703D01*
X41768228Y-223791703D01*
G37*
G36*
X115346000Y-223266000D02*
G01*
X114394000Y-223266000D01*
X114394000Y-222314000D01*
X115346000Y-222314000D01*
X115346000Y-223266000D01*
X115346000Y-223266000D01*
G37*
G36*
X41768228Y-221251703D02*
G01*
X41923100Y-221315853D01*
X42062481Y-221408985D01*
X42181015Y-221527519D01*
X42274147Y-221666900D01*
X42338297Y-221821772D01*
X42371000Y-221986184D01*
X42371000Y-222153816D01*
X42338297Y-222318228D01*
X42274147Y-222473100D01*
X42181015Y-222612481D01*
X42062481Y-222731015D01*
X41923100Y-222824147D01*
X41768228Y-222888297D01*
X41603816Y-222921000D01*
X41436184Y-222921000D01*
X41271772Y-222888297D01*
X41116900Y-222824147D01*
X40977519Y-222731015D01*
X40858985Y-222612481D01*
X40765853Y-222473100D01*
X40701703Y-222318228D01*
X40669000Y-222153816D01*
X40669000Y-221986184D01*
X40701703Y-221821772D01*
X40765853Y-221666900D01*
X40858985Y-221527519D01*
X40977519Y-221408985D01*
X41116900Y-221315853D01*
X41271772Y-221251703D01*
X41436184Y-221219000D01*
X41603816Y-221219000D01*
X41768228Y-221251703D01*
X41768228Y-221251703D01*
G37*
G36*
X34148228Y-221251703D02*
G01*
X34303100Y-221315853D01*
X34442481Y-221408985D01*
X34561015Y-221527519D01*
X34654147Y-221666900D01*
X34718297Y-221821772D01*
X34751000Y-221986184D01*
X34751000Y-222153816D01*
X34718297Y-222318228D01*
X34654147Y-222473100D01*
X34561015Y-222612481D01*
X34442481Y-222731015D01*
X34303100Y-222824147D01*
X34148228Y-222888297D01*
X33983816Y-222921000D01*
X33816184Y-222921000D01*
X33651772Y-222888297D01*
X33496900Y-222824147D01*
X33357519Y-222731015D01*
X33238985Y-222612481D01*
X33145853Y-222473100D01*
X33081703Y-222318228D01*
X33049000Y-222153816D01*
X33049000Y-221986184D01*
X33081703Y-221821772D01*
X33145853Y-221666900D01*
X33238985Y-221527519D01*
X33357519Y-221408985D01*
X33496900Y-221315853D01*
X33651772Y-221251703D01*
X33816184Y-221219000D01*
X33983816Y-221219000D01*
X34148228Y-221251703D01*
X34148228Y-221251703D01*
G37*
G36*
X36688228Y-221251703D02*
G01*
X36843100Y-221315853D01*
X36982481Y-221408985D01*
X37101015Y-221527519D01*
X37194147Y-221666900D01*
X37258297Y-221821772D01*
X37291000Y-221986184D01*
X37291000Y-222153816D01*
X37258297Y-222318228D01*
X37194147Y-222473100D01*
X37101015Y-222612481D01*
X36982481Y-222731015D01*
X36843100Y-222824147D01*
X36688228Y-222888297D01*
X36523816Y-222921000D01*
X36356184Y-222921000D01*
X36191772Y-222888297D01*
X36036900Y-222824147D01*
X35897519Y-222731015D01*
X35778985Y-222612481D01*
X35685853Y-222473100D01*
X35621703Y-222318228D01*
X35589000Y-222153816D01*
X35589000Y-221986184D01*
X35621703Y-221821772D01*
X35685853Y-221666900D01*
X35778985Y-221527519D01*
X35897519Y-221408985D01*
X36036900Y-221315853D01*
X36191772Y-221251703D01*
X36356184Y-221219000D01*
X36523816Y-221219000D01*
X36688228Y-221251703D01*
X36688228Y-221251703D01*
G37*
G36*
X39228228Y-221251703D02*
G01*
X39383100Y-221315853D01*
X39522481Y-221408985D01*
X39641015Y-221527519D01*
X39734147Y-221666900D01*
X39798297Y-221821772D01*
X39831000Y-221986184D01*
X39831000Y-222153816D01*
X39798297Y-222318228D01*
X39734147Y-222473100D01*
X39641015Y-222612481D01*
X39522481Y-222731015D01*
X39383100Y-222824147D01*
X39228228Y-222888297D01*
X39063816Y-222921000D01*
X38896184Y-222921000D01*
X38731772Y-222888297D01*
X38576900Y-222824147D01*
X38437519Y-222731015D01*
X38318985Y-222612481D01*
X38225853Y-222473100D01*
X38161703Y-222318228D01*
X38129000Y-222153816D01*
X38129000Y-221986184D01*
X38161703Y-221821772D01*
X38225853Y-221666900D01*
X38318985Y-221527519D01*
X38437519Y-221408985D01*
X38576900Y-221315853D01*
X38731772Y-221251703D01*
X38896184Y-221219000D01*
X39063816Y-221219000D01*
X39228228Y-221251703D01*
X39228228Y-221251703D01*
G37*
G36*
X115008843Y-221082292D02*
G01*
X115059588Y-221103311D01*
X115095470Y-221118174D01*
X115173432Y-221170267D01*
X115239733Y-221236568D01*
X115291826Y-221314530D01*
X115292374Y-221315853D01*
X115327708Y-221401157D01*
X115346000Y-221493117D01*
X115346000Y-221586883D01*
X115327708Y-221678843D01*
X115306689Y-221729588D01*
X115291826Y-221765470D01*
X115239733Y-221843432D01*
X115173432Y-221909733D01*
X115095470Y-221961826D01*
X115059588Y-221976689D01*
X115008843Y-221997708D01*
X114916883Y-222016000D01*
X114823117Y-222016000D01*
X114731157Y-221997708D01*
X114680412Y-221976689D01*
X114644530Y-221961826D01*
X114566568Y-221909733D01*
X114500267Y-221843432D01*
X114448174Y-221765470D01*
X114433311Y-221729588D01*
X114412292Y-221678843D01*
X114394000Y-221586883D01*
X114394000Y-221493117D01*
X114412292Y-221401157D01*
X114447626Y-221315853D01*
X114448174Y-221314530D01*
X114500267Y-221236568D01*
X114566568Y-221170267D01*
X114644530Y-221118174D01*
X114680412Y-221103311D01*
X114731157Y-221082292D01*
X114823117Y-221064000D01*
X114916883Y-221064000D01*
X115008843Y-221082292D01*
X115008843Y-221082292D01*
G37*
G36*
X115008843Y-219832292D02*
G01*
X115059588Y-219853311D01*
X115095470Y-219868174D01*
X115173432Y-219920267D01*
X115239733Y-219986568D01*
X115291826Y-220064530D01*
X115291826Y-220064531D01*
X115327708Y-220151157D01*
X115346000Y-220243117D01*
X115346000Y-220336883D01*
X115327708Y-220428843D01*
X115306689Y-220479588D01*
X115291826Y-220515470D01*
X115239733Y-220593432D01*
X115173432Y-220659733D01*
X115095470Y-220711826D01*
X115059588Y-220726689D01*
X115008843Y-220747708D01*
X114916883Y-220766000D01*
X114823117Y-220766000D01*
X114731157Y-220747708D01*
X114680412Y-220726689D01*
X114644530Y-220711826D01*
X114566568Y-220659733D01*
X114500267Y-220593432D01*
X114448174Y-220515470D01*
X114433311Y-220479588D01*
X114412292Y-220428843D01*
X114394000Y-220336883D01*
X114394000Y-220243117D01*
X114412292Y-220151157D01*
X114448174Y-220064531D01*
X114448174Y-220064530D01*
X114500267Y-219986568D01*
X114566568Y-219920267D01*
X114644530Y-219868174D01*
X114680412Y-219853311D01*
X114731157Y-219832292D01*
X114823117Y-219814000D01*
X114916883Y-219814000D01*
X115008843Y-219832292D01*
X115008843Y-219832292D01*
G37*
G36*
X34148228Y-218711703D02*
G01*
X34303100Y-218775853D01*
X34442481Y-218868985D01*
X34561015Y-218987519D01*
X34654147Y-219126900D01*
X34718297Y-219281772D01*
X34751000Y-219446184D01*
X34751000Y-219613816D01*
X34718297Y-219778228D01*
X34654147Y-219933100D01*
X34561015Y-220072481D01*
X34442481Y-220191015D01*
X34303100Y-220284147D01*
X34148228Y-220348297D01*
X33983816Y-220381000D01*
X33816184Y-220381000D01*
X33651772Y-220348297D01*
X33496900Y-220284147D01*
X33357519Y-220191015D01*
X33238985Y-220072481D01*
X33145853Y-219933100D01*
X33081703Y-219778228D01*
X33049000Y-219613816D01*
X33049000Y-219446184D01*
X33081703Y-219281772D01*
X33145853Y-219126900D01*
X33238985Y-218987519D01*
X33357519Y-218868985D01*
X33496900Y-218775853D01*
X33651772Y-218711703D01*
X33816184Y-218679000D01*
X33983816Y-218679000D01*
X34148228Y-218711703D01*
X34148228Y-218711703D01*
G37*
G36*
X41768228Y-218711703D02*
G01*
X41923100Y-218775853D01*
X42062481Y-218868985D01*
X42181015Y-218987519D01*
X42274147Y-219126900D01*
X42338297Y-219281772D01*
X42371000Y-219446184D01*
X42371000Y-219613816D01*
X42338297Y-219778228D01*
X42274147Y-219933100D01*
X42181015Y-220072481D01*
X42062481Y-220191015D01*
X41923100Y-220284147D01*
X41768228Y-220348297D01*
X41603816Y-220381000D01*
X41436184Y-220381000D01*
X41271772Y-220348297D01*
X41116900Y-220284147D01*
X40977519Y-220191015D01*
X40858985Y-220072481D01*
X40765853Y-219933100D01*
X40701703Y-219778228D01*
X40669000Y-219613816D01*
X40669000Y-219446184D01*
X40701703Y-219281772D01*
X40765853Y-219126900D01*
X40858985Y-218987519D01*
X40977519Y-218868985D01*
X41116900Y-218775853D01*
X41271772Y-218711703D01*
X41436184Y-218679000D01*
X41603816Y-218679000D01*
X41768228Y-218711703D01*
X41768228Y-218711703D01*
G37*
G36*
X39228228Y-218711703D02*
G01*
X39383100Y-218775853D01*
X39522481Y-218868985D01*
X39641015Y-218987519D01*
X39734147Y-219126900D01*
X39798297Y-219281772D01*
X39831000Y-219446184D01*
X39831000Y-219613816D01*
X39798297Y-219778228D01*
X39734147Y-219933100D01*
X39641015Y-220072481D01*
X39522481Y-220191015D01*
X39383100Y-220284147D01*
X39228228Y-220348297D01*
X39063816Y-220381000D01*
X38896184Y-220381000D01*
X38731772Y-220348297D01*
X38576900Y-220284147D01*
X38437519Y-220191015D01*
X38318985Y-220072481D01*
X38225853Y-219933100D01*
X38161703Y-219778228D01*
X38129000Y-219613816D01*
X38129000Y-219446184D01*
X38161703Y-219281772D01*
X38225853Y-219126900D01*
X38318985Y-218987519D01*
X38437519Y-218868985D01*
X38576900Y-218775853D01*
X38731772Y-218711703D01*
X38896184Y-218679000D01*
X39063816Y-218679000D01*
X39228228Y-218711703D01*
X39228228Y-218711703D01*
G37*
G36*
X36688228Y-218711703D02*
G01*
X36843100Y-218775853D01*
X36982481Y-218868985D01*
X37101015Y-218987519D01*
X37194147Y-219126900D01*
X37258297Y-219281772D01*
X37291000Y-219446184D01*
X37291000Y-219613816D01*
X37258297Y-219778228D01*
X37194147Y-219933100D01*
X37101015Y-220072481D01*
X36982481Y-220191015D01*
X36843100Y-220284147D01*
X36688228Y-220348297D01*
X36523816Y-220381000D01*
X36356184Y-220381000D01*
X36191772Y-220348297D01*
X36036900Y-220284147D01*
X35897519Y-220191015D01*
X35778985Y-220072481D01*
X35685853Y-219933100D01*
X35621703Y-219778228D01*
X35589000Y-219613816D01*
X35589000Y-219446184D01*
X35621703Y-219281772D01*
X35685853Y-219126900D01*
X35778985Y-218987519D01*
X35897519Y-218868985D01*
X36036900Y-218775853D01*
X36191772Y-218711703D01*
X36356184Y-218679000D01*
X36523816Y-218679000D01*
X36688228Y-218711703D01*
X36688228Y-218711703D01*
G37*
G36*
X115008843Y-218582292D02*
G01*
X115059588Y-218603311D01*
X115095470Y-218618174D01*
X115173432Y-218670267D01*
X115239733Y-218736568D01*
X115291826Y-218814530D01*
X115291826Y-218814531D01*
X115327708Y-218901157D01*
X115346000Y-218993117D01*
X115346000Y-219086883D01*
X115327708Y-219178843D01*
X115306689Y-219229588D01*
X115291826Y-219265470D01*
X115239733Y-219343432D01*
X115173432Y-219409733D01*
X115095470Y-219461826D01*
X115059588Y-219476689D01*
X115008843Y-219497708D01*
X114916883Y-219516000D01*
X114823117Y-219516000D01*
X114731157Y-219497708D01*
X114680412Y-219476689D01*
X114644530Y-219461826D01*
X114566568Y-219409733D01*
X114500267Y-219343432D01*
X114448174Y-219265470D01*
X114433311Y-219229588D01*
X114412292Y-219178843D01*
X114394000Y-219086883D01*
X114394000Y-218993117D01*
X114412292Y-218901157D01*
X114448174Y-218814531D01*
X114448174Y-218814530D01*
X114500267Y-218736568D01*
X114566568Y-218670267D01*
X114644530Y-218618174D01*
X114680412Y-218603311D01*
X114731157Y-218582292D01*
X114823117Y-218564000D01*
X114916883Y-218564000D01*
X115008843Y-218582292D01*
X115008843Y-218582292D01*
G37*
G36*
X115008843Y-217332292D02*
G01*
X115059588Y-217353311D01*
X115095470Y-217368174D01*
X115173432Y-217420267D01*
X115239733Y-217486568D01*
X115291826Y-217564530D01*
X115291826Y-217564531D01*
X115327708Y-217651157D01*
X115346000Y-217743117D01*
X115346000Y-217836883D01*
X115327708Y-217928843D01*
X115306689Y-217979588D01*
X115291826Y-218015470D01*
X115239733Y-218093432D01*
X115173432Y-218159733D01*
X115095470Y-218211826D01*
X115059588Y-218226689D01*
X115008843Y-218247708D01*
X114916883Y-218266000D01*
X114823117Y-218266000D01*
X114731157Y-218247708D01*
X114680412Y-218226689D01*
X114644530Y-218211826D01*
X114566568Y-218159733D01*
X114500267Y-218093432D01*
X114448174Y-218015470D01*
X114433311Y-217979588D01*
X114412292Y-217928843D01*
X114394000Y-217836883D01*
X114394000Y-217743117D01*
X114412292Y-217651157D01*
X114448174Y-217564531D01*
X114448174Y-217564530D01*
X114500267Y-217486568D01*
X114566568Y-217420267D01*
X114644530Y-217368174D01*
X114680412Y-217353311D01*
X114731157Y-217332292D01*
X114823117Y-217314000D01*
X114916883Y-217314000D01*
X115008843Y-217332292D01*
X115008843Y-217332292D01*
G37*
G36*
X41768228Y-216171703D02*
G01*
X41923100Y-216235853D01*
X42062481Y-216328985D01*
X42181015Y-216447519D01*
X42274147Y-216586900D01*
X42338297Y-216741772D01*
X42371000Y-216906184D01*
X42371000Y-217073816D01*
X42338297Y-217238228D01*
X42274147Y-217393100D01*
X42181015Y-217532481D01*
X42062481Y-217651015D01*
X41923100Y-217744147D01*
X41768228Y-217808297D01*
X41603816Y-217841000D01*
X41436184Y-217841000D01*
X41271772Y-217808297D01*
X41116900Y-217744147D01*
X40977519Y-217651015D01*
X40858985Y-217532481D01*
X40765853Y-217393100D01*
X40701703Y-217238228D01*
X40669000Y-217073816D01*
X40669000Y-216906184D01*
X40701703Y-216741772D01*
X40765853Y-216586900D01*
X40858985Y-216447519D01*
X40977519Y-216328985D01*
X41116900Y-216235853D01*
X41271772Y-216171703D01*
X41436184Y-216139000D01*
X41603816Y-216139000D01*
X41768228Y-216171703D01*
X41768228Y-216171703D01*
G37*
G36*
X39228228Y-216171703D02*
G01*
X39383100Y-216235853D01*
X39522481Y-216328985D01*
X39641015Y-216447519D01*
X39734147Y-216586900D01*
X39798297Y-216741772D01*
X39831000Y-216906184D01*
X39831000Y-217073816D01*
X39798297Y-217238228D01*
X39734147Y-217393100D01*
X39641015Y-217532481D01*
X39522481Y-217651015D01*
X39383100Y-217744147D01*
X39228228Y-217808297D01*
X39063816Y-217841000D01*
X38896184Y-217841000D01*
X38731772Y-217808297D01*
X38576900Y-217744147D01*
X38437519Y-217651015D01*
X38318985Y-217532481D01*
X38225853Y-217393100D01*
X38161703Y-217238228D01*
X38129000Y-217073816D01*
X38129000Y-216906184D01*
X38161703Y-216741772D01*
X38225853Y-216586900D01*
X38318985Y-216447519D01*
X38437519Y-216328985D01*
X38576900Y-216235853D01*
X38731772Y-216171703D01*
X38896184Y-216139000D01*
X39063816Y-216139000D01*
X39228228Y-216171703D01*
X39228228Y-216171703D01*
G37*
G36*
X34148228Y-216171703D02*
G01*
X34303100Y-216235853D01*
X34442481Y-216328985D01*
X34561015Y-216447519D01*
X34654147Y-216586900D01*
X34718297Y-216741772D01*
X34751000Y-216906184D01*
X34751000Y-217073816D01*
X34718297Y-217238228D01*
X34654147Y-217393100D01*
X34561015Y-217532481D01*
X34442481Y-217651015D01*
X34303100Y-217744147D01*
X34148228Y-217808297D01*
X33983816Y-217841000D01*
X33816184Y-217841000D01*
X33651772Y-217808297D01*
X33496900Y-217744147D01*
X33357519Y-217651015D01*
X33238985Y-217532481D01*
X33145853Y-217393100D01*
X33081703Y-217238228D01*
X33049000Y-217073816D01*
X33049000Y-216906184D01*
X33081703Y-216741772D01*
X33145853Y-216586900D01*
X33238985Y-216447519D01*
X33357519Y-216328985D01*
X33496900Y-216235853D01*
X33651772Y-216171703D01*
X33816184Y-216139000D01*
X33983816Y-216139000D01*
X34148228Y-216171703D01*
X34148228Y-216171703D01*
G37*
G36*
X36688228Y-216171703D02*
G01*
X36843100Y-216235853D01*
X36982481Y-216328985D01*
X37101015Y-216447519D01*
X37194147Y-216586900D01*
X37258297Y-216741772D01*
X37291000Y-216906184D01*
X37291000Y-217073816D01*
X37258297Y-217238228D01*
X37194147Y-217393100D01*
X37101015Y-217532481D01*
X36982481Y-217651015D01*
X36843100Y-217744147D01*
X36688228Y-217808297D01*
X36523816Y-217841000D01*
X36356184Y-217841000D01*
X36191772Y-217808297D01*
X36036900Y-217744147D01*
X35897519Y-217651015D01*
X35778985Y-217532481D01*
X35685853Y-217393100D01*
X35621703Y-217238228D01*
X35589000Y-217073816D01*
X35589000Y-216906184D01*
X35621703Y-216741772D01*
X35685853Y-216586900D01*
X35778985Y-216447519D01*
X35897519Y-216328985D01*
X36036900Y-216235853D01*
X36191772Y-216171703D01*
X36356184Y-216139000D01*
X36523816Y-216139000D01*
X36688228Y-216171703D01*
X36688228Y-216171703D01*
G37*
G36*
X115008843Y-216082292D02*
G01*
X115059588Y-216103311D01*
X115095470Y-216118174D01*
X115173432Y-216170267D01*
X115239733Y-216236568D01*
X115291826Y-216314530D01*
X115291826Y-216314531D01*
X115327708Y-216401157D01*
X115346000Y-216493117D01*
X115346000Y-216586883D01*
X115327708Y-216678843D01*
X115306689Y-216729588D01*
X115291826Y-216765470D01*
X115239733Y-216843432D01*
X115173432Y-216909733D01*
X115095470Y-216961826D01*
X115059588Y-216976689D01*
X115008843Y-216997708D01*
X114916883Y-217016000D01*
X114823117Y-217016000D01*
X114731157Y-216997708D01*
X114680412Y-216976689D01*
X114644530Y-216961826D01*
X114566568Y-216909733D01*
X114500267Y-216843432D01*
X114448174Y-216765470D01*
X114433311Y-216729588D01*
X114412292Y-216678843D01*
X114394000Y-216586883D01*
X114394000Y-216493117D01*
X114412292Y-216401157D01*
X114448174Y-216314531D01*
X114448174Y-216314530D01*
X114500267Y-216236568D01*
X114566568Y-216170267D01*
X114644530Y-216118174D01*
X114680412Y-216103311D01*
X114731157Y-216082292D01*
X114823117Y-216064000D01*
X114916883Y-216064000D01*
X115008843Y-216082292D01*
X115008843Y-216082292D01*
G37*
G36*
X34148228Y-213631703D02*
G01*
X34303100Y-213695853D01*
X34442481Y-213788985D01*
X34561015Y-213907519D01*
X34654147Y-214046900D01*
X34718297Y-214201772D01*
X34751000Y-214366184D01*
X34751000Y-214533816D01*
X34718297Y-214698228D01*
X34654147Y-214853100D01*
X34561015Y-214992481D01*
X34442481Y-215111015D01*
X34303100Y-215204147D01*
X34148228Y-215268297D01*
X33983816Y-215301000D01*
X33816184Y-215301000D01*
X33651772Y-215268297D01*
X33496900Y-215204147D01*
X33357519Y-215111015D01*
X33238985Y-214992481D01*
X33145853Y-214853100D01*
X33081703Y-214698228D01*
X33049000Y-214533816D01*
X33049000Y-214366184D01*
X33081703Y-214201772D01*
X33145853Y-214046900D01*
X33238985Y-213907519D01*
X33357519Y-213788985D01*
X33496900Y-213695853D01*
X33651772Y-213631703D01*
X33816184Y-213599000D01*
X33983816Y-213599000D01*
X34148228Y-213631703D01*
X34148228Y-213631703D01*
G37*
G36*
X36688228Y-213631703D02*
G01*
X36843100Y-213695853D01*
X36982481Y-213788985D01*
X37101015Y-213907519D01*
X37194147Y-214046900D01*
X37258297Y-214201772D01*
X37291000Y-214366184D01*
X37291000Y-214533816D01*
X37258297Y-214698228D01*
X37194147Y-214853100D01*
X37101015Y-214992481D01*
X36982481Y-215111015D01*
X36843100Y-215204147D01*
X36688228Y-215268297D01*
X36523816Y-215301000D01*
X36356184Y-215301000D01*
X36191772Y-215268297D01*
X36036900Y-215204147D01*
X35897519Y-215111015D01*
X35778985Y-214992481D01*
X35685853Y-214853100D01*
X35621703Y-214698228D01*
X35589000Y-214533816D01*
X35589000Y-214366184D01*
X35621703Y-214201772D01*
X35685853Y-214046900D01*
X35778985Y-213907519D01*
X35897519Y-213788985D01*
X36036900Y-213695853D01*
X36191772Y-213631703D01*
X36356184Y-213599000D01*
X36523816Y-213599000D01*
X36688228Y-213631703D01*
X36688228Y-213631703D01*
G37*
G36*
X39228228Y-213631703D02*
G01*
X39383100Y-213695853D01*
X39522481Y-213788985D01*
X39641015Y-213907519D01*
X39734147Y-214046900D01*
X39798297Y-214201772D01*
X39831000Y-214366184D01*
X39831000Y-214533816D01*
X39798297Y-214698228D01*
X39734147Y-214853100D01*
X39641015Y-214992481D01*
X39522481Y-215111015D01*
X39383100Y-215204147D01*
X39228228Y-215268297D01*
X39063816Y-215301000D01*
X38896184Y-215301000D01*
X38731772Y-215268297D01*
X38576900Y-215204147D01*
X38437519Y-215111015D01*
X38318985Y-214992481D01*
X38225853Y-214853100D01*
X38161703Y-214698228D01*
X38129000Y-214533816D01*
X38129000Y-214366184D01*
X38161703Y-214201772D01*
X38225853Y-214046900D01*
X38318985Y-213907519D01*
X38437519Y-213788985D01*
X38576900Y-213695853D01*
X38731772Y-213631703D01*
X38896184Y-213599000D01*
X39063816Y-213599000D01*
X39228228Y-213631703D01*
X39228228Y-213631703D01*
G37*
G36*
X41768228Y-213631703D02*
G01*
X41923100Y-213695853D01*
X42062481Y-213788985D01*
X42181015Y-213907519D01*
X42274147Y-214046900D01*
X42338297Y-214201772D01*
X42371000Y-214366184D01*
X42371000Y-214533816D01*
X42338297Y-214698228D01*
X42274147Y-214853100D01*
X42181015Y-214992481D01*
X42062481Y-215111015D01*
X41923100Y-215204147D01*
X41768228Y-215268297D01*
X41603816Y-215301000D01*
X41436184Y-215301000D01*
X41271772Y-215268297D01*
X41116900Y-215204147D01*
X40977519Y-215111015D01*
X40858985Y-214992481D01*
X40765853Y-214853100D01*
X40701703Y-214698228D01*
X40669000Y-214533816D01*
X40669000Y-214366184D01*
X40701703Y-214201772D01*
X40765853Y-214046900D01*
X40858985Y-213907519D01*
X40977519Y-213788985D01*
X41116900Y-213695853D01*
X41271772Y-213631703D01*
X41436184Y-213599000D01*
X41603816Y-213599000D01*
X41768228Y-213631703D01*
X41768228Y-213631703D01*
G37*
G36*
X41768228Y-211091703D02*
G01*
X41923100Y-211155853D01*
X42062481Y-211248985D01*
X42181015Y-211367519D01*
X42274147Y-211506900D01*
X42338297Y-211661772D01*
X42371000Y-211826184D01*
X42371000Y-211993816D01*
X42338297Y-212158228D01*
X42274147Y-212313100D01*
X42181015Y-212452481D01*
X42062481Y-212571015D01*
X41923100Y-212664147D01*
X41768228Y-212728297D01*
X41603816Y-212761000D01*
X41436184Y-212761000D01*
X41271772Y-212728297D01*
X41116900Y-212664147D01*
X40977519Y-212571015D01*
X40858985Y-212452481D01*
X40765853Y-212313100D01*
X40701703Y-212158228D01*
X40669000Y-211993816D01*
X40669000Y-211826184D01*
X40701703Y-211661772D01*
X40765853Y-211506900D01*
X40858985Y-211367519D01*
X40977519Y-211248985D01*
X41116900Y-211155853D01*
X41271772Y-211091703D01*
X41436184Y-211059000D01*
X41603816Y-211059000D01*
X41768228Y-211091703D01*
X41768228Y-211091703D01*
G37*
G36*
X39228228Y-211091703D02*
G01*
X39383100Y-211155853D01*
X39522481Y-211248985D01*
X39641015Y-211367519D01*
X39734147Y-211506900D01*
X39798297Y-211661772D01*
X39831000Y-211826184D01*
X39831000Y-211993816D01*
X39798297Y-212158228D01*
X39734147Y-212313100D01*
X39641015Y-212452481D01*
X39522481Y-212571015D01*
X39383100Y-212664147D01*
X39228228Y-212728297D01*
X39063816Y-212761000D01*
X38896184Y-212761000D01*
X38731772Y-212728297D01*
X38576900Y-212664147D01*
X38437519Y-212571015D01*
X38318985Y-212452481D01*
X38225853Y-212313100D01*
X38161703Y-212158228D01*
X38129000Y-211993816D01*
X38129000Y-211826184D01*
X38161703Y-211661772D01*
X38225853Y-211506900D01*
X38318985Y-211367519D01*
X38437519Y-211248985D01*
X38576900Y-211155853D01*
X38731772Y-211091703D01*
X38896184Y-211059000D01*
X39063816Y-211059000D01*
X39228228Y-211091703D01*
X39228228Y-211091703D01*
G37*
G36*
X36688228Y-211091703D02*
G01*
X36843100Y-211155853D01*
X36982481Y-211248985D01*
X37101015Y-211367519D01*
X37194147Y-211506900D01*
X37258297Y-211661772D01*
X37291000Y-211826184D01*
X37291000Y-211993816D01*
X37258297Y-212158228D01*
X37194147Y-212313100D01*
X37101015Y-212452481D01*
X36982481Y-212571015D01*
X36843100Y-212664147D01*
X36688228Y-212728297D01*
X36523816Y-212761000D01*
X36356184Y-212761000D01*
X36191772Y-212728297D01*
X36036900Y-212664147D01*
X35897519Y-212571015D01*
X35778985Y-212452481D01*
X35685853Y-212313100D01*
X35621703Y-212158228D01*
X35589000Y-211993816D01*
X35589000Y-211826184D01*
X35621703Y-211661772D01*
X35685853Y-211506900D01*
X35778985Y-211367519D01*
X35897519Y-211248985D01*
X36036900Y-211155853D01*
X36191772Y-211091703D01*
X36356184Y-211059000D01*
X36523816Y-211059000D01*
X36688228Y-211091703D01*
X36688228Y-211091703D01*
G37*
G36*
X34148228Y-211091703D02*
G01*
X34303100Y-211155853D01*
X34442481Y-211248985D01*
X34561015Y-211367519D01*
X34654147Y-211506900D01*
X34718297Y-211661772D01*
X34751000Y-211826184D01*
X34751000Y-211993816D01*
X34718297Y-212158228D01*
X34654147Y-212313100D01*
X34561015Y-212452481D01*
X34442481Y-212571015D01*
X34303100Y-212664147D01*
X34148228Y-212728297D01*
X33983816Y-212761000D01*
X33816184Y-212761000D01*
X33651772Y-212728297D01*
X33496900Y-212664147D01*
X33357519Y-212571015D01*
X33238985Y-212452481D01*
X33145853Y-212313100D01*
X33081703Y-212158228D01*
X33049000Y-211993816D01*
X33049000Y-211826184D01*
X33081703Y-211661772D01*
X33145853Y-211506900D01*
X33238985Y-211367519D01*
X33357519Y-211248985D01*
X33496900Y-211155853D01*
X33651772Y-211091703D01*
X33816184Y-211059000D01*
X33983816Y-211059000D01*
X34148228Y-211091703D01*
X34148228Y-211091703D01*
G37*
G36*
X36688228Y-208551703D02*
G01*
X36843100Y-208615853D01*
X36982481Y-208708985D01*
X37101015Y-208827519D01*
X37194147Y-208966900D01*
X37258297Y-209121772D01*
X37291000Y-209286184D01*
X37291000Y-209453816D01*
X37258297Y-209618228D01*
X37194147Y-209773100D01*
X37101015Y-209912481D01*
X36982481Y-210031015D01*
X36843100Y-210124147D01*
X36688228Y-210188297D01*
X36523816Y-210221000D01*
X36356184Y-210221000D01*
X36191772Y-210188297D01*
X36036900Y-210124147D01*
X35897519Y-210031015D01*
X35778985Y-209912481D01*
X35685853Y-209773100D01*
X35621703Y-209618228D01*
X35589000Y-209453816D01*
X35589000Y-209286184D01*
X35621703Y-209121772D01*
X35685853Y-208966900D01*
X35778985Y-208827519D01*
X35897519Y-208708985D01*
X36036900Y-208615853D01*
X36191772Y-208551703D01*
X36356184Y-208519000D01*
X36523816Y-208519000D01*
X36688228Y-208551703D01*
X36688228Y-208551703D01*
G37*
G36*
X34148228Y-208551703D02*
G01*
X34303100Y-208615853D01*
X34442481Y-208708985D01*
X34561015Y-208827519D01*
X34654147Y-208966900D01*
X34718297Y-209121772D01*
X34751000Y-209286184D01*
X34751000Y-209453816D01*
X34718297Y-209618228D01*
X34654147Y-209773100D01*
X34561015Y-209912481D01*
X34442481Y-210031015D01*
X34303100Y-210124147D01*
X34148228Y-210188297D01*
X33983816Y-210221000D01*
X33816184Y-210221000D01*
X33651772Y-210188297D01*
X33496900Y-210124147D01*
X33357519Y-210031015D01*
X33238985Y-209912481D01*
X33145853Y-209773100D01*
X33081703Y-209618228D01*
X33049000Y-209453816D01*
X33049000Y-209286184D01*
X33081703Y-209121772D01*
X33145853Y-208966900D01*
X33238985Y-208827519D01*
X33357519Y-208708985D01*
X33496900Y-208615853D01*
X33651772Y-208551703D01*
X33816184Y-208519000D01*
X33983816Y-208519000D01*
X34148228Y-208551703D01*
X34148228Y-208551703D01*
G37*
G36*
X41768228Y-208551703D02*
G01*
X41923100Y-208615853D01*
X42062481Y-208708985D01*
X42181015Y-208827519D01*
X42274147Y-208966900D01*
X42338297Y-209121772D01*
X42371000Y-209286184D01*
X42371000Y-209453816D01*
X42338297Y-209618228D01*
X42274147Y-209773100D01*
X42181015Y-209912481D01*
X42062481Y-210031015D01*
X41923100Y-210124147D01*
X41768228Y-210188297D01*
X41603816Y-210221000D01*
X41436184Y-210221000D01*
X41271772Y-210188297D01*
X41116900Y-210124147D01*
X40977519Y-210031015D01*
X40858985Y-209912481D01*
X40765853Y-209773100D01*
X40701703Y-209618228D01*
X40669000Y-209453816D01*
X40669000Y-209286184D01*
X40701703Y-209121772D01*
X40765853Y-208966900D01*
X40858985Y-208827519D01*
X40977519Y-208708985D01*
X41116900Y-208615853D01*
X41271772Y-208551703D01*
X41436184Y-208519000D01*
X41603816Y-208519000D01*
X41768228Y-208551703D01*
X41768228Y-208551703D01*
G37*
G36*
X39228228Y-208551703D02*
G01*
X39383100Y-208615853D01*
X39522481Y-208708985D01*
X39641015Y-208827519D01*
X39734147Y-208966900D01*
X39798297Y-209121772D01*
X39831000Y-209286184D01*
X39831000Y-209453816D01*
X39798297Y-209618228D01*
X39734147Y-209773100D01*
X39641015Y-209912481D01*
X39522481Y-210031015D01*
X39383100Y-210124147D01*
X39228228Y-210188297D01*
X39063816Y-210221000D01*
X38896184Y-210221000D01*
X38731772Y-210188297D01*
X38576900Y-210124147D01*
X38437519Y-210031015D01*
X38318985Y-209912481D01*
X38225853Y-209773100D01*
X38161703Y-209618228D01*
X38129000Y-209453816D01*
X38129000Y-209286184D01*
X38161703Y-209121772D01*
X38225853Y-208966900D01*
X38318985Y-208827519D01*
X38437519Y-208708985D01*
X38576900Y-208615853D01*
X38731772Y-208551703D01*
X38896184Y-208519000D01*
X39063816Y-208519000D01*
X39228228Y-208551703D01*
X39228228Y-208551703D01*
G37*
G36*
X41768228Y-206011703D02*
G01*
X41923100Y-206075853D01*
X42062481Y-206168985D01*
X42181015Y-206287519D01*
X42274147Y-206426900D01*
X42338297Y-206581772D01*
X42371000Y-206746184D01*
X42371000Y-206913816D01*
X42338297Y-207078228D01*
X42274147Y-207233100D01*
X42181015Y-207372481D01*
X42062481Y-207491015D01*
X41923100Y-207584147D01*
X41768228Y-207648297D01*
X41603816Y-207681000D01*
X41436184Y-207681000D01*
X41271772Y-207648297D01*
X41116900Y-207584147D01*
X40977519Y-207491015D01*
X40858985Y-207372481D01*
X40765853Y-207233100D01*
X40701703Y-207078228D01*
X40669000Y-206913816D01*
X40669000Y-206746184D01*
X40701703Y-206581772D01*
X40765853Y-206426900D01*
X40858985Y-206287519D01*
X40977519Y-206168985D01*
X41116900Y-206075853D01*
X41271772Y-206011703D01*
X41436184Y-205979000D01*
X41603816Y-205979000D01*
X41768228Y-206011703D01*
X41768228Y-206011703D01*
G37*
G36*
X34148228Y-206011703D02*
G01*
X34303100Y-206075853D01*
X34442481Y-206168985D01*
X34561015Y-206287519D01*
X34654147Y-206426900D01*
X34718297Y-206581772D01*
X34751000Y-206746184D01*
X34751000Y-206913816D01*
X34718297Y-207078228D01*
X34654147Y-207233100D01*
X34561015Y-207372481D01*
X34442481Y-207491015D01*
X34303100Y-207584147D01*
X34148228Y-207648297D01*
X33983816Y-207681000D01*
X33816184Y-207681000D01*
X33651772Y-207648297D01*
X33496900Y-207584147D01*
X33357519Y-207491015D01*
X33238985Y-207372481D01*
X33145853Y-207233100D01*
X33081703Y-207078228D01*
X33049000Y-206913816D01*
X33049000Y-206746184D01*
X33081703Y-206581772D01*
X33145853Y-206426900D01*
X33238985Y-206287519D01*
X33357519Y-206168985D01*
X33496900Y-206075853D01*
X33651772Y-206011703D01*
X33816184Y-205979000D01*
X33983816Y-205979000D01*
X34148228Y-206011703D01*
X34148228Y-206011703D01*
G37*
G36*
X36688228Y-206011703D02*
G01*
X36843100Y-206075853D01*
X36982481Y-206168985D01*
X37101015Y-206287519D01*
X37194147Y-206426900D01*
X37258297Y-206581772D01*
X37291000Y-206746184D01*
X37291000Y-206913816D01*
X37258297Y-207078228D01*
X37194147Y-207233100D01*
X37101015Y-207372481D01*
X36982481Y-207491015D01*
X36843100Y-207584147D01*
X36688228Y-207648297D01*
X36523816Y-207681000D01*
X36356184Y-207681000D01*
X36191772Y-207648297D01*
X36036900Y-207584147D01*
X35897519Y-207491015D01*
X35778985Y-207372481D01*
X35685853Y-207233100D01*
X35621703Y-207078228D01*
X35589000Y-206913816D01*
X35589000Y-206746184D01*
X35621703Y-206581772D01*
X35685853Y-206426900D01*
X35778985Y-206287519D01*
X35897519Y-206168985D01*
X36036900Y-206075853D01*
X36191772Y-206011703D01*
X36356184Y-205979000D01*
X36523816Y-205979000D01*
X36688228Y-206011703D01*
X36688228Y-206011703D01*
G37*
G36*
X39228228Y-206011703D02*
G01*
X39383100Y-206075853D01*
X39522481Y-206168985D01*
X39641015Y-206287519D01*
X39734147Y-206426900D01*
X39798297Y-206581772D01*
X39831000Y-206746184D01*
X39831000Y-206913816D01*
X39798297Y-207078228D01*
X39734147Y-207233100D01*
X39641015Y-207372481D01*
X39522481Y-207491015D01*
X39383100Y-207584147D01*
X39228228Y-207648297D01*
X39063816Y-207681000D01*
X38896184Y-207681000D01*
X38731772Y-207648297D01*
X38576900Y-207584147D01*
X38437519Y-207491015D01*
X38318985Y-207372481D01*
X38225853Y-207233100D01*
X38161703Y-207078228D01*
X38129000Y-206913816D01*
X38129000Y-206746184D01*
X38161703Y-206581772D01*
X38225853Y-206426900D01*
X38318985Y-206287519D01*
X38437519Y-206168985D01*
X38576900Y-206075853D01*
X38731772Y-206011703D01*
X38896184Y-205979000D01*
X39063816Y-205979000D01*
X39228228Y-206011703D01*
X39228228Y-206011703D01*
G37*
G36*
X39228228Y-203471703D02*
G01*
X39383100Y-203535853D01*
X39522481Y-203628985D01*
X39641015Y-203747519D01*
X39734147Y-203886900D01*
X39798297Y-204041772D01*
X39831000Y-204206184D01*
X39831000Y-204373816D01*
X39798297Y-204538228D01*
X39734147Y-204693100D01*
X39641015Y-204832481D01*
X39522481Y-204951015D01*
X39383100Y-205044147D01*
X39228228Y-205108297D01*
X39063816Y-205141000D01*
X38896184Y-205141000D01*
X38731772Y-205108297D01*
X38576900Y-205044147D01*
X38437519Y-204951015D01*
X38318985Y-204832481D01*
X38225853Y-204693100D01*
X38161703Y-204538228D01*
X38129000Y-204373816D01*
X38129000Y-204206184D01*
X38161703Y-204041772D01*
X38225853Y-203886900D01*
X38318985Y-203747519D01*
X38437519Y-203628985D01*
X38576900Y-203535853D01*
X38731772Y-203471703D01*
X38896184Y-203439000D01*
X39063816Y-203439000D01*
X39228228Y-203471703D01*
X39228228Y-203471703D01*
G37*
G36*
X41768228Y-203471703D02*
G01*
X41923100Y-203535853D01*
X42062481Y-203628985D01*
X42181015Y-203747519D01*
X42274147Y-203886900D01*
X42338297Y-204041772D01*
X42371000Y-204206184D01*
X42371000Y-204373816D01*
X42338297Y-204538228D01*
X42274147Y-204693100D01*
X42181015Y-204832481D01*
X42062481Y-204951015D01*
X41923100Y-205044147D01*
X41768228Y-205108297D01*
X41603816Y-205141000D01*
X41436184Y-205141000D01*
X41271772Y-205108297D01*
X41116900Y-205044147D01*
X40977519Y-204951015D01*
X40858985Y-204832481D01*
X40765853Y-204693100D01*
X40701703Y-204538228D01*
X40669000Y-204373816D01*
X40669000Y-204206184D01*
X40701703Y-204041772D01*
X40765853Y-203886900D01*
X40858985Y-203747519D01*
X40977519Y-203628985D01*
X41116900Y-203535853D01*
X41271772Y-203471703D01*
X41436184Y-203439000D01*
X41603816Y-203439000D01*
X41768228Y-203471703D01*
X41768228Y-203471703D01*
G37*
G36*
X34148228Y-203471703D02*
G01*
X34303100Y-203535853D01*
X34442481Y-203628985D01*
X34561015Y-203747519D01*
X34654147Y-203886900D01*
X34718297Y-204041772D01*
X34751000Y-204206184D01*
X34751000Y-204373816D01*
X34718297Y-204538228D01*
X34654147Y-204693100D01*
X34561015Y-204832481D01*
X34442481Y-204951015D01*
X34303100Y-205044147D01*
X34148228Y-205108297D01*
X33983816Y-205141000D01*
X33816184Y-205141000D01*
X33651772Y-205108297D01*
X33496900Y-205044147D01*
X33357519Y-204951015D01*
X33238985Y-204832481D01*
X33145853Y-204693100D01*
X33081703Y-204538228D01*
X33049000Y-204373816D01*
X33049000Y-204206184D01*
X33081703Y-204041772D01*
X33145853Y-203886900D01*
X33238985Y-203747519D01*
X33357519Y-203628985D01*
X33496900Y-203535853D01*
X33651772Y-203471703D01*
X33816184Y-203439000D01*
X33983816Y-203439000D01*
X34148228Y-203471703D01*
X34148228Y-203471703D01*
G37*
G36*
X36688228Y-203471703D02*
G01*
X36843100Y-203535853D01*
X36982481Y-203628985D01*
X37101015Y-203747519D01*
X37194147Y-203886900D01*
X37258297Y-204041772D01*
X37291000Y-204206184D01*
X37291000Y-204373816D01*
X37258297Y-204538228D01*
X37194147Y-204693100D01*
X37101015Y-204832481D01*
X36982481Y-204951015D01*
X36843100Y-205044147D01*
X36688228Y-205108297D01*
X36523816Y-205141000D01*
X36356184Y-205141000D01*
X36191772Y-205108297D01*
X36036900Y-205044147D01*
X35897519Y-204951015D01*
X35778985Y-204832481D01*
X35685853Y-204693100D01*
X35621703Y-204538228D01*
X35589000Y-204373816D01*
X35589000Y-204206184D01*
X35621703Y-204041772D01*
X35685853Y-203886900D01*
X35778985Y-203747519D01*
X35897519Y-203628985D01*
X36036900Y-203535853D01*
X36191772Y-203471703D01*
X36356184Y-203439000D01*
X36523816Y-203439000D01*
X36688228Y-203471703D01*
X36688228Y-203471703D01*
G37*
G36*
X50680208Y-198253557D02*
G01*
X50970346Y-198311269D01*
X51407300Y-198492262D01*
X51800548Y-198755022D01*
X52134978Y-199089452D01*
X52397738Y-199482700D01*
X52578731Y-199919654D01*
X52600341Y-200028295D01*
X52671000Y-200383521D01*
X52671000Y-200856479D01*
X52644478Y-200989814D01*
X52578731Y-201320346D01*
X52397738Y-201757300D01*
X52134978Y-202150548D01*
X51800548Y-202484978D01*
X51407300Y-202747738D01*
X50970346Y-202928731D01*
X50738412Y-202974865D01*
X50506479Y-203021000D01*
X50033521Y-203021000D01*
X49801588Y-202974865D01*
X49569654Y-202928731D01*
X49132700Y-202747738D01*
X48739452Y-202484978D01*
X48405022Y-202150548D01*
X48142262Y-201757300D01*
X47961269Y-201320346D01*
X47895522Y-200989814D01*
X47869000Y-200856479D01*
X47869000Y-200383521D01*
X47939659Y-200028295D01*
X47961269Y-199919654D01*
X48142262Y-199482700D01*
X48405022Y-199089452D01*
X48739452Y-198755022D01*
X49132700Y-198492262D01*
X49569654Y-198311269D01*
X49859792Y-198253557D01*
X50033521Y-198219000D01*
X50506479Y-198219000D01*
X50680208Y-198253557D01*
X50680208Y-198253557D01*
G37*
G36*
X108780208Y-198253557D02*
G01*
X109070346Y-198311269D01*
X109507300Y-198492262D01*
X109900548Y-198755022D01*
X110234978Y-199089452D01*
X110497738Y-199482700D01*
X110678731Y-199919654D01*
X110700341Y-200028295D01*
X110771000Y-200383521D01*
X110771000Y-200856479D01*
X110744478Y-200989814D01*
X110678731Y-201320346D01*
X110497738Y-201757300D01*
X110234978Y-202150548D01*
X109900548Y-202484978D01*
X109507300Y-202747738D01*
X109070346Y-202928731D01*
X108838412Y-202974865D01*
X108606479Y-203021000D01*
X108133521Y-203021000D01*
X107901588Y-202974865D01*
X107669654Y-202928731D01*
X107232700Y-202747738D01*
X106839452Y-202484978D01*
X106505022Y-202150548D01*
X106242262Y-201757300D01*
X106061269Y-201320346D01*
X105995522Y-200989814D01*
X105969000Y-200856479D01*
X105969000Y-200383521D01*
X106039659Y-200028295D01*
X106061269Y-199919654D01*
X106242262Y-199482700D01*
X106505022Y-199089452D01*
X106839452Y-198755022D01*
X107232700Y-198492262D01*
X107669654Y-198311269D01*
X107959792Y-198253557D01*
X108133521Y-198219000D01*
X108606479Y-198219000D01*
X108780208Y-198253557D01*
X108780208Y-198253557D01*
G37*
G36*
X36688228Y-200931703D02*
G01*
X36843100Y-200995853D01*
X36982481Y-201088985D01*
X37101015Y-201207519D01*
X37194147Y-201346900D01*
X37258297Y-201501772D01*
X37291000Y-201666184D01*
X37291000Y-201833816D01*
X37258297Y-201998228D01*
X37194147Y-202153100D01*
X37101015Y-202292481D01*
X36982481Y-202411015D01*
X36843100Y-202504147D01*
X36688228Y-202568297D01*
X36523816Y-202601000D01*
X36356184Y-202601000D01*
X36191772Y-202568297D01*
X36036900Y-202504147D01*
X35897519Y-202411015D01*
X35778985Y-202292481D01*
X35685853Y-202153100D01*
X35621703Y-201998228D01*
X35589000Y-201833816D01*
X35589000Y-201666184D01*
X35621703Y-201501772D01*
X35685853Y-201346900D01*
X35778985Y-201207519D01*
X35897519Y-201088985D01*
X36036900Y-200995853D01*
X36191772Y-200931703D01*
X36356184Y-200899000D01*
X36523816Y-200899000D01*
X36688228Y-200931703D01*
X36688228Y-200931703D01*
G37*
G36*
X34148228Y-200931703D02*
G01*
X34303100Y-200995853D01*
X34442481Y-201088985D01*
X34561015Y-201207519D01*
X34654147Y-201346900D01*
X34718297Y-201501772D01*
X34751000Y-201666184D01*
X34751000Y-201833816D01*
X34718297Y-201998228D01*
X34654147Y-202153100D01*
X34561015Y-202292481D01*
X34442481Y-202411015D01*
X34303100Y-202504147D01*
X34148228Y-202568297D01*
X33983816Y-202601000D01*
X33816184Y-202601000D01*
X33651772Y-202568297D01*
X33496900Y-202504147D01*
X33357519Y-202411015D01*
X33238985Y-202292481D01*
X33145853Y-202153100D01*
X33081703Y-201998228D01*
X33049000Y-201833816D01*
X33049000Y-201666184D01*
X33081703Y-201501772D01*
X33145853Y-201346900D01*
X33238985Y-201207519D01*
X33357519Y-201088985D01*
X33496900Y-200995853D01*
X33651772Y-200931703D01*
X33816184Y-200899000D01*
X33983816Y-200899000D01*
X34148228Y-200931703D01*
X34148228Y-200931703D01*
G37*
G36*
X39228228Y-200931703D02*
G01*
X39383100Y-200995853D01*
X39522481Y-201088985D01*
X39641015Y-201207519D01*
X39734147Y-201346900D01*
X39798297Y-201501772D01*
X39831000Y-201666184D01*
X39831000Y-201833816D01*
X39798297Y-201998228D01*
X39734147Y-202153100D01*
X39641015Y-202292481D01*
X39522481Y-202411015D01*
X39383100Y-202504147D01*
X39228228Y-202568297D01*
X39063816Y-202601000D01*
X38896184Y-202601000D01*
X38731772Y-202568297D01*
X38576900Y-202504147D01*
X38437519Y-202411015D01*
X38318985Y-202292481D01*
X38225853Y-202153100D01*
X38161703Y-201998228D01*
X38129000Y-201833816D01*
X38129000Y-201666184D01*
X38161703Y-201501772D01*
X38225853Y-201346900D01*
X38318985Y-201207519D01*
X38437519Y-201088985D01*
X38576900Y-200995853D01*
X38731772Y-200931703D01*
X38896184Y-200899000D01*
X39063816Y-200899000D01*
X39228228Y-200931703D01*
X39228228Y-200931703D01*
G37*
G36*
X41768228Y-200931703D02*
G01*
X41923100Y-200995853D01*
X42062481Y-201088985D01*
X42181015Y-201207519D01*
X42274147Y-201346900D01*
X42338297Y-201501772D01*
X42371000Y-201666184D01*
X42371000Y-201833816D01*
X42338297Y-201998228D01*
X42274147Y-202153100D01*
X42181015Y-202292481D01*
X42062481Y-202411015D01*
X41923100Y-202504147D01*
X41768228Y-202568297D01*
X41603816Y-202601000D01*
X41436184Y-202601000D01*
X41271772Y-202568297D01*
X41116900Y-202504147D01*
X40977519Y-202411015D01*
X40858985Y-202292481D01*
X40765853Y-202153100D01*
X40701703Y-201998228D01*
X40669000Y-201833816D01*
X40669000Y-201666184D01*
X40701703Y-201501772D01*
X40765853Y-201346900D01*
X40858985Y-201207519D01*
X40977519Y-201088985D01*
X41116900Y-200995853D01*
X41271772Y-200931703D01*
X41436184Y-200899000D01*
X41603816Y-200899000D01*
X41768228Y-200931703D01*
X41768228Y-200931703D01*
G37*
G36*
X93230442Y-200735518D02*
G01*
X93296627Y-200742037D01*
X93466466Y-200793557D01*
X93622991Y-200877222D01*
X93649527Y-200899000D01*
X93760186Y-200989814D01*
X93841572Y-201088985D01*
X93872778Y-201127009D01*
X93956443Y-201283534D01*
X94007963Y-201453373D01*
X94025359Y-201630000D01*
X94007963Y-201806627D01*
X93956443Y-201976466D01*
X93872778Y-202132991D01*
X93858370Y-202150547D01*
X93760186Y-202270186D01*
X93658729Y-202353448D01*
X93622991Y-202382778D01*
X93466466Y-202466443D01*
X93296627Y-202517963D01*
X93230442Y-202524482D01*
X93164260Y-202531000D01*
X93075740Y-202531000D01*
X93009558Y-202524482D01*
X92943373Y-202517963D01*
X92773534Y-202466443D01*
X92617009Y-202382778D01*
X92581271Y-202353448D01*
X92479814Y-202270186D01*
X92381630Y-202150547D01*
X92367222Y-202132991D01*
X92283557Y-201976466D01*
X92232037Y-201806627D01*
X92214641Y-201630000D01*
X92232037Y-201453373D01*
X92283557Y-201283534D01*
X92367222Y-201127009D01*
X92398428Y-201088985D01*
X92479814Y-200989814D01*
X92590473Y-200899000D01*
X92617009Y-200877222D01*
X92773534Y-200793557D01*
X92943373Y-200742037D01*
X93009558Y-200735518D01*
X93075740Y-200729000D01*
X93164260Y-200729000D01*
X93230442Y-200735518D01*
X93230442Y-200735518D01*
G37*
G36*
X90690442Y-200735518D02*
G01*
X90756627Y-200742037D01*
X90926466Y-200793557D01*
X91082991Y-200877222D01*
X91109527Y-200899000D01*
X91220186Y-200989814D01*
X91301572Y-201088985D01*
X91332778Y-201127009D01*
X91416443Y-201283534D01*
X91467963Y-201453373D01*
X91485359Y-201630000D01*
X91467963Y-201806627D01*
X91416443Y-201976466D01*
X91332778Y-202132991D01*
X91318370Y-202150547D01*
X91220186Y-202270186D01*
X91118729Y-202353448D01*
X91082991Y-202382778D01*
X90926466Y-202466443D01*
X90756627Y-202517963D01*
X90690442Y-202524482D01*
X90624260Y-202531000D01*
X90535740Y-202531000D01*
X90469558Y-202524482D01*
X90403373Y-202517963D01*
X90233534Y-202466443D01*
X90077009Y-202382778D01*
X90041271Y-202353448D01*
X89939814Y-202270186D01*
X89841630Y-202150547D01*
X89827222Y-202132991D01*
X89743557Y-201976466D01*
X89692037Y-201806627D01*
X89674641Y-201630000D01*
X89692037Y-201453373D01*
X89743557Y-201283534D01*
X89827222Y-201127009D01*
X89858428Y-201088985D01*
X89939814Y-200989814D01*
X90050473Y-200899000D01*
X90077009Y-200877222D01*
X90233534Y-200793557D01*
X90403373Y-200742037D01*
X90469558Y-200735518D01*
X90535740Y-200729000D01*
X90624260Y-200729000D01*
X90690442Y-200735518D01*
X90690442Y-200735518D01*
G37*
G36*
X88150442Y-200735518D02*
G01*
X88216627Y-200742037D01*
X88386466Y-200793557D01*
X88542991Y-200877222D01*
X88569527Y-200899000D01*
X88680186Y-200989814D01*
X88761572Y-201088985D01*
X88792778Y-201127009D01*
X88876443Y-201283534D01*
X88927963Y-201453373D01*
X88945359Y-201630000D01*
X88927963Y-201806627D01*
X88876443Y-201976466D01*
X88792778Y-202132991D01*
X88778370Y-202150547D01*
X88680186Y-202270186D01*
X88578729Y-202353448D01*
X88542991Y-202382778D01*
X88386466Y-202466443D01*
X88216627Y-202517963D01*
X88150442Y-202524482D01*
X88084260Y-202531000D01*
X87995740Y-202531000D01*
X87929558Y-202524482D01*
X87863373Y-202517963D01*
X87693534Y-202466443D01*
X87537009Y-202382778D01*
X87501271Y-202353448D01*
X87399814Y-202270186D01*
X87301630Y-202150547D01*
X87287222Y-202132991D01*
X87203557Y-201976466D01*
X87152037Y-201806627D01*
X87134641Y-201630000D01*
X87152037Y-201453373D01*
X87203557Y-201283534D01*
X87287222Y-201127009D01*
X87318428Y-201088985D01*
X87399814Y-200989814D01*
X87510473Y-200899000D01*
X87537009Y-200877222D01*
X87693534Y-200793557D01*
X87863373Y-200742037D01*
X87929558Y-200735518D01*
X87995740Y-200729000D01*
X88084260Y-200729000D01*
X88150442Y-200735518D01*
X88150442Y-200735518D01*
G37*
G36*
X85610442Y-200735518D02*
G01*
X85676627Y-200742037D01*
X85846466Y-200793557D01*
X86002991Y-200877222D01*
X86029527Y-200899000D01*
X86140186Y-200989814D01*
X86221572Y-201088985D01*
X86252778Y-201127009D01*
X86336443Y-201283534D01*
X86387963Y-201453373D01*
X86405359Y-201630000D01*
X86387963Y-201806627D01*
X86336443Y-201976466D01*
X86252778Y-202132991D01*
X86238370Y-202150547D01*
X86140186Y-202270186D01*
X86038729Y-202353448D01*
X86002991Y-202382778D01*
X85846466Y-202466443D01*
X85676627Y-202517963D01*
X85610442Y-202524482D01*
X85544260Y-202531000D01*
X85455740Y-202531000D01*
X85389558Y-202524482D01*
X85323373Y-202517963D01*
X85153534Y-202466443D01*
X84997009Y-202382778D01*
X84961271Y-202353448D01*
X84859814Y-202270186D01*
X84761630Y-202150547D01*
X84747222Y-202132991D01*
X84663557Y-201976466D01*
X84612037Y-201806627D01*
X84594641Y-201630000D01*
X84612037Y-201453373D01*
X84663557Y-201283534D01*
X84747222Y-201127009D01*
X84778428Y-201088985D01*
X84859814Y-200989814D01*
X84970473Y-200899000D01*
X84997009Y-200877222D01*
X85153534Y-200793557D01*
X85323373Y-200742037D01*
X85389558Y-200735518D01*
X85455740Y-200729000D01*
X85544260Y-200729000D01*
X85610442Y-200735518D01*
X85610442Y-200735518D01*
G37*
G36*
X83070442Y-200735518D02*
G01*
X83136627Y-200742037D01*
X83306466Y-200793557D01*
X83462991Y-200877222D01*
X83489527Y-200899000D01*
X83600186Y-200989814D01*
X83681572Y-201088985D01*
X83712778Y-201127009D01*
X83796443Y-201283534D01*
X83847963Y-201453373D01*
X83865359Y-201630000D01*
X83847963Y-201806627D01*
X83796443Y-201976466D01*
X83712778Y-202132991D01*
X83698370Y-202150547D01*
X83600186Y-202270186D01*
X83498729Y-202353448D01*
X83462991Y-202382778D01*
X83306466Y-202466443D01*
X83136627Y-202517963D01*
X83070442Y-202524482D01*
X83004260Y-202531000D01*
X82915740Y-202531000D01*
X82849558Y-202524482D01*
X82783373Y-202517963D01*
X82613534Y-202466443D01*
X82457009Y-202382778D01*
X82421271Y-202353448D01*
X82319814Y-202270186D01*
X82221630Y-202150547D01*
X82207222Y-202132991D01*
X82123557Y-201976466D01*
X82072037Y-201806627D01*
X82054641Y-201630000D01*
X82072037Y-201453373D01*
X82123557Y-201283534D01*
X82207222Y-201127009D01*
X82238428Y-201088985D01*
X82319814Y-200989814D01*
X82430473Y-200899000D01*
X82457009Y-200877222D01*
X82613534Y-200793557D01*
X82783373Y-200742037D01*
X82849558Y-200735518D01*
X82915740Y-200729000D01*
X83004260Y-200729000D01*
X83070442Y-200735518D01*
X83070442Y-200735518D01*
G37*
G36*
X80530442Y-200735518D02*
G01*
X80596627Y-200742037D01*
X80766466Y-200793557D01*
X80922991Y-200877222D01*
X80949527Y-200899000D01*
X81060186Y-200989814D01*
X81141572Y-201088985D01*
X81172778Y-201127009D01*
X81256443Y-201283534D01*
X81307963Y-201453373D01*
X81325359Y-201630000D01*
X81307963Y-201806627D01*
X81256443Y-201976466D01*
X81172778Y-202132991D01*
X81158370Y-202150547D01*
X81060186Y-202270186D01*
X80958729Y-202353448D01*
X80922991Y-202382778D01*
X80766466Y-202466443D01*
X80596627Y-202517963D01*
X80530442Y-202524482D01*
X80464260Y-202531000D01*
X80375740Y-202531000D01*
X80309558Y-202524482D01*
X80243373Y-202517963D01*
X80073534Y-202466443D01*
X79917009Y-202382778D01*
X79881271Y-202353448D01*
X79779814Y-202270186D01*
X79681630Y-202150547D01*
X79667222Y-202132991D01*
X79583557Y-201976466D01*
X79532037Y-201806627D01*
X79514641Y-201630000D01*
X79532037Y-201453373D01*
X79583557Y-201283534D01*
X79667222Y-201127009D01*
X79698428Y-201088985D01*
X79779814Y-200989814D01*
X79890473Y-200899000D01*
X79917009Y-200877222D01*
X80073534Y-200793557D01*
X80243373Y-200742037D01*
X80309558Y-200735518D01*
X80375740Y-200729000D01*
X80464260Y-200729000D01*
X80530442Y-200735518D01*
X80530442Y-200735518D01*
G37*
G36*
X77990442Y-200735518D02*
G01*
X78056627Y-200742037D01*
X78226466Y-200793557D01*
X78382991Y-200877222D01*
X78409527Y-200899000D01*
X78520186Y-200989814D01*
X78601572Y-201088985D01*
X78632778Y-201127009D01*
X78716443Y-201283534D01*
X78767963Y-201453373D01*
X78785359Y-201630000D01*
X78767963Y-201806627D01*
X78716443Y-201976466D01*
X78632778Y-202132991D01*
X78618370Y-202150547D01*
X78520186Y-202270186D01*
X78418729Y-202353448D01*
X78382991Y-202382778D01*
X78226466Y-202466443D01*
X78056627Y-202517963D01*
X77990442Y-202524482D01*
X77924260Y-202531000D01*
X77835740Y-202531000D01*
X77769558Y-202524482D01*
X77703373Y-202517963D01*
X77533534Y-202466443D01*
X77377009Y-202382778D01*
X77341271Y-202353448D01*
X77239814Y-202270186D01*
X77141630Y-202150547D01*
X77127222Y-202132991D01*
X77043557Y-201976466D01*
X76992037Y-201806627D01*
X76974641Y-201630000D01*
X76992037Y-201453373D01*
X77043557Y-201283534D01*
X77127222Y-201127009D01*
X77158428Y-201088985D01*
X77239814Y-200989814D01*
X77350473Y-200899000D01*
X77377009Y-200877222D01*
X77533534Y-200793557D01*
X77703373Y-200742037D01*
X77769558Y-200735518D01*
X77835740Y-200729000D01*
X77924260Y-200729000D01*
X77990442Y-200735518D01*
X77990442Y-200735518D01*
G37*
G36*
X75450442Y-200735518D02*
G01*
X75516627Y-200742037D01*
X75686466Y-200793557D01*
X75842991Y-200877222D01*
X75869527Y-200899000D01*
X75980186Y-200989814D01*
X76061572Y-201088985D01*
X76092778Y-201127009D01*
X76176443Y-201283534D01*
X76227963Y-201453373D01*
X76245359Y-201630000D01*
X76227963Y-201806627D01*
X76176443Y-201976466D01*
X76092778Y-202132991D01*
X76078370Y-202150547D01*
X75980186Y-202270186D01*
X75878729Y-202353448D01*
X75842991Y-202382778D01*
X75686466Y-202466443D01*
X75516627Y-202517963D01*
X75450442Y-202524482D01*
X75384260Y-202531000D01*
X75295740Y-202531000D01*
X75229558Y-202524482D01*
X75163373Y-202517963D01*
X74993534Y-202466443D01*
X74837009Y-202382778D01*
X74801271Y-202353448D01*
X74699814Y-202270186D01*
X74601630Y-202150547D01*
X74587222Y-202132991D01*
X74503557Y-201976466D01*
X74452037Y-201806627D01*
X74434641Y-201630000D01*
X74452037Y-201453373D01*
X74503557Y-201283534D01*
X74587222Y-201127009D01*
X74618428Y-201088985D01*
X74699814Y-200989814D01*
X74810473Y-200899000D01*
X74837009Y-200877222D01*
X74993534Y-200793557D01*
X75163373Y-200742037D01*
X75229558Y-200735518D01*
X75295740Y-200729000D01*
X75384260Y-200729000D01*
X75450442Y-200735518D01*
X75450442Y-200735518D01*
G37*
G36*
X72910442Y-200735518D02*
G01*
X72976627Y-200742037D01*
X73146466Y-200793557D01*
X73302991Y-200877222D01*
X73329527Y-200899000D01*
X73440186Y-200989814D01*
X73521572Y-201088985D01*
X73552778Y-201127009D01*
X73636443Y-201283534D01*
X73687963Y-201453373D01*
X73705359Y-201630000D01*
X73687963Y-201806627D01*
X73636443Y-201976466D01*
X73552778Y-202132991D01*
X73538370Y-202150547D01*
X73440186Y-202270186D01*
X73338729Y-202353448D01*
X73302991Y-202382778D01*
X73146466Y-202466443D01*
X72976627Y-202517963D01*
X72910442Y-202524482D01*
X72844260Y-202531000D01*
X72755740Y-202531000D01*
X72689558Y-202524482D01*
X72623373Y-202517963D01*
X72453534Y-202466443D01*
X72297009Y-202382778D01*
X72261271Y-202353448D01*
X72159814Y-202270186D01*
X72061630Y-202150547D01*
X72047222Y-202132991D01*
X71963557Y-201976466D01*
X71912037Y-201806627D01*
X71894641Y-201630000D01*
X71912037Y-201453373D01*
X71963557Y-201283534D01*
X72047222Y-201127009D01*
X72078428Y-201088985D01*
X72159814Y-200989814D01*
X72270473Y-200899000D01*
X72297009Y-200877222D01*
X72453534Y-200793557D01*
X72623373Y-200742037D01*
X72689558Y-200735518D01*
X72755740Y-200729000D01*
X72844260Y-200729000D01*
X72910442Y-200735518D01*
X72910442Y-200735518D01*
G37*
G36*
X67830442Y-200735518D02*
G01*
X67896627Y-200742037D01*
X68066466Y-200793557D01*
X68222991Y-200877222D01*
X68249527Y-200899000D01*
X68360186Y-200989814D01*
X68441572Y-201088985D01*
X68472778Y-201127009D01*
X68556443Y-201283534D01*
X68607963Y-201453373D01*
X68625359Y-201630000D01*
X68607963Y-201806627D01*
X68556443Y-201976466D01*
X68472778Y-202132991D01*
X68458370Y-202150547D01*
X68360186Y-202270186D01*
X68258729Y-202353448D01*
X68222991Y-202382778D01*
X68066466Y-202466443D01*
X67896627Y-202517963D01*
X67830442Y-202524482D01*
X67764260Y-202531000D01*
X67675740Y-202531000D01*
X67609558Y-202524482D01*
X67543373Y-202517963D01*
X67373534Y-202466443D01*
X67217009Y-202382778D01*
X67181271Y-202353448D01*
X67079814Y-202270186D01*
X66981630Y-202150547D01*
X66967222Y-202132991D01*
X66883557Y-201976466D01*
X66832037Y-201806627D01*
X66814641Y-201630000D01*
X66832037Y-201453373D01*
X66883557Y-201283534D01*
X66967222Y-201127009D01*
X66998428Y-201088985D01*
X67079814Y-200989814D01*
X67190473Y-200899000D01*
X67217009Y-200877222D01*
X67373534Y-200793557D01*
X67543373Y-200742037D01*
X67609558Y-200735518D01*
X67675740Y-200729000D01*
X67764260Y-200729000D01*
X67830442Y-200735518D01*
X67830442Y-200735518D01*
G37*
G36*
X65290442Y-200735518D02*
G01*
X65356627Y-200742037D01*
X65526466Y-200793557D01*
X65682991Y-200877222D01*
X65709527Y-200899000D01*
X65820186Y-200989814D01*
X65901572Y-201088985D01*
X65932778Y-201127009D01*
X66016443Y-201283534D01*
X66067963Y-201453373D01*
X66085359Y-201630000D01*
X66067963Y-201806627D01*
X66016443Y-201976466D01*
X65932778Y-202132991D01*
X65918370Y-202150547D01*
X65820186Y-202270186D01*
X65718729Y-202353448D01*
X65682991Y-202382778D01*
X65526466Y-202466443D01*
X65356627Y-202517963D01*
X65290442Y-202524482D01*
X65224260Y-202531000D01*
X65135740Y-202531000D01*
X65069558Y-202524482D01*
X65003373Y-202517963D01*
X64833534Y-202466443D01*
X64677009Y-202382778D01*
X64641271Y-202353448D01*
X64539814Y-202270186D01*
X64441630Y-202150547D01*
X64427222Y-202132991D01*
X64343557Y-201976466D01*
X64292037Y-201806627D01*
X64274641Y-201630000D01*
X64292037Y-201453373D01*
X64343557Y-201283534D01*
X64427222Y-201127009D01*
X64458428Y-201088985D01*
X64539814Y-200989814D01*
X64650473Y-200899000D01*
X64677009Y-200877222D01*
X64833534Y-200793557D01*
X65003373Y-200742037D01*
X65069558Y-200735518D01*
X65135740Y-200729000D01*
X65224260Y-200729000D01*
X65290442Y-200735518D01*
X65290442Y-200735518D01*
G37*
G36*
X62750442Y-200735518D02*
G01*
X62816627Y-200742037D01*
X62986466Y-200793557D01*
X63142991Y-200877222D01*
X63169527Y-200899000D01*
X63280186Y-200989814D01*
X63361572Y-201088985D01*
X63392778Y-201127009D01*
X63476443Y-201283534D01*
X63527963Y-201453373D01*
X63545359Y-201630000D01*
X63527963Y-201806627D01*
X63476443Y-201976466D01*
X63392778Y-202132991D01*
X63378370Y-202150547D01*
X63280186Y-202270186D01*
X63178729Y-202353448D01*
X63142991Y-202382778D01*
X62986466Y-202466443D01*
X62816627Y-202517963D01*
X62750442Y-202524482D01*
X62684260Y-202531000D01*
X62595740Y-202531000D01*
X62529558Y-202524482D01*
X62463373Y-202517963D01*
X62293534Y-202466443D01*
X62137009Y-202382778D01*
X62101271Y-202353448D01*
X61999814Y-202270186D01*
X61901630Y-202150547D01*
X61887222Y-202132991D01*
X61803557Y-201976466D01*
X61752037Y-201806627D01*
X61734641Y-201630000D01*
X61752037Y-201453373D01*
X61803557Y-201283534D01*
X61887222Y-201127009D01*
X61918428Y-201088985D01*
X61999814Y-200989814D01*
X62110473Y-200899000D01*
X62137009Y-200877222D01*
X62293534Y-200793557D01*
X62463373Y-200742037D01*
X62529558Y-200735518D01*
X62595740Y-200729000D01*
X62684260Y-200729000D01*
X62750442Y-200735518D01*
X62750442Y-200735518D01*
G37*
G36*
X60210442Y-200735518D02*
G01*
X60276627Y-200742037D01*
X60446466Y-200793557D01*
X60602991Y-200877222D01*
X60629527Y-200899000D01*
X60740186Y-200989814D01*
X60821572Y-201088985D01*
X60852778Y-201127009D01*
X60936443Y-201283534D01*
X60987963Y-201453373D01*
X61005359Y-201630000D01*
X60987963Y-201806627D01*
X60936443Y-201976466D01*
X60852778Y-202132991D01*
X60838370Y-202150547D01*
X60740186Y-202270186D01*
X60638729Y-202353448D01*
X60602991Y-202382778D01*
X60446466Y-202466443D01*
X60276627Y-202517963D01*
X60210442Y-202524482D01*
X60144260Y-202531000D01*
X60055740Y-202531000D01*
X59989558Y-202524482D01*
X59923373Y-202517963D01*
X59753534Y-202466443D01*
X59597009Y-202382778D01*
X59561271Y-202353448D01*
X59459814Y-202270186D01*
X59361630Y-202150547D01*
X59347222Y-202132991D01*
X59263557Y-201976466D01*
X59212037Y-201806627D01*
X59194641Y-201630000D01*
X59212037Y-201453373D01*
X59263557Y-201283534D01*
X59347222Y-201127009D01*
X59378428Y-201088985D01*
X59459814Y-200989814D01*
X59570473Y-200899000D01*
X59597009Y-200877222D01*
X59753534Y-200793557D01*
X59923373Y-200742037D01*
X59989558Y-200735518D01*
X60055740Y-200729000D01*
X60144260Y-200729000D01*
X60210442Y-200735518D01*
X60210442Y-200735518D01*
G37*
G36*
X98310442Y-200735518D02*
G01*
X98376627Y-200742037D01*
X98546466Y-200793557D01*
X98702991Y-200877222D01*
X98729527Y-200899000D01*
X98840186Y-200989814D01*
X98921572Y-201088985D01*
X98952778Y-201127009D01*
X99036443Y-201283534D01*
X99087963Y-201453373D01*
X99105359Y-201630000D01*
X99087963Y-201806627D01*
X99036443Y-201976466D01*
X98952778Y-202132991D01*
X98938370Y-202150547D01*
X98840186Y-202270186D01*
X98738729Y-202353448D01*
X98702991Y-202382778D01*
X98546466Y-202466443D01*
X98376627Y-202517963D01*
X98310442Y-202524482D01*
X98244260Y-202531000D01*
X98155740Y-202531000D01*
X98089558Y-202524482D01*
X98023373Y-202517963D01*
X97853534Y-202466443D01*
X97697009Y-202382778D01*
X97661271Y-202353448D01*
X97559814Y-202270186D01*
X97461630Y-202150547D01*
X97447222Y-202132991D01*
X97363557Y-201976466D01*
X97312037Y-201806627D01*
X97294641Y-201630000D01*
X97312037Y-201453373D01*
X97363557Y-201283534D01*
X97447222Y-201127009D01*
X97478428Y-201088985D01*
X97559814Y-200989814D01*
X97670473Y-200899000D01*
X97697009Y-200877222D01*
X97853534Y-200793557D01*
X98023373Y-200742037D01*
X98089558Y-200735518D01*
X98155740Y-200729000D01*
X98244260Y-200729000D01*
X98310442Y-200735518D01*
X98310442Y-200735518D01*
G37*
G36*
X100850442Y-200735518D02*
G01*
X100916627Y-200742037D01*
X101086466Y-200793557D01*
X101242991Y-200877222D01*
X101269527Y-200899000D01*
X101380186Y-200989814D01*
X101461572Y-201088985D01*
X101492778Y-201127009D01*
X101576443Y-201283534D01*
X101627963Y-201453373D01*
X101645359Y-201630000D01*
X101627963Y-201806627D01*
X101576443Y-201976466D01*
X101492778Y-202132991D01*
X101478370Y-202150547D01*
X101380186Y-202270186D01*
X101278729Y-202353448D01*
X101242991Y-202382778D01*
X101086466Y-202466443D01*
X100916627Y-202517963D01*
X100850442Y-202524482D01*
X100784260Y-202531000D01*
X100695740Y-202531000D01*
X100629558Y-202524482D01*
X100563373Y-202517963D01*
X100393534Y-202466443D01*
X100237009Y-202382778D01*
X100201271Y-202353448D01*
X100099814Y-202270186D01*
X100001630Y-202150547D01*
X99987222Y-202132991D01*
X99903557Y-201976466D01*
X99852037Y-201806627D01*
X99834641Y-201630000D01*
X99852037Y-201453373D01*
X99903557Y-201283534D01*
X99987222Y-201127009D01*
X100018428Y-201088985D01*
X100099814Y-200989814D01*
X100210473Y-200899000D01*
X100237009Y-200877222D01*
X100393534Y-200793557D01*
X100563373Y-200742037D01*
X100629558Y-200735518D01*
X100695740Y-200729000D01*
X100784260Y-200729000D01*
X100850442Y-200735518D01*
X100850442Y-200735518D01*
G37*
G36*
X103390442Y-200735518D02*
G01*
X103456627Y-200742037D01*
X103626466Y-200793557D01*
X103782991Y-200877222D01*
X103809527Y-200899000D01*
X103920186Y-200989814D01*
X104001572Y-201088985D01*
X104032778Y-201127009D01*
X104116443Y-201283534D01*
X104167963Y-201453373D01*
X104185359Y-201630000D01*
X104167963Y-201806627D01*
X104116443Y-201976466D01*
X104032778Y-202132991D01*
X104018370Y-202150547D01*
X103920186Y-202270186D01*
X103818729Y-202353448D01*
X103782991Y-202382778D01*
X103626466Y-202466443D01*
X103456627Y-202517963D01*
X103390442Y-202524482D01*
X103324260Y-202531000D01*
X103235740Y-202531000D01*
X103169558Y-202524482D01*
X103103373Y-202517963D01*
X102933534Y-202466443D01*
X102777009Y-202382778D01*
X102741271Y-202353448D01*
X102639814Y-202270186D01*
X102541630Y-202150547D01*
X102527222Y-202132991D01*
X102443557Y-201976466D01*
X102392037Y-201806627D01*
X102374641Y-201630000D01*
X102392037Y-201453373D01*
X102443557Y-201283534D01*
X102527222Y-201127009D01*
X102558428Y-201088985D01*
X102639814Y-200989814D01*
X102750473Y-200899000D01*
X102777009Y-200877222D01*
X102933534Y-200793557D01*
X103103373Y-200742037D01*
X103169558Y-200735518D01*
X103235740Y-200729000D01*
X103324260Y-200729000D01*
X103390442Y-200735518D01*
X103390442Y-200735518D01*
G37*
G36*
X57670442Y-200735518D02*
G01*
X57736627Y-200742037D01*
X57906466Y-200793557D01*
X58062991Y-200877222D01*
X58089527Y-200899000D01*
X58200186Y-200989814D01*
X58281572Y-201088985D01*
X58312778Y-201127009D01*
X58396443Y-201283534D01*
X58447963Y-201453373D01*
X58465359Y-201630000D01*
X58447963Y-201806627D01*
X58396443Y-201976466D01*
X58312778Y-202132991D01*
X58298370Y-202150547D01*
X58200186Y-202270186D01*
X58098729Y-202353448D01*
X58062991Y-202382778D01*
X57906466Y-202466443D01*
X57736627Y-202517963D01*
X57670442Y-202524482D01*
X57604260Y-202531000D01*
X57515740Y-202531000D01*
X57449558Y-202524482D01*
X57383373Y-202517963D01*
X57213534Y-202466443D01*
X57057009Y-202382778D01*
X57021271Y-202353448D01*
X56919814Y-202270186D01*
X56821630Y-202150547D01*
X56807222Y-202132991D01*
X56723557Y-201976466D01*
X56672037Y-201806627D01*
X56654641Y-201630000D01*
X56672037Y-201453373D01*
X56723557Y-201283534D01*
X56807222Y-201127009D01*
X56838428Y-201088985D01*
X56919814Y-200989814D01*
X57030473Y-200899000D01*
X57057009Y-200877222D01*
X57213534Y-200793557D01*
X57383373Y-200742037D01*
X57449558Y-200735518D01*
X57515740Y-200729000D01*
X57604260Y-200729000D01*
X57670442Y-200735518D01*
X57670442Y-200735518D01*
G37*
G36*
X55130442Y-200735518D02*
G01*
X55196627Y-200742037D01*
X55366466Y-200793557D01*
X55522991Y-200877222D01*
X55549527Y-200899000D01*
X55660186Y-200989814D01*
X55741572Y-201088985D01*
X55772778Y-201127009D01*
X55856443Y-201283534D01*
X55907963Y-201453373D01*
X55925359Y-201630000D01*
X55907963Y-201806627D01*
X55856443Y-201976466D01*
X55772778Y-202132991D01*
X55758370Y-202150547D01*
X55660186Y-202270186D01*
X55558729Y-202353448D01*
X55522991Y-202382778D01*
X55366466Y-202466443D01*
X55196627Y-202517963D01*
X55130442Y-202524482D01*
X55064260Y-202531000D01*
X54975740Y-202531000D01*
X54909558Y-202524482D01*
X54843373Y-202517963D01*
X54673534Y-202466443D01*
X54517009Y-202382778D01*
X54481271Y-202353448D01*
X54379814Y-202270186D01*
X54281630Y-202150547D01*
X54267222Y-202132991D01*
X54183557Y-201976466D01*
X54132037Y-201806627D01*
X54114641Y-201630000D01*
X54132037Y-201453373D01*
X54183557Y-201283534D01*
X54267222Y-201127009D01*
X54298428Y-201088985D01*
X54379814Y-200989814D01*
X54490473Y-200899000D01*
X54517009Y-200877222D01*
X54673534Y-200793557D01*
X54843373Y-200742037D01*
X54909558Y-200735518D01*
X54975740Y-200729000D01*
X55064260Y-200729000D01*
X55130442Y-200735518D01*
X55130442Y-200735518D01*
G37*
G36*
X95770442Y-200735518D02*
G01*
X95836627Y-200742037D01*
X96006466Y-200793557D01*
X96162991Y-200877222D01*
X96189527Y-200899000D01*
X96300186Y-200989814D01*
X96381572Y-201088985D01*
X96412778Y-201127009D01*
X96496443Y-201283534D01*
X96547963Y-201453373D01*
X96565359Y-201630000D01*
X96547963Y-201806627D01*
X96496443Y-201976466D01*
X96412778Y-202132991D01*
X96398370Y-202150547D01*
X96300186Y-202270186D01*
X96198729Y-202353448D01*
X96162991Y-202382778D01*
X96006466Y-202466443D01*
X95836627Y-202517963D01*
X95770442Y-202524482D01*
X95704260Y-202531000D01*
X95615740Y-202531000D01*
X95549558Y-202524482D01*
X95483373Y-202517963D01*
X95313534Y-202466443D01*
X95157009Y-202382778D01*
X95121271Y-202353448D01*
X95019814Y-202270186D01*
X94921630Y-202150547D01*
X94907222Y-202132991D01*
X94823557Y-201976466D01*
X94772037Y-201806627D01*
X94754641Y-201630000D01*
X94772037Y-201453373D01*
X94823557Y-201283534D01*
X94907222Y-201127009D01*
X94938428Y-201088985D01*
X95019814Y-200989814D01*
X95130473Y-200899000D01*
X95157009Y-200877222D01*
X95313534Y-200793557D01*
X95483373Y-200742037D01*
X95549558Y-200735518D01*
X95615740Y-200729000D01*
X95704260Y-200729000D01*
X95770442Y-200735518D01*
X95770442Y-200735518D01*
G37*
G36*
X70370442Y-200735518D02*
G01*
X70436627Y-200742037D01*
X70606466Y-200793557D01*
X70762991Y-200877222D01*
X70789527Y-200899000D01*
X70900186Y-200989814D01*
X70981572Y-201088985D01*
X71012778Y-201127009D01*
X71096443Y-201283534D01*
X71147963Y-201453373D01*
X71165359Y-201630000D01*
X71147963Y-201806627D01*
X71096443Y-201976466D01*
X71012778Y-202132991D01*
X70998370Y-202150547D01*
X70900186Y-202270186D01*
X70798729Y-202353448D01*
X70762991Y-202382778D01*
X70606466Y-202466443D01*
X70436627Y-202517963D01*
X70370442Y-202524482D01*
X70304260Y-202531000D01*
X70215740Y-202531000D01*
X70149558Y-202524482D01*
X70083373Y-202517963D01*
X69913534Y-202466443D01*
X69757009Y-202382778D01*
X69721271Y-202353448D01*
X69619814Y-202270186D01*
X69521630Y-202150547D01*
X69507222Y-202132991D01*
X69423557Y-201976466D01*
X69372037Y-201806627D01*
X69354641Y-201630000D01*
X69372037Y-201453373D01*
X69423557Y-201283534D01*
X69507222Y-201127009D01*
X69538428Y-201088985D01*
X69619814Y-200989814D01*
X69730473Y-200899000D01*
X69757009Y-200877222D01*
X69913534Y-200793557D01*
X70083373Y-200742037D01*
X70149558Y-200735518D01*
X70215740Y-200729000D01*
X70304260Y-200729000D01*
X70370442Y-200735518D01*
X70370442Y-200735518D01*
G37*
G36*
X41768228Y-198391703D02*
G01*
X41923100Y-198455853D01*
X42062481Y-198548985D01*
X42181015Y-198667519D01*
X42274147Y-198806900D01*
X42338297Y-198961772D01*
X42371000Y-199126184D01*
X42371000Y-199293816D01*
X42338297Y-199458228D01*
X42274147Y-199613100D01*
X42181015Y-199752481D01*
X42062481Y-199871015D01*
X41923100Y-199964147D01*
X41768228Y-200028297D01*
X41603816Y-200061000D01*
X41436184Y-200061000D01*
X41271772Y-200028297D01*
X41116900Y-199964147D01*
X40977519Y-199871015D01*
X40858985Y-199752481D01*
X40765853Y-199613100D01*
X40701703Y-199458228D01*
X40669000Y-199293816D01*
X40669000Y-199126184D01*
X40701703Y-198961772D01*
X40765853Y-198806900D01*
X40858985Y-198667519D01*
X40977519Y-198548985D01*
X41116900Y-198455853D01*
X41271772Y-198391703D01*
X41436184Y-198359000D01*
X41603816Y-198359000D01*
X41768228Y-198391703D01*
X41768228Y-198391703D01*
G37*
G36*
X36688228Y-198391703D02*
G01*
X36843100Y-198455853D01*
X36982481Y-198548985D01*
X37101015Y-198667519D01*
X37194147Y-198806900D01*
X37258297Y-198961772D01*
X37291000Y-199126184D01*
X37291000Y-199293816D01*
X37258297Y-199458228D01*
X37194147Y-199613100D01*
X37101015Y-199752481D01*
X36982481Y-199871015D01*
X36843100Y-199964147D01*
X36688228Y-200028297D01*
X36523816Y-200061000D01*
X36356184Y-200061000D01*
X36191772Y-200028297D01*
X36036900Y-199964147D01*
X35897519Y-199871015D01*
X35778985Y-199752481D01*
X35685853Y-199613100D01*
X35621703Y-199458228D01*
X35589000Y-199293816D01*
X35589000Y-199126184D01*
X35621703Y-198961772D01*
X35685853Y-198806900D01*
X35778985Y-198667519D01*
X35897519Y-198548985D01*
X36036900Y-198455853D01*
X36191772Y-198391703D01*
X36356184Y-198359000D01*
X36523816Y-198359000D01*
X36688228Y-198391703D01*
X36688228Y-198391703D01*
G37*
G36*
X39228228Y-198391703D02*
G01*
X39383100Y-198455853D01*
X39522481Y-198548985D01*
X39641015Y-198667519D01*
X39734147Y-198806900D01*
X39798297Y-198961772D01*
X39831000Y-199126184D01*
X39831000Y-199293816D01*
X39798297Y-199458228D01*
X39734147Y-199613100D01*
X39641015Y-199752481D01*
X39522481Y-199871015D01*
X39383100Y-199964147D01*
X39228228Y-200028297D01*
X39063816Y-200061000D01*
X38896184Y-200061000D01*
X38731772Y-200028297D01*
X38576900Y-199964147D01*
X38437519Y-199871015D01*
X38318985Y-199752481D01*
X38225853Y-199613100D01*
X38161703Y-199458228D01*
X38129000Y-199293816D01*
X38129000Y-199126184D01*
X38161703Y-198961772D01*
X38225853Y-198806900D01*
X38318985Y-198667519D01*
X38437519Y-198548985D01*
X38576900Y-198455853D01*
X38731772Y-198391703D01*
X38896184Y-198359000D01*
X39063816Y-198359000D01*
X39228228Y-198391703D01*
X39228228Y-198391703D01*
G37*
G36*
X34148228Y-198391703D02*
G01*
X34303100Y-198455853D01*
X34442481Y-198548985D01*
X34561015Y-198667519D01*
X34654147Y-198806900D01*
X34718297Y-198961772D01*
X34751000Y-199126184D01*
X34751000Y-199293816D01*
X34718297Y-199458228D01*
X34654147Y-199613100D01*
X34561015Y-199752481D01*
X34442481Y-199871015D01*
X34303100Y-199964147D01*
X34148228Y-200028297D01*
X33983816Y-200061000D01*
X33816184Y-200061000D01*
X33651772Y-200028297D01*
X33496900Y-199964147D01*
X33357519Y-199871015D01*
X33238985Y-199752481D01*
X33145853Y-199613100D01*
X33081703Y-199458228D01*
X33049000Y-199293816D01*
X33049000Y-199126184D01*
X33081703Y-198961772D01*
X33145853Y-198806900D01*
X33238985Y-198667519D01*
X33357519Y-198548985D01*
X33496900Y-198455853D01*
X33651772Y-198391703D01*
X33816184Y-198359000D01*
X33983816Y-198359000D01*
X34148228Y-198391703D01*
X34148228Y-198391703D01*
G37*
G36*
X100850442Y-198195518D02*
G01*
X100916627Y-198202037D01*
X101086466Y-198253557D01*
X101242991Y-198337222D01*
X101269527Y-198359000D01*
X101380186Y-198449814D01*
X101461572Y-198548985D01*
X101492778Y-198587009D01*
X101576443Y-198743534D01*
X101627963Y-198913373D01*
X101645359Y-199090000D01*
X101627963Y-199266627D01*
X101576443Y-199436466D01*
X101492778Y-199592991D01*
X101476277Y-199613097D01*
X101380186Y-199730186D01*
X101278729Y-199813448D01*
X101242991Y-199842778D01*
X101086466Y-199926443D01*
X100916627Y-199977963D01*
X100850442Y-199984482D01*
X100784260Y-199991000D01*
X100695740Y-199991000D01*
X100629558Y-199984482D01*
X100563373Y-199977963D01*
X100393534Y-199926443D01*
X100237009Y-199842778D01*
X100201271Y-199813448D01*
X100099814Y-199730186D01*
X100003723Y-199613097D01*
X99987222Y-199592991D01*
X99903557Y-199436466D01*
X99852037Y-199266627D01*
X99834641Y-199090000D01*
X99852037Y-198913373D01*
X99903557Y-198743534D01*
X99987222Y-198587009D01*
X100018428Y-198548985D01*
X100099814Y-198449814D01*
X100210473Y-198359000D01*
X100237009Y-198337222D01*
X100393534Y-198253557D01*
X100563373Y-198202037D01*
X100629558Y-198195518D01*
X100695740Y-198189000D01*
X100784260Y-198189000D01*
X100850442Y-198195518D01*
X100850442Y-198195518D01*
G37*
G36*
X62750442Y-198195518D02*
G01*
X62816627Y-198202037D01*
X62986466Y-198253557D01*
X63142991Y-198337222D01*
X63169527Y-198359000D01*
X63280186Y-198449814D01*
X63361572Y-198548985D01*
X63392778Y-198587009D01*
X63476443Y-198743534D01*
X63527963Y-198913373D01*
X63545359Y-199090000D01*
X63527963Y-199266627D01*
X63476443Y-199436466D01*
X63392778Y-199592991D01*
X63376277Y-199613097D01*
X63280186Y-199730186D01*
X63178729Y-199813448D01*
X63142991Y-199842778D01*
X62986466Y-199926443D01*
X62816627Y-199977963D01*
X62750442Y-199984482D01*
X62684260Y-199991000D01*
X62595740Y-199991000D01*
X62529558Y-199984482D01*
X62463373Y-199977963D01*
X62293534Y-199926443D01*
X62137009Y-199842778D01*
X62101271Y-199813448D01*
X61999814Y-199730186D01*
X61903723Y-199613097D01*
X61887222Y-199592991D01*
X61803557Y-199436466D01*
X61752037Y-199266627D01*
X61734641Y-199090000D01*
X61752037Y-198913373D01*
X61803557Y-198743534D01*
X61887222Y-198587009D01*
X61918428Y-198548985D01*
X61999814Y-198449814D01*
X62110473Y-198359000D01*
X62137009Y-198337222D01*
X62293534Y-198253557D01*
X62463373Y-198202037D01*
X62529558Y-198195518D01*
X62595740Y-198189000D01*
X62684260Y-198189000D01*
X62750442Y-198195518D01*
X62750442Y-198195518D01*
G37*
G36*
X57670442Y-198195518D02*
G01*
X57736627Y-198202037D01*
X57906466Y-198253557D01*
X58062991Y-198337222D01*
X58089527Y-198359000D01*
X58200186Y-198449814D01*
X58281572Y-198548985D01*
X58312778Y-198587009D01*
X58396443Y-198743534D01*
X58447963Y-198913373D01*
X58465359Y-199090000D01*
X58447963Y-199266627D01*
X58396443Y-199436466D01*
X58312778Y-199592991D01*
X58296277Y-199613097D01*
X58200186Y-199730186D01*
X58098729Y-199813448D01*
X58062991Y-199842778D01*
X57906466Y-199926443D01*
X57736627Y-199977963D01*
X57670442Y-199984482D01*
X57604260Y-199991000D01*
X57515740Y-199991000D01*
X57449558Y-199984482D01*
X57383373Y-199977963D01*
X57213534Y-199926443D01*
X57057009Y-199842778D01*
X57021271Y-199813448D01*
X56919814Y-199730186D01*
X56823723Y-199613097D01*
X56807222Y-199592991D01*
X56723557Y-199436466D01*
X56672037Y-199266627D01*
X56654641Y-199090000D01*
X56672037Y-198913373D01*
X56723557Y-198743534D01*
X56807222Y-198587009D01*
X56838428Y-198548985D01*
X56919814Y-198449814D01*
X57030473Y-198359000D01*
X57057009Y-198337222D01*
X57213534Y-198253557D01*
X57383373Y-198202037D01*
X57449558Y-198195518D01*
X57515740Y-198189000D01*
X57604260Y-198189000D01*
X57670442Y-198195518D01*
X57670442Y-198195518D01*
G37*
G36*
X65290442Y-198195518D02*
G01*
X65356627Y-198202037D01*
X65526466Y-198253557D01*
X65682991Y-198337222D01*
X65709527Y-198359000D01*
X65820186Y-198449814D01*
X65901572Y-198548985D01*
X65932778Y-198587009D01*
X66016443Y-198743534D01*
X66067963Y-198913373D01*
X66085359Y-199090000D01*
X66067963Y-199266627D01*
X66016443Y-199436466D01*
X65932778Y-199592991D01*
X65916277Y-199613097D01*
X65820186Y-199730186D01*
X65718729Y-199813448D01*
X65682991Y-199842778D01*
X65526466Y-199926443D01*
X65356627Y-199977963D01*
X65290442Y-199984482D01*
X65224260Y-199991000D01*
X65135740Y-199991000D01*
X65069558Y-199984482D01*
X65003373Y-199977963D01*
X64833534Y-199926443D01*
X64677009Y-199842778D01*
X64641271Y-199813448D01*
X64539814Y-199730186D01*
X64443723Y-199613097D01*
X64427222Y-199592991D01*
X64343557Y-199436466D01*
X64292037Y-199266627D01*
X64274641Y-199090000D01*
X64292037Y-198913373D01*
X64343557Y-198743534D01*
X64427222Y-198587009D01*
X64458428Y-198548985D01*
X64539814Y-198449814D01*
X64650473Y-198359000D01*
X64677009Y-198337222D01*
X64833534Y-198253557D01*
X65003373Y-198202037D01*
X65069558Y-198195518D01*
X65135740Y-198189000D01*
X65224260Y-198189000D01*
X65290442Y-198195518D01*
X65290442Y-198195518D01*
G37*
G36*
X67830442Y-198195518D02*
G01*
X67896627Y-198202037D01*
X68066466Y-198253557D01*
X68222991Y-198337222D01*
X68249527Y-198359000D01*
X68360186Y-198449814D01*
X68441572Y-198548985D01*
X68472778Y-198587009D01*
X68556443Y-198743534D01*
X68607963Y-198913373D01*
X68625359Y-199090000D01*
X68607963Y-199266627D01*
X68556443Y-199436466D01*
X68472778Y-199592991D01*
X68456277Y-199613097D01*
X68360186Y-199730186D01*
X68258729Y-199813448D01*
X68222991Y-199842778D01*
X68066466Y-199926443D01*
X67896627Y-199977963D01*
X67830442Y-199984482D01*
X67764260Y-199991000D01*
X67675740Y-199991000D01*
X67609558Y-199984482D01*
X67543373Y-199977963D01*
X67373534Y-199926443D01*
X67217009Y-199842778D01*
X67181271Y-199813448D01*
X67079814Y-199730186D01*
X66983723Y-199613097D01*
X66967222Y-199592991D01*
X66883557Y-199436466D01*
X66832037Y-199266627D01*
X66814641Y-199090000D01*
X66832037Y-198913373D01*
X66883557Y-198743534D01*
X66967222Y-198587009D01*
X66998428Y-198548985D01*
X67079814Y-198449814D01*
X67190473Y-198359000D01*
X67217009Y-198337222D01*
X67373534Y-198253557D01*
X67543373Y-198202037D01*
X67609558Y-198195518D01*
X67675740Y-198189000D01*
X67764260Y-198189000D01*
X67830442Y-198195518D01*
X67830442Y-198195518D01*
G37*
G36*
X55130442Y-198195518D02*
G01*
X55196627Y-198202037D01*
X55366466Y-198253557D01*
X55522991Y-198337222D01*
X55549527Y-198359000D01*
X55660186Y-198449814D01*
X55741572Y-198548985D01*
X55772778Y-198587009D01*
X55856443Y-198743534D01*
X55907963Y-198913373D01*
X55925359Y-199090000D01*
X55907963Y-199266627D01*
X55856443Y-199436466D01*
X55772778Y-199592991D01*
X55756277Y-199613097D01*
X55660186Y-199730186D01*
X55558729Y-199813448D01*
X55522991Y-199842778D01*
X55366466Y-199926443D01*
X55196627Y-199977963D01*
X55130442Y-199984482D01*
X55064260Y-199991000D01*
X54975740Y-199991000D01*
X54909558Y-199984482D01*
X54843373Y-199977963D01*
X54673534Y-199926443D01*
X54517009Y-199842778D01*
X54481271Y-199813448D01*
X54379814Y-199730186D01*
X54283723Y-199613097D01*
X54267222Y-199592991D01*
X54183557Y-199436466D01*
X54132037Y-199266627D01*
X54114641Y-199090000D01*
X54132037Y-198913373D01*
X54183557Y-198743534D01*
X54267222Y-198587009D01*
X54298428Y-198548985D01*
X54379814Y-198449814D01*
X54490473Y-198359000D01*
X54517009Y-198337222D01*
X54673534Y-198253557D01*
X54843373Y-198202037D01*
X54909558Y-198195518D01*
X54975740Y-198189000D01*
X55064260Y-198189000D01*
X55130442Y-198195518D01*
X55130442Y-198195518D01*
G37*
G36*
X70370442Y-198195518D02*
G01*
X70436627Y-198202037D01*
X70606466Y-198253557D01*
X70762991Y-198337222D01*
X70789527Y-198359000D01*
X70900186Y-198449814D01*
X70981572Y-198548985D01*
X71012778Y-198587009D01*
X71096443Y-198743534D01*
X71147963Y-198913373D01*
X71165359Y-199090000D01*
X71147963Y-199266627D01*
X71096443Y-199436466D01*
X71012778Y-199592991D01*
X70996277Y-199613097D01*
X70900186Y-199730186D01*
X70798729Y-199813448D01*
X70762991Y-199842778D01*
X70606466Y-199926443D01*
X70436627Y-199977963D01*
X70370442Y-199984482D01*
X70304260Y-199991000D01*
X70215740Y-199991000D01*
X70149558Y-199984482D01*
X70083373Y-199977963D01*
X69913534Y-199926443D01*
X69757009Y-199842778D01*
X69721271Y-199813448D01*
X69619814Y-199730186D01*
X69523723Y-199613097D01*
X69507222Y-199592991D01*
X69423557Y-199436466D01*
X69372037Y-199266627D01*
X69354641Y-199090000D01*
X69372037Y-198913373D01*
X69423557Y-198743534D01*
X69507222Y-198587009D01*
X69538428Y-198548985D01*
X69619814Y-198449814D01*
X69730473Y-198359000D01*
X69757009Y-198337222D01*
X69913534Y-198253557D01*
X70083373Y-198202037D01*
X70149558Y-198195518D01*
X70215740Y-198189000D01*
X70304260Y-198189000D01*
X70370442Y-198195518D01*
X70370442Y-198195518D01*
G37*
G36*
X72910442Y-198195518D02*
G01*
X72976627Y-198202037D01*
X73146466Y-198253557D01*
X73302991Y-198337222D01*
X73329527Y-198359000D01*
X73440186Y-198449814D01*
X73521572Y-198548985D01*
X73552778Y-198587009D01*
X73636443Y-198743534D01*
X73687963Y-198913373D01*
X73705359Y-199090000D01*
X73687963Y-199266627D01*
X73636443Y-199436466D01*
X73552778Y-199592991D01*
X73536277Y-199613097D01*
X73440186Y-199730186D01*
X73338729Y-199813448D01*
X73302991Y-199842778D01*
X73146466Y-199926443D01*
X72976627Y-199977963D01*
X72910442Y-199984482D01*
X72844260Y-199991000D01*
X72755740Y-199991000D01*
X72689558Y-199984482D01*
X72623373Y-199977963D01*
X72453534Y-199926443D01*
X72297009Y-199842778D01*
X72261271Y-199813448D01*
X72159814Y-199730186D01*
X72063723Y-199613097D01*
X72047222Y-199592991D01*
X71963557Y-199436466D01*
X71912037Y-199266627D01*
X71894641Y-199090000D01*
X71912037Y-198913373D01*
X71963557Y-198743534D01*
X72047222Y-198587009D01*
X72078428Y-198548985D01*
X72159814Y-198449814D01*
X72270473Y-198359000D01*
X72297009Y-198337222D01*
X72453534Y-198253557D01*
X72623373Y-198202037D01*
X72689558Y-198195518D01*
X72755740Y-198189000D01*
X72844260Y-198189000D01*
X72910442Y-198195518D01*
X72910442Y-198195518D01*
G37*
G36*
X75450442Y-198195518D02*
G01*
X75516627Y-198202037D01*
X75686466Y-198253557D01*
X75842991Y-198337222D01*
X75869527Y-198359000D01*
X75980186Y-198449814D01*
X76061572Y-198548985D01*
X76092778Y-198587009D01*
X76176443Y-198743534D01*
X76227963Y-198913373D01*
X76245359Y-199090000D01*
X76227963Y-199266627D01*
X76176443Y-199436466D01*
X76092778Y-199592991D01*
X76076277Y-199613097D01*
X75980186Y-199730186D01*
X75878729Y-199813448D01*
X75842991Y-199842778D01*
X75686466Y-199926443D01*
X75516627Y-199977963D01*
X75450442Y-199984482D01*
X75384260Y-199991000D01*
X75295740Y-199991000D01*
X75229558Y-199984482D01*
X75163373Y-199977963D01*
X74993534Y-199926443D01*
X74837009Y-199842778D01*
X74801271Y-199813448D01*
X74699814Y-199730186D01*
X74603723Y-199613097D01*
X74587222Y-199592991D01*
X74503557Y-199436466D01*
X74452037Y-199266627D01*
X74434641Y-199090000D01*
X74452037Y-198913373D01*
X74503557Y-198743534D01*
X74587222Y-198587009D01*
X74618428Y-198548985D01*
X74699814Y-198449814D01*
X74810473Y-198359000D01*
X74837009Y-198337222D01*
X74993534Y-198253557D01*
X75163373Y-198202037D01*
X75229558Y-198195518D01*
X75295740Y-198189000D01*
X75384260Y-198189000D01*
X75450442Y-198195518D01*
X75450442Y-198195518D01*
G37*
G36*
X77990442Y-198195518D02*
G01*
X78056627Y-198202037D01*
X78226466Y-198253557D01*
X78382991Y-198337222D01*
X78409527Y-198359000D01*
X78520186Y-198449814D01*
X78601572Y-198548985D01*
X78632778Y-198587009D01*
X78716443Y-198743534D01*
X78767963Y-198913373D01*
X78785359Y-199090000D01*
X78767963Y-199266627D01*
X78716443Y-199436466D01*
X78632778Y-199592991D01*
X78616277Y-199613097D01*
X78520186Y-199730186D01*
X78418729Y-199813448D01*
X78382991Y-199842778D01*
X78226466Y-199926443D01*
X78056627Y-199977963D01*
X77990442Y-199984482D01*
X77924260Y-199991000D01*
X77835740Y-199991000D01*
X77769558Y-199984482D01*
X77703373Y-199977963D01*
X77533534Y-199926443D01*
X77377009Y-199842778D01*
X77341271Y-199813448D01*
X77239814Y-199730186D01*
X77143723Y-199613097D01*
X77127222Y-199592991D01*
X77043557Y-199436466D01*
X76992037Y-199266627D01*
X76974641Y-199090000D01*
X76992037Y-198913373D01*
X77043557Y-198743534D01*
X77127222Y-198587009D01*
X77158428Y-198548985D01*
X77239814Y-198449814D01*
X77350473Y-198359000D01*
X77377009Y-198337222D01*
X77533534Y-198253557D01*
X77703373Y-198202037D01*
X77769558Y-198195518D01*
X77835740Y-198189000D01*
X77924260Y-198189000D01*
X77990442Y-198195518D01*
X77990442Y-198195518D01*
G37*
G36*
X83070442Y-198195518D02*
G01*
X83136627Y-198202037D01*
X83306466Y-198253557D01*
X83462991Y-198337222D01*
X83489527Y-198359000D01*
X83600186Y-198449814D01*
X83681572Y-198548985D01*
X83712778Y-198587009D01*
X83796443Y-198743534D01*
X83847963Y-198913373D01*
X83865359Y-199090000D01*
X83847963Y-199266627D01*
X83796443Y-199436466D01*
X83712778Y-199592991D01*
X83696277Y-199613097D01*
X83600186Y-199730186D01*
X83498729Y-199813448D01*
X83462991Y-199842778D01*
X83306466Y-199926443D01*
X83136627Y-199977963D01*
X83070442Y-199984482D01*
X83004260Y-199991000D01*
X82915740Y-199991000D01*
X82849558Y-199984482D01*
X82783373Y-199977963D01*
X82613534Y-199926443D01*
X82457009Y-199842778D01*
X82421271Y-199813448D01*
X82319814Y-199730186D01*
X82223723Y-199613097D01*
X82207222Y-199592991D01*
X82123557Y-199436466D01*
X82072037Y-199266627D01*
X82054641Y-199090000D01*
X82072037Y-198913373D01*
X82123557Y-198743534D01*
X82207222Y-198587009D01*
X82238428Y-198548985D01*
X82319814Y-198449814D01*
X82430473Y-198359000D01*
X82457009Y-198337222D01*
X82613534Y-198253557D01*
X82783373Y-198202037D01*
X82849558Y-198195518D01*
X82915740Y-198189000D01*
X83004260Y-198189000D01*
X83070442Y-198195518D01*
X83070442Y-198195518D01*
G37*
G36*
X85610442Y-198195518D02*
G01*
X85676627Y-198202037D01*
X85846466Y-198253557D01*
X86002991Y-198337222D01*
X86029527Y-198359000D01*
X86140186Y-198449814D01*
X86221572Y-198548985D01*
X86252778Y-198587009D01*
X86336443Y-198743534D01*
X86387963Y-198913373D01*
X86405359Y-199090000D01*
X86387963Y-199266627D01*
X86336443Y-199436466D01*
X86252778Y-199592991D01*
X86236277Y-199613097D01*
X86140186Y-199730186D01*
X86038729Y-199813448D01*
X86002991Y-199842778D01*
X85846466Y-199926443D01*
X85676627Y-199977963D01*
X85610442Y-199984482D01*
X85544260Y-199991000D01*
X85455740Y-199991000D01*
X85389558Y-199984482D01*
X85323373Y-199977963D01*
X85153534Y-199926443D01*
X84997009Y-199842778D01*
X84961271Y-199813448D01*
X84859814Y-199730186D01*
X84763723Y-199613097D01*
X84747222Y-199592991D01*
X84663557Y-199436466D01*
X84612037Y-199266627D01*
X84594641Y-199090000D01*
X84612037Y-198913373D01*
X84663557Y-198743534D01*
X84747222Y-198587009D01*
X84778428Y-198548985D01*
X84859814Y-198449814D01*
X84970473Y-198359000D01*
X84997009Y-198337222D01*
X85153534Y-198253557D01*
X85323373Y-198202037D01*
X85389558Y-198195518D01*
X85455740Y-198189000D01*
X85544260Y-198189000D01*
X85610442Y-198195518D01*
X85610442Y-198195518D01*
G37*
G36*
X88150442Y-198195518D02*
G01*
X88216627Y-198202037D01*
X88386466Y-198253557D01*
X88542991Y-198337222D01*
X88569527Y-198359000D01*
X88680186Y-198449814D01*
X88761572Y-198548985D01*
X88792778Y-198587009D01*
X88876443Y-198743534D01*
X88927963Y-198913373D01*
X88945359Y-199090000D01*
X88927963Y-199266627D01*
X88876443Y-199436466D01*
X88792778Y-199592991D01*
X88776277Y-199613097D01*
X88680186Y-199730186D01*
X88578729Y-199813448D01*
X88542991Y-199842778D01*
X88386466Y-199926443D01*
X88216627Y-199977963D01*
X88150442Y-199984482D01*
X88084260Y-199991000D01*
X87995740Y-199991000D01*
X87929558Y-199984482D01*
X87863373Y-199977963D01*
X87693534Y-199926443D01*
X87537009Y-199842778D01*
X87501271Y-199813448D01*
X87399814Y-199730186D01*
X87303723Y-199613097D01*
X87287222Y-199592991D01*
X87203557Y-199436466D01*
X87152037Y-199266627D01*
X87134641Y-199090000D01*
X87152037Y-198913373D01*
X87203557Y-198743534D01*
X87287222Y-198587009D01*
X87318428Y-198548985D01*
X87399814Y-198449814D01*
X87510473Y-198359000D01*
X87537009Y-198337222D01*
X87693534Y-198253557D01*
X87863373Y-198202037D01*
X87929558Y-198195518D01*
X87995740Y-198189000D01*
X88084260Y-198189000D01*
X88150442Y-198195518D01*
X88150442Y-198195518D01*
G37*
G36*
X98310442Y-198195518D02*
G01*
X98376627Y-198202037D01*
X98546466Y-198253557D01*
X98702991Y-198337222D01*
X98729527Y-198359000D01*
X98840186Y-198449814D01*
X98921572Y-198548985D01*
X98952778Y-198587009D01*
X99036443Y-198743534D01*
X99087963Y-198913373D01*
X99105359Y-199090000D01*
X99087963Y-199266627D01*
X99036443Y-199436466D01*
X98952778Y-199592991D01*
X98936277Y-199613097D01*
X98840186Y-199730186D01*
X98738729Y-199813448D01*
X98702991Y-199842778D01*
X98546466Y-199926443D01*
X98376627Y-199977963D01*
X98310442Y-199984482D01*
X98244260Y-199991000D01*
X98155740Y-199991000D01*
X98089558Y-199984482D01*
X98023373Y-199977963D01*
X97853534Y-199926443D01*
X97697009Y-199842778D01*
X97661271Y-199813448D01*
X97559814Y-199730186D01*
X97463723Y-199613097D01*
X97447222Y-199592991D01*
X97363557Y-199436466D01*
X97312037Y-199266627D01*
X97294641Y-199090000D01*
X97312037Y-198913373D01*
X97363557Y-198743534D01*
X97447222Y-198587009D01*
X97478428Y-198548985D01*
X97559814Y-198449814D01*
X97670473Y-198359000D01*
X97697009Y-198337222D01*
X97853534Y-198253557D01*
X98023373Y-198202037D01*
X98089558Y-198195518D01*
X98155740Y-198189000D01*
X98244260Y-198189000D01*
X98310442Y-198195518D01*
X98310442Y-198195518D01*
G37*
G36*
X90690442Y-198195518D02*
G01*
X90756627Y-198202037D01*
X90926466Y-198253557D01*
X91082991Y-198337222D01*
X91109527Y-198359000D01*
X91220186Y-198449814D01*
X91301572Y-198548985D01*
X91332778Y-198587009D01*
X91416443Y-198743534D01*
X91467963Y-198913373D01*
X91485359Y-199090000D01*
X91467963Y-199266627D01*
X91416443Y-199436466D01*
X91332778Y-199592991D01*
X91316277Y-199613097D01*
X91220186Y-199730186D01*
X91118729Y-199813448D01*
X91082991Y-199842778D01*
X90926466Y-199926443D01*
X90756627Y-199977963D01*
X90690442Y-199984482D01*
X90624260Y-199991000D01*
X90535740Y-199991000D01*
X90469558Y-199984482D01*
X90403373Y-199977963D01*
X90233534Y-199926443D01*
X90077009Y-199842778D01*
X90041271Y-199813448D01*
X89939814Y-199730186D01*
X89843723Y-199613097D01*
X89827222Y-199592991D01*
X89743557Y-199436466D01*
X89692037Y-199266627D01*
X89674641Y-199090000D01*
X89692037Y-198913373D01*
X89743557Y-198743534D01*
X89827222Y-198587009D01*
X89858428Y-198548985D01*
X89939814Y-198449814D01*
X90050473Y-198359000D01*
X90077009Y-198337222D01*
X90233534Y-198253557D01*
X90403373Y-198202037D01*
X90469558Y-198195518D01*
X90535740Y-198189000D01*
X90624260Y-198189000D01*
X90690442Y-198195518D01*
X90690442Y-198195518D01*
G37*
G36*
X60210442Y-198195518D02*
G01*
X60276627Y-198202037D01*
X60446466Y-198253557D01*
X60602991Y-198337222D01*
X60629527Y-198359000D01*
X60740186Y-198449814D01*
X60821572Y-198548985D01*
X60852778Y-198587009D01*
X60936443Y-198743534D01*
X60987963Y-198913373D01*
X61005359Y-199090000D01*
X60987963Y-199266627D01*
X60936443Y-199436466D01*
X60852778Y-199592991D01*
X60836277Y-199613097D01*
X60740186Y-199730186D01*
X60638729Y-199813448D01*
X60602991Y-199842778D01*
X60446466Y-199926443D01*
X60276627Y-199977963D01*
X60210442Y-199984482D01*
X60144260Y-199991000D01*
X60055740Y-199991000D01*
X59989558Y-199984482D01*
X59923373Y-199977963D01*
X59753534Y-199926443D01*
X59597009Y-199842778D01*
X59561271Y-199813448D01*
X59459814Y-199730186D01*
X59363723Y-199613097D01*
X59347222Y-199592991D01*
X59263557Y-199436466D01*
X59212037Y-199266627D01*
X59194641Y-199090000D01*
X59212037Y-198913373D01*
X59263557Y-198743534D01*
X59347222Y-198587009D01*
X59378428Y-198548985D01*
X59459814Y-198449814D01*
X59570473Y-198359000D01*
X59597009Y-198337222D01*
X59753534Y-198253557D01*
X59923373Y-198202037D01*
X59989558Y-198195518D01*
X60055740Y-198189000D01*
X60144260Y-198189000D01*
X60210442Y-198195518D01*
X60210442Y-198195518D01*
G37*
G36*
X93230442Y-198195518D02*
G01*
X93296627Y-198202037D01*
X93466466Y-198253557D01*
X93622991Y-198337222D01*
X93649527Y-198359000D01*
X93760186Y-198449814D01*
X93841572Y-198548985D01*
X93872778Y-198587009D01*
X93956443Y-198743534D01*
X94007963Y-198913373D01*
X94025359Y-199090000D01*
X94007963Y-199266627D01*
X93956443Y-199436466D01*
X93872778Y-199592991D01*
X93856277Y-199613097D01*
X93760186Y-199730186D01*
X93658729Y-199813448D01*
X93622991Y-199842778D01*
X93466466Y-199926443D01*
X93296627Y-199977963D01*
X93230442Y-199984482D01*
X93164260Y-199991000D01*
X93075740Y-199991000D01*
X93009558Y-199984482D01*
X92943373Y-199977963D01*
X92773534Y-199926443D01*
X92617009Y-199842778D01*
X92581271Y-199813448D01*
X92479814Y-199730186D01*
X92383723Y-199613097D01*
X92367222Y-199592991D01*
X92283557Y-199436466D01*
X92232037Y-199266627D01*
X92214641Y-199090000D01*
X92232037Y-198913373D01*
X92283557Y-198743534D01*
X92367222Y-198587009D01*
X92398428Y-198548985D01*
X92479814Y-198449814D01*
X92590473Y-198359000D01*
X92617009Y-198337222D01*
X92773534Y-198253557D01*
X92943373Y-198202037D01*
X93009558Y-198195518D01*
X93075740Y-198189000D01*
X93164260Y-198189000D01*
X93230442Y-198195518D01*
X93230442Y-198195518D01*
G37*
G36*
X95770442Y-198195518D02*
G01*
X95836627Y-198202037D01*
X96006466Y-198253557D01*
X96162991Y-198337222D01*
X96189527Y-198359000D01*
X96300186Y-198449814D01*
X96381572Y-198548985D01*
X96412778Y-198587009D01*
X96496443Y-198743534D01*
X96547963Y-198913373D01*
X96565359Y-199090000D01*
X96547963Y-199266627D01*
X96496443Y-199436466D01*
X96412778Y-199592991D01*
X96396277Y-199613097D01*
X96300186Y-199730186D01*
X96198729Y-199813448D01*
X96162991Y-199842778D01*
X96006466Y-199926443D01*
X95836627Y-199977963D01*
X95770442Y-199984482D01*
X95704260Y-199991000D01*
X95615740Y-199991000D01*
X95549558Y-199984482D01*
X95483373Y-199977963D01*
X95313534Y-199926443D01*
X95157009Y-199842778D01*
X95121271Y-199813448D01*
X95019814Y-199730186D01*
X94923723Y-199613097D01*
X94907222Y-199592991D01*
X94823557Y-199436466D01*
X94772037Y-199266627D01*
X94754641Y-199090000D01*
X94772037Y-198913373D01*
X94823557Y-198743534D01*
X94907222Y-198587009D01*
X94938428Y-198548985D01*
X95019814Y-198449814D01*
X95130473Y-198359000D01*
X95157009Y-198337222D01*
X95313534Y-198253557D01*
X95483373Y-198202037D01*
X95549558Y-198195518D01*
X95615740Y-198189000D01*
X95704260Y-198189000D01*
X95770442Y-198195518D01*
X95770442Y-198195518D01*
G37*
G36*
X104181000Y-199991000D02*
G01*
X102379000Y-199991000D01*
X102379000Y-198189000D01*
X104181000Y-198189000D01*
X104181000Y-199991000D01*
X104181000Y-199991000D01*
G37*
G36*
X80530442Y-198195518D02*
G01*
X80596627Y-198202037D01*
X80766466Y-198253557D01*
X80922991Y-198337222D01*
X80949527Y-198359000D01*
X81060186Y-198449814D01*
X81141572Y-198548985D01*
X81172778Y-198587009D01*
X81256443Y-198743534D01*
X81307963Y-198913373D01*
X81325359Y-199090000D01*
X81307963Y-199266627D01*
X81256443Y-199436466D01*
X81172778Y-199592991D01*
X81156277Y-199613097D01*
X81060186Y-199730186D01*
X80958729Y-199813448D01*
X80922991Y-199842778D01*
X80766466Y-199926443D01*
X80596627Y-199977963D01*
X80530442Y-199984482D01*
X80464260Y-199991000D01*
X80375740Y-199991000D01*
X80309558Y-199984482D01*
X80243373Y-199977963D01*
X80073534Y-199926443D01*
X79917009Y-199842778D01*
X79881271Y-199813448D01*
X79779814Y-199730186D01*
X79683723Y-199613097D01*
X79667222Y-199592991D01*
X79583557Y-199436466D01*
X79532037Y-199266627D01*
X79514641Y-199090000D01*
X79532037Y-198913373D01*
X79583557Y-198743534D01*
X79667222Y-198587009D01*
X79698428Y-198548985D01*
X79779814Y-198449814D01*
X79890473Y-198359000D01*
X79917009Y-198337222D01*
X80073534Y-198253557D01*
X80243373Y-198202037D01*
X80309558Y-198195518D01*
X80375740Y-198189000D01*
X80464260Y-198189000D01*
X80530442Y-198195518D01*
X80530442Y-198195518D01*
G37*
G36*
X41768228Y-195851703D02*
G01*
X41923100Y-195915853D01*
X42062481Y-196008985D01*
X42181015Y-196127519D01*
X42274147Y-196266900D01*
X42338297Y-196421772D01*
X42371000Y-196586184D01*
X42371000Y-196753816D01*
X42338297Y-196918228D01*
X42274147Y-197073100D01*
X42181015Y-197212481D01*
X42062481Y-197331015D01*
X41923100Y-197424147D01*
X41768228Y-197488297D01*
X41603816Y-197521000D01*
X41436184Y-197521000D01*
X41271772Y-197488297D01*
X41116900Y-197424147D01*
X40977519Y-197331015D01*
X40858985Y-197212481D01*
X40765853Y-197073100D01*
X40701703Y-196918228D01*
X40669000Y-196753816D01*
X40669000Y-196586184D01*
X40701703Y-196421772D01*
X40765853Y-196266900D01*
X40858985Y-196127519D01*
X40977519Y-196008985D01*
X41116900Y-195915853D01*
X41271772Y-195851703D01*
X41436184Y-195819000D01*
X41603816Y-195819000D01*
X41768228Y-195851703D01*
X41768228Y-195851703D01*
G37*
G36*
X39228228Y-195851703D02*
G01*
X39383100Y-195915853D01*
X39522481Y-196008985D01*
X39641015Y-196127519D01*
X39734147Y-196266900D01*
X39798297Y-196421772D01*
X39831000Y-196586184D01*
X39831000Y-196753816D01*
X39798297Y-196918228D01*
X39734147Y-197073100D01*
X39641015Y-197212481D01*
X39522481Y-197331015D01*
X39383100Y-197424147D01*
X39228228Y-197488297D01*
X39063816Y-197521000D01*
X38896184Y-197521000D01*
X38731772Y-197488297D01*
X38576900Y-197424147D01*
X38437519Y-197331015D01*
X38318985Y-197212481D01*
X38225853Y-197073100D01*
X38161703Y-196918228D01*
X38129000Y-196753816D01*
X38129000Y-196586184D01*
X38161703Y-196421772D01*
X38225853Y-196266900D01*
X38318985Y-196127519D01*
X38437519Y-196008985D01*
X38576900Y-195915853D01*
X38731772Y-195851703D01*
X38896184Y-195819000D01*
X39063816Y-195819000D01*
X39228228Y-195851703D01*
X39228228Y-195851703D01*
G37*
G36*
X34148228Y-195851703D02*
G01*
X34303100Y-195915853D01*
X34442481Y-196008985D01*
X34561015Y-196127519D01*
X34654147Y-196266900D01*
X34718297Y-196421772D01*
X34751000Y-196586184D01*
X34751000Y-196753816D01*
X34718297Y-196918228D01*
X34654147Y-197073100D01*
X34561015Y-197212481D01*
X34442481Y-197331015D01*
X34303100Y-197424147D01*
X34148228Y-197488297D01*
X33983816Y-197521000D01*
X33816184Y-197521000D01*
X33651772Y-197488297D01*
X33496900Y-197424147D01*
X33357519Y-197331015D01*
X33238985Y-197212481D01*
X33145853Y-197073100D01*
X33081703Y-196918228D01*
X33049000Y-196753816D01*
X33049000Y-196586184D01*
X33081703Y-196421772D01*
X33145853Y-196266900D01*
X33238985Y-196127519D01*
X33357519Y-196008985D01*
X33496900Y-195915853D01*
X33651772Y-195851703D01*
X33816184Y-195819000D01*
X33983816Y-195819000D01*
X34148228Y-195851703D01*
X34148228Y-195851703D01*
G37*
G36*
X36688228Y-195851703D02*
G01*
X36843100Y-195915853D01*
X36982481Y-196008985D01*
X37101015Y-196127519D01*
X37194147Y-196266900D01*
X37258297Y-196421772D01*
X37291000Y-196586184D01*
X37291000Y-196753816D01*
X37258297Y-196918228D01*
X37194147Y-197073100D01*
X37101015Y-197212481D01*
X36982481Y-197331015D01*
X36843100Y-197424147D01*
X36688228Y-197488297D01*
X36523816Y-197521000D01*
X36356184Y-197521000D01*
X36191772Y-197488297D01*
X36036900Y-197424147D01*
X35897519Y-197331015D01*
X35778985Y-197212481D01*
X35685853Y-197073100D01*
X35621703Y-196918228D01*
X35589000Y-196753816D01*
X35589000Y-196586184D01*
X35621703Y-196421772D01*
X35685853Y-196266900D01*
X35778985Y-196127519D01*
X35897519Y-196008985D01*
X36036900Y-195915853D01*
X36191772Y-195851703D01*
X36356184Y-195819000D01*
X36523816Y-195819000D01*
X36688228Y-195851703D01*
X36688228Y-195851703D01*
G37*
G36*
X36688228Y-193311703D02*
G01*
X36843100Y-193375853D01*
X36982481Y-193468985D01*
X37101015Y-193587519D01*
X37194147Y-193726900D01*
X37258297Y-193881772D01*
X37291000Y-194046184D01*
X37291000Y-194213816D01*
X37258297Y-194378228D01*
X37194147Y-194533100D01*
X37101015Y-194672481D01*
X36982481Y-194791015D01*
X36843100Y-194884147D01*
X36688228Y-194948297D01*
X36523816Y-194981000D01*
X36356184Y-194981000D01*
X36191772Y-194948297D01*
X36036900Y-194884147D01*
X35897519Y-194791015D01*
X35778985Y-194672481D01*
X35685853Y-194533100D01*
X35621703Y-194378228D01*
X35589000Y-194213816D01*
X35589000Y-194046184D01*
X35621703Y-193881772D01*
X35685853Y-193726900D01*
X35778985Y-193587519D01*
X35897519Y-193468985D01*
X36036900Y-193375853D01*
X36191772Y-193311703D01*
X36356184Y-193279000D01*
X36523816Y-193279000D01*
X36688228Y-193311703D01*
X36688228Y-193311703D01*
G37*
G36*
X39228228Y-193311703D02*
G01*
X39383100Y-193375853D01*
X39522481Y-193468985D01*
X39641015Y-193587519D01*
X39734147Y-193726900D01*
X39798297Y-193881772D01*
X39831000Y-194046184D01*
X39831000Y-194213816D01*
X39798297Y-194378228D01*
X39734147Y-194533100D01*
X39641015Y-194672481D01*
X39522481Y-194791015D01*
X39383100Y-194884147D01*
X39228228Y-194948297D01*
X39063816Y-194981000D01*
X38896184Y-194981000D01*
X38731772Y-194948297D01*
X38576900Y-194884147D01*
X38437519Y-194791015D01*
X38318985Y-194672481D01*
X38225853Y-194533100D01*
X38161703Y-194378228D01*
X38129000Y-194213816D01*
X38129000Y-194046184D01*
X38161703Y-193881772D01*
X38225853Y-193726900D01*
X38318985Y-193587519D01*
X38437519Y-193468985D01*
X38576900Y-193375853D01*
X38731772Y-193311703D01*
X38896184Y-193279000D01*
X39063816Y-193279000D01*
X39228228Y-193311703D01*
X39228228Y-193311703D01*
G37*
G36*
X41768228Y-193311703D02*
G01*
X41923100Y-193375853D01*
X42062481Y-193468985D01*
X42181015Y-193587519D01*
X42274147Y-193726900D01*
X42338297Y-193881772D01*
X42371000Y-194046184D01*
X42371000Y-194213816D01*
X42338297Y-194378228D01*
X42274147Y-194533100D01*
X42181015Y-194672481D01*
X42062481Y-194791015D01*
X41923100Y-194884147D01*
X41768228Y-194948297D01*
X41603816Y-194981000D01*
X41436184Y-194981000D01*
X41271772Y-194948297D01*
X41116900Y-194884147D01*
X40977519Y-194791015D01*
X40858985Y-194672481D01*
X40765853Y-194533100D01*
X40701703Y-194378228D01*
X40669000Y-194213816D01*
X40669000Y-194046184D01*
X40701703Y-193881772D01*
X40765853Y-193726900D01*
X40858985Y-193587519D01*
X40977519Y-193468985D01*
X41116900Y-193375853D01*
X41271772Y-193311703D01*
X41436184Y-193279000D01*
X41603816Y-193279000D01*
X41768228Y-193311703D01*
X41768228Y-193311703D01*
G37*
G36*
X34148228Y-193311703D02*
G01*
X34303100Y-193375853D01*
X34442481Y-193468985D01*
X34561015Y-193587519D01*
X34654147Y-193726900D01*
X34718297Y-193881772D01*
X34751000Y-194046184D01*
X34751000Y-194213816D01*
X34718297Y-194378228D01*
X34654147Y-194533100D01*
X34561015Y-194672481D01*
X34442481Y-194791015D01*
X34303100Y-194884147D01*
X34148228Y-194948297D01*
X33983816Y-194981000D01*
X33816184Y-194981000D01*
X33651772Y-194948297D01*
X33496900Y-194884147D01*
X33357519Y-194791015D01*
X33238985Y-194672481D01*
X33145853Y-194533100D01*
X33081703Y-194378228D01*
X33049000Y-194213816D01*
X33049000Y-194046184D01*
X33081703Y-193881772D01*
X33145853Y-193726900D01*
X33238985Y-193587519D01*
X33357519Y-193468985D01*
X33496900Y-193375853D01*
X33651772Y-193311703D01*
X33816184Y-193279000D01*
X33983816Y-193279000D01*
X34148228Y-193311703D01*
X34148228Y-193311703D01*
G37*
G36*
X39228228Y-190771703D02*
G01*
X39383100Y-190835853D01*
X39522481Y-190928985D01*
X39641015Y-191047519D01*
X39734147Y-191186900D01*
X39798297Y-191341772D01*
X39831000Y-191506184D01*
X39831000Y-191673816D01*
X39798297Y-191838228D01*
X39734147Y-191993100D01*
X39641015Y-192132481D01*
X39522481Y-192251015D01*
X39383100Y-192344147D01*
X39228228Y-192408297D01*
X39063816Y-192441000D01*
X38896184Y-192441000D01*
X38731772Y-192408297D01*
X38576900Y-192344147D01*
X38437519Y-192251015D01*
X38318985Y-192132481D01*
X38225853Y-191993100D01*
X38161703Y-191838228D01*
X38129000Y-191673816D01*
X38129000Y-191506184D01*
X38161703Y-191341772D01*
X38225853Y-191186900D01*
X38318985Y-191047519D01*
X38437519Y-190928985D01*
X38576900Y-190835853D01*
X38731772Y-190771703D01*
X38896184Y-190739000D01*
X39063816Y-190739000D01*
X39228228Y-190771703D01*
X39228228Y-190771703D01*
G37*
G36*
X36688228Y-190771703D02*
G01*
X36843100Y-190835853D01*
X36982481Y-190928985D01*
X37101015Y-191047519D01*
X37194147Y-191186900D01*
X37258297Y-191341772D01*
X37291000Y-191506184D01*
X37291000Y-191673816D01*
X37258297Y-191838228D01*
X37194147Y-191993100D01*
X37101015Y-192132481D01*
X36982481Y-192251015D01*
X36843100Y-192344147D01*
X36688228Y-192408297D01*
X36523816Y-192441000D01*
X36356184Y-192441000D01*
X36191772Y-192408297D01*
X36036900Y-192344147D01*
X35897519Y-192251015D01*
X35778985Y-192132481D01*
X35685853Y-191993100D01*
X35621703Y-191838228D01*
X35589000Y-191673816D01*
X35589000Y-191506184D01*
X35621703Y-191341772D01*
X35685853Y-191186900D01*
X35778985Y-191047519D01*
X35897519Y-190928985D01*
X36036900Y-190835853D01*
X36191772Y-190771703D01*
X36356184Y-190739000D01*
X36523816Y-190739000D01*
X36688228Y-190771703D01*
X36688228Y-190771703D01*
G37*
G36*
X34148228Y-190771703D02*
G01*
X34303100Y-190835853D01*
X34442481Y-190928985D01*
X34561015Y-191047519D01*
X34654147Y-191186900D01*
X34718297Y-191341772D01*
X34751000Y-191506184D01*
X34751000Y-191673816D01*
X34718297Y-191838228D01*
X34654147Y-191993100D01*
X34561015Y-192132481D01*
X34442481Y-192251015D01*
X34303100Y-192344147D01*
X34148228Y-192408297D01*
X33983816Y-192441000D01*
X33816184Y-192441000D01*
X33651772Y-192408297D01*
X33496900Y-192344147D01*
X33357519Y-192251015D01*
X33238985Y-192132481D01*
X33145853Y-191993100D01*
X33081703Y-191838228D01*
X33049000Y-191673816D01*
X33049000Y-191506184D01*
X33081703Y-191341772D01*
X33145853Y-191186900D01*
X33238985Y-191047519D01*
X33357519Y-190928985D01*
X33496900Y-190835853D01*
X33651772Y-190771703D01*
X33816184Y-190739000D01*
X33983816Y-190739000D01*
X34148228Y-190771703D01*
X34148228Y-190771703D01*
G37*
G36*
X41768228Y-190771703D02*
G01*
X41923100Y-190835853D01*
X42062481Y-190928985D01*
X42181015Y-191047519D01*
X42274147Y-191186900D01*
X42338297Y-191341772D01*
X42371000Y-191506184D01*
X42371000Y-191673816D01*
X42338297Y-191838228D01*
X42274147Y-191993100D01*
X42181015Y-192132481D01*
X42062481Y-192251015D01*
X41923100Y-192344147D01*
X41768228Y-192408297D01*
X41603816Y-192441000D01*
X41436184Y-192441000D01*
X41271772Y-192408297D01*
X41116900Y-192344147D01*
X40977519Y-192251015D01*
X40858985Y-192132481D01*
X40765853Y-191993100D01*
X40701703Y-191838228D01*
X40669000Y-191673816D01*
X40669000Y-191506184D01*
X40701703Y-191341772D01*
X40765853Y-191186900D01*
X40858985Y-191047519D01*
X40977519Y-190928985D01*
X41116900Y-190835853D01*
X41271772Y-190771703D01*
X41436184Y-190739000D01*
X41603816Y-190739000D01*
X41768228Y-190771703D01*
X41768228Y-190771703D01*
G37*
G36*
X41768228Y-188231703D02*
G01*
X41923100Y-188295853D01*
X42062481Y-188388985D01*
X42181015Y-188507519D01*
X42274147Y-188646900D01*
X42338297Y-188801772D01*
X42371000Y-188966184D01*
X42371000Y-189133816D01*
X42338297Y-189298228D01*
X42274147Y-189453100D01*
X42181015Y-189592481D01*
X42062481Y-189711015D01*
X41923100Y-189804147D01*
X41768228Y-189868297D01*
X41603816Y-189901000D01*
X41436184Y-189901000D01*
X41271772Y-189868297D01*
X41116900Y-189804147D01*
X40977519Y-189711015D01*
X40858985Y-189592481D01*
X40765853Y-189453100D01*
X40701703Y-189298228D01*
X40669000Y-189133816D01*
X40669000Y-188966184D01*
X40701703Y-188801772D01*
X40765853Y-188646900D01*
X40858985Y-188507519D01*
X40977519Y-188388985D01*
X41116900Y-188295853D01*
X41271772Y-188231703D01*
X41436184Y-188199000D01*
X41603816Y-188199000D01*
X41768228Y-188231703D01*
X41768228Y-188231703D01*
G37*
G36*
X34148228Y-188231703D02*
G01*
X34303100Y-188295853D01*
X34442481Y-188388985D01*
X34561015Y-188507519D01*
X34654147Y-188646900D01*
X34718297Y-188801772D01*
X34751000Y-188966184D01*
X34751000Y-189133816D01*
X34718297Y-189298228D01*
X34654147Y-189453100D01*
X34561015Y-189592481D01*
X34442481Y-189711015D01*
X34303100Y-189804147D01*
X34148228Y-189868297D01*
X33983816Y-189901000D01*
X33816184Y-189901000D01*
X33651772Y-189868297D01*
X33496900Y-189804147D01*
X33357519Y-189711015D01*
X33238985Y-189592481D01*
X33145853Y-189453100D01*
X33081703Y-189298228D01*
X33049000Y-189133816D01*
X33049000Y-188966184D01*
X33081703Y-188801772D01*
X33145853Y-188646900D01*
X33238985Y-188507519D01*
X33357519Y-188388985D01*
X33496900Y-188295853D01*
X33651772Y-188231703D01*
X33816184Y-188199000D01*
X33983816Y-188199000D01*
X34148228Y-188231703D01*
X34148228Y-188231703D01*
G37*
G36*
X39228228Y-188231703D02*
G01*
X39383100Y-188295853D01*
X39522481Y-188388985D01*
X39641015Y-188507519D01*
X39734147Y-188646900D01*
X39798297Y-188801772D01*
X39831000Y-188966184D01*
X39831000Y-189133816D01*
X39798297Y-189298228D01*
X39734147Y-189453100D01*
X39641015Y-189592481D01*
X39522481Y-189711015D01*
X39383100Y-189804147D01*
X39228228Y-189868297D01*
X39063816Y-189901000D01*
X38896184Y-189901000D01*
X38731772Y-189868297D01*
X38576900Y-189804147D01*
X38437519Y-189711015D01*
X38318985Y-189592481D01*
X38225853Y-189453100D01*
X38161703Y-189298228D01*
X38129000Y-189133816D01*
X38129000Y-188966184D01*
X38161703Y-188801772D01*
X38225853Y-188646900D01*
X38318985Y-188507519D01*
X38437519Y-188388985D01*
X38576900Y-188295853D01*
X38731772Y-188231703D01*
X38896184Y-188199000D01*
X39063816Y-188199000D01*
X39228228Y-188231703D01*
X39228228Y-188231703D01*
G37*
G36*
X36688228Y-188231703D02*
G01*
X36843100Y-188295853D01*
X36982481Y-188388985D01*
X37101015Y-188507519D01*
X37194147Y-188646900D01*
X37258297Y-188801772D01*
X37291000Y-188966184D01*
X37291000Y-189133816D01*
X37258297Y-189298228D01*
X37194147Y-189453100D01*
X37101015Y-189592481D01*
X36982481Y-189711015D01*
X36843100Y-189804147D01*
X36688228Y-189868297D01*
X36523816Y-189901000D01*
X36356184Y-189901000D01*
X36191772Y-189868297D01*
X36036900Y-189804147D01*
X35897519Y-189711015D01*
X35778985Y-189592481D01*
X35685853Y-189453100D01*
X35621703Y-189298228D01*
X35589000Y-189133816D01*
X35589000Y-188966184D01*
X35621703Y-188801772D01*
X35685853Y-188646900D01*
X35778985Y-188507519D01*
X35897519Y-188388985D01*
X36036900Y-188295853D01*
X36191772Y-188231703D01*
X36356184Y-188199000D01*
X36523816Y-188199000D01*
X36688228Y-188231703D01*
X36688228Y-188231703D01*
G37*
G36*
X36688228Y-185691703D02*
G01*
X36843100Y-185755853D01*
X36982481Y-185848985D01*
X37101015Y-185967519D01*
X37194147Y-186106900D01*
X37258297Y-186261772D01*
X37291000Y-186426184D01*
X37291000Y-186593816D01*
X37258297Y-186758228D01*
X37194147Y-186913100D01*
X37101015Y-187052481D01*
X36982481Y-187171015D01*
X36843100Y-187264147D01*
X36688228Y-187328297D01*
X36523816Y-187361000D01*
X36356184Y-187361000D01*
X36191772Y-187328297D01*
X36036900Y-187264147D01*
X35897519Y-187171015D01*
X35778985Y-187052481D01*
X35685853Y-186913100D01*
X35621703Y-186758228D01*
X35589000Y-186593816D01*
X35589000Y-186426184D01*
X35621703Y-186261772D01*
X35685853Y-186106900D01*
X35778985Y-185967519D01*
X35897519Y-185848985D01*
X36036900Y-185755853D01*
X36191772Y-185691703D01*
X36356184Y-185659000D01*
X36523816Y-185659000D01*
X36688228Y-185691703D01*
X36688228Y-185691703D01*
G37*
G36*
X34148228Y-185691703D02*
G01*
X34303100Y-185755853D01*
X34442481Y-185848985D01*
X34561015Y-185967519D01*
X34654147Y-186106900D01*
X34718297Y-186261772D01*
X34751000Y-186426184D01*
X34751000Y-186593816D01*
X34718297Y-186758228D01*
X34654147Y-186913100D01*
X34561015Y-187052481D01*
X34442481Y-187171015D01*
X34303100Y-187264147D01*
X34148228Y-187328297D01*
X33983816Y-187361000D01*
X33816184Y-187361000D01*
X33651772Y-187328297D01*
X33496900Y-187264147D01*
X33357519Y-187171015D01*
X33238985Y-187052481D01*
X33145853Y-186913100D01*
X33081703Y-186758228D01*
X33049000Y-186593816D01*
X33049000Y-186426184D01*
X33081703Y-186261772D01*
X33145853Y-186106900D01*
X33238985Y-185967519D01*
X33357519Y-185848985D01*
X33496900Y-185755853D01*
X33651772Y-185691703D01*
X33816184Y-185659000D01*
X33983816Y-185659000D01*
X34148228Y-185691703D01*
X34148228Y-185691703D01*
G37*
G36*
X39228228Y-185691703D02*
G01*
X39383100Y-185755853D01*
X39522481Y-185848985D01*
X39641015Y-185967519D01*
X39734147Y-186106900D01*
X39798297Y-186261772D01*
X39831000Y-186426184D01*
X39831000Y-186593816D01*
X39798297Y-186758228D01*
X39734147Y-186913100D01*
X39641015Y-187052481D01*
X39522481Y-187171015D01*
X39383100Y-187264147D01*
X39228228Y-187328297D01*
X39063816Y-187361000D01*
X38896184Y-187361000D01*
X38731772Y-187328297D01*
X38576900Y-187264147D01*
X38437519Y-187171015D01*
X38318985Y-187052481D01*
X38225853Y-186913100D01*
X38161703Y-186758228D01*
X38129000Y-186593816D01*
X38129000Y-186426184D01*
X38161703Y-186261772D01*
X38225853Y-186106900D01*
X38318985Y-185967519D01*
X38437519Y-185848985D01*
X38576900Y-185755853D01*
X38731772Y-185691703D01*
X38896184Y-185659000D01*
X39063816Y-185659000D01*
X39228228Y-185691703D01*
X39228228Y-185691703D01*
G37*
G36*
X41768228Y-185691703D02*
G01*
X41923100Y-185755853D01*
X42062481Y-185848985D01*
X42181015Y-185967519D01*
X42274147Y-186106900D01*
X42338297Y-186261772D01*
X42371000Y-186426184D01*
X42371000Y-186593816D01*
X42338297Y-186758228D01*
X42274147Y-186913100D01*
X42181015Y-187052481D01*
X42062481Y-187171015D01*
X41923100Y-187264147D01*
X41768228Y-187328297D01*
X41603816Y-187361000D01*
X41436184Y-187361000D01*
X41271772Y-187328297D01*
X41116900Y-187264147D01*
X40977519Y-187171015D01*
X40858985Y-187052481D01*
X40765853Y-186913100D01*
X40701703Y-186758228D01*
X40669000Y-186593816D01*
X40669000Y-186426184D01*
X40701703Y-186261772D01*
X40765853Y-186106900D01*
X40858985Y-185967519D01*
X40977519Y-185848985D01*
X41116900Y-185755853D01*
X41271772Y-185691703D01*
X41436184Y-185659000D01*
X41603816Y-185659000D01*
X41768228Y-185691703D01*
X41768228Y-185691703D01*
G37*
G36*
X41768228Y-183151703D02*
G01*
X41923100Y-183215853D01*
X42062481Y-183308985D01*
X42181015Y-183427519D01*
X42274147Y-183566900D01*
X42338297Y-183721772D01*
X42371000Y-183886184D01*
X42371000Y-184053816D01*
X42338297Y-184218228D01*
X42274147Y-184373100D01*
X42181015Y-184512481D01*
X42062481Y-184631015D01*
X41923100Y-184724147D01*
X41768228Y-184788297D01*
X41603816Y-184821000D01*
X41436184Y-184821000D01*
X41271772Y-184788297D01*
X41116900Y-184724147D01*
X40977519Y-184631015D01*
X40858985Y-184512481D01*
X40765853Y-184373100D01*
X40701703Y-184218228D01*
X40669000Y-184053816D01*
X40669000Y-183886184D01*
X40701703Y-183721772D01*
X40765853Y-183566900D01*
X40858985Y-183427519D01*
X40977519Y-183308985D01*
X41116900Y-183215853D01*
X41271772Y-183151703D01*
X41436184Y-183119000D01*
X41603816Y-183119000D01*
X41768228Y-183151703D01*
X41768228Y-183151703D01*
G37*
G36*
X39228228Y-183151703D02*
G01*
X39383100Y-183215853D01*
X39522481Y-183308985D01*
X39641015Y-183427519D01*
X39734147Y-183566900D01*
X39798297Y-183721772D01*
X39831000Y-183886184D01*
X39831000Y-184053816D01*
X39798297Y-184218228D01*
X39734147Y-184373100D01*
X39641015Y-184512481D01*
X39522481Y-184631015D01*
X39383100Y-184724147D01*
X39228228Y-184788297D01*
X39063816Y-184821000D01*
X38896184Y-184821000D01*
X38731772Y-184788297D01*
X38576900Y-184724147D01*
X38437519Y-184631015D01*
X38318985Y-184512481D01*
X38225853Y-184373100D01*
X38161703Y-184218228D01*
X38129000Y-184053816D01*
X38129000Y-183886184D01*
X38161703Y-183721772D01*
X38225853Y-183566900D01*
X38318985Y-183427519D01*
X38437519Y-183308985D01*
X38576900Y-183215853D01*
X38731772Y-183151703D01*
X38896184Y-183119000D01*
X39063816Y-183119000D01*
X39228228Y-183151703D01*
X39228228Y-183151703D01*
G37*
G36*
X34148228Y-183151703D02*
G01*
X34303100Y-183215853D01*
X34442481Y-183308985D01*
X34561015Y-183427519D01*
X34654147Y-183566900D01*
X34718297Y-183721772D01*
X34751000Y-183886184D01*
X34751000Y-184053816D01*
X34718297Y-184218228D01*
X34654147Y-184373100D01*
X34561015Y-184512481D01*
X34442481Y-184631015D01*
X34303100Y-184724147D01*
X34148228Y-184788297D01*
X33983816Y-184821000D01*
X33816184Y-184821000D01*
X33651772Y-184788297D01*
X33496900Y-184724147D01*
X33357519Y-184631015D01*
X33238985Y-184512481D01*
X33145853Y-184373100D01*
X33081703Y-184218228D01*
X33049000Y-184053816D01*
X33049000Y-183886184D01*
X33081703Y-183721772D01*
X33145853Y-183566900D01*
X33238985Y-183427519D01*
X33357519Y-183308985D01*
X33496900Y-183215853D01*
X33651772Y-183151703D01*
X33816184Y-183119000D01*
X33983816Y-183119000D01*
X34148228Y-183151703D01*
X34148228Y-183151703D01*
G37*
G36*
X36688228Y-183151703D02*
G01*
X36843100Y-183215853D01*
X36982481Y-183308985D01*
X37101015Y-183427519D01*
X37194147Y-183566900D01*
X37258297Y-183721772D01*
X37291000Y-183886184D01*
X37291000Y-184053816D01*
X37258297Y-184218228D01*
X37194147Y-184373100D01*
X37101015Y-184512481D01*
X36982481Y-184631015D01*
X36843100Y-184724147D01*
X36688228Y-184788297D01*
X36523816Y-184821000D01*
X36356184Y-184821000D01*
X36191772Y-184788297D01*
X36036900Y-184724147D01*
X35897519Y-184631015D01*
X35778985Y-184512481D01*
X35685853Y-184373100D01*
X35621703Y-184218228D01*
X35589000Y-184053816D01*
X35589000Y-183886184D01*
X35621703Y-183721772D01*
X35685853Y-183566900D01*
X35778985Y-183427519D01*
X35897519Y-183308985D01*
X36036900Y-183215853D01*
X36191772Y-183151703D01*
X36356184Y-183119000D01*
X36523816Y-183119000D01*
X36688228Y-183151703D01*
X36688228Y-183151703D01*
G37*
G36*
X36688228Y-180611703D02*
G01*
X36843100Y-180675853D01*
X36982481Y-180768985D01*
X37101015Y-180887519D01*
X37194147Y-181026900D01*
X37258297Y-181181772D01*
X37291000Y-181346184D01*
X37291000Y-181513816D01*
X37258297Y-181678228D01*
X37194147Y-181833100D01*
X37101015Y-181972481D01*
X36982481Y-182091015D01*
X36843100Y-182184147D01*
X36688228Y-182248297D01*
X36523816Y-182281000D01*
X36356184Y-182281000D01*
X36191772Y-182248297D01*
X36036900Y-182184147D01*
X35897519Y-182091015D01*
X35778985Y-181972481D01*
X35685853Y-181833100D01*
X35621703Y-181678228D01*
X35589000Y-181513816D01*
X35589000Y-181346184D01*
X35621703Y-181181772D01*
X35685853Y-181026900D01*
X35778985Y-180887519D01*
X35897519Y-180768985D01*
X36036900Y-180675853D01*
X36191772Y-180611703D01*
X36356184Y-180579000D01*
X36523816Y-180579000D01*
X36688228Y-180611703D01*
X36688228Y-180611703D01*
G37*
G36*
X34148228Y-180611703D02*
G01*
X34303100Y-180675853D01*
X34442481Y-180768985D01*
X34561015Y-180887519D01*
X34654147Y-181026900D01*
X34718297Y-181181772D01*
X34751000Y-181346184D01*
X34751000Y-181513816D01*
X34718297Y-181678228D01*
X34654147Y-181833100D01*
X34561015Y-181972481D01*
X34442481Y-182091015D01*
X34303100Y-182184147D01*
X34148228Y-182248297D01*
X33983816Y-182281000D01*
X33816184Y-182281000D01*
X33651772Y-182248297D01*
X33496900Y-182184147D01*
X33357519Y-182091015D01*
X33238985Y-181972481D01*
X33145853Y-181833100D01*
X33081703Y-181678228D01*
X33049000Y-181513816D01*
X33049000Y-181346184D01*
X33081703Y-181181772D01*
X33145853Y-181026900D01*
X33238985Y-180887519D01*
X33357519Y-180768985D01*
X33496900Y-180675853D01*
X33651772Y-180611703D01*
X33816184Y-180579000D01*
X33983816Y-180579000D01*
X34148228Y-180611703D01*
X34148228Y-180611703D01*
G37*
G36*
X39228228Y-180611703D02*
G01*
X39383100Y-180675853D01*
X39522481Y-180768985D01*
X39641015Y-180887519D01*
X39734147Y-181026900D01*
X39798297Y-181181772D01*
X39831000Y-181346184D01*
X39831000Y-181513816D01*
X39798297Y-181678228D01*
X39734147Y-181833100D01*
X39641015Y-181972481D01*
X39522481Y-182091015D01*
X39383100Y-182184147D01*
X39228228Y-182248297D01*
X39063816Y-182281000D01*
X38896184Y-182281000D01*
X38731772Y-182248297D01*
X38576900Y-182184147D01*
X38437519Y-182091015D01*
X38318985Y-181972481D01*
X38225853Y-181833100D01*
X38161703Y-181678228D01*
X38129000Y-181513816D01*
X38129000Y-181346184D01*
X38161703Y-181181772D01*
X38225853Y-181026900D01*
X38318985Y-180887519D01*
X38437519Y-180768985D01*
X38576900Y-180675853D01*
X38731772Y-180611703D01*
X38896184Y-180579000D01*
X39063816Y-180579000D01*
X39228228Y-180611703D01*
X39228228Y-180611703D01*
G37*
G36*
X41768228Y-180611703D02*
G01*
X41923100Y-180675853D01*
X42062481Y-180768985D01*
X42181015Y-180887519D01*
X42274147Y-181026900D01*
X42338297Y-181181772D01*
X42371000Y-181346184D01*
X42371000Y-181513816D01*
X42338297Y-181678228D01*
X42274147Y-181833100D01*
X42181015Y-181972481D01*
X42062481Y-182091015D01*
X41923100Y-182184147D01*
X41768228Y-182248297D01*
X41603816Y-182281000D01*
X41436184Y-182281000D01*
X41271772Y-182248297D01*
X41116900Y-182184147D01*
X40977519Y-182091015D01*
X40858985Y-181972481D01*
X40765853Y-181833100D01*
X40701703Y-181678228D01*
X40669000Y-181513816D01*
X40669000Y-181346184D01*
X40701703Y-181181772D01*
X40765853Y-181026900D01*
X40858985Y-180887519D01*
X40977519Y-180768985D01*
X41116900Y-180675853D01*
X41271772Y-180611703D01*
X41436184Y-180579000D01*
X41603816Y-180579000D01*
X41768228Y-180611703D01*
X41768228Y-180611703D01*
G37*
G36*
X115336000Y-181046000D02*
G01*
X114384000Y-181046000D01*
X114384000Y-180094000D01*
X115336000Y-180094000D01*
X115336000Y-181046000D01*
X115336000Y-181046000D01*
G37*
G36*
X50738412Y-175165134D02*
G01*
X50970346Y-175211269D01*
X51407300Y-175392262D01*
X51800548Y-175655022D01*
X52134978Y-175989452D01*
X52397738Y-176382700D01*
X52559455Y-176773117D01*
X52578731Y-176819655D01*
X52671000Y-177283521D01*
X52671000Y-177756479D01*
X52653485Y-177844531D01*
X52578731Y-178220346D01*
X52397738Y-178657300D01*
X52134978Y-179050548D01*
X51800548Y-179384978D01*
X51407300Y-179647738D01*
X50970346Y-179828731D01*
X50738412Y-179874866D01*
X50506479Y-179921000D01*
X50033521Y-179921000D01*
X49801588Y-179874866D01*
X49569654Y-179828731D01*
X49132700Y-179647738D01*
X48739452Y-179384978D01*
X48405022Y-179050548D01*
X48142262Y-178657300D01*
X47961269Y-178220346D01*
X47886515Y-177844531D01*
X47869000Y-177756479D01*
X47869000Y-177283521D01*
X47961269Y-176819655D01*
X47980546Y-176773117D01*
X48142262Y-176382700D01*
X48405022Y-175989452D01*
X48739452Y-175655022D01*
X49132700Y-175392262D01*
X49569654Y-175211269D01*
X49801588Y-175165134D01*
X50033521Y-175119000D01*
X50506479Y-175119000D01*
X50738412Y-175165134D01*
X50738412Y-175165134D01*
G37*
G36*
X108838412Y-175165134D02*
G01*
X109070346Y-175211269D01*
X109507300Y-175392262D01*
X109900548Y-175655022D01*
X110234978Y-175989452D01*
X110497738Y-176382700D01*
X110659455Y-176773117D01*
X110678731Y-176819655D01*
X110771000Y-177283521D01*
X110771000Y-177756479D01*
X110753485Y-177844531D01*
X110678731Y-178220346D01*
X110497738Y-178657300D01*
X110234978Y-179050548D01*
X109900548Y-179384978D01*
X109507300Y-179647738D01*
X109070346Y-179828731D01*
X108838412Y-179874866D01*
X108606479Y-179921000D01*
X108133521Y-179921000D01*
X107901588Y-179874866D01*
X107669654Y-179828731D01*
X107232700Y-179647738D01*
X106839452Y-179384978D01*
X106505022Y-179050548D01*
X106242262Y-178657300D01*
X106061269Y-178220346D01*
X105986515Y-177844531D01*
X105969000Y-177756479D01*
X105969000Y-177283521D01*
X106061269Y-176819655D01*
X106080546Y-176773117D01*
X106242262Y-176382700D01*
X106505022Y-175989452D01*
X106839452Y-175655022D01*
X107232700Y-175392262D01*
X107669654Y-175211269D01*
X107901588Y-175165134D01*
X108133521Y-175119000D01*
X108606479Y-175119000D01*
X108838412Y-175165134D01*
X108838412Y-175165134D01*
G37*
G36*
X114998843Y-178862292D02*
G01*
X115049588Y-178883311D01*
X115085470Y-178898174D01*
X115163432Y-178950267D01*
X115229733Y-179016568D01*
X115281826Y-179094530D01*
X115281826Y-179094531D01*
X115317708Y-179181157D01*
X115336000Y-179273117D01*
X115336000Y-179366883D01*
X115317708Y-179458843D01*
X115296689Y-179509588D01*
X115281826Y-179545470D01*
X115229733Y-179623432D01*
X115163432Y-179689733D01*
X115085470Y-179741826D01*
X115049588Y-179756689D01*
X114998843Y-179777708D01*
X114906883Y-179796000D01*
X114813117Y-179796000D01*
X114721157Y-179777708D01*
X114670412Y-179756689D01*
X114634530Y-179741826D01*
X114556568Y-179689733D01*
X114490267Y-179623432D01*
X114438174Y-179545470D01*
X114423311Y-179509588D01*
X114402292Y-179458843D01*
X114384000Y-179366883D01*
X114384000Y-179273117D01*
X114402292Y-179181157D01*
X114438174Y-179094531D01*
X114438174Y-179094530D01*
X114490267Y-179016568D01*
X114556568Y-178950267D01*
X114634530Y-178898174D01*
X114670412Y-178883311D01*
X114721157Y-178862292D01*
X114813117Y-178844000D01*
X114906883Y-178844000D01*
X114998843Y-178862292D01*
X114998843Y-178862292D01*
G37*
G36*
X41768228Y-178071703D02*
G01*
X41923100Y-178135853D01*
X42062481Y-178228985D01*
X42181015Y-178347519D01*
X42274147Y-178486900D01*
X42338297Y-178641772D01*
X42371000Y-178806184D01*
X42371000Y-178973816D01*
X42338297Y-179138228D01*
X42274147Y-179293100D01*
X42181015Y-179432481D01*
X42062481Y-179551015D01*
X41923100Y-179644147D01*
X41768228Y-179708297D01*
X41603816Y-179741000D01*
X41436184Y-179741000D01*
X41271772Y-179708297D01*
X41116900Y-179644147D01*
X40977519Y-179551015D01*
X40858985Y-179432481D01*
X40765853Y-179293100D01*
X40701703Y-179138228D01*
X40669000Y-178973816D01*
X40669000Y-178806184D01*
X40701703Y-178641772D01*
X40765853Y-178486900D01*
X40858985Y-178347519D01*
X40977519Y-178228985D01*
X41116900Y-178135853D01*
X41271772Y-178071703D01*
X41436184Y-178039000D01*
X41603816Y-178039000D01*
X41768228Y-178071703D01*
X41768228Y-178071703D01*
G37*
G36*
X39228228Y-178071703D02*
G01*
X39383100Y-178135853D01*
X39522481Y-178228985D01*
X39641015Y-178347519D01*
X39734147Y-178486900D01*
X39798297Y-178641772D01*
X39831000Y-178806184D01*
X39831000Y-178973816D01*
X39798297Y-179138228D01*
X39734147Y-179293100D01*
X39641015Y-179432481D01*
X39522481Y-179551015D01*
X39383100Y-179644147D01*
X39228228Y-179708297D01*
X39063816Y-179741000D01*
X38896184Y-179741000D01*
X38731772Y-179708297D01*
X38576900Y-179644147D01*
X38437519Y-179551015D01*
X38318985Y-179432481D01*
X38225853Y-179293100D01*
X38161703Y-179138228D01*
X38129000Y-178973816D01*
X38129000Y-178806184D01*
X38161703Y-178641772D01*
X38225853Y-178486900D01*
X38318985Y-178347519D01*
X38437519Y-178228985D01*
X38576900Y-178135853D01*
X38731772Y-178071703D01*
X38896184Y-178039000D01*
X39063816Y-178039000D01*
X39228228Y-178071703D01*
X39228228Y-178071703D01*
G37*
G36*
X36688228Y-178071703D02*
G01*
X36843100Y-178135853D01*
X36982481Y-178228985D01*
X37101015Y-178347519D01*
X37194147Y-178486900D01*
X37258297Y-178641772D01*
X37291000Y-178806184D01*
X37291000Y-178973816D01*
X37258297Y-179138228D01*
X37194147Y-179293100D01*
X37101015Y-179432481D01*
X36982481Y-179551015D01*
X36843100Y-179644147D01*
X36688228Y-179708297D01*
X36523816Y-179741000D01*
X36356184Y-179741000D01*
X36191772Y-179708297D01*
X36036900Y-179644147D01*
X35897519Y-179551015D01*
X35778985Y-179432481D01*
X35685853Y-179293100D01*
X35621703Y-179138228D01*
X35589000Y-178973816D01*
X35589000Y-178806184D01*
X35621703Y-178641772D01*
X35685853Y-178486900D01*
X35778985Y-178347519D01*
X35897519Y-178228985D01*
X36036900Y-178135853D01*
X36191772Y-178071703D01*
X36356184Y-178039000D01*
X36523816Y-178039000D01*
X36688228Y-178071703D01*
X36688228Y-178071703D01*
G37*
G36*
X34148228Y-178071703D02*
G01*
X34303100Y-178135853D01*
X34442481Y-178228985D01*
X34561015Y-178347519D01*
X34654147Y-178486900D01*
X34718297Y-178641772D01*
X34751000Y-178806184D01*
X34751000Y-178973816D01*
X34718297Y-179138228D01*
X34654147Y-179293100D01*
X34561015Y-179432481D01*
X34442481Y-179551015D01*
X34303100Y-179644147D01*
X34148228Y-179708297D01*
X33983816Y-179741000D01*
X33816184Y-179741000D01*
X33651772Y-179708297D01*
X33496900Y-179644147D01*
X33357519Y-179551015D01*
X33238985Y-179432481D01*
X33145853Y-179293100D01*
X33081703Y-179138228D01*
X33049000Y-178973816D01*
X33049000Y-178806184D01*
X33081703Y-178641772D01*
X33145853Y-178486900D01*
X33238985Y-178347519D01*
X33357519Y-178228985D01*
X33496900Y-178135853D01*
X33651772Y-178071703D01*
X33816184Y-178039000D01*
X33983816Y-178039000D01*
X34148228Y-178071703D01*
X34148228Y-178071703D01*
G37*
G36*
X114998843Y-177612292D02*
G01*
X115049588Y-177633311D01*
X115085470Y-177648174D01*
X115163432Y-177700267D01*
X115229733Y-177766568D01*
X115281826Y-177844530D01*
X115281826Y-177844531D01*
X115317708Y-177931157D01*
X115336000Y-178023117D01*
X115336000Y-178116883D01*
X115317708Y-178208843D01*
X115296689Y-178259588D01*
X115281826Y-178295470D01*
X115229733Y-178373432D01*
X115163432Y-178439733D01*
X115085470Y-178491826D01*
X115049588Y-178506689D01*
X114998843Y-178527708D01*
X114906883Y-178546000D01*
X114813117Y-178546000D01*
X114721157Y-178527708D01*
X114670412Y-178506689D01*
X114634530Y-178491826D01*
X114556568Y-178439733D01*
X114490267Y-178373432D01*
X114438174Y-178295470D01*
X114423311Y-178259588D01*
X114402292Y-178208843D01*
X114384000Y-178116883D01*
X114384000Y-178023117D01*
X114402292Y-177931157D01*
X114438174Y-177844531D01*
X114438174Y-177844530D01*
X114490267Y-177766568D01*
X114556568Y-177700267D01*
X114634530Y-177648174D01*
X114670412Y-177633311D01*
X114721157Y-177612292D01*
X114813117Y-177594000D01*
X114906883Y-177594000D01*
X114998843Y-177612292D01*
X114998843Y-177612292D01*
G37*
G36*
X45149999Y-175829737D02*
G01*
X45159608Y-175832652D01*
X45168472Y-175837390D01*
X45176212Y-175843742D01*
X45176213Y-175843743D01*
X45176237Y-175843763D01*
X45182640Y-175851573D01*
X45182677Y-175851628D01*
X45190480Y-175861147D01*
X45190511Y-175861122D01*
X45201853Y-175874972D01*
X45220779Y-175890537D01*
X45242377Y-175902111D01*
X45265819Y-175909249D01*
X45290202Y-175911676D01*
X45314591Y-175909300D01*
X45338047Y-175902211D01*
X45359670Y-175890682D01*
X45378628Y-175875157D01*
X45394193Y-175856231D01*
X45396029Y-175853175D01*
X45397418Y-175851486D01*
X45397419Y-175851484D01*
X45403801Y-175843725D01*
X45411573Y-175837360D01*
X45411575Y-175837358D01*
X45420399Y-175832654D01*
X45420438Y-175832633D01*
X45430055Y-175829727D01*
X45430085Y-175829718D01*
X45446113Y-175828148D01*
X46583860Y-175828148D01*
X46599999Y-175829737D01*
X46609608Y-175832652D01*
X46618472Y-175837390D01*
X46626237Y-175843763D01*
X46632610Y-175851528D01*
X46637348Y-175860392D01*
X46640263Y-175870001D01*
X46641852Y-175886140D01*
X46641852Y-177373860D01*
X46640263Y-177389999D01*
X46637348Y-177399608D01*
X46632610Y-177408472D01*
X46626237Y-177416237D01*
X46618472Y-177422610D01*
X46609608Y-177427348D01*
X46599999Y-177430263D01*
X46583860Y-177431852D01*
X45446140Y-177431852D01*
X45430001Y-177430263D01*
X45420392Y-177427348D01*
X45411528Y-177422610D01*
X45403763Y-177416237D01*
X45393116Y-177403263D01*
X45386947Y-177394032D01*
X45369619Y-177376706D01*
X45349244Y-177363093D01*
X45326605Y-177353717D01*
X45302572Y-177348937D01*
X45278068Y-177348938D01*
X45254035Y-177353720D01*
X45231396Y-177363098D01*
X45211022Y-177376713D01*
X45193696Y-177394041D01*
X45186825Y-177403317D01*
X45182640Y-177408427D01*
X45176275Y-177416199D01*
X45168516Y-177422581D01*
X45159661Y-177427326D01*
X45156623Y-177428251D01*
X45150085Y-177430242D01*
X45150082Y-177430242D01*
X45150050Y-177430252D01*
X45140000Y-177431247D01*
X45139935Y-177431247D01*
X45133825Y-177431852D01*
X44146140Y-177431852D01*
X44130001Y-177430263D01*
X44120392Y-177427348D01*
X44111528Y-177422610D01*
X44103763Y-177416237D01*
X44097390Y-177408472D01*
X44092652Y-177399608D01*
X44089737Y-177389999D01*
X44088148Y-177373860D01*
X44088148Y-175886140D01*
X44089737Y-175870001D01*
X44092652Y-175860392D01*
X44097390Y-175851528D01*
X44103763Y-175843763D01*
X44111528Y-175837390D01*
X44120392Y-175832652D01*
X44130001Y-175829737D01*
X44146140Y-175828148D01*
X45133860Y-175828148D01*
X45149999Y-175829737D01*
X45149999Y-175829737D01*
G37*
G36*
X114998843Y-176362292D02*
G01*
X115048112Y-176382700D01*
X115085470Y-176398174D01*
X115163432Y-176450267D01*
X115229733Y-176516568D01*
X115281826Y-176594530D01*
X115296518Y-176630000D01*
X115317708Y-176681157D01*
X115336000Y-176773117D01*
X115336000Y-176866883D01*
X115317708Y-176958843D01*
X115296689Y-177009588D01*
X115281826Y-177045470D01*
X115229733Y-177123432D01*
X115163432Y-177189733D01*
X115085470Y-177241826D01*
X115049588Y-177256689D01*
X114998843Y-177277708D01*
X114906883Y-177296000D01*
X114813117Y-177296000D01*
X114721157Y-177277708D01*
X114670412Y-177256689D01*
X114634530Y-177241826D01*
X114556568Y-177189733D01*
X114490267Y-177123432D01*
X114438174Y-177045470D01*
X114423311Y-177009588D01*
X114402292Y-176958843D01*
X114384000Y-176866883D01*
X114384000Y-176773117D01*
X114402292Y-176681157D01*
X114423482Y-176630000D01*
X114438174Y-176594530D01*
X114490267Y-176516568D01*
X114556568Y-176450267D01*
X114634530Y-176398174D01*
X114671888Y-176382700D01*
X114721157Y-176362292D01*
X114813117Y-176344000D01*
X114906883Y-176344000D01*
X114998843Y-176362292D01*
X114998843Y-176362292D01*
G37*
G36*
X36688228Y-175531703D02*
G01*
X36843100Y-175595853D01*
X36982481Y-175688985D01*
X37101015Y-175807519D01*
X37194147Y-175946900D01*
X37258297Y-176101772D01*
X37291000Y-176266184D01*
X37291000Y-176433816D01*
X37258297Y-176598228D01*
X37194147Y-176753100D01*
X37101015Y-176892481D01*
X36982481Y-177011015D01*
X36843100Y-177104147D01*
X36688228Y-177168297D01*
X36523816Y-177201000D01*
X36356184Y-177201000D01*
X36191772Y-177168297D01*
X36036900Y-177104147D01*
X35897519Y-177011015D01*
X35778985Y-176892481D01*
X35685853Y-176753100D01*
X35621703Y-176598228D01*
X35589000Y-176433816D01*
X35589000Y-176266184D01*
X35621703Y-176101772D01*
X35685853Y-175946900D01*
X35778985Y-175807519D01*
X35897519Y-175688985D01*
X36036900Y-175595853D01*
X36191772Y-175531703D01*
X36356184Y-175499000D01*
X36523816Y-175499000D01*
X36688228Y-175531703D01*
X36688228Y-175531703D01*
G37*
G36*
X34148228Y-175531703D02*
G01*
X34303100Y-175595853D01*
X34442481Y-175688985D01*
X34561015Y-175807519D01*
X34654147Y-175946900D01*
X34718297Y-176101772D01*
X34751000Y-176266184D01*
X34751000Y-176433816D01*
X34718297Y-176598228D01*
X34654147Y-176753100D01*
X34561015Y-176892481D01*
X34442481Y-177011015D01*
X34303100Y-177104147D01*
X34148228Y-177168297D01*
X33983816Y-177201000D01*
X33816184Y-177201000D01*
X33651772Y-177168297D01*
X33496900Y-177104147D01*
X33357519Y-177011015D01*
X33238985Y-176892481D01*
X33145853Y-176753100D01*
X33081703Y-176598228D01*
X33049000Y-176433816D01*
X33049000Y-176266184D01*
X33081703Y-176101772D01*
X33145853Y-175946900D01*
X33238985Y-175807519D01*
X33357519Y-175688985D01*
X33496900Y-175595853D01*
X33651772Y-175531703D01*
X33816184Y-175499000D01*
X33983816Y-175499000D01*
X34148228Y-175531703D01*
X34148228Y-175531703D01*
G37*
G36*
X39228228Y-175531703D02*
G01*
X39383100Y-175595853D01*
X39522481Y-175688985D01*
X39641015Y-175807519D01*
X39734147Y-175946900D01*
X39798297Y-176101772D01*
X39831000Y-176266184D01*
X39831000Y-176433816D01*
X39798297Y-176598228D01*
X39734147Y-176753100D01*
X39641015Y-176892481D01*
X39522481Y-177011015D01*
X39383100Y-177104147D01*
X39228228Y-177168297D01*
X39063816Y-177201000D01*
X38896184Y-177201000D01*
X38731772Y-177168297D01*
X38576900Y-177104147D01*
X38437519Y-177011015D01*
X38318985Y-176892481D01*
X38225853Y-176753100D01*
X38161703Y-176598228D01*
X38129000Y-176433816D01*
X38129000Y-176266184D01*
X38161703Y-176101772D01*
X38225853Y-175946900D01*
X38318985Y-175807519D01*
X38437519Y-175688985D01*
X38576900Y-175595853D01*
X38731772Y-175531703D01*
X38896184Y-175499000D01*
X39063816Y-175499000D01*
X39228228Y-175531703D01*
X39228228Y-175531703D01*
G37*
G36*
X41768228Y-175531703D02*
G01*
X41923100Y-175595853D01*
X42062481Y-175688985D01*
X42181015Y-175807519D01*
X42274147Y-175946900D01*
X42338297Y-176101772D01*
X42371000Y-176266184D01*
X42371000Y-176433816D01*
X42338297Y-176598228D01*
X42274147Y-176753100D01*
X42181015Y-176892481D01*
X42062481Y-177011015D01*
X41923100Y-177104147D01*
X41768228Y-177168297D01*
X41603816Y-177201000D01*
X41436184Y-177201000D01*
X41271772Y-177168297D01*
X41116900Y-177104147D01*
X40977519Y-177011015D01*
X40858985Y-176892481D01*
X40765853Y-176753100D01*
X40701703Y-176598228D01*
X40669000Y-176433816D01*
X40669000Y-176266184D01*
X40701703Y-176101772D01*
X40765853Y-175946900D01*
X40858985Y-175807519D01*
X40977519Y-175688985D01*
X41116900Y-175595853D01*
X41271772Y-175531703D01*
X41436184Y-175499000D01*
X41603816Y-175499000D01*
X41768228Y-175531703D01*
X41768228Y-175531703D01*
G37*
G36*
X41768228Y-172991703D02*
G01*
X41923100Y-173055853D01*
X42062481Y-173148985D01*
X42181015Y-173267519D01*
X42274147Y-173406900D01*
X42338297Y-173561772D01*
X42371000Y-173726184D01*
X42371000Y-173893816D01*
X42338297Y-174058228D01*
X42274147Y-174213100D01*
X42181015Y-174352481D01*
X42062481Y-174471015D01*
X41923100Y-174564147D01*
X41768228Y-174628297D01*
X41603816Y-174661000D01*
X41436184Y-174661000D01*
X41271772Y-174628297D01*
X41116900Y-174564147D01*
X40977519Y-174471015D01*
X40858985Y-174352481D01*
X40765853Y-174213100D01*
X40701703Y-174058228D01*
X40669000Y-173893816D01*
X40669000Y-173726184D01*
X40701703Y-173561772D01*
X40765853Y-173406900D01*
X40858985Y-173267519D01*
X40977519Y-173148985D01*
X41116900Y-173055853D01*
X41271772Y-172991703D01*
X41436184Y-172959000D01*
X41603816Y-172959000D01*
X41768228Y-172991703D01*
X41768228Y-172991703D01*
G37*
G36*
X36688228Y-172991703D02*
G01*
X36843100Y-173055853D01*
X36982481Y-173148985D01*
X37101015Y-173267519D01*
X37194147Y-173406900D01*
X37258297Y-173561772D01*
X37291000Y-173726184D01*
X37291000Y-173893816D01*
X37258297Y-174058228D01*
X37194147Y-174213100D01*
X37101015Y-174352481D01*
X36982481Y-174471015D01*
X36843100Y-174564147D01*
X36688228Y-174628297D01*
X36523816Y-174661000D01*
X36356184Y-174661000D01*
X36191772Y-174628297D01*
X36036900Y-174564147D01*
X35897519Y-174471015D01*
X35778985Y-174352481D01*
X35685853Y-174213100D01*
X35621703Y-174058228D01*
X35589000Y-173893816D01*
X35589000Y-173726184D01*
X35621703Y-173561772D01*
X35685853Y-173406900D01*
X35778985Y-173267519D01*
X35897519Y-173148985D01*
X36036900Y-173055853D01*
X36191772Y-172991703D01*
X36356184Y-172959000D01*
X36523816Y-172959000D01*
X36688228Y-172991703D01*
X36688228Y-172991703D01*
G37*
G36*
X34148228Y-172991703D02*
G01*
X34303100Y-173055853D01*
X34442481Y-173148985D01*
X34561015Y-173267519D01*
X34654147Y-173406900D01*
X34718297Y-173561772D01*
X34751000Y-173726184D01*
X34751000Y-173893816D01*
X34718297Y-174058228D01*
X34654147Y-174213100D01*
X34561015Y-174352481D01*
X34442481Y-174471015D01*
X34303100Y-174564147D01*
X34148228Y-174628297D01*
X33983816Y-174661000D01*
X33816184Y-174661000D01*
X33651772Y-174628297D01*
X33496900Y-174564147D01*
X33357519Y-174471015D01*
X33238985Y-174352481D01*
X33145853Y-174213100D01*
X33081703Y-174058228D01*
X33049000Y-173893816D01*
X33049000Y-173726184D01*
X33081703Y-173561772D01*
X33145853Y-173406900D01*
X33238985Y-173267519D01*
X33357519Y-173148985D01*
X33496900Y-173055853D01*
X33651772Y-172991703D01*
X33816184Y-172959000D01*
X33983816Y-172959000D01*
X34148228Y-172991703D01*
X34148228Y-172991703D01*
G37*
G36*
X39228228Y-172991703D02*
G01*
X39383100Y-173055853D01*
X39522481Y-173148985D01*
X39641015Y-173267519D01*
X39734147Y-173406900D01*
X39798297Y-173561772D01*
X39831000Y-173726184D01*
X39831000Y-173893816D01*
X39798297Y-174058228D01*
X39734147Y-174213100D01*
X39641015Y-174352481D01*
X39522481Y-174471015D01*
X39383100Y-174564147D01*
X39228228Y-174628297D01*
X39063816Y-174661000D01*
X38896184Y-174661000D01*
X38731772Y-174628297D01*
X38576900Y-174564147D01*
X38437519Y-174471015D01*
X38318985Y-174352481D01*
X38225853Y-174213100D01*
X38161703Y-174058228D01*
X38129000Y-173893816D01*
X38129000Y-173726184D01*
X38161703Y-173561772D01*
X38225853Y-173406900D01*
X38318985Y-173267519D01*
X38437519Y-173148985D01*
X38576900Y-173055853D01*
X38731772Y-172991703D01*
X38896184Y-172959000D01*
X39063816Y-172959000D01*
X39228228Y-172991703D01*
X39228228Y-172991703D01*
G37*
G36*
X45144999Y-170679737D02*
G01*
X45154608Y-170682652D01*
X45163472Y-170687390D01*
X45171212Y-170693742D01*
X45171213Y-170693743D01*
X45171237Y-170693763D01*
X45177640Y-170701573D01*
X45177677Y-170701628D01*
X45185480Y-170711147D01*
X45185511Y-170711122D01*
X45196853Y-170724972D01*
X45215779Y-170740537D01*
X45237377Y-170752111D01*
X45260819Y-170759249D01*
X45285202Y-170761676D01*
X45309591Y-170759300D01*
X45333047Y-170752211D01*
X45354670Y-170740682D01*
X45373628Y-170725157D01*
X45389193Y-170706231D01*
X45391029Y-170703175D01*
X45392418Y-170701486D01*
X45392419Y-170701484D01*
X45398801Y-170693725D01*
X45406573Y-170687360D01*
X45406575Y-170687358D01*
X45415399Y-170682654D01*
X45415438Y-170682633D01*
X45425055Y-170679727D01*
X45425085Y-170679718D01*
X45441113Y-170678148D01*
X46578860Y-170678148D01*
X46594999Y-170679737D01*
X46604608Y-170682652D01*
X46613472Y-170687390D01*
X46621237Y-170693763D01*
X46627610Y-170701528D01*
X46632348Y-170710392D01*
X46635263Y-170720001D01*
X46636852Y-170736140D01*
X46636852Y-172223860D01*
X46635263Y-172239999D01*
X46632348Y-172249608D01*
X46627610Y-172258472D01*
X46621237Y-172266237D01*
X46613472Y-172272610D01*
X46604608Y-172277348D01*
X46594999Y-172280263D01*
X46578860Y-172281852D01*
X45441140Y-172281852D01*
X45425001Y-172280263D01*
X45415392Y-172277348D01*
X45406528Y-172272610D01*
X45398763Y-172266237D01*
X45388116Y-172253263D01*
X45381947Y-172244032D01*
X45364619Y-172226706D01*
X45344244Y-172213093D01*
X45321605Y-172203717D01*
X45297572Y-172198937D01*
X45273068Y-172198938D01*
X45249035Y-172203720D01*
X45226396Y-172213098D01*
X45206022Y-172226713D01*
X45188696Y-172244041D01*
X45181825Y-172253317D01*
X45177640Y-172258427D01*
X45171275Y-172266199D01*
X45163516Y-172272581D01*
X45154661Y-172277326D01*
X45151623Y-172278251D01*
X45145085Y-172280242D01*
X45145082Y-172280242D01*
X45145050Y-172280252D01*
X45135000Y-172281247D01*
X45134935Y-172281247D01*
X45128825Y-172281852D01*
X44141140Y-172281852D01*
X44125001Y-172280263D01*
X44115392Y-172277348D01*
X44106528Y-172272610D01*
X44098763Y-172266237D01*
X44092390Y-172258472D01*
X44087652Y-172249608D01*
X44084737Y-172239999D01*
X44083148Y-172223860D01*
X44083148Y-170736140D01*
X44084737Y-170720001D01*
X44087652Y-170710392D01*
X44092390Y-170701528D01*
X44098763Y-170693763D01*
X44106528Y-170687390D01*
X44115392Y-170682652D01*
X44125001Y-170679737D01*
X44141140Y-170678148D01*
X45128860Y-170678148D01*
X45144999Y-170679737D01*
X45144999Y-170679737D01*
G37*
G36*
X36688228Y-170451703D02*
G01*
X36843100Y-170515853D01*
X36982481Y-170608985D01*
X37101015Y-170727519D01*
X37194147Y-170866900D01*
X37258297Y-171021772D01*
X37291000Y-171186184D01*
X37291000Y-171353816D01*
X37258297Y-171518228D01*
X37194147Y-171673100D01*
X37101015Y-171812481D01*
X36982481Y-171931015D01*
X36843100Y-172024147D01*
X36688228Y-172088297D01*
X36523816Y-172121000D01*
X36356184Y-172121000D01*
X36191772Y-172088297D01*
X36036900Y-172024147D01*
X35897519Y-171931015D01*
X35778985Y-171812481D01*
X35685853Y-171673100D01*
X35621703Y-171518228D01*
X35589000Y-171353816D01*
X35589000Y-171186184D01*
X35621703Y-171021772D01*
X35685853Y-170866900D01*
X35778985Y-170727519D01*
X35897519Y-170608985D01*
X36036900Y-170515853D01*
X36191772Y-170451703D01*
X36356184Y-170419000D01*
X36523816Y-170419000D01*
X36688228Y-170451703D01*
X36688228Y-170451703D01*
G37*
G36*
X41768228Y-170451703D02*
G01*
X41923100Y-170515853D01*
X42062481Y-170608985D01*
X42181015Y-170727519D01*
X42274147Y-170866900D01*
X42338297Y-171021772D01*
X42371000Y-171186184D01*
X42371000Y-171353816D01*
X42338297Y-171518228D01*
X42274147Y-171673100D01*
X42181015Y-171812481D01*
X42062481Y-171931015D01*
X41923100Y-172024147D01*
X41768228Y-172088297D01*
X41603816Y-172121000D01*
X41436184Y-172121000D01*
X41271772Y-172088297D01*
X41116900Y-172024147D01*
X40977519Y-171931015D01*
X40858985Y-171812481D01*
X40765853Y-171673100D01*
X40701703Y-171518228D01*
X40669000Y-171353816D01*
X40669000Y-171186184D01*
X40701703Y-171021772D01*
X40765853Y-170866900D01*
X40858985Y-170727519D01*
X40977519Y-170608985D01*
X41116900Y-170515853D01*
X41271772Y-170451703D01*
X41436184Y-170419000D01*
X41603816Y-170419000D01*
X41768228Y-170451703D01*
X41768228Y-170451703D01*
G37*
G36*
X39228228Y-170451703D02*
G01*
X39383100Y-170515853D01*
X39522481Y-170608985D01*
X39641015Y-170727519D01*
X39734147Y-170866900D01*
X39798297Y-171021772D01*
X39831000Y-171186184D01*
X39831000Y-171353816D01*
X39798297Y-171518228D01*
X39734147Y-171673100D01*
X39641015Y-171812481D01*
X39522481Y-171931015D01*
X39383100Y-172024147D01*
X39228228Y-172088297D01*
X39063816Y-172121000D01*
X38896184Y-172121000D01*
X38731772Y-172088297D01*
X38576900Y-172024147D01*
X38437519Y-171931015D01*
X38318985Y-171812481D01*
X38225853Y-171673100D01*
X38161703Y-171518228D01*
X38129000Y-171353816D01*
X38129000Y-171186184D01*
X38161703Y-171021772D01*
X38225853Y-170866900D01*
X38318985Y-170727519D01*
X38437519Y-170608985D01*
X38576900Y-170515853D01*
X38731772Y-170451703D01*
X38896184Y-170419000D01*
X39063816Y-170419000D01*
X39228228Y-170451703D01*
X39228228Y-170451703D01*
G37*
G36*
X34148228Y-170451703D02*
G01*
X34303100Y-170515853D01*
X34442481Y-170608985D01*
X34561015Y-170727519D01*
X34654147Y-170866900D01*
X34718297Y-171021772D01*
X34751000Y-171186184D01*
X34751000Y-171353816D01*
X34718297Y-171518228D01*
X34654147Y-171673100D01*
X34561015Y-171812481D01*
X34442481Y-171931015D01*
X34303100Y-172024147D01*
X34148228Y-172088297D01*
X33983816Y-172121000D01*
X33816184Y-172121000D01*
X33651772Y-172088297D01*
X33496900Y-172024147D01*
X33357519Y-171931015D01*
X33238985Y-171812481D01*
X33145853Y-171673100D01*
X33081703Y-171518228D01*
X33049000Y-171353816D01*
X33049000Y-171186184D01*
X33081703Y-171021772D01*
X33145853Y-170866900D01*
X33238985Y-170727519D01*
X33357519Y-170608985D01*
X33496900Y-170515853D01*
X33651772Y-170451703D01*
X33816184Y-170419000D01*
X33983816Y-170419000D01*
X34148228Y-170451703D01*
X34148228Y-170451703D01*
G37*
G36*
X39228228Y-167911703D02*
G01*
X39383100Y-167975853D01*
X39522481Y-168068985D01*
X39641015Y-168187519D01*
X39734147Y-168326900D01*
X39798297Y-168481772D01*
X39831000Y-168646184D01*
X39831000Y-168813816D01*
X39798297Y-168978228D01*
X39734147Y-169133100D01*
X39641015Y-169272481D01*
X39522481Y-169391015D01*
X39383100Y-169484147D01*
X39228228Y-169548297D01*
X39063816Y-169581000D01*
X38896184Y-169581000D01*
X38731772Y-169548297D01*
X38576900Y-169484147D01*
X38437519Y-169391015D01*
X38318985Y-169272481D01*
X38225853Y-169133100D01*
X38161703Y-168978228D01*
X38129000Y-168813816D01*
X38129000Y-168646184D01*
X38161703Y-168481772D01*
X38225853Y-168326900D01*
X38318985Y-168187519D01*
X38437519Y-168068985D01*
X38576900Y-167975853D01*
X38731772Y-167911703D01*
X38896184Y-167879000D01*
X39063816Y-167879000D01*
X39228228Y-167911703D01*
X39228228Y-167911703D01*
G37*
G36*
X34148228Y-167911703D02*
G01*
X34303100Y-167975853D01*
X34442481Y-168068985D01*
X34561015Y-168187519D01*
X34654147Y-168326900D01*
X34718297Y-168481772D01*
X34751000Y-168646184D01*
X34751000Y-168813816D01*
X34718297Y-168978228D01*
X34654147Y-169133100D01*
X34561015Y-169272481D01*
X34442481Y-169391015D01*
X34303100Y-169484147D01*
X34148228Y-169548297D01*
X33983816Y-169581000D01*
X33816184Y-169581000D01*
X33651772Y-169548297D01*
X33496900Y-169484147D01*
X33357519Y-169391015D01*
X33238985Y-169272481D01*
X33145853Y-169133100D01*
X33081703Y-168978228D01*
X33049000Y-168813816D01*
X33049000Y-168646184D01*
X33081703Y-168481772D01*
X33145853Y-168326900D01*
X33238985Y-168187519D01*
X33357519Y-168068985D01*
X33496900Y-167975853D01*
X33651772Y-167911703D01*
X33816184Y-167879000D01*
X33983816Y-167879000D01*
X34148228Y-167911703D01*
X34148228Y-167911703D01*
G37*
G36*
X36688228Y-167911703D02*
G01*
X36843100Y-167975853D01*
X36982481Y-168068985D01*
X37101015Y-168187519D01*
X37194147Y-168326900D01*
X37258297Y-168481772D01*
X37291000Y-168646184D01*
X37291000Y-168813816D01*
X37258297Y-168978228D01*
X37194147Y-169133100D01*
X37101015Y-169272481D01*
X36982481Y-169391015D01*
X36843100Y-169484147D01*
X36688228Y-169548297D01*
X36523816Y-169581000D01*
X36356184Y-169581000D01*
X36191772Y-169548297D01*
X36036900Y-169484147D01*
X35897519Y-169391015D01*
X35778985Y-169272481D01*
X35685853Y-169133100D01*
X35621703Y-168978228D01*
X35589000Y-168813816D01*
X35589000Y-168646184D01*
X35621703Y-168481772D01*
X35685853Y-168326900D01*
X35778985Y-168187519D01*
X35897519Y-168068985D01*
X36036900Y-167975853D01*
X36191772Y-167911703D01*
X36356184Y-167879000D01*
X36523816Y-167879000D01*
X36688228Y-167911703D01*
X36688228Y-167911703D01*
G37*
G36*
X41768228Y-167911703D02*
G01*
X41923100Y-167975853D01*
X42062481Y-168068985D01*
X42181015Y-168187519D01*
X42274147Y-168326900D01*
X42338297Y-168481772D01*
X42371000Y-168646184D01*
X42371000Y-168813816D01*
X42338297Y-168978228D01*
X42274147Y-169133100D01*
X42181015Y-169272481D01*
X42062481Y-169391015D01*
X41923100Y-169484147D01*
X41768228Y-169548297D01*
X41603816Y-169581000D01*
X41436184Y-169581000D01*
X41271772Y-169548297D01*
X41116900Y-169484147D01*
X40977519Y-169391015D01*
X40858985Y-169272481D01*
X40765853Y-169133100D01*
X40701703Y-168978228D01*
X40669000Y-168813816D01*
X40669000Y-168646184D01*
X40701703Y-168481772D01*
X40765853Y-168326900D01*
X40858985Y-168187519D01*
X40977519Y-168068985D01*
X41116900Y-167975853D01*
X41271772Y-167911703D01*
X41436184Y-167879000D01*
X41603816Y-167879000D01*
X41768228Y-167911703D01*
X41768228Y-167911703D01*
G37*
G36*
X45134999Y-165549737D02*
G01*
X45144608Y-165552652D01*
X45153472Y-165557390D01*
X45161212Y-165563742D01*
X45161213Y-165563743D01*
X45161237Y-165563763D01*
X45167640Y-165571573D01*
X45167677Y-165571628D01*
X45175480Y-165581147D01*
X45175511Y-165581122D01*
X45186853Y-165594972D01*
X45205779Y-165610537D01*
X45227377Y-165622111D01*
X45250819Y-165629249D01*
X45275202Y-165631676D01*
X45299591Y-165629300D01*
X45323047Y-165622211D01*
X45344670Y-165610682D01*
X45363628Y-165595157D01*
X45379193Y-165576231D01*
X45381029Y-165573175D01*
X45382418Y-165571486D01*
X45382419Y-165571484D01*
X45388801Y-165563725D01*
X45396573Y-165557360D01*
X45396575Y-165557358D01*
X45405399Y-165552654D01*
X45405438Y-165552633D01*
X45415055Y-165549727D01*
X45415085Y-165549718D01*
X45431113Y-165548148D01*
X46568860Y-165548148D01*
X46584999Y-165549737D01*
X46594608Y-165552652D01*
X46603472Y-165557390D01*
X46611237Y-165563763D01*
X46617610Y-165571528D01*
X46622348Y-165580392D01*
X46625263Y-165590001D01*
X46626852Y-165606140D01*
X46626852Y-167093860D01*
X46625263Y-167109999D01*
X46622348Y-167119608D01*
X46617610Y-167128472D01*
X46611237Y-167136237D01*
X46603472Y-167142610D01*
X46594608Y-167147348D01*
X46584999Y-167150263D01*
X46568860Y-167151852D01*
X45431140Y-167151852D01*
X45415001Y-167150263D01*
X45405392Y-167147348D01*
X45396528Y-167142610D01*
X45388763Y-167136237D01*
X45378116Y-167123263D01*
X45371947Y-167114032D01*
X45354619Y-167096706D01*
X45334244Y-167083093D01*
X45311605Y-167073717D01*
X45287572Y-167068937D01*
X45263068Y-167068938D01*
X45239035Y-167073720D01*
X45216396Y-167083098D01*
X45196022Y-167096713D01*
X45178696Y-167114041D01*
X45171825Y-167123317D01*
X45167640Y-167128427D01*
X45161275Y-167136199D01*
X45153516Y-167142581D01*
X45144661Y-167147326D01*
X45141623Y-167148251D01*
X45135085Y-167150242D01*
X45135082Y-167150242D01*
X45135050Y-167150252D01*
X45125000Y-167151247D01*
X45124935Y-167151247D01*
X45118825Y-167151852D01*
X44131140Y-167151852D01*
X44115001Y-167150263D01*
X44105392Y-167147348D01*
X44096528Y-167142610D01*
X44088763Y-167136237D01*
X44082390Y-167128472D01*
X44077652Y-167119608D01*
X44074737Y-167109999D01*
X44073148Y-167093860D01*
X44073148Y-165606140D01*
X44074737Y-165590001D01*
X44077652Y-165580392D01*
X44082390Y-165571528D01*
X44088763Y-165563763D01*
X44096528Y-165557390D01*
X44105392Y-165552652D01*
X44115001Y-165549737D01*
X44131140Y-165548148D01*
X45118860Y-165548148D01*
X45134999Y-165549737D01*
X45134999Y-165549737D01*
G37*
G36*
X34860988Y-160547973D02*
G01*
X35448082Y-160791155D01*
X35448084Y-160791156D01*
X35976455Y-161144202D01*
X36425798Y-161593545D01*
X36731451Y-162050988D01*
X36778845Y-162121918D01*
X37022027Y-162709012D01*
X37146000Y-163332265D01*
X37146000Y-163967735D01*
X37022027Y-164590988D01*
X36789186Y-165153117D01*
X36778844Y-165178084D01*
X36425798Y-165706455D01*
X35976455Y-166155798D01*
X35448084Y-166508844D01*
X35448083Y-166508845D01*
X35448082Y-166508845D01*
X34860988Y-166752027D01*
X34237735Y-166876000D01*
X33602265Y-166876000D01*
X32979012Y-166752027D01*
X32391918Y-166508845D01*
X32391917Y-166508845D01*
X32391916Y-166508844D01*
X31863545Y-166155798D01*
X31414202Y-165706455D01*
X31061156Y-165178084D01*
X31050814Y-165153117D01*
X30817973Y-164590988D01*
X30694000Y-163967735D01*
X30694000Y-163332265D01*
X30817973Y-162709012D01*
X31061155Y-162121918D01*
X31108549Y-162050988D01*
X31414202Y-161593545D01*
X31863545Y-161144202D01*
X32391916Y-160791156D01*
X32391918Y-160791155D01*
X32979012Y-160547973D01*
X33602265Y-160424000D01*
X34237735Y-160424000D01*
X34860988Y-160547973D01*
X34860988Y-160547973D01*
G37*
G36*
X83506000Y-165676000D02*
G01*
X82554000Y-165676000D01*
X82554000Y-164724000D01*
X83506000Y-164724000D01*
X83506000Y-165676000D01*
X83506000Y-165676000D01*
G37*
G36*
X99576000Y-165676000D02*
G01*
X98624000Y-165676000D01*
X98624000Y-164724000D01*
X99576000Y-164724000D01*
X99576000Y-165676000D01*
X99576000Y-165676000D01*
G37*
G36*
X97988843Y-164742292D02*
G01*
X98027185Y-164758174D01*
X98075470Y-164778174D01*
X98153432Y-164830267D01*
X98219733Y-164896568D01*
X98271826Y-164974530D01*
X98271826Y-164974531D01*
X98307708Y-165061157D01*
X98326000Y-165153117D01*
X98326000Y-165246883D01*
X98307708Y-165338843D01*
X98286689Y-165389588D01*
X98271826Y-165425470D01*
X98219733Y-165503432D01*
X98153432Y-165569733D01*
X98075470Y-165621826D01*
X98039588Y-165636689D01*
X97988843Y-165657708D01*
X97896883Y-165676000D01*
X97803117Y-165676000D01*
X97711157Y-165657708D01*
X97660412Y-165636689D01*
X97624530Y-165621826D01*
X97546568Y-165569733D01*
X97480267Y-165503432D01*
X97428174Y-165425470D01*
X97413311Y-165389588D01*
X97392292Y-165338843D01*
X97374000Y-165246883D01*
X97374000Y-165153117D01*
X97392292Y-165061157D01*
X97428174Y-164974531D01*
X97428174Y-164974530D01*
X97480267Y-164896568D01*
X97546568Y-164830267D01*
X97624530Y-164778174D01*
X97672815Y-164758174D01*
X97711157Y-164742292D01*
X97803117Y-164724000D01*
X97896883Y-164724000D01*
X97988843Y-164742292D01*
X97988843Y-164742292D01*
G37*
G36*
X96738843Y-164742292D02*
G01*
X96777185Y-164758174D01*
X96825470Y-164778174D01*
X96903432Y-164830267D01*
X96969733Y-164896568D01*
X97021826Y-164974530D01*
X97021826Y-164974531D01*
X97057708Y-165061157D01*
X97076000Y-165153117D01*
X97076000Y-165246883D01*
X97057708Y-165338843D01*
X97036689Y-165389588D01*
X97021826Y-165425470D01*
X96969733Y-165503432D01*
X96903432Y-165569733D01*
X96825470Y-165621826D01*
X96789588Y-165636689D01*
X96738843Y-165657708D01*
X96646883Y-165676000D01*
X96553117Y-165676000D01*
X96461157Y-165657708D01*
X96410412Y-165636689D01*
X96374530Y-165621826D01*
X96296568Y-165569733D01*
X96230267Y-165503432D01*
X96178174Y-165425470D01*
X96163311Y-165389588D01*
X96142292Y-165338843D01*
X96124000Y-165246883D01*
X96124000Y-165153117D01*
X96142292Y-165061157D01*
X96178174Y-164974531D01*
X96178174Y-164974530D01*
X96230267Y-164896568D01*
X96296568Y-164830267D01*
X96374530Y-164778174D01*
X96422815Y-164758174D01*
X96461157Y-164742292D01*
X96553117Y-164724000D01*
X96646883Y-164724000D01*
X96738843Y-164742292D01*
X96738843Y-164742292D01*
G37*
G36*
X95488843Y-164742292D02*
G01*
X95527185Y-164758174D01*
X95575470Y-164778174D01*
X95653432Y-164830267D01*
X95719733Y-164896568D01*
X95771826Y-164974530D01*
X95771826Y-164974531D01*
X95807708Y-165061157D01*
X95826000Y-165153117D01*
X95826000Y-165246883D01*
X95807708Y-165338843D01*
X95786689Y-165389588D01*
X95771826Y-165425470D01*
X95719733Y-165503432D01*
X95653432Y-165569733D01*
X95575470Y-165621826D01*
X95539588Y-165636689D01*
X95488843Y-165657708D01*
X95396883Y-165676000D01*
X95303117Y-165676000D01*
X95211157Y-165657708D01*
X95160412Y-165636689D01*
X95124530Y-165621826D01*
X95046568Y-165569733D01*
X94980267Y-165503432D01*
X94928174Y-165425470D01*
X94913311Y-165389588D01*
X94892292Y-165338843D01*
X94874000Y-165246883D01*
X94874000Y-165153117D01*
X94892292Y-165061157D01*
X94928174Y-164974531D01*
X94928174Y-164974530D01*
X94980267Y-164896568D01*
X95046568Y-164830267D01*
X95124530Y-164778174D01*
X95172815Y-164758174D01*
X95211157Y-164742292D01*
X95303117Y-164724000D01*
X95396883Y-164724000D01*
X95488843Y-164742292D01*
X95488843Y-164742292D01*
G37*
G36*
X76918843Y-164742292D02*
G01*
X76957185Y-164758174D01*
X77005470Y-164778174D01*
X77083432Y-164830267D01*
X77149733Y-164896568D01*
X77201826Y-164974530D01*
X77201826Y-164974531D01*
X77237708Y-165061157D01*
X77256000Y-165153117D01*
X77256000Y-165246883D01*
X77237708Y-165338843D01*
X77216689Y-165389588D01*
X77201826Y-165425470D01*
X77149733Y-165503432D01*
X77083432Y-165569733D01*
X77005470Y-165621826D01*
X76969588Y-165636689D01*
X76918843Y-165657708D01*
X76826883Y-165676000D01*
X76733117Y-165676000D01*
X76641157Y-165657708D01*
X76590412Y-165636689D01*
X76554530Y-165621826D01*
X76476568Y-165569733D01*
X76410267Y-165503432D01*
X76358174Y-165425470D01*
X76343311Y-165389588D01*
X76322292Y-165338843D01*
X76304000Y-165246883D01*
X76304000Y-165153117D01*
X76322292Y-165061157D01*
X76358174Y-164974531D01*
X76358174Y-164974530D01*
X76410267Y-164896568D01*
X76476568Y-164830267D01*
X76554530Y-164778174D01*
X76602815Y-164758174D01*
X76641157Y-164742292D01*
X76733117Y-164724000D01*
X76826883Y-164724000D01*
X76918843Y-164742292D01*
X76918843Y-164742292D01*
G37*
G36*
X78168843Y-164742292D02*
G01*
X78207185Y-164758174D01*
X78255470Y-164778174D01*
X78333432Y-164830267D01*
X78399733Y-164896568D01*
X78451826Y-164974530D01*
X78451826Y-164974531D01*
X78487708Y-165061157D01*
X78506000Y-165153117D01*
X78506000Y-165246883D01*
X78487708Y-165338843D01*
X78466689Y-165389588D01*
X78451826Y-165425470D01*
X78399733Y-165503432D01*
X78333432Y-165569733D01*
X78255470Y-165621826D01*
X78219588Y-165636689D01*
X78168843Y-165657708D01*
X78076883Y-165676000D01*
X77983117Y-165676000D01*
X77891157Y-165657708D01*
X77840412Y-165636689D01*
X77804530Y-165621826D01*
X77726568Y-165569733D01*
X77660267Y-165503432D01*
X77608174Y-165425470D01*
X77593311Y-165389588D01*
X77572292Y-165338843D01*
X77554000Y-165246883D01*
X77554000Y-165153117D01*
X77572292Y-165061157D01*
X77608174Y-164974531D01*
X77608174Y-164974530D01*
X77660267Y-164896568D01*
X77726568Y-164830267D01*
X77804530Y-164778174D01*
X77852815Y-164758174D01*
X77891157Y-164742292D01*
X77983117Y-164724000D01*
X78076883Y-164724000D01*
X78168843Y-164742292D01*
X78168843Y-164742292D01*
G37*
G36*
X79418843Y-164742292D02*
G01*
X79457185Y-164758174D01*
X79505470Y-164778174D01*
X79583432Y-164830267D01*
X79649733Y-164896568D01*
X79701826Y-164974530D01*
X79701826Y-164974531D01*
X79737708Y-165061157D01*
X79756000Y-165153117D01*
X79756000Y-165246883D01*
X79737708Y-165338843D01*
X79716689Y-165389588D01*
X79701826Y-165425470D01*
X79649733Y-165503432D01*
X79583432Y-165569733D01*
X79505470Y-165621826D01*
X79469588Y-165636689D01*
X79418843Y-165657708D01*
X79326883Y-165676000D01*
X79233117Y-165676000D01*
X79141157Y-165657708D01*
X79090412Y-165636689D01*
X79054530Y-165621826D01*
X78976568Y-165569733D01*
X78910267Y-165503432D01*
X78858174Y-165425470D01*
X78843311Y-165389588D01*
X78822292Y-165338843D01*
X78804000Y-165246883D01*
X78804000Y-165153117D01*
X78822292Y-165061157D01*
X78858174Y-164974531D01*
X78858174Y-164974530D01*
X78910267Y-164896568D01*
X78976568Y-164830267D01*
X79054530Y-164778174D01*
X79102815Y-164758174D01*
X79141157Y-164742292D01*
X79233117Y-164724000D01*
X79326883Y-164724000D01*
X79418843Y-164742292D01*
X79418843Y-164742292D01*
G37*
G36*
X80668843Y-164742292D02*
G01*
X80707185Y-164758174D01*
X80755470Y-164778174D01*
X80833432Y-164830267D01*
X80899733Y-164896568D01*
X80951826Y-164974530D01*
X80951826Y-164974531D01*
X80987708Y-165061157D01*
X81006000Y-165153117D01*
X81006000Y-165246883D01*
X80987708Y-165338843D01*
X80966689Y-165389588D01*
X80951826Y-165425470D01*
X80899733Y-165503432D01*
X80833432Y-165569733D01*
X80755470Y-165621826D01*
X80719588Y-165636689D01*
X80668843Y-165657708D01*
X80576883Y-165676000D01*
X80483117Y-165676000D01*
X80391157Y-165657708D01*
X80340412Y-165636689D01*
X80304530Y-165621826D01*
X80226568Y-165569733D01*
X80160267Y-165503432D01*
X80108174Y-165425470D01*
X80093311Y-165389588D01*
X80072292Y-165338843D01*
X80054000Y-165246883D01*
X80054000Y-165153117D01*
X80072292Y-165061157D01*
X80108174Y-164974531D01*
X80108174Y-164974530D01*
X80160267Y-164896568D01*
X80226568Y-164830267D01*
X80304530Y-164778174D01*
X80352815Y-164758174D01*
X80391157Y-164742292D01*
X80483117Y-164724000D01*
X80576883Y-164724000D01*
X80668843Y-164742292D01*
X80668843Y-164742292D01*
G37*
G36*
X81918843Y-164742292D02*
G01*
X81957185Y-164758174D01*
X82005470Y-164778174D01*
X82083432Y-164830267D01*
X82149733Y-164896568D01*
X82201826Y-164974530D01*
X82201826Y-164974531D01*
X82237708Y-165061157D01*
X82256000Y-165153117D01*
X82256000Y-165246883D01*
X82237708Y-165338843D01*
X82216689Y-165389588D01*
X82201826Y-165425470D01*
X82149733Y-165503432D01*
X82083432Y-165569733D01*
X82005470Y-165621826D01*
X81969588Y-165636689D01*
X81918843Y-165657708D01*
X81826883Y-165676000D01*
X81733117Y-165676000D01*
X81641157Y-165657708D01*
X81590412Y-165636689D01*
X81554530Y-165621826D01*
X81476568Y-165569733D01*
X81410267Y-165503432D01*
X81358174Y-165425470D01*
X81343311Y-165389588D01*
X81322292Y-165338843D01*
X81304000Y-165246883D01*
X81304000Y-165153117D01*
X81322292Y-165061157D01*
X81358174Y-164974531D01*
X81358174Y-164974530D01*
X81410267Y-164896568D01*
X81476568Y-164830267D01*
X81554530Y-164778174D01*
X81602815Y-164758174D01*
X81641157Y-164742292D01*
X81733117Y-164724000D01*
X81826883Y-164724000D01*
X81918843Y-164742292D01*
X81918843Y-164742292D01*
G37*
G36*
X87428843Y-164732292D02*
G01*
X87452987Y-164742293D01*
X87515470Y-164768174D01*
X87593432Y-164820267D01*
X87659733Y-164886568D01*
X87711826Y-164964530D01*
X87711826Y-164964531D01*
X87747708Y-165051157D01*
X87766000Y-165143117D01*
X87766000Y-165236883D01*
X87747708Y-165328843D01*
X87743565Y-165338844D01*
X87711826Y-165415470D01*
X87659733Y-165493432D01*
X87593432Y-165559733D01*
X87515470Y-165611826D01*
X87496793Y-165619562D01*
X87428843Y-165647708D01*
X87336883Y-165666000D01*
X87243117Y-165666000D01*
X87151157Y-165647708D01*
X87083207Y-165619562D01*
X87064530Y-165611826D01*
X86986568Y-165559733D01*
X86920267Y-165493432D01*
X86868174Y-165415470D01*
X86836435Y-165338844D01*
X86832292Y-165328843D01*
X86814000Y-165236883D01*
X86814000Y-165143117D01*
X86832292Y-165051157D01*
X86868174Y-164964531D01*
X86868174Y-164964530D01*
X86920267Y-164886568D01*
X86986568Y-164820267D01*
X87064530Y-164768174D01*
X87127013Y-164742293D01*
X87151157Y-164732292D01*
X87243117Y-164714000D01*
X87336883Y-164714000D01*
X87428843Y-164732292D01*
X87428843Y-164732292D01*
G37*
G36*
X89928843Y-164732292D02*
G01*
X89952987Y-164742293D01*
X90015470Y-164768174D01*
X90093432Y-164820267D01*
X90159733Y-164886568D01*
X90211826Y-164964530D01*
X90211826Y-164964531D01*
X90247708Y-165051157D01*
X90266000Y-165143117D01*
X90266000Y-165236883D01*
X90247708Y-165328843D01*
X90243565Y-165338844D01*
X90211826Y-165415470D01*
X90159733Y-165493432D01*
X90093432Y-165559733D01*
X90015470Y-165611826D01*
X89996793Y-165619562D01*
X89928843Y-165647708D01*
X89836883Y-165666000D01*
X89743117Y-165666000D01*
X89651157Y-165647708D01*
X89583207Y-165619562D01*
X89564530Y-165611826D01*
X89486568Y-165559733D01*
X89420267Y-165493432D01*
X89368174Y-165415470D01*
X89336435Y-165338844D01*
X89332292Y-165328843D01*
X89314000Y-165236883D01*
X89314000Y-165143117D01*
X89332292Y-165051157D01*
X89368174Y-164964531D01*
X89368174Y-164964530D01*
X89420267Y-164886568D01*
X89486568Y-164820267D01*
X89564530Y-164768174D01*
X89627013Y-164742293D01*
X89651157Y-164732292D01*
X89743117Y-164714000D01*
X89836883Y-164714000D01*
X89928843Y-164732292D01*
X89928843Y-164732292D01*
G37*
G36*
X91516000Y-165666000D02*
G01*
X90564000Y-165666000D01*
X90564000Y-164714000D01*
X91516000Y-164714000D01*
X91516000Y-165666000D01*
X91516000Y-165666000D01*
G37*
G36*
X88678843Y-164732292D02*
G01*
X88702987Y-164742293D01*
X88765470Y-164768174D01*
X88843432Y-164820267D01*
X88909733Y-164886568D01*
X88961826Y-164964530D01*
X88961826Y-164964531D01*
X88997708Y-165051157D01*
X89016000Y-165143117D01*
X89016000Y-165236883D01*
X88997708Y-165328843D01*
X88993565Y-165338844D01*
X88961826Y-165415470D01*
X88909733Y-165493432D01*
X88843432Y-165559733D01*
X88765470Y-165611826D01*
X88746793Y-165619562D01*
X88678843Y-165647708D01*
X88586883Y-165666000D01*
X88493117Y-165666000D01*
X88401157Y-165647708D01*
X88333207Y-165619562D01*
X88314530Y-165611826D01*
X88236568Y-165559733D01*
X88170267Y-165493432D01*
X88118174Y-165415470D01*
X88086435Y-165338844D01*
X88082292Y-165328843D01*
X88064000Y-165236883D01*
X88064000Y-165143117D01*
X88082292Y-165051157D01*
X88118174Y-164964531D01*
X88118174Y-164964530D01*
X88170267Y-164886568D01*
X88236568Y-164820267D01*
X88314530Y-164768174D01*
X88377013Y-164742293D01*
X88401157Y-164732292D01*
X88493117Y-164714000D01*
X88586883Y-164714000D01*
X88678843Y-164732292D01*
X88678843Y-164732292D01*
G37*
G36*
X103784513Y-163344288D02*
G01*
X103999462Y-163433323D01*
X104192905Y-163562577D01*
X104357423Y-163727095D01*
X104486677Y-163920538D01*
X104575712Y-164135487D01*
X104621100Y-164363670D01*
X104621100Y-164596330D01*
X104575712Y-164824513D01*
X104486677Y-165039462D01*
X104357423Y-165232905D01*
X104192905Y-165397423D01*
X103999462Y-165526677D01*
X103784513Y-165615712D01*
X103556330Y-165661100D01*
X103323670Y-165661100D01*
X103095487Y-165615712D01*
X102880538Y-165526677D01*
X102687095Y-165397423D01*
X102522577Y-165232905D01*
X102393323Y-165039462D01*
X102304288Y-164824513D01*
X102258900Y-164596330D01*
X102258900Y-164363670D01*
X102304288Y-164135487D01*
X102393323Y-163920538D01*
X102522577Y-163727095D01*
X102687095Y-163562577D01*
X102880538Y-163433323D01*
X103095487Y-163344288D01*
X103323670Y-163298900D01*
X103556330Y-163298900D01*
X103784513Y-163344288D01*
X103784513Y-163344288D01*
G37*
G36*
X72886000Y-165656000D02*
G01*
X71934000Y-165656000D01*
X71934000Y-164704000D01*
X72886000Y-164704000D01*
X72886000Y-165656000D01*
X72886000Y-165656000D01*
G37*
G36*
X71298843Y-164722292D02*
G01*
X71322987Y-164732293D01*
X71385470Y-164758174D01*
X71463432Y-164810267D01*
X71529733Y-164876568D01*
X71581826Y-164954530D01*
X71596689Y-164990412D01*
X71617708Y-165041157D01*
X71636000Y-165133117D01*
X71636000Y-165226883D01*
X71617708Y-165318843D01*
X71609423Y-165338844D01*
X71581826Y-165405470D01*
X71529733Y-165483432D01*
X71463432Y-165549733D01*
X71385470Y-165601826D01*
X71364439Y-165610537D01*
X71298843Y-165637708D01*
X71206883Y-165656000D01*
X71113117Y-165656000D01*
X71021157Y-165637708D01*
X70955561Y-165610537D01*
X70934530Y-165601826D01*
X70856568Y-165549733D01*
X70790267Y-165483432D01*
X70738174Y-165405470D01*
X70710577Y-165338844D01*
X70702292Y-165318843D01*
X70684000Y-165226883D01*
X70684000Y-165133117D01*
X70702292Y-165041157D01*
X70723311Y-164990412D01*
X70738174Y-164954530D01*
X70790267Y-164876568D01*
X70856568Y-164810267D01*
X70934530Y-164758174D01*
X70997013Y-164732293D01*
X71021157Y-164722292D01*
X71113117Y-164704000D01*
X71206883Y-164704000D01*
X71298843Y-164722292D01*
X71298843Y-164722292D01*
G37*
G36*
X111776000Y-165656000D02*
G01*
X110824000Y-165656000D01*
X110824000Y-164704000D01*
X111776000Y-164704000D01*
X111776000Y-165656000D01*
X111776000Y-165656000D01*
G37*
G36*
X107688843Y-164722292D02*
G01*
X107712987Y-164732293D01*
X107775470Y-164758174D01*
X107853432Y-164810267D01*
X107919733Y-164876568D01*
X107971826Y-164954530D01*
X107986689Y-164990412D01*
X108007708Y-165041157D01*
X108026000Y-165133117D01*
X108026000Y-165226883D01*
X108007708Y-165318843D01*
X107999423Y-165338844D01*
X107971826Y-165405470D01*
X107919733Y-165483432D01*
X107853432Y-165549733D01*
X107775470Y-165601826D01*
X107754439Y-165610537D01*
X107688843Y-165637708D01*
X107596883Y-165656000D01*
X107503117Y-165656000D01*
X107411157Y-165637708D01*
X107345561Y-165610537D01*
X107324530Y-165601826D01*
X107246568Y-165549733D01*
X107180267Y-165483432D01*
X107128174Y-165405470D01*
X107100577Y-165338844D01*
X107092292Y-165318843D01*
X107074000Y-165226883D01*
X107074000Y-165133117D01*
X107092292Y-165041157D01*
X107113311Y-164990412D01*
X107128174Y-164954530D01*
X107180267Y-164876568D01*
X107246568Y-164810267D01*
X107324530Y-164758174D01*
X107387013Y-164732293D01*
X107411157Y-164722292D01*
X107503117Y-164704000D01*
X107596883Y-164704000D01*
X107688843Y-164722292D01*
X107688843Y-164722292D01*
G37*
G36*
X108938843Y-164722292D02*
G01*
X108962987Y-164732293D01*
X109025470Y-164758174D01*
X109103432Y-164810267D01*
X109169733Y-164876568D01*
X109221826Y-164954530D01*
X109236689Y-164990412D01*
X109257708Y-165041157D01*
X109276000Y-165133117D01*
X109276000Y-165226883D01*
X109257708Y-165318843D01*
X109249423Y-165338844D01*
X109221826Y-165405470D01*
X109169733Y-165483432D01*
X109103432Y-165549733D01*
X109025470Y-165601826D01*
X109004439Y-165610537D01*
X108938843Y-165637708D01*
X108846883Y-165656000D01*
X108753117Y-165656000D01*
X108661157Y-165637708D01*
X108595561Y-165610537D01*
X108574530Y-165601826D01*
X108496568Y-165549733D01*
X108430267Y-165483432D01*
X108378174Y-165405470D01*
X108350577Y-165338844D01*
X108342292Y-165318843D01*
X108324000Y-165226883D01*
X108324000Y-165133117D01*
X108342292Y-165041157D01*
X108363311Y-164990412D01*
X108378174Y-164954530D01*
X108430267Y-164876568D01*
X108496568Y-164810267D01*
X108574530Y-164758174D01*
X108637013Y-164732293D01*
X108661157Y-164722292D01*
X108753117Y-164704000D01*
X108846883Y-164704000D01*
X108938843Y-164722292D01*
X108938843Y-164722292D01*
G37*
G36*
X70048843Y-164722292D02*
G01*
X70072987Y-164732293D01*
X70135470Y-164758174D01*
X70213432Y-164810267D01*
X70279733Y-164876568D01*
X70331826Y-164954530D01*
X70346689Y-164990412D01*
X70367708Y-165041157D01*
X70386000Y-165133117D01*
X70386000Y-165226883D01*
X70367708Y-165318843D01*
X70359423Y-165338844D01*
X70331826Y-165405470D01*
X70279733Y-165483432D01*
X70213432Y-165549733D01*
X70135470Y-165601826D01*
X70114439Y-165610537D01*
X70048843Y-165637708D01*
X69956883Y-165656000D01*
X69863117Y-165656000D01*
X69771157Y-165637708D01*
X69705561Y-165610537D01*
X69684530Y-165601826D01*
X69606568Y-165549733D01*
X69540267Y-165483432D01*
X69488174Y-165405470D01*
X69460577Y-165338844D01*
X69452292Y-165318843D01*
X69434000Y-165226883D01*
X69434000Y-165133117D01*
X69452292Y-165041157D01*
X69473311Y-164990412D01*
X69488174Y-164954530D01*
X69540267Y-164876568D01*
X69606568Y-164810267D01*
X69684530Y-164758174D01*
X69747013Y-164732293D01*
X69771157Y-164722292D01*
X69863117Y-164704000D01*
X69956883Y-164704000D01*
X70048843Y-164722292D01*
X70048843Y-164722292D01*
G37*
G36*
X68798843Y-164722292D02*
G01*
X68822987Y-164732293D01*
X68885470Y-164758174D01*
X68963432Y-164810267D01*
X69029733Y-164876568D01*
X69081826Y-164954530D01*
X69096689Y-164990412D01*
X69117708Y-165041157D01*
X69136000Y-165133117D01*
X69136000Y-165226883D01*
X69117708Y-165318843D01*
X69109423Y-165338844D01*
X69081826Y-165405470D01*
X69029733Y-165483432D01*
X68963432Y-165549733D01*
X68885470Y-165601826D01*
X68864439Y-165610537D01*
X68798843Y-165637708D01*
X68706883Y-165656000D01*
X68613117Y-165656000D01*
X68521157Y-165637708D01*
X68455561Y-165610537D01*
X68434530Y-165601826D01*
X68356568Y-165549733D01*
X68290267Y-165483432D01*
X68238174Y-165405470D01*
X68210577Y-165338844D01*
X68202292Y-165318843D01*
X68184000Y-165226883D01*
X68184000Y-165133117D01*
X68202292Y-165041157D01*
X68223311Y-164990412D01*
X68238174Y-164954530D01*
X68290267Y-164876568D01*
X68356568Y-164810267D01*
X68434530Y-164758174D01*
X68497013Y-164732293D01*
X68521157Y-164722292D01*
X68613117Y-164704000D01*
X68706883Y-164704000D01*
X68798843Y-164722292D01*
X68798843Y-164722292D01*
G37*
G36*
X110188843Y-164722292D02*
G01*
X110212987Y-164732293D01*
X110275470Y-164758174D01*
X110353432Y-164810267D01*
X110419733Y-164876568D01*
X110471826Y-164954530D01*
X110486689Y-164990412D01*
X110507708Y-165041157D01*
X110526000Y-165133117D01*
X110526000Y-165226883D01*
X110507708Y-165318843D01*
X110499423Y-165338844D01*
X110471826Y-165405470D01*
X110419733Y-165483432D01*
X110353432Y-165549733D01*
X110275470Y-165601826D01*
X110254439Y-165610537D01*
X110188843Y-165637708D01*
X110096883Y-165656000D01*
X110003117Y-165656000D01*
X109911157Y-165637708D01*
X109845561Y-165610537D01*
X109824530Y-165601826D01*
X109746568Y-165549733D01*
X109680267Y-165483432D01*
X109628174Y-165405470D01*
X109600577Y-165338844D01*
X109592292Y-165318843D01*
X109574000Y-165226883D01*
X109574000Y-165133117D01*
X109592292Y-165041157D01*
X109613311Y-164990412D01*
X109628174Y-164954530D01*
X109680267Y-164876568D01*
X109746568Y-164810267D01*
X109824530Y-164758174D01*
X109887013Y-164732293D01*
X109911157Y-164722292D01*
X110003117Y-164704000D01*
X110096883Y-164704000D01*
X110188843Y-164722292D01*
X110188843Y-164722292D01*
G37*
G36*
X120590988Y-158007973D02*
G01*
X121178082Y-158251155D01*
X121178084Y-158251156D01*
X121706455Y-158604202D01*
X122155798Y-159053545D01*
X122508844Y-159581916D01*
X122508845Y-159581918D01*
X122752027Y-160169012D01*
X122876000Y-160792265D01*
X122876000Y-161427735D01*
X122752027Y-162050988D01*
X122508845Y-162638082D01*
X122508844Y-162638084D01*
X122155798Y-163166455D01*
X121706455Y-163615798D01*
X121178084Y-163968844D01*
X121178083Y-163968845D01*
X121178082Y-163968845D01*
X120590988Y-164212027D01*
X119967735Y-164336000D01*
X119332265Y-164336000D01*
X118709012Y-164212027D01*
X118121918Y-163968845D01*
X118121917Y-163968845D01*
X118121916Y-163968844D01*
X117593545Y-163615798D01*
X117144202Y-163166455D01*
X116791156Y-162638084D01*
X116791155Y-162638082D01*
X116547973Y-162050988D01*
X116424000Y-161427735D01*
X116424000Y-160792265D01*
X116547973Y-160169012D01*
X116791155Y-159581918D01*
X116791156Y-159581916D01*
X117144202Y-159053545D01*
X117593545Y-158604202D01*
X118121916Y-158251156D01*
X118121918Y-158251155D01*
X118709012Y-158007973D01*
X119332265Y-157884000D01*
X119967735Y-157884000D01*
X120590988Y-158007973D01*
X120590988Y-158007973D01*
G37*
M02*
