G04 #@! TF.GenerationSoftware,KiCad,Pcbnew,(5.1.2)-2*
G04 #@! TF.CreationDate,2021-12-15T08:53:20-03:00*
G04 #@! TF.ProjectId,Magnetometer_A,4d61676e-6574-46f6-9d65-7465725f412e,rev?*
G04 #@! TF.SameCoordinates,Original*
G04 #@! TF.FileFunction,Legend,Bot*
G04 #@! TF.FilePolarity,Positive*
%FSLAX46Y46*%
G04 Gerber Fmt 4.6, Leading zero omitted, Abs format (unit mm)*
G04 Created by KiCad (PCBNEW (5.1.2)-2) date 2021-12-15 08:53:20*
%MOMM*%
%LPD*%
G04 APERTURE LIST*
%ADD10C,0.150000*%
%ADD11C,0.120000*%
G04 APERTURE END LIST*
D10*
X46454166Y-164606666D02*
X46320833Y-164606666D01*
X46254166Y-164640000D01*
X46187500Y-164706666D01*
X46154166Y-164840000D01*
X46154166Y-165073333D01*
X46187500Y-165206666D01*
X46254166Y-165273333D01*
X46320833Y-165306666D01*
X46454166Y-165306666D01*
X46520833Y-165273333D01*
X46587500Y-165206666D01*
X46620833Y-165073333D01*
X46620833Y-164840000D01*
X46587500Y-164706666D01*
X46520833Y-164640000D01*
X46454166Y-164606666D01*
X45854166Y-164606666D02*
X45854166Y-165173333D01*
X45820833Y-165240000D01*
X45787500Y-165273333D01*
X45720833Y-165306666D01*
X45587500Y-165306666D01*
X45520833Y-165273333D01*
X45487500Y-165240000D01*
X45454166Y-165173333D01*
X45454166Y-164606666D01*
X45220833Y-164606666D02*
X44820833Y-164606666D01*
X45020833Y-165306666D02*
X45020833Y-164606666D01*
X44654166Y-164606666D02*
X44220833Y-164606666D01*
X44454166Y-164873333D01*
X44354166Y-164873333D01*
X44287500Y-164906666D01*
X44254166Y-164940000D01*
X44220833Y-165006666D01*
X44220833Y-165173333D01*
X44254166Y-165240000D01*
X44287500Y-165273333D01*
X44354166Y-165306666D01*
X44554166Y-165306666D01*
X44620833Y-165273333D01*
X44654166Y-165240000D01*
X46454166Y-169406666D02*
X46320833Y-169406666D01*
X46254166Y-169440000D01*
X46187500Y-169506666D01*
X46154166Y-169640000D01*
X46154166Y-169873333D01*
X46187500Y-170006666D01*
X46254166Y-170073333D01*
X46320833Y-170106666D01*
X46454166Y-170106666D01*
X46520833Y-170073333D01*
X46587500Y-170006666D01*
X46620833Y-169873333D01*
X46620833Y-169640000D01*
X46587500Y-169506666D01*
X46520833Y-169440000D01*
X46454166Y-169406666D01*
X45854166Y-169406666D02*
X45854166Y-169973333D01*
X45820833Y-170040000D01*
X45787500Y-170073333D01*
X45720833Y-170106666D01*
X45587500Y-170106666D01*
X45520833Y-170073333D01*
X45487500Y-170040000D01*
X45454166Y-169973333D01*
X45454166Y-169406666D01*
X45220833Y-169406666D02*
X44820833Y-169406666D01*
X45020833Y-170106666D02*
X45020833Y-169406666D01*
X44620833Y-169473333D02*
X44587500Y-169440000D01*
X44520833Y-169406666D01*
X44354166Y-169406666D01*
X44287500Y-169440000D01*
X44254166Y-169473333D01*
X44220833Y-169540000D01*
X44220833Y-169606666D01*
X44254166Y-169706666D01*
X44654166Y-170106666D01*
X44220833Y-170106666D01*
X46454166Y-174206666D02*
X46320833Y-174206666D01*
X46254166Y-174240000D01*
X46187500Y-174306666D01*
X46154166Y-174440000D01*
X46154166Y-174673333D01*
X46187500Y-174806666D01*
X46254166Y-174873333D01*
X46320833Y-174906666D01*
X46454166Y-174906666D01*
X46520833Y-174873333D01*
X46587500Y-174806666D01*
X46620833Y-174673333D01*
X46620833Y-174440000D01*
X46587500Y-174306666D01*
X46520833Y-174240000D01*
X46454166Y-174206666D01*
X45854166Y-174206666D02*
X45854166Y-174773333D01*
X45820833Y-174840000D01*
X45787500Y-174873333D01*
X45720833Y-174906666D01*
X45587500Y-174906666D01*
X45520833Y-174873333D01*
X45487500Y-174840000D01*
X45454166Y-174773333D01*
X45454166Y-174206666D01*
X45220833Y-174206666D02*
X44820833Y-174206666D01*
X45020833Y-174906666D02*
X45020833Y-174206666D01*
X44220833Y-174906666D02*
X44620833Y-174906666D01*
X44420833Y-174906666D02*
X44420833Y-174206666D01*
X44487500Y-174306666D01*
X44554166Y-174373333D01*
X44620833Y-174406666D01*
D11*
X43965000Y-177630000D02*
X46765000Y-177630000D01*
X46765000Y-177630000D02*
X46765000Y-175630000D01*
X46765000Y-175630000D02*
X43965000Y-175630000D01*
X43965000Y-175630000D02*
X43965000Y-177630000D01*
X43960000Y-170480000D02*
X43960000Y-172480000D01*
X46760000Y-170480000D02*
X43960000Y-170480000D01*
X46760000Y-172480000D02*
X46760000Y-170480000D01*
X43960000Y-172480000D02*
X46760000Y-172480000D01*
X43950000Y-167350000D02*
X46750000Y-167350000D01*
X46750000Y-167350000D02*
X46750000Y-165350000D01*
X46750000Y-165350000D02*
X43950000Y-165350000D01*
X43950000Y-165350000D02*
X43950000Y-167350000D01*
D10*
X46198333Y-177882380D02*
X46198333Y-178596666D01*
X46245952Y-178739523D01*
X46341190Y-178834761D01*
X46484047Y-178882380D01*
X46579285Y-178882380D01*
X45722142Y-178882380D02*
X45722142Y-177882380D01*
X45341190Y-177882380D01*
X45245952Y-177930000D01*
X45198333Y-177977619D01*
X45150714Y-178072857D01*
X45150714Y-178215714D01*
X45198333Y-178310952D01*
X45245952Y-178358571D01*
X45341190Y-178406190D01*
X45722142Y-178406190D01*
X44198333Y-178882380D02*
X44769761Y-178882380D01*
X44484047Y-178882380D02*
X44484047Y-177882380D01*
X44579285Y-178025238D01*
X44674523Y-178120476D01*
X44769761Y-178168095D01*
X46193333Y-172732380D02*
X46193333Y-173446666D01*
X46240952Y-173589523D01*
X46336190Y-173684761D01*
X46479047Y-173732380D01*
X46574285Y-173732380D01*
X45717142Y-173732380D02*
X45717142Y-172732380D01*
X45336190Y-172732380D01*
X45240952Y-172780000D01*
X45193333Y-172827619D01*
X45145714Y-172922857D01*
X45145714Y-173065714D01*
X45193333Y-173160952D01*
X45240952Y-173208571D01*
X45336190Y-173256190D01*
X45717142Y-173256190D01*
X44764761Y-172827619D02*
X44717142Y-172780000D01*
X44621904Y-172732380D01*
X44383809Y-172732380D01*
X44288571Y-172780000D01*
X44240952Y-172827619D01*
X44193333Y-172922857D01*
X44193333Y-173018095D01*
X44240952Y-173160952D01*
X44812380Y-173732380D01*
X44193333Y-173732380D01*
X46183333Y-167602380D02*
X46183333Y-168316666D01*
X46230952Y-168459523D01*
X46326190Y-168554761D01*
X46469047Y-168602380D01*
X46564285Y-168602380D01*
X45707142Y-168602380D02*
X45707142Y-167602380D01*
X45326190Y-167602380D01*
X45230952Y-167650000D01*
X45183333Y-167697619D01*
X45135714Y-167792857D01*
X45135714Y-167935714D01*
X45183333Y-168030952D01*
X45230952Y-168078571D01*
X45326190Y-168126190D01*
X45707142Y-168126190D01*
X44802380Y-167602380D02*
X44183333Y-167602380D01*
X44516666Y-167983333D01*
X44373809Y-167983333D01*
X44278571Y-168030952D01*
X44230952Y-168078571D01*
X44183333Y-168173809D01*
X44183333Y-168411904D01*
X44230952Y-168507142D01*
X44278571Y-168554761D01*
X44373809Y-168602380D01*
X44659523Y-168602380D01*
X44754761Y-168554761D01*
X44802380Y-168507142D01*
M02*
