M48
; DRILL file {KiCad (5.1.2)-2} date 15/12/2021 08:53:16
; FORMAT={-:-/ absolute / metric / decimal}
; #@! TF.CreationDate,2021-12-15T08:53:16-03:00
; #@! TF.GenerationSoftware,Kicad,Pcbnew,(5.1.2)-2
FMAT,2
METRIC
T1C0.400
T2C0.500
T3C1.000
T4C1.016
T5C1.321
T6C2.700
T7C3.200
%
G90
G05
T1
X43.725Y-192.94
X43.725Y-195.38
X43.725Y-197.795
X43.87Y-227.59
X45.66Y-211.66
X46.595Y-212.82
X47.32Y-210.56
X47.4Y-232.95
X47.725Y-223.65
X48.17Y-208.75
X48.87Y-166.57
X48.87Y-174.51
X51.325Y-223.425
X51.34Y-174.31
X51.9Y-163.89
X52.66Y-166.59
X54.87Y-171.67
X54.98Y-235.03
X55.83Y-167.82
X58.48Y-171.51
X62.42Y-166.44
X62.95Y-239.02
X64.37Y-229.12
X65.05Y-230.26
X65.17Y-163.98
X65.675Y-233.75
X66.33Y-176.47
X70.41Y-236.3
X72.57Y-232.97
X74.6Y-169.85
X75.11Y-221.85
X78.73Y-225.47
X86.98Y-170.06
X89.18Y-170.15
X91.2Y-170.49
X91.6Y-235.97
X96.6Y-168.64
X97.85Y-168.71
X99.64Y-196.86
X102.07Y-193.06
X109.4Y-222.88
X111.47Y-225.88
X111.68Y-220.4
T2
X68.66Y-165.18
X69.91Y-165.18
X71.16Y-165.18
X72.41Y-165.18
X107.83Y-236.31
X109.08Y-236.31
X110.33Y-236.31
X111.58Y-236.31
X95.35Y-165.2
X96.6Y-165.2
X97.85Y-165.2
X99.1Y-165.2
X114.87Y-216.54
X114.87Y-217.79
X114.87Y-219.04
X114.87Y-220.29
X114.87Y-221.54
X114.87Y-222.79
X114.86Y-176.82
X114.86Y-178.07
X114.86Y-179.32
X114.86Y-180.57
X76.78Y-165.2
X78.03Y-165.2
X79.28Y-165.2
X80.53Y-165.2
X81.78Y-165.2
X83.03Y-165.2
X107.55Y-165.18
X108.8Y-165.18
X110.05Y-165.18
X111.3Y-165.18
X87.29Y-165.19
X88.54Y-165.19
X89.79Y-165.19
X91.04Y-165.19
T3
X55.02Y-199.09
X55.02Y-201.63
X57.56Y-199.09
X57.56Y-201.63
X60.1Y-199.09
X60.1Y-201.63
X62.64Y-199.09
X62.64Y-201.63
X65.18Y-199.09
X65.18Y-201.63
X67.72Y-199.09
X67.72Y-201.63
X70.26Y-199.09
X70.26Y-201.63
X72.8Y-199.09
X72.8Y-201.63
X75.34Y-199.09
X75.34Y-201.63
X77.88Y-199.09
X77.88Y-201.63
X80.42Y-199.09
X80.42Y-201.63
X82.96Y-199.09
X82.96Y-201.63
X85.5Y-199.09
X85.5Y-201.63
X88.04Y-199.09
X88.04Y-201.63
X90.58Y-199.09
X90.58Y-201.63
X93.12Y-199.09
X93.12Y-201.63
X95.66Y-199.09
X95.66Y-201.63
X98.2Y-199.09
X98.2Y-201.63
X100.74Y-199.09
X100.74Y-201.63
X103.28Y-199.09
X103.28Y-201.63
T4
X33.9Y-168.73
X33.9Y-171.27
X33.9Y-173.81
X33.9Y-176.35
X33.9Y-178.89
X33.9Y-181.43
X33.9Y-183.97
X33.9Y-186.51
X33.9Y-189.05
X33.9Y-191.59
X33.9Y-194.13
X33.9Y-196.67
X33.9Y-199.21
X33.9Y-201.75
X33.9Y-204.29
X33.9Y-206.83
X33.9Y-209.37
X33.9Y-211.91
X33.9Y-214.45
X33.9Y-216.99
X33.9Y-219.53
X33.9Y-222.07
X33.9Y-224.61
X33.9Y-227.15
X33.9Y-229.69
X33.9Y-232.23
X36.44Y-168.73
X36.44Y-171.27
X36.44Y-173.81
X36.44Y-176.35
X36.44Y-178.89
X36.44Y-181.43
X36.44Y-183.97
X36.44Y-186.51
X36.44Y-189.05
X36.44Y-191.59
X36.44Y-194.13
X36.44Y-196.67
X36.44Y-199.21
X36.44Y-201.75
X36.44Y-204.29
X36.44Y-206.83
X36.44Y-209.37
X36.44Y-211.91
X36.44Y-214.45
X36.44Y-216.99
X36.44Y-219.53
X36.44Y-222.07
X36.44Y-224.61
X36.44Y-227.15
X36.44Y-229.69
X36.44Y-232.23
X38.98Y-168.73
X38.98Y-171.27
X38.98Y-173.81
X38.98Y-176.35
X38.98Y-178.89
X38.98Y-181.43
X38.98Y-183.97
X38.98Y-186.51
X38.98Y-189.05
X38.98Y-191.59
X38.98Y-194.13
X38.98Y-196.67
X38.98Y-199.21
X38.98Y-201.75
X38.98Y-204.29
X38.98Y-206.83
X38.98Y-209.37
X38.98Y-211.91
X38.98Y-214.45
X38.98Y-216.99
X38.98Y-219.53
X38.98Y-222.07
X38.98Y-224.61
X38.98Y-227.15
X38.98Y-229.69
X38.98Y-232.23
X41.52Y-168.73
X41.52Y-171.27
X41.52Y-173.81
X41.52Y-176.35
X41.52Y-178.89
X41.52Y-181.43
X41.52Y-183.97
X41.52Y-186.51
X41.52Y-189.05
X41.52Y-191.59
X41.52Y-194.13
X41.52Y-196.67
X41.52Y-199.21
X41.52Y-201.75
X41.52Y-204.29
X41.52Y-206.83
X41.52Y-209.37
X41.52Y-211.91
X41.52Y-214.45
X41.52Y-216.99
X41.52Y-219.53
X41.52Y-222.07
X41.52Y-224.61
X41.52Y-227.15
X41.52Y-229.69
X41.52Y-232.23
T5
X103.44Y-164.48
T6
X50.27Y-177.52
X50.27Y-200.62
X108.37Y-200.62
X108.37Y-177.52
T7
X33.92Y-163.65
X33.92Y-237.31
X119.65Y-161.11
X119.65Y-241.12
T0
M30
