G04 #@! TF.GenerationSoftware,KiCad,Pcbnew,(5.1.2)-2*
G04 #@! TF.CreationDate,2021-12-15T08:53:20-03:00*
G04 #@! TF.ProjectId,Magnetometer_A,4d61676e-6574-46f6-9d65-7465725f412e,rev?*
G04 #@! TF.SameCoordinates,Original*
G04 #@! TF.FileFunction,Paste,Top*
G04 #@! TF.FilePolarity,Positive*
%FSLAX46Y46*%
G04 Gerber Fmt 4.6, Leading zero omitted, Abs format (unit mm)*
G04 Created by KiCad (PCBNEW (5.1.2)-2) date 2021-12-15 08:53:20*
%MOMM*%
%LPD*%
G04 APERTURE LIST*
%ADD10R,0.500000X0.600000*%
%ADD11R,0.600000X0.400000*%
%ADD12R,0.600000X0.500000*%
%ADD13R,1.100000X1.800000*%
%ADD14R,2.200000X1.000000*%
%ADD15R,1.800000X3.400000*%
%ADD16R,0.600000X1.550000*%
%ADD17R,2.000000X0.600000*%
G04 APERTURE END LIST*
D10*
X58150000Y-167900000D03*
X58150000Y-169000000D03*
X59480000Y-167900000D03*
X59480000Y-169000000D03*
X103310000Y-196660000D03*
X103310000Y-195560000D03*
D11*
X100760000Y-195830000D03*
X100760000Y-196730000D03*
X98220000Y-196792000D03*
X98220000Y-195892000D03*
D12*
X74400000Y-234900000D03*
X73300000Y-234900000D03*
X45125000Y-225575000D03*
X46225000Y-225575000D03*
D10*
X114910000Y-226560000D03*
X114910000Y-225460000D03*
D12*
X45125000Y-230975000D03*
X46225000Y-230975000D03*
X73275000Y-236400000D03*
X74375000Y-236400000D03*
X54975000Y-242075000D03*
X53875000Y-242075000D03*
D11*
X48850000Y-224000000D03*
X48850000Y-223100000D03*
X50125000Y-224025000D03*
X50125000Y-223125000D03*
X48850000Y-233350000D03*
X48850000Y-232450000D03*
X50125000Y-232450000D03*
X50125000Y-233350000D03*
X74225000Y-231900000D03*
X74225000Y-231000000D03*
X112325000Y-222800000D03*
X112325000Y-221900000D03*
D13*
X118670000Y-205350000D03*
X118670000Y-211550000D03*
X114970000Y-205350000D03*
X114970000Y-211550000D03*
D14*
X76315000Y-236405000D03*
X76315000Y-233405000D03*
D15*
X82615000Y-234155000D03*
D14*
X76315000Y-234905000D03*
X76315000Y-231905000D03*
D16*
X47570000Y-225575000D03*
X48840000Y-225575000D03*
X50110000Y-225575000D03*
X51380000Y-225575000D03*
X51380000Y-230975000D03*
X50110000Y-230975000D03*
X48840000Y-230975000D03*
X47570000Y-230975000D03*
D17*
X58620000Y-241000000D03*
X58620000Y-239730000D03*
X58620000Y-238460000D03*
X58620000Y-237190000D03*
X58620000Y-235920000D03*
X58620000Y-234650000D03*
X58620000Y-233380000D03*
X58620000Y-232110000D03*
X58620000Y-230840000D03*
X68020000Y-230840000D03*
X68020000Y-232110000D03*
X68020000Y-233380000D03*
X68020000Y-234650000D03*
X68020000Y-235920000D03*
X68020000Y-237190000D03*
X68020000Y-238460000D03*
X68020000Y-239730000D03*
X68020000Y-241000000D03*
M02*
