G04 #@! TF.GenerationSoftware,KiCad,Pcbnew,(5.1.2)-2*
G04 #@! TF.CreationDate,2021-11-10T11:28:23-03:00*
G04 #@! TF.ProjectId,MAG_Plus,4d41475f-506c-4757-932e-6b696361645f,rev?*
G04 #@! TF.SameCoordinates,Original*
G04 #@! TF.FileFunction,Legend,Bot*
G04 #@! TF.FilePolarity,Positive*
%FSLAX46Y46*%
G04 Gerber Fmt 4.6, Leading zero omitted, Abs format (unit mm)*
G04 Created by KiCad (PCBNEW (5.1.2)-2) date 2021-11-10 11:28:23*
%MOMM*%
%LPD*%
G04 APERTURE LIST*
%ADD10C,0.010000*%
G04 APERTURE END LIST*
D10*
G36*
X156507200Y-180512000D02*
G01*
X156558000Y-180562800D01*
X156608800Y-180512000D01*
X156558000Y-180461200D01*
X156507200Y-180512000D01*
X156507200Y-180512000D01*
G37*
X156507200Y-180512000D02*
X156558000Y-180562800D01*
X156608800Y-180512000D01*
X156558000Y-180461200D01*
X156507200Y-180512000D01*
G36*
X161591335Y-173219752D02*
G01*
X161587200Y-173247600D01*
X161621865Y-173346558D01*
X161632004Y-173349200D01*
X161718747Y-173278005D01*
X161739600Y-173247600D01*
X161731545Y-173153977D01*
X161694797Y-173146000D01*
X161591335Y-173219752D01*
X161591335Y-173219752D01*
G37*
X161591335Y-173219752D02*
X161587200Y-173247600D01*
X161621865Y-173346558D01*
X161632004Y-173349200D01*
X161718747Y-173278005D01*
X161739600Y-173247600D01*
X161731545Y-173153977D01*
X161694797Y-173146000D01*
X161591335Y-173219752D01*
G36*
X163865749Y-176174932D02*
G01*
X163856267Y-176244800D01*
X163902119Y-176380131D01*
X163940934Y-176397200D01*
X164016118Y-176314667D01*
X164025600Y-176244800D01*
X163979749Y-176109468D01*
X163940934Y-176092400D01*
X163865749Y-176174932D01*
X163865749Y-176174932D01*
G37*
X163865749Y-176174932D02*
X163856267Y-176244800D01*
X163902119Y-176380131D01*
X163940934Y-176397200D01*
X164016118Y-176314667D01*
X164025600Y-176244800D01*
X163979749Y-176109468D01*
X163940934Y-176092400D01*
X163865749Y-176174932D01*
G36*
X164266515Y-176257527D02*
G01*
X164228800Y-176346400D01*
X164313504Y-176470513D01*
X164432000Y-176498800D01*
X164597486Y-176435272D01*
X164635200Y-176346400D01*
X164550497Y-176222286D01*
X164432000Y-176194000D01*
X164266515Y-176257527D01*
X164266515Y-176257527D01*
G37*
X164266515Y-176257527D02*
X164228800Y-176346400D01*
X164313504Y-176470513D01*
X164432000Y-176498800D01*
X164597486Y-176435272D01*
X164635200Y-176346400D01*
X164550497Y-176222286D01*
X164432000Y-176194000D01*
X164266515Y-176257527D01*
G36*
X166362400Y-176448000D02*
G01*
X166413200Y-176498800D01*
X166464000Y-176448000D01*
X166413200Y-176397200D01*
X166362400Y-176448000D01*
X166362400Y-176448000D01*
G37*
X166362400Y-176448000D02*
X166413200Y-176498800D01*
X166464000Y-176448000D01*
X166413200Y-176397200D01*
X166362400Y-176448000D01*
G36*
X160238581Y-176063565D02*
G01*
X160190476Y-176264938D01*
X160187865Y-176469783D01*
X160238604Y-176592434D01*
X160264787Y-176600400D01*
X160369269Y-176519295D01*
X160380967Y-176473400D01*
X160402106Y-176271077D01*
X160417479Y-176126471D01*
X160394189Y-175967414D01*
X160324321Y-175951326D01*
X160238581Y-176063565D01*
X160238581Y-176063565D01*
G37*
X160238581Y-176063565D02*
X160190476Y-176264938D01*
X160187865Y-176469783D01*
X160238604Y-176592434D01*
X160264787Y-176600400D01*
X160369269Y-176519295D01*
X160380967Y-176473400D01*
X160402106Y-176271077D01*
X160417479Y-176126471D01*
X160394189Y-175967414D01*
X160324321Y-175951326D01*
X160238581Y-176063565D01*
G36*
X162914877Y-175865735D02*
G01*
X162827753Y-175950883D01*
X162676080Y-175936462D01*
X162429563Y-175921389D01*
X162105660Y-175956352D01*
X162020207Y-175973510D01*
X161716121Y-176019842D01*
X161567708Y-175981912D01*
X161548949Y-175953582D01*
X161507073Y-175934641D01*
X161493622Y-176016200D01*
X161403527Y-176166607D01*
X161307800Y-176192444D01*
X161190148Y-176175664D01*
X161262938Y-176105127D01*
X161282400Y-176092400D01*
X161362191Y-176018288D01*
X161261281Y-175993485D01*
X161206200Y-175992355D01*
X161027819Y-176029386D01*
X160977600Y-176092400D01*
X160896119Y-176184343D01*
X160836071Y-176194000D01*
X160713998Y-176252613D01*
X160622868Y-176375447D01*
X160609863Y-176482986D01*
X160650589Y-176506573D01*
X160807739Y-176529447D01*
X160876000Y-176540918D01*
X161050300Y-176536817D01*
X161354710Y-176499892D01*
X161688444Y-176444343D01*
X162041414Y-176385381D01*
X162317434Y-176351895D01*
X162450444Y-176350568D01*
X162606451Y-176379443D01*
X162882508Y-176418374D01*
X163023976Y-176435915D01*
X163311071Y-176462555D01*
X163455697Y-176434065D01*
X163516770Y-176322416D01*
X163539780Y-176190545D01*
X163546577Y-175979548D01*
X163501533Y-175889250D01*
X163500004Y-175889200D01*
X163425406Y-175971741D01*
X163416000Y-176041600D01*
X163357789Y-176175782D01*
X163224378Y-176172198D01*
X163077607Y-176043117D01*
X163032003Y-175965400D01*
X162949717Y-175839863D01*
X162914877Y-175865735D01*
X162914877Y-175865735D01*
G37*
X162914877Y-175865735D02*
X162827753Y-175950883D01*
X162676080Y-175936462D01*
X162429563Y-175921389D01*
X162105660Y-175956352D01*
X162020207Y-175973510D01*
X161716121Y-176019842D01*
X161567708Y-175981912D01*
X161548949Y-175953582D01*
X161507073Y-175934641D01*
X161493622Y-176016200D01*
X161403527Y-176166607D01*
X161307800Y-176192444D01*
X161190148Y-176175664D01*
X161262938Y-176105127D01*
X161282400Y-176092400D01*
X161362191Y-176018288D01*
X161261281Y-175993485D01*
X161206200Y-175992355D01*
X161027819Y-176029386D01*
X160977600Y-176092400D01*
X160896119Y-176184343D01*
X160836071Y-176194000D01*
X160713998Y-176252613D01*
X160622868Y-176375447D01*
X160609863Y-176482986D01*
X160650589Y-176506573D01*
X160807739Y-176529447D01*
X160876000Y-176540918D01*
X161050300Y-176536817D01*
X161354710Y-176499892D01*
X161688444Y-176444343D01*
X162041414Y-176385381D01*
X162317434Y-176351895D01*
X162450444Y-176350568D01*
X162606451Y-176379443D01*
X162882508Y-176418374D01*
X163023976Y-176435915D01*
X163311071Y-176462555D01*
X163455697Y-176434065D01*
X163516770Y-176322416D01*
X163539780Y-176190545D01*
X163546577Y-175979548D01*
X163501533Y-175889250D01*
X163500004Y-175889200D01*
X163425406Y-175971741D01*
X163416000Y-176041600D01*
X163357789Y-176175782D01*
X163224378Y-176172198D01*
X163077607Y-176043117D01*
X163032003Y-175965400D01*
X162949717Y-175839863D01*
X162914877Y-175865735D01*
G36*
X163449867Y-176735866D02*
G01*
X163463814Y-176796267D01*
X163517600Y-176803600D01*
X163601229Y-176766426D01*
X163585334Y-176735866D01*
X163464758Y-176723707D01*
X163449867Y-176735866D01*
X163449867Y-176735866D01*
G37*
X163449867Y-176735866D02*
X163463814Y-176796267D01*
X163517600Y-176803600D01*
X163601229Y-176766426D01*
X163585334Y-176735866D01*
X163464758Y-176723707D01*
X163449867Y-176735866D01*
G36*
X160977600Y-176854400D02*
G01*
X161028400Y-176905200D01*
X161079200Y-176854400D01*
X161028400Y-176803600D01*
X160977600Y-176854400D01*
X160977600Y-176854400D01*
G37*
X160977600Y-176854400D02*
X161028400Y-176905200D01*
X161079200Y-176854400D01*
X161028400Y-176803600D01*
X160977600Y-176854400D01*
G36*
X163811411Y-176724763D02*
G01*
X163807160Y-176752800D01*
X163886258Y-176871929D01*
X163916380Y-176885726D01*
X164009023Y-176836682D01*
X164025600Y-176752800D01*
X163974049Y-176626351D01*
X163916380Y-176619873D01*
X163811411Y-176724763D01*
X163811411Y-176724763D01*
G37*
X163811411Y-176724763D02*
X163807160Y-176752800D01*
X163886258Y-176871929D01*
X163916380Y-176885726D01*
X164009023Y-176836682D01*
X164025600Y-176752800D01*
X163974049Y-176626351D01*
X163916380Y-176619873D01*
X163811411Y-176724763D01*
G36*
X164951463Y-176682691D02*
G01*
X164940000Y-176752800D01*
X164994862Y-176888006D01*
X165041600Y-176905200D01*
X165131738Y-176822908D01*
X165143200Y-176752800D01*
X165088339Y-176617593D01*
X165041600Y-176600400D01*
X164951463Y-176682691D01*
X164951463Y-176682691D01*
G37*
X164951463Y-176682691D02*
X164940000Y-176752800D01*
X164994862Y-176888006D01*
X165041600Y-176905200D01*
X165131738Y-176822908D01*
X165143200Y-176752800D01*
X165088339Y-176617593D01*
X165041600Y-176600400D01*
X164951463Y-176682691D01*
G36*
X166237428Y-176848973D02*
G01*
X166173666Y-177026180D01*
X166247577Y-177063041D01*
X166352959Y-177012634D01*
X166433697Y-176873738D01*
X166412157Y-176801912D01*
X166325366Y-176743064D01*
X166237428Y-176848973D01*
X166237428Y-176848973D01*
G37*
X166237428Y-176848973D02*
X166173666Y-177026180D01*
X166247577Y-177063041D01*
X166352959Y-177012634D01*
X166433697Y-176873738D01*
X166412157Y-176801912D01*
X166325366Y-176743064D01*
X166237428Y-176848973D01*
G36*
X164872267Y-177142266D02*
G01*
X164886214Y-177202667D01*
X164940000Y-177210000D01*
X165023629Y-177172826D01*
X165007734Y-177142266D01*
X164887158Y-177130107D01*
X164872267Y-177142266D01*
X164872267Y-177142266D01*
G37*
X164872267Y-177142266D02*
X164886214Y-177202667D01*
X164940000Y-177210000D01*
X165023629Y-177172826D01*
X165007734Y-177142266D01*
X164887158Y-177130107D01*
X164872267Y-177142266D01*
G36*
X164464196Y-177089350D02*
G01*
X164452084Y-177248138D01*
X164472217Y-177284083D01*
X164518396Y-177253782D01*
X164525579Y-177150733D01*
X164500767Y-177042322D01*
X164464196Y-177089350D01*
X164464196Y-177089350D01*
G37*
X164464196Y-177089350D02*
X164452084Y-177248138D01*
X164472217Y-177284083D01*
X164518396Y-177253782D01*
X164525579Y-177150733D01*
X164500767Y-177042322D01*
X164464196Y-177089350D01*
G36*
X165373014Y-177048420D02*
G01*
X165368441Y-177052492D01*
X165403319Y-177142523D01*
X165541134Y-177303133D01*
X165757747Y-177464168D01*
X165939992Y-177509800D01*
X166038622Y-177435959D01*
X166039650Y-177344306D01*
X165938558Y-177222551D01*
X165736226Y-177107641D01*
X165518947Y-177037092D01*
X165373014Y-177048420D01*
X165373014Y-177048420D01*
G37*
X165373014Y-177048420D02*
X165368441Y-177052492D01*
X165403319Y-177142523D01*
X165541134Y-177303133D01*
X165757747Y-177464168D01*
X165939992Y-177509800D01*
X166038622Y-177435959D01*
X166039650Y-177344306D01*
X165938558Y-177222551D01*
X165736226Y-177107641D01*
X165518947Y-177037092D01*
X165373014Y-177048420D01*
G36*
X165373917Y-177555016D02*
G01*
X165404218Y-177601195D01*
X165507267Y-177608378D01*
X165615678Y-177583566D01*
X165568650Y-177546995D01*
X165409862Y-177534883D01*
X165373917Y-177555016D01*
X165373917Y-177555016D01*
G37*
X165373917Y-177555016D02*
X165404218Y-177601195D01*
X165507267Y-177608378D01*
X165615678Y-177583566D01*
X165568650Y-177546995D01*
X165409862Y-177534883D01*
X165373917Y-177555016D01*
G36*
X159829201Y-176785305D02*
G01*
X159793215Y-176825377D01*
X159672430Y-176973133D01*
X159706375Y-177011953D01*
X159893408Y-176983338D01*
X160132586Y-176981992D01*
X160241346Y-177095558D01*
X160363716Y-177284264D01*
X160427090Y-177336760D01*
X160508728Y-177485026D01*
X160502100Y-177604694D01*
X160509423Y-177794222D01*
X160562349Y-177864929D01*
X160651162Y-177842648D01*
X160672800Y-177723996D01*
X160714253Y-177555670D01*
X160774400Y-177514800D01*
X160864538Y-177432508D01*
X160876000Y-177362400D01*
X160821139Y-177227193D01*
X160774400Y-177210000D01*
X160678326Y-177129551D01*
X160670301Y-177083000D01*
X160585667Y-176959207D01*
X160379655Y-176814449D01*
X160324115Y-176785196D01*
X160092115Y-176681163D01*
X159955217Y-176679074D01*
X159829201Y-176785305D01*
X159829201Y-176785305D01*
G37*
X159829201Y-176785305D02*
X159793215Y-176825377D01*
X159672430Y-176973133D01*
X159706375Y-177011953D01*
X159893408Y-176983338D01*
X160132586Y-176981992D01*
X160241346Y-177095558D01*
X160363716Y-177284264D01*
X160427090Y-177336760D01*
X160508728Y-177485026D01*
X160502100Y-177604694D01*
X160509423Y-177794222D01*
X160562349Y-177864929D01*
X160651162Y-177842648D01*
X160672800Y-177723996D01*
X160714253Y-177555670D01*
X160774400Y-177514800D01*
X160864538Y-177432508D01*
X160876000Y-177362400D01*
X160821139Y-177227193D01*
X160774400Y-177210000D01*
X160678326Y-177129551D01*
X160670301Y-177083000D01*
X160585667Y-176959207D01*
X160379655Y-176814449D01*
X160324115Y-176785196D01*
X160092115Y-176681163D01*
X159955217Y-176679074D01*
X159829201Y-176785305D01*
G36*
X161094914Y-177063804D02*
G01*
X161108664Y-177182789D01*
X161237440Y-177277099D01*
X161349545Y-177391169D01*
X161347080Y-177464466D01*
X161392726Y-177591567D01*
X161564543Y-177712335D01*
X161735474Y-177810987D01*
X161731936Y-177890235D01*
X161683502Y-177926624D01*
X161666078Y-177984084D01*
X161842128Y-178014901D01*
X162069800Y-178021244D01*
X162427631Y-177999761D01*
X162592027Y-177931922D01*
X162604756Y-177895800D01*
X162672230Y-177666551D01*
X162832105Y-177560029D01*
X162941523Y-177573028D01*
X163091214Y-177702140D01*
X163078850Y-177857810D01*
X162933400Y-177952764D01*
X162827939Y-177989011D01*
X162917307Y-178001996D01*
X162958800Y-178002993D01*
X163193204Y-177981592D01*
X163289000Y-177955512D01*
X163407057Y-177823734D01*
X163416000Y-177771203D01*
X163495212Y-177617776D01*
X163690272Y-177569782D01*
X163937322Y-177637811D01*
X163999978Y-177674353D01*
X164227698Y-177775667D01*
X164357526Y-177731514D01*
X164367308Y-177604122D01*
X164244481Y-177441264D01*
X164041654Y-177291050D01*
X163811436Y-177201588D01*
X163771600Y-177195696D01*
X163039063Y-177129024D01*
X162456114Y-177095506D01*
X162035264Y-177095120D01*
X161789028Y-177127842D01*
X161729916Y-177193651D01*
X161733021Y-177199353D01*
X161706843Y-177307591D01*
X161642618Y-177346569D01*
X161495332Y-177313658D01*
X161433155Y-177204815D01*
X161319662Y-177042838D01*
X161224754Y-177006800D01*
X161094914Y-177063804D01*
X161094914Y-177063804D01*
G37*
X161094914Y-177063804D02*
X161108664Y-177182789D01*
X161237440Y-177277099D01*
X161349545Y-177391169D01*
X161347080Y-177464466D01*
X161392726Y-177591567D01*
X161564543Y-177712335D01*
X161735474Y-177810987D01*
X161731936Y-177890235D01*
X161683502Y-177926624D01*
X161666078Y-177984084D01*
X161842128Y-178014901D01*
X162069800Y-178021244D01*
X162427631Y-177999761D01*
X162592027Y-177931922D01*
X162604756Y-177895800D01*
X162672230Y-177666551D01*
X162832105Y-177560029D01*
X162941523Y-177573028D01*
X163091214Y-177702140D01*
X163078850Y-177857810D01*
X162933400Y-177952764D01*
X162827939Y-177989011D01*
X162917307Y-178001996D01*
X162958800Y-178002993D01*
X163193204Y-177981592D01*
X163289000Y-177955512D01*
X163407057Y-177823734D01*
X163416000Y-177771203D01*
X163495212Y-177617776D01*
X163690272Y-177569782D01*
X163937322Y-177637811D01*
X163999978Y-177674353D01*
X164227698Y-177775667D01*
X164357526Y-177731514D01*
X164367308Y-177604122D01*
X164244481Y-177441264D01*
X164041654Y-177291050D01*
X163811436Y-177201588D01*
X163771600Y-177195696D01*
X163039063Y-177129024D01*
X162456114Y-177095506D01*
X162035264Y-177095120D01*
X161789028Y-177127842D01*
X161729916Y-177193651D01*
X161733021Y-177199353D01*
X161706843Y-177307591D01*
X161642618Y-177346569D01*
X161495332Y-177313658D01*
X161433155Y-177204815D01*
X161319662Y-177042838D01*
X161224754Y-177006800D01*
X161094914Y-177063804D01*
G36*
X161035058Y-177645925D02*
G01*
X160931929Y-177784115D01*
X160855253Y-177961238D01*
X160847373Y-178094743D01*
X160942352Y-178219703D01*
X161039399Y-178157227D01*
X161109184Y-177946600D01*
X161134708Y-177729182D01*
X161119979Y-177623816D01*
X161035058Y-177645925D01*
X161035058Y-177645925D01*
G37*
X161035058Y-177645925D02*
X160931929Y-177784115D01*
X160855253Y-177961238D01*
X160847373Y-178094743D01*
X160942352Y-178219703D01*
X161039399Y-178157227D01*
X161109184Y-177946600D01*
X161134708Y-177729182D01*
X161119979Y-177623816D01*
X161035058Y-177645925D01*
G36*
X160172651Y-178084397D02*
G01*
X160154789Y-178149800D01*
X160138690Y-178498704D01*
X160177662Y-178742157D01*
X160301467Y-178958298D01*
X160539865Y-179225264D01*
X160580460Y-179267400D01*
X160901143Y-179570878D01*
X161127867Y-179724238D01*
X161251211Y-179723276D01*
X161263412Y-179572200D01*
X161147462Y-179418630D01*
X161001963Y-179361933D01*
X160819080Y-179269605D01*
X160780732Y-179113365D01*
X160886739Y-178981363D01*
X160903762Y-178870864D01*
X160875106Y-178835600D01*
X160672800Y-178835600D01*
X160595485Y-178934247D01*
X160571200Y-178937200D01*
X160472553Y-178859884D01*
X160469600Y-178835600D01*
X160546916Y-178736952D01*
X160571200Y-178734000D01*
X160669848Y-178811315D01*
X160672800Y-178835600D01*
X160875106Y-178835600D01*
X160748247Y-178679493D01*
X160734339Y-178666455D01*
X160554483Y-178446359D01*
X160470432Y-178238457D01*
X160469600Y-178221888D01*
X160407650Y-178074565D01*
X160279712Y-178022104D01*
X160172651Y-178084397D01*
X160172651Y-178084397D01*
G37*
X160172651Y-178084397D02*
X160154789Y-178149800D01*
X160138690Y-178498704D01*
X160177662Y-178742157D01*
X160301467Y-178958298D01*
X160539865Y-179225264D01*
X160580460Y-179267400D01*
X160901143Y-179570878D01*
X161127867Y-179724238D01*
X161251211Y-179723276D01*
X161263412Y-179572200D01*
X161147462Y-179418630D01*
X161001963Y-179361933D01*
X160819080Y-179269605D01*
X160780732Y-179113365D01*
X160886739Y-178981363D01*
X160903762Y-178870864D01*
X160875106Y-178835600D01*
X160672800Y-178835600D01*
X160595485Y-178934247D01*
X160571200Y-178937200D01*
X160472553Y-178859884D01*
X160469600Y-178835600D01*
X160546916Y-178736952D01*
X160571200Y-178734000D01*
X160669848Y-178811315D01*
X160672800Y-178835600D01*
X160875106Y-178835600D01*
X160748247Y-178679493D01*
X160734339Y-178666455D01*
X160554483Y-178446359D01*
X160470432Y-178238457D01*
X160469600Y-178221888D01*
X160407650Y-178074565D01*
X160279712Y-178022104D01*
X160172651Y-178084397D01*
G36*
X167189821Y-179519032D02*
G01*
X167175200Y-179591603D01*
X167228246Y-179730614D01*
X167276800Y-179750000D01*
X167375492Y-179677078D01*
X167378400Y-179654396D01*
X167304548Y-179516795D01*
X167276800Y-179496000D01*
X167189821Y-179519032D01*
X167189821Y-179519032D01*
G37*
X167189821Y-179519032D02*
X167175200Y-179591603D01*
X167228246Y-179730614D01*
X167276800Y-179750000D01*
X167375492Y-179677078D01*
X167378400Y-179654396D01*
X167304548Y-179516795D01*
X167276800Y-179496000D01*
X167189821Y-179519032D01*
G36*
X164356159Y-177957227D02*
G01*
X164084183Y-177989119D01*
X163965778Y-178080121D01*
X163950191Y-178147558D01*
X163994804Y-178304116D01*
X164057315Y-178337727D01*
X164070109Y-178366839D01*
X163944905Y-178413927D01*
X163785149Y-178478344D01*
X163793531Y-178578171D01*
X163868955Y-178683200D01*
X164026099Y-178886400D01*
X163962549Y-178683200D01*
X163928763Y-178553482D01*
X163972977Y-178582358D01*
X164063878Y-178700344D01*
X164162945Y-178925906D01*
X164147852Y-179128896D01*
X164028424Y-179237918D01*
X163989330Y-179242201D01*
X163901491Y-179330853D01*
X163852101Y-179544068D01*
X163851891Y-179547001D01*
X163869663Y-179773613D01*
X163942512Y-179850571D01*
X164038104Y-179754492D01*
X164062342Y-179699200D01*
X164191169Y-179564155D01*
X164263971Y-179546800D01*
X164467399Y-179462795D01*
X164608390Y-179204406D01*
X164691372Y-178762069D01*
X164705555Y-178592985D01*
X164748566Y-177946938D01*
X164356159Y-177957227D01*
X164356159Y-177957227D01*
G37*
X164356159Y-177957227D02*
X164084183Y-177989119D01*
X163965778Y-178080121D01*
X163950191Y-178147558D01*
X163994804Y-178304116D01*
X164057315Y-178337727D01*
X164070109Y-178366839D01*
X163944905Y-178413927D01*
X163785149Y-178478344D01*
X163793531Y-178578171D01*
X163868955Y-178683200D01*
X164026099Y-178886400D01*
X163962549Y-178683200D01*
X163928763Y-178553482D01*
X163972977Y-178582358D01*
X164063878Y-178700344D01*
X164162945Y-178925906D01*
X164147852Y-179128896D01*
X164028424Y-179237918D01*
X163989330Y-179242201D01*
X163901491Y-179330853D01*
X163852101Y-179544068D01*
X163851891Y-179547001D01*
X163869663Y-179773613D01*
X163942512Y-179850571D01*
X164038104Y-179754492D01*
X164062342Y-179699200D01*
X164191169Y-179564155D01*
X164263971Y-179546800D01*
X164467399Y-179462795D01*
X164608390Y-179204406D01*
X164691372Y-178762069D01*
X164705555Y-178592985D01*
X164748566Y-177946938D01*
X164356159Y-177957227D01*
G36*
X161851133Y-179621533D02*
G01*
X161787490Y-179789795D01*
X161880205Y-179925180D01*
X161993600Y-179953200D01*
X162158381Y-179894236D01*
X162196800Y-179811670D01*
X162123239Y-179666687D01*
X161969918Y-179590112D01*
X161851133Y-179621533D01*
X161851133Y-179621533D01*
G37*
X161851133Y-179621533D02*
X161787490Y-179789795D01*
X161880205Y-179925180D01*
X161993600Y-179953200D01*
X162158381Y-179894236D01*
X162196800Y-179811670D01*
X162123239Y-179666687D01*
X161969918Y-179590112D01*
X161851133Y-179621533D01*
G36*
X167389274Y-177461753D02*
G01*
X167297120Y-177535120D01*
X167151963Y-177601701D01*
X167063321Y-177545160D01*
X166889548Y-177492258D01*
X166633519Y-177523798D01*
X166386492Y-177618472D01*
X166250287Y-177735010D01*
X166150802Y-177805917D01*
X166028024Y-177735614D01*
X165880436Y-177672072D01*
X165747414Y-177775290D01*
X165664847Y-177919395D01*
X165739902Y-178014787D01*
X165745430Y-178018244D01*
X165823874Y-178097808D01*
X165749728Y-178142357D01*
X165673641Y-178218986D01*
X165732195Y-178390594D01*
X165738231Y-178401977D01*
X165825921Y-178669262D01*
X165854400Y-178918080D01*
X165903002Y-179177537D01*
X166005682Y-179342671D01*
X166107035Y-179484461D01*
X166103127Y-179555333D01*
X166146458Y-179639868D01*
X166307445Y-179707235D01*
X166499585Y-179785707D01*
X166565600Y-179862614D01*
X166650792Y-179936244D01*
X166768800Y-179953200D01*
X166934186Y-179936711D01*
X166972000Y-179914013D01*
X166933038Y-179797909D01*
X166843330Y-179625035D01*
X166743641Y-179464299D01*
X166674738Y-179384610D01*
X166664595Y-179394400D01*
X166612550Y-179405098D01*
X166513757Y-179301772D01*
X166416745Y-179039231D01*
X166425648Y-178872975D01*
X166403992Y-178595876D01*
X166322062Y-178475947D01*
X166215635Y-178291738D01*
X166264577Y-178117344D01*
X166402578Y-177959491D01*
X166500665Y-177921200D01*
X166669615Y-177997354D01*
X166867886Y-178176457D01*
X167024968Y-178384472D01*
X167073600Y-178522818D01*
X167145115Y-178607564D01*
X167234310Y-178592470D01*
X167424067Y-178537766D01*
X167482476Y-178530800D01*
X167538987Y-178449107D01*
X167534024Y-178344340D01*
X167547738Y-178098016D01*
X167670825Y-177956306D01*
X167833438Y-177957111D01*
X167951238Y-178066688D01*
X167945230Y-178290577D01*
X167941664Y-178307277D01*
X167916526Y-178497387D01*
X167989438Y-178578700D01*
X168210787Y-178601280D01*
X168238373Y-178602105D01*
X168479075Y-178592283D01*
X168578588Y-178513929D01*
X168597600Y-178334767D01*
X168549490Y-178123630D01*
X168380458Y-177917867D01*
X168149191Y-177735223D01*
X167807748Y-177513545D01*
X167568352Y-177425655D01*
X167389274Y-177461753D01*
X167389274Y-177461753D01*
G37*
X167389274Y-177461753D02*
X167297120Y-177535120D01*
X167151963Y-177601701D01*
X167063321Y-177545160D01*
X166889548Y-177492258D01*
X166633519Y-177523798D01*
X166386492Y-177618472D01*
X166250287Y-177735010D01*
X166150802Y-177805917D01*
X166028024Y-177735614D01*
X165880436Y-177672072D01*
X165747414Y-177775290D01*
X165664847Y-177919395D01*
X165739902Y-178014787D01*
X165745430Y-178018244D01*
X165823874Y-178097808D01*
X165749728Y-178142357D01*
X165673641Y-178218986D01*
X165732195Y-178390594D01*
X165738231Y-178401977D01*
X165825921Y-178669262D01*
X165854400Y-178918080D01*
X165903002Y-179177537D01*
X166005682Y-179342671D01*
X166107035Y-179484461D01*
X166103127Y-179555333D01*
X166146458Y-179639868D01*
X166307445Y-179707235D01*
X166499585Y-179785707D01*
X166565600Y-179862614D01*
X166650792Y-179936244D01*
X166768800Y-179953200D01*
X166934186Y-179936711D01*
X166972000Y-179914013D01*
X166933038Y-179797909D01*
X166843330Y-179625035D01*
X166743641Y-179464299D01*
X166674738Y-179384610D01*
X166664595Y-179394400D01*
X166612550Y-179405098D01*
X166513757Y-179301772D01*
X166416745Y-179039231D01*
X166425648Y-178872975D01*
X166403992Y-178595876D01*
X166322062Y-178475947D01*
X166215635Y-178291738D01*
X166264577Y-178117344D01*
X166402578Y-177959491D01*
X166500665Y-177921200D01*
X166669615Y-177997354D01*
X166867886Y-178176457D01*
X167024968Y-178384472D01*
X167073600Y-178522818D01*
X167145115Y-178607564D01*
X167234310Y-178592470D01*
X167424067Y-178537766D01*
X167482476Y-178530800D01*
X167538987Y-178449107D01*
X167534024Y-178344340D01*
X167547738Y-178098016D01*
X167670825Y-177956306D01*
X167833438Y-177957111D01*
X167951238Y-178066688D01*
X167945230Y-178290577D01*
X167941664Y-178307277D01*
X167916526Y-178497387D01*
X167989438Y-178578700D01*
X168210787Y-178601280D01*
X168238373Y-178602105D01*
X168479075Y-178592283D01*
X168578588Y-178513929D01*
X168597600Y-178334767D01*
X168549490Y-178123630D01*
X168380458Y-177917867D01*
X168149191Y-177735223D01*
X167807748Y-177513545D01*
X167568352Y-177425655D01*
X167389274Y-177461753D01*
G36*
X161386953Y-179928915D02*
G01*
X161384000Y-179953200D01*
X161461316Y-180051847D01*
X161485600Y-180054800D01*
X161584248Y-179977484D01*
X161587200Y-179953200D01*
X161509885Y-179854552D01*
X161485600Y-179851600D01*
X161386953Y-179928915D01*
X161386953Y-179928915D01*
G37*
X161386953Y-179928915D02*
X161384000Y-179953200D01*
X161461316Y-180051847D01*
X161485600Y-180054800D01*
X161584248Y-179977484D01*
X161587200Y-179953200D01*
X161509885Y-179854552D01*
X161485600Y-179851600D01*
X161386953Y-179928915D01*
G36*
X162315547Y-179801679D02*
G01*
X162298400Y-179845603D01*
X162365625Y-179978275D01*
X162495931Y-180010046D01*
X162538229Y-179984304D01*
X162600035Y-179836820D01*
X162491290Y-179752948D01*
X162450800Y-179750000D01*
X162315547Y-179801679D01*
X162315547Y-179801679D01*
G37*
X162315547Y-179801679D02*
X162298400Y-179845603D01*
X162365625Y-179978275D01*
X162495931Y-180010046D01*
X162538229Y-179984304D01*
X162600035Y-179836820D01*
X162491290Y-179752948D01*
X162450800Y-179750000D01*
X162315547Y-179801679D01*
G36*
X162809353Y-180030515D02*
G01*
X162806400Y-180054800D01*
X162883716Y-180153447D01*
X162908000Y-180156400D01*
X163006648Y-180079084D01*
X163009600Y-180054800D01*
X162932285Y-179956152D01*
X162908000Y-179953200D01*
X162809353Y-180030515D01*
X162809353Y-180030515D01*
G37*
X162809353Y-180030515D02*
X162806400Y-180054800D01*
X162883716Y-180153447D01*
X162908000Y-180156400D01*
X163006648Y-180079084D01*
X163009600Y-180054800D01*
X162932285Y-179956152D01*
X162908000Y-179953200D01*
X162809353Y-180030515D01*
G36*
X162976915Y-179627535D02*
G01*
X162908000Y-179716796D01*
X162989120Y-179837689D01*
X163053143Y-179851600D01*
X163238024Y-179918516D01*
X163357943Y-180011257D01*
X163475582Y-180107357D01*
X163514466Y-180037544D01*
X163517600Y-179921188D01*
X163474417Y-179732678D01*
X163306454Y-179643820D01*
X163212800Y-179626727D01*
X162976915Y-179627535D01*
X162976915Y-179627535D01*
G37*
X162976915Y-179627535D02*
X162908000Y-179716796D01*
X162989120Y-179837689D01*
X163053143Y-179851600D01*
X163238024Y-179918516D01*
X163357943Y-180011257D01*
X163475582Y-180107357D01*
X163514466Y-180037544D01*
X163517600Y-179921188D01*
X163474417Y-179732678D01*
X163306454Y-179643820D01*
X163212800Y-179626727D01*
X162976915Y-179627535D01*
G36*
X163924000Y-180105600D02*
G01*
X163974800Y-180156400D01*
X164025600Y-180105600D01*
X163974800Y-180054800D01*
X163924000Y-180105600D01*
X163924000Y-180105600D01*
G37*
X163924000Y-180105600D02*
X163974800Y-180156400D01*
X164025600Y-180105600D01*
X163974800Y-180054800D01*
X163924000Y-180105600D01*
G36*
X164127200Y-180105600D02*
G01*
X164178000Y-180156400D01*
X164228800Y-180105600D01*
X164178000Y-180054800D01*
X164127200Y-180105600D01*
X164127200Y-180105600D01*
G37*
X164127200Y-180105600D02*
X164178000Y-180156400D01*
X164228800Y-180105600D01*
X164178000Y-180054800D01*
X164127200Y-180105600D01*
G36*
X167449701Y-179829923D02*
G01*
X167207657Y-179884926D01*
X167081552Y-179961293D01*
X167096868Y-180028168D01*
X167264027Y-180054800D01*
X167480787Y-180087466D01*
X167777538Y-180168353D01*
X167848227Y-180191988D01*
X168127160Y-180268977D01*
X168335162Y-180291193D01*
X168369000Y-180285122D01*
X168485943Y-180158553D01*
X168496000Y-180100322D01*
X168428139Y-180006776D01*
X168326934Y-180024454D01*
X168212336Y-180037645D01*
X168224149Y-179982083D01*
X168198972Y-179886341D01*
X168013019Y-179826723D01*
X167706756Y-179811178D01*
X167449701Y-179829923D01*
X167449701Y-179829923D01*
G37*
X167449701Y-179829923D02*
X167207657Y-179884926D01*
X167081552Y-179961293D01*
X167096868Y-180028168D01*
X167264027Y-180054800D01*
X167480787Y-180087466D01*
X167777538Y-180168353D01*
X167848227Y-180191988D01*
X168127160Y-180268977D01*
X168335162Y-180291193D01*
X168369000Y-180285122D01*
X168485943Y-180158553D01*
X168496000Y-180100322D01*
X168428139Y-180006776D01*
X168326934Y-180024454D01*
X168212336Y-180037645D01*
X168224149Y-179982083D01*
X168198972Y-179886341D01*
X168013019Y-179826723D01*
X167706756Y-179811178D01*
X167449701Y-179829923D01*
G36*
X164870596Y-180238950D02*
G01*
X164858484Y-180397738D01*
X164878617Y-180433683D01*
X164924796Y-180403382D01*
X164931979Y-180300333D01*
X164907167Y-180191922D01*
X164870596Y-180238950D01*
X164870596Y-180238950D01*
G37*
X164870596Y-180238950D02*
X164858484Y-180397738D01*
X164878617Y-180433683D01*
X164924796Y-180403382D01*
X164931979Y-180300333D01*
X164907167Y-180191922D01*
X164870596Y-180238950D01*
G36*
X163856267Y-180495066D02*
G01*
X163844108Y-180615642D01*
X163856267Y-180630533D01*
X163916668Y-180616586D01*
X163924000Y-180562800D01*
X163886827Y-180479171D01*
X163856267Y-180495066D01*
X163856267Y-180495066D01*
G37*
X163856267Y-180495066D02*
X163844108Y-180615642D01*
X163856267Y-180630533D01*
X163916668Y-180616586D01*
X163924000Y-180562800D01*
X163886827Y-180479171D01*
X163856267Y-180495066D01*
G36*
X166171887Y-180054152D02*
G01*
X166030648Y-180338534D01*
X165982523Y-180601033D01*
X165959276Y-180887252D01*
X165986896Y-181025530D01*
X166083698Y-181068504D01*
X166145987Y-181070800D01*
X166313887Y-181017286D01*
X166362367Y-180825005D01*
X166362400Y-180816800D01*
X166305549Y-180607183D01*
X166184600Y-180556359D01*
X166092055Y-180536352D01*
X166184614Y-180479106D01*
X166235400Y-180458033D01*
X166374807Y-180341561D01*
X166460568Y-180169324D01*
X166470162Y-180015702D01*
X166387800Y-179954755D01*
X166171887Y-180054152D01*
X166171887Y-180054152D01*
G37*
X166171887Y-180054152D02*
X166030648Y-180338534D01*
X165982523Y-180601033D01*
X165959276Y-180887252D01*
X165986896Y-181025530D01*
X166083698Y-181068504D01*
X166145987Y-181070800D01*
X166313887Y-181017286D01*
X166362367Y-180825005D01*
X166362400Y-180816800D01*
X166305549Y-180607183D01*
X166184600Y-180556359D01*
X166092055Y-180536352D01*
X166184614Y-180479106D01*
X166235400Y-180458033D01*
X166374807Y-180341561D01*
X166460568Y-180169324D01*
X166470162Y-180015702D01*
X166387800Y-179954755D01*
X166171887Y-180054152D01*
G36*
X164551237Y-180754326D02*
G01*
X164351085Y-180829368D01*
X164256204Y-180937790D01*
X164310555Y-181047504D01*
X164498108Y-181150545D01*
X164749322Y-181226639D01*
X164994654Y-181255510D01*
X165164562Y-181216883D01*
X165177067Y-181206266D01*
X165247453Y-181057247D01*
X165202748Y-180940891D01*
X165093257Y-180932130D01*
X164932162Y-180906115D01*
X164883257Y-180837946D01*
X164759197Y-180752318D01*
X164551237Y-180754326D01*
X164551237Y-180754326D01*
G37*
X164551237Y-180754326D02*
X164351085Y-180829368D01*
X164256204Y-180937790D01*
X164310555Y-181047504D01*
X164498108Y-181150545D01*
X164749322Y-181226639D01*
X164994654Y-181255510D01*
X165164562Y-181216883D01*
X165177067Y-181206266D01*
X165247453Y-181057247D01*
X165202748Y-180940891D01*
X165093257Y-180932130D01*
X164932162Y-180906115D01*
X164883257Y-180837946D01*
X164759197Y-180752318D01*
X164551237Y-180754326D01*
G36*
X165041600Y-181426400D02*
G01*
X165092400Y-181477200D01*
X165143200Y-181426400D01*
X165092400Y-181375600D01*
X165041600Y-181426400D01*
X165041600Y-181426400D01*
G37*
X165041600Y-181426400D02*
X165092400Y-181477200D01*
X165143200Y-181426400D01*
X165092400Y-181375600D01*
X165041600Y-181426400D01*
G36*
X159656800Y-182747200D02*
G01*
X159707600Y-182798000D01*
X159758400Y-182747200D01*
X159707600Y-182696400D01*
X159656800Y-182747200D01*
X159656800Y-182747200D01*
G37*
X159656800Y-182747200D02*
X159707600Y-182798000D01*
X159758400Y-182747200D01*
X159707600Y-182696400D01*
X159656800Y-182747200D01*
G36*
X164127200Y-183255200D02*
G01*
X164178000Y-183306000D01*
X164228800Y-183255200D01*
X164178000Y-183204400D01*
X164127200Y-183255200D01*
X164127200Y-183255200D01*
G37*
X164127200Y-183255200D02*
X164178000Y-183306000D01*
X164228800Y-183255200D01*
X164178000Y-183204400D01*
X164127200Y-183255200D01*
G36*
X166396267Y-183441466D02*
G01*
X166410214Y-183501867D01*
X166464000Y-183509200D01*
X166547629Y-183472026D01*
X166531734Y-183441466D01*
X166411158Y-183429307D01*
X166396267Y-183441466D01*
X166396267Y-183441466D01*
G37*
X166396267Y-183441466D02*
X166410214Y-183501867D01*
X166464000Y-183509200D01*
X166547629Y-183472026D01*
X166531734Y-183441466D01*
X166411158Y-183429307D01*
X166396267Y-183441466D01*
G36*
X165956000Y-184169600D02*
G01*
X166006800Y-184220400D01*
X166057600Y-184169600D01*
X166006800Y-184118800D01*
X165956000Y-184169600D01*
X165956000Y-184169600D01*
G37*
X165956000Y-184169600D02*
X166006800Y-184220400D01*
X166057600Y-184169600D01*
X166006800Y-184118800D01*
X165956000Y-184169600D01*
G36*
X163637253Y-168652817D02*
G01*
X163210188Y-168845014D01*
X162866888Y-169159797D01*
X162701629Y-169451060D01*
X162521547Y-169644779D01*
X162280054Y-169725639D01*
X161811338Y-169814122D01*
X161489048Y-169902155D01*
X161257721Y-170012345D01*
X161061896Y-170167293D01*
X160967875Y-170260433D01*
X160694354Y-170495489D01*
X160431015Y-170594335D01*
X160260650Y-170606000D01*
X159667316Y-170629043D01*
X159239524Y-170704777D01*
X158944172Y-170843105D01*
X158748158Y-171053931D01*
X158744624Y-171059601D01*
X158539218Y-171311759D01*
X158307722Y-171490983D01*
X158287696Y-171500776D01*
X158094213Y-171654188D01*
X158031200Y-171812151D01*
X157964957Y-172000870D01*
X157886687Y-172062114D01*
X157787279Y-172192220D01*
X157791248Y-172305229D01*
X157767164Y-172465818D01*
X157581516Y-172613172D01*
X157486636Y-172661550D01*
X157242896Y-172814592D01*
X157173727Y-172969978D01*
X157180776Y-173013505D01*
X157132934Y-173216144D01*
X156911797Y-173502248D01*
X156817101Y-173598419D01*
X156589822Y-173849818D01*
X156440374Y-174071838D01*
X156405600Y-174176623D01*
X156350372Y-174364737D01*
X156297733Y-174419873D01*
X156180749Y-174561776D01*
X156062927Y-174795449D01*
X155989536Y-175020976D01*
X155985323Y-175109386D01*
X155938116Y-175230803D01*
X155796685Y-175448325D01*
X155685783Y-175595280D01*
X155531748Y-175804558D01*
X155435093Y-175997176D01*
X155380241Y-176232108D01*
X155351616Y-176568327D01*
X155338362Y-176910582D01*
X155305502Y-177447292D01*
X155240209Y-177808974D01*
X155132194Y-178022586D01*
X154971168Y-178115090D01*
X154875156Y-178124400D01*
X154687416Y-178171760D01*
X154630343Y-178221562D01*
X154496798Y-178282559D01*
X154446547Y-178272309D01*
X154319042Y-178319784D01*
X154145702Y-178494172D01*
X154078818Y-178584883D01*
X153930060Y-178830767D01*
X153895738Y-179001613D01*
X153960618Y-179178828D01*
X153965832Y-179188642D01*
X154034912Y-179442530D01*
X154077781Y-179895954D01*
X154094270Y-180546924D01*
X154094425Y-180683905D01*
X154100413Y-181269575D01*
X154122830Y-181680381D01*
X154164420Y-181944201D01*
X154227931Y-182088909D01*
X154233451Y-182095506D01*
X154313281Y-182290119D01*
X154366523Y-182618902D01*
X154391619Y-183015739D01*
X154387010Y-183414514D01*
X154351137Y-183749111D01*
X154282441Y-183953413D01*
X154277405Y-183959888D01*
X154165671Y-184224771D01*
X154131410Y-184604681D01*
X154167658Y-185029820D01*
X154267452Y-185430388D01*
X154423827Y-185736588D01*
X154458773Y-185777714D01*
X154613476Y-185975075D01*
X154678397Y-186122846D01*
X154678400Y-186123481D01*
X154758203Y-186259783D01*
X154805400Y-186286998D01*
X154870002Y-186356600D01*
X154780000Y-186444765D01*
X154682366Y-186557215D01*
X154729267Y-186713153D01*
X154758042Y-186761432D01*
X154836659Y-186959422D01*
X154828246Y-187069332D01*
X154859251Y-187148158D01*
X154960760Y-187166800D01*
X155081944Y-187207313D01*
X155166130Y-187357676D01*
X155235477Y-187661122D01*
X155246156Y-187723642D01*
X155308473Y-188039041D01*
X155371156Y-188186826D01*
X155452836Y-188201762D01*
X155491200Y-188180842D01*
X155592395Y-188085074D01*
X155515244Y-187989427D01*
X155491200Y-187971865D01*
X155390374Y-187890885D01*
X155458827Y-187897559D01*
X155491200Y-187906761D01*
X155606275Y-188036381D01*
X155624473Y-188219296D01*
X155647386Y-188423084D01*
X155778845Y-188487024D01*
X155802273Y-188487600D01*
X155963933Y-188443842D01*
X155999200Y-188386000D01*
X156084295Y-188303451D01*
X156202400Y-188284400D01*
X156367349Y-188335333D01*
X156405600Y-188406319D01*
X156435589Y-188477005D01*
X156527521Y-188406319D01*
X156690038Y-188324092D01*
X156914302Y-188287872D01*
X157117623Y-188301103D01*
X157217311Y-188367232D01*
X157218400Y-188377533D01*
X157138259Y-188491259D01*
X157094021Y-188512126D01*
X157073091Y-188563771D01*
X157174701Y-188607210D01*
X157332361Y-188605684D01*
X157395422Y-188456673D01*
X157401126Y-188402688D01*
X157373349Y-188178848D01*
X157297988Y-188067595D01*
X157225783Y-187960733D01*
X157244288Y-187919846D01*
X157368993Y-187915263D01*
X157460900Y-187970055D01*
X157610120Y-188040870D01*
X157672639Y-187975197D01*
X157636584Y-187825468D01*
X157618691Y-187801492D01*
X156803511Y-187801492D01*
X156712533Y-187975525D01*
X156634200Y-188041368D01*
X156427771Y-188164792D01*
X156326186Y-188126320D01*
X156304000Y-187972342D01*
X156371732Y-187736470D01*
X155592800Y-187736470D01*
X155509836Y-187771986D01*
X155440400Y-187776400D01*
X155305169Y-187723229D01*
X155288000Y-187677988D01*
X155362474Y-187622086D01*
X155440400Y-187638058D01*
X155574082Y-187710172D01*
X155592800Y-187736470D01*
X156371732Y-187736470D01*
X156373590Y-187730001D01*
X156465621Y-187600265D01*
X156603276Y-187495770D01*
X156695995Y-187549362D01*
X156718065Y-187582122D01*
X156803511Y-187801492D01*
X157618691Y-187801492D01*
X157526906Y-187678505D01*
X157360156Y-187441126D01*
X157344107Y-187345709D01*
X155955135Y-187345709D01*
X155855267Y-187361978D01*
X155723490Y-187343299D01*
X155721917Y-187308616D01*
X155857898Y-187284362D01*
X155916650Y-187300595D01*
X155955135Y-187345709D01*
X157344107Y-187345709D01*
X157324300Y-187227961D01*
X157418742Y-187090274D01*
X157534071Y-187065200D01*
X157689937Y-187020475D01*
X157689659Y-186912800D01*
X157703779Y-186781529D01*
X157771923Y-186760400D01*
X157933535Y-186838807D01*
X157963913Y-186887400D01*
X158008641Y-186923037D01*
X158023179Y-186836600D01*
X158051370Y-186685451D01*
X158076193Y-186658800D01*
X158219420Y-186713683D01*
X158462819Y-186852057D01*
X158744745Y-187034510D01*
X159003552Y-187221628D01*
X159148800Y-187344577D01*
X159413244Y-187569082D01*
X159719854Y-187790223D01*
X159750568Y-187809997D01*
X160010107Y-188005295D01*
X160136578Y-188166269D01*
X160114446Y-188265659D01*
X160020867Y-188284400D01*
X159880339Y-188338344D01*
X159860000Y-188389188D01*
X159941556Y-188516238D01*
X160116711Y-188567476D01*
X160281193Y-188513329D01*
X160284937Y-188509703D01*
X160414204Y-188471391D01*
X160624749Y-188551626D01*
X160933478Y-188760378D01*
X161357299Y-189107614D01*
X161479738Y-189214173D01*
X161792023Y-189516232D01*
X161937966Y-189726526D01*
X161939295Y-189814071D01*
X161917609Y-189893782D01*
X161977902Y-189868901D01*
X162077597Y-189878895D01*
X162095200Y-189961650D01*
X162139918Y-190073642D01*
X162304820Y-190055160D01*
X162323800Y-190048840D01*
X162616654Y-189982569D01*
X162806400Y-189964238D01*
X163054310Y-189928276D01*
X163187400Y-189877048D01*
X163377309Y-189849331D01*
X163439938Y-189873993D01*
X163623522Y-189920124D01*
X163891612Y-189923469D01*
X163897138Y-189923005D01*
X164121609Y-189931857D01*
X164227556Y-189991526D01*
X164228800Y-190000626D01*
X164303061Y-190062940D01*
X164382494Y-190047844D01*
X164593933Y-190058462D01*
X164764846Y-190217488D01*
X164838294Y-190470793D01*
X164838400Y-190481240D01*
X164868293Y-190647821D01*
X164998081Y-190708579D01*
X165168600Y-190711014D01*
X165458895Y-190688480D01*
X165676600Y-190652764D01*
X165827243Y-190570603D01*
X165854400Y-190515338D01*
X165778643Y-190468256D01*
X165687825Y-190488298D01*
X165575041Y-190505091D01*
X165611625Y-190394438D01*
X165808113Y-190104281D01*
X166090976Y-189753518D01*
X166428306Y-189374508D01*
X166788191Y-188999613D01*
X167138721Y-188661194D01*
X167447987Y-188391611D01*
X167684077Y-188223226D01*
X167792457Y-188182800D01*
X167975270Y-188099859D01*
X168029133Y-188018957D01*
X168107553Y-187911756D01*
X168238231Y-187976527D01*
X168246378Y-187983233D01*
X168387825Y-188051663D01*
X168517399Y-187955870D01*
X168546745Y-187918475D01*
X168663775Y-187715695D01*
X168695969Y-187598600D01*
X168780227Y-187483733D01*
X168840730Y-187471600D01*
X168991377Y-187387874D01*
X169072860Y-187206830D01*
X169048652Y-187055252D01*
X169064608Y-186918701D01*
X169145606Y-186807480D01*
X169246745Y-186619808D01*
X169242317Y-186502165D01*
X169252265Y-186305082D01*
X169312106Y-186197617D01*
X169377793Y-186021312D01*
X169410868Y-185843096D01*
X165018963Y-185843096D01*
X164964292Y-185933505D01*
X164846473Y-185947600D01*
X164676779Y-185885999D01*
X164636756Y-185719000D01*
X164671049Y-185503588D01*
X164748685Y-185316802D01*
X164836025Y-185227289D01*
X164871808Y-185239342D01*
X164921611Y-185362405D01*
X164982512Y-185596737D01*
X164987005Y-185617400D01*
X165018963Y-185843096D01*
X169410868Y-185843096D01*
X169445386Y-185657109D01*
X169513058Y-185120273D01*
X169521326Y-185033200D01*
X165854400Y-185033200D01*
X165772109Y-185123337D01*
X165702000Y-185134800D01*
X165566794Y-185079938D01*
X165549600Y-185033200D01*
X165631892Y-184943062D01*
X165702000Y-184931600D01*
X165837207Y-184986461D01*
X165854400Y-185033200D01*
X169521326Y-185033200D01*
X169578982Y-184426072D01*
X169613150Y-183967773D01*
X167253595Y-183967773D01*
X167245804Y-184077503D01*
X167134941Y-184174455D01*
X167004471Y-184371238D01*
X167017719Y-184509188D01*
X167017453Y-184715157D01*
X166894013Y-184798223D01*
X166713550Y-184724706D01*
X166593298Y-184658840D01*
X166565600Y-184682869D01*
X166502968Y-184678481D01*
X166349815Y-184560707D01*
X166326232Y-184538945D01*
X166212392Y-184445934D01*
X166078424Y-184382557D01*
X165885172Y-184343036D01*
X165593481Y-184321593D01*
X165164197Y-184312452D01*
X164776832Y-184310323D01*
X164161078Y-184309109D01*
X163719550Y-184311495D01*
X163423272Y-184320410D01*
X163243272Y-184338785D01*
X163150576Y-184369547D01*
X163116210Y-184415627D01*
X163111200Y-184478712D01*
X163167900Y-184570106D01*
X163363273Y-184593669D01*
X163529341Y-184582520D01*
X163806640Y-184572935D01*
X163945462Y-184627874D01*
X163998391Y-184736922D01*
X164101607Y-184897419D01*
X164189850Y-184931600D01*
X164305916Y-184956691D01*
X164304247Y-185055678D01*
X164178895Y-185264129D01*
X164120282Y-185347715D01*
X163920612Y-185580144D01*
X163787435Y-185621361D01*
X163718703Y-185471443D01*
X163709015Y-185363400D01*
X163688552Y-185215681D01*
X163655196Y-185241505D01*
X163653491Y-185247643D01*
X163533015Y-185414831D01*
X163381284Y-185515385D01*
X163079480Y-185553996D01*
X162794773Y-185417692D01*
X162569541Y-185133181D01*
X162496987Y-184958068D01*
X162376286Y-184659695D01*
X162239200Y-184423239D01*
X162218671Y-184397827D01*
X162134449Y-184266139D01*
X162113539Y-184095668D01*
X162153507Y-183822549D01*
X162190241Y-183651223D01*
X162266875Y-183331778D01*
X162339267Y-183166273D01*
X162447237Y-183110281D01*
X162630606Y-183119377D01*
X162663526Y-183123194D01*
X162906397Y-183110074D01*
X163021736Y-183024615D01*
X162977881Y-182901373D01*
X162912438Y-182851542D01*
X162859119Y-182719902D01*
X162876775Y-182631225D01*
X162937698Y-182522530D01*
X163009036Y-182598005D01*
X163027922Y-182631147D01*
X163148837Y-182730560D01*
X163394343Y-182774296D01*
X163678366Y-182776581D01*
X163995503Y-182755691D01*
X164219485Y-182717482D01*
X164286384Y-182685423D01*
X164438034Y-182600482D01*
X164724775Y-182548434D01*
X165080802Y-182531665D01*
X165440308Y-182552562D01*
X165737487Y-182613512D01*
X165784544Y-182631089D01*
X166051019Y-182717742D01*
X166157415Y-182689325D01*
X166159200Y-182675468D01*
X166219312Y-182639984D01*
X166337000Y-182716010D01*
X166560948Y-182869316D01*
X166692600Y-182931768D01*
X166830963Y-183062568D01*
X166865475Y-183256972D01*
X166786379Y-183416969D01*
X166743400Y-183441912D01*
X166706183Y-183486777D01*
X166791858Y-183501178D01*
X166968251Y-183586031D01*
X167141814Y-183775517D01*
X167253595Y-183967773D01*
X169613150Y-183967773D01*
X169641332Y-183589772D01*
X169661049Y-183281352D01*
X169712652Y-182872570D01*
X169831246Y-182562471D01*
X170010867Y-182301531D01*
X170196356Y-182024198D01*
X170309041Y-181772536D01*
X170324801Y-181683410D01*
X170349682Y-181541830D01*
X170461634Y-181486275D01*
X170716618Y-181489959D01*
X170727382Y-181490728D01*
X171148891Y-181440295D01*
X171450811Y-181230476D01*
X171617302Y-180876608D01*
X171642298Y-180633945D01*
X169249770Y-180633945D01*
X169146718Y-180804510D01*
X169087415Y-180862736D01*
X168967390Y-181005305D01*
X168977733Y-181070395D01*
X168984843Y-181070800D01*
X169090695Y-181153197D01*
X169105600Y-181229196D01*
X169052934Y-181332863D01*
X168978600Y-181311293D01*
X168906544Y-181284657D01*
X168974387Y-181386562D01*
X168982056Y-181396070D01*
X169043715Y-181521312D01*
X169032058Y-181697097D01*
X168939455Y-181978281D01*
X168880456Y-182126632D01*
X168726233Y-182464699D01*
X168601344Y-182661740D01*
X168520086Y-182700346D01*
X168496000Y-182594800D01*
X168418685Y-182496152D01*
X168394400Y-182493200D01*
X168305041Y-182550449D01*
X168304832Y-182569400D01*
X168281634Y-182811932D01*
X168115000Y-182919823D01*
X167932725Y-182854213D01*
X167700960Y-182593930D01*
X167633237Y-182495473D01*
X167450536Y-182221023D01*
X167310155Y-182013241D01*
X167261915Y-181944063D01*
X167121708Y-181881379D01*
X166884526Y-181860941D01*
X166621034Y-181814094D01*
X166371845Y-181631820D01*
X166268352Y-181521078D01*
X166043964Y-181279198D01*
X165917360Y-181188506D01*
X165863050Y-181238655D01*
X165854400Y-181352993D01*
X165798038Y-181570361D01*
X165693182Y-181763757D01*
X165591470Y-181965000D01*
X165635521Y-182117383D01*
X165653825Y-182140762D01*
X165717992Y-182272989D01*
X165614454Y-182349465D01*
X165426361Y-182330577D01*
X165397003Y-182309844D01*
X163601638Y-182309844D01*
X163557530Y-182434090D01*
X163457930Y-182578265D01*
X163370812Y-182557479D01*
X163348267Y-182446772D01*
X163428012Y-182281324D01*
X163483734Y-182246760D01*
X163598839Y-182221170D01*
X163601638Y-182309844D01*
X165397003Y-182309844D01*
X165238802Y-182198121D01*
X165144028Y-182019855D01*
X165143200Y-182003327D01*
X165062169Y-181885728D01*
X164990800Y-181846858D01*
X164859975Y-181844746D01*
X164838400Y-181886788D01*
X164766201Y-181982873D01*
X164746312Y-181985200D01*
X164694050Y-181904288D01*
X164707362Y-181782000D01*
X164708237Y-181630140D01*
X164567289Y-181580450D01*
X164502960Y-181578800D01*
X164205113Y-181608104D01*
X164014377Y-181683326D01*
X163977301Y-181785430D01*
X163981113Y-181792213D01*
X163944168Y-181895119D01*
X163800249Y-181990633D01*
X163558094Y-182042805D01*
X163286942Y-181954924D01*
X163266473Y-181944462D01*
X163003647Y-181850820D01*
X162841604Y-181896544D01*
X162678751Y-181958440D01*
X162616820Y-181942817D01*
X162463801Y-181918804D01*
X162309862Y-181973246D01*
X162244181Y-182068116D01*
X162254180Y-182097446D01*
X162214140Y-182166227D01*
X162072826Y-182188400D01*
X161829177Y-182266795D01*
X161688800Y-182391600D01*
X161536153Y-182548402D01*
X161433992Y-182594800D01*
X161337961Y-182689859D01*
X161281268Y-182953519D01*
X161269628Y-183204400D01*
X161249580Y-183424199D01*
X161220517Y-183596044D01*
X161146822Y-183767442D01*
X160989980Y-183777751D01*
X160947593Y-183765642D01*
X160666089Y-183684519D01*
X160515960Y-183645559D01*
X160319062Y-183529426D01*
X160121920Y-183315603D01*
X160109560Y-183297571D01*
X159925068Y-183078373D01*
X159744942Y-182947283D01*
X159733000Y-182942962D01*
X159582799Y-182850556D01*
X159555200Y-182791153D01*
X159472099Y-182708690D01*
X159391930Y-182696400D01*
X159276481Y-182633709D01*
X159286547Y-182545549D01*
X159261428Y-182385833D01*
X159126716Y-182292818D01*
X157010524Y-182292818D01*
X156905045Y-182412026D01*
X156888200Y-182418524D01*
X156704550Y-182413552D01*
X156522686Y-182355366D01*
X156360705Y-182245175D01*
X156320396Y-182070578D01*
X156338499Y-181913574D01*
X156352655Y-181688836D01*
X156315629Y-181580552D01*
X156307147Y-181578800D01*
X156246815Y-181487540D01*
X156183461Y-181253034D01*
X156148107Y-181045400D01*
X156112438Y-180748703D01*
X156099011Y-180555044D01*
X156104942Y-180512000D01*
X156086572Y-180435777D01*
X156012280Y-180282439D01*
X155945955Y-180106873D01*
X156025768Y-180007304D01*
X156147512Y-179954754D01*
X156337791Y-179848451D01*
X156405600Y-179752514D01*
X156490365Y-179666980D01*
X156602005Y-179648400D01*
X156743442Y-179695597D01*
X156789669Y-179871494D01*
X156789609Y-179957924D01*
X156819409Y-180217105D01*
X156898005Y-180384644D01*
X157002778Y-180563239D01*
X156988061Y-180716723D01*
X156888200Y-180769192D01*
X156742735Y-180846801D01*
X156579267Y-181022384D01*
X156467114Y-181223066D01*
X156453838Y-181436009D01*
X156506983Y-181679591D01*
X156613923Y-181961769D01*
X156750372Y-182078213D01*
X156815917Y-182086800D01*
X156974117Y-182153672D01*
X157010524Y-182292818D01*
X159126716Y-182292818D01*
X159097088Y-182272361D01*
X158857186Y-182239936D01*
X158757881Y-182256513D01*
X158590500Y-182264777D01*
X158553099Y-182140629D01*
X158554353Y-182124297D01*
X158561595Y-181897272D01*
X158557999Y-181658825D01*
X156952454Y-181658825D01*
X156910412Y-181680400D01*
X156823087Y-181598059D01*
X156812000Y-181528000D01*
X156833738Y-181392444D01*
X156851930Y-181375600D01*
X156917443Y-181455046D01*
X156950342Y-181528000D01*
X156952454Y-181658825D01*
X158557999Y-181658825D01*
X158556965Y-181590345D01*
X158555298Y-181546553D01*
X158530266Y-181297295D01*
X158464317Y-181205505D01*
X158346530Y-181219857D01*
X158251797Y-181243085D01*
X158189118Y-181218304D01*
X158150440Y-181111841D01*
X158127707Y-180890024D01*
X158112863Y-180519178D01*
X158104290Y-180207200D01*
X158107501Y-179734662D01*
X158133826Y-179220420D01*
X158154621Y-178988000D01*
X158191328Y-178641692D01*
X158218161Y-178370752D01*
X158227735Y-178256432D01*
X158293037Y-178195855D01*
X158497494Y-178171465D01*
X158866933Y-178181315D01*
X159058222Y-178193794D01*
X159521332Y-178214884D01*
X159818524Y-178189575D01*
X159984219Y-178105457D01*
X160052836Y-177950119D01*
X160061645Y-177832014D01*
X160011615Y-177746576D01*
X159831620Y-177734355D01*
X159656800Y-177757015D01*
X159396035Y-177777681D01*
X159258907Y-177745462D01*
X159250400Y-177726292D01*
X159164159Y-177681112D01*
X158927821Y-177723100D01*
X158925395Y-177723794D01*
X158652003Y-177765202D01*
X158505793Y-177687804D01*
X158484776Y-177479674D01*
X158586959Y-177128887D01*
X158759529Y-176730165D01*
X158877050Y-176402583D01*
X158904930Y-176141033D01*
X158895520Y-176094665D01*
X158899427Y-175895991D01*
X158989395Y-175827029D01*
X159128708Y-175702456D01*
X159148800Y-175627904D01*
X159229074Y-175474033D01*
X159345989Y-175384417D01*
X159526278Y-175339296D01*
X159671749Y-175462744D01*
X159683255Y-175478874D01*
X159780938Y-175599364D01*
X159880063Y-175616946D01*
X160047714Y-175526863D01*
X160171867Y-175444224D01*
X160475733Y-175271225D01*
X160772688Y-175148969D01*
X160815273Y-175137173D01*
X161081029Y-175013779D01*
X161146068Y-174963440D01*
X160121021Y-174963440D01*
X159994819Y-175066924D01*
X159785213Y-175039608D01*
X159715910Y-175014729D01*
X159577706Y-174895505D01*
X159574701Y-174753356D01*
X159702675Y-174673032D01*
X159733000Y-174671555D01*
X159970152Y-174720833D01*
X160117013Y-174835145D01*
X160121021Y-174963440D01*
X161146068Y-174963440D01*
X161351382Y-174804531D01*
X161389436Y-174765780D01*
X161554444Y-174575705D01*
X161583139Y-174488316D01*
X161486966Y-174466812D01*
X161482410Y-174466800D01*
X161301689Y-174382025D01*
X161234579Y-174272985D01*
X161114165Y-174083480D01*
X161024533Y-174022174D01*
X160893904Y-173914310D01*
X160901193Y-173798460D01*
X161015960Y-173755599D01*
X161194017Y-173683922D01*
X161282400Y-173603199D01*
X161350407Y-173476955D01*
X161294841Y-173450800D01*
X161188607Y-173392624D01*
X161243530Y-173226591D01*
X161367342Y-173063607D01*
X161537471Y-172923332D01*
X161663289Y-172957928D01*
X161823406Y-173016243D01*
X161956264Y-172915854D01*
X161997254Y-172759003D01*
X162060971Y-172570312D01*
X162212846Y-172329327D01*
X162244235Y-172289534D01*
X162416544Y-172102883D01*
X162537422Y-172061583D01*
X162654725Y-172130601D01*
X162802091Y-172216514D01*
X162897839Y-172146258D01*
X162903373Y-172137486D01*
X163030370Y-172048698D01*
X163256030Y-171968025D01*
X163509989Y-171910869D01*
X163721882Y-171892628D01*
X163821344Y-171928702D01*
X163822400Y-171936352D01*
X163909904Y-171994007D01*
X164101800Y-172010121D01*
X164385793Y-172042280D01*
X164714618Y-172136049D01*
X165004529Y-172262037D01*
X165167045Y-172384000D01*
X165233187Y-172410123D01*
X165243245Y-172351753D01*
X165313441Y-172264728D01*
X165473400Y-172288983D01*
X165662048Y-172369944D01*
X165729004Y-172427641D01*
X165836801Y-172462695D01*
X166064524Y-172458878D01*
X166097481Y-172455357D01*
X166378404Y-172463493D01*
X166560068Y-172591210D01*
X166589637Y-172630622D01*
X166774890Y-172784840D01*
X166906960Y-172781805D01*
X167046892Y-172786178D01*
X167073600Y-172881129D01*
X167158376Y-173016930D01*
X167276800Y-173044400D01*
X167441944Y-173083938D01*
X167480000Y-173138742D01*
X167544709Y-173280934D01*
X167630055Y-173383140D01*
X167746316Y-173590263D01*
X167804065Y-173847585D01*
X167844672Y-174063165D01*
X167941833Y-174119003D01*
X168009611Y-174104341D01*
X168126077Y-174097363D01*
X168179015Y-174205058D01*
X168191200Y-174459953D01*
X168215537Y-174745106D01*
X168296535Y-174864519D01*
X168343600Y-174873200D01*
X168470608Y-174943336D01*
X168484287Y-175087306D01*
X168377091Y-175205448D01*
X168369000Y-175208674D01*
X168320259Y-175284956D01*
X168436809Y-175406015D01*
X168602439Y-175624348D01*
X168654848Y-175798674D01*
X168706330Y-176100546D01*
X168750966Y-176268965D01*
X168759645Y-176478944D01*
X168623190Y-176564585D01*
X168358887Y-176523661D01*
X168004464Y-176365166D01*
X167654540Y-176204404D01*
X167430950Y-176175972D01*
X167375150Y-176198158D01*
X167142148Y-176282831D01*
X167040943Y-176294044D01*
X166817780Y-176364054D01*
X166703486Y-176448000D01*
X166605188Y-176565670D01*
X166660577Y-176599462D01*
X166699873Y-176600400D01*
X166865076Y-176682143D01*
X166904241Y-176745240D01*
X167001739Y-176831723D01*
X167230885Y-176865092D01*
X167527871Y-176858514D01*
X167918258Y-176858855D01*
X168178543Y-176921576D01*
X168321361Y-177011261D01*
X168468328Y-177166093D01*
X168453412Y-177286324D01*
X168422663Y-177321846D01*
X168366574Y-177435989D01*
X168482092Y-177538363D01*
X168524263Y-177560201D01*
X168712629Y-177743583D01*
X168780382Y-177923743D01*
X168827935Y-178183683D01*
X168870093Y-178327600D01*
X168912516Y-178529282D01*
X168940267Y-178838605D01*
X168952580Y-179193481D01*
X168948691Y-179531818D01*
X168927834Y-179791529D01*
X168889590Y-179910317D01*
X168803902Y-180046253D01*
X168836287Y-180197057D01*
X168949626Y-180258000D01*
X169112318Y-180338586D01*
X169204598Y-180456336D01*
X169249770Y-180633945D01*
X171642298Y-180633945D01*
X171645601Y-180601885D01*
X171667474Y-180320441D01*
X171722309Y-180134229D01*
X171747201Y-180105600D01*
X171835814Y-179944017D01*
X171840675Y-179669340D01*
X171769879Y-179349734D01*
X171631521Y-179053362D01*
X171620200Y-179036257D01*
X171408028Y-178770360D01*
X171245706Y-178659457D01*
X171152468Y-178712315D01*
X171137600Y-178816263D01*
X171066234Y-179020948D01*
X170897462Y-179091404D01*
X170699277Y-179011444D01*
X170629600Y-178937200D01*
X170432175Y-178783769D01*
X170295225Y-178790714D01*
X170150358Y-178797707D01*
X170121600Y-178744870D01*
X170192689Y-178637612D01*
X170223200Y-178632400D01*
X170316603Y-178565420D01*
X170304169Y-178425373D01*
X170199483Y-178303595D01*
X170172401Y-178290858D01*
X170114129Y-178216621D01*
X169858580Y-178216621D01*
X169814699Y-178279332D01*
X169622928Y-178406064D01*
X169415243Y-178412068D01*
X169279103Y-178295118D01*
X169278271Y-178292986D01*
X169279671Y-178091251D01*
X169310925Y-178019363D01*
X169411293Y-177935706D01*
X169583580Y-177969677D01*
X169667463Y-178005708D01*
X169846985Y-178111900D01*
X169858580Y-178216621D01*
X170114129Y-178216621D01*
X170066191Y-178155551D01*
X170018202Y-177909323D01*
X170028434Y-177635935D01*
X170096886Y-177419148D01*
X170172401Y-177348341D01*
X170287857Y-177212423D01*
X170321911Y-176993355D01*
X170266606Y-176797451D01*
X170217252Y-176749123D01*
X170157853Y-176607905D01*
X170175439Y-176383366D01*
X170184554Y-176095299D01*
X170119221Y-175937132D01*
X170043490Y-175738111D01*
X170056245Y-175636493D01*
X170063911Y-175504630D01*
X170027220Y-175482800D01*
X169995593Y-175387647D01*
X169972561Y-175127763D01*
X169960113Y-174741508D01*
X169960234Y-174267245D01*
X169961168Y-174207399D01*
X169963242Y-173719412D01*
X169953036Y-173309159D01*
X169932416Y-173017087D01*
X169903249Y-172883648D01*
X169899960Y-172880602D01*
X169836537Y-172750595D01*
X169816801Y-172573405D01*
X169743367Y-172389370D01*
X169545573Y-172111512D01*
X169257180Y-171773631D01*
X168911951Y-171409528D01*
X168543645Y-171053002D01*
X168186024Y-170737856D01*
X167872850Y-170497888D01*
X167637885Y-170366901D01*
X167602570Y-170356605D01*
X167320584Y-170244318D01*
X167124401Y-170098000D01*
X166894049Y-169932128D01*
X166657271Y-169841819D01*
X166419621Y-169756664D01*
X166286806Y-169655821D01*
X166119627Y-169489353D01*
X165784100Y-169244487D01*
X165356659Y-168969897D01*
X165132949Y-168866786D01*
X164974571Y-168850248D01*
X164812917Y-168835710D01*
X164568853Y-168743799D01*
X164526235Y-168722591D01*
X164093973Y-168604808D01*
X163637253Y-168652817D01*
X163637253Y-168652817D01*
G37*
X163637253Y-168652817D02*
X163210188Y-168845014D01*
X162866888Y-169159797D01*
X162701629Y-169451060D01*
X162521547Y-169644779D01*
X162280054Y-169725639D01*
X161811338Y-169814122D01*
X161489048Y-169902155D01*
X161257721Y-170012345D01*
X161061896Y-170167293D01*
X160967875Y-170260433D01*
X160694354Y-170495489D01*
X160431015Y-170594335D01*
X160260650Y-170606000D01*
X159667316Y-170629043D01*
X159239524Y-170704777D01*
X158944172Y-170843105D01*
X158748158Y-171053931D01*
X158744624Y-171059601D01*
X158539218Y-171311759D01*
X158307722Y-171490983D01*
X158287696Y-171500776D01*
X158094213Y-171654188D01*
X158031200Y-171812151D01*
X157964957Y-172000870D01*
X157886687Y-172062114D01*
X157787279Y-172192220D01*
X157791248Y-172305229D01*
X157767164Y-172465818D01*
X157581516Y-172613172D01*
X157486636Y-172661550D01*
X157242896Y-172814592D01*
X157173727Y-172969978D01*
X157180776Y-173013505D01*
X157132934Y-173216144D01*
X156911797Y-173502248D01*
X156817101Y-173598419D01*
X156589822Y-173849818D01*
X156440374Y-174071838D01*
X156405600Y-174176623D01*
X156350372Y-174364737D01*
X156297733Y-174419873D01*
X156180749Y-174561776D01*
X156062927Y-174795449D01*
X155989536Y-175020976D01*
X155985323Y-175109386D01*
X155938116Y-175230803D01*
X155796685Y-175448325D01*
X155685783Y-175595280D01*
X155531748Y-175804558D01*
X155435093Y-175997176D01*
X155380241Y-176232108D01*
X155351616Y-176568327D01*
X155338362Y-176910582D01*
X155305502Y-177447292D01*
X155240209Y-177808974D01*
X155132194Y-178022586D01*
X154971168Y-178115090D01*
X154875156Y-178124400D01*
X154687416Y-178171760D01*
X154630343Y-178221562D01*
X154496798Y-178282559D01*
X154446547Y-178272309D01*
X154319042Y-178319784D01*
X154145702Y-178494172D01*
X154078818Y-178584883D01*
X153930060Y-178830767D01*
X153895738Y-179001613D01*
X153960618Y-179178828D01*
X153965832Y-179188642D01*
X154034912Y-179442530D01*
X154077781Y-179895954D01*
X154094270Y-180546924D01*
X154094425Y-180683905D01*
X154100413Y-181269575D01*
X154122830Y-181680381D01*
X154164420Y-181944201D01*
X154227931Y-182088909D01*
X154233451Y-182095506D01*
X154313281Y-182290119D01*
X154366523Y-182618902D01*
X154391619Y-183015739D01*
X154387010Y-183414514D01*
X154351137Y-183749111D01*
X154282441Y-183953413D01*
X154277405Y-183959888D01*
X154165671Y-184224771D01*
X154131410Y-184604681D01*
X154167658Y-185029820D01*
X154267452Y-185430388D01*
X154423827Y-185736588D01*
X154458773Y-185777714D01*
X154613476Y-185975075D01*
X154678397Y-186122846D01*
X154678400Y-186123481D01*
X154758203Y-186259783D01*
X154805400Y-186286998D01*
X154870002Y-186356600D01*
X154780000Y-186444765D01*
X154682366Y-186557215D01*
X154729267Y-186713153D01*
X154758042Y-186761432D01*
X154836659Y-186959422D01*
X154828246Y-187069332D01*
X154859251Y-187148158D01*
X154960760Y-187166800D01*
X155081944Y-187207313D01*
X155166130Y-187357676D01*
X155235477Y-187661122D01*
X155246156Y-187723642D01*
X155308473Y-188039041D01*
X155371156Y-188186826D01*
X155452836Y-188201762D01*
X155491200Y-188180842D01*
X155592395Y-188085074D01*
X155515244Y-187989427D01*
X155491200Y-187971865D01*
X155390374Y-187890885D01*
X155458827Y-187897559D01*
X155491200Y-187906761D01*
X155606275Y-188036381D01*
X155624473Y-188219296D01*
X155647386Y-188423084D01*
X155778845Y-188487024D01*
X155802273Y-188487600D01*
X155963933Y-188443842D01*
X155999200Y-188386000D01*
X156084295Y-188303451D01*
X156202400Y-188284400D01*
X156367349Y-188335333D01*
X156405600Y-188406319D01*
X156435589Y-188477005D01*
X156527521Y-188406319D01*
X156690038Y-188324092D01*
X156914302Y-188287872D01*
X157117623Y-188301103D01*
X157217311Y-188367232D01*
X157218400Y-188377533D01*
X157138259Y-188491259D01*
X157094021Y-188512126D01*
X157073091Y-188563771D01*
X157174701Y-188607210D01*
X157332361Y-188605684D01*
X157395422Y-188456673D01*
X157401126Y-188402688D01*
X157373349Y-188178848D01*
X157297988Y-188067595D01*
X157225783Y-187960733D01*
X157244288Y-187919846D01*
X157368993Y-187915263D01*
X157460900Y-187970055D01*
X157610120Y-188040870D01*
X157672639Y-187975197D01*
X157636584Y-187825468D01*
X157618691Y-187801492D01*
X156803511Y-187801492D01*
X156712533Y-187975525D01*
X156634200Y-188041368D01*
X156427771Y-188164792D01*
X156326186Y-188126320D01*
X156304000Y-187972342D01*
X156371732Y-187736470D01*
X155592800Y-187736470D01*
X155509836Y-187771986D01*
X155440400Y-187776400D01*
X155305169Y-187723229D01*
X155288000Y-187677988D01*
X155362474Y-187622086D01*
X155440400Y-187638058D01*
X155574082Y-187710172D01*
X155592800Y-187736470D01*
X156371732Y-187736470D01*
X156373590Y-187730001D01*
X156465621Y-187600265D01*
X156603276Y-187495770D01*
X156695995Y-187549362D01*
X156718065Y-187582122D01*
X156803511Y-187801492D01*
X157618691Y-187801492D01*
X157526906Y-187678505D01*
X157360156Y-187441126D01*
X157344107Y-187345709D01*
X155955135Y-187345709D01*
X155855267Y-187361978D01*
X155723490Y-187343299D01*
X155721917Y-187308616D01*
X155857898Y-187284362D01*
X155916650Y-187300595D01*
X155955135Y-187345709D01*
X157344107Y-187345709D01*
X157324300Y-187227961D01*
X157418742Y-187090274D01*
X157534071Y-187065200D01*
X157689937Y-187020475D01*
X157689659Y-186912800D01*
X157703779Y-186781529D01*
X157771923Y-186760400D01*
X157933535Y-186838807D01*
X157963913Y-186887400D01*
X158008641Y-186923037D01*
X158023179Y-186836600D01*
X158051370Y-186685451D01*
X158076193Y-186658800D01*
X158219420Y-186713683D01*
X158462819Y-186852057D01*
X158744745Y-187034510D01*
X159003552Y-187221628D01*
X159148800Y-187344577D01*
X159413244Y-187569082D01*
X159719854Y-187790223D01*
X159750568Y-187809997D01*
X160010107Y-188005295D01*
X160136578Y-188166269D01*
X160114446Y-188265659D01*
X160020867Y-188284400D01*
X159880339Y-188338344D01*
X159860000Y-188389188D01*
X159941556Y-188516238D01*
X160116711Y-188567476D01*
X160281193Y-188513329D01*
X160284937Y-188509703D01*
X160414204Y-188471391D01*
X160624749Y-188551626D01*
X160933478Y-188760378D01*
X161357299Y-189107614D01*
X161479738Y-189214173D01*
X161792023Y-189516232D01*
X161937966Y-189726526D01*
X161939295Y-189814071D01*
X161917609Y-189893782D01*
X161977902Y-189868901D01*
X162077597Y-189878895D01*
X162095200Y-189961650D01*
X162139918Y-190073642D01*
X162304820Y-190055160D01*
X162323800Y-190048840D01*
X162616654Y-189982569D01*
X162806400Y-189964238D01*
X163054310Y-189928276D01*
X163187400Y-189877048D01*
X163377309Y-189849331D01*
X163439938Y-189873993D01*
X163623522Y-189920124D01*
X163891612Y-189923469D01*
X163897138Y-189923005D01*
X164121609Y-189931857D01*
X164227556Y-189991526D01*
X164228800Y-190000626D01*
X164303061Y-190062940D01*
X164382494Y-190047844D01*
X164593933Y-190058462D01*
X164764846Y-190217488D01*
X164838294Y-190470793D01*
X164838400Y-190481240D01*
X164868293Y-190647821D01*
X164998081Y-190708579D01*
X165168600Y-190711014D01*
X165458895Y-190688480D01*
X165676600Y-190652764D01*
X165827243Y-190570603D01*
X165854400Y-190515338D01*
X165778643Y-190468256D01*
X165687825Y-190488298D01*
X165575041Y-190505091D01*
X165611625Y-190394438D01*
X165808113Y-190104281D01*
X166090976Y-189753518D01*
X166428306Y-189374508D01*
X166788191Y-188999613D01*
X167138721Y-188661194D01*
X167447987Y-188391611D01*
X167684077Y-188223226D01*
X167792457Y-188182800D01*
X167975270Y-188099859D01*
X168029133Y-188018957D01*
X168107553Y-187911756D01*
X168238231Y-187976527D01*
X168246378Y-187983233D01*
X168387825Y-188051663D01*
X168517399Y-187955870D01*
X168546745Y-187918475D01*
X168663775Y-187715695D01*
X168695969Y-187598600D01*
X168780227Y-187483733D01*
X168840730Y-187471600D01*
X168991377Y-187387874D01*
X169072860Y-187206830D01*
X169048652Y-187055252D01*
X169064608Y-186918701D01*
X169145606Y-186807480D01*
X169246745Y-186619808D01*
X169242317Y-186502165D01*
X169252265Y-186305082D01*
X169312106Y-186197617D01*
X169377793Y-186021312D01*
X169410868Y-185843096D01*
X165018963Y-185843096D01*
X164964292Y-185933505D01*
X164846473Y-185947600D01*
X164676779Y-185885999D01*
X164636756Y-185719000D01*
X164671049Y-185503588D01*
X164748685Y-185316802D01*
X164836025Y-185227289D01*
X164871808Y-185239342D01*
X164921611Y-185362405D01*
X164982512Y-185596737D01*
X164987005Y-185617400D01*
X165018963Y-185843096D01*
X169410868Y-185843096D01*
X169445386Y-185657109D01*
X169513058Y-185120273D01*
X169521326Y-185033200D01*
X165854400Y-185033200D01*
X165772109Y-185123337D01*
X165702000Y-185134800D01*
X165566794Y-185079938D01*
X165549600Y-185033200D01*
X165631892Y-184943062D01*
X165702000Y-184931600D01*
X165837207Y-184986461D01*
X165854400Y-185033200D01*
X169521326Y-185033200D01*
X169578982Y-184426072D01*
X169613150Y-183967773D01*
X167253595Y-183967773D01*
X167245804Y-184077503D01*
X167134941Y-184174455D01*
X167004471Y-184371238D01*
X167017719Y-184509188D01*
X167017453Y-184715157D01*
X166894013Y-184798223D01*
X166713550Y-184724706D01*
X166593298Y-184658840D01*
X166565600Y-184682869D01*
X166502968Y-184678481D01*
X166349815Y-184560707D01*
X166326232Y-184538945D01*
X166212392Y-184445934D01*
X166078424Y-184382557D01*
X165885172Y-184343036D01*
X165593481Y-184321593D01*
X165164197Y-184312452D01*
X164776832Y-184310323D01*
X164161078Y-184309109D01*
X163719550Y-184311495D01*
X163423272Y-184320410D01*
X163243272Y-184338785D01*
X163150576Y-184369547D01*
X163116210Y-184415627D01*
X163111200Y-184478712D01*
X163167900Y-184570106D01*
X163363273Y-184593669D01*
X163529341Y-184582520D01*
X163806640Y-184572935D01*
X163945462Y-184627874D01*
X163998391Y-184736922D01*
X164101607Y-184897419D01*
X164189850Y-184931600D01*
X164305916Y-184956691D01*
X164304247Y-185055678D01*
X164178895Y-185264129D01*
X164120282Y-185347715D01*
X163920612Y-185580144D01*
X163787435Y-185621361D01*
X163718703Y-185471443D01*
X163709015Y-185363400D01*
X163688552Y-185215681D01*
X163655196Y-185241505D01*
X163653491Y-185247643D01*
X163533015Y-185414831D01*
X163381284Y-185515385D01*
X163079480Y-185553996D01*
X162794773Y-185417692D01*
X162569541Y-185133181D01*
X162496987Y-184958068D01*
X162376286Y-184659695D01*
X162239200Y-184423239D01*
X162218671Y-184397827D01*
X162134449Y-184266139D01*
X162113539Y-184095668D01*
X162153507Y-183822549D01*
X162190241Y-183651223D01*
X162266875Y-183331778D01*
X162339267Y-183166273D01*
X162447237Y-183110281D01*
X162630606Y-183119377D01*
X162663526Y-183123194D01*
X162906397Y-183110074D01*
X163021736Y-183024615D01*
X162977881Y-182901373D01*
X162912438Y-182851542D01*
X162859119Y-182719902D01*
X162876775Y-182631225D01*
X162937698Y-182522530D01*
X163009036Y-182598005D01*
X163027922Y-182631147D01*
X163148837Y-182730560D01*
X163394343Y-182774296D01*
X163678366Y-182776581D01*
X163995503Y-182755691D01*
X164219485Y-182717482D01*
X164286384Y-182685423D01*
X164438034Y-182600482D01*
X164724775Y-182548434D01*
X165080802Y-182531665D01*
X165440308Y-182552562D01*
X165737487Y-182613512D01*
X165784544Y-182631089D01*
X166051019Y-182717742D01*
X166157415Y-182689325D01*
X166159200Y-182675468D01*
X166219312Y-182639984D01*
X166337000Y-182716010D01*
X166560948Y-182869316D01*
X166692600Y-182931768D01*
X166830963Y-183062568D01*
X166865475Y-183256972D01*
X166786379Y-183416969D01*
X166743400Y-183441912D01*
X166706183Y-183486777D01*
X166791858Y-183501178D01*
X166968251Y-183586031D01*
X167141814Y-183775517D01*
X167253595Y-183967773D01*
X169613150Y-183967773D01*
X169641332Y-183589772D01*
X169661049Y-183281352D01*
X169712652Y-182872570D01*
X169831246Y-182562471D01*
X170010867Y-182301531D01*
X170196356Y-182024198D01*
X170309041Y-181772536D01*
X170324801Y-181683410D01*
X170349682Y-181541830D01*
X170461634Y-181486275D01*
X170716618Y-181489959D01*
X170727382Y-181490728D01*
X171148891Y-181440295D01*
X171450811Y-181230476D01*
X171617302Y-180876608D01*
X171642298Y-180633945D01*
X169249770Y-180633945D01*
X169146718Y-180804510D01*
X169087415Y-180862736D01*
X168967390Y-181005305D01*
X168977733Y-181070395D01*
X168984843Y-181070800D01*
X169090695Y-181153197D01*
X169105600Y-181229196D01*
X169052934Y-181332863D01*
X168978600Y-181311293D01*
X168906544Y-181284657D01*
X168974387Y-181386562D01*
X168982056Y-181396070D01*
X169043715Y-181521312D01*
X169032058Y-181697097D01*
X168939455Y-181978281D01*
X168880456Y-182126632D01*
X168726233Y-182464699D01*
X168601344Y-182661740D01*
X168520086Y-182700346D01*
X168496000Y-182594800D01*
X168418685Y-182496152D01*
X168394400Y-182493200D01*
X168305041Y-182550449D01*
X168304832Y-182569400D01*
X168281634Y-182811932D01*
X168115000Y-182919823D01*
X167932725Y-182854213D01*
X167700960Y-182593930D01*
X167633237Y-182495473D01*
X167450536Y-182221023D01*
X167310155Y-182013241D01*
X167261915Y-181944063D01*
X167121708Y-181881379D01*
X166884526Y-181860941D01*
X166621034Y-181814094D01*
X166371845Y-181631820D01*
X166268352Y-181521078D01*
X166043964Y-181279198D01*
X165917360Y-181188506D01*
X165863050Y-181238655D01*
X165854400Y-181352993D01*
X165798038Y-181570361D01*
X165693182Y-181763757D01*
X165591470Y-181965000D01*
X165635521Y-182117383D01*
X165653825Y-182140762D01*
X165717992Y-182272989D01*
X165614454Y-182349465D01*
X165426361Y-182330577D01*
X165397003Y-182309844D01*
X163601638Y-182309844D01*
X163557530Y-182434090D01*
X163457930Y-182578265D01*
X163370812Y-182557479D01*
X163348267Y-182446772D01*
X163428012Y-182281324D01*
X163483734Y-182246760D01*
X163598839Y-182221170D01*
X163601638Y-182309844D01*
X165397003Y-182309844D01*
X165238802Y-182198121D01*
X165144028Y-182019855D01*
X165143200Y-182003327D01*
X165062169Y-181885728D01*
X164990800Y-181846858D01*
X164859975Y-181844746D01*
X164838400Y-181886788D01*
X164766201Y-181982873D01*
X164746312Y-181985200D01*
X164694050Y-181904288D01*
X164707362Y-181782000D01*
X164708237Y-181630140D01*
X164567289Y-181580450D01*
X164502960Y-181578800D01*
X164205113Y-181608104D01*
X164014377Y-181683326D01*
X163977301Y-181785430D01*
X163981113Y-181792213D01*
X163944168Y-181895119D01*
X163800249Y-181990633D01*
X163558094Y-182042805D01*
X163286942Y-181954924D01*
X163266473Y-181944462D01*
X163003647Y-181850820D01*
X162841604Y-181896544D01*
X162678751Y-181958440D01*
X162616820Y-181942817D01*
X162463801Y-181918804D01*
X162309862Y-181973246D01*
X162244181Y-182068116D01*
X162254180Y-182097446D01*
X162214140Y-182166227D01*
X162072826Y-182188400D01*
X161829177Y-182266795D01*
X161688800Y-182391600D01*
X161536153Y-182548402D01*
X161433992Y-182594800D01*
X161337961Y-182689859D01*
X161281268Y-182953519D01*
X161269628Y-183204400D01*
X161249580Y-183424199D01*
X161220517Y-183596044D01*
X161146822Y-183767442D01*
X160989980Y-183777751D01*
X160947593Y-183765642D01*
X160666089Y-183684519D01*
X160515960Y-183645559D01*
X160319062Y-183529426D01*
X160121920Y-183315603D01*
X160109560Y-183297571D01*
X159925068Y-183078373D01*
X159744942Y-182947283D01*
X159733000Y-182942962D01*
X159582799Y-182850556D01*
X159555200Y-182791153D01*
X159472099Y-182708690D01*
X159391930Y-182696400D01*
X159276481Y-182633709D01*
X159286547Y-182545549D01*
X159261428Y-182385833D01*
X159126716Y-182292818D01*
X157010524Y-182292818D01*
X156905045Y-182412026D01*
X156888200Y-182418524D01*
X156704550Y-182413552D01*
X156522686Y-182355366D01*
X156360705Y-182245175D01*
X156320396Y-182070578D01*
X156338499Y-181913574D01*
X156352655Y-181688836D01*
X156315629Y-181580552D01*
X156307147Y-181578800D01*
X156246815Y-181487540D01*
X156183461Y-181253034D01*
X156148107Y-181045400D01*
X156112438Y-180748703D01*
X156099011Y-180555044D01*
X156104942Y-180512000D01*
X156086572Y-180435777D01*
X156012280Y-180282439D01*
X155945955Y-180106873D01*
X156025768Y-180007304D01*
X156147512Y-179954754D01*
X156337791Y-179848451D01*
X156405600Y-179752514D01*
X156490365Y-179666980D01*
X156602005Y-179648400D01*
X156743442Y-179695597D01*
X156789669Y-179871494D01*
X156789609Y-179957924D01*
X156819409Y-180217105D01*
X156898005Y-180384644D01*
X157002778Y-180563239D01*
X156988061Y-180716723D01*
X156888200Y-180769192D01*
X156742735Y-180846801D01*
X156579267Y-181022384D01*
X156467114Y-181223066D01*
X156453838Y-181436009D01*
X156506983Y-181679591D01*
X156613923Y-181961769D01*
X156750372Y-182078213D01*
X156815917Y-182086800D01*
X156974117Y-182153672D01*
X157010524Y-182292818D01*
X159126716Y-182292818D01*
X159097088Y-182272361D01*
X158857186Y-182239936D01*
X158757881Y-182256513D01*
X158590500Y-182264777D01*
X158553099Y-182140629D01*
X158554353Y-182124297D01*
X158561595Y-181897272D01*
X158557999Y-181658825D01*
X156952454Y-181658825D01*
X156910412Y-181680400D01*
X156823087Y-181598059D01*
X156812000Y-181528000D01*
X156833738Y-181392444D01*
X156851930Y-181375600D01*
X156917443Y-181455046D01*
X156950342Y-181528000D01*
X156952454Y-181658825D01*
X158557999Y-181658825D01*
X158556965Y-181590345D01*
X158555298Y-181546553D01*
X158530266Y-181297295D01*
X158464317Y-181205505D01*
X158346530Y-181219857D01*
X158251797Y-181243085D01*
X158189118Y-181218304D01*
X158150440Y-181111841D01*
X158127707Y-180890024D01*
X158112863Y-180519178D01*
X158104290Y-180207200D01*
X158107501Y-179734662D01*
X158133826Y-179220420D01*
X158154621Y-178988000D01*
X158191328Y-178641692D01*
X158218161Y-178370752D01*
X158227735Y-178256432D01*
X158293037Y-178195855D01*
X158497494Y-178171465D01*
X158866933Y-178181315D01*
X159058222Y-178193794D01*
X159521332Y-178214884D01*
X159818524Y-178189575D01*
X159984219Y-178105457D01*
X160052836Y-177950119D01*
X160061645Y-177832014D01*
X160011615Y-177746576D01*
X159831620Y-177734355D01*
X159656800Y-177757015D01*
X159396035Y-177777681D01*
X159258907Y-177745462D01*
X159250400Y-177726292D01*
X159164159Y-177681112D01*
X158927821Y-177723100D01*
X158925395Y-177723794D01*
X158652003Y-177765202D01*
X158505793Y-177687804D01*
X158484776Y-177479674D01*
X158586959Y-177128887D01*
X158759529Y-176730165D01*
X158877050Y-176402583D01*
X158904930Y-176141033D01*
X158895520Y-176094665D01*
X158899427Y-175895991D01*
X158989395Y-175827029D01*
X159128708Y-175702456D01*
X159148800Y-175627904D01*
X159229074Y-175474033D01*
X159345989Y-175384417D01*
X159526278Y-175339296D01*
X159671749Y-175462744D01*
X159683255Y-175478874D01*
X159780938Y-175599364D01*
X159880063Y-175616946D01*
X160047714Y-175526863D01*
X160171867Y-175444224D01*
X160475733Y-175271225D01*
X160772688Y-175148969D01*
X160815273Y-175137173D01*
X161081029Y-175013779D01*
X161146068Y-174963440D01*
X160121021Y-174963440D01*
X159994819Y-175066924D01*
X159785213Y-175039608D01*
X159715910Y-175014729D01*
X159577706Y-174895505D01*
X159574701Y-174753356D01*
X159702675Y-174673032D01*
X159733000Y-174671555D01*
X159970152Y-174720833D01*
X160117013Y-174835145D01*
X160121021Y-174963440D01*
X161146068Y-174963440D01*
X161351382Y-174804531D01*
X161389436Y-174765780D01*
X161554444Y-174575705D01*
X161583139Y-174488316D01*
X161486966Y-174466812D01*
X161482410Y-174466800D01*
X161301689Y-174382025D01*
X161234579Y-174272985D01*
X161114165Y-174083480D01*
X161024533Y-174022174D01*
X160893904Y-173914310D01*
X160901193Y-173798460D01*
X161015960Y-173755599D01*
X161194017Y-173683922D01*
X161282400Y-173603199D01*
X161350407Y-173476955D01*
X161294841Y-173450800D01*
X161188607Y-173392624D01*
X161243530Y-173226591D01*
X161367342Y-173063607D01*
X161537471Y-172923332D01*
X161663289Y-172957928D01*
X161823406Y-173016243D01*
X161956264Y-172915854D01*
X161997254Y-172759003D01*
X162060971Y-172570312D01*
X162212846Y-172329327D01*
X162244235Y-172289534D01*
X162416544Y-172102883D01*
X162537422Y-172061583D01*
X162654725Y-172130601D01*
X162802091Y-172216514D01*
X162897839Y-172146258D01*
X162903373Y-172137486D01*
X163030370Y-172048698D01*
X163256030Y-171968025D01*
X163509989Y-171910869D01*
X163721882Y-171892628D01*
X163821344Y-171928702D01*
X163822400Y-171936352D01*
X163909904Y-171994007D01*
X164101800Y-172010121D01*
X164385793Y-172042280D01*
X164714618Y-172136049D01*
X165004529Y-172262037D01*
X165167045Y-172384000D01*
X165233187Y-172410123D01*
X165243245Y-172351753D01*
X165313441Y-172264728D01*
X165473400Y-172288983D01*
X165662048Y-172369944D01*
X165729004Y-172427641D01*
X165836801Y-172462695D01*
X166064524Y-172458878D01*
X166097481Y-172455357D01*
X166378404Y-172463493D01*
X166560068Y-172591210D01*
X166589637Y-172630622D01*
X166774890Y-172784840D01*
X166906960Y-172781805D01*
X167046892Y-172786178D01*
X167073600Y-172881129D01*
X167158376Y-173016930D01*
X167276800Y-173044400D01*
X167441944Y-173083938D01*
X167480000Y-173138742D01*
X167544709Y-173280934D01*
X167630055Y-173383140D01*
X167746316Y-173590263D01*
X167804065Y-173847585D01*
X167844672Y-174063165D01*
X167941833Y-174119003D01*
X168009611Y-174104341D01*
X168126077Y-174097363D01*
X168179015Y-174205058D01*
X168191200Y-174459953D01*
X168215537Y-174745106D01*
X168296535Y-174864519D01*
X168343600Y-174873200D01*
X168470608Y-174943336D01*
X168484287Y-175087306D01*
X168377091Y-175205448D01*
X168369000Y-175208674D01*
X168320259Y-175284956D01*
X168436809Y-175406015D01*
X168602439Y-175624348D01*
X168654848Y-175798674D01*
X168706330Y-176100546D01*
X168750966Y-176268965D01*
X168759645Y-176478944D01*
X168623190Y-176564585D01*
X168358887Y-176523661D01*
X168004464Y-176365166D01*
X167654540Y-176204404D01*
X167430950Y-176175972D01*
X167375150Y-176198158D01*
X167142148Y-176282831D01*
X167040943Y-176294044D01*
X166817780Y-176364054D01*
X166703486Y-176448000D01*
X166605188Y-176565670D01*
X166660577Y-176599462D01*
X166699873Y-176600400D01*
X166865076Y-176682143D01*
X166904241Y-176745240D01*
X167001739Y-176831723D01*
X167230885Y-176865092D01*
X167527871Y-176858514D01*
X167918258Y-176858855D01*
X168178543Y-176921576D01*
X168321361Y-177011261D01*
X168468328Y-177166093D01*
X168453412Y-177286324D01*
X168422663Y-177321846D01*
X168366574Y-177435989D01*
X168482092Y-177538363D01*
X168524263Y-177560201D01*
X168712629Y-177743583D01*
X168780382Y-177923743D01*
X168827935Y-178183683D01*
X168870093Y-178327600D01*
X168912516Y-178529282D01*
X168940267Y-178838605D01*
X168952580Y-179193481D01*
X168948691Y-179531818D01*
X168927834Y-179791529D01*
X168889590Y-179910317D01*
X168803902Y-180046253D01*
X168836287Y-180197057D01*
X168949626Y-180258000D01*
X169112318Y-180338586D01*
X169204598Y-180456336D01*
X169249770Y-180633945D01*
X171642298Y-180633945D01*
X171645601Y-180601885D01*
X171667474Y-180320441D01*
X171722309Y-180134229D01*
X171747201Y-180105600D01*
X171835814Y-179944017D01*
X171840675Y-179669340D01*
X171769879Y-179349734D01*
X171631521Y-179053362D01*
X171620200Y-179036257D01*
X171408028Y-178770360D01*
X171245706Y-178659457D01*
X171152468Y-178712315D01*
X171137600Y-178816263D01*
X171066234Y-179020948D01*
X170897462Y-179091404D01*
X170699277Y-179011444D01*
X170629600Y-178937200D01*
X170432175Y-178783769D01*
X170295225Y-178790714D01*
X170150358Y-178797707D01*
X170121600Y-178744870D01*
X170192689Y-178637612D01*
X170223200Y-178632400D01*
X170316603Y-178565420D01*
X170304169Y-178425373D01*
X170199483Y-178303595D01*
X170172401Y-178290858D01*
X170114129Y-178216621D01*
X169858580Y-178216621D01*
X169814699Y-178279332D01*
X169622928Y-178406064D01*
X169415243Y-178412068D01*
X169279103Y-178295118D01*
X169278271Y-178292986D01*
X169279671Y-178091251D01*
X169310925Y-178019363D01*
X169411293Y-177935706D01*
X169583580Y-177969677D01*
X169667463Y-178005708D01*
X169846985Y-178111900D01*
X169858580Y-178216621D01*
X170114129Y-178216621D01*
X170066191Y-178155551D01*
X170018202Y-177909323D01*
X170028434Y-177635935D01*
X170096886Y-177419148D01*
X170172401Y-177348341D01*
X170287857Y-177212423D01*
X170321911Y-176993355D01*
X170266606Y-176797451D01*
X170217252Y-176749123D01*
X170157853Y-176607905D01*
X170175439Y-176383366D01*
X170184554Y-176095299D01*
X170119221Y-175937132D01*
X170043490Y-175738111D01*
X170056245Y-175636493D01*
X170063911Y-175504630D01*
X170027220Y-175482800D01*
X169995593Y-175387647D01*
X169972561Y-175127763D01*
X169960113Y-174741508D01*
X169960234Y-174267245D01*
X169961168Y-174207399D01*
X169963242Y-173719412D01*
X169953036Y-173309159D01*
X169932416Y-173017087D01*
X169903249Y-172883648D01*
X169899960Y-172880602D01*
X169836537Y-172750595D01*
X169816801Y-172573405D01*
X169743367Y-172389370D01*
X169545573Y-172111512D01*
X169257180Y-171773631D01*
X168911951Y-171409528D01*
X168543645Y-171053002D01*
X168186024Y-170737856D01*
X167872850Y-170497888D01*
X167637885Y-170366901D01*
X167602570Y-170356605D01*
X167320584Y-170244318D01*
X167124401Y-170098000D01*
X166894049Y-169932128D01*
X166657271Y-169841819D01*
X166419621Y-169756664D01*
X166286806Y-169655821D01*
X166119627Y-169489353D01*
X165784100Y-169244487D01*
X165356659Y-168969897D01*
X165132949Y-168866786D01*
X164974571Y-168850248D01*
X164812917Y-168835710D01*
X164568853Y-168743799D01*
X164526235Y-168722591D01*
X164093973Y-168604808D01*
X163637253Y-168652817D01*
M02*
