G04 #@! TF.GenerationSoftware,KiCad,Pcbnew,(5.1.2)-2*
G04 #@! TF.CreationDate,2021-11-10T11:28:23-03:00*
G04 #@! TF.ProjectId,MAG_Plus,4d41475f-506c-4757-932e-6b696361645f,rev?*
G04 #@! TF.SameCoordinates,Original*
G04 #@! TF.FileFunction,Copper,L2,Bot*
G04 #@! TF.FilePolarity,Positive*
%FSLAX46Y46*%
G04 Gerber Fmt 4.6, Leading zero omitted, Abs format (unit mm)*
G04 Created by KiCad (PCBNEW (5.1.2)-2) date 2021-11-10 11:28:23*
%MOMM*%
%LPD*%
G04 APERTURE LIST*
%ADD10C,0.800000*%
%ADD11C,0.250000*%
%ADD12C,0.254000*%
G04 APERTURE END LIST*
D10*
X160750000Y-182500000D03*
X158500000Y-182000000D03*
X163187347Y-182362653D03*
X161625000Y-182320484D03*
X157650000Y-177550000D03*
X163000000Y-176750000D03*
X166600000Y-174500000D03*
X164937347Y-177012653D03*
X168900000Y-191200000D03*
X160800000Y-191800000D03*
X156475000Y-183700000D03*
X153800000Y-184950000D03*
X175150000Y-183200000D03*
X174400000Y-190650000D03*
D11*
X160750000Y-182500000D02*
X160250000Y-182000000D01*
X159065685Y-182000000D02*
X158500000Y-182000000D01*
X160250000Y-182000000D02*
X159065685Y-182000000D01*
X161895484Y-182050000D02*
X161625000Y-182320484D01*
X163187347Y-182362653D02*
X162874694Y-182050000D01*
X162874694Y-182050000D02*
X161895484Y-182050000D01*
X157650000Y-177550000D02*
X158450000Y-176750000D01*
X158450000Y-176750000D02*
X163000000Y-176750000D01*
X166600000Y-174500000D02*
X166600000Y-175350000D01*
X166600000Y-175350000D02*
X164937347Y-177012653D01*
X155050000Y-183700000D02*
X153800000Y-184950000D01*
X156475000Y-183700000D02*
X155050000Y-183700000D01*
X161250000Y-192250000D02*
X160800000Y-191800000D01*
X168350000Y-192250000D02*
X161250000Y-192250000D01*
X168900000Y-191200000D02*
X168900000Y-191700000D01*
X168900000Y-191700000D02*
X168350000Y-192250000D01*
X175150000Y-183200000D02*
X174400000Y-183950000D01*
X174400000Y-183950000D02*
X174400000Y-190650000D01*
D12*
G36*
X177548000Y-192348000D02*
G01*
X168961934Y-192348000D01*
X169237538Y-192072397D01*
X169256684Y-192056684D01*
X169281339Y-192026643D01*
X169303739Y-191999348D01*
X169319417Y-191980245D01*
X169366031Y-191893036D01*
X169392640Y-191805320D01*
X169395309Y-191803536D01*
X169503536Y-191695309D01*
X169588569Y-191568048D01*
X169647141Y-191426643D01*
X169677000Y-191276528D01*
X169677000Y-191123472D01*
X169647141Y-190973357D01*
X169588569Y-190831952D01*
X169503536Y-190704691D01*
X169395309Y-190596464D01*
X169360900Y-190573472D01*
X173623000Y-190573472D01*
X173623000Y-190726528D01*
X173652859Y-190876643D01*
X173711431Y-191018048D01*
X173796464Y-191145309D01*
X173904691Y-191253536D01*
X174031952Y-191338569D01*
X174173357Y-191397141D01*
X174323472Y-191427000D01*
X174476528Y-191427000D01*
X174626643Y-191397141D01*
X174768048Y-191338569D01*
X174895309Y-191253536D01*
X175003536Y-191145309D01*
X175088569Y-191018048D01*
X175147141Y-190876643D01*
X175177000Y-190726528D01*
X175177000Y-190573472D01*
X175147141Y-190423357D01*
X175088569Y-190281952D01*
X175003536Y-190154691D01*
X174902000Y-190053155D01*
X174902000Y-184157934D01*
X175082934Y-183977000D01*
X175226528Y-183977000D01*
X175376643Y-183947141D01*
X175518048Y-183888569D01*
X175645309Y-183803536D01*
X175753536Y-183695309D01*
X175838569Y-183568048D01*
X175897141Y-183426643D01*
X175927000Y-183276528D01*
X175927000Y-183123472D01*
X175897141Y-182973357D01*
X175838569Y-182831952D01*
X175753536Y-182704691D01*
X175645309Y-182596464D01*
X175518048Y-182511431D01*
X175376643Y-182452859D01*
X175226528Y-182423000D01*
X175073472Y-182423000D01*
X174923357Y-182452859D01*
X174781952Y-182511431D01*
X174654691Y-182596464D01*
X174546464Y-182704691D01*
X174461431Y-182831952D01*
X174402859Y-182973357D01*
X174373000Y-183123472D01*
X174373000Y-183267066D01*
X174062467Y-183577599D01*
X174043316Y-183593316D01*
X173980583Y-183669755D01*
X173933969Y-183756965D01*
X173905264Y-183851592D01*
X173898000Y-183925348D01*
X173898000Y-183925357D01*
X173895573Y-183950000D01*
X173898000Y-183974643D01*
X173898001Y-190053154D01*
X173796464Y-190154691D01*
X173711431Y-190281952D01*
X173652859Y-190423357D01*
X173623000Y-190573472D01*
X169360900Y-190573472D01*
X169268048Y-190511431D01*
X169126643Y-190452859D01*
X168976528Y-190423000D01*
X168823472Y-190423000D01*
X168673357Y-190452859D01*
X168531952Y-190511431D01*
X168404691Y-190596464D01*
X168296464Y-190704691D01*
X168211431Y-190831952D01*
X168152859Y-190973357D01*
X168123000Y-191123472D01*
X168123000Y-191276528D01*
X168152859Y-191426643D01*
X168211431Y-191568048D01*
X168255726Y-191634340D01*
X168142066Y-191748000D01*
X161577000Y-191748000D01*
X161577000Y-191723472D01*
X161547141Y-191573357D01*
X161488569Y-191431952D01*
X161403536Y-191304691D01*
X161295309Y-191196464D01*
X161168048Y-191111431D01*
X161026643Y-191052859D01*
X160876528Y-191023000D01*
X160723472Y-191023000D01*
X160573357Y-191052859D01*
X160431952Y-191111431D01*
X160304691Y-191196464D01*
X160196464Y-191304691D01*
X160111431Y-191431952D01*
X160052859Y-191573357D01*
X160023000Y-191723472D01*
X160023000Y-191876528D01*
X160052859Y-192026643D01*
X160111431Y-192168048D01*
X160196464Y-192295309D01*
X160249155Y-192348000D01*
X148252000Y-192348000D01*
X148252000Y-184873472D01*
X153023000Y-184873472D01*
X153023000Y-185026528D01*
X153052859Y-185176643D01*
X153111431Y-185318048D01*
X153196464Y-185445309D01*
X153304691Y-185553536D01*
X153431952Y-185638569D01*
X153573357Y-185697141D01*
X153723472Y-185727000D01*
X153876528Y-185727000D01*
X154026643Y-185697141D01*
X154168048Y-185638569D01*
X154295309Y-185553536D01*
X154403536Y-185445309D01*
X154488569Y-185318048D01*
X154547141Y-185176643D01*
X154577000Y-185026528D01*
X154577000Y-184882934D01*
X155257935Y-184202000D01*
X155878155Y-184202000D01*
X155979691Y-184303536D01*
X156106952Y-184388569D01*
X156248357Y-184447141D01*
X156398472Y-184477000D01*
X156551528Y-184477000D01*
X156701643Y-184447141D01*
X156843048Y-184388569D01*
X156970309Y-184303536D01*
X157078536Y-184195309D01*
X157163569Y-184068048D01*
X157222141Y-183926643D01*
X157252000Y-183776528D01*
X157252000Y-183623472D01*
X157222141Y-183473357D01*
X157163569Y-183331952D01*
X157078536Y-183204691D01*
X156970309Y-183096464D01*
X156843048Y-183011431D01*
X156701643Y-182952859D01*
X156551528Y-182923000D01*
X156398472Y-182923000D01*
X156248357Y-182952859D01*
X156106952Y-183011431D01*
X155979691Y-183096464D01*
X155878155Y-183198000D01*
X155074643Y-183198000D01*
X155050000Y-183195573D01*
X155025357Y-183198000D01*
X155025347Y-183198000D01*
X154951591Y-183205264D01*
X154856964Y-183233969D01*
X154769755Y-183280583D01*
X154693316Y-183343316D01*
X154677603Y-183362462D01*
X153867066Y-184173000D01*
X153723472Y-184173000D01*
X153573357Y-184202859D01*
X153431952Y-184261431D01*
X153304691Y-184346464D01*
X153196464Y-184454691D01*
X153111431Y-184581952D01*
X153052859Y-184723357D01*
X153023000Y-184873472D01*
X148252000Y-184873472D01*
X148252000Y-181923472D01*
X157723000Y-181923472D01*
X157723000Y-182076528D01*
X157752859Y-182226643D01*
X157811431Y-182368048D01*
X157896464Y-182495309D01*
X158004691Y-182603536D01*
X158131952Y-182688569D01*
X158273357Y-182747141D01*
X158423472Y-182777000D01*
X158576528Y-182777000D01*
X158726643Y-182747141D01*
X158868048Y-182688569D01*
X158995309Y-182603536D01*
X159096845Y-182502000D01*
X159973000Y-182502000D01*
X159973000Y-182576528D01*
X160002859Y-182726643D01*
X160061431Y-182868048D01*
X160146464Y-182995309D01*
X160254691Y-183103536D01*
X160381952Y-183188569D01*
X160523357Y-183247141D01*
X160673472Y-183277000D01*
X160826528Y-183277000D01*
X160976643Y-183247141D01*
X161118048Y-183188569D01*
X161245309Y-183103536D01*
X161315529Y-183033316D01*
X161398357Y-183067625D01*
X161548472Y-183097484D01*
X161701528Y-183097484D01*
X161851643Y-183067625D01*
X161993048Y-183009053D01*
X162120309Y-182924020D01*
X162228536Y-182815793D01*
X162313569Y-182688532D01*
X162370123Y-182552000D01*
X162432788Y-182552000D01*
X162440206Y-182589296D01*
X162498778Y-182730701D01*
X162583811Y-182857962D01*
X162692038Y-182966189D01*
X162819299Y-183051222D01*
X162960704Y-183109794D01*
X163110819Y-183139653D01*
X163263875Y-183139653D01*
X163413990Y-183109794D01*
X163555395Y-183051222D01*
X163682656Y-182966189D01*
X163790883Y-182857962D01*
X163875916Y-182730701D01*
X163934488Y-182589296D01*
X163964347Y-182439181D01*
X163964347Y-182286125D01*
X163934488Y-182136010D01*
X163875916Y-181994605D01*
X163790883Y-181867344D01*
X163682656Y-181759117D01*
X163555395Y-181674084D01*
X163413990Y-181615512D01*
X163263875Y-181585653D01*
X163110819Y-181585653D01*
X163081712Y-181591443D01*
X163067730Y-181583969D01*
X162973103Y-181555264D01*
X162899347Y-181548000D01*
X162899337Y-181548000D01*
X162874694Y-181545573D01*
X162850051Y-181548000D01*
X161920126Y-181548000D01*
X161895483Y-181545573D01*
X161870840Y-181548000D01*
X161870831Y-181548000D01*
X161797075Y-181555264D01*
X161782690Y-181559628D01*
X161701528Y-181543484D01*
X161548472Y-181543484D01*
X161398357Y-181573343D01*
X161256952Y-181631915D01*
X161129691Y-181716948D01*
X161059471Y-181787168D01*
X160976643Y-181752859D01*
X160826528Y-181723000D01*
X160682934Y-181723000D01*
X160622401Y-181662467D01*
X160606684Y-181643316D01*
X160530245Y-181580583D01*
X160443036Y-181533969D01*
X160348409Y-181505264D01*
X160274653Y-181498000D01*
X160274643Y-181498000D01*
X160250000Y-181495573D01*
X160225357Y-181498000D01*
X159096845Y-181498000D01*
X158995309Y-181396464D01*
X158868048Y-181311431D01*
X158726643Y-181252859D01*
X158576528Y-181223000D01*
X158423472Y-181223000D01*
X158273357Y-181252859D01*
X158131952Y-181311431D01*
X158004691Y-181396464D01*
X157896464Y-181504691D01*
X157811431Y-181631952D01*
X157752859Y-181773357D01*
X157723000Y-181923472D01*
X148252000Y-181923472D01*
X148252000Y-177473472D01*
X156873000Y-177473472D01*
X156873000Y-177626528D01*
X156902859Y-177776643D01*
X156961431Y-177918048D01*
X157046464Y-178045309D01*
X157154691Y-178153536D01*
X157281952Y-178238569D01*
X157423357Y-178297141D01*
X157573472Y-178327000D01*
X157726528Y-178327000D01*
X157876643Y-178297141D01*
X158018048Y-178238569D01*
X158145309Y-178153536D01*
X158253536Y-178045309D01*
X158338569Y-177918048D01*
X158397141Y-177776643D01*
X158427000Y-177626528D01*
X158427000Y-177482935D01*
X158657936Y-177252000D01*
X162403155Y-177252000D01*
X162504691Y-177353536D01*
X162631952Y-177438569D01*
X162773357Y-177497141D01*
X162923472Y-177527000D01*
X163076528Y-177527000D01*
X163226643Y-177497141D01*
X163368048Y-177438569D01*
X163495309Y-177353536D01*
X163603536Y-177245309D01*
X163688569Y-177118048D01*
X163747141Y-176976643D01*
X163755200Y-176936125D01*
X164160347Y-176936125D01*
X164160347Y-177089181D01*
X164190206Y-177239296D01*
X164248778Y-177380701D01*
X164333811Y-177507962D01*
X164442038Y-177616189D01*
X164569299Y-177701222D01*
X164710704Y-177759794D01*
X164860819Y-177789653D01*
X165013875Y-177789653D01*
X165163990Y-177759794D01*
X165305395Y-177701222D01*
X165432656Y-177616189D01*
X165540883Y-177507962D01*
X165625916Y-177380701D01*
X165684488Y-177239296D01*
X165714347Y-177089181D01*
X165714347Y-176945587D01*
X166937538Y-175722397D01*
X166956684Y-175706684D01*
X167019417Y-175630245D01*
X167066031Y-175543036D01*
X167094736Y-175448409D01*
X167102000Y-175374653D01*
X167102000Y-175374644D01*
X167104427Y-175350001D01*
X167102000Y-175325358D01*
X167102000Y-175096845D01*
X167203536Y-174995309D01*
X167288569Y-174868048D01*
X167347141Y-174726643D01*
X167377000Y-174576528D01*
X167377000Y-174423472D01*
X167347141Y-174273357D01*
X167288569Y-174131952D01*
X167203536Y-174004691D01*
X167095309Y-173896464D01*
X166968048Y-173811431D01*
X166826643Y-173752859D01*
X166676528Y-173723000D01*
X166523472Y-173723000D01*
X166373357Y-173752859D01*
X166231952Y-173811431D01*
X166104691Y-173896464D01*
X165996464Y-174004691D01*
X165911431Y-174131952D01*
X165852859Y-174273357D01*
X165823000Y-174423472D01*
X165823000Y-174576528D01*
X165852859Y-174726643D01*
X165911431Y-174868048D01*
X165996464Y-174995309D01*
X166098001Y-175096846D01*
X166098001Y-175142064D01*
X165004413Y-176235653D01*
X164860819Y-176235653D01*
X164710704Y-176265512D01*
X164569299Y-176324084D01*
X164442038Y-176409117D01*
X164333811Y-176517344D01*
X164248778Y-176644605D01*
X164190206Y-176786010D01*
X164160347Y-176936125D01*
X163755200Y-176936125D01*
X163777000Y-176826528D01*
X163777000Y-176673472D01*
X163747141Y-176523357D01*
X163688569Y-176381952D01*
X163603536Y-176254691D01*
X163495309Y-176146464D01*
X163368048Y-176061431D01*
X163226643Y-176002859D01*
X163076528Y-175973000D01*
X162923472Y-175973000D01*
X162773357Y-176002859D01*
X162631952Y-176061431D01*
X162504691Y-176146464D01*
X162403155Y-176248000D01*
X158474643Y-176248000D01*
X158450000Y-176245573D01*
X158425357Y-176248000D01*
X158425347Y-176248000D01*
X158351591Y-176255264D01*
X158256964Y-176283969D01*
X158169755Y-176330583D01*
X158169753Y-176330584D01*
X158169754Y-176330584D01*
X158112464Y-176377600D01*
X158112456Y-176377608D01*
X158093316Y-176393316D01*
X158077607Y-176412457D01*
X157717065Y-176773000D01*
X157573472Y-176773000D01*
X157423357Y-176802859D01*
X157281952Y-176861431D01*
X157154691Y-176946464D01*
X157046464Y-177054691D01*
X156961431Y-177181952D01*
X156902859Y-177323357D01*
X156873000Y-177473472D01*
X148252000Y-177473472D01*
X148252000Y-167552000D01*
X177548001Y-167552000D01*
X177548000Y-192348000D01*
X177548000Y-192348000D01*
G37*
X177548000Y-192348000D02*
X168961934Y-192348000D01*
X169237538Y-192072397D01*
X169256684Y-192056684D01*
X169281339Y-192026643D01*
X169303739Y-191999348D01*
X169319417Y-191980245D01*
X169366031Y-191893036D01*
X169392640Y-191805320D01*
X169395309Y-191803536D01*
X169503536Y-191695309D01*
X169588569Y-191568048D01*
X169647141Y-191426643D01*
X169677000Y-191276528D01*
X169677000Y-191123472D01*
X169647141Y-190973357D01*
X169588569Y-190831952D01*
X169503536Y-190704691D01*
X169395309Y-190596464D01*
X169360900Y-190573472D01*
X173623000Y-190573472D01*
X173623000Y-190726528D01*
X173652859Y-190876643D01*
X173711431Y-191018048D01*
X173796464Y-191145309D01*
X173904691Y-191253536D01*
X174031952Y-191338569D01*
X174173357Y-191397141D01*
X174323472Y-191427000D01*
X174476528Y-191427000D01*
X174626643Y-191397141D01*
X174768048Y-191338569D01*
X174895309Y-191253536D01*
X175003536Y-191145309D01*
X175088569Y-191018048D01*
X175147141Y-190876643D01*
X175177000Y-190726528D01*
X175177000Y-190573472D01*
X175147141Y-190423357D01*
X175088569Y-190281952D01*
X175003536Y-190154691D01*
X174902000Y-190053155D01*
X174902000Y-184157934D01*
X175082934Y-183977000D01*
X175226528Y-183977000D01*
X175376643Y-183947141D01*
X175518048Y-183888569D01*
X175645309Y-183803536D01*
X175753536Y-183695309D01*
X175838569Y-183568048D01*
X175897141Y-183426643D01*
X175927000Y-183276528D01*
X175927000Y-183123472D01*
X175897141Y-182973357D01*
X175838569Y-182831952D01*
X175753536Y-182704691D01*
X175645309Y-182596464D01*
X175518048Y-182511431D01*
X175376643Y-182452859D01*
X175226528Y-182423000D01*
X175073472Y-182423000D01*
X174923357Y-182452859D01*
X174781952Y-182511431D01*
X174654691Y-182596464D01*
X174546464Y-182704691D01*
X174461431Y-182831952D01*
X174402859Y-182973357D01*
X174373000Y-183123472D01*
X174373000Y-183267066D01*
X174062467Y-183577599D01*
X174043316Y-183593316D01*
X173980583Y-183669755D01*
X173933969Y-183756965D01*
X173905264Y-183851592D01*
X173898000Y-183925348D01*
X173898000Y-183925357D01*
X173895573Y-183950000D01*
X173898000Y-183974643D01*
X173898001Y-190053154D01*
X173796464Y-190154691D01*
X173711431Y-190281952D01*
X173652859Y-190423357D01*
X173623000Y-190573472D01*
X169360900Y-190573472D01*
X169268048Y-190511431D01*
X169126643Y-190452859D01*
X168976528Y-190423000D01*
X168823472Y-190423000D01*
X168673357Y-190452859D01*
X168531952Y-190511431D01*
X168404691Y-190596464D01*
X168296464Y-190704691D01*
X168211431Y-190831952D01*
X168152859Y-190973357D01*
X168123000Y-191123472D01*
X168123000Y-191276528D01*
X168152859Y-191426643D01*
X168211431Y-191568048D01*
X168255726Y-191634340D01*
X168142066Y-191748000D01*
X161577000Y-191748000D01*
X161577000Y-191723472D01*
X161547141Y-191573357D01*
X161488569Y-191431952D01*
X161403536Y-191304691D01*
X161295309Y-191196464D01*
X161168048Y-191111431D01*
X161026643Y-191052859D01*
X160876528Y-191023000D01*
X160723472Y-191023000D01*
X160573357Y-191052859D01*
X160431952Y-191111431D01*
X160304691Y-191196464D01*
X160196464Y-191304691D01*
X160111431Y-191431952D01*
X160052859Y-191573357D01*
X160023000Y-191723472D01*
X160023000Y-191876528D01*
X160052859Y-192026643D01*
X160111431Y-192168048D01*
X160196464Y-192295309D01*
X160249155Y-192348000D01*
X148252000Y-192348000D01*
X148252000Y-184873472D01*
X153023000Y-184873472D01*
X153023000Y-185026528D01*
X153052859Y-185176643D01*
X153111431Y-185318048D01*
X153196464Y-185445309D01*
X153304691Y-185553536D01*
X153431952Y-185638569D01*
X153573357Y-185697141D01*
X153723472Y-185727000D01*
X153876528Y-185727000D01*
X154026643Y-185697141D01*
X154168048Y-185638569D01*
X154295309Y-185553536D01*
X154403536Y-185445309D01*
X154488569Y-185318048D01*
X154547141Y-185176643D01*
X154577000Y-185026528D01*
X154577000Y-184882934D01*
X155257935Y-184202000D01*
X155878155Y-184202000D01*
X155979691Y-184303536D01*
X156106952Y-184388569D01*
X156248357Y-184447141D01*
X156398472Y-184477000D01*
X156551528Y-184477000D01*
X156701643Y-184447141D01*
X156843048Y-184388569D01*
X156970309Y-184303536D01*
X157078536Y-184195309D01*
X157163569Y-184068048D01*
X157222141Y-183926643D01*
X157252000Y-183776528D01*
X157252000Y-183623472D01*
X157222141Y-183473357D01*
X157163569Y-183331952D01*
X157078536Y-183204691D01*
X156970309Y-183096464D01*
X156843048Y-183011431D01*
X156701643Y-182952859D01*
X156551528Y-182923000D01*
X156398472Y-182923000D01*
X156248357Y-182952859D01*
X156106952Y-183011431D01*
X155979691Y-183096464D01*
X155878155Y-183198000D01*
X155074643Y-183198000D01*
X155050000Y-183195573D01*
X155025357Y-183198000D01*
X155025347Y-183198000D01*
X154951591Y-183205264D01*
X154856964Y-183233969D01*
X154769755Y-183280583D01*
X154693316Y-183343316D01*
X154677603Y-183362462D01*
X153867066Y-184173000D01*
X153723472Y-184173000D01*
X153573357Y-184202859D01*
X153431952Y-184261431D01*
X153304691Y-184346464D01*
X153196464Y-184454691D01*
X153111431Y-184581952D01*
X153052859Y-184723357D01*
X153023000Y-184873472D01*
X148252000Y-184873472D01*
X148252000Y-181923472D01*
X157723000Y-181923472D01*
X157723000Y-182076528D01*
X157752859Y-182226643D01*
X157811431Y-182368048D01*
X157896464Y-182495309D01*
X158004691Y-182603536D01*
X158131952Y-182688569D01*
X158273357Y-182747141D01*
X158423472Y-182777000D01*
X158576528Y-182777000D01*
X158726643Y-182747141D01*
X158868048Y-182688569D01*
X158995309Y-182603536D01*
X159096845Y-182502000D01*
X159973000Y-182502000D01*
X159973000Y-182576528D01*
X160002859Y-182726643D01*
X160061431Y-182868048D01*
X160146464Y-182995309D01*
X160254691Y-183103536D01*
X160381952Y-183188569D01*
X160523357Y-183247141D01*
X160673472Y-183277000D01*
X160826528Y-183277000D01*
X160976643Y-183247141D01*
X161118048Y-183188569D01*
X161245309Y-183103536D01*
X161315529Y-183033316D01*
X161398357Y-183067625D01*
X161548472Y-183097484D01*
X161701528Y-183097484D01*
X161851643Y-183067625D01*
X161993048Y-183009053D01*
X162120309Y-182924020D01*
X162228536Y-182815793D01*
X162313569Y-182688532D01*
X162370123Y-182552000D01*
X162432788Y-182552000D01*
X162440206Y-182589296D01*
X162498778Y-182730701D01*
X162583811Y-182857962D01*
X162692038Y-182966189D01*
X162819299Y-183051222D01*
X162960704Y-183109794D01*
X163110819Y-183139653D01*
X163263875Y-183139653D01*
X163413990Y-183109794D01*
X163555395Y-183051222D01*
X163682656Y-182966189D01*
X163790883Y-182857962D01*
X163875916Y-182730701D01*
X163934488Y-182589296D01*
X163964347Y-182439181D01*
X163964347Y-182286125D01*
X163934488Y-182136010D01*
X163875916Y-181994605D01*
X163790883Y-181867344D01*
X163682656Y-181759117D01*
X163555395Y-181674084D01*
X163413990Y-181615512D01*
X163263875Y-181585653D01*
X163110819Y-181585653D01*
X163081712Y-181591443D01*
X163067730Y-181583969D01*
X162973103Y-181555264D01*
X162899347Y-181548000D01*
X162899337Y-181548000D01*
X162874694Y-181545573D01*
X162850051Y-181548000D01*
X161920126Y-181548000D01*
X161895483Y-181545573D01*
X161870840Y-181548000D01*
X161870831Y-181548000D01*
X161797075Y-181555264D01*
X161782690Y-181559628D01*
X161701528Y-181543484D01*
X161548472Y-181543484D01*
X161398357Y-181573343D01*
X161256952Y-181631915D01*
X161129691Y-181716948D01*
X161059471Y-181787168D01*
X160976643Y-181752859D01*
X160826528Y-181723000D01*
X160682934Y-181723000D01*
X160622401Y-181662467D01*
X160606684Y-181643316D01*
X160530245Y-181580583D01*
X160443036Y-181533969D01*
X160348409Y-181505264D01*
X160274653Y-181498000D01*
X160274643Y-181498000D01*
X160250000Y-181495573D01*
X160225357Y-181498000D01*
X159096845Y-181498000D01*
X158995309Y-181396464D01*
X158868048Y-181311431D01*
X158726643Y-181252859D01*
X158576528Y-181223000D01*
X158423472Y-181223000D01*
X158273357Y-181252859D01*
X158131952Y-181311431D01*
X158004691Y-181396464D01*
X157896464Y-181504691D01*
X157811431Y-181631952D01*
X157752859Y-181773357D01*
X157723000Y-181923472D01*
X148252000Y-181923472D01*
X148252000Y-177473472D01*
X156873000Y-177473472D01*
X156873000Y-177626528D01*
X156902859Y-177776643D01*
X156961431Y-177918048D01*
X157046464Y-178045309D01*
X157154691Y-178153536D01*
X157281952Y-178238569D01*
X157423357Y-178297141D01*
X157573472Y-178327000D01*
X157726528Y-178327000D01*
X157876643Y-178297141D01*
X158018048Y-178238569D01*
X158145309Y-178153536D01*
X158253536Y-178045309D01*
X158338569Y-177918048D01*
X158397141Y-177776643D01*
X158427000Y-177626528D01*
X158427000Y-177482935D01*
X158657936Y-177252000D01*
X162403155Y-177252000D01*
X162504691Y-177353536D01*
X162631952Y-177438569D01*
X162773357Y-177497141D01*
X162923472Y-177527000D01*
X163076528Y-177527000D01*
X163226643Y-177497141D01*
X163368048Y-177438569D01*
X163495309Y-177353536D01*
X163603536Y-177245309D01*
X163688569Y-177118048D01*
X163747141Y-176976643D01*
X163755200Y-176936125D01*
X164160347Y-176936125D01*
X164160347Y-177089181D01*
X164190206Y-177239296D01*
X164248778Y-177380701D01*
X164333811Y-177507962D01*
X164442038Y-177616189D01*
X164569299Y-177701222D01*
X164710704Y-177759794D01*
X164860819Y-177789653D01*
X165013875Y-177789653D01*
X165163990Y-177759794D01*
X165305395Y-177701222D01*
X165432656Y-177616189D01*
X165540883Y-177507962D01*
X165625916Y-177380701D01*
X165684488Y-177239296D01*
X165714347Y-177089181D01*
X165714347Y-176945587D01*
X166937538Y-175722397D01*
X166956684Y-175706684D01*
X167019417Y-175630245D01*
X167066031Y-175543036D01*
X167094736Y-175448409D01*
X167102000Y-175374653D01*
X167102000Y-175374644D01*
X167104427Y-175350001D01*
X167102000Y-175325358D01*
X167102000Y-175096845D01*
X167203536Y-174995309D01*
X167288569Y-174868048D01*
X167347141Y-174726643D01*
X167377000Y-174576528D01*
X167377000Y-174423472D01*
X167347141Y-174273357D01*
X167288569Y-174131952D01*
X167203536Y-174004691D01*
X167095309Y-173896464D01*
X166968048Y-173811431D01*
X166826643Y-173752859D01*
X166676528Y-173723000D01*
X166523472Y-173723000D01*
X166373357Y-173752859D01*
X166231952Y-173811431D01*
X166104691Y-173896464D01*
X165996464Y-174004691D01*
X165911431Y-174131952D01*
X165852859Y-174273357D01*
X165823000Y-174423472D01*
X165823000Y-174576528D01*
X165852859Y-174726643D01*
X165911431Y-174868048D01*
X165996464Y-174995309D01*
X166098001Y-175096846D01*
X166098001Y-175142064D01*
X165004413Y-176235653D01*
X164860819Y-176235653D01*
X164710704Y-176265512D01*
X164569299Y-176324084D01*
X164442038Y-176409117D01*
X164333811Y-176517344D01*
X164248778Y-176644605D01*
X164190206Y-176786010D01*
X164160347Y-176936125D01*
X163755200Y-176936125D01*
X163777000Y-176826528D01*
X163777000Y-176673472D01*
X163747141Y-176523357D01*
X163688569Y-176381952D01*
X163603536Y-176254691D01*
X163495309Y-176146464D01*
X163368048Y-176061431D01*
X163226643Y-176002859D01*
X163076528Y-175973000D01*
X162923472Y-175973000D01*
X162773357Y-176002859D01*
X162631952Y-176061431D01*
X162504691Y-176146464D01*
X162403155Y-176248000D01*
X158474643Y-176248000D01*
X158450000Y-176245573D01*
X158425357Y-176248000D01*
X158425347Y-176248000D01*
X158351591Y-176255264D01*
X158256964Y-176283969D01*
X158169755Y-176330583D01*
X158169753Y-176330584D01*
X158169754Y-176330584D01*
X158112464Y-176377600D01*
X158112456Y-176377608D01*
X158093316Y-176393316D01*
X158077607Y-176412457D01*
X157717065Y-176773000D01*
X157573472Y-176773000D01*
X157423357Y-176802859D01*
X157281952Y-176861431D01*
X157154691Y-176946464D01*
X157046464Y-177054691D01*
X156961431Y-177181952D01*
X156902859Y-177323357D01*
X156873000Y-177473472D01*
X148252000Y-177473472D01*
X148252000Y-167552000D01*
X177548001Y-167552000D01*
X177548000Y-192348000D01*
M02*
