G04 #@! TF.GenerationSoftware,KiCad,Pcbnew,(5.1.2)-2*
G04 #@! TF.CreationDate,2021-12-15T08:56:33-03:00*
G04 #@! TF.ProjectId,MAG_Plus,4d41475f-506c-4757-932e-6b696361645f,rev?*
G04 #@! TF.SameCoordinates,Original*
G04 #@! TF.FileFunction,Copper,L2,Bot*
G04 #@! TF.FilePolarity,Positive*
%FSLAX46Y46*%
G04 Gerber Fmt 4.6, Leading zero omitted, Abs format (unit mm)*
G04 Created by KiCad (PCBNEW (5.1.2)-2) date 2021-12-15 08:56:33*
%MOMM*%
%LPD*%
G04 APERTURE LIST*
%ADD10C,4.500000*%
%ADD11R,2.200000X3.100000*%
%ADD12R,0.800000X1.500000*%
%ADD13R,1.000000X2.510000*%
%ADD14R,1.000000X1.500000*%
%ADD15C,0.500000*%
%ADD16C,0.100000*%
%ADD17R,0.600000X0.400000*%
%ADD18R,0.450000X1.450000*%
%ADD19C,0.800000*%
%ADD20C,0.250000*%
%ADD21C,0.254000*%
G04 APERTURE END LIST*
D10*
X15260000Y-22800000D03*
X106760000Y-83800000D03*
X15260000Y-83810000D03*
X106760000Y-22800000D03*
D11*
X42275000Y-75695000D03*
X33525000Y-75695000D03*
D12*
X39775000Y-78445000D03*
X38525000Y-78445000D03*
X37275000Y-78445000D03*
X36025000Y-78445000D03*
D13*
X58330000Y-66435000D03*
X53250000Y-66435000D03*
X48170000Y-66435000D03*
X43090000Y-66435000D03*
X55790000Y-63125000D03*
X50710000Y-63125000D03*
X45630000Y-63125000D03*
X55750000Y-43455000D03*
X50670000Y-43455000D03*
X45590000Y-43455000D03*
X58290000Y-40145000D03*
X53210000Y-40145000D03*
X48130000Y-40145000D03*
X43050000Y-40145000D03*
D14*
X57000000Y-36960000D03*
D15*
X58300000Y-36960000D03*
D16*
G36*
X58300000Y-36210602D02*
G01*
X58324534Y-36210602D01*
X58373365Y-36215412D01*
X58421490Y-36224984D01*
X58468445Y-36239228D01*
X58513778Y-36258005D01*
X58557051Y-36281136D01*
X58597850Y-36308396D01*
X58635779Y-36339524D01*
X58670476Y-36374221D01*
X58701604Y-36412150D01*
X58728864Y-36452949D01*
X58751995Y-36496222D01*
X58770772Y-36541555D01*
X58785016Y-36588510D01*
X58794588Y-36636635D01*
X58799398Y-36685466D01*
X58799398Y-36710000D01*
X58800000Y-36710000D01*
X58800000Y-37210000D01*
X58799398Y-37210000D01*
X58799398Y-37234534D01*
X58794588Y-37283365D01*
X58785016Y-37331490D01*
X58770772Y-37378445D01*
X58751995Y-37423778D01*
X58728864Y-37467051D01*
X58701604Y-37507850D01*
X58670476Y-37545779D01*
X58635779Y-37580476D01*
X58597850Y-37611604D01*
X58557051Y-37638864D01*
X58513778Y-37661995D01*
X58468445Y-37680772D01*
X58421490Y-37695016D01*
X58373365Y-37704588D01*
X58324534Y-37709398D01*
X58300000Y-37709398D01*
X58300000Y-37710000D01*
X57750000Y-37710000D01*
X57750000Y-36210000D01*
X58300000Y-36210000D01*
X58300000Y-36210602D01*
X58300000Y-36210602D01*
G37*
D15*
X55700000Y-36960000D03*
D16*
G36*
X56250000Y-37710000D02*
G01*
X55700000Y-37710000D01*
X55700000Y-37709398D01*
X55675466Y-37709398D01*
X55626635Y-37704588D01*
X55578510Y-37695016D01*
X55531555Y-37680772D01*
X55486222Y-37661995D01*
X55442949Y-37638864D01*
X55402150Y-37611604D01*
X55364221Y-37580476D01*
X55329524Y-37545779D01*
X55298396Y-37507850D01*
X55271136Y-37467051D01*
X55248005Y-37423778D01*
X55229228Y-37378445D01*
X55214984Y-37331490D01*
X55205412Y-37283365D01*
X55200602Y-37234534D01*
X55200602Y-37210000D01*
X55200000Y-37210000D01*
X55200000Y-36710000D01*
X55200602Y-36710000D01*
X55200602Y-36685466D01*
X55205412Y-36636635D01*
X55214984Y-36588510D01*
X55229228Y-36541555D01*
X55248005Y-36496222D01*
X55271136Y-36452949D01*
X55298396Y-36412150D01*
X55329524Y-36374221D01*
X55364221Y-36339524D01*
X55402150Y-36308396D01*
X55442949Y-36281136D01*
X55486222Y-36258005D01*
X55531555Y-36239228D01*
X55578510Y-36224984D01*
X55626635Y-36215412D01*
X55675466Y-36210602D01*
X55700000Y-36210602D01*
X55700000Y-36210000D01*
X56250000Y-36210000D01*
X56250000Y-37710000D01*
X56250000Y-37710000D01*
G37*
D15*
X55680000Y-34060000D03*
D16*
G36*
X56230000Y-34810000D02*
G01*
X55680000Y-34810000D01*
X55680000Y-34809398D01*
X55655466Y-34809398D01*
X55606635Y-34804588D01*
X55558510Y-34795016D01*
X55511555Y-34780772D01*
X55466222Y-34761995D01*
X55422949Y-34738864D01*
X55382150Y-34711604D01*
X55344221Y-34680476D01*
X55309524Y-34645779D01*
X55278396Y-34607850D01*
X55251136Y-34567051D01*
X55228005Y-34523778D01*
X55209228Y-34478445D01*
X55194984Y-34431490D01*
X55185412Y-34383365D01*
X55180602Y-34334534D01*
X55180602Y-34310000D01*
X55180000Y-34310000D01*
X55180000Y-33810000D01*
X55180602Y-33810000D01*
X55180602Y-33785466D01*
X55185412Y-33736635D01*
X55194984Y-33688510D01*
X55209228Y-33641555D01*
X55228005Y-33596222D01*
X55251136Y-33552949D01*
X55278396Y-33512150D01*
X55309524Y-33474221D01*
X55344221Y-33439524D01*
X55382150Y-33408396D01*
X55422949Y-33381136D01*
X55466222Y-33358005D01*
X55511555Y-33339228D01*
X55558510Y-33324984D01*
X55606635Y-33315412D01*
X55655466Y-33310602D01*
X55680000Y-33310602D01*
X55680000Y-33310000D01*
X56230000Y-33310000D01*
X56230000Y-34810000D01*
X56230000Y-34810000D01*
G37*
D15*
X58280000Y-34060000D03*
D16*
G36*
X58280000Y-33310602D02*
G01*
X58304534Y-33310602D01*
X58353365Y-33315412D01*
X58401490Y-33324984D01*
X58448445Y-33339228D01*
X58493778Y-33358005D01*
X58537051Y-33381136D01*
X58577850Y-33408396D01*
X58615779Y-33439524D01*
X58650476Y-33474221D01*
X58681604Y-33512150D01*
X58708864Y-33552949D01*
X58731995Y-33596222D01*
X58750772Y-33641555D01*
X58765016Y-33688510D01*
X58774588Y-33736635D01*
X58779398Y-33785466D01*
X58779398Y-33810000D01*
X58780000Y-33810000D01*
X58780000Y-34310000D01*
X58779398Y-34310000D01*
X58779398Y-34334534D01*
X58774588Y-34383365D01*
X58765016Y-34431490D01*
X58750772Y-34478445D01*
X58731995Y-34523778D01*
X58708864Y-34567051D01*
X58681604Y-34607850D01*
X58650476Y-34645779D01*
X58615779Y-34680476D01*
X58577850Y-34711604D01*
X58537051Y-34738864D01*
X58493778Y-34761995D01*
X58448445Y-34780772D01*
X58401490Y-34795016D01*
X58353365Y-34804588D01*
X58304534Y-34809398D01*
X58280000Y-34809398D01*
X58280000Y-34810000D01*
X57730000Y-34810000D01*
X57730000Y-33310000D01*
X58280000Y-33310000D01*
X58280000Y-33310602D01*
X58280000Y-33310602D01*
G37*
D14*
X56980000Y-34060000D03*
D17*
X58360000Y-68710000D03*
X58360000Y-69610000D03*
X53240000Y-69620000D03*
X53240000Y-68720000D03*
D14*
X49420000Y-36970000D03*
D15*
X50720000Y-36970000D03*
D16*
G36*
X50720000Y-36220602D02*
G01*
X50744534Y-36220602D01*
X50793365Y-36225412D01*
X50841490Y-36234984D01*
X50888445Y-36249228D01*
X50933778Y-36268005D01*
X50977051Y-36291136D01*
X51017850Y-36318396D01*
X51055779Y-36349524D01*
X51090476Y-36384221D01*
X51121604Y-36422150D01*
X51148864Y-36462949D01*
X51171995Y-36506222D01*
X51190772Y-36551555D01*
X51205016Y-36598510D01*
X51214588Y-36646635D01*
X51219398Y-36695466D01*
X51219398Y-36720000D01*
X51220000Y-36720000D01*
X51220000Y-37220000D01*
X51219398Y-37220000D01*
X51219398Y-37244534D01*
X51214588Y-37293365D01*
X51205016Y-37341490D01*
X51190772Y-37388445D01*
X51171995Y-37433778D01*
X51148864Y-37477051D01*
X51121604Y-37517850D01*
X51090476Y-37555779D01*
X51055779Y-37590476D01*
X51017850Y-37621604D01*
X50977051Y-37648864D01*
X50933778Y-37671995D01*
X50888445Y-37690772D01*
X50841490Y-37705016D01*
X50793365Y-37714588D01*
X50744534Y-37719398D01*
X50720000Y-37719398D01*
X50720000Y-37720000D01*
X50170000Y-37720000D01*
X50170000Y-36220000D01*
X50720000Y-36220000D01*
X50720000Y-36220602D01*
X50720000Y-36220602D01*
G37*
D15*
X48120000Y-36970000D03*
D16*
G36*
X48670000Y-37720000D02*
G01*
X48120000Y-37720000D01*
X48120000Y-37719398D01*
X48095466Y-37719398D01*
X48046635Y-37714588D01*
X47998510Y-37705016D01*
X47951555Y-37690772D01*
X47906222Y-37671995D01*
X47862949Y-37648864D01*
X47822150Y-37621604D01*
X47784221Y-37590476D01*
X47749524Y-37555779D01*
X47718396Y-37517850D01*
X47691136Y-37477051D01*
X47668005Y-37433778D01*
X47649228Y-37388445D01*
X47634984Y-37341490D01*
X47625412Y-37293365D01*
X47620602Y-37244534D01*
X47620602Y-37220000D01*
X47620000Y-37220000D01*
X47620000Y-36720000D01*
X47620602Y-36720000D01*
X47620602Y-36695466D01*
X47625412Y-36646635D01*
X47634984Y-36598510D01*
X47649228Y-36551555D01*
X47668005Y-36506222D01*
X47691136Y-36462949D01*
X47718396Y-36422150D01*
X47749524Y-36384221D01*
X47784221Y-36349524D01*
X47822150Y-36318396D01*
X47862949Y-36291136D01*
X47906222Y-36268005D01*
X47951555Y-36249228D01*
X47998510Y-36234984D01*
X48046635Y-36225412D01*
X48095466Y-36220602D01*
X48120000Y-36220602D01*
X48120000Y-36220000D01*
X48670000Y-36220000D01*
X48670000Y-37720000D01*
X48670000Y-37720000D01*
G37*
D15*
X48140000Y-31220000D03*
D16*
G36*
X48690000Y-31970000D02*
G01*
X48140000Y-31970000D01*
X48140000Y-31969398D01*
X48115466Y-31969398D01*
X48066635Y-31964588D01*
X48018510Y-31955016D01*
X47971555Y-31940772D01*
X47926222Y-31921995D01*
X47882949Y-31898864D01*
X47842150Y-31871604D01*
X47804221Y-31840476D01*
X47769524Y-31805779D01*
X47738396Y-31767850D01*
X47711136Y-31727051D01*
X47688005Y-31683778D01*
X47669228Y-31638445D01*
X47654984Y-31591490D01*
X47645412Y-31543365D01*
X47640602Y-31494534D01*
X47640602Y-31470000D01*
X47640000Y-31470000D01*
X47640000Y-30970000D01*
X47640602Y-30970000D01*
X47640602Y-30945466D01*
X47645412Y-30896635D01*
X47654984Y-30848510D01*
X47669228Y-30801555D01*
X47688005Y-30756222D01*
X47711136Y-30712949D01*
X47738396Y-30672150D01*
X47769524Y-30634221D01*
X47804221Y-30599524D01*
X47842150Y-30568396D01*
X47882949Y-30541136D01*
X47926222Y-30518005D01*
X47971555Y-30499228D01*
X48018510Y-30484984D01*
X48066635Y-30475412D01*
X48115466Y-30470602D01*
X48140000Y-30470602D01*
X48140000Y-30470000D01*
X48690000Y-30470000D01*
X48690000Y-31970000D01*
X48690000Y-31970000D01*
G37*
D15*
X50740000Y-31220000D03*
D16*
G36*
X50740000Y-30470602D02*
G01*
X50764534Y-30470602D01*
X50813365Y-30475412D01*
X50861490Y-30484984D01*
X50908445Y-30499228D01*
X50953778Y-30518005D01*
X50997051Y-30541136D01*
X51037850Y-30568396D01*
X51075779Y-30599524D01*
X51110476Y-30634221D01*
X51141604Y-30672150D01*
X51168864Y-30712949D01*
X51191995Y-30756222D01*
X51210772Y-30801555D01*
X51225016Y-30848510D01*
X51234588Y-30896635D01*
X51239398Y-30945466D01*
X51239398Y-30970000D01*
X51240000Y-30970000D01*
X51240000Y-31470000D01*
X51239398Y-31470000D01*
X51239398Y-31494534D01*
X51234588Y-31543365D01*
X51225016Y-31591490D01*
X51210772Y-31638445D01*
X51191995Y-31683778D01*
X51168864Y-31727051D01*
X51141604Y-31767850D01*
X51110476Y-31805779D01*
X51075779Y-31840476D01*
X51037850Y-31871604D01*
X50997051Y-31898864D01*
X50953778Y-31921995D01*
X50908445Y-31940772D01*
X50861490Y-31955016D01*
X50813365Y-31964588D01*
X50764534Y-31969398D01*
X50740000Y-31969398D01*
X50740000Y-31970000D01*
X50190000Y-31970000D01*
X50190000Y-30470000D01*
X50740000Y-30470000D01*
X50740000Y-30470602D01*
X50740000Y-30470602D01*
G37*
D14*
X49440000Y-31220000D03*
X49400000Y-34100000D03*
D15*
X50700000Y-34100000D03*
D16*
G36*
X50700000Y-33350602D02*
G01*
X50724534Y-33350602D01*
X50773365Y-33355412D01*
X50821490Y-33364984D01*
X50868445Y-33379228D01*
X50913778Y-33398005D01*
X50957051Y-33421136D01*
X50997850Y-33448396D01*
X51035779Y-33479524D01*
X51070476Y-33514221D01*
X51101604Y-33552150D01*
X51128864Y-33592949D01*
X51151995Y-33636222D01*
X51170772Y-33681555D01*
X51185016Y-33728510D01*
X51194588Y-33776635D01*
X51199398Y-33825466D01*
X51199398Y-33850000D01*
X51200000Y-33850000D01*
X51200000Y-34350000D01*
X51199398Y-34350000D01*
X51199398Y-34374534D01*
X51194588Y-34423365D01*
X51185016Y-34471490D01*
X51170772Y-34518445D01*
X51151995Y-34563778D01*
X51128864Y-34607051D01*
X51101604Y-34647850D01*
X51070476Y-34685779D01*
X51035779Y-34720476D01*
X50997850Y-34751604D01*
X50957051Y-34778864D01*
X50913778Y-34801995D01*
X50868445Y-34820772D01*
X50821490Y-34835016D01*
X50773365Y-34844588D01*
X50724534Y-34849398D01*
X50700000Y-34849398D01*
X50700000Y-34850000D01*
X50150000Y-34850000D01*
X50150000Y-33350000D01*
X50700000Y-33350000D01*
X50700000Y-33350602D01*
X50700000Y-33350602D01*
G37*
D15*
X48100000Y-34100000D03*
D16*
G36*
X48650000Y-34850000D02*
G01*
X48100000Y-34850000D01*
X48100000Y-34849398D01*
X48075466Y-34849398D01*
X48026635Y-34844588D01*
X47978510Y-34835016D01*
X47931555Y-34820772D01*
X47886222Y-34801995D01*
X47842949Y-34778864D01*
X47802150Y-34751604D01*
X47764221Y-34720476D01*
X47729524Y-34685779D01*
X47698396Y-34647850D01*
X47671136Y-34607051D01*
X47648005Y-34563778D01*
X47629228Y-34518445D01*
X47614984Y-34471490D01*
X47605412Y-34423365D01*
X47600602Y-34374534D01*
X47600602Y-34350000D01*
X47600000Y-34350000D01*
X47600000Y-33850000D01*
X47600602Y-33850000D01*
X47600602Y-33825466D01*
X47605412Y-33776635D01*
X47614984Y-33728510D01*
X47629228Y-33681555D01*
X47648005Y-33636222D01*
X47671136Y-33592949D01*
X47698396Y-33552150D01*
X47729524Y-33514221D01*
X47764221Y-33479524D01*
X47802150Y-33448396D01*
X47842949Y-33421136D01*
X47886222Y-33398005D01*
X47931555Y-33379228D01*
X47978510Y-33364984D01*
X48026635Y-33355412D01*
X48075466Y-33350602D01*
X48100000Y-33350602D01*
X48100000Y-33350000D01*
X48650000Y-33350000D01*
X48650000Y-34850000D01*
X48650000Y-34850000D01*
G37*
D18*
X51735000Y-50850000D03*
X51085000Y-50850000D03*
X50435000Y-50850000D03*
X49785000Y-50850000D03*
X49785000Y-55250000D03*
X50435000Y-55250000D03*
X51085000Y-55250000D03*
X51735000Y-55250000D03*
D19*
X54049998Y-70820000D03*
X55149998Y-68520000D03*
X40100000Y-81920000D03*
X51550000Y-68970000D03*
X58340000Y-45070000D03*
X52750000Y-31230000D03*
X52690000Y-33980000D03*
X59410000Y-32950000D03*
X52690000Y-28640000D03*
X60624990Y-35600000D03*
X46130000Y-35300000D03*
X47550000Y-42570000D03*
D20*
X58360000Y-66465000D02*
X58330000Y-66435000D01*
X58360000Y-68710000D02*
X58360000Y-66465000D01*
X57580000Y-66435000D02*
X58330000Y-66435000D01*
X55999999Y-64854999D02*
X57580000Y-66435000D01*
X50099997Y-64854999D02*
X55999999Y-64854999D01*
X49480000Y-64235002D02*
X50099997Y-64854999D01*
X49480000Y-60520000D02*
X49480000Y-64235002D01*
X51085000Y-54275000D02*
X51720000Y-53640000D01*
X51085000Y-55250000D02*
X51085000Y-54275000D01*
X51720000Y-53640000D02*
X52630000Y-53640000D01*
X52630000Y-53640000D02*
X53260000Y-54270000D01*
X53260000Y-54270000D02*
X53260000Y-56740000D01*
X53260000Y-56740000D02*
X49480000Y-60520000D01*
X44074997Y-80795001D02*
X53649999Y-71219999D01*
X53649999Y-71219999D02*
X54049998Y-70820000D01*
X39875001Y-80795001D02*
X44074997Y-80795001D01*
X38525000Y-78445000D02*
X38525000Y-79445000D01*
X38525000Y-79445000D02*
X39875001Y-80795001D01*
X55949998Y-67720000D02*
X55149998Y-68520000D01*
X57350000Y-67720000D02*
X55949998Y-67720000D01*
X58330000Y-66435000D02*
X58330000Y-66740000D01*
X58330000Y-66740000D02*
X57350000Y-67720000D01*
X53240000Y-66445000D02*
X53250000Y-66435000D01*
X53240000Y-68720000D02*
X53240000Y-66445000D01*
X49029989Y-64421402D02*
X49029989Y-59880011D01*
X53250000Y-66435000D02*
X51043587Y-66435000D01*
X51735000Y-56225000D02*
X51735000Y-55250000D01*
X51043587Y-66435000D02*
X49029989Y-64421402D01*
X51735000Y-57175000D02*
X51735000Y-56225000D01*
X49029989Y-59880011D02*
X51735000Y-57175000D01*
X40100000Y-81920000D02*
X40050000Y-81970000D01*
X37275000Y-80595000D02*
X37275000Y-78445000D01*
X38650000Y-81970000D02*
X37275000Y-80595000D01*
X40050000Y-81970000D02*
X38650000Y-81970000D01*
X53250000Y-66435000D02*
X53250000Y-67190000D01*
X51550000Y-68890000D02*
X51550000Y-68970000D01*
X53250000Y-67190000D02*
X51550000Y-68890000D01*
X58340000Y-40195000D02*
X58290000Y-40145000D01*
X58340000Y-45070000D02*
X58340000Y-40195000D01*
X50740000Y-31220000D02*
X52740000Y-31220000D01*
X52740000Y-31220000D02*
X52750000Y-31230000D01*
X50820000Y-33980000D02*
X50700000Y-34100000D01*
X52690000Y-33980000D02*
X50820000Y-33980000D01*
X58280000Y-34060000D02*
X58300000Y-34060000D01*
X58300000Y-34060000D02*
X59410000Y-32950000D01*
X50740000Y-30590000D02*
X50740000Y-31220000D01*
X52690000Y-28640000D02*
X50740000Y-30590000D01*
X60224991Y-35200001D02*
X60624990Y-35600000D01*
X59084990Y-34060000D02*
X60224991Y-35200001D01*
X58280000Y-34060000D02*
X59084990Y-34060000D01*
X48120000Y-40135000D02*
X48130000Y-40145000D01*
X48120000Y-36970000D02*
X48120000Y-40135000D01*
X48140000Y-34060000D02*
X48100000Y-34100000D01*
X48140000Y-31220000D02*
X48140000Y-34060000D01*
X55680000Y-36940000D02*
X55700000Y-36960000D01*
X55680000Y-34060000D02*
X55680000Y-36940000D01*
X55700000Y-43405000D02*
X55750000Y-43455000D01*
X55700000Y-36960000D02*
X55700000Y-43405000D01*
X53210000Y-41650000D02*
X53210000Y-40145000D01*
X53210000Y-41665000D02*
X53210000Y-41650000D01*
X55000000Y-43455000D02*
X53210000Y-41665000D01*
X55750000Y-43455000D02*
X55000000Y-43455000D01*
X48100000Y-34100000D02*
X47330000Y-34100000D01*
X47330000Y-34100000D02*
X46130000Y-35300000D01*
X48130000Y-40145000D02*
X48130000Y-41990000D01*
X47949999Y-42170001D02*
X47550000Y-42570000D01*
X48130000Y-41990000D02*
X47949999Y-42170001D01*
X48100000Y-33252408D02*
X48702408Y-32650000D01*
X48100000Y-34100000D02*
X48100000Y-33252408D01*
X54270000Y-32650000D02*
X55680000Y-34060000D01*
X48702408Y-32650000D02*
X54270000Y-32650000D01*
X58350000Y-69620000D02*
X58360000Y-69610000D01*
X53240000Y-69620000D02*
X58350000Y-69620000D01*
X51735000Y-48225000D02*
X51735000Y-50850000D01*
X55750000Y-43455000D02*
X55750000Y-44210000D01*
X55750000Y-44210000D02*
X51735000Y-48225000D01*
X39775000Y-79195000D02*
X39775000Y-78445000D01*
X53240000Y-69620000D02*
X53140000Y-69620000D01*
X49985000Y-72775000D02*
X49945000Y-72775000D01*
X49945000Y-72775000D02*
X42950000Y-79770000D01*
X53140000Y-69620000D02*
X49985000Y-72775000D01*
X42950000Y-79770000D02*
X40350000Y-79770000D01*
X40350000Y-79770000D02*
X39775000Y-79195000D01*
X55680000Y-33212408D02*
X55680000Y-34060000D01*
X56702408Y-32190000D02*
X55680000Y-33212408D01*
X60250000Y-32190000D02*
X56702408Y-32190000D01*
X61350000Y-33290000D02*
X60250000Y-32190000D01*
X61350000Y-67170000D02*
X61350000Y-33290000D01*
X58360000Y-69610000D02*
X58910000Y-69610000D01*
X58910000Y-69610000D02*
X61350000Y-67170000D01*
X56980000Y-34519636D02*
X57890364Y-35430000D01*
X56980000Y-34060000D02*
X56980000Y-34519636D01*
X57890364Y-35430000D02*
X58780000Y-35430000D01*
X58780000Y-35430000D02*
X59420000Y-36070000D01*
X59420000Y-36070000D02*
X59420000Y-56330000D01*
X55790000Y-59960000D02*
X55790000Y-63125000D01*
X59420000Y-56330000D02*
X55790000Y-59960000D01*
X57000000Y-36960000D02*
X57000000Y-53940000D01*
X50710000Y-60230000D02*
X50710000Y-63125000D01*
X57000000Y-53940000D02*
X50710000Y-60230000D01*
X51085000Y-48285000D02*
X51085000Y-50850000D01*
X49460000Y-46660000D02*
X51085000Y-48285000D01*
X49460000Y-37080000D02*
X49460000Y-46660000D01*
X49420000Y-36970000D02*
X49570000Y-36970000D01*
X49570000Y-36970000D02*
X49460000Y-37080000D01*
X49440000Y-30220000D02*
X48430000Y-29210000D01*
X49440000Y-31220000D02*
X49440000Y-30220000D01*
X48430000Y-29210000D02*
X47130000Y-29210000D01*
X47130000Y-29210000D02*
X44390000Y-31950000D01*
X49785000Y-49875000D02*
X49785000Y-50850000D01*
X44390000Y-44480000D02*
X49785000Y-49875000D01*
X44390000Y-31950000D02*
X44390000Y-44480000D01*
X50435000Y-49875000D02*
X50435000Y-50850000D01*
X49400000Y-35100000D02*
X48990000Y-35510000D01*
X48990000Y-35510000D02*
X47410000Y-35510000D01*
X50435000Y-48915000D02*
X50435000Y-49875000D01*
X47410000Y-35510000D02*
X46810000Y-36110000D01*
X46810000Y-36110000D02*
X46810000Y-45290000D01*
X49400000Y-34100000D02*
X49400000Y-35100000D01*
X46810000Y-45290000D02*
X50435000Y-48915000D01*
D21*
G36*
X109300000Y-21408516D02*
G01*
X109000926Y-20960920D01*
X108599080Y-20559074D01*
X108126560Y-20243346D01*
X107601523Y-20025869D01*
X107044148Y-19915000D01*
X106475852Y-19915000D01*
X105918477Y-20025869D01*
X105393440Y-20243346D01*
X104920920Y-20559074D01*
X104519074Y-20960920D01*
X104203346Y-21433440D01*
X103985869Y-21958477D01*
X103875000Y-22515852D01*
X103875000Y-23084148D01*
X103985869Y-23641523D01*
X104203346Y-24166560D01*
X104519074Y-24639080D01*
X104920920Y-25040926D01*
X105393440Y-25356654D01*
X105918477Y-25574131D01*
X106475852Y-25685000D01*
X107044148Y-25685000D01*
X107601523Y-25574131D01*
X108126560Y-25356654D01*
X108599080Y-25040926D01*
X109000926Y-24639080D01*
X109300000Y-24191484D01*
X109300001Y-82408517D01*
X109000926Y-81960920D01*
X108599080Y-81559074D01*
X108126560Y-81243346D01*
X107601523Y-81025869D01*
X107044148Y-80915000D01*
X106475852Y-80915000D01*
X105918477Y-81025869D01*
X105393440Y-81243346D01*
X104920920Y-81559074D01*
X104519074Y-81960920D01*
X104203346Y-82433440D01*
X103985869Y-82958477D01*
X103875000Y-83515852D01*
X103875000Y-84084148D01*
X103985869Y-84641523D01*
X104203346Y-85166560D01*
X104519074Y-85639080D01*
X104920920Y-86040926D01*
X105393440Y-86356654D01*
X105918477Y-86574131D01*
X106475852Y-86685000D01*
X107044148Y-86685000D01*
X107601523Y-86574131D01*
X108126560Y-86356654D01*
X108599080Y-86040926D01*
X109000926Y-85639080D01*
X109300001Y-85191483D01*
X109300001Y-93940000D01*
X12719568Y-93940000D01*
X12713843Y-85192270D01*
X13019074Y-85649080D01*
X13420920Y-86050926D01*
X13893440Y-86366654D01*
X14418477Y-86584131D01*
X14975852Y-86695000D01*
X15544148Y-86695000D01*
X16101523Y-86584131D01*
X16626560Y-86366654D01*
X17099080Y-86050926D01*
X17500926Y-85649080D01*
X17816654Y-85176560D01*
X18034131Y-84651523D01*
X18145000Y-84094148D01*
X18145000Y-83525852D01*
X18034131Y-82968477D01*
X17816654Y-82443440D01*
X17500926Y-81970920D01*
X17099080Y-81569074D01*
X16626560Y-81253346D01*
X16101523Y-81035869D01*
X15544148Y-80925000D01*
X14975852Y-80925000D01*
X14418477Y-81035869D01*
X13893440Y-81253346D01*
X13420920Y-81569074D01*
X13019074Y-81970920D01*
X12712035Y-82430436D01*
X12710020Y-79351883D01*
X12710030Y-79351784D01*
X12709999Y-79319482D01*
X12709978Y-79287150D01*
X12709968Y-79287047D01*
X12709880Y-79195000D01*
X34986928Y-79195000D01*
X34999188Y-79319482D01*
X35035498Y-79439180D01*
X35094463Y-79549494D01*
X35173815Y-79646185D01*
X35270506Y-79725537D01*
X35380820Y-79784502D01*
X35500518Y-79820812D01*
X35625000Y-79833072D01*
X35739250Y-79830000D01*
X35898000Y-79671250D01*
X35898000Y-78572000D01*
X35148750Y-78572000D01*
X34990000Y-78730750D01*
X34986928Y-79195000D01*
X12709880Y-79195000D01*
X12705028Y-74145000D01*
X31786928Y-74145000D01*
X31786928Y-77245000D01*
X31799188Y-77369482D01*
X31835498Y-77489180D01*
X31894463Y-77599494D01*
X31973815Y-77696185D01*
X32070506Y-77775537D01*
X32180820Y-77834502D01*
X32300518Y-77870812D01*
X32425000Y-77883072D01*
X34625000Y-77883072D01*
X34749482Y-77870812D01*
X34869180Y-77834502D01*
X34979494Y-77775537D01*
X34987418Y-77769034D01*
X34990000Y-78159250D01*
X35148750Y-78318000D01*
X35898000Y-78318000D01*
X35898000Y-77218750D01*
X36152000Y-77218750D01*
X36152000Y-78318000D01*
X36172000Y-78318000D01*
X36172000Y-78572000D01*
X36152000Y-78572000D01*
X36152000Y-79671250D01*
X36310750Y-79830000D01*
X36425000Y-79833072D01*
X36515000Y-79824208D01*
X36515000Y-80557677D01*
X36511324Y-80595000D01*
X36515000Y-80632322D01*
X36515000Y-80632332D01*
X36525997Y-80743985D01*
X36568773Y-80885000D01*
X36569454Y-80887246D01*
X36640026Y-81019276D01*
X36653644Y-81035869D01*
X36734999Y-81135001D01*
X36764003Y-81158804D01*
X38086201Y-82481003D01*
X38109999Y-82510001D01*
X38225724Y-82604974D01*
X38357753Y-82675546D01*
X38501014Y-82719003D01*
X38612667Y-82730000D01*
X38612675Y-82730000D01*
X38650000Y-82733676D01*
X38687325Y-82730000D01*
X39449300Y-82730000D01*
X39609744Y-82837205D01*
X39798102Y-82915226D01*
X39998061Y-82955000D01*
X40201939Y-82955000D01*
X40401898Y-82915226D01*
X40590256Y-82837205D01*
X40759774Y-82723937D01*
X40903937Y-82579774D01*
X41017205Y-82410256D01*
X41095226Y-82221898D01*
X41135000Y-82021939D01*
X41135000Y-81818061D01*
X41095226Y-81618102D01*
X41069089Y-81555001D01*
X44037675Y-81555001D01*
X44074997Y-81558677D01*
X44112319Y-81555001D01*
X44112330Y-81555001D01*
X44223983Y-81544004D01*
X44367244Y-81500547D01*
X44499273Y-81429975D01*
X44614998Y-81335002D01*
X44638801Y-81305998D01*
X54089800Y-71855000D01*
X54151937Y-71855000D01*
X54351896Y-71815226D01*
X54540254Y-71737205D01*
X54709772Y-71623937D01*
X54853935Y-71479774D01*
X54967203Y-71310256D01*
X55045224Y-71121898D01*
X55084998Y-70921939D01*
X55084998Y-70718061D01*
X55045224Y-70518102D01*
X54988020Y-70380000D01*
X57779335Y-70380000D01*
X57815820Y-70399502D01*
X57935518Y-70435812D01*
X58060000Y-70448072D01*
X58660000Y-70448072D01*
X58784482Y-70435812D01*
X58904180Y-70399502D01*
X58962093Y-70368546D01*
X59058986Y-70359003D01*
X59202247Y-70315546D01*
X59334276Y-70244974D01*
X59450001Y-70150001D01*
X59473804Y-70120997D01*
X61861004Y-67733798D01*
X61890001Y-67710001D01*
X61968560Y-67614277D01*
X61984974Y-67594277D01*
X62055546Y-67462247D01*
X62066009Y-67427753D01*
X62099003Y-67318986D01*
X62110000Y-67207333D01*
X62110000Y-67207324D01*
X62113676Y-67170001D01*
X62110000Y-67132678D01*
X62110000Y-33327323D01*
X62113676Y-33290000D01*
X62110000Y-33252677D01*
X62110000Y-33252667D01*
X62099003Y-33141014D01*
X62055546Y-32997753D01*
X62035453Y-32960162D01*
X61984974Y-32865723D01*
X61913799Y-32778997D01*
X61890001Y-32749999D01*
X61861003Y-32726201D01*
X60813804Y-31679002D01*
X60790001Y-31649999D01*
X60674276Y-31555026D01*
X60542247Y-31484454D01*
X60398986Y-31440997D01*
X60287333Y-31430000D01*
X60287322Y-31430000D01*
X60250000Y-31426324D01*
X60212678Y-31430000D01*
X56739730Y-31430000D01*
X56702407Y-31426324D01*
X56665084Y-31430000D01*
X56665075Y-31430000D01*
X56553422Y-31440997D01*
X56410161Y-31484454D01*
X56278132Y-31555026D01*
X56162407Y-31649999D01*
X56138609Y-31678997D01*
X55256204Y-32561403D01*
X54833804Y-32139003D01*
X54810001Y-32109999D01*
X54694276Y-32015026D01*
X54562247Y-31944454D01*
X54418986Y-31900997D01*
X54307333Y-31890000D01*
X54307322Y-31890000D01*
X54270000Y-31886324D01*
X54232678Y-31890000D01*
X50578072Y-31890000D01*
X50578072Y-30470000D01*
X50565812Y-30345518D01*
X50529502Y-30225820D01*
X50470537Y-30115506D01*
X50391185Y-30018815D01*
X50294494Y-29939463D01*
X50184180Y-29880498D01*
X50107923Y-29857366D01*
X50074974Y-29795724D01*
X49980001Y-29679999D01*
X49951003Y-29656201D01*
X48993804Y-28699002D01*
X48970001Y-28669999D01*
X48854276Y-28575026D01*
X48722247Y-28504454D01*
X48578986Y-28460997D01*
X48467333Y-28450000D01*
X48467322Y-28450000D01*
X48430000Y-28446324D01*
X48392678Y-28450000D01*
X47167322Y-28450000D01*
X47129999Y-28446324D01*
X47092676Y-28450000D01*
X47092667Y-28450000D01*
X46981014Y-28460997D01*
X46837753Y-28504454D01*
X46705724Y-28575026D01*
X46589999Y-28669999D01*
X46566201Y-28698997D01*
X43879003Y-31386196D01*
X43849999Y-31409999D01*
X43800758Y-31470000D01*
X43755026Y-31525724D01*
X43701320Y-31626201D01*
X43684454Y-31657754D01*
X43640997Y-31801015D01*
X43630000Y-31912668D01*
X43630000Y-31912678D01*
X43626324Y-31950000D01*
X43630000Y-31987322D01*
X43630001Y-38259807D01*
X43550000Y-38251928D01*
X42550000Y-38251928D01*
X42425518Y-38264188D01*
X42305820Y-38300498D01*
X42195506Y-38359463D01*
X42098815Y-38438815D01*
X42019463Y-38535506D01*
X41960498Y-38645820D01*
X41924188Y-38765518D01*
X41911928Y-38890000D01*
X41911928Y-41400000D01*
X41924188Y-41524482D01*
X41960498Y-41644180D01*
X42019463Y-41754494D01*
X42098815Y-41851185D01*
X42195506Y-41930537D01*
X42305820Y-41989502D01*
X42425518Y-42025812D01*
X42550000Y-42038072D01*
X43550000Y-42038072D01*
X43630001Y-42030193D01*
X43630001Y-44442668D01*
X43626324Y-44480000D01*
X43640998Y-44628985D01*
X43684454Y-44772246D01*
X43755026Y-44904276D01*
X43795982Y-44954180D01*
X43850000Y-45020001D01*
X43878998Y-45043799D01*
X48925359Y-50090161D01*
X48921928Y-50125000D01*
X48921928Y-51575000D01*
X48934188Y-51699482D01*
X48970498Y-51819180D01*
X49029463Y-51929494D01*
X49108815Y-52026185D01*
X49205506Y-52105537D01*
X49315820Y-52164502D01*
X49435518Y-52200812D01*
X49560000Y-52213072D01*
X50010000Y-52213072D01*
X50110000Y-52203223D01*
X50210000Y-52213072D01*
X50660000Y-52213072D01*
X50760000Y-52203223D01*
X50860000Y-52213072D01*
X51310000Y-52213072D01*
X51410000Y-52203223D01*
X51510000Y-52213072D01*
X51960000Y-52213072D01*
X52084482Y-52200812D01*
X52204180Y-52164502D01*
X52314494Y-52105537D01*
X52411185Y-52026185D01*
X52490537Y-51929494D01*
X52549502Y-51819180D01*
X52585812Y-51699482D01*
X52598072Y-51575000D01*
X52598072Y-50125000D01*
X52585812Y-50000518D01*
X52549502Y-49880820D01*
X52495000Y-49778856D01*
X52495000Y-48539801D01*
X55686731Y-45348072D01*
X56240000Y-45348072D01*
X56240001Y-53625197D01*
X54020000Y-55845198D01*
X54020000Y-54307333D01*
X54023677Y-54270000D01*
X54009003Y-54121014D01*
X53965546Y-53977753D01*
X53894974Y-53845724D01*
X53800001Y-53729999D01*
X53771004Y-53706202D01*
X53193803Y-53129002D01*
X53170001Y-53099999D01*
X53054276Y-53005026D01*
X52922247Y-52934454D01*
X52778986Y-52890997D01*
X52667333Y-52880000D01*
X52667322Y-52880000D01*
X52630000Y-52876324D01*
X52592678Y-52880000D01*
X51757333Y-52880000D01*
X51720000Y-52876323D01*
X51682667Y-52880000D01*
X51571014Y-52890997D01*
X51427753Y-52934454D01*
X51295724Y-53005026D01*
X51179999Y-53099999D01*
X51156200Y-53128998D01*
X50573998Y-53711201D01*
X50545000Y-53734999D01*
X50521202Y-53763997D01*
X50521201Y-53763998D01*
X50450026Y-53850724D01*
X50430674Y-53886928D01*
X50210000Y-53886928D01*
X50106773Y-53897095D01*
X50041750Y-53890000D01*
X50009503Y-53922247D01*
X49965820Y-53935498D01*
X49855506Y-53994463D01*
X49758815Y-54073815D01*
X49687000Y-54161322D01*
X49687000Y-54048750D01*
X49528250Y-53890000D01*
X49426004Y-53901156D01*
X49306873Y-53939285D01*
X49197469Y-53999922D01*
X49101997Y-54080737D01*
X49024126Y-54178625D01*
X48966849Y-54289825D01*
X48932366Y-54410061D01*
X48922002Y-54534715D01*
X48925000Y-54964250D01*
X49083750Y-55123000D01*
X49571928Y-55123000D01*
X49571928Y-55377000D01*
X49083750Y-55377000D01*
X48925000Y-55535750D01*
X48922002Y-55965285D01*
X48932366Y-56089939D01*
X48966849Y-56210175D01*
X49024126Y-56321375D01*
X49101997Y-56419263D01*
X49197469Y-56500078D01*
X49306873Y-56560715D01*
X49426004Y-56598844D01*
X49528250Y-56610000D01*
X49687000Y-56451250D01*
X49687000Y-56338678D01*
X49758815Y-56426185D01*
X49855506Y-56505537D01*
X49965820Y-56564502D01*
X50009503Y-56577753D01*
X50041750Y-56610000D01*
X50106773Y-56602905D01*
X50210000Y-56613072D01*
X50660000Y-56613072D01*
X50760000Y-56603223D01*
X50860000Y-56613072D01*
X50975001Y-56613072D01*
X50975000Y-56860198D01*
X48518987Y-59316212D01*
X48489989Y-59340010D01*
X48466191Y-59369008D01*
X48466190Y-59369009D01*
X48395015Y-59455735D01*
X48324443Y-59587765D01*
X48300180Y-59667753D01*
X48284636Y-59718998D01*
X48280987Y-59731026D01*
X48266313Y-59880011D01*
X48269990Y-59917343D01*
X48269989Y-64384079D01*
X48266313Y-64421402D01*
X48269989Y-64458724D01*
X48269989Y-64458734D01*
X48278183Y-64541928D01*
X47670000Y-64541928D01*
X47545518Y-64554188D01*
X47425820Y-64590498D01*
X47315506Y-64649463D01*
X47218815Y-64728815D01*
X47139463Y-64825506D01*
X47080498Y-64935820D01*
X47044188Y-65055518D01*
X47031928Y-65180000D01*
X47031928Y-67690000D01*
X47044188Y-67814482D01*
X47080498Y-67934180D01*
X47139463Y-68044494D01*
X47218815Y-68141185D01*
X47315506Y-68220537D01*
X47425820Y-68279502D01*
X47545518Y-68315812D01*
X47670000Y-68328072D01*
X48670000Y-68328072D01*
X48794482Y-68315812D01*
X48914180Y-68279502D01*
X49024494Y-68220537D01*
X49121185Y-68141185D01*
X49200537Y-68044494D01*
X49259502Y-67934180D01*
X49295812Y-67814482D01*
X49308072Y-67690000D01*
X49308072Y-65774286D01*
X50479787Y-66946002D01*
X50503586Y-66975001D01*
X50584024Y-67041015D01*
X50619311Y-67069974D01*
X50751340Y-67140546D01*
X50894601Y-67184003D01*
X51043587Y-67198677D01*
X51080920Y-67195000D01*
X52111928Y-67195000D01*
X52111928Y-67253270D01*
X51425764Y-67939435D01*
X51248102Y-67974774D01*
X51059744Y-68052795D01*
X50890226Y-68166063D01*
X50746063Y-68310226D01*
X50632795Y-68479744D01*
X50554774Y-68668102D01*
X50515000Y-68868061D01*
X50515000Y-69071939D01*
X50554774Y-69271898D01*
X50632795Y-69460256D01*
X50746063Y-69629774D01*
X50890226Y-69773937D01*
X51059744Y-69887205D01*
X51248102Y-69965226D01*
X51448061Y-70005000D01*
X51651939Y-70005000D01*
X51687215Y-69997983D01*
X49573248Y-72111951D01*
X49520724Y-72140026D01*
X49404999Y-72234999D01*
X49381201Y-72263997D01*
X42635199Y-79010000D01*
X40813072Y-79010000D01*
X40813072Y-77769436D01*
X40820506Y-77775537D01*
X40930820Y-77834502D01*
X41050518Y-77870812D01*
X41175000Y-77883072D01*
X43375000Y-77883072D01*
X43499482Y-77870812D01*
X43619180Y-77834502D01*
X43729494Y-77775537D01*
X43826185Y-77696185D01*
X43905537Y-77599494D01*
X43964502Y-77489180D01*
X44000812Y-77369482D01*
X44013072Y-77245000D01*
X44013072Y-74145000D01*
X44000812Y-74020518D01*
X43964502Y-73900820D01*
X43905537Y-73790506D01*
X43826185Y-73693815D01*
X43729494Y-73614463D01*
X43619180Y-73555498D01*
X43499482Y-73519188D01*
X43375000Y-73506928D01*
X41175000Y-73506928D01*
X41050518Y-73519188D01*
X40930820Y-73555498D01*
X40820506Y-73614463D01*
X40723815Y-73693815D01*
X40644463Y-73790506D01*
X40585498Y-73900820D01*
X40549188Y-74020518D01*
X40536928Y-74145000D01*
X40536928Y-77170564D01*
X40529494Y-77164463D01*
X40419180Y-77105498D01*
X40299482Y-77069188D01*
X40175000Y-77056928D01*
X39375000Y-77056928D01*
X39250518Y-77069188D01*
X39150000Y-77099680D01*
X39049482Y-77069188D01*
X38925000Y-77056928D01*
X38125000Y-77056928D01*
X38000518Y-77069188D01*
X37900000Y-77099680D01*
X37799482Y-77069188D01*
X37675000Y-77056928D01*
X36875000Y-77056928D01*
X36750518Y-77069188D01*
X36650000Y-77099680D01*
X36549482Y-77069188D01*
X36425000Y-77056928D01*
X36310750Y-77060000D01*
X36152000Y-77218750D01*
X35898000Y-77218750D01*
X35739250Y-77060000D01*
X35625000Y-77056928D01*
X35500518Y-77069188D01*
X35380820Y-77105498D01*
X35270506Y-77164463D01*
X35263072Y-77170564D01*
X35263072Y-74145000D01*
X35250812Y-74020518D01*
X35214502Y-73900820D01*
X35155537Y-73790506D01*
X35076185Y-73693815D01*
X34979494Y-73614463D01*
X34869180Y-73555498D01*
X34749482Y-73519188D01*
X34625000Y-73506928D01*
X32425000Y-73506928D01*
X32300518Y-73519188D01*
X32180820Y-73555498D01*
X32070506Y-73614463D01*
X31973815Y-73693815D01*
X31894463Y-73790506D01*
X31835498Y-73900820D01*
X31799188Y-74020518D01*
X31786928Y-74145000D01*
X12705028Y-74145000D01*
X12698826Y-67690000D01*
X41951928Y-67690000D01*
X41964188Y-67814482D01*
X42000498Y-67934180D01*
X42059463Y-68044494D01*
X42138815Y-68141185D01*
X42235506Y-68220537D01*
X42345820Y-68279502D01*
X42465518Y-68315812D01*
X42590000Y-68328072D01*
X42804250Y-68325000D01*
X42963000Y-68166250D01*
X42963000Y-66562000D01*
X43217000Y-66562000D01*
X43217000Y-68166250D01*
X43375750Y-68325000D01*
X43590000Y-68328072D01*
X43714482Y-68315812D01*
X43834180Y-68279502D01*
X43944494Y-68220537D01*
X44041185Y-68141185D01*
X44120537Y-68044494D01*
X44179502Y-67934180D01*
X44215812Y-67814482D01*
X44228072Y-67690000D01*
X44225000Y-66720750D01*
X44066250Y-66562000D01*
X43217000Y-66562000D01*
X42963000Y-66562000D01*
X42113750Y-66562000D01*
X41955000Y-66720750D01*
X41951928Y-67690000D01*
X12698826Y-67690000D01*
X12696415Y-65180000D01*
X41951928Y-65180000D01*
X41955000Y-66149250D01*
X42113750Y-66308000D01*
X42963000Y-66308000D01*
X42963000Y-64703750D01*
X43217000Y-64703750D01*
X43217000Y-66308000D01*
X44066250Y-66308000D01*
X44225000Y-66149250D01*
X44228072Y-65180000D01*
X44215812Y-65055518D01*
X44179502Y-64935820D01*
X44120537Y-64825506D01*
X44041185Y-64728815D01*
X43944494Y-64649463D01*
X43834180Y-64590498D01*
X43714482Y-64554188D01*
X43590000Y-64541928D01*
X43375750Y-64545000D01*
X43217000Y-64703750D01*
X42963000Y-64703750D01*
X42804250Y-64545000D01*
X42590000Y-64541928D01*
X42465518Y-64554188D01*
X42345820Y-64590498D01*
X42235506Y-64649463D01*
X42138815Y-64728815D01*
X42059463Y-64825506D01*
X42000498Y-64935820D01*
X41964188Y-65055518D01*
X41951928Y-65180000D01*
X12696415Y-65180000D01*
X12693235Y-61870000D01*
X44491928Y-61870000D01*
X44491928Y-64380000D01*
X44504188Y-64504482D01*
X44540498Y-64624180D01*
X44599463Y-64734494D01*
X44678815Y-64831185D01*
X44775506Y-64910537D01*
X44885820Y-64969502D01*
X45005518Y-65005812D01*
X45130000Y-65018072D01*
X46130000Y-65018072D01*
X46254482Y-65005812D01*
X46374180Y-64969502D01*
X46484494Y-64910537D01*
X46581185Y-64831185D01*
X46660537Y-64734494D01*
X46719502Y-64624180D01*
X46755812Y-64504482D01*
X46768072Y-64380000D01*
X46768072Y-61870000D01*
X46755812Y-61745518D01*
X46719502Y-61625820D01*
X46660537Y-61515506D01*
X46581185Y-61418815D01*
X46484494Y-61339463D01*
X46374180Y-61280498D01*
X46254482Y-61244188D01*
X46130000Y-61231928D01*
X45130000Y-61231928D01*
X45005518Y-61244188D01*
X44885820Y-61280498D01*
X44775506Y-61339463D01*
X44678815Y-61418815D01*
X44599463Y-61515506D01*
X44540498Y-61625820D01*
X44504188Y-61745518D01*
X44491928Y-61870000D01*
X12693235Y-61870000D01*
X12660000Y-27280253D01*
X12660000Y-24061913D01*
X12703346Y-24166560D01*
X13019074Y-24639080D01*
X13420920Y-25040926D01*
X13893440Y-25356654D01*
X14418477Y-25574131D01*
X14975852Y-25685000D01*
X15544148Y-25685000D01*
X16101523Y-25574131D01*
X16626560Y-25356654D01*
X17099080Y-25040926D01*
X17500926Y-24639080D01*
X17816654Y-24166560D01*
X18034131Y-23641523D01*
X18145000Y-23084148D01*
X18145000Y-22515852D01*
X18034131Y-21958477D01*
X17816654Y-21433440D01*
X17500926Y-20960920D01*
X17099080Y-20559074D01*
X16626560Y-20243346D01*
X16101523Y-20025869D01*
X15544148Y-19915000D01*
X14975852Y-19915000D01*
X14418477Y-20025869D01*
X13893440Y-20243346D01*
X13420920Y-20559074D01*
X13019074Y-20960920D01*
X12703346Y-21433440D01*
X12660000Y-21538087D01*
X12660000Y-12660000D01*
X109300000Y-12660000D01*
X109300000Y-21408516D01*
X109300000Y-21408516D01*
G37*
X109300000Y-21408516D02*
X109000926Y-20960920D01*
X108599080Y-20559074D01*
X108126560Y-20243346D01*
X107601523Y-20025869D01*
X107044148Y-19915000D01*
X106475852Y-19915000D01*
X105918477Y-20025869D01*
X105393440Y-20243346D01*
X104920920Y-20559074D01*
X104519074Y-20960920D01*
X104203346Y-21433440D01*
X103985869Y-21958477D01*
X103875000Y-22515852D01*
X103875000Y-23084148D01*
X103985869Y-23641523D01*
X104203346Y-24166560D01*
X104519074Y-24639080D01*
X104920920Y-25040926D01*
X105393440Y-25356654D01*
X105918477Y-25574131D01*
X106475852Y-25685000D01*
X107044148Y-25685000D01*
X107601523Y-25574131D01*
X108126560Y-25356654D01*
X108599080Y-25040926D01*
X109000926Y-24639080D01*
X109300000Y-24191484D01*
X109300001Y-82408517D01*
X109000926Y-81960920D01*
X108599080Y-81559074D01*
X108126560Y-81243346D01*
X107601523Y-81025869D01*
X107044148Y-80915000D01*
X106475852Y-80915000D01*
X105918477Y-81025869D01*
X105393440Y-81243346D01*
X104920920Y-81559074D01*
X104519074Y-81960920D01*
X104203346Y-82433440D01*
X103985869Y-82958477D01*
X103875000Y-83515852D01*
X103875000Y-84084148D01*
X103985869Y-84641523D01*
X104203346Y-85166560D01*
X104519074Y-85639080D01*
X104920920Y-86040926D01*
X105393440Y-86356654D01*
X105918477Y-86574131D01*
X106475852Y-86685000D01*
X107044148Y-86685000D01*
X107601523Y-86574131D01*
X108126560Y-86356654D01*
X108599080Y-86040926D01*
X109000926Y-85639080D01*
X109300001Y-85191483D01*
X109300001Y-93940000D01*
X12719568Y-93940000D01*
X12713843Y-85192270D01*
X13019074Y-85649080D01*
X13420920Y-86050926D01*
X13893440Y-86366654D01*
X14418477Y-86584131D01*
X14975852Y-86695000D01*
X15544148Y-86695000D01*
X16101523Y-86584131D01*
X16626560Y-86366654D01*
X17099080Y-86050926D01*
X17500926Y-85649080D01*
X17816654Y-85176560D01*
X18034131Y-84651523D01*
X18145000Y-84094148D01*
X18145000Y-83525852D01*
X18034131Y-82968477D01*
X17816654Y-82443440D01*
X17500926Y-81970920D01*
X17099080Y-81569074D01*
X16626560Y-81253346D01*
X16101523Y-81035869D01*
X15544148Y-80925000D01*
X14975852Y-80925000D01*
X14418477Y-81035869D01*
X13893440Y-81253346D01*
X13420920Y-81569074D01*
X13019074Y-81970920D01*
X12712035Y-82430436D01*
X12710020Y-79351883D01*
X12710030Y-79351784D01*
X12709999Y-79319482D01*
X12709978Y-79287150D01*
X12709968Y-79287047D01*
X12709880Y-79195000D01*
X34986928Y-79195000D01*
X34999188Y-79319482D01*
X35035498Y-79439180D01*
X35094463Y-79549494D01*
X35173815Y-79646185D01*
X35270506Y-79725537D01*
X35380820Y-79784502D01*
X35500518Y-79820812D01*
X35625000Y-79833072D01*
X35739250Y-79830000D01*
X35898000Y-79671250D01*
X35898000Y-78572000D01*
X35148750Y-78572000D01*
X34990000Y-78730750D01*
X34986928Y-79195000D01*
X12709880Y-79195000D01*
X12705028Y-74145000D01*
X31786928Y-74145000D01*
X31786928Y-77245000D01*
X31799188Y-77369482D01*
X31835498Y-77489180D01*
X31894463Y-77599494D01*
X31973815Y-77696185D01*
X32070506Y-77775537D01*
X32180820Y-77834502D01*
X32300518Y-77870812D01*
X32425000Y-77883072D01*
X34625000Y-77883072D01*
X34749482Y-77870812D01*
X34869180Y-77834502D01*
X34979494Y-77775537D01*
X34987418Y-77769034D01*
X34990000Y-78159250D01*
X35148750Y-78318000D01*
X35898000Y-78318000D01*
X35898000Y-77218750D01*
X36152000Y-77218750D01*
X36152000Y-78318000D01*
X36172000Y-78318000D01*
X36172000Y-78572000D01*
X36152000Y-78572000D01*
X36152000Y-79671250D01*
X36310750Y-79830000D01*
X36425000Y-79833072D01*
X36515000Y-79824208D01*
X36515000Y-80557677D01*
X36511324Y-80595000D01*
X36515000Y-80632322D01*
X36515000Y-80632332D01*
X36525997Y-80743985D01*
X36568773Y-80885000D01*
X36569454Y-80887246D01*
X36640026Y-81019276D01*
X36653644Y-81035869D01*
X36734999Y-81135001D01*
X36764003Y-81158804D01*
X38086201Y-82481003D01*
X38109999Y-82510001D01*
X38225724Y-82604974D01*
X38357753Y-82675546D01*
X38501014Y-82719003D01*
X38612667Y-82730000D01*
X38612675Y-82730000D01*
X38650000Y-82733676D01*
X38687325Y-82730000D01*
X39449300Y-82730000D01*
X39609744Y-82837205D01*
X39798102Y-82915226D01*
X39998061Y-82955000D01*
X40201939Y-82955000D01*
X40401898Y-82915226D01*
X40590256Y-82837205D01*
X40759774Y-82723937D01*
X40903937Y-82579774D01*
X41017205Y-82410256D01*
X41095226Y-82221898D01*
X41135000Y-82021939D01*
X41135000Y-81818061D01*
X41095226Y-81618102D01*
X41069089Y-81555001D01*
X44037675Y-81555001D01*
X44074997Y-81558677D01*
X44112319Y-81555001D01*
X44112330Y-81555001D01*
X44223983Y-81544004D01*
X44367244Y-81500547D01*
X44499273Y-81429975D01*
X44614998Y-81335002D01*
X44638801Y-81305998D01*
X54089800Y-71855000D01*
X54151937Y-71855000D01*
X54351896Y-71815226D01*
X54540254Y-71737205D01*
X54709772Y-71623937D01*
X54853935Y-71479774D01*
X54967203Y-71310256D01*
X55045224Y-71121898D01*
X55084998Y-70921939D01*
X55084998Y-70718061D01*
X55045224Y-70518102D01*
X54988020Y-70380000D01*
X57779335Y-70380000D01*
X57815820Y-70399502D01*
X57935518Y-70435812D01*
X58060000Y-70448072D01*
X58660000Y-70448072D01*
X58784482Y-70435812D01*
X58904180Y-70399502D01*
X58962093Y-70368546D01*
X59058986Y-70359003D01*
X59202247Y-70315546D01*
X59334276Y-70244974D01*
X59450001Y-70150001D01*
X59473804Y-70120997D01*
X61861004Y-67733798D01*
X61890001Y-67710001D01*
X61968560Y-67614277D01*
X61984974Y-67594277D01*
X62055546Y-67462247D01*
X62066009Y-67427753D01*
X62099003Y-67318986D01*
X62110000Y-67207333D01*
X62110000Y-67207324D01*
X62113676Y-67170001D01*
X62110000Y-67132678D01*
X62110000Y-33327323D01*
X62113676Y-33290000D01*
X62110000Y-33252677D01*
X62110000Y-33252667D01*
X62099003Y-33141014D01*
X62055546Y-32997753D01*
X62035453Y-32960162D01*
X61984974Y-32865723D01*
X61913799Y-32778997D01*
X61890001Y-32749999D01*
X61861003Y-32726201D01*
X60813804Y-31679002D01*
X60790001Y-31649999D01*
X60674276Y-31555026D01*
X60542247Y-31484454D01*
X60398986Y-31440997D01*
X60287333Y-31430000D01*
X60287322Y-31430000D01*
X60250000Y-31426324D01*
X60212678Y-31430000D01*
X56739730Y-31430000D01*
X56702407Y-31426324D01*
X56665084Y-31430000D01*
X56665075Y-31430000D01*
X56553422Y-31440997D01*
X56410161Y-31484454D01*
X56278132Y-31555026D01*
X56162407Y-31649999D01*
X56138609Y-31678997D01*
X55256204Y-32561403D01*
X54833804Y-32139003D01*
X54810001Y-32109999D01*
X54694276Y-32015026D01*
X54562247Y-31944454D01*
X54418986Y-31900997D01*
X54307333Y-31890000D01*
X54307322Y-31890000D01*
X54270000Y-31886324D01*
X54232678Y-31890000D01*
X50578072Y-31890000D01*
X50578072Y-30470000D01*
X50565812Y-30345518D01*
X50529502Y-30225820D01*
X50470537Y-30115506D01*
X50391185Y-30018815D01*
X50294494Y-29939463D01*
X50184180Y-29880498D01*
X50107923Y-29857366D01*
X50074974Y-29795724D01*
X49980001Y-29679999D01*
X49951003Y-29656201D01*
X48993804Y-28699002D01*
X48970001Y-28669999D01*
X48854276Y-28575026D01*
X48722247Y-28504454D01*
X48578986Y-28460997D01*
X48467333Y-28450000D01*
X48467322Y-28450000D01*
X48430000Y-28446324D01*
X48392678Y-28450000D01*
X47167322Y-28450000D01*
X47129999Y-28446324D01*
X47092676Y-28450000D01*
X47092667Y-28450000D01*
X46981014Y-28460997D01*
X46837753Y-28504454D01*
X46705724Y-28575026D01*
X46589999Y-28669999D01*
X46566201Y-28698997D01*
X43879003Y-31386196D01*
X43849999Y-31409999D01*
X43800758Y-31470000D01*
X43755026Y-31525724D01*
X43701320Y-31626201D01*
X43684454Y-31657754D01*
X43640997Y-31801015D01*
X43630000Y-31912668D01*
X43630000Y-31912678D01*
X43626324Y-31950000D01*
X43630000Y-31987322D01*
X43630001Y-38259807D01*
X43550000Y-38251928D01*
X42550000Y-38251928D01*
X42425518Y-38264188D01*
X42305820Y-38300498D01*
X42195506Y-38359463D01*
X42098815Y-38438815D01*
X42019463Y-38535506D01*
X41960498Y-38645820D01*
X41924188Y-38765518D01*
X41911928Y-38890000D01*
X41911928Y-41400000D01*
X41924188Y-41524482D01*
X41960498Y-41644180D01*
X42019463Y-41754494D01*
X42098815Y-41851185D01*
X42195506Y-41930537D01*
X42305820Y-41989502D01*
X42425518Y-42025812D01*
X42550000Y-42038072D01*
X43550000Y-42038072D01*
X43630001Y-42030193D01*
X43630001Y-44442668D01*
X43626324Y-44480000D01*
X43640998Y-44628985D01*
X43684454Y-44772246D01*
X43755026Y-44904276D01*
X43795982Y-44954180D01*
X43850000Y-45020001D01*
X43878998Y-45043799D01*
X48925359Y-50090161D01*
X48921928Y-50125000D01*
X48921928Y-51575000D01*
X48934188Y-51699482D01*
X48970498Y-51819180D01*
X49029463Y-51929494D01*
X49108815Y-52026185D01*
X49205506Y-52105537D01*
X49315820Y-52164502D01*
X49435518Y-52200812D01*
X49560000Y-52213072D01*
X50010000Y-52213072D01*
X50110000Y-52203223D01*
X50210000Y-52213072D01*
X50660000Y-52213072D01*
X50760000Y-52203223D01*
X50860000Y-52213072D01*
X51310000Y-52213072D01*
X51410000Y-52203223D01*
X51510000Y-52213072D01*
X51960000Y-52213072D01*
X52084482Y-52200812D01*
X52204180Y-52164502D01*
X52314494Y-52105537D01*
X52411185Y-52026185D01*
X52490537Y-51929494D01*
X52549502Y-51819180D01*
X52585812Y-51699482D01*
X52598072Y-51575000D01*
X52598072Y-50125000D01*
X52585812Y-50000518D01*
X52549502Y-49880820D01*
X52495000Y-49778856D01*
X52495000Y-48539801D01*
X55686731Y-45348072D01*
X56240000Y-45348072D01*
X56240001Y-53625197D01*
X54020000Y-55845198D01*
X54020000Y-54307333D01*
X54023677Y-54270000D01*
X54009003Y-54121014D01*
X53965546Y-53977753D01*
X53894974Y-53845724D01*
X53800001Y-53729999D01*
X53771004Y-53706202D01*
X53193803Y-53129002D01*
X53170001Y-53099999D01*
X53054276Y-53005026D01*
X52922247Y-52934454D01*
X52778986Y-52890997D01*
X52667333Y-52880000D01*
X52667322Y-52880000D01*
X52630000Y-52876324D01*
X52592678Y-52880000D01*
X51757333Y-52880000D01*
X51720000Y-52876323D01*
X51682667Y-52880000D01*
X51571014Y-52890997D01*
X51427753Y-52934454D01*
X51295724Y-53005026D01*
X51179999Y-53099999D01*
X51156200Y-53128998D01*
X50573998Y-53711201D01*
X50545000Y-53734999D01*
X50521202Y-53763997D01*
X50521201Y-53763998D01*
X50450026Y-53850724D01*
X50430674Y-53886928D01*
X50210000Y-53886928D01*
X50106773Y-53897095D01*
X50041750Y-53890000D01*
X50009503Y-53922247D01*
X49965820Y-53935498D01*
X49855506Y-53994463D01*
X49758815Y-54073815D01*
X49687000Y-54161322D01*
X49687000Y-54048750D01*
X49528250Y-53890000D01*
X49426004Y-53901156D01*
X49306873Y-53939285D01*
X49197469Y-53999922D01*
X49101997Y-54080737D01*
X49024126Y-54178625D01*
X48966849Y-54289825D01*
X48932366Y-54410061D01*
X48922002Y-54534715D01*
X48925000Y-54964250D01*
X49083750Y-55123000D01*
X49571928Y-55123000D01*
X49571928Y-55377000D01*
X49083750Y-55377000D01*
X48925000Y-55535750D01*
X48922002Y-55965285D01*
X48932366Y-56089939D01*
X48966849Y-56210175D01*
X49024126Y-56321375D01*
X49101997Y-56419263D01*
X49197469Y-56500078D01*
X49306873Y-56560715D01*
X49426004Y-56598844D01*
X49528250Y-56610000D01*
X49687000Y-56451250D01*
X49687000Y-56338678D01*
X49758815Y-56426185D01*
X49855506Y-56505537D01*
X49965820Y-56564502D01*
X50009503Y-56577753D01*
X50041750Y-56610000D01*
X50106773Y-56602905D01*
X50210000Y-56613072D01*
X50660000Y-56613072D01*
X50760000Y-56603223D01*
X50860000Y-56613072D01*
X50975001Y-56613072D01*
X50975000Y-56860198D01*
X48518987Y-59316212D01*
X48489989Y-59340010D01*
X48466191Y-59369008D01*
X48466190Y-59369009D01*
X48395015Y-59455735D01*
X48324443Y-59587765D01*
X48300180Y-59667753D01*
X48284636Y-59718998D01*
X48280987Y-59731026D01*
X48266313Y-59880011D01*
X48269990Y-59917343D01*
X48269989Y-64384079D01*
X48266313Y-64421402D01*
X48269989Y-64458724D01*
X48269989Y-64458734D01*
X48278183Y-64541928D01*
X47670000Y-64541928D01*
X47545518Y-64554188D01*
X47425820Y-64590498D01*
X47315506Y-64649463D01*
X47218815Y-64728815D01*
X47139463Y-64825506D01*
X47080498Y-64935820D01*
X47044188Y-65055518D01*
X47031928Y-65180000D01*
X47031928Y-67690000D01*
X47044188Y-67814482D01*
X47080498Y-67934180D01*
X47139463Y-68044494D01*
X47218815Y-68141185D01*
X47315506Y-68220537D01*
X47425820Y-68279502D01*
X47545518Y-68315812D01*
X47670000Y-68328072D01*
X48670000Y-68328072D01*
X48794482Y-68315812D01*
X48914180Y-68279502D01*
X49024494Y-68220537D01*
X49121185Y-68141185D01*
X49200537Y-68044494D01*
X49259502Y-67934180D01*
X49295812Y-67814482D01*
X49308072Y-67690000D01*
X49308072Y-65774286D01*
X50479787Y-66946002D01*
X50503586Y-66975001D01*
X50584024Y-67041015D01*
X50619311Y-67069974D01*
X50751340Y-67140546D01*
X50894601Y-67184003D01*
X51043587Y-67198677D01*
X51080920Y-67195000D01*
X52111928Y-67195000D01*
X52111928Y-67253270D01*
X51425764Y-67939435D01*
X51248102Y-67974774D01*
X51059744Y-68052795D01*
X50890226Y-68166063D01*
X50746063Y-68310226D01*
X50632795Y-68479744D01*
X50554774Y-68668102D01*
X50515000Y-68868061D01*
X50515000Y-69071939D01*
X50554774Y-69271898D01*
X50632795Y-69460256D01*
X50746063Y-69629774D01*
X50890226Y-69773937D01*
X51059744Y-69887205D01*
X51248102Y-69965226D01*
X51448061Y-70005000D01*
X51651939Y-70005000D01*
X51687215Y-69997983D01*
X49573248Y-72111951D01*
X49520724Y-72140026D01*
X49404999Y-72234999D01*
X49381201Y-72263997D01*
X42635199Y-79010000D01*
X40813072Y-79010000D01*
X40813072Y-77769436D01*
X40820506Y-77775537D01*
X40930820Y-77834502D01*
X41050518Y-77870812D01*
X41175000Y-77883072D01*
X43375000Y-77883072D01*
X43499482Y-77870812D01*
X43619180Y-77834502D01*
X43729494Y-77775537D01*
X43826185Y-77696185D01*
X43905537Y-77599494D01*
X43964502Y-77489180D01*
X44000812Y-77369482D01*
X44013072Y-77245000D01*
X44013072Y-74145000D01*
X44000812Y-74020518D01*
X43964502Y-73900820D01*
X43905537Y-73790506D01*
X43826185Y-73693815D01*
X43729494Y-73614463D01*
X43619180Y-73555498D01*
X43499482Y-73519188D01*
X43375000Y-73506928D01*
X41175000Y-73506928D01*
X41050518Y-73519188D01*
X40930820Y-73555498D01*
X40820506Y-73614463D01*
X40723815Y-73693815D01*
X40644463Y-73790506D01*
X40585498Y-73900820D01*
X40549188Y-74020518D01*
X40536928Y-74145000D01*
X40536928Y-77170564D01*
X40529494Y-77164463D01*
X40419180Y-77105498D01*
X40299482Y-77069188D01*
X40175000Y-77056928D01*
X39375000Y-77056928D01*
X39250518Y-77069188D01*
X39150000Y-77099680D01*
X39049482Y-77069188D01*
X38925000Y-77056928D01*
X38125000Y-77056928D01*
X38000518Y-77069188D01*
X37900000Y-77099680D01*
X37799482Y-77069188D01*
X37675000Y-77056928D01*
X36875000Y-77056928D01*
X36750518Y-77069188D01*
X36650000Y-77099680D01*
X36549482Y-77069188D01*
X36425000Y-77056928D01*
X36310750Y-77060000D01*
X36152000Y-77218750D01*
X35898000Y-77218750D01*
X35739250Y-77060000D01*
X35625000Y-77056928D01*
X35500518Y-77069188D01*
X35380820Y-77105498D01*
X35270506Y-77164463D01*
X35263072Y-77170564D01*
X35263072Y-74145000D01*
X35250812Y-74020518D01*
X35214502Y-73900820D01*
X35155537Y-73790506D01*
X35076185Y-73693815D01*
X34979494Y-73614463D01*
X34869180Y-73555498D01*
X34749482Y-73519188D01*
X34625000Y-73506928D01*
X32425000Y-73506928D01*
X32300518Y-73519188D01*
X32180820Y-73555498D01*
X32070506Y-73614463D01*
X31973815Y-73693815D01*
X31894463Y-73790506D01*
X31835498Y-73900820D01*
X31799188Y-74020518D01*
X31786928Y-74145000D01*
X12705028Y-74145000D01*
X12698826Y-67690000D01*
X41951928Y-67690000D01*
X41964188Y-67814482D01*
X42000498Y-67934180D01*
X42059463Y-68044494D01*
X42138815Y-68141185D01*
X42235506Y-68220537D01*
X42345820Y-68279502D01*
X42465518Y-68315812D01*
X42590000Y-68328072D01*
X42804250Y-68325000D01*
X42963000Y-68166250D01*
X42963000Y-66562000D01*
X43217000Y-66562000D01*
X43217000Y-68166250D01*
X43375750Y-68325000D01*
X43590000Y-68328072D01*
X43714482Y-68315812D01*
X43834180Y-68279502D01*
X43944494Y-68220537D01*
X44041185Y-68141185D01*
X44120537Y-68044494D01*
X44179502Y-67934180D01*
X44215812Y-67814482D01*
X44228072Y-67690000D01*
X44225000Y-66720750D01*
X44066250Y-66562000D01*
X43217000Y-66562000D01*
X42963000Y-66562000D01*
X42113750Y-66562000D01*
X41955000Y-66720750D01*
X41951928Y-67690000D01*
X12698826Y-67690000D01*
X12696415Y-65180000D01*
X41951928Y-65180000D01*
X41955000Y-66149250D01*
X42113750Y-66308000D01*
X42963000Y-66308000D01*
X42963000Y-64703750D01*
X43217000Y-64703750D01*
X43217000Y-66308000D01*
X44066250Y-66308000D01*
X44225000Y-66149250D01*
X44228072Y-65180000D01*
X44215812Y-65055518D01*
X44179502Y-64935820D01*
X44120537Y-64825506D01*
X44041185Y-64728815D01*
X43944494Y-64649463D01*
X43834180Y-64590498D01*
X43714482Y-64554188D01*
X43590000Y-64541928D01*
X43375750Y-64545000D01*
X43217000Y-64703750D01*
X42963000Y-64703750D01*
X42804250Y-64545000D01*
X42590000Y-64541928D01*
X42465518Y-64554188D01*
X42345820Y-64590498D01*
X42235506Y-64649463D01*
X42138815Y-64728815D01*
X42059463Y-64825506D01*
X42000498Y-64935820D01*
X41964188Y-65055518D01*
X41951928Y-65180000D01*
X12696415Y-65180000D01*
X12693235Y-61870000D01*
X44491928Y-61870000D01*
X44491928Y-64380000D01*
X44504188Y-64504482D01*
X44540498Y-64624180D01*
X44599463Y-64734494D01*
X44678815Y-64831185D01*
X44775506Y-64910537D01*
X44885820Y-64969502D01*
X45005518Y-65005812D01*
X45130000Y-65018072D01*
X46130000Y-65018072D01*
X46254482Y-65005812D01*
X46374180Y-64969502D01*
X46484494Y-64910537D01*
X46581185Y-64831185D01*
X46660537Y-64734494D01*
X46719502Y-64624180D01*
X46755812Y-64504482D01*
X46768072Y-64380000D01*
X46768072Y-61870000D01*
X46755812Y-61745518D01*
X46719502Y-61625820D01*
X46660537Y-61515506D01*
X46581185Y-61418815D01*
X46484494Y-61339463D01*
X46374180Y-61280498D01*
X46254482Y-61244188D01*
X46130000Y-61231928D01*
X45130000Y-61231928D01*
X45005518Y-61244188D01*
X44885820Y-61280498D01*
X44775506Y-61339463D01*
X44678815Y-61418815D01*
X44599463Y-61515506D01*
X44540498Y-61625820D01*
X44504188Y-61745518D01*
X44491928Y-61870000D01*
X12693235Y-61870000D01*
X12660000Y-27280253D01*
X12660000Y-24061913D01*
X12703346Y-24166560D01*
X13019074Y-24639080D01*
X13420920Y-25040926D01*
X13893440Y-25356654D01*
X14418477Y-25574131D01*
X14975852Y-25685000D01*
X15544148Y-25685000D01*
X16101523Y-25574131D01*
X16626560Y-25356654D01*
X17099080Y-25040926D01*
X17500926Y-24639080D01*
X17816654Y-24166560D01*
X18034131Y-23641523D01*
X18145000Y-23084148D01*
X18145000Y-22515852D01*
X18034131Y-21958477D01*
X17816654Y-21433440D01*
X17500926Y-20960920D01*
X17099080Y-20559074D01*
X16626560Y-20243346D01*
X16101523Y-20025869D01*
X15544148Y-19915000D01*
X14975852Y-19915000D01*
X14418477Y-20025869D01*
X13893440Y-20243346D01*
X13420920Y-20559074D01*
X13019074Y-20960920D01*
X12703346Y-21433440D01*
X12660000Y-21538087D01*
X12660000Y-12660000D01*
X109300000Y-12660000D01*
X109300000Y-21408516D01*
G36*
X60590001Y-33604803D02*
G01*
X60590000Y-66855198D01*
X59225076Y-68220123D01*
X59212856Y-68197261D01*
X59281185Y-68141185D01*
X59360537Y-68044494D01*
X59419502Y-67934180D01*
X59455812Y-67814482D01*
X59468072Y-67690000D01*
X59468072Y-65180000D01*
X59455812Y-65055518D01*
X59419502Y-64935820D01*
X59360537Y-64825506D01*
X59281185Y-64728815D01*
X59184494Y-64649463D01*
X59074180Y-64590498D01*
X58954482Y-64554188D01*
X58830000Y-64541928D01*
X57830000Y-64541928D01*
X57705518Y-64554188D01*
X57585820Y-64590498D01*
X57475506Y-64649463D01*
X57378815Y-64728815D01*
X57299463Y-64825506D01*
X57240498Y-64935820D01*
X57220743Y-65000942D01*
X56867129Y-64647328D01*
X56879502Y-64624180D01*
X56915812Y-64504482D01*
X56928072Y-64380000D01*
X56928072Y-61870000D01*
X56915812Y-61745518D01*
X56879502Y-61625820D01*
X56820537Y-61515506D01*
X56741185Y-61418815D01*
X56644494Y-61339463D01*
X56550000Y-61288954D01*
X56550000Y-60274801D01*
X59931003Y-56893799D01*
X59960001Y-56870001D01*
X60054974Y-56754276D01*
X60125546Y-56622247D01*
X60169003Y-56478986D01*
X60180000Y-56367333D01*
X60180000Y-56367324D01*
X60183676Y-56330001D01*
X60180000Y-56292678D01*
X60180000Y-36107325D01*
X60183676Y-36070000D01*
X60180000Y-36032675D01*
X60180000Y-36032667D01*
X60169003Y-35921014D01*
X60125546Y-35777753D01*
X60054974Y-35645724D01*
X59960001Y-35529999D01*
X59931004Y-35506202D01*
X59343803Y-34919002D01*
X59320001Y-34889999D01*
X59204276Y-34795026D01*
X59072247Y-34724454D01*
X58928986Y-34680997D01*
X58817333Y-34670000D01*
X58817322Y-34670000D01*
X58780000Y-34666324D01*
X58742678Y-34670000D01*
X58205166Y-34670000D01*
X58118072Y-34582906D01*
X58118072Y-33310000D01*
X58105812Y-33185518D01*
X58069502Y-33065820D01*
X58010537Y-32955506D01*
X58006018Y-32950000D01*
X59935199Y-32950000D01*
X60590001Y-33604803D01*
X60590001Y-33604803D01*
G37*
X60590001Y-33604803D02*
X60590000Y-66855198D01*
X59225076Y-68220123D01*
X59212856Y-68197261D01*
X59281185Y-68141185D01*
X59360537Y-68044494D01*
X59419502Y-67934180D01*
X59455812Y-67814482D01*
X59468072Y-67690000D01*
X59468072Y-65180000D01*
X59455812Y-65055518D01*
X59419502Y-64935820D01*
X59360537Y-64825506D01*
X59281185Y-64728815D01*
X59184494Y-64649463D01*
X59074180Y-64590498D01*
X58954482Y-64554188D01*
X58830000Y-64541928D01*
X57830000Y-64541928D01*
X57705518Y-64554188D01*
X57585820Y-64590498D01*
X57475506Y-64649463D01*
X57378815Y-64728815D01*
X57299463Y-64825506D01*
X57240498Y-64935820D01*
X57220743Y-65000942D01*
X56867129Y-64647328D01*
X56879502Y-64624180D01*
X56915812Y-64504482D01*
X56928072Y-64380000D01*
X56928072Y-61870000D01*
X56915812Y-61745518D01*
X56879502Y-61625820D01*
X56820537Y-61515506D01*
X56741185Y-61418815D01*
X56644494Y-61339463D01*
X56550000Y-61288954D01*
X56550000Y-60274801D01*
X59931003Y-56893799D01*
X59960001Y-56870001D01*
X60054974Y-56754276D01*
X60125546Y-56622247D01*
X60169003Y-56478986D01*
X60180000Y-56367333D01*
X60180000Y-56367324D01*
X60183676Y-56330001D01*
X60180000Y-56292678D01*
X60180000Y-36107325D01*
X60183676Y-36070000D01*
X60180000Y-36032675D01*
X60180000Y-36032667D01*
X60169003Y-35921014D01*
X60125546Y-35777753D01*
X60054974Y-35645724D01*
X59960001Y-35529999D01*
X59931004Y-35506202D01*
X59343803Y-34919002D01*
X59320001Y-34889999D01*
X59204276Y-34795026D01*
X59072247Y-34724454D01*
X58928986Y-34680997D01*
X58817333Y-34670000D01*
X58817322Y-34670000D01*
X58780000Y-34666324D01*
X58742678Y-34670000D01*
X58205166Y-34670000D01*
X58118072Y-34582906D01*
X58118072Y-33310000D01*
X58105812Y-33185518D01*
X58069502Y-33065820D01*
X58010537Y-32955506D01*
X58006018Y-32950000D01*
X59935199Y-32950000D01*
X60590001Y-33604803D01*
G36*
X58660000Y-36384802D02*
G01*
X58660000Y-38253792D01*
X58575750Y-38255000D01*
X58417000Y-38413750D01*
X58417000Y-40018000D01*
X58437000Y-40018000D01*
X58437000Y-40272000D01*
X58417000Y-40272000D01*
X58417000Y-41876250D01*
X58575750Y-42035000D01*
X58660000Y-42036208D01*
X58660001Y-56015197D01*
X55279003Y-59396196D01*
X55249999Y-59419999D01*
X55199940Y-59480997D01*
X55155026Y-59535724D01*
X55123328Y-59595026D01*
X55084454Y-59667754D01*
X55040997Y-59811015D01*
X55030000Y-59922668D01*
X55030000Y-59922678D01*
X55026324Y-59960000D01*
X55030000Y-59997323D01*
X55030000Y-61288954D01*
X54935506Y-61339463D01*
X54838815Y-61418815D01*
X54759463Y-61515506D01*
X54700498Y-61625820D01*
X54664188Y-61745518D01*
X54651928Y-61870000D01*
X54651928Y-64094999D01*
X51848072Y-64094999D01*
X51848072Y-61870000D01*
X51835812Y-61745518D01*
X51799502Y-61625820D01*
X51740537Y-61515506D01*
X51661185Y-61418815D01*
X51564494Y-61339463D01*
X51470000Y-61288954D01*
X51470000Y-60544801D01*
X57511003Y-54503799D01*
X57540001Y-54480001D01*
X57634974Y-54364276D01*
X57705546Y-54232247D01*
X57749003Y-54088986D01*
X57760000Y-53977333D01*
X57760000Y-53977324D01*
X57763676Y-53940001D01*
X57760000Y-53902678D01*
X57760000Y-42035117D01*
X57790000Y-42038072D01*
X58004250Y-42035000D01*
X58163000Y-41876250D01*
X58163000Y-40272000D01*
X58143000Y-40272000D01*
X58143000Y-40018000D01*
X58163000Y-40018000D01*
X58163000Y-38413750D01*
X58004250Y-38255000D01*
X57832055Y-38252531D01*
X57854494Y-38240537D01*
X57951185Y-38161185D01*
X58030537Y-38064494D01*
X58089502Y-37954180D01*
X58125812Y-37834482D01*
X58138072Y-37710000D01*
X58138072Y-36210000D01*
X58136102Y-36190000D01*
X58465199Y-36190000D01*
X58660000Y-36384802D01*
X58660000Y-36384802D01*
G37*
X58660000Y-36384802D02*
X58660000Y-38253792D01*
X58575750Y-38255000D01*
X58417000Y-38413750D01*
X58417000Y-40018000D01*
X58437000Y-40018000D01*
X58437000Y-40272000D01*
X58417000Y-40272000D01*
X58417000Y-41876250D01*
X58575750Y-42035000D01*
X58660000Y-42036208D01*
X58660001Y-56015197D01*
X55279003Y-59396196D01*
X55249999Y-59419999D01*
X55199940Y-59480997D01*
X55155026Y-59535724D01*
X55123328Y-59595026D01*
X55084454Y-59667754D01*
X55040997Y-59811015D01*
X55030000Y-59922668D01*
X55030000Y-59922678D01*
X55026324Y-59960000D01*
X55030000Y-59997323D01*
X55030000Y-61288954D01*
X54935506Y-61339463D01*
X54838815Y-61418815D01*
X54759463Y-61515506D01*
X54700498Y-61625820D01*
X54664188Y-61745518D01*
X54651928Y-61870000D01*
X54651928Y-64094999D01*
X51848072Y-64094999D01*
X51848072Y-61870000D01*
X51835812Y-61745518D01*
X51799502Y-61625820D01*
X51740537Y-61515506D01*
X51661185Y-61418815D01*
X51564494Y-61339463D01*
X51470000Y-61288954D01*
X51470000Y-60544801D01*
X57511003Y-54503799D01*
X57540001Y-54480001D01*
X57634974Y-54364276D01*
X57705546Y-54232247D01*
X57749003Y-54088986D01*
X57760000Y-53977333D01*
X57760000Y-53977324D01*
X57763676Y-53940001D01*
X57760000Y-53902678D01*
X57760000Y-42035117D01*
X57790000Y-42038072D01*
X58004250Y-42035000D01*
X58163000Y-41876250D01*
X58163000Y-40272000D01*
X58143000Y-40272000D01*
X58143000Y-40018000D01*
X58163000Y-40018000D01*
X58163000Y-38413750D01*
X58004250Y-38255000D01*
X57832055Y-38252531D01*
X57854494Y-38240537D01*
X57951185Y-38161185D01*
X58030537Y-38064494D01*
X58089502Y-37954180D01*
X58125812Y-37834482D01*
X58138072Y-37710000D01*
X58138072Y-36210000D01*
X58136102Y-36190000D01*
X58465199Y-36190000D01*
X58660000Y-36384802D01*
G36*
X54541928Y-33996730D02*
G01*
X54541928Y-34310000D01*
X54544336Y-34334450D01*
X54544336Y-34359009D01*
X54556596Y-34483490D01*
X54575718Y-34579623D01*
X54612027Y-34699319D01*
X54649536Y-34789875D01*
X54708502Y-34900192D01*
X54762958Y-34981691D01*
X54842310Y-35078382D01*
X54911618Y-35147690D01*
X54920000Y-35154569D01*
X54920001Y-35883927D01*
X54862310Y-35941618D01*
X54782958Y-36038309D01*
X54728502Y-36119808D01*
X54669536Y-36230125D01*
X54632027Y-36320681D01*
X54595718Y-36440377D01*
X54576596Y-36536510D01*
X54564336Y-36660991D01*
X54564336Y-36685550D01*
X54561928Y-36710000D01*
X54561928Y-37210000D01*
X54564336Y-37234450D01*
X54564336Y-37259009D01*
X54576596Y-37383490D01*
X54595718Y-37479623D01*
X54632027Y-37599319D01*
X54669536Y-37689875D01*
X54728502Y-37800192D01*
X54782958Y-37881691D01*
X54862310Y-37978382D01*
X54931618Y-38047690D01*
X54940000Y-38054569D01*
X54940001Y-41645680D01*
X54895506Y-41669463D01*
X54798815Y-41748815D01*
X54719463Y-41845506D01*
X54660498Y-41955820D01*
X54640743Y-42020942D01*
X54287129Y-41667328D01*
X54299502Y-41644180D01*
X54335812Y-41524482D01*
X54348072Y-41400000D01*
X54348072Y-38890000D01*
X54335812Y-38765518D01*
X54299502Y-38645820D01*
X54240537Y-38535506D01*
X54161185Y-38438815D01*
X54064494Y-38359463D01*
X53954180Y-38300498D01*
X53834482Y-38264188D01*
X53710000Y-38251928D01*
X52710000Y-38251928D01*
X52585518Y-38264188D01*
X52465820Y-38300498D01*
X52355506Y-38359463D01*
X52258815Y-38438815D01*
X52179463Y-38535506D01*
X52120498Y-38645820D01*
X52084188Y-38765518D01*
X52071928Y-38890000D01*
X52071928Y-41400000D01*
X52084188Y-41524482D01*
X52120498Y-41644180D01*
X52179463Y-41754494D01*
X52258815Y-41851185D01*
X52355506Y-41930537D01*
X52465820Y-41989502D01*
X52532508Y-42009732D01*
X52575026Y-42089276D01*
X52614871Y-42137826D01*
X52669999Y-42205001D01*
X52699003Y-42228804D01*
X54436201Y-43966003D01*
X54459999Y-43995001D01*
X54575724Y-44089974D01*
X54611928Y-44109326D01*
X54611928Y-44273269D01*
X51380000Y-47505199D01*
X50220000Y-46345199D01*
X50220000Y-45348072D01*
X51170000Y-45348072D01*
X51294482Y-45335812D01*
X51414180Y-45299502D01*
X51524494Y-45240537D01*
X51621185Y-45161185D01*
X51700537Y-45064494D01*
X51759502Y-44954180D01*
X51795812Y-44834482D01*
X51808072Y-44710000D01*
X51808072Y-42200000D01*
X51795812Y-42075518D01*
X51759502Y-41955820D01*
X51700537Y-41845506D01*
X51621185Y-41748815D01*
X51524494Y-41669463D01*
X51414180Y-41610498D01*
X51294482Y-41574188D01*
X51170000Y-41561928D01*
X50220000Y-41561928D01*
X50220000Y-38279665D01*
X50274494Y-38250537D01*
X50371185Y-38171185D01*
X50450537Y-38074494D01*
X50509502Y-37964180D01*
X50545812Y-37844482D01*
X50558072Y-37720000D01*
X50558072Y-36220000D01*
X50545812Y-36095518D01*
X50509502Y-35975820D01*
X50450537Y-35865506D01*
X50371185Y-35768815D01*
X50274494Y-35689463D01*
X50164180Y-35630498D01*
X50044482Y-35594188D01*
X49982600Y-35588093D01*
X50034974Y-35524276D01*
X50067923Y-35462634D01*
X50144180Y-35439502D01*
X50254494Y-35380537D01*
X50351185Y-35301185D01*
X50430537Y-35204494D01*
X50489502Y-35094180D01*
X50525812Y-34974482D01*
X50538072Y-34850000D01*
X50538072Y-33410000D01*
X53955199Y-33410000D01*
X54541928Y-33996730D01*
X54541928Y-33996730D01*
G37*
X54541928Y-33996730D02*
X54541928Y-34310000D01*
X54544336Y-34334450D01*
X54544336Y-34359009D01*
X54556596Y-34483490D01*
X54575718Y-34579623D01*
X54612027Y-34699319D01*
X54649536Y-34789875D01*
X54708502Y-34900192D01*
X54762958Y-34981691D01*
X54842310Y-35078382D01*
X54911618Y-35147690D01*
X54920000Y-35154569D01*
X54920001Y-35883927D01*
X54862310Y-35941618D01*
X54782958Y-36038309D01*
X54728502Y-36119808D01*
X54669536Y-36230125D01*
X54632027Y-36320681D01*
X54595718Y-36440377D01*
X54576596Y-36536510D01*
X54564336Y-36660991D01*
X54564336Y-36685550D01*
X54561928Y-36710000D01*
X54561928Y-37210000D01*
X54564336Y-37234450D01*
X54564336Y-37259009D01*
X54576596Y-37383490D01*
X54595718Y-37479623D01*
X54632027Y-37599319D01*
X54669536Y-37689875D01*
X54728502Y-37800192D01*
X54782958Y-37881691D01*
X54862310Y-37978382D01*
X54931618Y-38047690D01*
X54940000Y-38054569D01*
X54940001Y-41645680D01*
X54895506Y-41669463D01*
X54798815Y-41748815D01*
X54719463Y-41845506D01*
X54660498Y-41955820D01*
X54640743Y-42020942D01*
X54287129Y-41667328D01*
X54299502Y-41644180D01*
X54335812Y-41524482D01*
X54348072Y-41400000D01*
X54348072Y-38890000D01*
X54335812Y-38765518D01*
X54299502Y-38645820D01*
X54240537Y-38535506D01*
X54161185Y-38438815D01*
X54064494Y-38359463D01*
X53954180Y-38300498D01*
X53834482Y-38264188D01*
X53710000Y-38251928D01*
X52710000Y-38251928D01*
X52585518Y-38264188D01*
X52465820Y-38300498D01*
X52355506Y-38359463D01*
X52258815Y-38438815D01*
X52179463Y-38535506D01*
X52120498Y-38645820D01*
X52084188Y-38765518D01*
X52071928Y-38890000D01*
X52071928Y-41400000D01*
X52084188Y-41524482D01*
X52120498Y-41644180D01*
X52179463Y-41754494D01*
X52258815Y-41851185D01*
X52355506Y-41930537D01*
X52465820Y-41989502D01*
X52532508Y-42009732D01*
X52575026Y-42089276D01*
X52614871Y-42137826D01*
X52669999Y-42205001D01*
X52699003Y-42228804D01*
X54436201Y-43966003D01*
X54459999Y-43995001D01*
X54575724Y-44089974D01*
X54611928Y-44109326D01*
X54611928Y-44273269D01*
X51380000Y-47505199D01*
X50220000Y-46345199D01*
X50220000Y-45348072D01*
X51170000Y-45348072D01*
X51294482Y-45335812D01*
X51414180Y-45299502D01*
X51524494Y-45240537D01*
X51621185Y-45161185D01*
X51700537Y-45064494D01*
X51759502Y-44954180D01*
X51795812Y-44834482D01*
X51808072Y-44710000D01*
X51808072Y-42200000D01*
X51795812Y-42075518D01*
X51759502Y-41955820D01*
X51700537Y-41845506D01*
X51621185Y-41748815D01*
X51524494Y-41669463D01*
X51414180Y-41610498D01*
X51294482Y-41574188D01*
X51170000Y-41561928D01*
X50220000Y-41561928D01*
X50220000Y-38279665D01*
X50274494Y-38250537D01*
X50371185Y-38171185D01*
X50450537Y-38074494D01*
X50509502Y-37964180D01*
X50545812Y-37844482D01*
X50558072Y-37720000D01*
X50558072Y-36220000D01*
X50545812Y-36095518D01*
X50509502Y-35975820D01*
X50450537Y-35865506D01*
X50371185Y-35768815D01*
X50274494Y-35689463D01*
X50164180Y-35630498D01*
X50044482Y-35594188D01*
X49982600Y-35588093D01*
X50034974Y-35524276D01*
X50067923Y-35462634D01*
X50144180Y-35439502D01*
X50254494Y-35380537D01*
X50351185Y-35301185D01*
X50430537Y-35204494D01*
X50489502Y-35094180D01*
X50525812Y-34974482D01*
X50538072Y-34850000D01*
X50538072Y-33410000D01*
X53955199Y-33410000D01*
X54541928Y-33996730D01*
M02*
