G04 #@! TF.GenerationSoftware,KiCad,Pcbnew,(5.1.2)-2*
G04 #@! TF.CreationDate,2021-12-15T08:56:33-03:00*
G04 #@! TF.ProjectId,MAG_Plus,4d41475f-506c-4757-932e-6b696361645f,rev?*
G04 #@! TF.SameCoordinates,Original*
G04 #@! TF.FileFunction,Copper,L1,Top*
G04 #@! TF.FilePolarity,Positive*
%FSLAX46Y46*%
G04 Gerber Fmt 4.6, Leading zero omitted, Abs format (unit mm)*
G04 Created by KiCad (PCBNEW (5.1.2)-2) date 2021-12-15 08:56:33*
%MOMM*%
%LPD*%
G04 APERTURE LIST*
%ADD10C,4.500000*%
%ADD11C,0.800000*%
%ADD12C,0.250000*%
%ADD13C,0.254000*%
G04 APERTURE END LIST*
D10*
X15260000Y-22800000D03*
X106760000Y-83800000D03*
X15260000Y-83810000D03*
X106760000Y-22800000D03*
D11*
X54049998Y-70820000D03*
X55149998Y-68520000D03*
X40100000Y-81920000D03*
X51550000Y-68970000D03*
X58340000Y-45070000D03*
X52750000Y-31230000D03*
X52690000Y-33980000D03*
X59410000Y-32950000D03*
X52690000Y-28640000D03*
X60624990Y-35600000D03*
X46130000Y-35300000D03*
X47550000Y-42570000D03*
D12*
X55149998Y-69085685D02*
X55149998Y-68520000D01*
X55149998Y-69720000D02*
X55149998Y-69085685D01*
X54049998Y-70820000D02*
X55149998Y-69720000D01*
X51500000Y-69020000D02*
X51550000Y-68970000D01*
X51500000Y-72620000D02*
X51500000Y-69020000D01*
X40100000Y-81920000D02*
X42200000Y-81920000D01*
X42200000Y-81920000D02*
X51500000Y-72620000D01*
X52750000Y-31230000D02*
X52750000Y-33920000D01*
X52750000Y-33920000D02*
X52690000Y-33980000D01*
X57890000Y-28640000D02*
X52690000Y-28640000D01*
X59420000Y-30170000D02*
X57890000Y-28640000D01*
X59420000Y-30300000D02*
X59420000Y-30170000D01*
X59410000Y-32950000D02*
X59410000Y-30310000D01*
X59410000Y-30310000D02*
X59420000Y-30300000D01*
X60624990Y-36165685D02*
X60624990Y-35600000D01*
X60624990Y-42785010D02*
X60624990Y-36165685D01*
X58340000Y-45070000D02*
X60624990Y-42785010D01*
X46810000Y-42570000D02*
X47550000Y-42570000D01*
X46130000Y-35300000D02*
X46130000Y-41890000D01*
X46130000Y-41890000D02*
X46810000Y-42570000D01*
D13*
G36*
X109300000Y-21408516D02*
G01*
X109000926Y-20960920D01*
X108599080Y-20559074D01*
X108126560Y-20243346D01*
X107601523Y-20025869D01*
X107044148Y-19915000D01*
X106475852Y-19915000D01*
X105918477Y-20025869D01*
X105393440Y-20243346D01*
X104920920Y-20559074D01*
X104519074Y-20960920D01*
X104203346Y-21433440D01*
X103985869Y-21958477D01*
X103875000Y-22515852D01*
X103875000Y-23084148D01*
X103985869Y-23641523D01*
X104203346Y-24166560D01*
X104519074Y-24639080D01*
X104920920Y-25040926D01*
X105393440Y-25356654D01*
X105918477Y-25574131D01*
X106475852Y-25685000D01*
X107044148Y-25685000D01*
X107601523Y-25574131D01*
X108126560Y-25356654D01*
X108599080Y-25040926D01*
X109000926Y-24639080D01*
X109300000Y-24191484D01*
X109300001Y-82408517D01*
X109000926Y-81960920D01*
X108599080Y-81559074D01*
X108126560Y-81243346D01*
X107601523Y-81025869D01*
X107044148Y-80915000D01*
X106475852Y-80915000D01*
X105918477Y-81025869D01*
X105393440Y-81243346D01*
X104920920Y-81559074D01*
X104519074Y-81960920D01*
X104203346Y-82433440D01*
X103985869Y-82958477D01*
X103875000Y-83515852D01*
X103875000Y-84084148D01*
X103985869Y-84641523D01*
X104203346Y-85166560D01*
X104519074Y-85639080D01*
X104920920Y-86040926D01*
X105393440Y-86356654D01*
X105918477Y-86574131D01*
X106475852Y-86685000D01*
X107044148Y-86685000D01*
X107601523Y-86574131D01*
X108126560Y-86356654D01*
X108599080Y-86040926D01*
X109000926Y-85639080D01*
X109300001Y-85191483D01*
X109300001Y-93940000D01*
X12719568Y-93940000D01*
X12713843Y-85192270D01*
X13019074Y-85649080D01*
X13420920Y-86050926D01*
X13893440Y-86366654D01*
X14418477Y-86584131D01*
X14975852Y-86695000D01*
X15544148Y-86695000D01*
X16101523Y-86584131D01*
X16626560Y-86366654D01*
X17099080Y-86050926D01*
X17500926Y-85649080D01*
X17816654Y-85176560D01*
X18034131Y-84651523D01*
X18145000Y-84094148D01*
X18145000Y-83525852D01*
X18034131Y-82968477D01*
X17816654Y-82443440D01*
X17500926Y-81970920D01*
X17348067Y-81818061D01*
X39065000Y-81818061D01*
X39065000Y-82021939D01*
X39104774Y-82221898D01*
X39182795Y-82410256D01*
X39296063Y-82579774D01*
X39440226Y-82723937D01*
X39609744Y-82837205D01*
X39798102Y-82915226D01*
X39998061Y-82955000D01*
X40201939Y-82955000D01*
X40401898Y-82915226D01*
X40590256Y-82837205D01*
X40759774Y-82723937D01*
X40803711Y-82680000D01*
X42162678Y-82680000D01*
X42200000Y-82683676D01*
X42237322Y-82680000D01*
X42237333Y-82680000D01*
X42348986Y-82669003D01*
X42492247Y-82625546D01*
X42624276Y-82554974D01*
X42740001Y-82460001D01*
X42763804Y-82430997D01*
X52011004Y-73183798D01*
X52040001Y-73160001D01*
X52066332Y-73127917D01*
X52134974Y-73044277D01*
X52205546Y-72912247D01*
X52205546Y-72912246D01*
X52249003Y-72768986D01*
X52260000Y-72657333D01*
X52260000Y-72657324D01*
X52263676Y-72620001D01*
X52260000Y-72582678D01*
X52260000Y-70718061D01*
X53014998Y-70718061D01*
X53014998Y-70921939D01*
X53054772Y-71121898D01*
X53132793Y-71310256D01*
X53246061Y-71479774D01*
X53390224Y-71623937D01*
X53559742Y-71737205D01*
X53748100Y-71815226D01*
X53948059Y-71855000D01*
X54151937Y-71855000D01*
X54351896Y-71815226D01*
X54540254Y-71737205D01*
X54709772Y-71623937D01*
X54853935Y-71479774D01*
X54967203Y-71310256D01*
X55045224Y-71121898D01*
X55084998Y-70921939D01*
X55084998Y-70859801D01*
X55661002Y-70283798D01*
X55689999Y-70260001D01*
X55716330Y-70227917D01*
X55784972Y-70144277D01*
X55855544Y-70012247D01*
X55893474Y-69887205D01*
X55899001Y-69868986D01*
X55909998Y-69757333D01*
X55909998Y-69757323D01*
X55913674Y-69720000D01*
X55909998Y-69682677D01*
X55909998Y-69223711D01*
X55953935Y-69179774D01*
X56067203Y-69010256D01*
X56145224Y-68821898D01*
X56184998Y-68621939D01*
X56184998Y-68418061D01*
X56145224Y-68218102D01*
X56067203Y-68029744D01*
X55953935Y-67860226D01*
X55809772Y-67716063D01*
X55640254Y-67602795D01*
X55451896Y-67524774D01*
X55251937Y-67485000D01*
X55048059Y-67485000D01*
X54848100Y-67524774D01*
X54659742Y-67602795D01*
X54490224Y-67716063D01*
X54346061Y-67860226D01*
X54232793Y-68029744D01*
X54154772Y-68218102D01*
X54114998Y-68418061D01*
X54114998Y-68621939D01*
X54154772Y-68821898D01*
X54232793Y-69010256D01*
X54346061Y-69179774D01*
X54389998Y-69223711D01*
X54389998Y-69405198D01*
X54010197Y-69785000D01*
X53948059Y-69785000D01*
X53748100Y-69824774D01*
X53559742Y-69902795D01*
X53390224Y-70016063D01*
X53246061Y-70160226D01*
X53132793Y-70329744D01*
X53054772Y-70518102D01*
X53014998Y-70718061D01*
X52260000Y-70718061D01*
X52260000Y-69723711D01*
X52353937Y-69629774D01*
X52467205Y-69460256D01*
X52545226Y-69271898D01*
X52585000Y-69071939D01*
X52585000Y-68868061D01*
X52545226Y-68668102D01*
X52467205Y-68479744D01*
X52353937Y-68310226D01*
X52209774Y-68166063D01*
X52040256Y-68052795D01*
X51851898Y-67974774D01*
X51651939Y-67935000D01*
X51448061Y-67935000D01*
X51248102Y-67974774D01*
X51059744Y-68052795D01*
X50890226Y-68166063D01*
X50746063Y-68310226D01*
X50632795Y-68479744D01*
X50554774Y-68668102D01*
X50515000Y-68868061D01*
X50515000Y-69071939D01*
X50554774Y-69271898D01*
X50632795Y-69460256D01*
X50740001Y-69620701D01*
X50740000Y-72305198D01*
X41885199Y-81160000D01*
X40803711Y-81160000D01*
X40759774Y-81116063D01*
X40590256Y-81002795D01*
X40401898Y-80924774D01*
X40201939Y-80885000D01*
X39998061Y-80885000D01*
X39798102Y-80924774D01*
X39609744Y-81002795D01*
X39440226Y-81116063D01*
X39296063Y-81260226D01*
X39182795Y-81429744D01*
X39104774Y-81618102D01*
X39065000Y-81818061D01*
X17348067Y-81818061D01*
X17099080Y-81569074D01*
X16626560Y-81253346D01*
X16101523Y-81035869D01*
X15544148Y-80925000D01*
X14975852Y-80925000D01*
X14418477Y-81035869D01*
X13893440Y-81253346D01*
X13420920Y-81569074D01*
X13019074Y-81970920D01*
X12712035Y-82430436D01*
X12710020Y-79351883D01*
X12710030Y-79351784D01*
X12710000Y-79320123D01*
X12709978Y-79287150D01*
X12709968Y-79287047D01*
X12676995Y-44968061D01*
X57305000Y-44968061D01*
X57305000Y-45171939D01*
X57344774Y-45371898D01*
X57422795Y-45560256D01*
X57536063Y-45729774D01*
X57680226Y-45873937D01*
X57849744Y-45987205D01*
X58038102Y-46065226D01*
X58238061Y-46105000D01*
X58441939Y-46105000D01*
X58641898Y-46065226D01*
X58830256Y-45987205D01*
X58999774Y-45873937D01*
X59143937Y-45729774D01*
X59257205Y-45560256D01*
X59335226Y-45371898D01*
X59375000Y-45171939D01*
X59375000Y-45109801D01*
X61135994Y-43348808D01*
X61164991Y-43325011D01*
X61259964Y-43209286D01*
X61330536Y-43077257D01*
X61373993Y-42933996D01*
X61384990Y-42822343D01*
X61384990Y-42822333D01*
X61388666Y-42785010D01*
X61384990Y-42747687D01*
X61384990Y-36303711D01*
X61428927Y-36259774D01*
X61542195Y-36090256D01*
X61620216Y-35901898D01*
X61659990Y-35701939D01*
X61659990Y-35498061D01*
X61620216Y-35298102D01*
X61542195Y-35109744D01*
X61428927Y-34940226D01*
X61284764Y-34796063D01*
X61115246Y-34682795D01*
X60926888Y-34604774D01*
X60726929Y-34565000D01*
X60523051Y-34565000D01*
X60323092Y-34604774D01*
X60134734Y-34682795D01*
X59965216Y-34796063D01*
X59821053Y-34940226D01*
X59707785Y-35109744D01*
X59629764Y-35298102D01*
X59589990Y-35498061D01*
X59589990Y-35701939D01*
X59629764Y-35901898D01*
X59707785Y-36090256D01*
X59821053Y-36259774D01*
X59864991Y-36303712D01*
X59864990Y-42470208D01*
X58300199Y-44035000D01*
X58238061Y-44035000D01*
X58038102Y-44074774D01*
X57849744Y-44152795D01*
X57680226Y-44266063D01*
X57536063Y-44410226D01*
X57422795Y-44579744D01*
X57344774Y-44768102D01*
X57305000Y-44968061D01*
X12676995Y-44968061D01*
X12667608Y-35198061D01*
X45095000Y-35198061D01*
X45095000Y-35401939D01*
X45134774Y-35601898D01*
X45212795Y-35790256D01*
X45326063Y-35959774D01*
X45370000Y-36003711D01*
X45370001Y-41852668D01*
X45366324Y-41890000D01*
X45380998Y-42038985D01*
X45424454Y-42182246D01*
X45495026Y-42314276D01*
X45533154Y-42360734D01*
X45590000Y-42430001D01*
X45618998Y-42453799D01*
X46246201Y-43081002D01*
X46269999Y-43110001D01*
X46385724Y-43204974D01*
X46517753Y-43275546D01*
X46661014Y-43319003D01*
X46772667Y-43330000D01*
X46772676Y-43330000D01*
X46809999Y-43333676D01*
X46846382Y-43330093D01*
X46890226Y-43373937D01*
X47059744Y-43487205D01*
X47248102Y-43565226D01*
X47448061Y-43605000D01*
X47651939Y-43605000D01*
X47851898Y-43565226D01*
X48040256Y-43487205D01*
X48209774Y-43373937D01*
X48353937Y-43229774D01*
X48467205Y-43060256D01*
X48545226Y-42871898D01*
X48585000Y-42671939D01*
X48585000Y-42468061D01*
X48545226Y-42268102D01*
X48467205Y-42079744D01*
X48353937Y-41910226D01*
X48209774Y-41766063D01*
X48040256Y-41652795D01*
X47851898Y-41574774D01*
X47651939Y-41535000D01*
X47448061Y-41535000D01*
X47248102Y-41574774D01*
X47059744Y-41652795D01*
X47004506Y-41689704D01*
X46890000Y-41575199D01*
X46890000Y-36003711D01*
X46933937Y-35959774D01*
X47047205Y-35790256D01*
X47125226Y-35601898D01*
X47165000Y-35401939D01*
X47165000Y-35198061D01*
X47125226Y-34998102D01*
X47047205Y-34809744D01*
X46933937Y-34640226D01*
X46789774Y-34496063D01*
X46620256Y-34382795D01*
X46431898Y-34304774D01*
X46231939Y-34265000D01*
X46028061Y-34265000D01*
X45828102Y-34304774D01*
X45639744Y-34382795D01*
X45470226Y-34496063D01*
X45326063Y-34640226D01*
X45212795Y-34809744D01*
X45134774Y-34998102D01*
X45095000Y-35198061D01*
X12667608Y-35198061D01*
X12666340Y-33878061D01*
X51655000Y-33878061D01*
X51655000Y-34081939D01*
X51694774Y-34281898D01*
X51772795Y-34470256D01*
X51886063Y-34639774D01*
X52030226Y-34783937D01*
X52199744Y-34897205D01*
X52388102Y-34975226D01*
X52588061Y-35015000D01*
X52791939Y-35015000D01*
X52991898Y-34975226D01*
X53180256Y-34897205D01*
X53349774Y-34783937D01*
X53493937Y-34639774D01*
X53607205Y-34470256D01*
X53685226Y-34281898D01*
X53725000Y-34081939D01*
X53725000Y-33878061D01*
X53685226Y-33678102D01*
X53607205Y-33489744D01*
X53510000Y-33344266D01*
X53510000Y-31933711D01*
X53553937Y-31889774D01*
X53667205Y-31720256D01*
X53745226Y-31531898D01*
X53785000Y-31331939D01*
X53785000Y-31128061D01*
X53745226Y-30928102D01*
X53667205Y-30739744D01*
X53553937Y-30570226D01*
X53409774Y-30426063D01*
X53240256Y-30312795D01*
X53051898Y-30234774D01*
X52851939Y-30195000D01*
X52648061Y-30195000D01*
X52448102Y-30234774D01*
X52259744Y-30312795D01*
X52090226Y-30426063D01*
X51946063Y-30570226D01*
X51832795Y-30739744D01*
X51754774Y-30928102D01*
X51715000Y-31128061D01*
X51715000Y-31331939D01*
X51754774Y-31531898D01*
X51832795Y-31720256D01*
X51946063Y-31889774D01*
X51990000Y-31933711D01*
X51990001Y-33216288D01*
X51886063Y-33320226D01*
X51772795Y-33489744D01*
X51694774Y-33678102D01*
X51655000Y-33878061D01*
X12666340Y-33878061D01*
X12661209Y-28538061D01*
X51655000Y-28538061D01*
X51655000Y-28741939D01*
X51694774Y-28941898D01*
X51772795Y-29130256D01*
X51886063Y-29299774D01*
X52030226Y-29443937D01*
X52199744Y-29557205D01*
X52388102Y-29635226D01*
X52588061Y-29675000D01*
X52791939Y-29675000D01*
X52991898Y-29635226D01*
X53180256Y-29557205D01*
X53349774Y-29443937D01*
X53393711Y-29400000D01*
X57575199Y-29400000D01*
X58650001Y-30474803D01*
X58650000Y-32246289D01*
X58606063Y-32290226D01*
X58492795Y-32459744D01*
X58414774Y-32648102D01*
X58375000Y-32848061D01*
X58375000Y-33051939D01*
X58414774Y-33251898D01*
X58492795Y-33440256D01*
X58606063Y-33609774D01*
X58750226Y-33753937D01*
X58919744Y-33867205D01*
X59108102Y-33945226D01*
X59308061Y-33985000D01*
X59511939Y-33985000D01*
X59711898Y-33945226D01*
X59900256Y-33867205D01*
X60069774Y-33753937D01*
X60213937Y-33609774D01*
X60327205Y-33440256D01*
X60405226Y-33251898D01*
X60445000Y-33051939D01*
X60445000Y-32848061D01*
X60405226Y-32648102D01*
X60327205Y-32459744D01*
X60213937Y-32290226D01*
X60170000Y-32246289D01*
X60170000Y-30438863D01*
X60180000Y-30337333D01*
X60180000Y-30337323D01*
X60183676Y-30300001D01*
X60180000Y-30262678D01*
X60180000Y-30207325D01*
X60183676Y-30170000D01*
X60180000Y-30132675D01*
X60180000Y-30132668D01*
X60169003Y-30021015D01*
X60168014Y-30017753D01*
X60125546Y-29877753D01*
X60054974Y-29745724D01*
X59983799Y-29658997D01*
X59960001Y-29629999D01*
X59931003Y-29606201D01*
X58453804Y-28129003D01*
X58430001Y-28099999D01*
X58314276Y-28005026D01*
X58182247Y-27934454D01*
X58038986Y-27890997D01*
X57927333Y-27880000D01*
X57927322Y-27880000D01*
X57890000Y-27876324D01*
X57852678Y-27880000D01*
X53393711Y-27880000D01*
X53349774Y-27836063D01*
X53180256Y-27722795D01*
X52991898Y-27644774D01*
X52791939Y-27605000D01*
X52588061Y-27605000D01*
X52388102Y-27644774D01*
X52199744Y-27722795D01*
X52030226Y-27836063D01*
X51886063Y-27980226D01*
X51772795Y-28149744D01*
X51694774Y-28338102D01*
X51655000Y-28538061D01*
X12661209Y-28538061D01*
X12660000Y-27280253D01*
X12660000Y-24061913D01*
X12703346Y-24166560D01*
X13019074Y-24639080D01*
X13420920Y-25040926D01*
X13893440Y-25356654D01*
X14418477Y-25574131D01*
X14975852Y-25685000D01*
X15544148Y-25685000D01*
X16101523Y-25574131D01*
X16626560Y-25356654D01*
X17099080Y-25040926D01*
X17500926Y-24639080D01*
X17816654Y-24166560D01*
X18034131Y-23641523D01*
X18145000Y-23084148D01*
X18145000Y-22515852D01*
X18034131Y-21958477D01*
X17816654Y-21433440D01*
X17500926Y-20960920D01*
X17099080Y-20559074D01*
X16626560Y-20243346D01*
X16101523Y-20025869D01*
X15544148Y-19915000D01*
X14975852Y-19915000D01*
X14418477Y-20025869D01*
X13893440Y-20243346D01*
X13420920Y-20559074D01*
X13019074Y-20960920D01*
X12703346Y-21433440D01*
X12660000Y-21538087D01*
X12660000Y-12660000D01*
X109300000Y-12660000D01*
X109300000Y-21408516D01*
X109300000Y-21408516D01*
G37*
X109300000Y-21408516D02*
X109000926Y-20960920D01*
X108599080Y-20559074D01*
X108126560Y-20243346D01*
X107601523Y-20025869D01*
X107044148Y-19915000D01*
X106475852Y-19915000D01*
X105918477Y-20025869D01*
X105393440Y-20243346D01*
X104920920Y-20559074D01*
X104519074Y-20960920D01*
X104203346Y-21433440D01*
X103985869Y-21958477D01*
X103875000Y-22515852D01*
X103875000Y-23084148D01*
X103985869Y-23641523D01*
X104203346Y-24166560D01*
X104519074Y-24639080D01*
X104920920Y-25040926D01*
X105393440Y-25356654D01*
X105918477Y-25574131D01*
X106475852Y-25685000D01*
X107044148Y-25685000D01*
X107601523Y-25574131D01*
X108126560Y-25356654D01*
X108599080Y-25040926D01*
X109000926Y-24639080D01*
X109300000Y-24191484D01*
X109300001Y-82408517D01*
X109000926Y-81960920D01*
X108599080Y-81559074D01*
X108126560Y-81243346D01*
X107601523Y-81025869D01*
X107044148Y-80915000D01*
X106475852Y-80915000D01*
X105918477Y-81025869D01*
X105393440Y-81243346D01*
X104920920Y-81559074D01*
X104519074Y-81960920D01*
X104203346Y-82433440D01*
X103985869Y-82958477D01*
X103875000Y-83515852D01*
X103875000Y-84084148D01*
X103985869Y-84641523D01*
X104203346Y-85166560D01*
X104519074Y-85639080D01*
X104920920Y-86040926D01*
X105393440Y-86356654D01*
X105918477Y-86574131D01*
X106475852Y-86685000D01*
X107044148Y-86685000D01*
X107601523Y-86574131D01*
X108126560Y-86356654D01*
X108599080Y-86040926D01*
X109000926Y-85639080D01*
X109300001Y-85191483D01*
X109300001Y-93940000D01*
X12719568Y-93940000D01*
X12713843Y-85192270D01*
X13019074Y-85649080D01*
X13420920Y-86050926D01*
X13893440Y-86366654D01*
X14418477Y-86584131D01*
X14975852Y-86695000D01*
X15544148Y-86695000D01*
X16101523Y-86584131D01*
X16626560Y-86366654D01*
X17099080Y-86050926D01*
X17500926Y-85649080D01*
X17816654Y-85176560D01*
X18034131Y-84651523D01*
X18145000Y-84094148D01*
X18145000Y-83525852D01*
X18034131Y-82968477D01*
X17816654Y-82443440D01*
X17500926Y-81970920D01*
X17348067Y-81818061D01*
X39065000Y-81818061D01*
X39065000Y-82021939D01*
X39104774Y-82221898D01*
X39182795Y-82410256D01*
X39296063Y-82579774D01*
X39440226Y-82723937D01*
X39609744Y-82837205D01*
X39798102Y-82915226D01*
X39998061Y-82955000D01*
X40201939Y-82955000D01*
X40401898Y-82915226D01*
X40590256Y-82837205D01*
X40759774Y-82723937D01*
X40803711Y-82680000D01*
X42162678Y-82680000D01*
X42200000Y-82683676D01*
X42237322Y-82680000D01*
X42237333Y-82680000D01*
X42348986Y-82669003D01*
X42492247Y-82625546D01*
X42624276Y-82554974D01*
X42740001Y-82460001D01*
X42763804Y-82430997D01*
X52011004Y-73183798D01*
X52040001Y-73160001D01*
X52066332Y-73127917D01*
X52134974Y-73044277D01*
X52205546Y-72912247D01*
X52205546Y-72912246D01*
X52249003Y-72768986D01*
X52260000Y-72657333D01*
X52260000Y-72657324D01*
X52263676Y-72620001D01*
X52260000Y-72582678D01*
X52260000Y-70718061D01*
X53014998Y-70718061D01*
X53014998Y-70921939D01*
X53054772Y-71121898D01*
X53132793Y-71310256D01*
X53246061Y-71479774D01*
X53390224Y-71623937D01*
X53559742Y-71737205D01*
X53748100Y-71815226D01*
X53948059Y-71855000D01*
X54151937Y-71855000D01*
X54351896Y-71815226D01*
X54540254Y-71737205D01*
X54709772Y-71623937D01*
X54853935Y-71479774D01*
X54967203Y-71310256D01*
X55045224Y-71121898D01*
X55084998Y-70921939D01*
X55084998Y-70859801D01*
X55661002Y-70283798D01*
X55689999Y-70260001D01*
X55716330Y-70227917D01*
X55784972Y-70144277D01*
X55855544Y-70012247D01*
X55893474Y-69887205D01*
X55899001Y-69868986D01*
X55909998Y-69757333D01*
X55909998Y-69757323D01*
X55913674Y-69720000D01*
X55909998Y-69682677D01*
X55909998Y-69223711D01*
X55953935Y-69179774D01*
X56067203Y-69010256D01*
X56145224Y-68821898D01*
X56184998Y-68621939D01*
X56184998Y-68418061D01*
X56145224Y-68218102D01*
X56067203Y-68029744D01*
X55953935Y-67860226D01*
X55809772Y-67716063D01*
X55640254Y-67602795D01*
X55451896Y-67524774D01*
X55251937Y-67485000D01*
X55048059Y-67485000D01*
X54848100Y-67524774D01*
X54659742Y-67602795D01*
X54490224Y-67716063D01*
X54346061Y-67860226D01*
X54232793Y-68029744D01*
X54154772Y-68218102D01*
X54114998Y-68418061D01*
X54114998Y-68621939D01*
X54154772Y-68821898D01*
X54232793Y-69010256D01*
X54346061Y-69179774D01*
X54389998Y-69223711D01*
X54389998Y-69405198D01*
X54010197Y-69785000D01*
X53948059Y-69785000D01*
X53748100Y-69824774D01*
X53559742Y-69902795D01*
X53390224Y-70016063D01*
X53246061Y-70160226D01*
X53132793Y-70329744D01*
X53054772Y-70518102D01*
X53014998Y-70718061D01*
X52260000Y-70718061D01*
X52260000Y-69723711D01*
X52353937Y-69629774D01*
X52467205Y-69460256D01*
X52545226Y-69271898D01*
X52585000Y-69071939D01*
X52585000Y-68868061D01*
X52545226Y-68668102D01*
X52467205Y-68479744D01*
X52353937Y-68310226D01*
X52209774Y-68166063D01*
X52040256Y-68052795D01*
X51851898Y-67974774D01*
X51651939Y-67935000D01*
X51448061Y-67935000D01*
X51248102Y-67974774D01*
X51059744Y-68052795D01*
X50890226Y-68166063D01*
X50746063Y-68310226D01*
X50632795Y-68479744D01*
X50554774Y-68668102D01*
X50515000Y-68868061D01*
X50515000Y-69071939D01*
X50554774Y-69271898D01*
X50632795Y-69460256D01*
X50740001Y-69620701D01*
X50740000Y-72305198D01*
X41885199Y-81160000D01*
X40803711Y-81160000D01*
X40759774Y-81116063D01*
X40590256Y-81002795D01*
X40401898Y-80924774D01*
X40201939Y-80885000D01*
X39998061Y-80885000D01*
X39798102Y-80924774D01*
X39609744Y-81002795D01*
X39440226Y-81116063D01*
X39296063Y-81260226D01*
X39182795Y-81429744D01*
X39104774Y-81618102D01*
X39065000Y-81818061D01*
X17348067Y-81818061D01*
X17099080Y-81569074D01*
X16626560Y-81253346D01*
X16101523Y-81035869D01*
X15544148Y-80925000D01*
X14975852Y-80925000D01*
X14418477Y-81035869D01*
X13893440Y-81253346D01*
X13420920Y-81569074D01*
X13019074Y-81970920D01*
X12712035Y-82430436D01*
X12710020Y-79351883D01*
X12710030Y-79351784D01*
X12710000Y-79320123D01*
X12709978Y-79287150D01*
X12709968Y-79287047D01*
X12676995Y-44968061D01*
X57305000Y-44968061D01*
X57305000Y-45171939D01*
X57344774Y-45371898D01*
X57422795Y-45560256D01*
X57536063Y-45729774D01*
X57680226Y-45873937D01*
X57849744Y-45987205D01*
X58038102Y-46065226D01*
X58238061Y-46105000D01*
X58441939Y-46105000D01*
X58641898Y-46065226D01*
X58830256Y-45987205D01*
X58999774Y-45873937D01*
X59143937Y-45729774D01*
X59257205Y-45560256D01*
X59335226Y-45371898D01*
X59375000Y-45171939D01*
X59375000Y-45109801D01*
X61135994Y-43348808D01*
X61164991Y-43325011D01*
X61259964Y-43209286D01*
X61330536Y-43077257D01*
X61373993Y-42933996D01*
X61384990Y-42822343D01*
X61384990Y-42822333D01*
X61388666Y-42785010D01*
X61384990Y-42747687D01*
X61384990Y-36303711D01*
X61428927Y-36259774D01*
X61542195Y-36090256D01*
X61620216Y-35901898D01*
X61659990Y-35701939D01*
X61659990Y-35498061D01*
X61620216Y-35298102D01*
X61542195Y-35109744D01*
X61428927Y-34940226D01*
X61284764Y-34796063D01*
X61115246Y-34682795D01*
X60926888Y-34604774D01*
X60726929Y-34565000D01*
X60523051Y-34565000D01*
X60323092Y-34604774D01*
X60134734Y-34682795D01*
X59965216Y-34796063D01*
X59821053Y-34940226D01*
X59707785Y-35109744D01*
X59629764Y-35298102D01*
X59589990Y-35498061D01*
X59589990Y-35701939D01*
X59629764Y-35901898D01*
X59707785Y-36090256D01*
X59821053Y-36259774D01*
X59864991Y-36303712D01*
X59864990Y-42470208D01*
X58300199Y-44035000D01*
X58238061Y-44035000D01*
X58038102Y-44074774D01*
X57849744Y-44152795D01*
X57680226Y-44266063D01*
X57536063Y-44410226D01*
X57422795Y-44579744D01*
X57344774Y-44768102D01*
X57305000Y-44968061D01*
X12676995Y-44968061D01*
X12667608Y-35198061D01*
X45095000Y-35198061D01*
X45095000Y-35401939D01*
X45134774Y-35601898D01*
X45212795Y-35790256D01*
X45326063Y-35959774D01*
X45370000Y-36003711D01*
X45370001Y-41852668D01*
X45366324Y-41890000D01*
X45380998Y-42038985D01*
X45424454Y-42182246D01*
X45495026Y-42314276D01*
X45533154Y-42360734D01*
X45590000Y-42430001D01*
X45618998Y-42453799D01*
X46246201Y-43081002D01*
X46269999Y-43110001D01*
X46385724Y-43204974D01*
X46517753Y-43275546D01*
X46661014Y-43319003D01*
X46772667Y-43330000D01*
X46772676Y-43330000D01*
X46809999Y-43333676D01*
X46846382Y-43330093D01*
X46890226Y-43373937D01*
X47059744Y-43487205D01*
X47248102Y-43565226D01*
X47448061Y-43605000D01*
X47651939Y-43605000D01*
X47851898Y-43565226D01*
X48040256Y-43487205D01*
X48209774Y-43373937D01*
X48353937Y-43229774D01*
X48467205Y-43060256D01*
X48545226Y-42871898D01*
X48585000Y-42671939D01*
X48585000Y-42468061D01*
X48545226Y-42268102D01*
X48467205Y-42079744D01*
X48353937Y-41910226D01*
X48209774Y-41766063D01*
X48040256Y-41652795D01*
X47851898Y-41574774D01*
X47651939Y-41535000D01*
X47448061Y-41535000D01*
X47248102Y-41574774D01*
X47059744Y-41652795D01*
X47004506Y-41689704D01*
X46890000Y-41575199D01*
X46890000Y-36003711D01*
X46933937Y-35959774D01*
X47047205Y-35790256D01*
X47125226Y-35601898D01*
X47165000Y-35401939D01*
X47165000Y-35198061D01*
X47125226Y-34998102D01*
X47047205Y-34809744D01*
X46933937Y-34640226D01*
X46789774Y-34496063D01*
X46620256Y-34382795D01*
X46431898Y-34304774D01*
X46231939Y-34265000D01*
X46028061Y-34265000D01*
X45828102Y-34304774D01*
X45639744Y-34382795D01*
X45470226Y-34496063D01*
X45326063Y-34640226D01*
X45212795Y-34809744D01*
X45134774Y-34998102D01*
X45095000Y-35198061D01*
X12667608Y-35198061D01*
X12666340Y-33878061D01*
X51655000Y-33878061D01*
X51655000Y-34081939D01*
X51694774Y-34281898D01*
X51772795Y-34470256D01*
X51886063Y-34639774D01*
X52030226Y-34783937D01*
X52199744Y-34897205D01*
X52388102Y-34975226D01*
X52588061Y-35015000D01*
X52791939Y-35015000D01*
X52991898Y-34975226D01*
X53180256Y-34897205D01*
X53349774Y-34783937D01*
X53493937Y-34639774D01*
X53607205Y-34470256D01*
X53685226Y-34281898D01*
X53725000Y-34081939D01*
X53725000Y-33878061D01*
X53685226Y-33678102D01*
X53607205Y-33489744D01*
X53510000Y-33344266D01*
X53510000Y-31933711D01*
X53553937Y-31889774D01*
X53667205Y-31720256D01*
X53745226Y-31531898D01*
X53785000Y-31331939D01*
X53785000Y-31128061D01*
X53745226Y-30928102D01*
X53667205Y-30739744D01*
X53553937Y-30570226D01*
X53409774Y-30426063D01*
X53240256Y-30312795D01*
X53051898Y-30234774D01*
X52851939Y-30195000D01*
X52648061Y-30195000D01*
X52448102Y-30234774D01*
X52259744Y-30312795D01*
X52090226Y-30426063D01*
X51946063Y-30570226D01*
X51832795Y-30739744D01*
X51754774Y-30928102D01*
X51715000Y-31128061D01*
X51715000Y-31331939D01*
X51754774Y-31531898D01*
X51832795Y-31720256D01*
X51946063Y-31889774D01*
X51990000Y-31933711D01*
X51990001Y-33216288D01*
X51886063Y-33320226D01*
X51772795Y-33489744D01*
X51694774Y-33678102D01*
X51655000Y-33878061D01*
X12666340Y-33878061D01*
X12661209Y-28538061D01*
X51655000Y-28538061D01*
X51655000Y-28741939D01*
X51694774Y-28941898D01*
X51772795Y-29130256D01*
X51886063Y-29299774D01*
X52030226Y-29443937D01*
X52199744Y-29557205D01*
X52388102Y-29635226D01*
X52588061Y-29675000D01*
X52791939Y-29675000D01*
X52991898Y-29635226D01*
X53180256Y-29557205D01*
X53349774Y-29443937D01*
X53393711Y-29400000D01*
X57575199Y-29400000D01*
X58650001Y-30474803D01*
X58650000Y-32246289D01*
X58606063Y-32290226D01*
X58492795Y-32459744D01*
X58414774Y-32648102D01*
X58375000Y-32848061D01*
X58375000Y-33051939D01*
X58414774Y-33251898D01*
X58492795Y-33440256D01*
X58606063Y-33609774D01*
X58750226Y-33753937D01*
X58919744Y-33867205D01*
X59108102Y-33945226D01*
X59308061Y-33985000D01*
X59511939Y-33985000D01*
X59711898Y-33945226D01*
X59900256Y-33867205D01*
X60069774Y-33753937D01*
X60213937Y-33609774D01*
X60327205Y-33440256D01*
X60405226Y-33251898D01*
X60445000Y-33051939D01*
X60445000Y-32848061D01*
X60405226Y-32648102D01*
X60327205Y-32459744D01*
X60213937Y-32290226D01*
X60170000Y-32246289D01*
X60170000Y-30438863D01*
X60180000Y-30337333D01*
X60180000Y-30337323D01*
X60183676Y-30300001D01*
X60180000Y-30262678D01*
X60180000Y-30207325D01*
X60183676Y-30170000D01*
X60180000Y-30132675D01*
X60180000Y-30132668D01*
X60169003Y-30021015D01*
X60168014Y-30017753D01*
X60125546Y-29877753D01*
X60054974Y-29745724D01*
X59983799Y-29658997D01*
X59960001Y-29629999D01*
X59931003Y-29606201D01*
X58453804Y-28129003D01*
X58430001Y-28099999D01*
X58314276Y-28005026D01*
X58182247Y-27934454D01*
X58038986Y-27890997D01*
X57927333Y-27880000D01*
X57927322Y-27880000D01*
X57890000Y-27876324D01*
X57852678Y-27880000D01*
X53393711Y-27880000D01*
X53349774Y-27836063D01*
X53180256Y-27722795D01*
X52991898Y-27644774D01*
X52791939Y-27605000D01*
X52588061Y-27605000D01*
X52388102Y-27644774D01*
X52199744Y-27722795D01*
X52030226Y-27836063D01*
X51886063Y-27980226D01*
X51772795Y-28149744D01*
X51694774Y-28338102D01*
X51655000Y-28538061D01*
X12661209Y-28538061D01*
X12660000Y-27280253D01*
X12660000Y-24061913D01*
X12703346Y-24166560D01*
X13019074Y-24639080D01*
X13420920Y-25040926D01*
X13893440Y-25356654D01*
X14418477Y-25574131D01*
X14975852Y-25685000D01*
X15544148Y-25685000D01*
X16101523Y-25574131D01*
X16626560Y-25356654D01*
X17099080Y-25040926D01*
X17500926Y-24639080D01*
X17816654Y-24166560D01*
X18034131Y-23641523D01*
X18145000Y-23084148D01*
X18145000Y-22515852D01*
X18034131Y-21958477D01*
X17816654Y-21433440D01*
X17500926Y-20960920D01*
X17099080Y-20559074D01*
X16626560Y-20243346D01*
X16101523Y-20025869D01*
X15544148Y-19915000D01*
X14975852Y-19915000D01*
X14418477Y-20025869D01*
X13893440Y-20243346D01*
X13420920Y-20559074D01*
X13019074Y-20960920D01*
X12703346Y-21433440D01*
X12660000Y-21538087D01*
X12660000Y-12660000D01*
X109300000Y-12660000D01*
X109300000Y-21408516D01*
M02*
