G04 #@! TF.GenerationSoftware,KiCad,Pcbnew,(5.1.2)-2*
G04 #@! TF.CreationDate,2021-09-09T11:53:19-03:00*
G04 #@! TF.ProjectId,MAG_Plus,4d41475f-506c-4757-932e-6b696361645f,rev?*
G04 #@! TF.SameCoordinates,Original*
G04 #@! TF.FileFunction,Legend,Top*
G04 #@! TF.FilePolarity,Positive*
%FSLAX46Y46*%
G04 Gerber Fmt 4.6, Leading zero omitted, Abs format (unit mm)*
G04 Created by KiCad (PCBNEW (5.1.2)-2) date 2021-09-09 11:53:19*
%MOMM*%
%LPD*%
G04 APERTURE LIST*
%ADD10C,0.150000*%
G04 APERTURE END LIST*
D10*
X354366666Y-170402380D02*
X354033333Y-169926190D01*
X353795238Y-170402380D02*
X353795238Y-169402380D01*
X354176190Y-169402380D01*
X354271428Y-169450000D01*
X354319047Y-169497619D01*
X354366666Y-169592857D01*
X354366666Y-169735714D01*
X354319047Y-169830952D01*
X354271428Y-169878571D01*
X354176190Y-169926190D01*
X353795238Y-169926190D01*
X354795238Y-169878571D02*
X355128571Y-169878571D01*
X355271428Y-170402380D02*
X354795238Y-170402380D01*
X354795238Y-169402380D01*
X355271428Y-169402380D01*
X356033333Y-169878571D02*
X355700000Y-169878571D01*
X355700000Y-170402380D02*
X355700000Y-169402380D01*
X356176190Y-169402380D01*
X356700000Y-169402380D02*
X356700000Y-169640476D01*
X356461904Y-169545238D02*
X356700000Y-169640476D01*
X356938095Y-169545238D01*
X356557142Y-169830952D02*
X356700000Y-169640476D01*
X356842857Y-169830952D01*
X357461904Y-169402380D02*
X357461904Y-169640476D01*
X357223809Y-169545238D02*
X357461904Y-169640476D01*
X357700000Y-169545238D01*
X357319047Y-169830952D02*
X357461904Y-169640476D01*
X357604761Y-169830952D01*
X354366666Y-262002380D02*
X354033333Y-261526190D01*
X353795238Y-262002380D02*
X353795238Y-261002380D01*
X354176190Y-261002380D01*
X354271428Y-261050000D01*
X354319047Y-261097619D01*
X354366666Y-261192857D01*
X354366666Y-261335714D01*
X354319047Y-261430952D01*
X354271428Y-261478571D01*
X354176190Y-261526190D01*
X353795238Y-261526190D01*
X354795238Y-261478571D02*
X355128571Y-261478571D01*
X355271428Y-262002380D02*
X354795238Y-262002380D01*
X354795238Y-261002380D01*
X355271428Y-261002380D01*
X356033333Y-261478571D02*
X355700000Y-261478571D01*
X355700000Y-262002380D02*
X355700000Y-261002380D01*
X356176190Y-261002380D01*
X356700000Y-261002380D02*
X356700000Y-261240476D01*
X356461904Y-261145238D02*
X356700000Y-261240476D01*
X356938095Y-261145238D01*
X356557142Y-261430952D02*
X356700000Y-261240476D01*
X356842857Y-261430952D01*
X357461904Y-261002380D02*
X357461904Y-261240476D01*
X357223809Y-261145238D02*
X357461904Y-261240476D01*
X357700000Y-261145238D01*
X357319047Y-261430952D02*
X357461904Y-261240476D01*
X357604761Y-261430952D01*
X304966666Y-170402380D02*
X304633333Y-169926190D01*
X304395238Y-170402380D02*
X304395238Y-169402380D01*
X304776190Y-169402380D01*
X304871428Y-169450000D01*
X304919047Y-169497619D01*
X304966666Y-169592857D01*
X304966666Y-169735714D01*
X304919047Y-169830952D01*
X304871428Y-169878571D01*
X304776190Y-169926190D01*
X304395238Y-169926190D01*
X305395238Y-169878571D02*
X305728571Y-169878571D01*
X305871428Y-170402380D02*
X305395238Y-170402380D01*
X305395238Y-169402380D01*
X305871428Y-169402380D01*
X306633333Y-169878571D02*
X306300000Y-169878571D01*
X306300000Y-170402380D02*
X306300000Y-169402380D01*
X306776190Y-169402380D01*
X307300000Y-169402380D02*
X307300000Y-169640476D01*
X307061904Y-169545238D02*
X307300000Y-169640476D01*
X307538095Y-169545238D01*
X307157142Y-169830952D02*
X307300000Y-169640476D01*
X307442857Y-169830952D01*
X308061904Y-169402380D02*
X308061904Y-169640476D01*
X307823809Y-169545238D02*
X308061904Y-169640476D01*
X308300000Y-169545238D01*
X307919047Y-169830952D02*
X308061904Y-169640476D01*
X308204761Y-169830952D01*
X304966666Y-262002380D02*
X304633333Y-261526190D01*
X304395238Y-262002380D02*
X304395238Y-261002380D01*
X304776190Y-261002380D01*
X304871428Y-261050000D01*
X304919047Y-261097619D01*
X304966666Y-261192857D01*
X304966666Y-261335714D01*
X304919047Y-261430952D01*
X304871428Y-261478571D01*
X304776190Y-261526190D01*
X304395238Y-261526190D01*
X305395238Y-261478571D02*
X305728571Y-261478571D01*
X305871428Y-262002380D02*
X305395238Y-262002380D01*
X305395238Y-261002380D01*
X305871428Y-261002380D01*
X306633333Y-261478571D02*
X306300000Y-261478571D01*
X306300000Y-262002380D02*
X306300000Y-261002380D01*
X306776190Y-261002380D01*
X307300000Y-261002380D02*
X307300000Y-261240476D01*
X307061904Y-261145238D02*
X307300000Y-261240476D01*
X307538095Y-261145238D01*
X307157142Y-261430952D02*
X307300000Y-261240476D01*
X307442857Y-261430952D01*
X308061904Y-261002380D02*
X308061904Y-261240476D01*
X307823809Y-261145238D02*
X308061904Y-261240476D01*
X308300000Y-261145238D01*
X307919047Y-261430952D02*
X308061904Y-261240476D01*
X308204761Y-261430952D01*
M02*
