G04 #@! TF.GenerationSoftware,KiCad,Pcbnew,(5.1.2)-2*
G04 #@! TF.CreationDate,2021-09-09T11:53:19-03:00*
G04 #@! TF.ProjectId,MAG_Plus,4d41475f-506c-4757-932e-6b696361645f,rev?*
G04 #@! TF.SameCoordinates,Original*
G04 #@! TF.FileFunction,Soldermask,Bot*
G04 #@! TF.FilePolarity,Negative*
%FSLAX46Y46*%
G04 Gerber Fmt 4.6, Leading zero omitted, Abs format (unit mm)*
G04 Created by KiCad (PCBNEW (5.1.2)-2) date 2021-09-09 11:53:19*
%MOMM*%
%LPD*%
G04 APERTURE LIST*
%ADD10C,0.100000*%
G04 APERTURE END LIST*
D10*
G36*
X356148903Y-262543213D02*
G01*
X356371177Y-262587426D01*
X356789932Y-262760880D01*
X357166802Y-263012696D01*
X357487304Y-263333198D01*
X357739120Y-263710068D01*
X357912574Y-264128823D01*
X358001000Y-264573371D01*
X358001000Y-265026629D01*
X357912574Y-265471177D01*
X357739120Y-265889932D01*
X357487304Y-266266802D01*
X357166802Y-266587304D01*
X356789932Y-266839120D01*
X356371177Y-267012574D01*
X356148903Y-267056787D01*
X355926630Y-267101000D01*
X355473370Y-267101000D01*
X355251097Y-267056787D01*
X355028823Y-267012574D01*
X354610068Y-266839120D01*
X354233198Y-266587304D01*
X353912696Y-266266802D01*
X353660880Y-265889932D01*
X353487426Y-265471177D01*
X353399000Y-265026629D01*
X353399000Y-264573371D01*
X353487426Y-264128823D01*
X353660880Y-263710068D01*
X353912696Y-263333198D01*
X354233198Y-263012696D01*
X354610068Y-262760880D01*
X355028823Y-262587426D01*
X355251097Y-262543213D01*
X355473370Y-262499000D01*
X355926630Y-262499000D01*
X356148903Y-262543213D01*
X356148903Y-262543213D01*
G37*
G36*
X306748903Y-262543213D02*
G01*
X306971177Y-262587426D01*
X307389932Y-262760880D01*
X307766802Y-263012696D01*
X308087304Y-263333198D01*
X308339120Y-263710068D01*
X308512574Y-264128823D01*
X308601000Y-264573371D01*
X308601000Y-265026629D01*
X308512574Y-265471177D01*
X308339120Y-265889932D01*
X308087304Y-266266802D01*
X307766802Y-266587304D01*
X307389932Y-266839120D01*
X306971177Y-267012574D01*
X306748903Y-267056787D01*
X306526630Y-267101000D01*
X306073370Y-267101000D01*
X305851097Y-267056787D01*
X305628823Y-267012574D01*
X305210068Y-266839120D01*
X304833198Y-266587304D01*
X304512696Y-266266802D01*
X304260880Y-265889932D01*
X304087426Y-265471177D01*
X303999000Y-265026629D01*
X303999000Y-264573371D01*
X304087426Y-264128823D01*
X304260880Y-263710068D01*
X304512696Y-263333198D01*
X304833198Y-263012696D01*
X305210068Y-262760880D01*
X305628823Y-262587426D01*
X305851097Y-262543213D01*
X306073370Y-262499000D01*
X306526630Y-262499000D01*
X306748903Y-262543213D01*
X306748903Y-262543213D01*
G37*
G36*
X356148903Y-170943213D02*
G01*
X356371177Y-170987426D01*
X356789932Y-171160880D01*
X357166802Y-171412696D01*
X357487304Y-171733198D01*
X357739120Y-172110068D01*
X357912574Y-172528823D01*
X358001000Y-172973371D01*
X358001000Y-173426629D01*
X357912574Y-173871177D01*
X357739120Y-174289932D01*
X357487304Y-174666802D01*
X357166802Y-174987304D01*
X356789932Y-175239120D01*
X356371177Y-175412574D01*
X356148903Y-175456787D01*
X355926630Y-175501000D01*
X355473370Y-175501000D01*
X355251097Y-175456787D01*
X355028823Y-175412574D01*
X354610068Y-175239120D01*
X354233198Y-174987304D01*
X353912696Y-174666802D01*
X353660880Y-174289932D01*
X353487426Y-173871177D01*
X353399000Y-173426629D01*
X353399000Y-172973371D01*
X353487426Y-172528823D01*
X353660880Y-172110068D01*
X353912696Y-171733198D01*
X354233198Y-171412696D01*
X354610068Y-171160880D01*
X355028823Y-170987426D01*
X355251097Y-170943213D01*
X355473370Y-170899000D01*
X355926630Y-170899000D01*
X356148903Y-170943213D01*
X356148903Y-170943213D01*
G37*
G36*
X306748903Y-170943213D02*
G01*
X306971177Y-170987426D01*
X307389932Y-171160880D01*
X307766802Y-171412696D01*
X308087304Y-171733198D01*
X308339120Y-172110068D01*
X308512574Y-172528823D01*
X308601000Y-172973371D01*
X308601000Y-173426629D01*
X308512574Y-173871177D01*
X308339120Y-174289932D01*
X308087304Y-174666802D01*
X307766802Y-174987304D01*
X307389932Y-175239120D01*
X306971177Y-175412574D01*
X306748903Y-175456787D01*
X306526630Y-175501000D01*
X306073370Y-175501000D01*
X305851097Y-175456787D01*
X305628823Y-175412574D01*
X305210068Y-175239120D01*
X304833198Y-174987304D01*
X304512696Y-174666802D01*
X304260880Y-174289932D01*
X304087426Y-173871177D01*
X303999000Y-173426629D01*
X303999000Y-172973371D01*
X304087426Y-172528823D01*
X304260880Y-172110068D01*
X304512696Y-171733198D01*
X304833198Y-171412696D01*
X305210068Y-171160880D01*
X305628823Y-170987426D01*
X305851097Y-170943213D01*
X306073370Y-170899000D01*
X306526630Y-170899000D01*
X306748903Y-170943213D01*
X306748903Y-170943213D01*
G37*
M02*
