G04 #@! TF.GenerationSoftware,KiCad,Pcbnew,(5.1.2)-2*
G04 #@! TF.CreationDate,2021-11-10T11:58:56-03:00*
G04 #@! TF.ProjectId,MAG_Plus,4d41475f-506c-4757-932e-6b696361645f,rev?*
G04 #@! TF.SameCoordinates,Original*
G04 #@! TF.FileFunction,Soldermask,Bot*
G04 #@! TF.FilePolarity,Negative*
%FSLAX46Y46*%
G04 Gerber Fmt 4.6, Leading zero omitted, Abs format (unit mm)*
G04 Created by KiCad (PCBNEW (5.1.2)-2) date 2021-11-10 11:58:56*
%MOMM*%
%LPD*%
G04 APERTURE LIST*
%ADD10C,0.100000*%
G04 APERTURE END LIST*
D10*
G36*
X151358903Y-105563213D02*
G01*
X151581177Y-105607426D01*
X151999932Y-105780880D01*
X152376802Y-106032696D01*
X152697304Y-106353198D01*
X152949120Y-106730068D01*
X153122574Y-107148823D01*
X153211000Y-107593371D01*
X153211000Y-108046629D01*
X153122574Y-108491177D01*
X152949120Y-108909932D01*
X152697304Y-109286802D01*
X152376802Y-109607304D01*
X151999932Y-109859120D01*
X151581177Y-110032574D01*
X151358903Y-110076787D01*
X151136630Y-110121000D01*
X150683370Y-110121000D01*
X150461097Y-110076787D01*
X150238823Y-110032574D01*
X149820068Y-109859120D01*
X149443198Y-109607304D01*
X149122696Y-109286802D01*
X148870880Y-108909932D01*
X148697426Y-108491177D01*
X148609000Y-108046629D01*
X148609000Y-107593371D01*
X148697426Y-107148823D01*
X148870880Y-106730068D01*
X149122696Y-106353198D01*
X149443198Y-106032696D01*
X149820068Y-105780880D01*
X150238823Y-105607426D01*
X150461097Y-105563213D01*
X150683370Y-105519000D01*
X151136630Y-105519000D01*
X151358903Y-105563213D01*
X151358903Y-105563213D01*
G37*
G36*
X243248903Y-105553213D02*
G01*
X243471177Y-105597426D01*
X243889932Y-105770880D01*
X244266802Y-106022696D01*
X244587304Y-106343198D01*
X244839120Y-106720068D01*
X245012574Y-107138823D01*
X245101000Y-107583371D01*
X245101000Y-108036629D01*
X245012574Y-108481177D01*
X244839120Y-108899932D01*
X244587304Y-109276802D01*
X244266802Y-109597304D01*
X243889932Y-109849120D01*
X243471177Y-110022574D01*
X243248903Y-110066787D01*
X243026630Y-110111000D01*
X242573370Y-110111000D01*
X242351097Y-110066787D01*
X242128823Y-110022574D01*
X241710068Y-109849120D01*
X241333198Y-109597304D01*
X241012696Y-109276802D01*
X240760880Y-108899932D01*
X240587426Y-108481177D01*
X240499000Y-108036629D01*
X240499000Y-107583371D01*
X240587426Y-107138823D01*
X240760880Y-106720068D01*
X241012696Y-106343198D01*
X241333198Y-106022696D01*
X241710068Y-105770880D01*
X242128823Y-105597426D01*
X242351097Y-105553213D01*
X242573370Y-105509000D01*
X243026630Y-105509000D01*
X243248903Y-105553213D01*
X243248903Y-105553213D01*
G37*
G36*
X170131000Y-77371000D02*
G01*
X167029000Y-77371000D01*
X167029000Y-50969000D01*
X170131000Y-50969000D01*
X170131000Y-77371000D01*
X170131000Y-77371000D01*
G37*
G36*
X243248903Y-44553213D02*
G01*
X243471177Y-44597426D01*
X243889932Y-44770880D01*
X244266802Y-45022696D01*
X244587304Y-45343198D01*
X244839120Y-45720068D01*
X245012574Y-46138823D01*
X245101000Y-46583371D01*
X245101000Y-47036629D01*
X245012574Y-47481177D01*
X244839120Y-47899932D01*
X244587304Y-48276802D01*
X244266802Y-48597304D01*
X243889932Y-48849120D01*
X243471177Y-49022574D01*
X243248903Y-49066787D01*
X243026630Y-49111000D01*
X242573370Y-49111000D01*
X242351097Y-49066787D01*
X242128823Y-49022574D01*
X241710068Y-48849120D01*
X241333198Y-48597304D01*
X241012696Y-48276802D01*
X240760880Y-47899932D01*
X240587426Y-47481177D01*
X240499000Y-47036629D01*
X240499000Y-46583371D01*
X240587426Y-46138823D01*
X240760880Y-45720068D01*
X241012696Y-45343198D01*
X241333198Y-45022696D01*
X241710068Y-44770880D01*
X242128823Y-44597426D01*
X242351097Y-44553213D01*
X242573370Y-44509000D01*
X243026630Y-44509000D01*
X243248903Y-44553213D01*
X243248903Y-44553213D01*
G37*
G36*
X151748903Y-44543213D02*
G01*
X151971177Y-44587426D01*
X152389932Y-44760880D01*
X152766802Y-45012696D01*
X153087304Y-45333198D01*
X153339120Y-45710068D01*
X153512574Y-46128823D01*
X153601000Y-46573371D01*
X153601000Y-47026629D01*
X153512574Y-47471177D01*
X153339120Y-47889932D01*
X153087304Y-48266802D01*
X152766802Y-48587304D01*
X152389932Y-48839120D01*
X151971177Y-49012574D01*
X151748903Y-49056787D01*
X151526630Y-49101000D01*
X151073370Y-49101000D01*
X150851097Y-49056787D01*
X150628823Y-49012574D01*
X150210068Y-48839120D01*
X149833198Y-48587304D01*
X149512696Y-48266802D01*
X149260880Y-47889932D01*
X149087426Y-47471177D01*
X148999000Y-47026629D01*
X148999000Y-46573371D01*
X149087426Y-46128823D01*
X149260880Y-45710068D01*
X149512696Y-45333198D01*
X149833198Y-45012696D01*
X150210068Y-44760880D01*
X150628823Y-44587426D01*
X150851097Y-44543213D01*
X151073370Y-44499000D01*
X151526630Y-44499000D01*
X151748903Y-44543213D01*
X151748903Y-44543213D01*
G37*
M02*
