G04 #@! TF.GenerationSoftware,KiCad,Pcbnew,(5.1.2)-2*
G04 #@! TF.CreationDate,2021-11-10T11:58:56-03:00*
G04 #@! TF.ProjectId,MAG_Plus,4d41475f-506c-4757-932e-6b696361645f,rev?*
G04 #@! TF.SameCoordinates,Original*
G04 #@! TF.FileFunction,Profile,NP*
%FSLAX46Y46*%
G04 Gerber Fmt 4.6, Leading zero omitted, Abs format (unit mm)*
G04 Created by KiCad (PCBNEW (5.1.2)-2) date 2021-11-10 11:58:56*
%MOMM*%
%LPD*%
G04 APERTURE LIST*
%ADD10C,0.050000*%
G04 APERTURE END LIST*
D10*
X210350000Y-39200000D02*
X234000000Y-39200000D01*
X210350000Y-115400000D02*
X234000000Y-115400000D01*
X210350000Y-103600000D02*
X210350000Y-39200000D01*
X210350000Y-103600000D02*
X210350000Y-115400000D01*
X166990000Y-77510000D02*
X167000000Y-51000000D01*
X170360000Y-103600000D02*
X170360000Y-96810000D01*
X167000000Y-103600000D02*
X170360000Y-103600000D01*
X170360000Y-88930000D02*
X170360000Y-96810000D01*
X170370000Y-77520000D02*
X170360000Y-88930000D01*
X166990000Y-77510000D02*
X170370000Y-77520000D01*
X153000000Y-51000000D02*
X153000000Y-103600000D01*
X167000000Y-51000000D02*
X153000000Y-51000000D01*
X153000000Y-103600000D02*
X167000000Y-103600000D01*
X234010000Y-104800000D02*
X234000000Y-115400000D01*
X239600000Y-104800000D02*
X234010000Y-104800000D01*
X239600000Y-49800000D02*
X239600000Y-104800000D01*
X234000000Y-49800000D02*
X239600000Y-49800000D01*
X234000000Y-39200000D02*
X234000000Y-49800000D01*
X246000000Y-36000000D02*
X148100000Y-36000000D01*
X246000000Y-118600000D02*
X246000000Y-36000000D01*
X148000000Y-118600000D02*
X246000000Y-118600000D01*
X148100000Y-36000000D02*
X148000000Y-118600000D01*
M02*
