G04 #@! TF.GenerationSoftware,KiCad,Pcbnew,(5.1.2)-2*
G04 #@! TF.CreationDate,2021-11-10T11:58:56-03:00*
G04 #@! TF.ProjectId,MAG_Plus,4d41475f-506c-4757-932e-6b696361645f,rev?*
G04 #@! TF.SameCoordinates,Original*
G04 #@! TF.FileFunction,Legend,Top*
G04 #@! TF.FilePolarity,Positive*
%FSLAX46Y46*%
G04 Gerber Fmt 4.6, Leading zero omitted, Abs format (unit mm)*
G04 Created by KiCad (PCBNEW (5.1.2)-2) date 2021-11-10 11:58:56*
%MOMM*%
%LPD*%
G04 APERTURE LIST*
%ADD10C,0.120000*%
%ADD11C,0.150000*%
%ADD12C,0.100000*%
G04 APERTURE END LIST*
D10*
X170350000Y-103600000D02*
X210350000Y-103600000D01*
X167000000Y-103600000D02*
X153000000Y-103600000D01*
X153000000Y-51000000D02*
X167010000Y-51000000D01*
X167010000Y-51000000D02*
X153000000Y-51000000D01*
D11*
X151277619Y-39928571D02*
X151277619Y-39357142D01*
X151277619Y-39642857D02*
X152277619Y-39642857D01*
X152134761Y-39547619D01*
X152039523Y-39452380D01*
X151991904Y-39357142D01*
X152277619Y-40833333D02*
X152277619Y-40357142D01*
X151801428Y-40309523D01*
X151849047Y-40357142D01*
X151896666Y-40452380D01*
X151896666Y-40690476D01*
X151849047Y-40785714D01*
X151801428Y-40833333D01*
X151706190Y-40880952D01*
X151468095Y-40880952D01*
X151372857Y-40833333D01*
X151325238Y-40785714D01*
X151277619Y-40690476D01*
X151277619Y-40452380D01*
X151325238Y-40357142D01*
X151372857Y-40309523D01*
X151372857Y-41309523D02*
X151325238Y-41357142D01*
X151277619Y-41309523D01*
X151325238Y-41261904D01*
X151372857Y-41309523D01*
X151277619Y-41309523D01*
X152277619Y-41976190D02*
X152277619Y-42071428D01*
X152230000Y-42166666D01*
X152182380Y-42214285D01*
X152087142Y-42261904D01*
X151896666Y-42309523D01*
X151658571Y-42309523D01*
X151468095Y-42261904D01*
X151372857Y-42214285D01*
X151325238Y-42166666D01*
X151277619Y-42071428D01*
X151277619Y-41976190D01*
X151325238Y-41880952D01*
X151372857Y-41833333D01*
X151468095Y-41785714D01*
X151658571Y-41738095D01*
X151896666Y-41738095D01*
X152087142Y-41785714D01*
X152182380Y-41833333D01*
X152230000Y-41880952D01*
X152277619Y-41976190D01*
X152277619Y-42928571D02*
X152277619Y-43023809D01*
X152230000Y-43119047D01*
X152182380Y-43166666D01*
X152087142Y-43214285D01*
X151896666Y-43261904D01*
X151658571Y-43261904D01*
X151468095Y-43214285D01*
X151372857Y-43166666D01*
X151325238Y-43119047D01*
X151277619Y-43023809D01*
X151277619Y-42928571D01*
X151325238Y-42833333D01*
X151372857Y-42785714D01*
X151468095Y-42738095D01*
X151658571Y-42690476D01*
X151896666Y-42690476D01*
X152087142Y-42738095D01*
X152182380Y-42785714D01*
X152230000Y-42833333D01*
X152277619Y-42928571D01*
X152277619Y-43880952D02*
X152277619Y-43976190D01*
X152230000Y-44071428D01*
X152182380Y-44119047D01*
X152087142Y-44166666D01*
X151896666Y-44214285D01*
X151658571Y-44214285D01*
X151468095Y-44166666D01*
X151372857Y-44119047D01*
X151325238Y-44071428D01*
X151277619Y-43976190D01*
X151277619Y-43880952D01*
X151325238Y-43785714D01*
X151372857Y-43738095D01*
X151468095Y-43690476D01*
X151658571Y-43642857D01*
X151896666Y-43642857D01*
X152087142Y-43690476D01*
X152182380Y-43738095D01*
X152230000Y-43785714D01*
X152277619Y-43880952D01*
X151277619Y-45404761D02*
X151944285Y-45404761D01*
X151849047Y-45404761D02*
X151896666Y-45452380D01*
X151944285Y-45547619D01*
X151944285Y-45690476D01*
X151896666Y-45785714D01*
X151801428Y-45833333D01*
X151277619Y-45833333D01*
X151801428Y-45833333D02*
X151896666Y-45880952D01*
X151944285Y-45976190D01*
X151944285Y-46119047D01*
X151896666Y-46214285D01*
X151801428Y-46261904D01*
X151277619Y-46261904D01*
X151277619Y-46738095D02*
X151944285Y-46738095D01*
X151849047Y-46738095D02*
X151896666Y-46785714D01*
X151944285Y-46880952D01*
X151944285Y-47023809D01*
X151896666Y-47119047D01*
X151801428Y-47166666D01*
X151277619Y-47166666D01*
X151801428Y-47166666D02*
X151896666Y-47214285D01*
X151944285Y-47309523D01*
X151944285Y-47452380D01*
X151896666Y-47547619D01*
X151801428Y-47595238D01*
X151277619Y-47595238D01*
D10*
X153000000Y-36000000D02*
X153000000Y-51000000D01*
X153000000Y-36000000D02*
X152413579Y-36000000D01*
X153000000Y-51000000D02*
X152413579Y-51000000D01*
X153000000Y-51000000D02*
X152413579Y-49873496D01*
X153000000Y-51000000D02*
X153586421Y-49873496D01*
X153000000Y-36000000D02*
X152413579Y-37126504D01*
X153000000Y-36000000D02*
X153586421Y-37126504D01*
X153000000Y-118600000D02*
X153000000Y-36000000D01*
D12*
G36*
X205720000Y-46910000D02*
G01*
X200720000Y-46910000D01*
X200720000Y-41910000D01*
X205720000Y-41910000D01*
X205720000Y-46910000D01*
G37*
X205720000Y-46910000D02*
X200720000Y-46910000D01*
X200720000Y-41910000D01*
X205720000Y-41910000D01*
X205720000Y-46910000D01*
G36*
X199720000Y-46910000D02*
G01*
X194720000Y-46910000D01*
X194720000Y-41910000D01*
X199720000Y-41910000D01*
X199720000Y-46910000D01*
G37*
X199720000Y-46910000D02*
X194720000Y-46910000D01*
X194720000Y-41910000D01*
X199720000Y-41910000D01*
X199720000Y-46910000D01*
G36*
X193720000Y-46910000D02*
G01*
X188720000Y-46910000D01*
X188720000Y-41910000D01*
X193720000Y-41910000D01*
X193720000Y-46910000D01*
G37*
X193720000Y-46910000D02*
X188720000Y-46910000D01*
X188720000Y-41910000D01*
X193720000Y-41910000D01*
X193720000Y-46910000D01*
G36*
X187720000Y-46910000D02*
G01*
X182720000Y-46910000D01*
X182720000Y-41910000D01*
X187720000Y-41910000D01*
X187720000Y-46910000D01*
G37*
X187720000Y-46910000D02*
X182720000Y-46910000D01*
X182720000Y-41910000D01*
X187720000Y-41910000D01*
X187720000Y-46910000D01*
D11*
X180936666Y-40964761D02*
X181079523Y-41012380D01*
X181317619Y-41012380D01*
X181412857Y-40964761D01*
X181460476Y-40917142D01*
X181508095Y-40821904D01*
X181508095Y-40726666D01*
X181460476Y-40631428D01*
X181412857Y-40583809D01*
X181317619Y-40536190D01*
X181127142Y-40488571D01*
X181031904Y-40440952D01*
X180984285Y-40393333D01*
X180936666Y-40298095D01*
X180936666Y-40202857D01*
X180984285Y-40107619D01*
X181031904Y-40060000D01*
X181127142Y-40012380D01*
X181365238Y-40012380D01*
X181508095Y-40060000D01*
X181936666Y-41012380D02*
X181936666Y-40012380D01*
X182317619Y-40012380D01*
X182412857Y-40060000D01*
X182460476Y-40107619D01*
X182508095Y-40202857D01*
X182508095Y-40345714D01*
X182460476Y-40440952D01*
X182412857Y-40488571D01*
X182317619Y-40536190D01*
X181936666Y-40536190D01*
X182936666Y-40488571D02*
X183270000Y-40488571D01*
X183412857Y-41012380D02*
X182936666Y-41012380D01*
X182936666Y-40012380D01*
X183412857Y-40012380D01*
X184317619Y-41012380D02*
X183841428Y-41012380D01*
X183841428Y-40012380D01*
X185412857Y-40631428D02*
X186174761Y-40631428D01*
X187412857Y-40012380D02*
X187412857Y-40821904D01*
X187460476Y-40917142D01*
X187508095Y-40964761D01*
X187603333Y-41012380D01*
X187793809Y-41012380D01*
X187889047Y-40964761D01*
X187936666Y-40917142D01*
X187984285Y-40821904D01*
X187984285Y-40012380D01*
X188460476Y-40345714D02*
X188460476Y-41012380D01*
X188460476Y-40440952D02*
X188508095Y-40393333D01*
X188603333Y-40345714D01*
X188746190Y-40345714D01*
X188841428Y-40393333D01*
X188889047Y-40488571D01*
X188889047Y-41012380D01*
X189365238Y-41012380D02*
X189365238Y-40345714D01*
X189365238Y-40012380D02*
X189317619Y-40060000D01*
X189365238Y-40107619D01*
X189412857Y-40060000D01*
X189365238Y-40012380D01*
X189365238Y-40107619D01*
X189746190Y-40345714D02*
X189984285Y-41012380D01*
X190222380Y-40345714D01*
X190984285Y-40964761D02*
X190889047Y-41012380D01*
X190698571Y-41012380D01*
X190603333Y-40964761D01*
X190555714Y-40869523D01*
X190555714Y-40488571D01*
X190603333Y-40393333D01*
X190698571Y-40345714D01*
X190889047Y-40345714D01*
X190984285Y-40393333D01*
X191031904Y-40488571D01*
X191031904Y-40583809D01*
X190555714Y-40679047D01*
X191460476Y-41012380D02*
X191460476Y-40345714D01*
X191460476Y-40536190D02*
X191508095Y-40440952D01*
X191555714Y-40393333D01*
X191650952Y-40345714D01*
X191746190Y-40345714D01*
X192031904Y-40964761D02*
X192127142Y-41012380D01*
X192317619Y-41012380D01*
X192412857Y-40964761D01*
X192460476Y-40869523D01*
X192460476Y-40821904D01*
X192412857Y-40726666D01*
X192317619Y-40679047D01*
X192174761Y-40679047D01*
X192079523Y-40631428D01*
X192031904Y-40536190D01*
X192031904Y-40488571D01*
X192079523Y-40393333D01*
X192174761Y-40345714D01*
X192317619Y-40345714D01*
X192412857Y-40393333D01*
X192889047Y-41012380D02*
X192889047Y-40345714D01*
X192889047Y-40012380D02*
X192841428Y-40060000D01*
X192889047Y-40107619D01*
X192936666Y-40060000D01*
X192889047Y-40012380D01*
X192889047Y-40107619D01*
X193222380Y-40345714D02*
X193603333Y-40345714D01*
X193365238Y-40012380D02*
X193365238Y-40869523D01*
X193412857Y-40964761D01*
X193508095Y-41012380D01*
X193603333Y-41012380D01*
X193841428Y-40345714D02*
X194079523Y-41012380D01*
X194317619Y-40345714D02*
X194079523Y-41012380D01*
X193984285Y-41250476D01*
X193936666Y-41298095D01*
X193841428Y-41345714D01*
X195603333Y-41012380D02*
X195508095Y-40964761D01*
X195460476Y-40917142D01*
X195412857Y-40821904D01*
X195412857Y-40536190D01*
X195460476Y-40440952D01*
X195508095Y-40393333D01*
X195603333Y-40345714D01*
X195746190Y-40345714D01*
X195841428Y-40393333D01*
X195889047Y-40440952D01*
X195936666Y-40536190D01*
X195936666Y-40821904D01*
X195889047Y-40917142D01*
X195841428Y-40964761D01*
X195746190Y-41012380D01*
X195603333Y-41012380D01*
X196222380Y-40345714D02*
X196603333Y-40345714D01*
X196365238Y-41012380D02*
X196365238Y-40155238D01*
X196412857Y-40060000D01*
X196508095Y-40012380D01*
X196603333Y-40012380D01*
X198270000Y-40917142D02*
X198222380Y-40964761D01*
X198079523Y-41012380D01*
X197984285Y-41012380D01*
X197841428Y-40964761D01*
X197746190Y-40869523D01*
X197698571Y-40774285D01*
X197650952Y-40583809D01*
X197650952Y-40440952D01*
X197698571Y-40250476D01*
X197746190Y-40155238D01*
X197841428Y-40060000D01*
X197984285Y-40012380D01*
X198079523Y-40012380D01*
X198222380Y-40060000D01*
X198270000Y-40107619D01*
X198698571Y-41012380D02*
X198698571Y-40012380D01*
X199127142Y-41012380D02*
X199127142Y-40488571D01*
X199079523Y-40393333D01*
X198984285Y-40345714D01*
X198841428Y-40345714D01*
X198746190Y-40393333D01*
X198698571Y-40440952D01*
X199603333Y-41012380D02*
X199603333Y-40345714D01*
X199603333Y-40012380D02*
X199555714Y-40060000D01*
X199603333Y-40107619D01*
X199650952Y-40060000D01*
X199603333Y-40012380D01*
X199603333Y-40107619D01*
X200222380Y-41012380D02*
X200127142Y-40964761D01*
X200079523Y-40869523D01*
X200079523Y-40012380D01*
X200984285Y-40964761D02*
X200889047Y-41012380D01*
X200698571Y-41012380D01*
X200603333Y-40964761D01*
X200555714Y-40869523D01*
X200555714Y-40488571D01*
X200603333Y-40393333D01*
X200698571Y-40345714D01*
X200889047Y-40345714D01*
X200984285Y-40393333D01*
X201031904Y-40488571D01*
X201031904Y-40583809D01*
X200555714Y-40679047D01*
X202222380Y-40631428D02*
X202984285Y-40631428D01*
X204174761Y-40107619D02*
X204222380Y-40060000D01*
X204317619Y-40012380D01*
X204555714Y-40012380D01*
X204650952Y-40060000D01*
X204698571Y-40107619D01*
X204746190Y-40202857D01*
X204746190Y-40298095D01*
X204698571Y-40440952D01*
X204127142Y-41012380D01*
X204746190Y-41012380D01*
X205365238Y-40012380D02*
X205460476Y-40012380D01*
X205555714Y-40060000D01*
X205603333Y-40107619D01*
X205650952Y-40202857D01*
X205698571Y-40393333D01*
X205698571Y-40631428D01*
X205650952Y-40821904D01*
X205603333Y-40917142D01*
X205555714Y-40964761D01*
X205460476Y-41012380D01*
X205365238Y-41012380D01*
X205270000Y-40964761D01*
X205222380Y-40917142D01*
X205174761Y-40821904D01*
X205127142Y-40631428D01*
X205127142Y-40393333D01*
X205174761Y-40202857D01*
X205222380Y-40107619D01*
X205270000Y-40060000D01*
X205365238Y-40012380D01*
X206079523Y-40107619D02*
X206127142Y-40060000D01*
X206222380Y-40012380D01*
X206460476Y-40012380D01*
X206555714Y-40060000D01*
X206603333Y-40107619D01*
X206650952Y-40202857D01*
X206650952Y-40298095D01*
X206603333Y-40440952D01*
X206031904Y-41012380D01*
X206650952Y-41012380D01*
X207603333Y-41012380D02*
X207031904Y-41012380D01*
X207317619Y-41012380D02*
X207317619Y-40012380D01*
X207222380Y-40155238D01*
X207127142Y-40250476D01*
X207031904Y-40298095D01*
X179431904Y-48714761D02*
X179574761Y-48762380D01*
X179812857Y-48762380D01*
X179908095Y-48714761D01*
X179955714Y-48667142D01*
X180003333Y-48571904D01*
X180003333Y-48476666D01*
X179955714Y-48381428D01*
X179908095Y-48333809D01*
X179812857Y-48286190D01*
X179622380Y-48238571D01*
X179527142Y-48190952D01*
X179479523Y-48143333D01*
X179431904Y-48048095D01*
X179431904Y-47952857D01*
X179479523Y-47857619D01*
X179527142Y-47810000D01*
X179622380Y-47762380D01*
X179860476Y-47762380D01*
X180003333Y-47810000D01*
X180812857Y-48714761D02*
X180717619Y-48762380D01*
X180527142Y-48762380D01*
X180431904Y-48714761D01*
X180384285Y-48619523D01*
X180384285Y-48238571D01*
X180431904Y-48143333D01*
X180527142Y-48095714D01*
X180717619Y-48095714D01*
X180812857Y-48143333D01*
X180860476Y-48238571D01*
X180860476Y-48333809D01*
X180384285Y-48429047D01*
X181289047Y-48095714D02*
X181289047Y-48762380D01*
X181289047Y-48190952D02*
X181336666Y-48143333D01*
X181431904Y-48095714D01*
X181574761Y-48095714D01*
X181670000Y-48143333D01*
X181717619Y-48238571D01*
X181717619Y-48762380D01*
X182146190Y-48714761D02*
X182241428Y-48762380D01*
X182431904Y-48762380D01*
X182527142Y-48714761D01*
X182574761Y-48619523D01*
X182574761Y-48571904D01*
X182527142Y-48476666D01*
X182431904Y-48429047D01*
X182289047Y-48429047D01*
X182193809Y-48381428D01*
X182146190Y-48286190D01*
X182146190Y-48238571D01*
X182193809Y-48143333D01*
X182289047Y-48095714D01*
X182431904Y-48095714D01*
X182527142Y-48143333D01*
X183146190Y-48762380D02*
X183050952Y-48714761D01*
X183003333Y-48667142D01*
X182955714Y-48571904D01*
X182955714Y-48286190D01*
X183003333Y-48190952D01*
X183050952Y-48143333D01*
X183146190Y-48095714D01*
X183289047Y-48095714D01*
X183384285Y-48143333D01*
X183431904Y-48190952D01*
X183479523Y-48286190D01*
X183479523Y-48571904D01*
X183431904Y-48667142D01*
X183384285Y-48714761D01*
X183289047Y-48762380D01*
X183146190Y-48762380D01*
X183908095Y-48762380D02*
X183908095Y-48095714D01*
X183908095Y-48286190D02*
X183955714Y-48190952D01*
X184003333Y-48143333D01*
X184098571Y-48095714D01*
X184193809Y-48095714D01*
X185622380Y-48238571D02*
X185765238Y-48286190D01*
X185812857Y-48333809D01*
X185860476Y-48429047D01*
X185860476Y-48571904D01*
X185812857Y-48667142D01*
X185765238Y-48714761D01*
X185670000Y-48762380D01*
X185289047Y-48762380D01*
X185289047Y-47762380D01*
X185622380Y-47762380D01*
X185717619Y-47810000D01*
X185765238Y-47857619D01*
X185812857Y-47952857D01*
X185812857Y-48048095D01*
X185765238Y-48143333D01*
X185717619Y-48190952D01*
X185622380Y-48238571D01*
X185289047Y-48238571D01*
X186431904Y-48762380D02*
X186336666Y-48714761D01*
X186289047Y-48667142D01*
X186241428Y-48571904D01*
X186241428Y-48286190D01*
X186289047Y-48190952D01*
X186336666Y-48143333D01*
X186431904Y-48095714D01*
X186574761Y-48095714D01*
X186670000Y-48143333D01*
X186717619Y-48190952D01*
X186765238Y-48286190D01*
X186765238Y-48571904D01*
X186717619Y-48667142D01*
X186670000Y-48714761D01*
X186574761Y-48762380D01*
X186431904Y-48762380D01*
X187622380Y-48762380D02*
X187622380Y-48238571D01*
X187574761Y-48143333D01*
X187479523Y-48095714D01*
X187289047Y-48095714D01*
X187193809Y-48143333D01*
X187622380Y-48714761D02*
X187527142Y-48762380D01*
X187289047Y-48762380D01*
X187193809Y-48714761D01*
X187146190Y-48619523D01*
X187146190Y-48524285D01*
X187193809Y-48429047D01*
X187289047Y-48381428D01*
X187527142Y-48381428D01*
X187622380Y-48333809D01*
X188098571Y-48762380D02*
X188098571Y-48095714D01*
X188098571Y-48286190D02*
X188146190Y-48190952D01*
X188193809Y-48143333D01*
X188289047Y-48095714D01*
X188384285Y-48095714D01*
X189146190Y-48762380D02*
X189146190Y-47762380D01*
X189146190Y-48714761D02*
X189050952Y-48762380D01*
X188860476Y-48762380D01*
X188765238Y-48714761D01*
X188717619Y-48667142D01*
X188670000Y-48571904D01*
X188670000Y-48286190D01*
X188717619Y-48190952D01*
X188765238Y-48143333D01*
X188860476Y-48095714D01*
X189050952Y-48095714D01*
X189146190Y-48143333D01*
X190384285Y-48762380D02*
X190384285Y-47762380D01*
X190765238Y-47762380D01*
X190860476Y-47810000D01*
X190908095Y-47857619D01*
X190955714Y-47952857D01*
X190955714Y-48095714D01*
X190908095Y-48190952D01*
X190860476Y-48238571D01*
X190765238Y-48286190D01*
X190384285Y-48286190D01*
X191812857Y-48762380D02*
X191812857Y-48238571D01*
X191765238Y-48143333D01*
X191670000Y-48095714D01*
X191479523Y-48095714D01*
X191384285Y-48143333D01*
X191812857Y-48714761D02*
X191717619Y-48762380D01*
X191479523Y-48762380D01*
X191384285Y-48714761D01*
X191336666Y-48619523D01*
X191336666Y-48524285D01*
X191384285Y-48429047D01*
X191479523Y-48381428D01*
X191717619Y-48381428D01*
X191812857Y-48333809D01*
X192289047Y-48095714D02*
X192289047Y-48762380D01*
X192289047Y-48190952D02*
X192336666Y-48143333D01*
X192431904Y-48095714D01*
X192574761Y-48095714D01*
X192670000Y-48143333D01*
X192717619Y-48238571D01*
X192717619Y-48762380D01*
X193574761Y-48714761D02*
X193479523Y-48762380D01*
X193289047Y-48762380D01*
X193193809Y-48714761D01*
X193146190Y-48619523D01*
X193146190Y-48238571D01*
X193193809Y-48143333D01*
X193289047Y-48095714D01*
X193479523Y-48095714D01*
X193574761Y-48143333D01*
X193622380Y-48238571D01*
X193622380Y-48333809D01*
X193146190Y-48429047D01*
X194193809Y-48762380D02*
X194098571Y-48714761D01*
X194050952Y-48619523D01*
X194050952Y-47762380D01*
X195670000Y-48238571D02*
X195812857Y-48286190D01*
X195860476Y-48333809D01*
X195908095Y-48429047D01*
X195908095Y-48571904D01*
X195860476Y-48667142D01*
X195812857Y-48714761D01*
X195717619Y-48762380D01*
X195336666Y-48762380D01*
X195336666Y-47762380D01*
X195670000Y-47762380D01*
X195765238Y-47810000D01*
X195812857Y-47857619D01*
X195860476Y-47952857D01*
X195860476Y-48048095D01*
X195812857Y-48143333D01*
X195765238Y-48190952D01*
X195670000Y-48238571D01*
X195336666Y-48238571D01*
X197098571Y-48762380D02*
X197098571Y-47762380D01*
X198289047Y-48714761D02*
X198431904Y-48762380D01*
X198670000Y-48762380D01*
X198765238Y-48714761D01*
X198812857Y-48667142D01*
X198860476Y-48571904D01*
X198860476Y-48476666D01*
X198812857Y-48381428D01*
X198765238Y-48333809D01*
X198670000Y-48286190D01*
X198479523Y-48238571D01*
X198384285Y-48190952D01*
X198336666Y-48143333D01*
X198289047Y-48048095D01*
X198289047Y-47952857D01*
X198336666Y-47857619D01*
X198384285Y-47810000D01*
X198479523Y-47762380D01*
X198717619Y-47762380D01*
X198860476Y-47810000D01*
X199193809Y-47762380D02*
X199812857Y-47762380D01*
X199479523Y-48143333D01*
X199622380Y-48143333D01*
X199717619Y-48190952D01*
X199765238Y-48238571D01*
X199812857Y-48333809D01*
X199812857Y-48571904D01*
X199765238Y-48667142D01*
X199717619Y-48714761D01*
X199622380Y-48762380D01*
X199336666Y-48762380D01*
X199241428Y-48714761D01*
X199193809Y-48667142D01*
X200860476Y-47762380D02*
X201193809Y-48762380D01*
X201527142Y-47762380D01*
X202384285Y-48762380D02*
X201812857Y-48762380D01*
X202098571Y-48762380D02*
X202098571Y-47762380D01*
X202003333Y-47905238D01*
X201908095Y-48000476D01*
X201812857Y-48048095D01*
X202812857Y-48667142D02*
X202860476Y-48714761D01*
X202812857Y-48762380D01*
X202765238Y-48714761D01*
X202812857Y-48667142D01*
X202812857Y-48762380D01*
X203812857Y-48762380D02*
X203241428Y-48762380D01*
X203527142Y-48762380D02*
X203527142Y-47762380D01*
X203431904Y-47905238D01*
X203336666Y-48000476D01*
X203241428Y-48048095D01*
X204955714Y-48714761D02*
X205098571Y-48762380D01*
X205336666Y-48762380D01*
X205431904Y-48714761D01*
X205479523Y-48667142D01*
X205527142Y-48571904D01*
X205527142Y-48476666D01*
X205479523Y-48381428D01*
X205431904Y-48333809D01*
X205336666Y-48286190D01*
X205146190Y-48238571D01*
X205050952Y-48190952D01*
X205003333Y-48143333D01*
X204955714Y-48048095D01*
X204955714Y-47952857D01*
X205003333Y-47857619D01*
X205050952Y-47810000D01*
X205146190Y-47762380D01*
X205384285Y-47762380D01*
X205527142Y-47810000D01*
X206336666Y-48714761D02*
X206241428Y-48762380D01*
X206050952Y-48762380D01*
X205955714Y-48714761D01*
X205908095Y-48619523D01*
X205908095Y-48238571D01*
X205955714Y-48143333D01*
X206050952Y-48095714D01*
X206241428Y-48095714D01*
X206336666Y-48143333D01*
X206384285Y-48238571D01*
X206384285Y-48333809D01*
X205908095Y-48429047D01*
X206812857Y-48762380D02*
X206812857Y-48095714D01*
X206812857Y-48286190D02*
X206860476Y-48190952D01*
X206908095Y-48143333D01*
X207003333Y-48095714D01*
X207098571Y-48095714D01*
X207431904Y-48762380D02*
X207431904Y-48095714D01*
X207431904Y-47762380D02*
X207384285Y-47810000D01*
X207431904Y-47857619D01*
X207479523Y-47810000D01*
X207431904Y-47762380D01*
X207431904Y-47857619D01*
X208336666Y-48762380D02*
X208336666Y-48238571D01*
X208289047Y-48143333D01*
X208193809Y-48095714D01*
X208003333Y-48095714D01*
X207908095Y-48143333D01*
X208336666Y-48714761D02*
X208241428Y-48762380D01*
X208003333Y-48762380D01*
X207908095Y-48714761D01*
X207860476Y-48619523D01*
X207860476Y-48524285D01*
X207908095Y-48429047D01*
X208003333Y-48381428D01*
X208241428Y-48381428D01*
X208336666Y-48333809D01*
X208955714Y-48762380D02*
X208860476Y-48714761D01*
X208812857Y-48619523D01*
X208812857Y-47762380D01*
D10*
X160000000Y-118600000D02*
X160000000Y-104800000D01*
X154400000Y-115400000D02*
X239600000Y-115400000D01*
X234000000Y-104800000D02*
X234000000Y-118600000D01*
X246000000Y-104800000D02*
X234000000Y-104800000D01*
X234000000Y-49800000D02*
X246000000Y-49800000D01*
X234000000Y-36000000D02*
X234000000Y-49800000D01*
X148100000Y-49800000D02*
X160100000Y-49800000D01*
X148000000Y-104800000D02*
X160000000Y-104800000D01*
X246000000Y-104800000D02*
X234000000Y-104800000D01*
X246000000Y-49800000D02*
X234000000Y-49800000D01*
X160100000Y-36000000D02*
X160100000Y-49800000D01*
X234000000Y-104800000D02*
X234000000Y-118600000D01*
X239600000Y-39200000D02*
X154500000Y-39200000D01*
X239600000Y-36000000D02*
X239600000Y-118600000D01*
X244050000Y-107800000D02*
G75*
G03X244050000Y-107800000I-1250000J0D01*
G01*
X244050000Y-46800000D02*
G75*
G03X244050000Y-46800000I-1250000J0D01*
G01*
X152550000Y-46800000D02*
G75*
G03X152550000Y-46800000I-1250000J0D01*
G01*
X152150000Y-107800000D02*
G75*
G03X152150000Y-107800000I-1250000J0D01*
G01*
D11*
X169502380Y-65493333D02*
X169026190Y-65826666D01*
X169502380Y-66064761D02*
X168502380Y-66064761D01*
X168502380Y-65683809D01*
X168550000Y-65588571D01*
X168597619Y-65540952D01*
X168692857Y-65493333D01*
X168835714Y-65493333D01*
X168930952Y-65540952D01*
X168978571Y-65588571D01*
X169026190Y-65683809D01*
X169026190Y-66064761D01*
X168978571Y-65064761D02*
X168978571Y-64731428D01*
X169502380Y-64588571D02*
X169502380Y-65064761D01*
X168502380Y-65064761D01*
X168502380Y-64588571D01*
X168978571Y-63826666D02*
X168978571Y-64160000D01*
X169502380Y-64160000D02*
X168502380Y-64160000D01*
X168502380Y-63683809D01*
X168502380Y-63160000D02*
X168740476Y-63160000D01*
X168645238Y-63398095D02*
X168740476Y-63160000D01*
X168645238Y-62921904D01*
X168930952Y-63302857D02*
X168740476Y-63160000D01*
X168930952Y-63017142D01*
X168502380Y-62398095D02*
X168740476Y-62398095D01*
X168645238Y-62636190D02*
X168740476Y-62398095D01*
X168645238Y-62160000D01*
X168930952Y-62540952D02*
X168740476Y-62398095D01*
X168930952Y-62255238D01*
X241466666Y-105012380D02*
X241133333Y-104536190D01*
X240895238Y-105012380D02*
X240895238Y-104012380D01*
X241276190Y-104012380D01*
X241371428Y-104060000D01*
X241419047Y-104107619D01*
X241466666Y-104202857D01*
X241466666Y-104345714D01*
X241419047Y-104440952D01*
X241371428Y-104488571D01*
X241276190Y-104536190D01*
X240895238Y-104536190D01*
X241895238Y-104488571D02*
X242228571Y-104488571D01*
X242371428Y-105012380D02*
X241895238Y-105012380D01*
X241895238Y-104012380D01*
X242371428Y-104012380D01*
X243133333Y-104488571D02*
X242800000Y-104488571D01*
X242800000Y-105012380D02*
X242800000Y-104012380D01*
X243276190Y-104012380D01*
X243800000Y-104012380D02*
X243800000Y-104250476D01*
X243561904Y-104155238D02*
X243800000Y-104250476D01*
X244038095Y-104155238D01*
X243657142Y-104440952D02*
X243800000Y-104250476D01*
X243942857Y-104440952D01*
X244561904Y-104012380D02*
X244561904Y-104250476D01*
X244323809Y-104155238D02*
X244561904Y-104250476D01*
X244800000Y-104155238D01*
X244419047Y-104440952D02*
X244561904Y-104250476D01*
X244704761Y-104440952D01*
X241466666Y-44012380D02*
X241133333Y-43536190D01*
X240895238Y-44012380D02*
X240895238Y-43012380D01*
X241276190Y-43012380D01*
X241371428Y-43060000D01*
X241419047Y-43107619D01*
X241466666Y-43202857D01*
X241466666Y-43345714D01*
X241419047Y-43440952D01*
X241371428Y-43488571D01*
X241276190Y-43536190D01*
X240895238Y-43536190D01*
X241895238Y-43488571D02*
X242228571Y-43488571D01*
X242371428Y-44012380D02*
X241895238Y-44012380D01*
X241895238Y-43012380D01*
X242371428Y-43012380D01*
X243133333Y-43488571D02*
X242800000Y-43488571D01*
X242800000Y-44012380D02*
X242800000Y-43012380D01*
X243276190Y-43012380D01*
X243800000Y-43012380D02*
X243800000Y-43250476D01*
X243561904Y-43155238D02*
X243800000Y-43250476D01*
X244038095Y-43155238D01*
X243657142Y-43440952D02*
X243800000Y-43250476D01*
X243942857Y-43440952D01*
X244561904Y-43012380D02*
X244561904Y-43250476D01*
X244323809Y-43155238D02*
X244561904Y-43250476D01*
X244800000Y-43155238D01*
X244419047Y-43440952D02*
X244561904Y-43250476D01*
X244704761Y-43440952D01*
X149966666Y-44002380D02*
X149633333Y-43526190D01*
X149395238Y-44002380D02*
X149395238Y-43002380D01*
X149776190Y-43002380D01*
X149871428Y-43050000D01*
X149919047Y-43097619D01*
X149966666Y-43192857D01*
X149966666Y-43335714D01*
X149919047Y-43430952D01*
X149871428Y-43478571D01*
X149776190Y-43526190D01*
X149395238Y-43526190D01*
X150395238Y-43478571D02*
X150728571Y-43478571D01*
X150871428Y-44002380D02*
X150395238Y-44002380D01*
X150395238Y-43002380D01*
X150871428Y-43002380D01*
X151633333Y-43478571D02*
X151300000Y-43478571D01*
X151300000Y-44002380D02*
X151300000Y-43002380D01*
X151776190Y-43002380D01*
X152300000Y-43002380D02*
X152300000Y-43240476D01*
X152061904Y-43145238D02*
X152300000Y-43240476D01*
X152538095Y-43145238D01*
X152157142Y-43430952D02*
X152300000Y-43240476D01*
X152442857Y-43430952D01*
X153061904Y-43002380D02*
X153061904Y-43240476D01*
X152823809Y-43145238D02*
X153061904Y-43240476D01*
X153300000Y-43145238D01*
X152919047Y-43430952D02*
X153061904Y-43240476D01*
X153204761Y-43430952D01*
X149576666Y-105022380D02*
X149243333Y-104546190D01*
X149005238Y-105022380D02*
X149005238Y-104022380D01*
X149386190Y-104022380D01*
X149481428Y-104070000D01*
X149529047Y-104117619D01*
X149576666Y-104212857D01*
X149576666Y-104355714D01*
X149529047Y-104450952D01*
X149481428Y-104498571D01*
X149386190Y-104546190D01*
X149005238Y-104546190D01*
X150005238Y-104498571D02*
X150338571Y-104498571D01*
X150481428Y-105022380D02*
X150005238Y-105022380D01*
X150005238Y-104022380D01*
X150481428Y-104022380D01*
X151243333Y-104498571D02*
X150910000Y-104498571D01*
X150910000Y-105022380D02*
X150910000Y-104022380D01*
X151386190Y-104022380D01*
X151910000Y-104022380D02*
X151910000Y-104260476D01*
X151671904Y-104165238D02*
X151910000Y-104260476D01*
X152148095Y-104165238D01*
X151767142Y-104450952D02*
X151910000Y-104260476D01*
X152052857Y-104450952D01*
X152671904Y-104022380D02*
X152671904Y-104260476D01*
X152433809Y-104165238D02*
X152671904Y-104260476D01*
X152910000Y-104165238D01*
X152529047Y-104450952D02*
X152671904Y-104260476D01*
X152814761Y-104450952D01*
M02*
