G04 #@! TF.GenerationSoftware,KiCad,Pcbnew,(5.1.2)-2*
G04 #@! TF.CreationDate,2021-08-28T01:13:10-04:00*
G04 #@! TF.ProjectId,MAG_Plus,4d41475f-506c-4757-932e-6b696361645f,rev?*
G04 #@! TF.SameCoordinates,Original*
G04 #@! TF.FileFunction,Legend,Top*
G04 #@! TF.FilePolarity,Positive*
%FSLAX46Y46*%
G04 Gerber Fmt 4.6, Leading zero omitted, Abs format (unit mm)*
G04 Created by KiCad (PCBNEW (5.1.2)-2) date 2021-08-28 01:13:10*
%MOMM*%
%LPD*%
G04 APERTURE LIST*
%ADD10C,0.120000*%
%ADD11C,0.100000*%
%ADD12C,0.150000*%
G04 APERTURE END LIST*
D10*
X103790000Y-258620000D02*
X103790000Y-258630000D01*
D11*
G36*
X106420000Y-305310000D02*
G01*
X101420000Y-305310000D01*
X101420000Y-300310000D01*
X106420000Y-300310000D01*
X106420000Y-305310000D01*
G37*
X106420000Y-305310000D02*
X101420000Y-305310000D01*
X101420000Y-300310000D01*
X106420000Y-300310000D01*
X106420000Y-305310000D01*
G36*
X100420000Y-305310000D02*
G01*
X95420000Y-305310000D01*
X95420000Y-300310000D01*
X100420000Y-300310000D01*
X100420000Y-305310000D01*
G37*
X100420000Y-305310000D02*
X95420000Y-305310000D01*
X95420000Y-300310000D01*
X100420000Y-300310000D01*
X100420000Y-305310000D01*
G36*
X112420000Y-305310000D02*
G01*
X107420000Y-305310000D01*
X107420000Y-300310000D01*
X112420000Y-300310000D01*
X112420000Y-305310000D01*
G37*
X112420000Y-305310000D02*
X107420000Y-305310000D01*
X107420000Y-300310000D01*
X112420000Y-300310000D01*
X112420000Y-305310000D01*
G36*
X94420000Y-305310000D02*
G01*
X89420000Y-305310000D01*
X89420000Y-300310000D01*
X94420000Y-300310000D01*
X94420000Y-305310000D01*
G37*
X94420000Y-305310000D02*
X89420000Y-305310000D01*
X89420000Y-300310000D01*
X94420000Y-300310000D01*
X94420000Y-305310000D01*
D12*
X114203333Y-306255238D02*
X114060476Y-306207619D01*
X113822380Y-306207619D01*
X113727142Y-306255238D01*
X113679523Y-306302857D01*
X113631904Y-306398095D01*
X113631904Y-306493333D01*
X113679523Y-306588571D01*
X113727142Y-306636190D01*
X113822380Y-306683809D01*
X114012857Y-306731428D01*
X114108095Y-306779047D01*
X114155714Y-306826666D01*
X114203333Y-306921904D01*
X114203333Y-307017142D01*
X114155714Y-307112380D01*
X114108095Y-307160000D01*
X114012857Y-307207619D01*
X113774761Y-307207619D01*
X113631904Y-307160000D01*
X113203333Y-306207619D02*
X113203333Y-307207619D01*
X112822380Y-307207619D01*
X112727142Y-307160000D01*
X112679523Y-307112380D01*
X112631904Y-307017142D01*
X112631904Y-306874285D01*
X112679523Y-306779047D01*
X112727142Y-306731428D01*
X112822380Y-306683809D01*
X113203333Y-306683809D01*
X112203333Y-306731428D02*
X111870000Y-306731428D01*
X111727142Y-306207619D02*
X112203333Y-306207619D01*
X112203333Y-307207619D01*
X111727142Y-307207619D01*
X110822380Y-306207619D02*
X111298571Y-306207619D01*
X111298571Y-307207619D01*
X109727142Y-306588571D02*
X108965238Y-306588571D01*
X107727142Y-307207619D02*
X107727142Y-306398095D01*
X107679523Y-306302857D01*
X107631904Y-306255238D01*
X107536666Y-306207619D01*
X107346190Y-306207619D01*
X107250952Y-306255238D01*
X107203333Y-306302857D01*
X107155714Y-306398095D01*
X107155714Y-307207619D01*
X106679523Y-306874285D02*
X106679523Y-306207619D01*
X106679523Y-306779047D02*
X106631904Y-306826666D01*
X106536666Y-306874285D01*
X106393809Y-306874285D01*
X106298571Y-306826666D01*
X106250952Y-306731428D01*
X106250952Y-306207619D01*
X105774761Y-306207619D02*
X105774761Y-306874285D01*
X105774761Y-307207619D02*
X105822380Y-307160000D01*
X105774761Y-307112380D01*
X105727142Y-307160000D01*
X105774761Y-307207619D01*
X105774761Y-307112380D01*
X105393809Y-306874285D02*
X105155714Y-306207619D01*
X104917619Y-306874285D01*
X104155714Y-306255238D02*
X104250952Y-306207619D01*
X104441428Y-306207619D01*
X104536666Y-306255238D01*
X104584285Y-306350476D01*
X104584285Y-306731428D01*
X104536666Y-306826666D01*
X104441428Y-306874285D01*
X104250952Y-306874285D01*
X104155714Y-306826666D01*
X104108095Y-306731428D01*
X104108095Y-306636190D01*
X104584285Y-306540952D01*
X103679523Y-306207619D02*
X103679523Y-306874285D01*
X103679523Y-306683809D02*
X103631904Y-306779047D01*
X103584285Y-306826666D01*
X103489047Y-306874285D01*
X103393809Y-306874285D01*
X103108095Y-306255238D02*
X103012857Y-306207619D01*
X102822380Y-306207619D01*
X102727142Y-306255238D01*
X102679523Y-306350476D01*
X102679523Y-306398095D01*
X102727142Y-306493333D01*
X102822380Y-306540952D01*
X102965238Y-306540952D01*
X103060476Y-306588571D01*
X103108095Y-306683809D01*
X103108095Y-306731428D01*
X103060476Y-306826666D01*
X102965238Y-306874285D01*
X102822380Y-306874285D01*
X102727142Y-306826666D01*
X102250952Y-306207619D02*
X102250952Y-306874285D01*
X102250952Y-307207619D02*
X102298571Y-307160000D01*
X102250952Y-307112380D01*
X102203333Y-307160000D01*
X102250952Y-307207619D01*
X102250952Y-307112380D01*
X101917619Y-306874285D02*
X101536666Y-306874285D01*
X101774761Y-307207619D02*
X101774761Y-306350476D01*
X101727142Y-306255238D01*
X101631904Y-306207619D01*
X101536666Y-306207619D01*
X101298571Y-306874285D02*
X101060476Y-306207619D01*
X100822380Y-306874285D02*
X101060476Y-306207619D01*
X101155714Y-305969523D01*
X101203333Y-305921904D01*
X101298571Y-305874285D01*
X99536666Y-306207619D02*
X99631904Y-306255238D01*
X99679523Y-306302857D01*
X99727142Y-306398095D01*
X99727142Y-306683809D01*
X99679523Y-306779047D01*
X99631904Y-306826666D01*
X99536666Y-306874285D01*
X99393809Y-306874285D01*
X99298571Y-306826666D01*
X99250952Y-306779047D01*
X99203333Y-306683809D01*
X99203333Y-306398095D01*
X99250952Y-306302857D01*
X99298571Y-306255238D01*
X99393809Y-306207619D01*
X99536666Y-306207619D01*
X98917619Y-306874285D02*
X98536666Y-306874285D01*
X98774761Y-306207619D02*
X98774761Y-307064761D01*
X98727142Y-307160000D01*
X98631904Y-307207619D01*
X98536666Y-307207619D01*
X96870000Y-306302857D02*
X96917619Y-306255238D01*
X97060476Y-306207619D01*
X97155714Y-306207619D01*
X97298571Y-306255238D01*
X97393809Y-306350476D01*
X97441428Y-306445714D01*
X97489047Y-306636190D01*
X97489047Y-306779047D01*
X97441428Y-306969523D01*
X97393809Y-307064761D01*
X97298571Y-307160000D01*
X97155714Y-307207619D01*
X97060476Y-307207619D01*
X96917619Y-307160000D01*
X96870000Y-307112380D01*
X96441428Y-306207619D02*
X96441428Y-307207619D01*
X96012857Y-306207619D02*
X96012857Y-306731428D01*
X96060476Y-306826666D01*
X96155714Y-306874285D01*
X96298571Y-306874285D01*
X96393809Y-306826666D01*
X96441428Y-306779047D01*
X95536666Y-306207619D02*
X95536666Y-306874285D01*
X95536666Y-307207619D02*
X95584285Y-307160000D01*
X95536666Y-307112380D01*
X95489047Y-307160000D01*
X95536666Y-307207619D01*
X95536666Y-307112380D01*
X94917619Y-306207619D02*
X95012857Y-306255238D01*
X95060476Y-306350476D01*
X95060476Y-307207619D01*
X94155714Y-306255238D02*
X94250952Y-306207619D01*
X94441428Y-306207619D01*
X94536666Y-306255238D01*
X94584285Y-306350476D01*
X94584285Y-306731428D01*
X94536666Y-306826666D01*
X94441428Y-306874285D01*
X94250952Y-306874285D01*
X94155714Y-306826666D01*
X94108095Y-306731428D01*
X94108095Y-306636190D01*
X94584285Y-306540952D01*
X92917619Y-306588571D02*
X92155714Y-306588571D01*
X90965238Y-307112380D02*
X90917619Y-307160000D01*
X90822380Y-307207619D01*
X90584285Y-307207619D01*
X90489047Y-307160000D01*
X90441428Y-307112380D01*
X90393809Y-307017142D01*
X90393809Y-306921904D01*
X90441428Y-306779047D01*
X91012857Y-306207619D01*
X90393809Y-306207619D01*
X89774761Y-307207619D02*
X89679523Y-307207619D01*
X89584285Y-307160000D01*
X89536666Y-307112380D01*
X89489047Y-307017142D01*
X89441428Y-306826666D01*
X89441428Y-306588571D01*
X89489047Y-306398095D01*
X89536666Y-306302857D01*
X89584285Y-306255238D01*
X89679523Y-306207619D01*
X89774761Y-306207619D01*
X89870000Y-306255238D01*
X89917619Y-306302857D01*
X89965238Y-306398095D01*
X90012857Y-306588571D01*
X90012857Y-306826666D01*
X89965238Y-307017142D01*
X89917619Y-307112380D01*
X89870000Y-307160000D01*
X89774761Y-307207619D01*
X89060476Y-307112380D02*
X89012857Y-307160000D01*
X88917619Y-307207619D01*
X88679523Y-307207619D01*
X88584285Y-307160000D01*
X88536666Y-307112380D01*
X88489047Y-307017142D01*
X88489047Y-306921904D01*
X88536666Y-306779047D01*
X89108095Y-306207619D01*
X88489047Y-306207619D01*
X87536666Y-306207619D02*
X88108095Y-306207619D01*
X87822380Y-306207619D02*
X87822380Y-307207619D01*
X87917619Y-307064761D01*
X88012857Y-306969523D01*
X88108095Y-306921904D01*
X114922380Y-298505238D02*
X114779523Y-298457619D01*
X114541428Y-298457619D01*
X114446190Y-298505238D01*
X114398571Y-298552857D01*
X114350952Y-298648095D01*
X114350952Y-298743333D01*
X114398571Y-298838571D01*
X114446190Y-298886190D01*
X114541428Y-298933809D01*
X114731904Y-298981428D01*
X114827142Y-299029047D01*
X114874761Y-299076666D01*
X114922380Y-299171904D01*
X114922380Y-299267142D01*
X114874761Y-299362380D01*
X114827142Y-299410000D01*
X114731904Y-299457619D01*
X114493809Y-299457619D01*
X114350952Y-299410000D01*
X113541428Y-298505238D02*
X113636666Y-298457619D01*
X113827142Y-298457619D01*
X113922380Y-298505238D01*
X113970000Y-298600476D01*
X113970000Y-298981428D01*
X113922380Y-299076666D01*
X113827142Y-299124285D01*
X113636666Y-299124285D01*
X113541428Y-299076666D01*
X113493809Y-298981428D01*
X113493809Y-298886190D01*
X113970000Y-298790952D01*
X113065238Y-299124285D02*
X113065238Y-298457619D01*
X113065238Y-299029047D02*
X113017619Y-299076666D01*
X112922380Y-299124285D01*
X112779523Y-299124285D01*
X112684285Y-299076666D01*
X112636666Y-298981428D01*
X112636666Y-298457619D01*
X112208095Y-298505238D02*
X112112857Y-298457619D01*
X111922380Y-298457619D01*
X111827142Y-298505238D01*
X111779523Y-298600476D01*
X111779523Y-298648095D01*
X111827142Y-298743333D01*
X111922380Y-298790952D01*
X112065238Y-298790952D01*
X112160476Y-298838571D01*
X112208095Y-298933809D01*
X112208095Y-298981428D01*
X112160476Y-299076666D01*
X112065238Y-299124285D01*
X111922380Y-299124285D01*
X111827142Y-299076666D01*
X111208095Y-298457619D02*
X111303333Y-298505238D01*
X111350952Y-298552857D01*
X111398571Y-298648095D01*
X111398571Y-298933809D01*
X111350952Y-299029047D01*
X111303333Y-299076666D01*
X111208095Y-299124285D01*
X111065238Y-299124285D01*
X110970000Y-299076666D01*
X110922380Y-299029047D01*
X110874761Y-298933809D01*
X110874761Y-298648095D01*
X110922380Y-298552857D01*
X110970000Y-298505238D01*
X111065238Y-298457619D01*
X111208095Y-298457619D01*
X110446190Y-298457619D02*
X110446190Y-299124285D01*
X110446190Y-298933809D02*
X110398571Y-299029047D01*
X110350952Y-299076666D01*
X110255714Y-299124285D01*
X110160476Y-299124285D01*
X108731904Y-298981428D02*
X108589047Y-298933809D01*
X108541428Y-298886190D01*
X108493809Y-298790952D01*
X108493809Y-298648095D01*
X108541428Y-298552857D01*
X108589047Y-298505238D01*
X108684285Y-298457619D01*
X109065238Y-298457619D01*
X109065238Y-299457619D01*
X108731904Y-299457619D01*
X108636666Y-299410000D01*
X108589047Y-299362380D01*
X108541428Y-299267142D01*
X108541428Y-299171904D01*
X108589047Y-299076666D01*
X108636666Y-299029047D01*
X108731904Y-298981428D01*
X109065238Y-298981428D01*
X107922380Y-298457619D02*
X108017619Y-298505238D01*
X108065238Y-298552857D01*
X108112857Y-298648095D01*
X108112857Y-298933809D01*
X108065238Y-299029047D01*
X108017619Y-299076666D01*
X107922380Y-299124285D01*
X107779523Y-299124285D01*
X107684285Y-299076666D01*
X107636666Y-299029047D01*
X107589047Y-298933809D01*
X107589047Y-298648095D01*
X107636666Y-298552857D01*
X107684285Y-298505238D01*
X107779523Y-298457619D01*
X107922380Y-298457619D01*
X106731904Y-298457619D02*
X106731904Y-298981428D01*
X106779523Y-299076666D01*
X106874761Y-299124285D01*
X107065238Y-299124285D01*
X107160476Y-299076666D01*
X106731904Y-298505238D02*
X106827142Y-298457619D01*
X107065238Y-298457619D01*
X107160476Y-298505238D01*
X107208095Y-298600476D01*
X107208095Y-298695714D01*
X107160476Y-298790952D01*
X107065238Y-298838571D01*
X106827142Y-298838571D01*
X106731904Y-298886190D01*
X106255714Y-298457619D02*
X106255714Y-299124285D01*
X106255714Y-298933809D02*
X106208095Y-299029047D01*
X106160476Y-299076666D01*
X106065238Y-299124285D01*
X105970000Y-299124285D01*
X105208095Y-298457619D02*
X105208095Y-299457619D01*
X105208095Y-298505238D02*
X105303333Y-298457619D01*
X105493809Y-298457619D01*
X105589047Y-298505238D01*
X105636666Y-298552857D01*
X105684285Y-298648095D01*
X105684285Y-298933809D01*
X105636666Y-299029047D01*
X105589047Y-299076666D01*
X105493809Y-299124285D01*
X105303333Y-299124285D01*
X105208095Y-299076666D01*
X103970000Y-298457619D02*
X103970000Y-299457619D01*
X103589047Y-299457619D01*
X103493809Y-299410000D01*
X103446190Y-299362380D01*
X103398571Y-299267142D01*
X103398571Y-299124285D01*
X103446190Y-299029047D01*
X103493809Y-298981428D01*
X103589047Y-298933809D01*
X103970000Y-298933809D01*
X102541428Y-298457619D02*
X102541428Y-298981428D01*
X102589047Y-299076666D01*
X102684285Y-299124285D01*
X102874761Y-299124285D01*
X102970000Y-299076666D01*
X102541428Y-298505238D02*
X102636666Y-298457619D01*
X102874761Y-298457619D01*
X102970000Y-298505238D01*
X103017619Y-298600476D01*
X103017619Y-298695714D01*
X102970000Y-298790952D01*
X102874761Y-298838571D01*
X102636666Y-298838571D01*
X102541428Y-298886190D01*
X102065238Y-299124285D02*
X102065238Y-298457619D01*
X102065238Y-299029047D02*
X102017619Y-299076666D01*
X101922380Y-299124285D01*
X101779523Y-299124285D01*
X101684285Y-299076666D01*
X101636666Y-298981428D01*
X101636666Y-298457619D01*
X100779523Y-298505238D02*
X100874761Y-298457619D01*
X101065238Y-298457619D01*
X101160476Y-298505238D01*
X101208095Y-298600476D01*
X101208095Y-298981428D01*
X101160476Y-299076666D01*
X101065238Y-299124285D01*
X100874761Y-299124285D01*
X100779523Y-299076666D01*
X100731904Y-298981428D01*
X100731904Y-298886190D01*
X101208095Y-298790952D01*
X100160476Y-298457619D02*
X100255714Y-298505238D01*
X100303333Y-298600476D01*
X100303333Y-299457619D01*
X99065238Y-298743333D02*
X98589047Y-298743333D01*
X99160476Y-298457619D02*
X98827142Y-299457619D01*
X98493809Y-298457619D01*
X97446190Y-298505238D02*
X97303333Y-298457619D01*
X97065238Y-298457619D01*
X96970000Y-298505238D01*
X96922380Y-298552857D01*
X96874761Y-298648095D01*
X96874761Y-298743333D01*
X96922380Y-298838571D01*
X96970000Y-298886190D01*
X97065238Y-298933809D01*
X97255714Y-298981428D01*
X97350952Y-299029047D01*
X97398571Y-299076666D01*
X97446190Y-299171904D01*
X97446190Y-299267142D01*
X97398571Y-299362380D01*
X97350952Y-299410000D01*
X97255714Y-299457619D01*
X97017619Y-299457619D01*
X96874761Y-299410000D01*
X96541428Y-299457619D02*
X95922380Y-299457619D01*
X96255714Y-299076666D01*
X96112857Y-299076666D01*
X96017619Y-299029047D01*
X95970000Y-298981428D01*
X95922380Y-298886190D01*
X95922380Y-298648095D01*
X95970000Y-298552857D01*
X96017619Y-298505238D01*
X96112857Y-298457619D01*
X96398571Y-298457619D01*
X96493809Y-298505238D01*
X96541428Y-298552857D01*
X94731904Y-298457619D02*
X94731904Y-299457619D01*
X93636666Y-299457619D02*
X93303333Y-298457619D01*
X92970000Y-299457619D01*
X92112857Y-298457619D02*
X92684285Y-298457619D01*
X92398571Y-298457619D02*
X92398571Y-299457619D01*
X92493809Y-299314761D01*
X92589047Y-299219523D01*
X92684285Y-299171904D01*
X90970000Y-298505238D02*
X90827142Y-298457619D01*
X90589047Y-298457619D01*
X90493809Y-298505238D01*
X90446190Y-298552857D01*
X90398571Y-298648095D01*
X90398571Y-298743333D01*
X90446190Y-298838571D01*
X90493809Y-298886190D01*
X90589047Y-298933809D01*
X90779523Y-298981428D01*
X90874761Y-299029047D01*
X90922380Y-299076666D01*
X90970000Y-299171904D01*
X90970000Y-299267142D01*
X90922380Y-299362380D01*
X90874761Y-299410000D01*
X90779523Y-299457619D01*
X90541428Y-299457619D01*
X90398571Y-299410000D01*
X89589047Y-298505238D02*
X89684285Y-298457619D01*
X89874761Y-298457619D01*
X89970000Y-298505238D01*
X90017619Y-298600476D01*
X90017619Y-298981428D01*
X89970000Y-299076666D01*
X89874761Y-299124285D01*
X89684285Y-299124285D01*
X89589047Y-299076666D01*
X89541428Y-298981428D01*
X89541428Y-298886190D01*
X90017619Y-298790952D01*
X89112857Y-298457619D02*
X89112857Y-299124285D01*
X89112857Y-298933809D02*
X89065238Y-299029047D01*
X89017619Y-299076666D01*
X88922380Y-299124285D01*
X88827142Y-299124285D01*
X88493809Y-298457619D02*
X88493809Y-299124285D01*
X88493809Y-299457619D02*
X88541428Y-299410000D01*
X88493809Y-299362380D01*
X88446190Y-299410000D01*
X88493809Y-299457619D01*
X88493809Y-299362380D01*
X87589047Y-298457619D02*
X87589047Y-298981428D01*
X87636666Y-299076666D01*
X87731904Y-299124285D01*
X87922380Y-299124285D01*
X88017619Y-299076666D01*
X87589047Y-298505238D02*
X87684285Y-298457619D01*
X87922380Y-298457619D01*
X88017619Y-298505238D01*
X88065238Y-298600476D01*
X88065238Y-298695714D01*
X88017619Y-298790952D01*
X87922380Y-298838571D01*
X87684285Y-298838571D01*
X87589047Y-298886190D01*
X86970000Y-298457619D02*
X87065238Y-298505238D01*
X87112857Y-298600476D01*
X87112857Y-299457619D01*
D10*
X35890000Y-339830000D02*
X118490000Y-339830000D01*
X116540000Y-343030000D02*
G75*
G03X116540000Y-343030000I-1250000J0D01*
G01*
X115290000Y-254630000D02*
X115290000Y-339830000D01*
X40340000Y-251430000D02*
G75*
G03X40340000Y-251430000I-1250000J0D01*
G01*
X40340000Y-343030000D02*
G75*
G03X40340000Y-343030000I-1250000J0D01*
G01*
X116540000Y-251430000D02*
G75*
G03X116540000Y-251430000I-1250000J0D01*
G01*
X118490000Y-254630000D02*
X35890000Y-254530000D01*
X118490000Y-339730000D02*
X35890000Y-339730000D01*
X115290000Y-339730000D02*
X115290000Y-254630000D01*
X39090000Y-254530000D02*
X39090000Y-339730000D01*
X71690000Y-264550000D02*
G75*
G02X70990000Y-265250000I-700000J0D01*
G01*
X70990000Y-263250000D02*
G75*
G02X71690000Y-263950000I0J-700000D01*
G01*
X67590000Y-263950000D02*
G75*
G02X68290000Y-263250000I700000J0D01*
G01*
X68290000Y-265250000D02*
G75*
G02X67590000Y-264550000I0J700000D01*
G01*
X71040000Y-265250000D02*
X68240000Y-265250000D01*
X67590000Y-264550000D02*
X67590000Y-263950000D01*
X68240000Y-263250000D02*
X71040000Y-263250000D01*
X71690000Y-263950000D02*
X71690000Y-264550000D01*
X70840000Y-263050000D02*
X71140000Y-262750000D01*
X71140000Y-262750000D02*
X70540000Y-262750000D01*
X70840000Y-263050000D02*
X70540000Y-262750000D01*
X91880000Y-264500000D02*
G75*
G02X91180000Y-265200000I-700000J0D01*
G01*
X91180000Y-263200000D02*
G75*
G02X91880000Y-263900000I0J-700000D01*
G01*
X87780000Y-263900000D02*
G75*
G02X88480000Y-263200000I700000J0D01*
G01*
X88480000Y-265200000D02*
G75*
G02X87780000Y-264500000I0J700000D01*
G01*
X91230000Y-265200000D02*
X88430000Y-265200000D01*
X87780000Y-264500000D02*
X87780000Y-263900000D01*
X88430000Y-263200000D02*
X91230000Y-263200000D01*
X91880000Y-263900000D02*
X91880000Y-264500000D01*
X91030000Y-263000000D02*
X91330000Y-262700000D01*
X91330000Y-262700000D02*
X90730000Y-262700000D01*
X91030000Y-263000000D02*
X90730000Y-262700000D01*
X101130000Y-263020000D02*
X100830000Y-262720000D01*
X101430000Y-262720000D02*
X100830000Y-262720000D01*
X101130000Y-263020000D02*
X101430000Y-262720000D01*
X101980000Y-263920000D02*
X101980000Y-264520000D01*
X98530000Y-263220000D02*
X101330000Y-263220000D01*
X97880000Y-264520000D02*
X97880000Y-263920000D01*
X101330000Y-265220000D02*
X98530000Y-265220000D01*
X98580000Y-265220000D02*
G75*
G02X97880000Y-264520000I0J700000D01*
G01*
X97880000Y-263920000D02*
G75*
G02X98580000Y-263220000I700000J0D01*
G01*
X101280000Y-263220000D02*
G75*
G02X101980000Y-263920000I0J-700000D01*
G01*
X101980000Y-264520000D02*
G75*
G02X101280000Y-265220000I-700000J0D01*
G01*
X41350000Y-260225000D02*
X41350000Y-263725000D01*
X41350000Y-263725000D02*
X50900000Y-263725000D01*
X50900000Y-263725000D02*
X50900000Y-260225000D01*
X50900000Y-260225000D02*
X41350000Y-260225000D01*
X46125000Y-263175000D02*
X41900000Y-263175000D01*
X41900000Y-263175000D02*
X41900000Y-262450000D01*
X41900000Y-262450000D02*
X41700000Y-262450000D01*
X41700000Y-262450000D02*
X41700000Y-261650000D01*
X41700000Y-261650000D02*
X41900000Y-261650000D01*
X41900000Y-261650000D02*
X41900000Y-260775000D01*
X41900000Y-260775000D02*
X46125000Y-260775000D01*
X46125000Y-263175000D02*
X50350000Y-263175000D01*
X50350000Y-263175000D02*
X50350000Y-262450000D01*
X50350000Y-262450000D02*
X50550000Y-262450000D01*
X50550000Y-262450000D02*
X50550000Y-261650000D01*
X50550000Y-261650000D02*
X50350000Y-261650000D01*
X50350000Y-261650000D02*
X50350000Y-260775000D01*
X50350000Y-260775000D02*
X46125000Y-260775000D01*
X41100000Y-263975000D02*
X41100000Y-262975000D01*
X41100000Y-263975000D02*
X42100000Y-263975000D01*
X81100000Y-262990000D02*
X80800000Y-262690000D01*
X81400000Y-262690000D02*
X80800000Y-262690000D01*
X81100000Y-262990000D02*
X81400000Y-262690000D01*
X81950000Y-263890000D02*
X81950000Y-264490000D01*
X78500000Y-263190000D02*
X81300000Y-263190000D01*
X77850000Y-264490000D02*
X77850000Y-263890000D01*
X81300000Y-265190000D02*
X78500000Y-265190000D01*
X78550000Y-265190000D02*
G75*
G02X77850000Y-264490000I0J700000D01*
G01*
X77850000Y-263890000D02*
G75*
G02X78550000Y-263190000I700000J0D01*
G01*
X81250000Y-263190000D02*
G75*
G02X81950000Y-263890000I0J-700000D01*
G01*
X81950000Y-264490000D02*
G75*
G02X81250000Y-265190000I-700000J0D01*
G01*
D12*
X68330476Y-265502380D02*
X68330476Y-266216666D01*
X68282857Y-266359523D01*
X68187619Y-266454761D01*
X68044761Y-266502380D01*
X67949523Y-266502380D01*
X68806666Y-266502380D02*
X68806666Y-265502380D01*
X69187619Y-265502380D01*
X69282857Y-265550000D01*
X69330476Y-265597619D01*
X69378095Y-265692857D01*
X69378095Y-265835714D01*
X69330476Y-265930952D01*
X69282857Y-265978571D01*
X69187619Y-266026190D01*
X68806666Y-266026190D01*
X69711428Y-265502380D02*
X70330476Y-265502380D01*
X69997142Y-265883333D01*
X70140000Y-265883333D01*
X70235238Y-265930952D01*
X70282857Y-265978571D01*
X70330476Y-266073809D01*
X70330476Y-266311904D01*
X70282857Y-266407142D01*
X70235238Y-266454761D01*
X70140000Y-266502380D01*
X69854285Y-266502380D01*
X69759047Y-266454761D01*
X69711428Y-266407142D01*
X70711428Y-265597619D02*
X70759047Y-265550000D01*
X70854285Y-265502380D01*
X71092380Y-265502380D01*
X71187619Y-265550000D01*
X71235238Y-265597619D01*
X71282857Y-265692857D01*
X71282857Y-265788095D01*
X71235238Y-265930952D01*
X70663809Y-266502380D01*
X71282857Y-266502380D01*
X88520476Y-265452380D02*
X88520476Y-266166666D01*
X88472857Y-266309523D01*
X88377619Y-266404761D01*
X88234761Y-266452380D01*
X88139523Y-266452380D01*
X88996666Y-266452380D02*
X88996666Y-265452380D01*
X89377619Y-265452380D01*
X89472857Y-265500000D01*
X89520476Y-265547619D01*
X89568095Y-265642857D01*
X89568095Y-265785714D01*
X89520476Y-265880952D01*
X89472857Y-265928571D01*
X89377619Y-265976190D01*
X88996666Y-265976190D01*
X89901428Y-265452380D02*
X90520476Y-265452380D01*
X90187142Y-265833333D01*
X90330000Y-265833333D01*
X90425238Y-265880952D01*
X90472857Y-265928571D01*
X90520476Y-266023809D01*
X90520476Y-266261904D01*
X90472857Y-266357142D01*
X90425238Y-266404761D01*
X90330000Y-266452380D01*
X90044285Y-266452380D01*
X89949047Y-266404761D01*
X89901428Y-266357142D01*
X91139523Y-265452380D02*
X91234761Y-265452380D01*
X91330000Y-265500000D01*
X91377619Y-265547619D01*
X91425238Y-265642857D01*
X91472857Y-265833333D01*
X91472857Y-266071428D01*
X91425238Y-266261904D01*
X91377619Y-266357142D01*
X91330000Y-266404761D01*
X91234761Y-266452380D01*
X91139523Y-266452380D01*
X91044285Y-266404761D01*
X90996666Y-266357142D01*
X90949047Y-266261904D01*
X90901428Y-266071428D01*
X90901428Y-265833333D01*
X90949047Y-265642857D01*
X90996666Y-265547619D01*
X91044285Y-265500000D01*
X91139523Y-265452380D01*
X98620476Y-265472380D02*
X98620476Y-266186666D01*
X98572857Y-266329523D01*
X98477619Y-266424761D01*
X98334761Y-266472380D01*
X98239523Y-266472380D01*
X99096666Y-266472380D02*
X99096666Y-265472380D01*
X99477619Y-265472380D01*
X99572857Y-265520000D01*
X99620476Y-265567619D01*
X99668095Y-265662857D01*
X99668095Y-265805714D01*
X99620476Y-265900952D01*
X99572857Y-265948571D01*
X99477619Y-265996190D01*
X99096666Y-265996190D01*
X100049047Y-265567619D02*
X100096666Y-265520000D01*
X100191904Y-265472380D01*
X100430000Y-265472380D01*
X100525238Y-265520000D01*
X100572857Y-265567619D01*
X100620476Y-265662857D01*
X100620476Y-265758095D01*
X100572857Y-265900952D01*
X100001428Y-266472380D01*
X100620476Y-266472380D01*
X101096666Y-266472380D02*
X101287142Y-266472380D01*
X101382380Y-266424761D01*
X101430000Y-266377142D01*
X101525238Y-266234285D01*
X101572857Y-266043809D01*
X101572857Y-265662857D01*
X101525238Y-265567619D01*
X101477619Y-265520000D01*
X101382380Y-265472380D01*
X101191904Y-265472380D01*
X101096666Y-265520000D01*
X101049047Y-265567619D01*
X101001428Y-265662857D01*
X101001428Y-265900952D01*
X101049047Y-265996190D01*
X101096666Y-266043809D01*
X101191904Y-266091428D01*
X101382380Y-266091428D01*
X101477619Y-266043809D01*
X101525238Y-265996190D01*
X101572857Y-265900952D01*
X45315476Y-264402380D02*
X45315476Y-265116666D01*
X45267857Y-265259523D01*
X45172619Y-265354761D01*
X45029761Y-265402380D01*
X44934523Y-265402380D01*
X46315476Y-265402380D02*
X45744047Y-265402380D01*
X46029761Y-265402380D02*
X46029761Y-264402380D01*
X45934523Y-264545238D01*
X45839285Y-264640476D01*
X45744047Y-264688095D01*
X47172619Y-264402380D02*
X46982142Y-264402380D01*
X46886904Y-264450000D01*
X46839285Y-264497619D01*
X46744047Y-264640476D01*
X46696428Y-264830952D01*
X46696428Y-265211904D01*
X46744047Y-265307142D01*
X46791666Y-265354761D01*
X46886904Y-265402380D01*
X47077380Y-265402380D01*
X47172619Y-265354761D01*
X47220238Y-265307142D01*
X47267857Y-265211904D01*
X47267857Y-264973809D01*
X47220238Y-264878571D01*
X47172619Y-264830952D01*
X47077380Y-264783333D01*
X46886904Y-264783333D01*
X46791666Y-264830952D01*
X46744047Y-264878571D01*
X46696428Y-264973809D01*
X78590476Y-265442380D02*
X78590476Y-266156666D01*
X78542857Y-266299523D01*
X78447619Y-266394761D01*
X78304761Y-266442380D01*
X78209523Y-266442380D01*
X79066666Y-266442380D02*
X79066666Y-265442380D01*
X79447619Y-265442380D01*
X79542857Y-265490000D01*
X79590476Y-265537619D01*
X79638095Y-265632857D01*
X79638095Y-265775714D01*
X79590476Y-265870952D01*
X79542857Y-265918571D01*
X79447619Y-265966190D01*
X79066666Y-265966190D01*
X79971428Y-265442380D02*
X80590476Y-265442380D01*
X80257142Y-265823333D01*
X80400000Y-265823333D01*
X80495238Y-265870952D01*
X80542857Y-265918571D01*
X80590476Y-266013809D01*
X80590476Y-266251904D01*
X80542857Y-266347142D01*
X80495238Y-266394761D01*
X80400000Y-266442380D01*
X80114285Y-266442380D01*
X80019047Y-266394761D01*
X79971428Y-266347142D01*
X81542857Y-266442380D02*
X80971428Y-266442380D01*
X81257142Y-266442380D02*
X81257142Y-265442380D01*
X81161904Y-265585238D01*
X81066666Y-265680476D01*
X80971428Y-265728095D01*
X113956666Y-248632380D02*
X113623333Y-248156190D01*
X113385238Y-248632380D02*
X113385238Y-247632380D01*
X113766190Y-247632380D01*
X113861428Y-247680000D01*
X113909047Y-247727619D01*
X113956666Y-247822857D01*
X113956666Y-247965714D01*
X113909047Y-248060952D01*
X113861428Y-248108571D01*
X113766190Y-248156190D01*
X113385238Y-248156190D01*
X114385238Y-248108571D02*
X114718571Y-248108571D01*
X114861428Y-248632380D02*
X114385238Y-248632380D01*
X114385238Y-247632380D01*
X114861428Y-247632380D01*
X115623333Y-248108571D02*
X115290000Y-248108571D01*
X115290000Y-248632380D02*
X115290000Y-247632380D01*
X115766190Y-247632380D01*
X116290000Y-247632380D02*
X116290000Y-247870476D01*
X116051904Y-247775238D02*
X116290000Y-247870476D01*
X116528095Y-247775238D01*
X116147142Y-248060952D02*
X116290000Y-247870476D01*
X116432857Y-248060952D01*
X117051904Y-247632380D02*
X117051904Y-247870476D01*
X116813809Y-247775238D02*
X117051904Y-247870476D01*
X117290000Y-247775238D01*
X116909047Y-248060952D02*
X117051904Y-247870476D01*
X117194761Y-248060952D01*
X113966666Y-340232380D02*
X113633333Y-339756190D01*
X113395238Y-340232380D02*
X113395238Y-339232380D01*
X113776190Y-339232380D01*
X113871428Y-339280000D01*
X113919047Y-339327619D01*
X113966666Y-339422857D01*
X113966666Y-339565714D01*
X113919047Y-339660952D01*
X113871428Y-339708571D01*
X113776190Y-339756190D01*
X113395238Y-339756190D01*
X114395238Y-339708571D02*
X114728571Y-339708571D01*
X114871428Y-340232380D02*
X114395238Y-340232380D01*
X114395238Y-339232380D01*
X114871428Y-339232380D01*
X115633333Y-339708571D02*
X115300000Y-339708571D01*
X115300000Y-340232380D02*
X115300000Y-339232380D01*
X115776190Y-339232380D01*
X116300000Y-339232380D02*
X116300000Y-339470476D01*
X116061904Y-339375238D02*
X116300000Y-339470476D01*
X116538095Y-339375238D01*
X116157142Y-339660952D02*
X116300000Y-339470476D01*
X116442857Y-339660952D01*
X117061904Y-339232380D02*
X117061904Y-339470476D01*
X116823809Y-339375238D02*
X117061904Y-339470476D01*
X117300000Y-339375238D01*
X116919047Y-339660952D02*
X117061904Y-339470476D01*
X117204761Y-339660952D01*
X37756666Y-248632380D02*
X37423333Y-248156190D01*
X37185238Y-248632380D02*
X37185238Y-247632380D01*
X37566190Y-247632380D01*
X37661428Y-247680000D01*
X37709047Y-247727619D01*
X37756666Y-247822857D01*
X37756666Y-247965714D01*
X37709047Y-248060952D01*
X37661428Y-248108571D01*
X37566190Y-248156190D01*
X37185238Y-248156190D01*
X38185238Y-248108571D02*
X38518571Y-248108571D01*
X38661428Y-248632380D02*
X38185238Y-248632380D01*
X38185238Y-247632380D01*
X38661428Y-247632380D01*
X39423333Y-248108571D02*
X39090000Y-248108571D01*
X39090000Y-248632380D02*
X39090000Y-247632380D01*
X39566190Y-247632380D01*
X40090000Y-247632380D02*
X40090000Y-247870476D01*
X39851904Y-247775238D02*
X40090000Y-247870476D01*
X40328095Y-247775238D01*
X39947142Y-248060952D02*
X40090000Y-247870476D01*
X40232857Y-248060952D01*
X40851904Y-247632380D02*
X40851904Y-247870476D01*
X40613809Y-247775238D02*
X40851904Y-247870476D01*
X41090000Y-247775238D01*
X40709047Y-248060952D02*
X40851904Y-247870476D01*
X40994761Y-248060952D01*
X37756666Y-340242380D02*
X37423333Y-339766190D01*
X37185238Y-340242380D02*
X37185238Y-339242380D01*
X37566190Y-339242380D01*
X37661428Y-339290000D01*
X37709047Y-339337619D01*
X37756666Y-339432857D01*
X37756666Y-339575714D01*
X37709047Y-339670952D01*
X37661428Y-339718571D01*
X37566190Y-339766190D01*
X37185238Y-339766190D01*
X38185238Y-339718571D02*
X38518571Y-339718571D01*
X38661428Y-340242380D02*
X38185238Y-340242380D01*
X38185238Y-339242380D01*
X38661428Y-339242380D01*
X39423333Y-339718571D02*
X39090000Y-339718571D01*
X39090000Y-340242380D02*
X39090000Y-339242380D01*
X39566190Y-339242380D01*
X40090000Y-339242380D02*
X40090000Y-339480476D01*
X39851904Y-339385238D02*
X40090000Y-339480476D01*
X40328095Y-339385238D01*
X39947142Y-339670952D02*
X40090000Y-339480476D01*
X40232857Y-339670952D01*
X40851904Y-339242380D02*
X40851904Y-339480476D01*
X40613809Y-339385238D02*
X40851904Y-339480476D01*
X41090000Y-339385238D01*
X40709047Y-339670952D02*
X40851904Y-339480476D01*
X40994761Y-339670952D01*
M02*
