M48
; DRILL file {KiCad (5.1.2)-2} date 28/08/2021 01:13:08
; FORMAT={-:-/ absolute / metric / decimal}
; #@! TF.CreationDate,2021-08-28T01:13:08-04:00
; #@! TF.GenerationSoftware,Kicad,Pcbnew,(5.1.2)-2
FMAT,2
METRIC
T1C0.400
T2C0.500
T3C0.650
T4C1.000
T5C2.700
%
G90
G05
T1
X51.352Y-278.445
X51.82Y-279.57
X53.342Y-282.118
T2
X43.0Y-262.45
X44.25Y-262.45
X45.5Y-262.45
X46.75Y-262.45
X48.0Y-262.45
X49.25Y-262.45
T3
X43.83Y-280.21
X43.83Y-281.48
X45.1Y-280.21
X45.1Y-281.48
X46.37Y-280.21
X46.37Y-281.48
X47.64Y-280.21
X47.64Y-281.48
X48.91Y-280.21
X48.91Y-281.48
T4
X87.29Y-259.97
X89.83Y-259.97
X92.37Y-259.97
X77.21Y-259.97
X79.75Y-259.97
X82.29Y-259.97
X109.95Y-267.44
X109.95Y-269.98
X109.95Y-272.52
X109.95Y-275.06
X109.95Y-277.6
X109.95Y-280.14
X97.38Y-259.97
X99.92Y-259.97
X102.46Y-259.97
X67.13Y-259.97
X69.67Y-259.97
X72.21Y-259.97
X59.61Y-267.45
X59.61Y-269.99
X59.61Y-272.53
X59.61Y-275.07
X59.61Y-277.61
X59.61Y-280.15
X69.12Y-297.5
X71.66Y-297.5
X74.2Y-297.5
X76.74Y-297.5
X79.28Y-297.5
X81.82Y-297.5
T5
X115.29Y-251.43
X115.3Y-343.03
X39.09Y-251.43
X39.09Y-343.04
T0
M30
