G04 #@! TF.GenerationSoftware,KiCad,Pcbnew,(5.1.2)-2*
G04 #@! TF.CreationDate,2021-08-28T01:13:10-04:00*
G04 #@! TF.ProjectId,MAG_Plus,4d41475f-506c-4757-932e-6b696361645f,rev?*
G04 #@! TF.SameCoordinates,Original*
G04 #@! TF.FileFunction,Soldermask,Bot*
G04 #@! TF.FilePolarity,Negative*
%FSLAX46Y46*%
G04 Gerber Fmt 4.6, Leading zero omitted, Abs format (unit mm)*
G04 Created by KiCad (PCBNEW (5.1.2)-2) date 2021-08-28 01:13:10*
%MOMM*%
%LPD*%
G04 APERTURE LIST*
%ADD10C,0.100000*%
G04 APERTURE END LIST*
D10*
G36*
X39538903Y-340783213D02*
G01*
X39761177Y-340827426D01*
X40179932Y-341000880D01*
X40556802Y-341252696D01*
X40877304Y-341573198D01*
X41129120Y-341950068D01*
X41302574Y-342368823D01*
X41391000Y-342813371D01*
X41391000Y-343266629D01*
X41302574Y-343711177D01*
X41129120Y-344129932D01*
X40877304Y-344506802D01*
X40556802Y-344827304D01*
X40179932Y-345079120D01*
X39761177Y-345252574D01*
X39538903Y-345296787D01*
X39316630Y-345341000D01*
X38863370Y-345341000D01*
X38641097Y-345296787D01*
X38418823Y-345252574D01*
X38000068Y-345079120D01*
X37623198Y-344827304D01*
X37302696Y-344506802D01*
X37050880Y-344129932D01*
X36877426Y-343711177D01*
X36789000Y-343266629D01*
X36789000Y-342813371D01*
X36877426Y-342368823D01*
X37050880Y-341950068D01*
X37302696Y-341573198D01*
X37623198Y-341252696D01*
X38000068Y-341000880D01*
X38418823Y-340827426D01*
X38641097Y-340783213D01*
X38863370Y-340739000D01*
X39316630Y-340739000D01*
X39538903Y-340783213D01*
X39538903Y-340783213D01*
G37*
G36*
X115748903Y-340773213D02*
G01*
X115971177Y-340817426D01*
X116389932Y-340990880D01*
X116766802Y-341242696D01*
X117087304Y-341563198D01*
X117339120Y-341940068D01*
X117512574Y-342358823D01*
X117601000Y-342803371D01*
X117601000Y-343256629D01*
X117512574Y-343701177D01*
X117339120Y-344119932D01*
X117087304Y-344496802D01*
X116766802Y-344817304D01*
X116389932Y-345069120D01*
X115971177Y-345242574D01*
X115748903Y-345286787D01*
X115526630Y-345331000D01*
X115073370Y-345331000D01*
X114851097Y-345286787D01*
X114628823Y-345242574D01*
X114210068Y-345069120D01*
X113833198Y-344817304D01*
X113512696Y-344496802D01*
X113260880Y-344119932D01*
X113087426Y-343701177D01*
X112999000Y-343256629D01*
X112999000Y-342803371D01*
X113087426Y-342358823D01*
X113260880Y-341940068D01*
X113512696Y-341563198D01*
X113833198Y-341242696D01*
X114210068Y-340990880D01*
X114628823Y-340817426D01*
X114851097Y-340773213D01*
X115073370Y-340729000D01*
X115526630Y-340729000D01*
X115748903Y-340773213D01*
X115748903Y-340773213D01*
G37*
G36*
X81930443Y-296605519D02*
G01*
X81996627Y-296612037D01*
X82166466Y-296663557D01*
X82322991Y-296747222D01*
X82358729Y-296776552D01*
X82460186Y-296859814D01*
X82543448Y-296961271D01*
X82572778Y-296997009D01*
X82656443Y-297153534D01*
X82707963Y-297323373D01*
X82725359Y-297500000D01*
X82707963Y-297676627D01*
X82656443Y-297846466D01*
X82572778Y-298002991D01*
X82543448Y-298038729D01*
X82460186Y-298140186D01*
X82358729Y-298223448D01*
X82322991Y-298252778D01*
X82166466Y-298336443D01*
X81996627Y-298387963D01*
X81930443Y-298394481D01*
X81864260Y-298401000D01*
X81775740Y-298401000D01*
X81709557Y-298394481D01*
X81643373Y-298387963D01*
X81473534Y-298336443D01*
X81317009Y-298252778D01*
X81281271Y-298223448D01*
X81179814Y-298140186D01*
X81096552Y-298038729D01*
X81067222Y-298002991D01*
X80983557Y-297846466D01*
X80932037Y-297676627D01*
X80914641Y-297500000D01*
X80932037Y-297323373D01*
X80983557Y-297153534D01*
X81067222Y-296997009D01*
X81096552Y-296961271D01*
X81179814Y-296859814D01*
X81281271Y-296776552D01*
X81317009Y-296747222D01*
X81473534Y-296663557D01*
X81643373Y-296612037D01*
X81709557Y-296605519D01*
X81775740Y-296599000D01*
X81864260Y-296599000D01*
X81930443Y-296605519D01*
X81930443Y-296605519D01*
G37*
G36*
X79390443Y-296605519D02*
G01*
X79456627Y-296612037D01*
X79626466Y-296663557D01*
X79782991Y-296747222D01*
X79818729Y-296776552D01*
X79920186Y-296859814D01*
X80003448Y-296961271D01*
X80032778Y-296997009D01*
X80116443Y-297153534D01*
X80167963Y-297323373D01*
X80185359Y-297500000D01*
X80167963Y-297676627D01*
X80116443Y-297846466D01*
X80032778Y-298002991D01*
X80003448Y-298038729D01*
X79920186Y-298140186D01*
X79818729Y-298223448D01*
X79782991Y-298252778D01*
X79626466Y-298336443D01*
X79456627Y-298387963D01*
X79390443Y-298394481D01*
X79324260Y-298401000D01*
X79235740Y-298401000D01*
X79169557Y-298394481D01*
X79103373Y-298387963D01*
X78933534Y-298336443D01*
X78777009Y-298252778D01*
X78741271Y-298223448D01*
X78639814Y-298140186D01*
X78556552Y-298038729D01*
X78527222Y-298002991D01*
X78443557Y-297846466D01*
X78392037Y-297676627D01*
X78374641Y-297500000D01*
X78392037Y-297323373D01*
X78443557Y-297153534D01*
X78527222Y-296997009D01*
X78556552Y-296961271D01*
X78639814Y-296859814D01*
X78741271Y-296776552D01*
X78777009Y-296747222D01*
X78933534Y-296663557D01*
X79103373Y-296612037D01*
X79169557Y-296605519D01*
X79235740Y-296599000D01*
X79324260Y-296599000D01*
X79390443Y-296605519D01*
X79390443Y-296605519D01*
G37*
G36*
X76850443Y-296605519D02*
G01*
X76916627Y-296612037D01*
X77086466Y-296663557D01*
X77242991Y-296747222D01*
X77278729Y-296776552D01*
X77380186Y-296859814D01*
X77463448Y-296961271D01*
X77492778Y-296997009D01*
X77576443Y-297153534D01*
X77627963Y-297323373D01*
X77645359Y-297500000D01*
X77627963Y-297676627D01*
X77576443Y-297846466D01*
X77492778Y-298002991D01*
X77463448Y-298038729D01*
X77380186Y-298140186D01*
X77278729Y-298223448D01*
X77242991Y-298252778D01*
X77086466Y-298336443D01*
X76916627Y-298387963D01*
X76850443Y-298394481D01*
X76784260Y-298401000D01*
X76695740Y-298401000D01*
X76629557Y-298394481D01*
X76563373Y-298387963D01*
X76393534Y-298336443D01*
X76237009Y-298252778D01*
X76201271Y-298223448D01*
X76099814Y-298140186D01*
X76016552Y-298038729D01*
X75987222Y-298002991D01*
X75903557Y-297846466D01*
X75852037Y-297676627D01*
X75834641Y-297500000D01*
X75852037Y-297323373D01*
X75903557Y-297153534D01*
X75987222Y-296997009D01*
X76016552Y-296961271D01*
X76099814Y-296859814D01*
X76201271Y-296776552D01*
X76237009Y-296747222D01*
X76393534Y-296663557D01*
X76563373Y-296612037D01*
X76629557Y-296605519D01*
X76695740Y-296599000D01*
X76784260Y-296599000D01*
X76850443Y-296605519D01*
X76850443Y-296605519D01*
G37*
G36*
X71770443Y-296605519D02*
G01*
X71836627Y-296612037D01*
X72006466Y-296663557D01*
X72162991Y-296747222D01*
X72198729Y-296776552D01*
X72300186Y-296859814D01*
X72383448Y-296961271D01*
X72412778Y-296997009D01*
X72496443Y-297153534D01*
X72547963Y-297323373D01*
X72565359Y-297500000D01*
X72547963Y-297676627D01*
X72496443Y-297846466D01*
X72412778Y-298002991D01*
X72383448Y-298038729D01*
X72300186Y-298140186D01*
X72198729Y-298223448D01*
X72162991Y-298252778D01*
X72006466Y-298336443D01*
X71836627Y-298387963D01*
X71770443Y-298394481D01*
X71704260Y-298401000D01*
X71615740Y-298401000D01*
X71549557Y-298394481D01*
X71483373Y-298387963D01*
X71313534Y-298336443D01*
X71157009Y-298252778D01*
X71121271Y-298223448D01*
X71019814Y-298140186D01*
X70936552Y-298038729D01*
X70907222Y-298002991D01*
X70823557Y-297846466D01*
X70772037Y-297676627D01*
X70754641Y-297500000D01*
X70772037Y-297323373D01*
X70823557Y-297153534D01*
X70907222Y-296997009D01*
X70936552Y-296961271D01*
X71019814Y-296859814D01*
X71121271Y-296776552D01*
X71157009Y-296747222D01*
X71313534Y-296663557D01*
X71483373Y-296612037D01*
X71549557Y-296605519D01*
X71615740Y-296599000D01*
X71704260Y-296599000D01*
X71770443Y-296605519D01*
X71770443Y-296605519D01*
G37*
G36*
X70021000Y-298401000D02*
G01*
X68219000Y-298401000D01*
X68219000Y-296599000D01*
X70021000Y-296599000D01*
X70021000Y-298401000D01*
X70021000Y-298401000D01*
G37*
G36*
X74310443Y-296605519D02*
G01*
X74376627Y-296612037D01*
X74546466Y-296663557D01*
X74702991Y-296747222D01*
X74738729Y-296776552D01*
X74840186Y-296859814D01*
X74923448Y-296961271D01*
X74952778Y-296997009D01*
X75036443Y-297153534D01*
X75087963Y-297323373D01*
X75105359Y-297500000D01*
X75087963Y-297676627D01*
X75036443Y-297846466D01*
X74952778Y-298002991D01*
X74923448Y-298038729D01*
X74840186Y-298140186D01*
X74738729Y-298223448D01*
X74702991Y-298252778D01*
X74546466Y-298336443D01*
X74376627Y-298387963D01*
X74310443Y-298394481D01*
X74244260Y-298401000D01*
X74155740Y-298401000D01*
X74089557Y-298394481D01*
X74023373Y-298387963D01*
X73853534Y-298336443D01*
X73697009Y-298252778D01*
X73661271Y-298223448D01*
X73559814Y-298140186D01*
X73476552Y-298038729D01*
X73447222Y-298002991D01*
X73363557Y-297846466D01*
X73312037Y-297676627D01*
X73294641Y-297500000D01*
X73312037Y-297323373D01*
X73363557Y-297153534D01*
X73447222Y-296997009D01*
X73476552Y-296961271D01*
X73559814Y-296859814D01*
X73661271Y-296776552D01*
X73697009Y-296747222D01*
X73853534Y-296663557D01*
X74023373Y-296612037D01*
X74089557Y-296605519D01*
X74155740Y-296599000D01*
X74244260Y-296599000D01*
X74310443Y-296605519D01*
X74310443Y-296605519D01*
G37*
G36*
X44381000Y-279887265D02*
G01*
X44383402Y-279911651D01*
X44390515Y-279935100D01*
X44402066Y-279956711D01*
X44417611Y-279975653D01*
X44436553Y-279991198D01*
X44458164Y-280002749D01*
X44481613Y-280009862D01*
X44505999Y-280012264D01*
X44530385Y-280009862D01*
X44553834Y-280002749D01*
X44575445Y-279991198D01*
X44594387Y-279975653D01*
X44609932Y-279956711D01*
X44616233Y-279946198D01*
X44639644Y-279902400D01*
X44708499Y-279818499D01*
X44726734Y-279803534D01*
X44792400Y-279749643D01*
X44860945Y-279713005D01*
X44888121Y-279698479D01*
X44991985Y-279666973D01*
X45072933Y-279659000D01*
X45127067Y-279659000D01*
X45208015Y-279666973D01*
X45311879Y-279698479D01*
X45339055Y-279713005D01*
X45407600Y-279749643D01*
X45491501Y-279818499D01*
X45560357Y-279902400D01*
X45596995Y-279970945D01*
X45611521Y-279998121D01*
X45615388Y-280010869D01*
X45624760Y-280033496D01*
X45638374Y-280053870D01*
X45655701Y-280071197D01*
X45676075Y-280084811D01*
X45698714Y-280094188D01*
X45722747Y-280098969D01*
X45747251Y-280098969D01*
X45771285Y-280094189D01*
X45793924Y-280084812D01*
X45814298Y-280071198D01*
X45831625Y-280053871D01*
X45845239Y-280033497D01*
X45854612Y-280010869D01*
X45858479Y-279998121D01*
X45873005Y-279970945D01*
X45909643Y-279902400D01*
X45978499Y-279818499D01*
X46062400Y-279749643D01*
X46130945Y-279713005D01*
X46158121Y-279698479D01*
X46261985Y-279666973D01*
X46342933Y-279659000D01*
X46397067Y-279659000D01*
X46478015Y-279666973D01*
X46581879Y-279698479D01*
X46609055Y-279713005D01*
X46677600Y-279749643D01*
X46761501Y-279818499D01*
X46830357Y-279902400D01*
X46866995Y-279970945D01*
X46881521Y-279998121D01*
X46885388Y-280010869D01*
X46894760Y-280033496D01*
X46908374Y-280053870D01*
X46925701Y-280071197D01*
X46946075Y-280084811D01*
X46968714Y-280094188D01*
X46992747Y-280098969D01*
X47017251Y-280098969D01*
X47041285Y-280094189D01*
X47063924Y-280084812D01*
X47084298Y-280071198D01*
X47101625Y-280053871D01*
X47115239Y-280033497D01*
X47124612Y-280010869D01*
X47128479Y-279998121D01*
X47143005Y-279970945D01*
X47179643Y-279902400D01*
X47248499Y-279818499D01*
X47332400Y-279749643D01*
X47400945Y-279713005D01*
X47428121Y-279698479D01*
X47531985Y-279666973D01*
X47612933Y-279659000D01*
X47667067Y-279659000D01*
X47748015Y-279666973D01*
X47851879Y-279698479D01*
X47879055Y-279713005D01*
X47947600Y-279749643D01*
X48031501Y-279818499D01*
X48100357Y-279902400D01*
X48136995Y-279970945D01*
X48151521Y-279998121D01*
X48155388Y-280010869D01*
X48164760Y-280033496D01*
X48178374Y-280053870D01*
X48195701Y-280071197D01*
X48216075Y-280084811D01*
X48238714Y-280094188D01*
X48262747Y-280098969D01*
X48287251Y-280098969D01*
X48311285Y-280094189D01*
X48333924Y-280084812D01*
X48354298Y-280071198D01*
X48371625Y-280053871D01*
X48385239Y-280033497D01*
X48394612Y-280010869D01*
X48398479Y-279998121D01*
X48413005Y-279970945D01*
X48449643Y-279902400D01*
X48518499Y-279818499D01*
X48602400Y-279749643D01*
X48670945Y-279713005D01*
X48698121Y-279698479D01*
X48801985Y-279666973D01*
X48882933Y-279659000D01*
X48937067Y-279659000D01*
X49018015Y-279666973D01*
X49121879Y-279698479D01*
X49149055Y-279713005D01*
X49217600Y-279749643D01*
X49301501Y-279818499D01*
X49370357Y-279902400D01*
X49406995Y-279970945D01*
X49421521Y-279998121D01*
X49453027Y-280101985D01*
X49463666Y-280210000D01*
X49453027Y-280318015D01*
X49421521Y-280421879D01*
X49421191Y-280422496D01*
X49370357Y-280517600D01*
X49301501Y-280601501D01*
X49217600Y-280670357D01*
X49149055Y-280706995D01*
X49121879Y-280721521D01*
X49109131Y-280725388D01*
X49086504Y-280734760D01*
X49066130Y-280748374D01*
X49048803Y-280765701D01*
X49035189Y-280786075D01*
X49025812Y-280808714D01*
X49021031Y-280832747D01*
X49021031Y-280857251D01*
X49025811Y-280881285D01*
X49035188Y-280903924D01*
X49048802Y-280924298D01*
X49066129Y-280941625D01*
X49086503Y-280955239D01*
X49109131Y-280964612D01*
X49121879Y-280968479D01*
X49148344Y-280982625D01*
X49217600Y-281019643D01*
X49301501Y-281088499D01*
X49370357Y-281172400D01*
X49406995Y-281240945D01*
X49421521Y-281268121D01*
X49453027Y-281371985D01*
X49463666Y-281480000D01*
X49453027Y-281588015D01*
X49421521Y-281691879D01*
X49421519Y-281691882D01*
X49370357Y-281787600D01*
X49301501Y-281871501D01*
X49217600Y-281940357D01*
X49149055Y-281976995D01*
X49121879Y-281991521D01*
X49018015Y-282023027D01*
X48937067Y-282031000D01*
X48882933Y-282031000D01*
X48801985Y-282023027D01*
X48698121Y-281991521D01*
X48670945Y-281976995D01*
X48602400Y-281940357D01*
X48518499Y-281871501D01*
X48449643Y-281787600D01*
X48398481Y-281691882D01*
X48398479Y-281691879D01*
X48394612Y-281679131D01*
X48385240Y-281656504D01*
X48371626Y-281636130D01*
X48354299Y-281618803D01*
X48333925Y-281605189D01*
X48311286Y-281595812D01*
X48287253Y-281591031D01*
X48262749Y-281591031D01*
X48238715Y-281595811D01*
X48216076Y-281605188D01*
X48195702Y-281618802D01*
X48178375Y-281636129D01*
X48164761Y-281656503D01*
X48155388Y-281679131D01*
X48151521Y-281691879D01*
X48151519Y-281691882D01*
X48100357Y-281787600D01*
X48031501Y-281871501D01*
X47947600Y-281940357D01*
X47879055Y-281976995D01*
X47851879Y-281991521D01*
X47748015Y-282023027D01*
X47667067Y-282031000D01*
X47612933Y-282031000D01*
X47531985Y-282023027D01*
X47428121Y-281991521D01*
X47400945Y-281976995D01*
X47332400Y-281940357D01*
X47248499Y-281871501D01*
X47179643Y-281787600D01*
X47128481Y-281691882D01*
X47128479Y-281691879D01*
X47124612Y-281679131D01*
X47115240Y-281656504D01*
X47101626Y-281636130D01*
X47084299Y-281618803D01*
X47063925Y-281605189D01*
X47041286Y-281595812D01*
X47017253Y-281591031D01*
X46992749Y-281591031D01*
X46968715Y-281595811D01*
X46946076Y-281605188D01*
X46925702Y-281618802D01*
X46908375Y-281636129D01*
X46894761Y-281656503D01*
X46885388Y-281679131D01*
X46881521Y-281691879D01*
X46881519Y-281691882D01*
X46830357Y-281787600D01*
X46761501Y-281871501D01*
X46677600Y-281940357D01*
X46609055Y-281976995D01*
X46581879Y-281991521D01*
X46478015Y-282023027D01*
X46397067Y-282031000D01*
X46342933Y-282031000D01*
X46261985Y-282023027D01*
X46158121Y-281991521D01*
X46130945Y-281976995D01*
X46062400Y-281940357D01*
X45978499Y-281871501D01*
X45909643Y-281787600D01*
X45858481Y-281691882D01*
X45858479Y-281691879D01*
X45854612Y-281679131D01*
X45845240Y-281656504D01*
X45831626Y-281636130D01*
X45814299Y-281618803D01*
X45793925Y-281605189D01*
X45771286Y-281595812D01*
X45747253Y-281591031D01*
X45722749Y-281591031D01*
X45698715Y-281595811D01*
X45676076Y-281605188D01*
X45655702Y-281618802D01*
X45638375Y-281636129D01*
X45624761Y-281656503D01*
X45615388Y-281679131D01*
X45611521Y-281691879D01*
X45611519Y-281691882D01*
X45560357Y-281787600D01*
X45491501Y-281871501D01*
X45407600Y-281940357D01*
X45339055Y-281976995D01*
X45311879Y-281991521D01*
X45208015Y-282023027D01*
X45127067Y-282031000D01*
X45072933Y-282031000D01*
X44991985Y-282023027D01*
X44888121Y-281991521D01*
X44860945Y-281976995D01*
X44792400Y-281940357D01*
X44708499Y-281871501D01*
X44639643Y-281787600D01*
X44588481Y-281691882D01*
X44588479Y-281691879D01*
X44584612Y-281679131D01*
X44575240Y-281656504D01*
X44561626Y-281636130D01*
X44544299Y-281618803D01*
X44523925Y-281605189D01*
X44501286Y-281595812D01*
X44477253Y-281591031D01*
X44452749Y-281591031D01*
X44428715Y-281595811D01*
X44406076Y-281605188D01*
X44385702Y-281618802D01*
X44368375Y-281636129D01*
X44354761Y-281656503D01*
X44345388Y-281679131D01*
X44341521Y-281691879D01*
X44341519Y-281691882D01*
X44290357Y-281787600D01*
X44221501Y-281871501D01*
X44137600Y-281940357D01*
X44069055Y-281976995D01*
X44041879Y-281991521D01*
X43938015Y-282023027D01*
X43857067Y-282031000D01*
X43802933Y-282031000D01*
X43721985Y-282023027D01*
X43618121Y-281991521D01*
X43590945Y-281976995D01*
X43522400Y-281940357D01*
X43438499Y-281871501D01*
X43369643Y-281787600D01*
X43318481Y-281691882D01*
X43318479Y-281691879D01*
X43286973Y-281588015D01*
X43276334Y-281480000D01*
X43286973Y-281371985D01*
X43318479Y-281268121D01*
X43333005Y-281240945D01*
X43369643Y-281172400D01*
X43438499Y-281088499D01*
X43522399Y-281019645D01*
X43522398Y-281019645D01*
X43522400Y-281019644D01*
X43566193Y-280996236D01*
X43586563Y-280982625D01*
X43603890Y-280965298D01*
X43617504Y-280944924D01*
X43626881Y-280922285D01*
X43631662Y-280898252D01*
X43631662Y-280885999D01*
X44027736Y-280885999D01*
X44030138Y-280910385D01*
X44037251Y-280933834D01*
X44048802Y-280955445D01*
X44064347Y-280974387D01*
X44083289Y-280989932D01*
X44093802Y-280996233D01*
X44137600Y-281019644D01*
X44137602Y-281019645D01*
X44137601Y-281019645D01*
X44221501Y-281088499D01*
X44290357Y-281172400D01*
X44326995Y-281240945D01*
X44341521Y-281268121D01*
X44345388Y-281280869D01*
X44354760Y-281303496D01*
X44368374Y-281323870D01*
X44385701Y-281341197D01*
X44406075Y-281354811D01*
X44428714Y-281364188D01*
X44452747Y-281368969D01*
X44477251Y-281368969D01*
X44501285Y-281364189D01*
X44523924Y-281354812D01*
X44544298Y-281341198D01*
X44561625Y-281323871D01*
X44575239Y-281303497D01*
X44584612Y-281280869D01*
X44588479Y-281268121D01*
X44603005Y-281240945D01*
X44639643Y-281172400D01*
X44708499Y-281088499D01*
X44792400Y-281019643D01*
X44861656Y-280982625D01*
X44888121Y-280968479D01*
X44900869Y-280964612D01*
X44923496Y-280955240D01*
X44943870Y-280941626D01*
X44961197Y-280924299D01*
X44974811Y-280903925D01*
X44984188Y-280881286D01*
X44988969Y-280857253D01*
X44988969Y-280832749D01*
X44988969Y-280832747D01*
X45211031Y-280832747D01*
X45211031Y-280857251D01*
X45215811Y-280881285D01*
X45225188Y-280903924D01*
X45238802Y-280924298D01*
X45256129Y-280941625D01*
X45276503Y-280955239D01*
X45299131Y-280964612D01*
X45311879Y-280968479D01*
X45338344Y-280982625D01*
X45407600Y-281019643D01*
X45491501Y-281088499D01*
X45560357Y-281172400D01*
X45596995Y-281240945D01*
X45611521Y-281268121D01*
X45615388Y-281280869D01*
X45624760Y-281303496D01*
X45638374Y-281323870D01*
X45655701Y-281341197D01*
X45676075Y-281354811D01*
X45698714Y-281364188D01*
X45722747Y-281368969D01*
X45747251Y-281368969D01*
X45771285Y-281364189D01*
X45793924Y-281354812D01*
X45814298Y-281341198D01*
X45831625Y-281323871D01*
X45845239Y-281303497D01*
X45854612Y-281280869D01*
X45858479Y-281268121D01*
X45873005Y-281240945D01*
X45909643Y-281172400D01*
X45978499Y-281088499D01*
X46062400Y-281019643D01*
X46131656Y-280982625D01*
X46158121Y-280968479D01*
X46170869Y-280964612D01*
X46193496Y-280955240D01*
X46213870Y-280941626D01*
X46231197Y-280924299D01*
X46244811Y-280903925D01*
X46254188Y-280881286D01*
X46258969Y-280857253D01*
X46258969Y-280832749D01*
X46258969Y-280832747D01*
X46481031Y-280832747D01*
X46481031Y-280857251D01*
X46485811Y-280881285D01*
X46495188Y-280903924D01*
X46508802Y-280924298D01*
X46526129Y-280941625D01*
X46546503Y-280955239D01*
X46569131Y-280964612D01*
X46581879Y-280968479D01*
X46608344Y-280982625D01*
X46677600Y-281019643D01*
X46761501Y-281088499D01*
X46830357Y-281172400D01*
X46866995Y-281240945D01*
X46881521Y-281268121D01*
X46885388Y-281280869D01*
X46894760Y-281303496D01*
X46908374Y-281323870D01*
X46925701Y-281341197D01*
X46946075Y-281354811D01*
X46968714Y-281364188D01*
X46992747Y-281368969D01*
X47017251Y-281368969D01*
X47041285Y-281364189D01*
X47063924Y-281354812D01*
X47084298Y-281341198D01*
X47101625Y-281323871D01*
X47115239Y-281303497D01*
X47124612Y-281280869D01*
X47128479Y-281268121D01*
X47143005Y-281240945D01*
X47179643Y-281172400D01*
X47248499Y-281088499D01*
X47332400Y-281019643D01*
X47401656Y-280982625D01*
X47428121Y-280968479D01*
X47440869Y-280964612D01*
X47463496Y-280955240D01*
X47483870Y-280941626D01*
X47501197Y-280924299D01*
X47514811Y-280903925D01*
X47524188Y-280881286D01*
X47528969Y-280857253D01*
X47528969Y-280832749D01*
X47528969Y-280832747D01*
X47751031Y-280832747D01*
X47751031Y-280857251D01*
X47755811Y-280881285D01*
X47765188Y-280903924D01*
X47778802Y-280924298D01*
X47796129Y-280941625D01*
X47816503Y-280955239D01*
X47839131Y-280964612D01*
X47851879Y-280968479D01*
X47878344Y-280982625D01*
X47947600Y-281019643D01*
X48031501Y-281088499D01*
X48100357Y-281172400D01*
X48136995Y-281240945D01*
X48151521Y-281268121D01*
X48155388Y-281280869D01*
X48164760Y-281303496D01*
X48178374Y-281323870D01*
X48195701Y-281341197D01*
X48216075Y-281354811D01*
X48238714Y-281364188D01*
X48262747Y-281368969D01*
X48287251Y-281368969D01*
X48311285Y-281364189D01*
X48333924Y-281354812D01*
X48354298Y-281341198D01*
X48371625Y-281323871D01*
X48385239Y-281303497D01*
X48394612Y-281280869D01*
X48398479Y-281268121D01*
X48413005Y-281240945D01*
X48449643Y-281172400D01*
X48518499Y-281088499D01*
X48602400Y-281019643D01*
X48671656Y-280982625D01*
X48698121Y-280968479D01*
X48710869Y-280964612D01*
X48733496Y-280955240D01*
X48753870Y-280941626D01*
X48771197Y-280924299D01*
X48784811Y-280903925D01*
X48794188Y-280881286D01*
X48798969Y-280857253D01*
X48798969Y-280832749D01*
X48794189Y-280808715D01*
X48784812Y-280786076D01*
X48771198Y-280765702D01*
X48753871Y-280748375D01*
X48733497Y-280734761D01*
X48710869Y-280725388D01*
X48698121Y-280721521D01*
X48670945Y-280706995D01*
X48602400Y-280670357D01*
X48518499Y-280601501D01*
X48449643Y-280517600D01*
X48398809Y-280422496D01*
X48398479Y-280421879D01*
X48394612Y-280409131D01*
X48385240Y-280386504D01*
X48371626Y-280366130D01*
X48354299Y-280348803D01*
X48333925Y-280335189D01*
X48311286Y-280325812D01*
X48287253Y-280321031D01*
X48262749Y-280321031D01*
X48238715Y-280325811D01*
X48216076Y-280335188D01*
X48195702Y-280348802D01*
X48178375Y-280366129D01*
X48164761Y-280386503D01*
X48155388Y-280409131D01*
X48151521Y-280421879D01*
X48151191Y-280422496D01*
X48100357Y-280517600D01*
X48031501Y-280601501D01*
X47947600Y-280670357D01*
X47879055Y-280706995D01*
X47851879Y-280721521D01*
X47839131Y-280725388D01*
X47816504Y-280734760D01*
X47796130Y-280748374D01*
X47778803Y-280765701D01*
X47765189Y-280786075D01*
X47755812Y-280808714D01*
X47751031Y-280832747D01*
X47528969Y-280832747D01*
X47524189Y-280808715D01*
X47514812Y-280786076D01*
X47501198Y-280765702D01*
X47483871Y-280748375D01*
X47463497Y-280734761D01*
X47440869Y-280725388D01*
X47428121Y-280721521D01*
X47400945Y-280706995D01*
X47332400Y-280670357D01*
X47248499Y-280601501D01*
X47179643Y-280517600D01*
X47128809Y-280422496D01*
X47128479Y-280421879D01*
X47124612Y-280409131D01*
X47115240Y-280386504D01*
X47101626Y-280366130D01*
X47084299Y-280348803D01*
X47063925Y-280335189D01*
X47041286Y-280325812D01*
X47017253Y-280321031D01*
X46992749Y-280321031D01*
X46968715Y-280325811D01*
X46946076Y-280335188D01*
X46925702Y-280348802D01*
X46908375Y-280366129D01*
X46894761Y-280386503D01*
X46885388Y-280409131D01*
X46881521Y-280421879D01*
X46881191Y-280422496D01*
X46830357Y-280517600D01*
X46761501Y-280601501D01*
X46677600Y-280670357D01*
X46609055Y-280706995D01*
X46581879Y-280721521D01*
X46569131Y-280725388D01*
X46546504Y-280734760D01*
X46526130Y-280748374D01*
X46508803Y-280765701D01*
X46495189Y-280786075D01*
X46485812Y-280808714D01*
X46481031Y-280832747D01*
X46258969Y-280832747D01*
X46254189Y-280808715D01*
X46244812Y-280786076D01*
X46231198Y-280765702D01*
X46213871Y-280748375D01*
X46193497Y-280734761D01*
X46170869Y-280725388D01*
X46158121Y-280721521D01*
X46130945Y-280706995D01*
X46062400Y-280670357D01*
X45978499Y-280601501D01*
X45909643Y-280517600D01*
X45858809Y-280422496D01*
X45858479Y-280421879D01*
X45854612Y-280409131D01*
X45845240Y-280386504D01*
X45831626Y-280366130D01*
X45814299Y-280348803D01*
X45793925Y-280335189D01*
X45771286Y-280325812D01*
X45747253Y-280321031D01*
X45722749Y-280321031D01*
X45698715Y-280325811D01*
X45676076Y-280335188D01*
X45655702Y-280348802D01*
X45638375Y-280366129D01*
X45624761Y-280386503D01*
X45615388Y-280409131D01*
X45611521Y-280421879D01*
X45611191Y-280422496D01*
X45560357Y-280517600D01*
X45491501Y-280601501D01*
X45407600Y-280670357D01*
X45339055Y-280706995D01*
X45311879Y-280721521D01*
X45299131Y-280725388D01*
X45276504Y-280734760D01*
X45256130Y-280748374D01*
X45238803Y-280765701D01*
X45225189Y-280786075D01*
X45215812Y-280808714D01*
X45211031Y-280832747D01*
X44988969Y-280832747D01*
X44984189Y-280808715D01*
X44974812Y-280786076D01*
X44961198Y-280765702D01*
X44943871Y-280748375D01*
X44923497Y-280734761D01*
X44900869Y-280725388D01*
X44888121Y-280721521D01*
X44860945Y-280706995D01*
X44792400Y-280670357D01*
X44708499Y-280601501D01*
X44639645Y-280517601D01*
X44639644Y-280517600D01*
X44616236Y-280473807D01*
X44602625Y-280453437D01*
X44585298Y-280436110D01*
X44564924Y-280422496D01*
X44542285Y-280413119D01*
X44518252Y-280408338D01*
X44493748Y-280408338D01*
X44469714Y-280413118D01*
X44447076Y-280422495D01*
X44426701Y-280436109D01*
X44409374Y-280453436D01*
X44395760Y-280473810D01*
X44386383Y-280496449D01*
X44381602Y-280520482D01*
X44381000Y-280532735D01*
X44381000Y-280761000D01*
X44152735Y-280761000D01*
X44128349Y-280763402D01*
X44104900Y-280770515D01*
X44083289Y-280782066D01*
X44064347Y-280797611D01*
X44048802Y-280816553D01*
X44037251Y-280838164D01*
X44030138Y-280861613D01*
X44027736Y-280885999D01*
X43631662Y-280885999D01*
X43631662Y-280873748D01*
X43626882Y-280849714D01*
X43617505Y-280827076D01*
X43603891Y-280806701D01*
X43586564Y-280789374D01*
X43566190Y-280775760D01*
X43543551Y-280766383D01*
X43519518Y-280761602D01*
X43507265Y-280761000D01*
X43279000Y-280761000D01*
X43279000Y-279659000D01*
X44381000Y-279659000D01*
X44381000Y-279887265D01*
X44381000Y-279887265D01*
G37*
G36*
X59720442Y-279255518D02*
G01*
X59786627Y-279262037D01*
X59956466Y-279313557D01*
X60112991Y-279397222D01*
X60148729Y-279426552D01*
X60250186Y-279509814D01*
X60333448Y-279611271D01*
X60362778Y-279647009D01*
X60446443Y-279803534D01*
X60497963Y-279973373D01*
X60515359Y-280150000D01*
X60497963Y-280326627D01*
X60446443Y-280496466D01*
X60362778Y-280652991D01*
X60348526Y-280670357D01*
X60250186Y-280790186D01*
X60148729Y-280873448D01*
X60112991Y-280902778D01*
X59956466Y-280986443D01*
X59786627Y-281037963D01*
X59720442Y-281044482D01*
X59654260Y-281051000D01*
X59565740Y-281051000D01*
X59499558Y-281044482D01*
X59433373Y-281037963D01*
X59263534Y-280986443D01*
X59107009Y-280902778D01*
X59071271Y-280873448D01*
X58969814Y-280790186D01*
X58871474Y-280670357D01*
X58857222Y-280652991D01*
X58773557Y-280496466D01*
X58722037Y-280326627D01*
X58704641Y-280150000D01*
X58722037Y-279973373D01*
X58773557Y-279803534D01*
X58857222Y-279647009D01*
X58886552Y-279611271D01*
X58969814Y-279509814D01*
X59071271Y-279426552D01*
X59107009Y-279397222D01*
X59263534Y-279313557D01*
X59433373Y-279262037D01*
X59499558Y-279255518D01*
X59565740Y-279249000D01*
X59654260Y-279249000D01*
X59720442Y-279255518D01*
X59720442Y-279255518D01*
G37*
G36*
X110851000Y-281041000D02*
G01*
X109049000Y-281041000D01*
X109049000Y-279239000D01*
X110851000Y-279239000D01*
X110851000Y-281041000D01*
X110851000Y-281041000D01*
G37*
G36*
X59720443Y-276715519D02*
G01*
X59786627Y-276722037D01*
X59956466Y-276773557D01*
X60112991Y-276857222D01*
X60148729Y-276886552D01*
X60250186Y-276969814D01*
X60333448Y-277071271D01*
X60362778Y-277107009D01*
X60446443Y-277263534D01*
X60497963Y-277433373D01*
X60515359Y-277610000D01*
X60497963Y-277786627D01*
X60446443Y-277956466D01*
X60362778Y-278112991D01*
X60333448Y-278148729D01*
X60250186Y-278250186D01*
X60148729Y-278333448D01*
X60112991Y-278362778D01*
X60112989Y-278362779D01*
X59975177Y-278436442D01*
X59956466Y-278446443D01*
X59786627Y-278497963D01*
X59720443Y-278504481D01*
X59654260Y-278511000D01*
X59565740Y-278511000D01*
X59499557Y-278504481D01*
X59433373Y-278497963D01*
X59263534Y-278446443D01*
X59244824Y-278436442D01*
X59107011Y-278362779D01*
X59107009Y-278362778D01*
X59071271Y-278333448D01*
X58969814Y-278250186D01*
X58886552Y-278148729D01*
X58857222Y-278112991D01*
X58773557Y-277956466D01*
X58722037Y-277786627D01*
X58704641Y-277610000D01*
X58722037Y-277433373D01*
X58773557Y-277263534D01*
X58857222Y-277107009D01*
X58886552Y-277071271D01*
X58969814Y-276969814D01*
X59071271Y-276886552D01*
X59107009Y-276857222D01*
X59263534Y-276773557D01*
X59433373Y-276722037D01*
X59499557Y-276715519D01*
X59565740Y-276709000D01*
X59654260Y-276709000D01*
X59720443Y-276715519D01*
X59720443Y-276715519D01*
G37*
G36*
X110060443Y-276705519D02*
G01*
X110126627Y-276712037D01*
X110296466Y-276763557D01*
X110296468Y-276763558D01*
X110374728Y-276805389D01*
X110452991Y-276847222D01*
X110488729Y-276876552D01*
X110590186Y-276959814D01*
X110673448Y-277061271D01*
X110702778Y-277097009D01*
X110786443Y-277253534D01*
X110837963Y-277423373D01*
X110855359Y-277600000D01*
X110837963Y-277776627D01*
X110786443Y-277946466D01*
X110702778Y-278102991D01*
X110694571Y-278112991D01*
X110590186Y-278240186D01*
X110488729Y-278323448D01*
X110452991Y-278352778D01*
X110296466Y-278436443D01*
X110126627Y-278487963D01*
X110060442Y-278494482D01*
X109994260Y-278501000D01*
X109905740Y-278501000D01*
X109839558Y-278494482D01*
X109773373Y-278487963D01*
X109603534Y-278436443D01*
X109447009Y-278352778D01*
X109411271Y-278323448D01*
X109309814Y-278240186D01*
X109205429Y-278112991D01*
X109197222Y-278102991D01*
X109113557Y-277946466D01*
X109062037Y-277776627D01*
X109044641Y-277600000D01*
X109062037Y-277423373D01*
X109113557Y-277253534D01*
X109197222Y-277097009D01*
X109226552Y-277061271D01*
X109309814Y-276959814D01*
X109411271Y-276876552D01*
X109447009Y-276847222D01*
X109525271Y-276805390D01*
X109603532Y-276763558D01*
X109603534Y-276763557D01*
X109773373Y-276712037D01*
X109839557Y-276705519D01*
X109905740Y-276699000D01*
X109994260Y-276699000D01*
X110060443Y-276705519D01*
X110060443Y-276705519D01*
G37*
G36*
X59720442Y-274175518D02*
G01*
X59786627Y-274182037D01*
X59956466Y-274233557D01*
X60112991Y-274317222D01*
X60148729Y-274346552D01*
X60250186Y-274429814D01*
X60333448Y-274531271D01*
X60362778Y-274567009D01*
X60446443Y-274723534D01*
X60497963Y-274893373D01*
X60515359Y-275070000D01*
X60497963Y-275246627D01*
X60446443Y-275416466D01*
X60362778Y-275572991D01*
X60333448Y-275608729D01*
X60250186Y-275710186D01*
X60148729Y-275793448D01*
X60112991Y-275822778D01*
X60112989Y-275822779D01*
X59975177Y-275896442D01*
X59956466Y-275906443D01*
X59786627Y-275957963D01*
X59720443Y-275964481D01*
X59654260Y-275971000D01*
X59565740Y-275971000D01*
X59499557Y-275964481D01*
X59433373Y-275957963D01*
X59263534Y-275906443D01*
X59244824Y-275896442D01*
X59107011Y-275822779D01*
X59107009Y-275822778D01*
X59071271Y-275793448D01*
X58969814Y-275710186D01*
X58886552Y-275608729D01*
X58857222Y-275572991D01*
X58773557Y-275416466D01*
X58722037Y-275246627D01*
X58704641Y-275070000D01*
X58722037Y-274893373D01*
X58773557Y-274723534D01*
X58857222Y-274567009D01*
X58886552Y-274531271D01*
X58969814Y-274429814D01*
X59071271Y-274346552D01*
X59107009Y-274317222D01*
X59263534Y-274233557D01*
X59433373Y-274182037D01*
X59499558Y-274175518D01*
X59565740Y-274169000D01*
X59654260Y-274169000D01*
X59720442Y-274175518D01*
X59720442Y-274175518D01*
G37*
G36*
X110060443Y-274165519D02*
G01*
X110126627Y-274172037D01*
X110296466Y-274223557D01*
X110296468Y-274223558D01*
X110374729Y-274265390D01*
X110452991Y-274307222D01*
X110488729Y-274336552D01*
X110590186Y-274419814D01*
X110673448Y-274521271D01*
X110702778Y-274557009D01*
X110786443Y-274713534D01*
X110837963Y-274883373D01*
X110855359Y-275060000D01*
X110837963Y-275236627D01*
X110786443Y-275406466D01*
X110702778Y-275562991D01*
X110694571Y-275572991D01*
X110590186Y-275700186D01*
X110488729Y-275783448D01*
X110452991Y-275812778D01*
X110296466Y-275896443D01*
X110126627Y-275947963D01*
X110060443Y-275954481D01*
X109994260Y-275961000D01*
X109905740Y-275961000D01*
X109839557Y-275954481D01*
X109773373Y-275947963D01*
X109603534Y-275896443D01*
X109447009Y-275812778D01*
X109411271Y-275783448D01*
X109309814Y-275700186D01*
X109205429Y-275572991D01*
X109197222Y-275562991D01*
X109113557Y-275406466D01*
X109062037Y-275236627D01*
X109044641Y-275060000D01*
X109062037Y-274883373D01*
X109113557Y-274713534D01*
X109197222Y-274557009D01*
X109226552Y-274521271D01*
X109309814Y-274419814D01*
X109411271Y-274336552D01*
X109447009Y-274307222D01*
X109525271Y-274265390D01*
X109603532Y-274223558D01*
X109603534Y-274223557D01*
X109773373Y-274172037D01*
X109839557Y-274165519D01*
X109905740Y-274159000D01*
X109994260Y-274159000D01*
X110060443Y-274165519D01*
X110060443Y-274165519D01*
G37*
G36*
X59720443Y-271635519D02*
G01*
X59786627Y-271642037D01*
X59956466Y-271693557D01*
X60112991Y-271777222D01*
X60148729Y-271806552D01*
X60250186Y-271889814D01*
X60333448Y-271991271D01*
X60362778Y-272027009D01*
X60446443Y-272183534D01*
X60497963Y-272353373D01*
X60515359Y-272530000D01*
X60497963Y-272706627D01*
X60446443Y-272876466D01*
X60362778Y-273032991D01*
X60333448Y-273068729D01*
X60250186Y-273170186D01*
X60148729Y-273253448D01*
X60112991Y-273282778D01*
X60112989Y-273282779D01*
X59975177Y-273356442D01*
X59956466Y-273366443D01*
X59786627Y-273417963D01*
X59720442Y-273424482D01*
X59654260Y-273431000D01*
X59565740Y-273431000D01*
X59499558Y-273424482D01*
X59433373Y-273417963D01*
X59263534Y-273366443D01*
X59244824Y-273356442D01*
X59107011Y-273282779D01*
X59107009Y-273282778D01*
X59071271Y-273253448D01*
X58969814Y-273170186D01*
X58886552Y-273068729D01*
X58857222Y-273032991D01*
X58773557Y-272876466D01*
X58722037Y-272706627D01*
X58704641Y-272530000D01*
X58722037Y-272353373D01*
X58773557Y-272183534D01*
X58857222Y-272027009D01*
X58886552Y-271991271D01*
X58969814Y-271889814D01*
X59071271Y-271806552D01*
X59107009Y-271777222D01*
X59263534Y-271693557D01*
X59433373Y-271642037D01*
X59499557Y-271635519D01*
X59565740Y-271629000D01*
X59654260Y-271629000D01*
X59720443Y-271635519D01*
X59720443Y-271635519D01*
G37*
G36*
X110060442Y-271625518D02*
G01*
X110126627Y-271632037D01*
X110296466Y-271683557D01*
X110296468Y-271683558D01*
X110374728Y-271725389D01*
X110452991Y-271767222D01*
X110488729Y-271796552D01*
X110590186Y-271879814D01*
X110673448Y-271981271D01*
X110702778Y-272017009D01*
X110786443Y-272173534D01*
X110837963Y-272343373D01*
X110855359Y-272520000D01*
X110837963Y-272696627D01*
X110786443Y-272866466D01*
X110702778Y-273022991D01*
X110694571Y-273032991D01*
X110590186Y-273160186D01*
X110488729Y-273243448D01*
X110452991Y-273272778D01*
X110296466Y-273356443D01*
X110126627Y-273407963D01*
X110060442Y-273414482D01*
X109994260Y-273421000D01*
X109905740Y-273421000D01*
X109839558Y-273414482D01*
X109773373Y-273407963D01*
X109603534Y-273356443D01*
X109447009Y-273272778D01*
X109411271Y-273243448D01*
X109309814Y-273160186D01*
X109205429Y-273032991D01*
X109197222Y-273022991D01*
X109113557Y-272866466D01*
X109062037Y-272696627D01*
X109044641Y-272520000D01*
X109062037Y-272343373D01*
X109113557Y-272173534D01*
X109197222Y-272017009D01*
X109226552Y-271981271D01*
X109309814Y-271879814D01*
X109411271Y-271796552D01*
X109447009Y-271767222D01*
X109525271Y-271725390D01*
X109603532Y-271683558D01*
X109603534Y-271683557D01*
X109773373Y-271632037D01*
X109839558Y-271625518D01*
X109905740Y-271619000D01*
X109994260Y-271619000D01*
X110060442Y-271625518D01*
X110060442Y-271625518D01*
G37*
G36*
X59720443Y-269095519D02*
G01*
X59786627Y-269102037D01*
X59956466Y-269153557D01*
X60112991Y-269237222D01*
X60148729Y-269266552D01*
X60250186Y-269349814D01*
X60333448Y-269451271D01*
X60362778Y-269487009D01*
X60446443Y-269643534D01*
X60497963Y-269813373D01*
X60515359Y-269990000D01*
X60497963Y-270166627D01*
X60446443Y-270336466D01*
X60362778Y-270492991D01*
X60333448Y-270528729D01*
X60250186Y-270630186D01*
X60148729Y-270713448D01*
X60112991Y-270742778D01*
X60112989Y-270742779D01*
X59975177Y-270816442D01*
X59956466Y-270826443D01*
X59786627Y-270877963D01*
X59720443Y-270884481D01*
X59654260Y-270891000D01*
X59565740Y-270891000D01*
X59499557Y-270884481D01*
X59433373Y-270877963D01*
X59263534Y-270826443D01*
X59244824Y-270816442D01*
X59107011Y-270742779D01*
X59107009Y-270742778D01*
X59071271Y-270713448D01*
X58969814Y-270630186D01*
X58886552Y-270528729D01*
X58857222Y-270492991D01*
X58773557Y-270336466D01*
X58722037Y-270166627D01*
X58704641Y-269990000D01*
X58722037Y-269813373D01*
X58773557Y-269643534D01*
X58857222Y-269487009D01*
X58886552Y-269451271D01*
X58969814Y-269349814D01*
X59071271Y-269266552D01*
X59107009Y-269237222D01*
X59263534Y-269153557D01*
X59433373Y-269102037D01*
X59499557Y-269095519D01*
X59565740Y-269089000D01*
X59654260Y-269089000D01*
X59720443Y-269095519D01*
X59720443Y-269095519D01*
G37*
G36*
X110060443Y-269085519D02*
G01*
X110126627Y-269092037D01*
X110296466Y-269143557D01*
X110296468Y-269143558D01*
X110374728Y-269185389D01*
X110452991Y-269227222D01*
X110488729Y-269256552D01*
X110590186Y-269339814D01*
X110673448Y-269441271D01*
X110702778Y-269477009D01*
X110786443Y-269633534D01*
X110837963Y-269803373D01*
X110855359Y-269980000D01*
X110837963Y-270156627D01*
X110786443Y-270326466D01*
X110702778Y-270482991D01*
X110694571Y-270492991D01*
X110590186Y-270620186D01*
X110488729Y-270703448D01*
X110452991Y-270732778D01*
X110296466Y-270816443D01*
X110126627Y-270867963D01*
X110060443Y-270874481D01*
X109994260Y-270881000D01*
X109905740Y-270881000D01*
X109839557Y-270874481D01*
X109773373Y-270867963D01*
X109603534Y-270816443D01*
X109447009Y-270732778D01*
X109411271Y-270703448D01*
X109309814Y-270620186D01*
X109205429Y-270492991D01*
X109197222Y-270482991D01*
X109113557Y-270326466D01*
X109062037Y-270156627D01*
X109044641Y-269980000D01*
X109062037Y-269803373D01*
X109113557Y-269633534D01*
X109197222Y-269477009D01*
X109226552Y-269441271D01*
X109309814Y-269339814D01*
X109411271Y-269256552D01*
X109447009Y-269227222D01*
X109525272Y-269185389D01*
X109603532Y-269143558D01*
X109603534Y-269143557D01*
X109773373Y-269092037D01*
X109839557Y-269085519D01*
X109905740Y-269079000D01*
X109994260Y-269079000D01*
X110060443Y-269085519D01*
X110060443Y-269085519D01*
G37*
G36*
X60511000Y-268351000D02*
G01*
X58709000Y-268351000D01*
X58709000Y-266549000D01*
X60511000Y-266549000D01*
X60511000Y-268351000D01*
X60511000Y-268351000D01*
G37*
G36*
X110060442Y-266545518D02*
G01*
X110126627Y-266552037D01*
X110296466Y-266603557D01*
X110452991Y-266687222D01*
X110473264Y-266703860D01*
X110590186Y-266799814D01*
X110669352Y-266896280D01*
X110702778Y-266937009D01*
X110786443Y-267093534D01*
X110837963Y-267263373D01*
X110855359Y-267440000D01*
X110837963Y-267616627D01*
X110786443Y-267786466D01*
X110702778Y-267942991D01*
X110673448Y-267978729D01*
X110590186Y-268080186D01*
X110488729Y-268163448D01*
X110452991Y-268192778D01*
X110296466Y-268276443D01*
X110126627Y-268327963D01*
X110060443Y-268334481D01*
X109994260Y-268341000D01*
X109905740Y-268341000D01*
X109839557Y-268334481D01*
X109773373Y-268327963D01*
X109603534Y-268276443D01*
X109447009Y-268192778D01*
X109411271Y-268163448D01*
X109309814Y-268080186D01*
X109226552Y-267978729D01*
X109197222Y-267942991D01*
X109113557Y-267786466D01*
X109062037Y-267616627D01*
X109044641Y-267440000D01*
X109062037Y-267263373D01*
X109113557Y-267093534D01*
X109197222Y-266937009D01*
X109230648Y-266896280D01*
X109309814Y-266799814D01*
X109426736Y-266703860D01*
X109447009Y-266687222D01*
X109603534Y-266603557D01*
X109773373Y-266552037D01*
X109839558Y-266545518D01*
X109905740Y-266539000D01*
X109994260Y-266539000D01*
X110060442Y-266545518D01*
X110060442Y-266545518D01*
G37*
G36*
X48242199Y-265659954D02*
G01*
X48254450Y-265660556D01*
X48272869Y-265660556D01*
X48295149Y-265662750D01*
X48379233Y-265679476D01*
X48400660Y-265685976D01*
X48479858Y-265718780D01*
X48485303Y-265721691D01*
X48485309Y-265721693D01*
X48494169Y-265726429D01*
X48494173Y-265726432D01*
X48499614Y-265729340D01*
X48570899Y-265776971D01*
X48588204Y-265791172D01*
X48648828Y-265851796D01*
X48663029Y-265869101D01*
X48710660Y-265940386D01*
X48713568Y-265945827D01*
X48713571Y-265945831D01*
X48718307Y-265954691D01*
X48718309Y-265954697D01*
X48721220Y-265960142D01*
X48754024Y-266039340D01*
X48760524Y-266060767D01*
X48777250Y-266144851D01*
X48779444Y-266167131D01*
X48779444Y-266185550D01*
X48780046Y-266197801D01*
X48781852Y-266216139D01*
X48781852Y-266703860D01*
X48780263Y-266719999D01*
X48777348Y-266729608D01*
X48772610Y-266738472D01*
X48766237Y-266746237D01*
X48753794Y-266756448D01*
X48743425Y-266763378D01*
X48726098Y-266780705D01*
X48712485Y-266801080D01*
X48703109Y-266823720D01*
X48698329Y-266847753D01*
X48698330Y-266872257D01*
X48703112Y-266896290D01*
X48712490Y-266918929D01*
X48726105Y-266939302D01*
X48743432Y-266956629D01*
X48753802Y-266963558D01*
X48766237Y-266973763D01*
X48772610Y-266981528D01*
X48777348Y-266990392D01*
X48780263Y-267000001D01*
X48781852Y-267016140D01*
X48781852Y-267503862D01*
X48780046Y-267522199D01*
X48779444Y-267534450D01*
X48779444Y-267552869D01*
X48777250Y-267575149D01*
X48760524Y-267659233D01*
X48754024Y-267680660D01*
X48721220Y-267759858D01*
X48718309Y-267765303D01*
X48718307Y-267765309D01*
X48713571Y-267774169D01*
X48713568Y-267774173D01*
X48710660Y-267779614D01*
X48663029Y-267850899D01*
X48648828Y-267868204D01*
X48588204Y-267928828D01*
X48570899Y-267943029D01*
X48499614Y-267990660D01*
X48494173Y-267993568D01*
X48494169Y-267993571D01*
X48485309Y-267998307D01*
X48485303Y-267998309D01*
X48479858Y-268001220D01*
X48400660Y-268034024D01*
X48379233Y-268040524D01*
X48295149Y-268057250D01*
X48272869Y-268059444D01*
X48254450Y-268059444D01*
X48242199Y-268060046D01*
X48223862Y-268061852D01*
X47736138Y-268061852D01*
X47717801Y-268060046D01*
X47705550Y-268059444D01*
X47687131Y-268059444D01*
X47664851Y-268057250D01*
X47580767Y-268040524D01*
X47559340Y-268034024D01*
X47480142Y-268001220D01*
X47474697Y-267998309D01*
X47474691Y-267998307D01*
X47465831Y-267993571D01*
X47465827Y-267993568D01*
X47460386Y-267990660D01*
X47389101Y-267943029D01*
X47371796Y-267928828D01*
X47311172Y-267868204D01*
X47296971Y-267850899D01*
X47249340Y-267779614D01*
X47246432Y-267774173D01*
X47246429Y-267774169D01*
X47241693Y-267765309D01*
X47241691Y-267765303D01*
X47238780Y-267759858D01*
X47205976Y-267680660D01*
X47199476Y-267659233D01*
X47182750Y-267575149D01*
X47180556Y-267552869D01*
X47180556Y-267534450D01*
X47179954Y-267522199D01*
X47178148Y-267503862D01*
X47178148Y-267016140D01*
X47179737Y-267000001D01*
X47182652Y-266990392D01*
X47187390Y-266981528D01*
X47193763Y-266973763D01*
X47206206Y-266963552D01*
X47216575Y-266956622D01*
X47233902Y-266939295D01*
X47247515Y-266918920D01*
X47256891Y-266896280D01*
X47261671Y-266872247D01*
X47261670Y-266847743D01*
X47256888Y-266823710D01*
X47247510Y-266801071D01*
X47233895Y-266780698D01*
X47216568Y-266763371D01*
X47206198Y-266756442D01*
X47193763Y-266746237D01*
X47187390Y-266738472D01*
X47182652Y-266729608D01*
X47179737Y-266719999D01*
X47178148Y-266703860D01*
X47178148Y-266216138D01*
X47179954Y-266197801D01*
X47180556Y-266185550D01*
X47180556Y-266167131D01*
X47182750Y-266144851D01*
X47199476Y-266060767D01*
X47205976Y-266039340D01*
X47238780Y-265960142D01*
X47241691Y-265954697D01*
X47241693Y-265954691D01*
X47246429Y-265945831D01*
X47246432Y-265945827D01*
X47249340Y-265940386D01*
X47296971Y-265869101D01*
X47311172Y-265851796D01*
X47371796Y-265791172D01*
X47389101Y-265776971D01*
X47460386Y-265729340D01*
X47465827Y-265726432D01*
X47465831Y-265726429D01*
X47474691Y-265721693D01*
X47474697Y-265721691D01*
X47480142Y-265718780D01*
X47559340Y-265685976D01*
X47580767Y-265679476D01*
X47664851Y-265662750D01*
X47687131Y-265660556D01*
X47705550Y-265660556D01*
X47717801Y-265659954D01*
X47736139Y-265658148D01*
X48223861Y-265658148D01*
X48242199Y-265659954D01*
X48242199Y-265659954D01*
G37*
G36*
X45638843Y-261992292D02*
G01*
X45689588Y-262013311D01*
X45725470Y-262028174D01*
X45803432Y-262080267D01*
X45869733Y-262146568D01*
X45921826Y-262224530D01*
X45921826Y-262224531D01*
X45957708Y-262311157D01*
X45976000Y-262403117D01*
X45976000Y-262496883D01*
X45957708Y-262588843D01*
X45936689Y-262639588D01*
X45921826Y-262675470D01*
X45869733Y-262753432D01*
X45803432Y-262819733D01*
X45725470Y-262871826D01*
X45689588Y-262886689D01*
X45638843Y-262907708D01*
X45546883Y-262926000D01*
X45453117Y-262926000D01*
X45361157Y-262907708D01*
X45310412Y-262886689D01*
X45274530Y-262871826D01*
X45196568Y-262819733D01*
X45130267Y-262753432D01*
X45078174Y-262675470D01*
X45063311Y-262639588D01*
X45042292Y-262588843D01*
X45024000Y-262496883D01*
X45024000Y-262403117D01*
X45042292Y-262311157D01*
X45078174Y-262224531D01*
X45078174Y-262224530D01*
X45130267Y-262146568D01*
X45196568Y-262080267D01*
X45274530Y-262028174D01*
X45310412Y-262013311D01*
X45361157Y-261992292D01*
X45453117Y-261974000D01*
X45546883Y-261974000D01*
X45638843Y-261992292D01*
X45638843Y-261992292D01*
G37*
G36*
X43476000Y-262926000D02*
G01*
X42524000Y-262926000D01*
X42524000Y-261974000D01*
X43476000Y-261974000D01*
X43476000Y-262926000D01*
X43476000Y-262926000D01*
G37*
G36*
X44388843Y-261992292D02*
G01*
X44439588Y-262013311D01*
X44475470Y-262028174D01*
X44553432Y-262080267D01*
X44619733Y-262146568D01*
X44671826Y-262224530D01*
X44671826Y-262224531D01*
X44707708Y-262311157D01*
X44726000Y-262403117D01*
X44726000Y-262496883D01*
X44707708Y-262588843D01*
X44686689Y-262639588D01*
X44671826Y-262675470D01*
X44619733Y-262753432D01*
X44553432Y-262819733D01*
X44475470Y-262871826D01*
X44439588Y-262886689D01*
X44388843Y-262907708D01*
X44296883Y-262926000D01*
X44203117Y-262926000D01*
X44111157Y-262907708D01*
X44060412Y-262886689D01*
X44024530Y-262871826D01*
X43946568Y-262819733D01*
X43880267Y-262753432D01*
X43828174Y-262675470D01*
X43813311Y-262639588D01*
X43792292Y-262588843D01*
X43774000Y-262496883D01*
X43774000Y-262403117D01*
X43792292Y-262311157D01*
X43828174Y-262224531D01*
X43828174Y-262224530D01*
X43880267Y-262146568D01*
X43946568Y-262080267D01*
X44024530Y-262028174D01*
X44060412Y-262013311D01*
X44111157Y-261992292D01*
X44203117Y-261974000D01*
X44296883Y-261974000D01*
X44388843Y-261992292D01*
X44388843Y-261992292D01*
G37*
G36*
X46888843Y-261992292D02*
G01*
X46939588Y-262013311D01*
X46975470Y-262028174D01*
X47053432Y-262080267D01*
X47119733Y-262146568D01*
X47171826Y-262224530D01*
X47171826Y-262224531D01*
X47207708Y-262311157D01*
X47226000Y-262403117D01*
X47226000Y-262496883D01*
X47207708Y-262588843D01*
X47186689Y-262639588D01*
X47171826Y-262675470D01*
X47119733Y-262753432D01*
X47053432Y-262819733D01*
X46975470Y-262871826D01*
X46939588Y-262886689D01*
X46888843Y-262907708D01*
X46796883Y-262926000D01*
X46703117Y-262926000D01*
X46611157Y-262907708D01*
X46560412Y-262886689D01*
X46524530Y-262871826D01*
X46446568Y-262819733D01*
X46380267Y-262753432D01*
X46328174Y-262675470D01*
X46313311Y-262639588D01*
X46292292Y-262588843D01*
X46274000Y-262496883D01*
X46274000Y-262403117D01*
X46292292Y-262311157D01*
X46328174Y-262224531D01*
X46328174Y-262224530D01*
X46380267Y-262146568D01*
X46446568Y-262080267D01*
X46524530Y-262028174D01*
X46560412Y-262013311D01*
X46611157Y-261992292D01*
X46703117Y-261974000D01*
X46796883Y-261974000D01*
X46888843Y-261992292D01*
X46888843Y-261992292D01*
G37*
G36*
X48138843Y-261992292D02*
G01*
X48189588Y-262013311D01*
X48225470Y-262028174D01*
X48303432Y-262080267D01*
X48369733Y-262146568D01*
X48421826Y-262224530D01*
X48421826Y-262224531D01*
X48457708Y-262311157D01*
X48476000Y-262403117D01*
X48476000Y-262496883D01*
X48457708Y-262588843D01*
X48436689Y-262639588D01*
X48421826Y-262675470D01*
X48369733Y-262753432D01*
X48303432Y-262819733D01*
X48225470Y-262871826D01*
X48189588Y-262886689D01*
X48138843Y-262907708D01*
X48046883Y-262926000D01*
X47953117Y-262926000D01*
X47861157Y-262907708D01*
X47810412Y-262886689D01*
X47774530Y-262871826D01*
X47696568Y-262819733D01*
X47630267Y-262753432D01*
X47578174Y-262675470D01*
X47563311Y-262639588D01*
X47542292Y-262588843D01*
X47524000Y-262496883D01*
X47524000Y-262403117D01*
X47542292Y-262311157D01*
X47578174Y-262224531D01*
X47578174Y-262224530D01*
X47630267Y-262146568D01*
X47696568Y-262080267D01*
X47774530Y-262028174D01*
X47810412Y-262013311D01*
X47861157Y-261992292D01*
X47953117Y-261974000D01*
X48046883Y-261974000D01*
X48138843Y-261992292D01*
X48138843Y-261992292D01*
G37*
G36*
X49388843Y-261992292D02*
G01*
X49439588Y-262013311D01*
X49475470Y-262028174D01*
X49553432Y-262080267D01*
X49619733Y-262146568D01*
X49671826Y-262224530D01*
X49671826Y-262224531D01*
X49707708Y-262311157D01*
X49726000Y-262403117D01*
X49726000Y-262496883D01*
X49707708Y-262588843D01*
X49686689Y-262639588D01*
X49671826Y-262675470D01*
X49619733Y-262753432D01*
X49553432Y-262819733D01*
X49475470Y-262871826D01*
X49439588Y-262886689D01*
X49388843Y-262907708D01*
X49296883Y-262926000D01*
X49203117Y-262926000D01*
X49111157Y-262907708D01*
X49060412Y-262886689D01*
X49024530Y-262871826D01*
X48946568Y-262819733D01*
X48880267Y-262753432D01*
X48828174Y-262675470D01*
X48813311Y-262639588D01*
X48792292Y-262588843D01*
X48774000Y-262496883D01*
X48774000Y-262403117D01*
X48792292Y-262311157D01*
X48828174Y-262224531D01*
X48828174Y-262224530D01*
X48880267Y-262146568D01*
X48946568Y-262080267D01*
X49024530Y-262028174D01*
X49060412Y-262013311D01*
X49111157Y-261992292D01*
X49203117Y-261974000D01*
X49296883Y-261974000D01*
X49388843Y-261992292D01*
X49388843Y-261992292D01*
G37*
G36*
X67240443Y-259075519D02*
G01*
X67306627Y-259082037D01*
X67476466Y-259133557D01*
X67632991Y-259217222D01*
X67668729Y-259246552D01*
X67770186Y-259329814D01*
X67853448Y-259431271D01*
X67882778Y-259467009D01*
X67966443Y-259623534D01*
X68017963Y-259793373D01*
X68035359Y-259970000D01*
X68017963Y-260146627D01*
X67966443Y-260316466D01*
X67882778Y-260472991D01*
X67853448Y-260508729D01*
X67770186Y-260610186D01*
X67668729Y-260693448D01*
X67632991Y-260722778D01*
X67476466Y-260806443D01*
X67306627Y-260857963D01*
X67240443Y-260864481D01*
X67174260Y-260871000D01*
X67085740Y-260871000D01*
X67019557Y-260864481D01*
X66953373Y-260857963D01*
X66783534Y-260806443D01*
X66627009Y-260722778D01*
X66591271Y-260693448D01*
X66489814Y-260610186D01*
X66406552Y-260508729D01*
X66377222Y-260472991D01*
X66293557Y-260316466D01*
X66242037Y-260146627D01*
X66224641Y-259970000D01*
X66242037Y-259793373D01*
X66293557Y-259623534D01*
X66377222Y-259467009D01*
X66406552Y-259431271D01*
X66489814Y-259329814D01*
X66591271Y-259246552D01*
X66627009Y-259217222D01*
X66783534Y-259133557D01*
X66953373Y-259082037D01*
X67019557Y-259075519D01*
X67085740Y-259069000D01*
X67174260Y-259069000D01*
X67240443Y-259075519D01*
X67240443Y-259075519D01*
G37*
G36*
X97490443Y-259075519D02*
G01*
X97556627Y-259082037D01*
X97726466Y-259133557D01*
X97882991Y-259217222D01*
X97918729Y-259246552D01*
X98020186Y-259329814D01*
X98103448Y-259431271D01*
X98132778Y-259467009D01*
X98216443Y-259623534D01*
X98267963Y-259793373D01*
X98285359Y-259970000D01*
X98267963Y-260146627D01*
X98216443Y-260316466D01*
X98132778Y-260472991D01*
X98103448Y-260508729D01*
X98020186Y-260610186D01*
X97918729Y-260693448D01*
X97882991Y-260722778D01*
X97726466Y-260806443D01*
X97556627Y-260857963D01*
X97490443Y-260864481D01*
X97424260Y-260871000D01*
X97335740Y-260871000D01*
X97269557Y-260864481D01*
X97203373Y-260857963D01*
X97033534Y-260806443D01*
X96877009Y-260722778D01*
X96841271Y-260693448D01*
X96739814Y-260610186D01*
X96656552Y-260508729D01*
X96627222Y-260472991D01*
X96543557Y-260316466D01*
X96492037Y-260146627D01*
X96474641Y-259970000D01*
X96492037Y-259793373D01*
X96543557Y-259623534D01*
X96627222Y-259467009D01*
X96656552Y-259431271D01*
X96739814Y-259329814D01*
X96841271Y-259246552D01*
X96877009Y-259217222D01*
X97033534Y-259133557D01*
X97203373Y-259082037D01*
X97269557Y-259075519D01*
X97335740Y-259069000D01*
X97424260Y-259069000D01*
X97490443Y-259075519D01*
X97490443Y-259075519D01*
G37*
G36*
X103361000Y-260871000D02*
G01*
X101559000Y-260871000D01*
X101559000Y-259069000D01*
X103361000Y-259069000D01*
X103361000Y-260871000D01*
X103361000Y-260871000D01*
G37*
G36*
X100030443Y-259075519D02*
G01*
X100096627Y-259082037D01*
X100266466Y-259133557D01*
X100422991Y-259217222D01*
X100458729Y-259246552D01*
X100560186Y-259329814D01*
X100643448Y-259431271D01*
X100672778Y-259467009D01*
X100756443Y-259623534D01*
X100807963Y-259793373D01*
X100825359Y-259970000D01*
X100807963Y-260146627D01*
X100756443Y-260316466D01*
X100672778Y-260472991D01*
X100643448Y-260508729D01*
X100560186Y-260610186D01*
X100458729Y-260693448D01*
X100422991Y-260722778D01*
X100266466Y-260806443D01*
X100096627Y-260857963D01*
X100030443Y-260864481D01*
X99964260Y-260871000D01*
X99875740Y-260871000D01*
X99809557Y-260864481D01*
X99743373Y-260857963D01*
X99573534Y-260806443D01*
X99417009Y-260722778D01*
X99381271Y-260693448D01*
X99279814Y-260610186D01*
X99196552Y-260508729D01*
X99167222Y-260472991D01*
X99083557Y-260316466D01*
X99032037Y-260146627D01*
X99014641Y-259970000D01*
X99032037Y-259793373D01*
X99083557Y-259623534D01*
X99167222Y-259467009D01*
X99196552Y-259431271D01*
X99279814Y-259329814D01*
X99381271Y-259246552D01*
X99417009Y-259217222D01*
X99573534Y-259133557D01*
X99743373Y-259082037D01*
X99809557Y-259075519D01*
X99875740Y-259069000D01*
X99964260Y-259069000D01*
X100030443Y-259075519D01*
X100030443Y-259075519D01*
G37*
G36*
X83191000Y-260871000D02*
G01*
X81389000Y-260871000D01*
X81389000Y-259069000D01*
X83191000Y-259069000D01*
X83191000Y-260871000D01*
X83191000Y-260871000D01*
G37*
G36*
X77320443Y-259075519D02*
G01*
X77386627Y-259082037D01*
X77556466Y-259133557D01*
X77712991Y-259217222D01*
X77748729Y-259246552D01*
X77850186Y-259329814D01*
X77933448Y-259431271D01*
X77962778Y-259467009D01*
X78046443Y-259623534D01*
X78097963Y-259793373D01*
X78115359Y-259970000D01*
X78097963Y-260146627D01*
X78046443Y-260316466D01*
X77962778Y-260472991D01*
X77933448Y-260508729D01*
X77850186Y-260610186D01*
X77748729Y-260693448D01*
X77712991Y-260722778D01*
X77556466Y-260806443D01*
X77386627Y-260857963D01*
X77320443Y-260864481D01*
X77254260Y-260871000D01*
X77165740Y-260871000D01*
X77099557Y-260864481D01*
X77033373Y-260857963D01*
X76863534Y-260806443D01*
X76707009Y-260722778D01*
X76671271Y-260693448D01*
X76569814Y-260610186D01*
X76486552Y-260508729D01*
X76457222Y-260472991D01*
X76373557Y-260316466D01*
X76322037Y-260146627D01*
X76304641Y-259970000D01*
X76322037Y-259793373D01*
X76373557Y-259623534D01*
X76457222Y-259467009D01*
X76486552Y-259431271D01*
X76569814Y-259329814D01*
X76671271Y-259246552D01*
X76707009Y-259217222D01*
X76863534Y-259133557D01*
X77033373Y-259082037D01*
X77099557Y-259075519D01*
X77165740Y-259069000D01*
X77254260Y-259069000D01*
X77320443Y-259075519D01*
X77320443Y-259075519D01*
G37*
G36*
X73111000Y-260871000D02*
G01*
X71309000Y-260871000D01*
X71309000Y-259069000D01*
X73111000Y-259069000D01*
X73111000Y-260871000D01*
X73111000Y-260871000D01*
G37*
G36*
X69780443Y-259075519D02*
G01*
X69846627Y-259082037D01*
X70016466Y-259133557D01*
X70172991Y-259217222D01*
X70208729Y-259246552D01*
X70310186Y-259329814D01*
X70393448Y-259431271D01*
X70422778Y-259467009D01*
X70506443Y-259623534D01*
X70557963Y-259793373D01*
X70575359Y-259970000D01*
X70557963Y-260146627D01*
X70506443Y-260316466D01*
X70422778Y-260472991D01*
X70393448Y-260508729D01*
X70310186Y-260610186D01*
X70208729Y-260693448D01*
X70172991Y-260722778D01*
X70016466Y-260806443D01*
X69846627Y-260857963D01*
X69780443Y-260864481D01*
X69714260Y-260871000D01*
X69625740Y-260871000D01*
X69559557Y-260864481D01*
X69493373Y-260857963D01*
X69323534Y-260806443D01*
X69167009Y-260722778D01*
X69131271Y-260693448D01*
X69029814Y-260610186D01*
X68946552Y-260508729D01*
X68917222Y-260472991D01*
X68833557Y-260316466D01*
X68782037Y-260146627D01*
X68764641Y-259970000D01*
X68782037Y-259793373D01*
X68833557Y-259623534D01*
X68917222Y-259467009D01*
X68946552Y-259431271D01*
X69029814Y-259329814D01*
X69131271Y-259246552D01*
X69167009Y-259217222D01*
X69323534Y-259133557D01*
X69493373Y-259082037D01*
X69559557Y-259075519D01*
X69625740Y-259069000D01*
X69714260Y-259069000D01*
X69780443Y-259075519D01*
X69780443Y-259075519D01*
G37*
G36*
X93271000Y-260871000D02*
G01*
X91469000Y-260871000D01*
X91469000Y-259069000D01*
X93271000Y-259069000D01*
X93271000Y-260871000D01*
X93271000Y-260871000D01*
G37*
G36*
X89940443Y-259075519D02*
G01*
X90006627Y-259082037D01*
X90176466Y-259133557D01*
X90332991Y-259217222D01*
X90368729Y-259246552D01*
X90470186Y-259329814D01*
X90553448Y-259431271D01*
X90582778Y-259467009D01*
X90666443Y-259623534D01*
X90717963Y-259793373D01*
X90735359Y-259970000D01*
X90717963Y-260146627D01*
X90666443Y-260316466D01*
X90582778Y-260472991D01*
X90553448Y-260508729D01*
X90470186Y-260610186D01*
X90368729Y-260693448D01*
X90332991Y-260722778D01*
X90176466Y-260806443D01*
X90006627Y-260857963D01*
X89940443Y-260864481D01*
X89874260Y-260871000D01*
X89785740Y-260871000D01*
X89719557Y-260864481D01*
X89653373Y-260857963D01*
X89483534Y-260806443D01*
X89327009Y-260722778D01*
X89291271Y-260693448D01*
X89189814Y-260610186D01*
X89106552Y-260508729D01*
X89077222Y-260472991D01*
X88993557Y-260316466D01*
X88942037Y-260146627D01*
X88924641Y-259970000D01*
X88942037Y-259793373D01*
X88993557Y-259623534D01*
X89077222Y-259467009D01*
X89106552Y-259431271D01*
X89189814Y-259329814D01*
X89291271Y-259246552D01*
X89327009Y-259217222D01*
X89483534Y-259133557D01*
X89653373Y-259082037D01*
X89719557Y-259075519D01*
X89785740Y-259069000D01*
X89874260Y-259069000D01*
X89940443Y-259075519D01*
X89940443Y-259075519D01*
G37*
G36*
X87400443Y-259075519D02*
G01*
X87466627Y-259082037D01*
X87636466Y-259133557D01*
X87792991Y-259217222D01*
X87828729Y-259246552D01*
X87930186Y-259329814D01*
X88013448Y-259431271D01*
X88042778Y-259467009D01*
X88126443Y-259623534D01*
X88177963Y-259793373D01*
X88195359Y-259970000D01*
X88177963Y-260146627D01*
X88126443Y-260316466D01*
X88042778Y-260472991D01*
X88013448Y-260508729D01*
X87930186Y-260610186D01*
X87828729Y-260693448D01*
X87792991Y-260722778D01*
X87636466Y-260806443D01*
X87466627Y-260857963D01*
X87400443Y-260864481D01*
X87334260Y-260871000D01*
X87245740Y-260871000D01*
X87179557Y-260864481D01*
X87113373Y-260857963D01*
X86943534Y-260806443D01*
X86787009Y-260722778D01*
X86751271Y-260693448D01*
X86649814Y-260610186D01*
X86566552Y-260508729D01*
X86537222Y-260472991D01*
X86453557Y-260316466D01*
X86402037Y-260146627D01*
X86384641Y-259970000D01*
X86402037Y-259793373D01*
X86453557Y-259623534D01*
X86537222Y-259467009D01*
X86566552Y-259431271D01*
X86649814Y-259329814D01*
X86751271Y-259246552D01*
X86787009Y-259217222D01*
X86943534Y-259133557D01*
X87113373Y-259082037D01*
X87179557Y-259075519D01*
X87245740Y-259069000D01*
X87334260Y-259069000D01*
X87400443Y-259075519D01*
X87400443Y-259075519D01*
G37*
G36*
X79860443Y-259075519D02*
G01*
X79926627Y-259082037D01*
X80096466Y-259133557D01*
X80252991Y-259217222D01*
X80288729Y-259246552D01*
X80390186Y-259329814D01*
X80473448Y-259431271D01*
X80502778Y-259467009D01*
X80586443Y-259623534D01*
X80637963Y-259793373D01*
X80655359Y-259970000D01*
X80637963Y-260146627D01*
X80586443Y-260316466D01*
X80502778Y-260472991D01*
X80473448Y-260508729D01*
X80390186Y-260610186D01*
X80288729Y-260693448D01*
X80252991Y-260722778D01*
X80096466Y-260806443D01*
X79926627Y-260857963D01*
X79860443Y-260864481D01*
X79794260Y-260871000D01*
X79705740Y-260871000D01*
X79639557Y-260864481D01*
X79573373Y-260857963D01*
X79403534Y-260806443D01*
X79247009Y-260722778D01*
X79211271Y-260693448D01*
X79109814Y-260610186D01*
X79026552Y-260508729D01*
X78997222Y-260472991D01*
X78913557Y-260316466D01*
X78862037Y-260146627D01*
X78844641Y-259970000D01*
X78862037Y-259793373D01*
X78913557Y-259623534D01*
X78997222Y-259467009D01*
X79026552Y-259431271D01*
X79109814Y-259329814D01*
X79211271Y-259246552D01*
X79247009Y-259217222D01*
X79403534Y-259133557D01*
X79573373Y-259082037D01*
X79639557Y-259075519D01*
X79705740Y-259069000D01*
X79794260Y-259069000D01*
X79860443Y-259075519D01*
X79860443Y-259075519D01*
G37*
G36*
X115738903Y-249173213D02*
G01*
X115961177Y-249217426D01*
X116379932Y-249390880D01*
X116756802Y-249642696D01*
X117077304Y-249963198D01*
X117329120Y-250340068D01*
X117502574Y-250758823D01*
X117591000Y-251203371D01*
X117591000Y-251656629D01*
X117502574Y-252101177D01*
X117329120Y-252519932D01*
X117077304Y-252896802D01*
X116756802Y-253217304D01*
X116379932Y-253469120D01*
X115961177Y-253642574D01*
X115738903Y-253686787D01*
X115516630Y-253731000D01*
X115063370Y-253731000D01*
X114841097Y-253686787D01*
X114618823Y-253642574D01*
X114200068Y-253469120D01*
X113823198Y-253217304D01*
X113502696Y-252896802D01*
X113250880Y-252519932D01*
X113077426Y-252101177D01*
X112989000Y-251656629D01*
X112989000Y-251203371D01*
X113077426Y-250758823D01*
X113250880Y-250340068D01*
X113502696Y-249963198D01*
X113823198Y-249642696D01*
X114200068Y-249390880D01*
X114618823Y-249217426D01*
X114841097Y-249173213D01*
X115063370Y-249129000D01*
X115516630Y-249129000D01*
X115738903Y-249173213D01*
X115738903Y-249173213D01*
G37*
G36*
X39538903Y-249173213D02*
G01*
X39761177Y-249217426D01*
X40179932Y-249390880D01*
X40556802Y-249642696D01*
X40877304Y-249963198D01*
X41129120Y-250340068D01*
X41302574Y-250758823D01*
X41391000Y-251203371D01*
X41391000Y-251656629D01*
X41302574Y-252101177D01*
X41129120Y-252519932D01*
X40877304Y-252896802D01*
X40556802Y-253217304D01*
X40179932Y-253469120D01*
X39761177Y-253642574D01*
X39538903Y-253686787D01*
X39316630Y-253731000D01*
X38863370Y-253731000D01*
X38641097Y-253686787D01*
X38418823Y-253642574D01*
X38000068Y-253469120D01*
X37623198Y-253217304D01*
X37302696Y-252896802D01*
X37050880Y-252519932D01*
X36877426Y-252101177D01*
X36789000Y-251656629D01*
X36789000Y-251203371D01*
X36877426Y-250758823D01*
X37050880Y-250340068D01*
X37302696Y-249963198D01*
X37623198Y-249642696D01*
X38000068Y-249390880D01*
X38418823Y-249217426D01*
X38641097Y-249173213D01*
X38863370Y-249129000D01*
X39316630Y-249129000D01*
X39538903Y-249173213D01*
X39538903Y-249173213D01*
G37*
M02*
