G04 #@! TF.GenerationSoftware,KiCad,Pcbnew,(5.1.2)-2*
G04 #@! TF.CreationDate,2021-09-09T10:29:02-03:00*
G04 #@! TF.ProjectId,MAG_Plus,4d41475f-506c-4757-932e-6b696361645f,rev?*
G04 #@! TF.SameCoordinates,Original*
G04 #@! TF.FileFunction,Copper,L1,Top*
G04 #@! TF.FilePolarity,Positive*
%FSLAX46Y46*%
G04 Gerber Fmt 4.6, Leading zero omitted, Abs format (unit mm)*
G04 Created by KiCad (PCBNEW (5.1.2)-2) date 2021-09-09 10:29:02*
%MOMM*%
%LPD*%
G04 APERTURE LIST*
%ADD10C,4.500000*%
%ADD11C,0.500000*%
%ADD12C,0.100000*%
%ADD13R,1.000000X1.500000*%
%ADD14R,1.000000X2.510000*%
%ADD15R,3.100000X2.200000*%
%ADD16R,1.500000X0.800000*%
%ADD17R,0.450000X1.450000*%
%ADD18R,0.600000X0.400000*%
%ADD19C,0.800000*%
%ADD20C,0.250000*%
%ADD21C,0.254000*%
G04 APERTURE END LIST*
D10*
X468490000Y-86270000D03*
X553290000Y-47470000D03*
X461790000Y-47470000D03*
X553290000Y-108470000D03*
X546740000Y-53730000D03*
X546740000Y-102230000D03*
X512730000Y-42800000D03*
X512730000Y-113130000D03*
D11*
X496260000Y-94090000D03*
D12*
G36*
X496810000Y-94840000D02*
G01*
X496260000Y-94840000D01*
X496260000Y-94839398D01*
X496235466Y-94839398D01*
X496186635Y-94834588D01*
X496138510Y-94825016D01*
X496091555Y-94810772D01*
X496046222Y-94791995D01*
X496002949Y-94768864D01*
X495962150Y-94741604D01*
X495924221Y-94710476D01*
X495889524Y-94675779D01*
X495858396Y-94637850D01*
X495831136Y-94597051D01*
X495808005Y-94553778D01*
X495789228Y-94508445D01*
X495774984Y-94461490D01*
X495765412Y-94413365D01*
X495760602Y-94364534D01*
X495760602Y-94340000D01*
X495760000Y-94340000D01*
X495760000Y-93840000D01*
X495760602Y-93840000D01*
X495760602Y-93815466D01*
X495765412Y-93766635D01*
X495774984Y-93718510D01*
X495789228Y-93671555D01*
X495808005Y-93626222D01*
X495831136Y-93582949D01*
X495858396Y-93542150D01*
X495889524Y-93504221D01*
X495924221Y-93469524D01*
X495962150Y-93438396D01*
X496002949Y-93411136D01*
X496046222Y-93388005D01*
X496091555Y-93369228D01*
X496138510Y-93354984D01*
X496186635Y-93345412D01*
X496235466Y-93340602D01*
X496260000Y-93340602D01*
X496260000Y-93340000D01*
X496810000Y-93340000D01*
X496810000Y-94840000D01*
X496810000Y-94840000D01*
G37*
D11*
X498860000Y-94090000D03*
D12*
G36*
X498860000Y-93340602D02*
G01*
X498884534Y-93340602D01*
X498933365Y-93345412D01*
X498981490Y-93354984D01*
X499028445Y-93369228D01*
X499073778Y-93388005D01*
X499117051Y-93411136D01*
X499157850Y-93438396D01*
X499195779Y-93469524D01*
X499230476Y-93504221D01*
X499261604Y-93542150D01*
X499288864Y-93582949D01*
X499311995Y-93626222D01*
X499330772Y-93671555D01*
X499345016Y-93718510D01*
X499354588Y-93766635D01*
X499359398Y-93815466D01*
X499359398Y-93840000D01*
X499360000Y-93840000D01*
X499360000Y-94340000D01*
X499359398Y-94340000D01*
X499359398Y-94364534D01*
X499354588Y-94413365D01*
X499345016Y-94461490D01*
X499330772Y-94508445D01*
X499311995Y-94553778D01*
X499288864Y-94597051D01*
X499261604Y-94637850D01*
X499230476Y-94675779D01*
X499195779Y-94710476D01*
X499157850Y-94741604D01*
X499117051Y-94768864D01*
X499073778Y-94791995D01*
X499028445Y-94810772D01*
X498981490Y-94825016D01*
X498933365Y-94834588D01*
X498884534Y-94839398D01*
X498860000Y-94839398D01*
X498860000Y-94840000D01*
X498310000Y-94840000D01*
X498310000Y-93340000D01*
X498860000Y-93340000D01*
X498860000Y-93340602D01*
X498860000Y-93340602D01*
G37*
D13*
X497560000Y-94090000D03*
D14*
X489170000Y-65025000D03*
X494250000Y-65025000D03*
X499330000Y-65025000D03*
X504410000Y-65025000D03*
X491710000Y-61715000D03*
X496790000Y-61715000D03*
X501870000Y-61715000D03*
D15*
X474335000Y-60405000D03*
X474335000Y-51655000D03*
D16*
X477085000Y-57905000D03*
X477085000Y-56655000D03*
X477085000Y-55405000D03*
X477085000Y-54155000D03*
D11*
X501810000Y-91280000D03*
D12*
G36*
X502360000Y-92030000D02*
G01*
X501810000Y-92030000D01*
X501810000Y-92029398D01*
X501785466Y-92029398D01*
X501736635Y-92024588D01*
X501688510Y-92015016D01*
X501641555Y-92000772D01*
X501596222Y-91981995D01*
X501552949Y-91958864D01*
X501512150Y-91931604D01*
X501474221Y-91900476D01*
X501439524Y-91865779D01*
X501408396Y-91827850D01*
X501381136Y-91787051D01*
X501358005Y-91743778D01*
X501339228Y-91698445D01*
X501324984Y-91651490D01*
X501315412Y-91603365D01*
X501310602Y-91554534D01*
X501310602Y-91530000D01*
X501310000Y-91530000D01*
X501310000Y-91030000D01*
X501310602Y-91030000D01*
X501310602Y-91005466D01*
X501315412Y-90956635D01*
X501324984Y-90908510D01*
X501339228Y-90861555D01*
X501358005Y-90816222D01*
X501381136Y-90772949D01*
X501408396Y-90732150D01*
X501439524Y-90694221D01*
X501474221Y-90659524D01*
X501512150Y-90628396D01*
X501552949Y-90601136D01*
X501596222Y-90578005D01*
X501641555Y-90559228D01*
X501688510Y-90544984D01*
X501736635Y-90535412D01*
X501785466Y-90530602D01*
X501810000Y-90530602D01*
X501810000Y-90530000D01*
X502360000Y-90530000D01*
X502360000Y-92030000D01*
X502360000Y-92030000D01*
G37*
D11*
X504410000Y-91280000D03*
D12*
G36*
X504410000Y-90530602D02*
G01*
X504434534Y-90530602D01*
X504483365Y-90535412D01*
X504531490Y-90544984D01*
X504578445Y-90559228D01*
X504623778Y-90578005D01*
X504667051Y-90601136D01*
X504707850Y-90628396D01*
X504745779Y-90659524D01*
X504780476Y-90694221D01*
X504811604Y-90732150D01*
X504838864Y-90772949D01*
X504861995Y-90816222D01*
X504880772Y-90861555D01*
X504895016Y-90908510D01*
X504904588Y-90956635D01*
X504909398Y-91005466D01*
X504909398Y-91030000D01*
X504910000Y-91030000D01*
X504910000Y-91530000D01*
X504909398Y-91530000D01*
X504909398Y-91554534D01*
X504904588Y-91603365D01*
X504895016Y-91651490D01*
X504880772Y-91698445D01*
X504861995Y-91743778D01*
X504838864Y-91787051D01*
X504811604Y-91827850D01*
X504780476Y-91865779D01*
X504745779Y-91900476D01*
X504707850Y-91931604D01*
X504667051Y-91958864D01*
X504623778Y-91981995D01*
X504578445Y-92000772D01*
X504531490Y-92015016D01*
X504483365Y-92024588D01*
X504434534Y-92029398D01*
X504410000Y-92029398D01*
X504410000Y-92030000D01*
X503860000Y-92030000D01*
X503860000Y-90530000D01*
X504410000Y-90530000D01*
X504410000Y-90530602D01*
X504410000Y-90530602D01*
G37*
D13*
X503110000Y-91280000D03*
D14*
X491690000Y-88025000D03*
X496770000Y-88025000D03*
X501850000Y-88025000D03*
X489150000Y-84715000D03*
X494230000Y-84715000D03*
X499310000Y-84715000D03*
X504390000Y-84715000D03*
D17*
X497420000Y-72910000D03*
X496770000Y-72910000D03*
X496120000Y-72910000D03*
X495470000Y-72910000D03*
X495470000Y-77310000D03*
X496120000Y-77310000D03*
X496770000Y-77310000D03*
X497420000Y-77310000D03*
D18*
X499330000Y-58550000D03*
X499330000Y-59450000D03*
X504420000Y-59440000D03*
X504420000Y-58540000D03*
D13*
X503090000Y-94150000D03*
D11*
X504390000Y-94150000D03*
D12*
G36*
X504390000Y-93400602D02*
G01*
X504414534Y-93400602D01*
X504463365Y-93405412D01*
X504511490Y-93414984D01*
X504558445Y-93429228D01*
X504603778Y-93448005D01*
X504647051Y-93471136D01*
X504687850Y-93498396D01*
X504725779Y-93529524D01*
X504760476Y-93564221D01*
X504791604Y-93602150D01*
X504818864Y-93642949D01*
X504841995Y-93686222D01*
X504860772Y-93731555D01*
X504875016Y-93778510D01*
X504884588Y-93826635D01*
X504889398Y-93875466D01*
X504889398Y-93900000D01*
X504890000Y-93900000D01*
X504890000Y-94400000D01*
X504889398Y-94400000D01*
X504889398Y-94424534D01*
X504884588Y-94473365D01*
X504875016Y-94521490D01*
X504860772Y-94568445D01*
X504841995Y-94613778D01*
X504818864Y-94657051D01*
X504791604Y-94697850D01*
X504760476Y-94735779D01*
X504725779Y-94770476D01*
X504687850Y-94801604D01*
X504647051Y-94828864D01*
X504603778Y-94851995D01*
X504558445Y-94870772D01*
X504511490Y-94885016D01*
X504463365Y-94894588D01*
X504414534Y-94899398D01*
X504390000Y-94899398D01*
X504390000Y-94900000D01*
X503840000Y-94900000D01*
X503840000Y-93400000D01*
X504390000Y-93400000D01*
X504390000Y-93400602D01*
X504390000Y-93400602D01*
G37*
D11*
X501790000Y-94150000D03*
D12*
G36*
X502340000Y-94900000D02*
G01*
X501790000Y-94900000D01*
X501790000Y-94899398D01*
X501765466Y-94899398D01*
X501716635Y-94894588D01*
X501668510Y-94885016D01*
X501621555Y-94870772D01*
X501576222Y-94851995D01*
X501532949Y-94828864D01*
X501492150Y-94801604D01*
X501454221Y-94770476D01*
X501419524Y-94735779D01*
X501388396Y-94697850D01*
X501361136Y-94657051D01*
X501338005Y-94613778D01*
X501319228Y-94568445D01*
X501304984Y-94521490D01*
X501295412Y-94473365D01*
X501290602Y-94424534D01*
X501290602Y-94400000D01*
X501290000Y-94400000D01*
X501290000Y-93900000D01*
X501290602Y-93900000D01*
X501290602Y-93875466D01*
X501295412Y-93826635D01*
X501304984Y-93778510D01*
X501319228Y-93731555D01*
X501338005Y-93686222D01*
X501361136Y-93642949D01*
X501388396Y-93602150D01*
X501419524Y-93564221D01*
X501454221Y-93529524D01*
X501492150Y-93498396D01*
X501532949Y-93471136D01*
X501576222Y-93448005D01*
X501621555Y-93429228D01*
X501668510Y-93414984D01*
X501716635Y-93405412D01*
X501765466Y-93400602D01*
X501790000Y-93400602D01*
X501790000Y-93400000D01*
X502340000Y-93400000D01*
X502340000Y-94900000D01*
X502340000Y-94900000D01*
G37*
D13*
X497570000Y-96920000D03*
D11*
X498870000Y-96920000D03*
D12*
G36*
X498870000Y-96170602D02*
G01*
X498894534Y-96170602D01*
X498943365Y-96175412D01*
X498991490Y-96184984D01*
X499038445Y-96199228D01*
X499083778Y-96218005D01*
X499127051Y-96241136D01*
X499167850Y-96268396D01*
X499205779Y-96299524D01*
X499240476Y-96334221D01*
X499271604Y-96372150D01*
X499298864Y-96412949D01*
X499321995Y-96456222D01*
X499340772Y-96501555D01*
X499355016Y-96548510D01*
X499364588Y-96596635D01*
X499369398Y-96645466D01*
X499369398Y-96670000D01*
X499370000Y-96670000D01*
X499370000Y-97170000D01*
X499369398Y-97170000D01*
X499369398Y-97194534D01*
X499364588Y-97243365D01*
X499355016Y-97291490D01*
X499340772Y-97338445D01*
X499321995Y-97383778D01*
X499298864Y-97427051D01*
X499271604Y-97467850D01*
X499240476Y-97505779D01*
X499205779Y-97540476D01*
X499167850Y-97571604D01*
X499127051Y-97598864D01*
X499083778Y-97621995D01*
X499038445Y-97640772D01*
X498991490Y-97655016D01*
X498943365Y-97664588D01*
X498894534Y-97669398D01*
X498870000Y-97669398D01*
X498870000Y-97670000D01*
X498320000Y-97670000D01*
X498320000Y-96170000D01*
X498870000Y-96170000D01*
X498870000Y-96170602D01*
X498870000Y-96170602D01*
G37*
D11*
X496270000Y-96920000D03*
D12*
G36*
X496820000Y-97670000D02*
G01*
X496270000Y-97670000D01*
X496270000Y-97669398D01*
X496245466Y-97669398D01*
X496196635Y-97664588D01*
X496148510Y-97655016D01*
X496101555Y-97640772D01*
X496056222Y-97621995D01*
X496012949Y-97598864D01*
X495972150Y-97571604D01*
X495934221Y-97540476D01*
X495899524Y-97505779D01*
X495868396Y-97467850D01*
X495841136Y-97427051D01*
X495818005Y-97383778D01*
X495799228Y-97338445D01*
X495784984Y-97291490D01*
X495775412Y-97243365D01*
X495770602Y-97194534D01*
X495770602Y-97170000D01*
X495770000Y-97170000D01*
X495770000Y-96670000D01*
X495770602Y-96670000D01*
X495770602Y-96645466D01*
X495775412Y-96596635D01*
X495784984Y-96548510D01*
X495799228Y-96501555D01*
X495818005Y-96456222D01*
X495841136Y-96412949D01*
X495868396Y-96372150D01*
X495899524Y-96334221D01*
X495934221Y-96299524D01*
X495972150Y-96268396D01*
X496012949Y-96241136D01*
X496056222Y-96218005D01*
X496101555Y-96199228D01*
X496148510Y-96184984D01*
X496196635Y-96175412D01*
X496245466Y-96170602D01*
X496270000Y-96170602D01*
X496270000Y-96170000D01*
X496820000Y-96170000D01*
X496820000Y-97670000D01*
X496820000Y-97670000D01*
G37*
D11*
X496250000Y-91170000D03*
D12*
G36*
X496800000Y-91920000D02*
G01*
X496250000Y-91920000D01*
X496250000Y-91919398D01*
X496225466Y-91919398D01*
X496176635Y-91914588D01*
X496128510Y-91905016D01*
X496081555Y-91890772D01*
X496036222Y-91871995D01*
X495992949Y-91848864D01*
X495952150Y-91821604D01*
X495914221Y-91790476D01*
X495879524Y-91755779D01*
X495848396Y-91717850D01*
X495821136Y-91677051D01*
X495798005Y-91633778D01*
X495779228Y-91588445D01*
X495764984Y-91541490D01*
X495755412Y-91493365D01*
X495750602Y-91444534D01*
X495750602Y-91420000D01*
X495750000Y-91420000D01*
X495750000Y-90920000D01*
X495750602Y-90920000D01*
X495750602Y-90895466D01*
X495755412Y-90846635D01*
X495764984Y-90798510D01*
X495779228Y-90751555D01*
X495798005Y-90706222D01*
X495821136Y-90662949D01*
X495848396Y-90622150D01*
X495879524Y-90584221D01*
X495914221Y-90549524D01*
X495952150Y-90518396D01*
X495992949Y-90491136D01*
X496036222Y-90468005D01*
X496081555Y-90449228D01*
X496128510Y-90434984D01*
X496176635Y-90425412D01*
X496225466Y-90420602D01*
X496250000Y-90420602D01*
X496250000Y-90420000D01*
X496800000Y-90420000D01*
X496800000Y-91920000D01*
X496800000Y-91920000D01*
G37*
D11*
X498850000Y-91170000D03*
D12*
G36*
X498850000Y-90420602D02*
G01*
X498874534Y-90420602D01*
X498923365Y-90425412D01*
X498971490Y-90434984D01*
X499018445Y-90449228D01*
X499063778Y-90468005D01*
X499107051Y-90491136D01*
X499147850Y-90518396D01*
X499185779Y-90549524D01*
X499220476Y-90584221D01*
X499251604Y-90622150D01*
X499278864Y-90662949D01*
X499301995Y-90706222D01*
X499320772Y-90751555D01*
X499335016Y-90798510D01*
X499344588Y-90846635D01*
X499349398Y-90895466D01*
X499349398Y-90920000D01*
X499350000Y-90920000D01*
X499350000Y-91420000D01*
X499349398Y-91420000D01*
X499349398Y-91444534D01*
X499344588Y-91493365D01*
X499335016Y-91541490D01*
X499320772Y-91588445D01*
X499301995Y-91633778D01*
X499278864Y-91677051D01*
X499251604Y-91717850D01*
X499220476Y-91755779D01*
X499185779Y-91790476D01*
X499147850Y-91821604D01*
X499107051Y-91848864D01*
X499063778Y-91871995D01*
X499018445Y-91890772D01*
X498971490Y-91905016D01*
X498923365Y-91914588D01*
X498874534Y-91919398D01*
X498850000Y-91919398D01*
X498850000Y-91920000D01*
X498300000Y-91920000D01*
X498300000Y-90420000D01*
X498850000Y-90420000D01*
X498850000Y-90420602D01*
X498850000Y-90420602D01*
G37*
D13*
X497550000Y-91170000D03*
D19*
X498700000Y-55440000D03*
X499945000Y-62600000D03*
X507350000Y-92220000D03*
X504740000Y-87450000D03*
X499760000Y-88650000D03*
X501840000Y-97150000D03*
X494220000Y-70260000D03*
X489580000Y-68540000D03*
X494230002Y-86930000D03*
X494770000Y-92630000D03*
D20*
X504410000Y-65025000D02*
X504410000Y-59450000D01*
X504410000Y-59450000D02*
X504420000Y-59440000D01*
X497410000Y-59600000D02*
X497829990Y-60019990D01*
X503200000Y-63350000D02*
X504410000Y-64560000D01*
X498640000Y-67370000D02*
X499830000Y-67370000D01*
X500670000Y-59940000D02*
X501180000Y-59430000D01*
X498330000Y-71850000D02*
X495964999Y-69484999D01*
X502710000Y-59430000D02*
X503200000Y-59920000D01*
X503200000Y-59920000D02*
X503200000Y-63350000D01*
X501180000Y-59430000D02*
X502710000Y-59430000D01*
X495964999Y-69484999D02*
X495964999Y-59915001D01*
X497829990Y-66559990D02*
X498640000Y-67370000D01*
X500670000Y-66530000D02*
X500670000Y-59940000D01*
X496280000Y-59600000D02*
X497410000Y-59600000D01*
X497829990Y-60019990D02*
X497829990Y-66559990D01*
X497900000Y-74430000D02*
X498330000Y-74000000D01*
X498330000Y-74000000D02*
X498330000Y-71850000D01*
X496770000Y-73950000D02*
X497250000Y-74430000D01*
X496770000Y-72910000D02*
X496770000Y-73950000D01*
X499830000Y-67370000D02*
X500670000Y-66530000D01*
X495964999Y-59915001D02*
X496280000Y-59600000D01*
X504410000Y-64560000D02*
X504410000Y-65025000D01*
X497250000Y-74430000D02*
X497900000Y-74430000D01*
X478085000Y-56655000D02*
X478510000Y-56230000D01*
X477085000Y-56655000D02*
X478085000Y-56655000D01*
X478510000Y-56230000D02*
X504780000Y-56230000D01*
X504780000Y-56230000D02*
X506790000Y-58240000D01*
X506790000Y-58240000D02*
X506790000Y-63760000D01*
X505525000Y-65025000D02*
X504410000Y-65025000D01*
X506790000Y-63760000D02*
X505525000Y-65025000D01*
X497556411Y-59110000D02*
X496030000Y-59110000D01*
X497420000Y-71935000D02*
X497420000Y-72910000D01*
X495270000Y-69785000D02*
X497420000Y-71935000D01*
X496030000Y-59110000D02*
X495270000Y-59870000D01*
X498940000Y-60493589D02*
X497556411Y-59110000D01*
X499330000Y-65025000D02*
X498940000Y-64635000D01*
X495270000Y-59870000D02*
X495270000Y-69785000D01*
X498940000Y-64635000D02*
X498940000Y-60493589D01*
X499330000Y-65025000D02*
X499330000Y-59450000D01*
X477085000Y-55405000D02*
X498665000Y-55405000D01*
X498665000Y-55405000D02*
X498700000Y-55440000D01*
X499945000Y-64410000D02*
X499330000Y-65025000D01*
X499945000Y-62600000D02*
X499945000Y-64410000D01*
X504390000Y-94150000D02*
X505420000Y-94150000D01*
X505420000Y-94150000D02*
X507350000Y-92220000D01*
X504740000Y-85065000D02*
X504390000Y-84715000D01*
X504740000Y-87450000D02*
X504740000Y-85065000D01*
X498850000Y-91170000D02*
X498850000Y-89560000D01*
X498850000Y-89560000D02*
X499760000Y-88650000D01*
X499100000Y-97150000D02*
X498870000Y-96920000D01*
X501840000Y-97150000D02*
X499100000Y-97150000D01*
X495470000Y-72910000D02*
X495470000Y-71510000D01*
X495470000Y-71510000D02*
X494220000Y-70260000D01*
X489220000Y-65075000D02*
X489170000Y-65025000D01*
X489580000Y-68540000D02*
X489220000Y-68180000D01*
X489220000Y-68180000D02*
X489220000Y-65075000D01*
X494010000Y-84935000D02*
X494230000Y-84715000D01*
X499310000Y-84715000D02*
X499310000Y-81110000D01*
X497420000Y-79220000D02*
X497420000Y-77310000D01*
X499310000Y-81110000D02*
X497420000Y-79220000D01*
X501850000Y-86520000D02*
X501850000Y-88025000D01*
X501850000Y-86505000D02*
X501850000Y-86520000D01*
X500060000Y-84715000D02*
X501850000Y-86505000D01*
X499310000Y-84715000D02*
X500060000Y-84715000D01*
X504410000Y-58550000D02*
X504420000Y-58540000D01*
X499330000Y-58550000D02*
X504410000Y-58550000D01*
X501790000Y-91300000D02*
X501810000Y-91280000D01*
X501790000Y-94150000D02*
X501790000Y-91300000D01*
X501810000Y-91280000D02*
X501810000Y-88065000D01*
X501810000Y-88065000D02*
X501850000Y-88025000D01*
X498780000Y-58550000D02*
X499330000Y-58550000D01*
X497420000Y-76335000D02*
X496955000Y-75870000D01*
X492830000Y-61190000D02*
X495470000Y-58550000D01*
X492830000Y-73600000D02*
X492830000Y-61190000D01*
X497420000Y-77310000D02*
X497420000Y-76335000D01*
X495470000Y-58550000D02*
X498780000Y-58550000D01*
X495100000Y-75870000D02*
X492830000Y-73600000D01*
X496955000Y-75870000D02*
X495100000Y-75870000D01*
X496270000Y-94100000D02*
X496260000Y-94090000D01*
X496270000Y-96920000D02*
X496270000Y-94100000D01*
X496260000Y-94590000D02*
X496260000Y-94090000D01*
X497080000Y-95410000D02*
X496260000Y-94590000D01*
X501790000Y-94150000D02*
X500530000Y-95410000D01*
X500530000Y-95410000D02*
X497080000Y-95410000D01*
X499330000Y-57970000D02*
X499330000Y-58550000D01*
X478675000Y-57905000D02*
X479320000Y-58550000D01*
X477085000Y-57905000D02*
X478675000Y-57905000D01*
X479320000Y-58550000D02*
X494350000Y-58550000D01*
X494350000Y-58550000D02*
X495620000Y-57280000D01*
X495620000Y-57280000D02*
X498640000Y-57280000D01*
X498640000Y-57280000D02*
X499330000Y-57970000D01*
X494230000Y-84715000D02*
X494230000Y-86929998D01*
X494230000Y-86929998D02*
X494230002Y-86930000D01*
X494230000Y-86220000D02*
X494230000Y-84715000D01*
X495890000Y-91190000D02*
X495400022Y-90700022D01*
X494230000Y-87893589D02*
X494230000Y-86220000D01*
X495400022Y-89063611D02*
X494230000Y-87893589D01*
X495400022Y-90700022D02*
X495400022Y-89063611D01*
X496260000Y-94090000D02*
X494800000Y-92630000D01*
X494800000Y-92630000D02*
X494770000Y-92630000D01*
X503110000Y-75530000D02*
X496790000Y-69210000D01*
X503110000Y-91280000D02*
X503110000Y-75530000D01*
X496790000Y-69210000D02*
X496790000Y-61715000D01*
X501870000Y-61715000D02*
X501870000Y-71820000D01*
X501870000Y-71820000D02*
X505890000Y-75840000D01*
X505890000Y-75840000D02*
X505890000Y-91620000D01*
X503090000Y-93150000D02*
X503090000Y-94150000D01*
X505890000Y-91620000D02*
X504760000Y-92750000D01*
X504760000Y-92750000D02*
X503490000Y-92750000D01*
X503490000Y-92750000D02*
X503090000Y-93150000D01*
X497190000Y-91190000D02*
X497190000Y-90780000D01*
X496770000Y-78285000D02*
X496770000Y-77310000D01*
X496770000Y-85686410D02*
X496770000Y-78285000D01*
X497550000Y-91170000D02*
X497550000Y-90170000D01*
X497210000Y-89830000D02*
X496240000Y-89830000D01*
X496240000Y-89830000D02*
X495870000Y-89460000D01*
X497550000Y-90170000D02*
X497210000Y-89830000D01*
X495870000Y-89460000D02*
X495870000Y-86586410D01*
X495870000Y-86586410D02*
X496770000Y-85686410D01*
X495470000Y-78285000D02*
X495470000Y-77310000D01*
X495470000Y-79050000D02*
X495470000Y-78285000D01*
X492630000Y-81890000D02*
X495470000Y-79050000D01*
X494044998Y-89124998D02*
X492630000Y-87710000D01*
X497570000Y-97920000D02*
X497020000Y-98470000D01*
X494044998Y-92958001D02*
X494044998Y-89124998D01*
X497570000Y-96920000D02*
X497570000Y-97920000D01*
X492630000Y-87710000D02*
X492630000Y-81890000D01*
X497020000Y-98470000D02*
X495960000Y-98470000D01*
X495960000Y-98470000D02*
X494950000Y-97460000D01*
X494950000Y-97460000D02*
X494950000Y-93863003D01*
X494950000Y-93863003D02*
X494044998Y-92958001D01*
X496120000Y-78285000D02*
X496120000Y-77310000D01*
X493100000Y-83250000D02*
X496120000Y-80230000D01*
X494950011Y-89250011D02*
X493100000Y-87400000D01*
X495978661Y-92311999D02*
X494950011Y-91283349D01*
X496781999Y-92311999D02*
X495978661Y-92311999D01*
X497560000Y-93090000D02*
X496781999Y-92311999D01*
X496120000Y-80230000D02*
X496120000Y-78285000D01*
X494950011Y-91283349D02*
X494950011Y-89250011D01*
X493100000Y-87400000D02*
X493100000Y-83250000D01*
X497560000Y-94090000D02*
X497560000Y-93090000D01*
D21*
G36*
X555830000Y-46078516D02*
G01*
X555530926Y-45630920D01*
X555129080Y-45229074D01*
X554656560Y-44913346D01*
X554131523Y-44695869D01*
X553574148Y-44585000D01*
X553005852Y-44585000D01*
X552448477Y-44695869D01*
X551923440Y-44913346D01*
X551450920Y-45229074D01*
X551049074Y-45630920D01*
X550733346Y-46103440D01*
X550515869Y-46628477D01*
X550405000Y-47185852D01*
X550405000Y-47754148D01*
X550515869Y-48311523D01*
X550733346Y-48836560D01*
X551049074Y-49309080D01*
X551450920Y-49710926D01*
X551923440Y-50026654D01*
X552448477Y-50244131D01*
X553005852Y-50355000D01*
X553574148Y-50355000D01*
X554131523Y-50244131D01*
X554656560Y-50026654D01*
X555129080Y-49710926D01*
X555530926Y-49309080D01*
X555830000Y-48861484D01*
X555830001Y-107078517D01*
X555530926Y-106630920D01*
X555129080Y-106229074D01*
X554656560Y-105913346D01*
X554131523Y-105695869D01*
X553574148Y-105585000D01*
X553005852Y-105585000D01*
X552448477Y-105695869D01*
X551923440Y-105913346D01*
X551450920Y-106229074D01*
X551049074Y-106630920D01*
X550733346Y-107103440D01*
X550515869Y-107628477D01*
X550405000Y-108185852D01*
X550405000Y-108754148D01*
X550515869Y-109311523D01*
X550733346Y-109836560D01*
X551049074Y-110309080D01*
X551450920Y-110710926D01*
X551923440Y-111026654D01*
X552448477Y-111244131D01*
X553005852Y-111355000D01*
X553574148Y-111355000D01*
X554131523Y-111244131D01*
X554656560Y-111026654D01*
X555129080Y-110710926D01*
X555530926Y-110309080D01*
X555830001Y-109861483D01*
X555830001Y-118610000D01*
X494330448Y-118610000D01*
X494334369Y-112845852D01*
X509845000Y-112845852D01*
X509845000Y-113414148D01*
X509955869Y-113971523D01*
X510173346Y-114496560D01*
X510489074Y-114969080D01*
X510890920Y-115370926D01*
X511363440Y-115686654D01*
X511888477Y-115904131D01*
X512445852Y-116015000D01*
X513014148Y-116015000D01*
X513571523Y-115904131D01*
X514096560Y-115686654D01*
X514569080Y-115370926D01*
X514970926Y-114969080D01*
X515286654Y-114496560D01*
X515504131Y-113971523D01*
X515615000Y-113414148D01*
X515615000Y-112845852D01*
X515504131Y-112288477D01*
X515286654Y-111763440D01*
X514970926Y-111290920D01*
X514569080Y-110889074D01*
X514096560Y-110573346D01*
X513571523Y-110355869D01*
X513014148Y-110245000D01*
X512445852Y-110245000D01*
X511888477Y-110355869D01*
X511363440Y-110573346D01*
X510890920Y-110889074D01*
X510489074Y-111290920D01*
X510173346Y-111763440D01*
X509955869Y-112288477D01*
X509845000Y-112845852D01*
X494334369Y-112845852D01*
X494341784Y-101945852D01*
X543855000Y-101945852D01*
X543855000Y-102514148D01*
X543965869Y-103071523D01*
X544183346Y-103596560D01*
X544499074Y-104069080D01*
X544900920Y-104470926D01*
X545373440Y-104786654D01*
X545898477Y-105004131D01*
X546455852Y-105115000D01*
X547024148Y-105115000D01*
X547581523Y-105004131D01*
X548106560Y-104786654D01*
X548579080Y-104470926D01*
X548980926Y-104069080D01*
X549296654Y-103596560D01*
X549514131Y-103071523D01*
X549625000Y-102514148D01*
X549625000Y-101945852D01*
X549514131Y-101388477D01*
X549296654Y-100863440D01*
X548980926Y-100390920D01*
X548579080Y-99989074D01*
X548106560Y-99673346D01*
X547581523Y-99455869D01*
X547024148Y-99345000D01*
X546455852Y-99345000D01*
X545898477Y-99455869D01*
X545373440Y-99673346D01*
X544900920Y-99989074D01*
X544499074Y-100390920D01*
X544183346Y-100863440D01*
X543965869Y-101388477D01*
X543855000Y-101945852D01*
X494341784Y-101945852D01*
X494344523Y-97920217D01*
X494409999Y-98000001D01*
X494439002Y-98023804D01*
X495396201Y-98981003D01*
X495419999Y-99010001D01*
X495535724Y-99104974D01*
X495667753Y-99175546D01*
X495811014Y-99219003D01*
X495922667Y-99230000D01*
X495922675Y-99230000D01*
X495960000Y-99233676D01*
X495997325Y-99230000D01*
X496982678Y-99230000D01*
X497020000Y-99233676D01*
X497057322Y-99230000D01*
X497057333Y-99230000D01*
X497168986Y-99219003D01*
X497312247Y-99175546D01*
X497444276Y-99104974D01*
X497560001Y-99010001D01*
X497583803Y-98980998D01*
X498081007Y-98483795D01*
X498110001Y-98460001D01*
X498133795Y-98431008D01*
X498133799Y-98431004D01*
X498204973Y-98344277D01*
X498217407Y-98321015D01*
X498237923Y-98282634D01*
X498314180Y-98259502D01*
X498424494Y-98200537D01*
X498521185Y-98121185D01*
X498600537Y-98024494D01*
X498659502Y-97914180D01*
X498695812Y-97794482D01*
X498708072Y-97670000D01*
X498708072Y-96170000D01*
X500492678Y-96170000D01*
X500530000Y-96173676D01*
X500567322Y-96170000D01*
X500567333Y-96170000D01*
X500678986Y-96159003D01*
X500822247Y-96115546D01*
X500954276Y-96044974D01*
X501070001Y-95950001D01*
X501093804Y-95920997D01*
X501512814Y-95501988D01*
X501520377Y-95504282D01*
X501616510Y-95523404D01*
X501740991Y-95535664D01*
X501765550Y-95535664D01*
X501790000Y-95538072D01*
X502340000Y-95538072D01*
X502464482Y-95525812D01*
X502465000Y-95525655D01*
X502465518Y-95525812D01*
X502590000Y-95538072D01*
X503590000Y-95538072D01*
X503714482Y-95525812D01*
X503834180Y-95489502D01*
X503944494Y-95430537D01*
X504041185Y-95351185D01*
X504120537Y-95254494D01*
X504179502Y-95144180D01*
X504215812Y-95024482D01*
X504228072Y-94900000D01*
X504228072Y-93510000D01*
X504722678Y-93510000D01*
X504760000Y-93513676D01*
X504797322Y-93510000D01*
X504797333Y-93510000D01*
X504908986Y-93499003D01*
X505052247Y-93455546D01*
X505184276Y-93384974D01*
X505300001Y-93290001D01*
X505323804Y-93260998D01*
X506401003Y-92183799D01*
X506430001Y-92160001D01*
X506524974Y-92044276D01*
X506595546Y-91912247D01*
X506639003Y-91768986D01*
X506650000Y-91657333D01*
X506650000Y-91657324D01*
X506653676Y-91620001D01*
X506650000Y-91582678D01*
X506650000Y-75877333D01*
X506653677Y-75840000D01*
X506639003Y-75691014D01*
X506595546Y-75547753D01*
X506524974Y-75415724D01*
X506453799Y-75328997D01*
X506430001Y-75299999D01*
X506401004Y-75276202D01*
X502630000Y-71505199D01*
X502630000Y-63853446D01*
X502660000Y-63890001D01*
X502688998Y-63913799D01*
X503271928Y-64496730D01*
X503271928Y-66280000D01*
X503284188Y-66404482D01*
X503320498Y-66524180D01*
X503379463Y-66634494D01*
X503458815Y-66731185D01*
X503555506Y-66810537D01*
X503665820Y-66869502D01*
X503785518Y-66905812D01*
X503910000Y-66918072D01*
X504910000Y-66918072D01*
X505034482Y-66905812D01*
X505154180Y-66869502D01*
X505264494Y-66810537D01*
X505361185Y-66731185D01*
X505440537Y-66634494D01*
X505499502Y-66524180D01*
X505535812Y-66404482D01*
X505548072Y-66280000D01*
X505548072Y-65786404D01*
X505562322Y-65785000D01*
X505562333Y-65785000D01*
X505673986Y-65774003D01*
X505817247Y-65730546D01*
X505949276Y-65659974D01*
X506065001Y-65565001D01*
X506088804Y-65535997D01*
X507301003Y-64323799D01*
X507330001Y-64300001D01*
X507403269Y-64210724D01*
X507424974Y-64184277D01*
X507495546Y-64052247D01*
X507515725Y-63985725D01*
X507539003Y-63908986D01*
X507550000Y-63797333D01*
X507550000Y-63797324D01*
X507553676Y-63760001D01*
X507550000Y-63722678D01*
X507550000Y-58277322D01*
X507553676Y-58239999D01*
X507550000Y-58202676D01*
X507550000Y-58202667D01*
X507539003Y-58091014D01*
X507495546Y-57947753D01*
X507424974Y-57815724D01*
X507330001Y-57699999D01*
X507301004Y-57676202D01*
X505343804Y-55719003D01*
X505320001Y-55689999D01*
X505204276Y-55595026D01*
X505072247Y-55524454D01*
X504928986Y-55480997D01*
X504817333Y-55470000D01*
X504817322Y-55470000D01*
X504780000Y-55466324D01*
X504742678Y-55470000D01*
X499735000Y-55470000D01*
X499735000Y-55338061D01*
X499695226Y-55138102D01*
X499617205Y-54949744D01*
X499503937Y-54780226D01*
X499359774Y-54636063D01*
X499190256Y-54522795D01*
X499001898Y-54444774D01*
X498801939Y-54405000D01*
X498598061Y-54405000D01*
X498398102Y-54444774D01*
X498209744Y-54522795D01*
X498040226Y-54636063D01*
X498031289Y-54645000D01*
X478464208Y-54645000D01*
X478473072Y-54555000D01*
X478470000Y-54440750D01*
X478311250Y-54282000D01*
X477212000Y-54282000D01*
X477212000Y-54302000D01*
X476958000Y-54302000D01*
X476958000Y-54282000D01*
X475858750Y-54282000D01*
X475700000Y-54440750D01*
X475696928Y-54555000D01*
X475709188Y-54679482D01*
X475739680Y-54780000D01*
X475709188Y-54880518D01*
X475696928Y-55005000D01*
X475696928Y-55805000D01*
X475709188Y-55929482D01*
X475739680Y-56030000D01*
X475709188Y-56130518D01*
X475696928Y-56255000D01*
X475696928Y-57055000D01*
X475709188Y-57179482D01*
X475739680Y-57280000D01*
X475709188Y-57380518D01*
X475696928Y-57505000D01*
X475696928Y-58305000D01*
X475709188Y-58429482D01*
X475745498Y-58549180D01*
X475804463Y-58659494D01*
X475810564Y-58666928D01*
X472785000Y-58666928D01*
X472660518Y-58679188D01*
X472540820Y-58715498D01*
X472430506Y-58774463D01*
X472333815Y-58853815D01*
X472254463Y-58950506D01*
X472195498Y-59060820D01*
X472159188Y-59180518D01*
X472146928Y-59305000D01*
X472146928Y-61505000D01*
X472159188Y-61629482D01*
X472195498Y-61749180D01*
X472254463Y-61859494D01*
X472333815Y-61956185D01*
X472430506Y-62035537D01*
X472540820Y-62094502D01*
X472660518Y-62130812D01*
X472785000Y-62143072D01*
X475885000Y-62143072D01*
X476009482Y-62130812D01*
X476129180Y-62094502D01*
X476239494Y-62035537D01*
X476336185Y-61956185D01*
X476415537Y-61859494D01*
X476474502Y-61749180D01*
X476510812Y-61629482D01*
X476523072Y-61505000D01*
X476523072Y-59305000D01*
X476510812Y-59180518D01*
X476474502Y-59060820D01*
X476415537Y-58950506D01*
X476409436Y-58943072D01*
X477835000Y-58943072D01*
X477959482Y-58930812D01*
X478079180Y-58894502D01*
X478189494Y-58835537D01*
X478286185Y-58756185D01*
X478360649Y-58665450D01*
X478756200Y-59061002D01*
X478779999Y-59090001D01*
X478895724Y-59184974D01*
X479027753Y-59255546D01*
X479171014Y-59299003D01*
X479282667Y-59310000D01*
X479282675Y-59310000D01*
X479320000Y-59313676D01*
X479357325Y-59310000D01*
X493635198Y-59310000D01*
X492775076Y-60170123D01*
X492740537Y-60105506D01*
X492661185Y-60008815D01*
X492564494Y-59929463D01*
X492454180Y-59870498D01*
X492334482Y-59834188D01*
X492210000Y-59821928D01*
X491210000Y-59821928D01*
X491085518Y-59834188D01*
X490965820Y-59870498D01*
X490855506Y-59929463D01*
X490758815Y-60008815D01*
X490679463Y-60105506D01*
X490620498Y-60215820D01*
X490584188Y-60335518D01*
X490571928Y-60460000D01*
X490571928Y-62970000D01*
X490584188Y-63094482D01*
X490620498Y-63214180D01*
X490679463Y-63324494D01*
X490758815Y-63421185D01*
X490855506Y-63500537D01*
X490965820Y-63559502D01*
X491085518Y-63595812D01*
X491210000Y-63608072D01*
X492070001Y-63608072D01*
X492070000Y-73562678D01*
X492066324Y-73600000D01*
X492070000Y-73637322D01*
X492070000Y-73637332D01*
X492080997Y-73748985D01*
X492096780Y-73801015D01*
X492124454Y-73892246D01*
X492195026Y-74024276D01*
X492205742Y-74037333D01*
X492289999Y-74140001D01*
X492319003Y-74163804D01*
X494536200Y-76381002D01*
X494559999Y-76410001D01*
X494619660Y-76458963D01*
X494619188Y-76460518D01*
X494606928Y-76585000D01*
X494606928Y-78035000D01*
X494619188Y-78159482D01*
X494655498Y-78279180D01*
X494710000Y-78381144D01*
X494710000Y-78735198D01*
X492118998Y-81326201D01*
X492090000Y-81349999D01*
X492066202Y-81378997D01*
X492066201Y-81378998D01*
X491995026Y-81465724D01*
X491924454Y-81597754D01*
X491880998Y-81741015D01*
X491866324Y-81890000D01*
X491870001Y-81927332D01*
X491870000Y-86131928D01*
X491190000Y-86131928D01*
X491065518Y-86144188D01*
X490945820Y-86180498D01*
X490835506Y-86239463D01*
X490738815Y-86318815D01*
X490659463Y-86415506D01*
X490600498Y-86525820D01*
X490564188Y-86645518D01*
X490551928Y-86770000D01*
X490551928Y-89210000D01*
X459150000Y-89210000D01*
X459150000Y-85985852D01*
X465605000Y-85985852D01*
X465605000Y-86554148D01*
X465715869Y-87111523D01*
X465933346Y-87636560D01*
X466249074Y-88109080D01*
X466650920Y-88510926D01*
X467123440Y-88826654D01*
X467648477Y-89044131D01*
X468205852Y-89155000D01*
X468774148Y-89155000D01*
X469331523Y-89044131D01*
X469856560Y-88826654D01*
X470329080Y-88510926D01*
X470730926Y-88109080D01*
X471046654Y-87636560D01*
X471264131Y-87111523D01*
X471375000Y-86554148D01*
X471375000Y-85985852D01*
X471264131Y-85428477D01*
X471046654Y-84903440D01*
X470730926Y-84430920D01*
X470329080Y-84029074D01*
X469856560Y-83713346D01*
X469331523Y-83495869D01*
X469151198Y-83460000D01*
X488011928Y-83460000D01*
X488011928Y-85970000D01*
X488024188Y-86094482D01*
X488060498Y-86214180D01*
X488119463Y-86324494D01*
X488198815Y-86421185D01*
X488295506Y-86500537D01*
X488405820Y-86559502D01*
X488525518Y-86595812D01*
X488650000Y-86608072D01*
X489650000Y-86608072D01*
X489774482Y-86595812D01*
X489894180Y-86559502D01*
X490004494Y-86500537D01*
X490101185Y-86421185D01*
X490180537Y-86324494D01*
X490239502Y-86214180D01*
X490275812Y-86094482D01*
X490288072Y-85970000D01*
X490288072Y-83460000D01*
X490275812Y-83335518D01*
X490239502Y-83215820D01*
X490180537Y-83105506D01*
X490101185Y-83008815D01*
X490004494Y-82929463D01*
X489894180Y-82870498D01*
X489774482Y-82834188D01*
X489650000Y-82821928D01*
X488650000Y-82821928D01*
X488525518Y-82834188D01*
X488405820Y-82870498D01*
X488295506Y-82929463D01*
X488198815Y-83008815D01*
X488119463Y-83105506D01*
X488060498Y-83215820D01*
X488024188Y-83335518D01*
X488011928Y-83460000D01*
X469151198Y-83460000D01*
X468774148Y-83385000D01*
X468205852Y-83385000D01*
X467648477Y-83495869D01*
X467123440Y-83713346D01*
X466650920Y-84029074D01*
X466249074Y-84430920D01*
X465933346Y-84903440D01*
X465715869Y-85428477D01*
X465605000Y-85985852D01*
X459150000Y-85985852D01*
X459150000Y-66280000D01*
X488031928Y-66280000D01*
X488044188Y-66404482D01*
X488080498Y-66524180D01*
X488139463Y-66634494D01*
X488218815Y-66731185D01*
X488315506Y-66810537D01*
X488425820Y-66869502D01*
X488545518Y-66905812D01*
X488670000Y-66918072D01*
X488884250Y-66915000D01*
X489043000Y-66756250D01*
X489043000Y-65152000D01*
X489297000Y-65152000D01*
X489297000Y-66756250D01*
X489455750Y-66915000D01*
X489670000Y-66918072D01*
X489794482Y-66905812D01*
X489914180Y-66869502D01*
X490024494Y-66810537D01*
X490121185Y-66731185D01*
X490200537Y-66634494D01*
X490259502Y-66524180D01*
X490295812Y-66404482D01*
X490308072Y-66280000D01*
X490305000Y-65310750D01*
X490146250Y-65152000D01*
X489297000Y-65152000D01*
X489043000Y-65152000D01*
X488193750Y-65152000D01*
X488035000Y-65310750D01*
X488031928Y-66280000D01*
X459150000Y-66280000D01*
X459150000Y-63770000D01*
X488031928Y-63770000D01*
X488035000Y-64739250D01*
X488193750Y-64898000D01*
X489043000Y-64898000D01*
X489043000Y-63293750D01*
X489297000Y-63293750D01*
X489297000Y-64898000D01*
X490146250Y-64898000D01*
X490305000Y-64739250D01*
X490308072Y-63770000D01*
X490295812Y-63645518D01*
X490259502Y-63525820D01*
X490200537Y-63415506D01*
X490121185Y-63318815D01*
X490024494Y-63239463D01*
X489914180Y-63180498D01*
X489794482Y-63144188D01*
X489670000Y-63131928D01*
X489455750Y-63135000D01*
X489297000Y-63293750D01*
X489043000Y-63293750D01*
X488884250Y-63135000D01*
X488670000Y-63131928D01*
X488545518Y-63144188D01*
X488425820Y-63180498D01*
X488315506Y-63239463D01*
X488218815Y-63318815D01*
X488139463Y-63415506D01*
X488080498Y-63525820D01*
X488044188Y-63645518D01*
X488031928Y-63770000D01*
X459150000Y-63770000D01*
X459150000Y-50555000D01*
X472146928Y-50555000D01*
X472146928Y-52755000D01*
X472159188Y-52879482D01*
X472195498Y-52999180D01*
X472254463Y-53109494D01*
X472333815Y-53206185D01*
X472430506Y-53285537D01*
X472540820Y-53344502D01*
X472660518Y-53380812D01*
X472785000Y-53393072D01*
X475810564Y-53393072D01*
X475804463Y-53400506D01*
X475745498Y-53510820D01*
X475709188Y-53630518D01*
X475696928Y-53755000D01*
X475700000Y-53869250D01*
X475858750Y-54028000D01*
X476958000Y-54028000D01*
X476958000Y-53278750D01*
X477212000Y-53278750D01*
X477212000Y-54028000D01*
X478311250Y-54028000D01*
X478470000Y-53869250D01*
X478473072Y-53755000D01*
X478460812Y-53630518D01*
X478424502Y-53510820D01*
X478389776Y-53445852D01*
X543855000Y-53445852D01*
X543855000Y-54014148D01*
X543965869Y-54571523D01*
X544183346Y-55096560D01*
X544499074Y-55569080D01*
X544900920Y-55970926D01*
X545373440Y-56286654D01*
X545898477Y-56504131D01*
X546455852Y-56615000D01*
X547024148Y-56615000D01*
X547581523Y-56504131D01*
X548106560Y-56286654D01*
X548579080Y-55970926D01*
X548980926Y-55569080D01*
X549296654Y-55096560D01*
X549514131Y-54571523D01*
X549625000Y-54014148D01*
X549625000Y-53445852D01*
X549514131Y-52888477D01*
X549296654Y-52363440D01*
X548980926Y-51890920D01*
X548579080Y-51489074D01*
X548106560Y-51173346D01*
X547581523Y-50955869D01*
X547024148Y-50845000D01*
X546455852Y-50845000D01*
X545898477Y-50955869D01*
X545373440Y-51173346D01*
X544900920Y-51489074D01*
X544499074Y-51890920D01*
X544183346Y-52363440D01*
X543965869Y-52888477D01*
X543855000Y-53445852D01*
X478389776Y-53445852D01*
X478365537Y-53400506D01*
X478286185Y-53303815D01*
X478189494Y-53224463D01*
X478079180Y-53165498D01*
X477959482Y-53129188D01*
X477835000Y-53116928D01*
X477370750Y-53120000D01*
X477212000Y-53278750D01*
X476958000Y-53278750D01*
X476799250Y-53120000D01*
X476409034Y-53117418D01*
X476415537Y-53109494D01*
X476474502Y-52999180D01*
X476510812Y-52879482D01*
X476523072Y-52755000D01*
X476523072Y-50555000D01*
X476510812Y-50430518D01*
X476474502Y-50310820D01*
X476415537Y-50200506D01*
X476336185Y-50103815D01*
X476239494Y-50024463D01*
X476129180Y-49965498D01*
X476009482Y-49929188D01*
X475885000Y-49916928D01*
X472785000Y-49916928D01*
X472660518Y-49929188D01*
X472540820Y-49965498D01*
X472430506Y-50024463D01*
X472333815Y-50103815D01*
X472254463Y-50200506D01*
X472195498Y-50310820D01*
X472159188Y-50430518D01*
X472146928Y-50555000D01*
X459150000Y-50555000D01*
X459150000Y-48635345D01*
X459233346Y-48836560D01*
X459549074Y-49309080D01*
X459950920Y-49710926D01*
X460423440Y-50026654D01*
X460948477Y-50244131D01*
X461505852Y-50355000D01*
X462074148Y-50355000D01*
X462631523Y-50244131D01*
X463156560Y-50026654D01*
X463629080Y-49710926D01*
X464030926Y-49309080D01*
X464346654Y-48836560D01*
X464564131Y-48311523D01*
X464675000Y-47754148D01*
X464675000Y-47185852D01*
X464564131Y-46628477D01*
X464346654Y-46103440D01*
X464030926Y-45630920D01*
X463629080Y-45229074D01*
X463156560Y-44913346D01*
X462631523Y-44695869D01*
X462074148Y-44585000D01*
X461505852Y-44585000D01*
X460948477Y-44695869D01*
X460423440Y-44913346D01*
X459950920Y-45229074D01*
X459549074Y-45630920D01*
X459233346Y-46103440D01*
X459150000Y-46304655D01*
X459150000Y-42515852D01*
X509845000Y-42515852D01*
X509845000Y-43084148D01*
X509955869Y-43641523D01*
X510173346Y-44166560D01*
X510489074Y-44639080D01*
X510890920Y-45040926D01*
X511363440Y-45356654D01*
X511888477Y-45574131D01*
X512445852Y-45685000D01*
X513014148Y-45685000D01*
X513571523Y-45574131D01*
X514096560Y-45356654D01*
X514569080Y-45040926D01*
X514970926Y-44639080D01*
X515286654Y-44166560D01*
X515504131Y-43641523D01*
X515615000Y-43084148D01*
X515615000Y-42515852D01*
X515504131Y-41958477D01*
X515286654Y-41433440D01*
X514970926Y-40960920D01*
X514569080Y-40559074D01*
X514096560Y-40243346D01*
X513571523Y-40025869D01*
X513014148Y-39915000D01*
X512445852Y-39915000D01*
X511888477Y-40025869D01*
X511363440Y-40243346D01*
X510890920Y-40559074D01*
X510489074Y-40960920D01*
X510173346Y-41433440D01*
X509955869Y-41958477D01*
X509845000Y-42515852D01*
X459150000Y-42515852D01*
X459150000Y-37330000D01*
X555830000Y-37330000D01*
X555830000Y-46078516D01*
X555830000Y-46078516D01*
G37*
X555830000Y-46078516D02*
X555530926Y-45630920D01*
X555129080Y-45229074D01*
X554656560Y-44913346D01*
X554131523Y-44695869D01*
X553574148Y-44585000D01*
X553005852Y-44585000D01*
X552448477Y-44695869D01*
X551923440Y-44913346D01*
X551450920Y-45229074D01*
X551049074Y-45630920D01*
X550733346Y-46103440D01*
X550515869Y-46628477D01*
X550405000Y-47185852D01*
X550405000Y-47754148D01*
X550515869Y-48311523D01*
X550733346Y-48836560D01*
X551049074Y-49309080D01*
X551450920Y-49710926D01*
X551923440Y-50026654D01*
X552448477Y-50244131D01*
X553005852Y-50355000D01*
X553574148Y-50355000D01*
X554131523Y-50244131D01*
X554656560Y-50026654D01*
X555129080Y-49710926D01*
X555530926Y-49309080D01*
X555830000Y-48861484D01*
X555830001Y-107078517D01*
X555530926Y-106630920D01*
X555129080Y-106229074D01*
X554656560Y-105913346D01*
X554131523Y-105695869D01*
X553574148Y-105585000D01*
X553005852Y-105585000D01*
X552448477Y-105695869D01*
X551923440Y-105913346D01*
X551450920Y-106229074D01*
X551049074Y-106630920D01*
X550733346Y-107103440D01*
X550515869Y-107628477D01*
X550405000Y-108185852D01*
X550405000Y-108754148D01*
X550515869Y-109311523D01*
X550733346Y-109836560D01*
X551049074Y-110309080D01*
X551450920Y-110710926D01*
X551923440Y-111026654D01*
X552448477Y-111244131D01*
X553005852Y-111355000D01*
X553574148Y-111355000D01*
X554131523Y-111244131D01*
X554656560Y-111026654D01*
X555129080Y-110710926D01*
X555530926Y-110309080D01*
X555830001Y-109861483D01*
X555830001Y-118610000D01*
X494330448Y-118610000D01*
X494334369Y-112845852D01*
X509845000Y-112845852D01*
X509845000Y-113414148D01*
X509955869Y-113971523D01*
X510173346Y-114496560D01*
X510489074Y-114969080D01*
X510890920Y-115370926D01*
X511363440Y-115686654D01*
X511888477Y-115904131D01*
X512445852Y-116015000D01*
X513014148Y-116015000D01*
X513571523Y-115904131D01*
X514096560Y-115686654D01*
X514569080Y-115370926D01*
X514970926Y-114969080D01*
X515286654Y-114496560D01*
X515504131Y-113971523D01*
X515615000Y-113414148D01*
X515615000Y-112845852D01*
X515504131Y-112288477D01*
X515286654Y-111763440D01*
X514970926Y-111290920D01*
X514569080Y-110889074D01*
X514096560Y-110573346D01*
X513571523Y-110355869D01*
X513014148Y-110245000D01*
X512445852Y-110245000D01*
X511888477Y-110355869D01*
X511363440Y-110573346D01*
X510890920Y-110889074D01*
X510489074Y-111290920D01*
X510173346Y-111763440D01*
X509955869Y-112288477D01*
X509845000Y-112845852D01*
X494334369Y-112845852D01*
X494341784Y-101945852D01*
X543855000Y-101945852D01*
X543855000Y-102514148D01*
X543965869Y-103071523D01*
X544183346Y-103596560D01*
X544499074Y-104069080D01*
X544900920Y-104470926D01*
X545373440Y-104786654D01*
X545898477Y-105004131D01*
X546455852Y-105115000D01*
X547024148Y-105115000D01*
X547581523Y-105004131D01*
X548106560Y-104786654D01*
X548579080Y-104470926D01*
X548980926Y-104069080D01*
X549296654Y-103596560D01*
X549514131Y-103071523D01*
X549625000Y-102514148D01*
X549625000Y-101945852D01*
X549514131Y-101388477D01*
X549296654Y-100863440D01*
X548980926Y-100390920D01*
X548579080Y-99989074D01*
X548106560Y-99673346D01*
X547581523Y-99455869D01*
X547024148Y-99345000D01*
X546455852Y-99345000D01*
X545898477Y-99455869D01*
X545373440Y-99673346D01*
X544900920Y-99989074D01*
X544499074Y-100390920D01*
X544183346Y-100863440D01*
X543965869Y-101388477D01*
X543855000Y-101945852D01*
X494341784Y-101945852D01*
X494344523Y-97920217D01*
X494409999Y-98000001D01*
X494439002Y-98023804D01*
X495396201Y-98981003D01*
X495419999Y-99010001D01*
X495535724Y-99104974D01*
X495667753Y-99175546D01*
X495811014Y-99219003D01*
X495922667Y-99230000D01*
X495922675Y-99230000D01*
X495960000Y-99233676D01*
X495997325Y-99230000D01*
X496982678Y-99230000D01*
X497020000Y-99233676D01*
X497057322Y-99230000D01*
X497057333Y-99230000D01*
X497168986Y-99219003D01*
X497312247Y-99175546D01*
X497444276Y-99104974D01*
X497560001Y-99010001D01*
X497583803Y-98980998D01*
X498081007Y-98483795D01*
X498110001Y-98460001D01*
X498133795Y-98431008D01*
X498133799Y-98431004D01*
X498204973Y-98344277D01*
X498217407Y-98321015D01*
X498237923Y-98282634D01*
X498314180Y-98259502D01*
X498424494Y-98200537D01*
X498521185Y-98121185D01*
X498600537Y-98024494D01*
X498659502Y-97914180D01*
X498695812Y-97794482D01*
X498708072Y-97670000D01*
X498708072Y-96170000D01*
X500492678Y-96170000D01*
X500530000Y-96173676D01*
X500567322Y-96170000D01*
X500567333Y-96170000D01*
X500678986Y-96159003D01*
X500822247Y-96115546D01*
X500954276Y-96044974D01*
X501070001Y-95950001D01*
X501093804Y-95920997D01*
X501512814Y-95501988D01*
X501520377Y-95504282D01*
X501616510Y-95523404D01*
X501740991Y-95535664D01*
X501765550Y-95535664D01*
X501790000Y-95538072D01*
X502340000Y-95538072D01*
X502464482Y-95525812D01*
X502465000Y-95525655D01*
X502465518Y-95525812D01*
X502590000Y-95538072D01*
X503590000Y-95538072D01*
X503714482Y-95525812D01*
X503834180Y-95489502D01*
X503944494Y-95430537D01*
X504041185Y-95351185D01*
X504120537Y-95254494D01*
X504179502Y-95144180D01*
X504215812Y-95024482D01*
X504228072Y-94900000D01*
X504228072Y-93510000D01*
X504722678Y-93510000D01*
X504760000Y-93513676D01*
X504797322Y-93510000D01*
X504797333Y-93510000D01*
X504908986Y-93499003D01*
X505052247Y-93455546D01*
X505184276Y-93384974D01*
X505300001Y-93290001D01*
X505323804Y-93260998D01*
X506401003Y-92183799D01*
X506430001Y-92160001D01*
X506524974Y-92044276D01*
X506595546Y-91912247D01*
X506639003Y-91768986D01*
X506650000Y-91657333D01*
X506650000Y-91657324D01*
X506653676Y-91620001D01*
X506650000Y-91582678D01*
X506650000Y-75877333D01*
X506653677Y-75840000D01*
X506639003Y-75691014D01*
X506595546Y-75547753D01*
X506524974Y-75415724D01*
X506453799Y-75328997D01*
X506430001Y-75299999D01*
X506401004Y-75276202D01*
X502630000Y-71505199D01*
X502630000Y-63853446D01*
X502660000Y-63890001D01*
X502688998Y-63913799D01*
X503271928Y-64496730D01*
X503271928Y-66280000D01*
X503284188Y-66404482D01*
X503320498Y-66524180D01*
X503379463Y-66634494D01*
X503458815Y-66731185D01*
X503555506Y-66810537D01*
X503665820Y-66869502D01*
X503785518Y-66905812D01*
X503910000Y-66918072D01*
X504910000Y-66918072D01*
X505034482Y-66905812D01*
X505154180Y-66869502D01*
X505264494Y-66810537D01*
X505361185Y-66731185D01*
X505440537Y-66634494D01*
X505499502Y-66524180D01*
X505535812Y-66404482D01*
X505548072Y-66280000D01*
X505548072Y-65786404D01*
X505562322Y-65785000D01*
X505562333Y-65785000D01*
X505673986Y-65774003D01*
X505817247Y-65730546D01*
X505949276Y-65659974D01*
X506065001Y-65565001D01*
X506088804Y-65535997D01*
X507301003Y-64323799D01*
X507330001Y-64300001D01*
X507403269Y-64210724D01*
X507424974Y-64184277D01*
X507495546Y-64052247D01*
X507515725Y-63985725D01*
X507539003Y-63908986D01*
X507550000Y-63797333D01*
X507550000Y-63797324D01*
X507553676Y-63760001D01*
X507550000Y-63722678D01*
X507550000Y-58277322D01*
X507553676Y-58239999D01*
X507550000Y-58202676D01*
X507550000Y-58202667D01*
X507539003Y-58091014D01*
X507495546Y-57947753D01*
X507424974Y-57815724D01*
X507330001Y-57699999D01*
X507301004Y-57676202D01*
X505343804Y-55719003D01*
X505320001Y-55689999D01*
X505204276Y-55595026D01*
X505072247Y-55524454D01*
X504928986Y-55480997D01*
X504817333Y-55470000D01*
X504817322Y-55470000D01*
X504780000Y-55466324D01*
X504742678Y-55470000D01*
X499735000Y-55470000D01*
X499735000Y-55338061D01*
X499695226Y-55138102D01*
X499617205Y-54949744D01*
X499503937Y-54780226D01*
X499359774Y-54636063D01*
X499190256Y-54522795D01*
X499001898Y-54444774D01*
X498801939Y-54405000D01*
X498598061Y-54405000D01*
X498398102Y-54444774D01*
X498209744Y-54522795D01*
X498040226Y-54636063D01*
X498031289Y-54645000D01*
X478464208Y-54645000D01*
X478473072Y-54555000D01*
X478470000Y-54440750D01*
X478311250Y-54282000D01*
X477212000Y-54282000D01*
X477212000Y-54302000D01*
X476958000Y-54302000D01*
X476958000Y-54282000D01*
X475858750Y-54282000D01*
X475700000Y-54440750D01*
X475696928Y-54555000D01*
X475709188Y-54679482D01*
X475739680Y-54780000D01*
X475709188Y-54880518D01*
X475696928Y-55005000D01*
X475696928Y-55805000D01*
X475709188Y-55929482D01*
X475739680Y-56030000D01*
X475709188Y-56130518D01*
X475696928Y-56255000D01*
X475696928Y-57055000D01*
X475709188Y-57179482D01*
X475739680Y-57280000D01*
X475709188Y-57380518D01*
X475696928Y-57505000D01*
X475696928Y-58305000D01*
X475709188Y-58429482D01*
X475745498Y-58549180D01*
X475804463Y-58659494D01*
X475810564Y-58666928D01*
X472785000Y-58666928D01*
X472660518Y-58679188D01*
X472540820Y-58715498D01*
X472430506Y-58774463D01*
X472333815Y-58853815D01*
X472254463Y-58950506D01*
X472195498Y-59060820D01*
X472159188Y-59180518D01*
X472146928Y-59305000D01*
X472146928Y-61505000D01*
X472159188Y-61629482D01*
X472195498Y-61749180D01*
X472254463Y-61859494D01*
X472333815Y-61956185D01*
X472430506Y-62035537D01*
X472540820Y-62094502D01*
X472660518Y-62130812D01*
X472785000Y-62143072D01*
X475885000Y-62143072D01*
X476009482Y-62130812D01*
X476129180Y-62094502D01*
X476239494Y-62035537D01*
X476336185Y-61956185D01*
X476415537Y-61859494D01*
X476474502Y-61749180D01*
X476510812Y-61629482D01*
X476523072Y-61505000D01*
X476523072Y-59305000D01*
X476510812Y-59180518D01*
X476474502Y-59060820D01*
X476415537Y-58950506D01*
X476409436Y-58943072D01*
X477835000Y-58943072D01*
X477959482Y-58930812D01*
X478079180Y-58894502D01*
X478189494Y-58835537D01*
X478286185Y-58756185D01*
X478360649Y-58665450D01*
X478756200Y-59061002D01*
X478779999Y-59090001D01*
X478895724Y-59184974D01*
X479027753Y-59255546D01*
X479171014Y-59299003D01*
X479282667Y-59310000D01*
X479282675Y-59310000D01*
X479320000Y-59313676D01*
X479357325Y-59310000D01*
X493635198Y-59310000D01*
X492775076Y-60170123D01*
X492740537Y-60105506D01*
X492661185Y-60008815D01*
X492564494Y-59929463D01*
X492454180Y-59870498D01*
X492334482Y-59834188D01*
X492210000Y-59821928D01*
X491210000Y-59821928D01*
X491085518Y-59834188D01*
X490965820Y-59870498D01*
X490855506Y-59929463D01*
X490758815Y-60008815D01*
X490679463Y-60105506D01*
X490620498Y-60215820D01*
X490584188Y-60335518D01*
X490571928Y-60460000D01*
X490571928Y-62970000D01*
X490584188Y-63094482D01*
X490620498Y-63214180D01*
X490679463Y-63324494D01*
X490758815Y-63421185D01*
X490855506Y-63500537D01*
X490965820Y-63559502D01*
X491085518Y-63595812D01*
X491210000Y-63608072D01*
X492070001Y-63608072D01*
X492070000Y-73562678D01*
X492066324Y-73600000D01*
X492070000Y-73637322D01*
X492070000Y-73637332D01*
X492080997Y-73748985D01*
X492096780Y-73801015D01*
X492124454Y-73892246D01*
X492195026Y-74024276D01*
X492205742Y-74037333D01*
X492289999Y-74140001D01*
X492319003Y-74163804D01*
X494536200Y-76381002D01*
X494559999Y-76410001D01*
X494619660Y-76458963D01*
X494619188Y-76460518D01*
X494606928Y-76585000D01*
X494606928Y-78035000D01*
X494619188Y-78159482D01*
X494655498Y-78279180D01*
X494710000Y-78381144D01*
X494710000Y-78735198D01*
X492118998Y-81326201D01*
X492090000Y-81349999D01*
X492066202Y-81378997D01*
X492066201Y-81378998D01*
X491995026Y-81465724D01*
X491924454Y-81597754D01*
X491880998Y-81741015D01*
X491866324Y-81890000D01*
X491870001Y-81927332D01*
X491870000Y-86131928D01*
X491190000Y-86131928D01*
X491065518Y-86144188D01*
X490945820Y-86180498D01*
X490835506Y-86239463D01*
X490738815Y-86318815D01*
X490659463Y-86415506D01*
X490600498Y-86525820D01*
X490564188Y-86645518D01*
X490551928Y-86770000D01*
X490551928Y-89210000D01*
X459150000Y-89210000D01*
X459150000Y-85985852D01*
X465605000Y-85985852D01*
X465605000Y-86554148D01*
X465715869Y-87111523D01*
X465933346Y-87636560D01*
X466249074Y-88109080D01*
X466650920Y-88510926D01*
X467123440Y-88826654D01*
X467648477Y-89044131D01*
X468205852Y-89155000D01*
X468774148Y-89155000D01*
X469331523Y-89044131D01*
X469856560Y-88826654D01*
X470329080Y-88510926D01*
X470730926Y-88109080D01*
X471046654Y-87636560D01*
X471264131Y-87111523D01*
X471375000Y-86554148D01*
X471375000Y-85985852D01*
X471264131Y-85428477D01*
X471046654Y-84903440D01*
X470730926Y-84430920D01*
X470329080Y-84029074D01*
X469856560Y-83713346D01*
X469331523Y-83495869D01*
X469151198Y-83460000D01*
X488011928Y-83460000D01*
X488011928Y-85970000D01*
X488024188Y-86094482D01*
X488060498Y-86214180D01*
X488119463Y-86324494D01*
X488198815Y-86421185D01*
X488295506Y-86500537D01*
X488405820Y-86559502D01*
X488525518Y-86595812D01*
X488650000Y-86608072D01*
X489650000Y-86608072D01*
X489774482Y-86595812D01*
X489894180Y-86559502D01*
X490004494Y-86500537D01*
X490101185Y-86421185D01*
X490180537Y-86324494D01*
X490239502Y-86214180D01*
X490275812Y-86094482D01*
X490288072Y-85970000D01*
X490288072Y-83460000D01*
X490275812Y-83335518D01*
X490239502Y-83215820D01*
X490180537Y-83105506D01*
X490101185Y-83008815D01*
X490004494Y-82929463D01*
X489894180Y-82870498D01*
X489774482Y-82834188D01*
X489650000Y-82821928D01*
X488650000Y-82821928D01*
X488525518Y-82834188D01*
X488405820Y-82870498D01*
X488295506Y-82929463D01*
X488198815Y-83008815D01*
X488119463Y-83105506D01*
X488060498Y-83215820D01*
X488024188Y-83335518D01*
X488011928Y-83460000D01*
X469151198Y-83460000D01*
X468774148Y-83385000D01*
X468205852Y-83385000D01*
X467648477Y-83495869D01*
X467123440Y-83713346D01*
X466650920Y-84029074D01*
X466249074Y-84430920D01*
X465933346Y-84903440D01*
X465715869Y-85428477D01*
X465605000Y-85985852D01*
X459150000Y-85985852D01*
X459150000Y-66280000D01*
X488031928Y-66280000D01*
X488044188Y-66404482D01*
X488080498Y-66524180D01*
X488139463Y-66634494D01*
X488218815Y-66731185D01*
X488315506Y-66810537D01*
X488425820Y-66869502D01*
X488545518Y-66905812D01*
X488670000Y-66918072D01*
X488884250Y-66915000D01*
X489043000Y-66756250D01*
X489043000Y-65152000D01*
X489297000Y-65152000D01*
X489297000Y-66756250D01*
X489455750Y-66915000D01*
X489670000Y-66918072D01*
X489794482Y-66905812D01*
X489914180Y-66869502D01*
X490024494Y-66810537D01*
X490121185Y-66731185D01*
X490200537Y-66634494D01*
X490259502Y-66524180D01*
X490295812Y-66404482D01*
X490308072Y-66280000D01*
X490305000Y-65310750D01*
X490146250Y-65152000D01*
X489297000Y-65152000D01*
X489043000Y-65152000D01*
X488193750Y-65152000D01*
X488035000Y-65310750D01*
X488031928Y-66280000D01*
X459150000Y-66280000D01*
X459150000Y-63770000D01*
X488031928Y-63770000D01*
X488035000Y-64739250D01*
X488193750Y-64898000D01*
X489043000Y-64898000D01*
X489043000Y-63293750D01*
X489297000Y-63293750D01*
X489297000Y-64898000D01*
X490146250Y-64898000D01*
X490305000Y-64739250D01*
X490308072Y-63770000D01*
X490295812Y-63645518D01*
X490259502Y-63525820D01*
X490200537Y-63415506D01*
X490121185Y-63318815D01*
X490024494Y-63239463D01*
X489914180Y-63180498D01*
X489794482Y-63144188D01*
X489670000Y-63131928D01*
X489455750Y-63135000D01*
X489297000Y-63293750D01*
X489043000Y-63293750D01*
X488884250Y-63135000D01*
X488670000Y-63131928D01*
X488545518Y-63144188D01*
X488425820Y-63180498D01*
X488315506Y-63239463D01*
X488218815Y-63318815D01*
X488139463Y-63415506D01*
X488080498Y-63525820D01*
X488044188Y-63645518D01*
X488031928Y-63770000D01*
X459150000Y-63770000D01*
X459150000Y-50555000D01*
X472146928Y-50555000D01*
X472146928Y-52755000D01*
X472159188Y-52879482D01*
X472195498Y-52999180D01*
X472254463Y-53109494D01*
X472333815Y-53206185D01*
X472430506Y-53285537D01*
X472540820Y-53344502D01*
X472660518Y-53380812D01*
X472785000Y-53393072D01*
X475810564Y-53393072D01*
X475804463Y-53400506D01*
X475745498Y-53510820D01*
X475709188Y-53630518D01*
X475696928Y-53755000D01*
X475700000Y-53869250D01*
X475858750Y-54028000D01*
X476958000Y-54028000D01*
X476958000Y-53278750D01*
X477212000Y-53278750D01*
X477212000Y-54028000D01*
X478311250Y-54028000D01*
X478470000Y-53869250D01*
X478473072Y-53755000D01*
X478460812Y-53630518D01*
X478424502Y-53510820D01*
X478389776Y-53445852D01*
X543855000Y-53445852D01*
X543855000Y-54014148D01*
X543965869Y-54571523D01*
X544183346Y-55096560D01*
X544499074Y-55569080D01*
X544900920Y-55970926D01*
X545373440Y-56286654D01*
X545898477Y-56504131D01*
X546455852Y-56615000D01*
X547024148Y-56615000D01*
X547581523Y-56504131D01*
X548106560Y-56286654D01*
X548579080Y-55970926D01*
X548980926Y-55569080D01*
X549296654Y-55096560D01*
X549514131Y-54571523D01*
X549625000Y-54014148D01*
X549625000Y-53445852D01*
X549514131Y-52888477D01*
X549296654Y-52363440D01*
X548980926Y-51890920D01*
X548579080Y-51489074D01*
X548106560Y-51173346D01*
X547581523Y-50955869D01*
X547024148Y-50845000D01*
X546455852Y-50845000D01*
X545898477Y-50955869D01*
X545373440Y-51173346D01*
X544900920Y-51489074D01*
X544499074Y-51890920D01*
X544183346Y-52363440D01*
X543965869Y-52888477D01*
X543855000Y-53445852D01*
X478389776Y-53445852D01*
X478365537Y-53400506D01*
X478286185Y-53303815D01*
X478189494Y-53224463D01*
X478079180Y-53165498D01*
X477959482Y-53129188D01*
X477835000Y-53116928D01*
X477370750Y-53120000D01*
X477212000Y-53278750D01*
X476958000Y-53278750D01*
X476799250Y-53120000D01*
X476409034Y-53117418D01*
X476415537Y-53109494D01*
X476474502Y-52999180D01*
X476510812Y-52879482D01*
X476523072Y-52755000D01*
X476523072Y-50555000D01*
X476510812Y-50430518D01*
X476474502Y-50310820D01*
X476415537Y-50200506D01*
X476336185Y-50103815D01*
X476239494Y-50024463D01*
X476129180Y-49965498D01*
X476009482Y-49929188D01*
X475885000Y-49916928D01*
X472785000Y-49916928D01*
X472660518Y-49929188D01*
X472540820Y-49965498D01*
X472430506Y-50024463D01*
X472333815Y-50103815D01*
X472254463Y-50200506D01*
X472195498Y-50310820D01*
X472159188Y-50430518D01*
X472146928Y-50555000D01*
X459150000Y-50555000D01*
X459150000Y-48635345D01*
X459233346Y-48836560D01*
X459549074Y-49309080D01*
X459950920Y-49710926D01*
X460423440Y-50026654D01*
X460948477Y-50244131D01*
X461505852Y-50355000D01*
X462074148Y-50355000D01*
X462631523Y-50244131D01*
X463156560Y-50026654D01*
X463629080Y-49710926D01*
X464030926Y-49309080D01*
X464346654Y-48836560D01*
X464564131Y-48311523D01*
X464675000Y-47754148D01*
X464675000Y-47185852D01*
X464564131Y-46628477D01*
X464346654Y-46103440D01*
X464030926Y-45630920D01*
X463629080Y-45229074D01*
X463156560Y-44913346D01*
X462631523Y-44695869D01*
X462074148Y-44585000D01*
X461505852Y-44585000D01*
X460948477Y-44695869D01*
X460423440Y-44913346D01*
X459950920Y-45229074D01*
X459549074Y-45630920D01*
X459233346Y-46103440D01*
X459150000Y-46304655D01*
X459150000Y-42515852D01*
X509845000Y-42515852D01*
X509845000Y-43084148D01*
X509955869Y-43641523D01*
X510173346Y-44166560D01*
X510489074Y-44639080D01*
X510890920Y-45040926D01*
X511363440Y-45356654D01*
X511888477Y-45574131D01*
X512445852Y-45685000D01*
X513014148Y-45685000D01*
X513571523Y-45574131D01*
X514096560Y-45356654D01*
X514569080Y-45040926D01*
X514970926Y-44639080D01*
X515286654Y-44166560D01*
X515504131Y-43641523D01*
X515615000Y-43084148D01*
X515615000Y-42515852D01*
X515504131Y-41958477D01*
X515286654Y-41433440D01*
X514970926Y-40960920D01*
X514569080Y-40559074D01*
X514096560Y-40243346D01*
X513571523Y-40025869D01*
X513014148Y-39915000D01*
X512445852Y-39915000D01*
X511888477Y-40025869D01*
X511363440Y-40243346D01*
X510890920Y-40559074D01*
X510489074Y-40960920D01*
X510173346Y-41433440D01*
X509955869Y-41958477D01*
X509845000Y-42515852D01*
X459150000Y-42515852D01*
X459150000Y-37330000D01*
X555830000Y-37330000D01*
X555830000Y-46078516D01*
G36*
X498550001Y-81424803D02*
G01*
X498550001Y-82878954D01*
X498455506Y-82929463D01*
X498358815Y-83008815D01*
X498279463Y-83105506D01*
X498220498Y-83215820D01*
X498184188Y-83335518D01*
X498171928Y-83460000D01*
X498171928Y-85970000D01*
X498184188Y-86094482D01*
X498220498Y-86214180D01*
X498279463Y-86324494D01*
X498358815Y-86421185D01*
X498455506Y-86500537D01*
X498565820Y-86559502D01*
X498685518Y-86595812D01*
X498810000Y-86608072D01*
X499810000Y-86608072D01*
X499934482Y-86595812D01*
X500054180Y-86559502D01*
X500164494Y-86500537D01*
X500261185Y-86421185D01*
X500340537Y-86324494D01*
X500399502Y-86214180D01*
X500419257Y-86149058D01*
X500772871Y-86502672D01*
X500760498Y-86525820D01*
X500724188Y-86645518D01*
X500711928Y-86770000D01*
X500711928Y-89280000D01*
X500724188Y-89404482D01*
X500760498Y-89524180D01*
X500819463Y-89634494D01*
X500898815Y-89731185D01*
X500995506Y-89810537D01*
X501050000Y-89839665D01*
X501050000Y-90185431D01*
X501041618Y-90192310D01*
X500972310Y-90261618D01*
X500892958Y-90358309D01*
X500838502Y-90439808D01*
X500779536Y-90550125D01*
X500742027Y-90640681D01*
X500705718Y-90760377D01*
X500686596Y-90856510D01*
X500674336Y-90980991D01*
X500674336Y-91005550D01*
X500671928Y-91030000D01*
X500671928Y-91530000D01*
X500674336Y-91554450D01*
X500674336Y-91579009D01*
X500686596Y-91703490D01*
X500705718Y-91799623D01*
X500742027Y-91919319D01*
X500779536Y-92009875D01*
X500838502Y-92120192D01*
X500892958Y-92201691D01*
X500972310Y-92298382D01*
X501030001Y-92356073D01*
X501030000Y-93055431D01*
X501021618Y-93062310D01*
X500952310Y-93131618D01*
X500872958Y-93228309D01*
X500818502Y-93309808D01*
X500759536Y-93420125D01*
X500722027Y-93510681D01*
X500685718Y-93630377D01*
X500666596Y-93726510D01*
X500654336Y-93850991D01*
X500654336Y-93875550D01*
X500651928Y-93900000D01*
X500651928Y-94213270D01*
X500215199Y-94650000D01*
X498698072Y-94650000D01*
X498698072Y-93340000D01*
X498685812Y-93215518D01*
X498649502Y-93095820D01*
X498590537Y-92985506D01*
X498511185Y-92888815D01*
X498414494Y-92809463D01*
X498304180Y-92750498D01*
X498227923Y-92727366D01*
X498194974Y-92665724D01*
X498144520Y-92604246D01*
X498102392Y-92552912D01*
X498174482Y-92545812D01*
X498294180Y-92509502D01*
X498404494Y-92450537D01*
X498501185Y-92371185D01*
X498580537Y-92274494D01*
X498639502Y-92164180D01*
X498675812Y-92044482D01*
X498688072Y-91920000D01*
X498688072Y-90420000D01*
X498675812Y-90295518D01*
X498639502Y-90175820D01*
X498580537Y-90065506D01*
X498501185Y-89968815D01*
X498404494Y-89889463D01*
X498294180Y-89830498D01*
X498217923Y-89807366D01*
X498184974Y-89745724D01*
X498090001Y-89629999D01*
X498060997Y-89606196D01*
X497887310Y-89432509D01*
X497895812Y-89404482D01*
X497908072Y-89280000D01*
X497908072Y-86770000D01*
X497895812Y-86645518D01*
X497859502Y-86525820D01*
X497800537Y-86415506D01*
X497721185Y-86318815D01*
X497624494Y-86239463D01*
X497514180Y-86180498D01*
X497394482Y-86144188D01*
X497378751Y-86142639D01*
X497404974Y-86110686D01*
X497475546Y-85978657D01*
X497519003Y-85835396D01*
X497530000Y-85723743D01*
X497530000Y-85723734D01*
X497533676Y-85686411D01*
X497530000Y-85649088D01*
X497530000Y-80404801D01*
X498550001Y-81424803D01*
X498550001Y-81424803D01*
G37*
X498550001Y-81424803D02*
X498550001Y-82878954D01*
X498455506Y-82929463D01*
X498358815Y-83008815D01*
X498279463Y-83105506D01*
X498220498Y-83215820D01*
X498184188Y-83335518D01*
X498171928Y-83460000D01*
X498171928Y-85970000D01*
X498184188Y-86094482D01*
X498220498Y-86214180D01*
X498279463Y-86324494D01*
X498358815Y-86421185D01*
X498455506Y-86500537D01*
X498565820Y-86559502D01*
X498685518Y-86595812D01*
X498810000Y-86608072D01*
X499810000Y-86608072D01*
X499934482Y-86595812D01*
X500054180Y-86559502D01*
X500164494Y-86500537D01*
X500261185Y-86421185D01*
X500340537Y-86324494D01*
X500399502Y-86214180D01*
X500419257Y-86149058D01*
X500772871Y-86502672D01*
X500760498Y-86525820D01*
X500724188Y-86645518D01*
X500711928Y-86770000D01*
X500711928Y-89280000D01*
X500724188Y-89404482D01*
X500760498Y-89524180D01*
X500819463Y-89634494D01*
X500898815Y-89731185D01*
X500995506Y-89810537D01*
X501050000Y-89839665D01*
X501050000Y-90185431D01*
X501041618Y-90192310D01*
X500972310Y-90261618D01*
X500892958Y-90358309D01*
X500838502Y-90439808D01*
X500779536Y-90550125D01*
X500742027Y-90640681D01*
X500705718Y-90760377D01*
X500686596Y-90856510D01*
X500674336Y-90980991D01*
X500674336Y-91005550D01*
X500671928Y-91030000D01*
X500671928Y-91530000D01*
X500674336Y-91554450D01*
X500674336Y-91579009D01*
X500686596Y-91703490D01*
X500705718Y-91799623D01*
X500742027Y-91919319D01*
X500779536Y-92009875D01*
X500838502Y-92120192D01*
X500892958Y-92201691D01*
X500972310Y-92298382D01*
X501030001Y-92356073D01*
X501030000Y-93055431D01*
X501021618Y-93062310D01*
X500952310Y-93131618D01*
X500872958Y-93228309D01*
X500818502Y-93309808D01*
X500759536Y-93420125D01*
X500722027Y-93510681D01*
X500685718Y-93630377D01*
X500666596Y-93726510D01*
X500654336Y-93850991D01*
X500654336Y-93875550D01*
X500651928Y-93900000D01*
X500651928Y-94213270D01*
X500215199Y-94650000D01*
X498698072Y-94650000D01*
X498698072Y-93340000D01*
X498685812Y-93215518D01*
X498649502Y-93095820D01*
X498590537Y-92985506D01*
X498511185Y-92888815D01*
X498414494Y-92809463D01*
X498304180Y-92750498D01*
X498227923Y-92727366D01*
X498194974Y-92665724D01*
X498144520Y-92604246D01*
X498102392Y-92552912D01*
X498174482Y-92545812D01*
X498294180Y-92509502D01*
X498404494Y-92450537D01*
X498501185Y-92371185D01*
X498580537Y-92274494D01*
X498639502Y-92164180D01*
X498675812Y-92044482D01*
X498688072Y-91920000D01*
X498688072Y-90420000D01*
X498675812Y-90295518D01*
X498639502Y-90175820D01*
X498580537Y-90065506D01*
X498501185Y-89968815D01*
X498404494Y-89889463D01*
X498294180Y-89830498D01*
X498217923Y-89807366D01*
X498184974Y-89745724D01*
X498090001Y-89629999D01*
X498060997Y-89606196D01*
X497887310Y-89432509D01*
X497895812Y-89404482D01*
X497908072Y-89280000D01*
X497908072Y-86770000D01*
X497895812Y-86645518D01*
X497859502Y-86525820D01*
X497800537Y-86415506D01*
X497721185Y-86318815D01*
X497624494Y-86239463D01*
X497514180Y-86180498D01*
X497394482Y-86144188D01*
X497378751Y-86142639D01*
X497404974Y-86110686D01*
X497475546Y-85978657D01*
X497519003Y-85835396D01*
X497530000Y-85723743D01*
X497530000Y-85723734D01*
X497533676Y-85686411D01*
X497530000Y-85649088D01*
X497530000Y-80404801D01*
X498550001Y-81424803D01*
G36*
X501110001Y-71782668D02*
G01*
X501106324Y-71820000D01*
X501120998Y-71968985D01*
X501164454Y-72112246D01*
X501235026Y-72244276D01*
X501306201Y-72331002D01*
X501330000Y-72360001D01*
X501358998Y-72383799D01*
X505130000Y-76154802D01*
X505130000Y-82869230D01*
X505014482Y-82834188D01*
X504890000Y-82821928D01*
X504675750Y-82825000D01*
X504517000Y-82983750D01*
X504517000Y-84588000D01*
X504537000Y-84588000D01*
X504537000Y-84842000D01*
X504517000Y-84842000D01*
X504517000Y-86446250D01*
X504675750Y-86605000D01*
X504890000Y-86608072D01*
X505014482Y-86595812D01*
X505130001Y-86560770D01*
X505130001Y-91305197D01*
X504445199Y-91990000D01*
X504248072Y-91990000D01*
X504248072Y-90530000D01*
X504235812Y-90405518D01*
X504199502Y-90285820D01*
X504140537Y-90175506D01*
X504061185Y-90078815D01*
X503964494Y-89999463D01*
X503870000Y-89948954D01*
X503870000Y-86606102D01*
X503890000Y-86608072D01*
X504104250Y-86605000D01*
X504263000Y-86446250D01*
X504263000Y-84842000D01*
X504243000Y-84842000D01*
X504243000Y-84588000D01*
X504263000Y-84588000D01*
X504263000Y-82983750D01*
X504104250Y-82825000D01*
X503890000Y-82821928D01*
X503870000Y-82823898D01*
X503870000Y-75567325D01*
X503873676Y-75530000D01*
X503870000Y-75492675D01*
X503870000Y-75492667D01*
X503859003Y-75381014D01*
X503815546Y-75237753D01*
X503744974Y-75105724D01*
X503650001Y-74989999D01*
X503621003Y-74966201D01*
X497550000Y-68895199D01*
X497550000Y-67354801D01*
X498076201Y-67881002D01*
X498099999Y-67910001D01*
X498128997Y-67933799D01*
X498215723Y-68004974D01*
X498347753Y-68075546D01*
X498491014Y-68119003D01*
X498602667Y-68130000D01*
X498602676Y-68130000D01*
X498639999Y-68133676D01*
X498677322Y-68130000D01*
X499792678Y-68130000D01*
X499830000Y-68133676D01*
X499867322Y-68130000D01*
X499867333Y-68130000D01*
X499978986Y-68119003D01*
X500122247Y-68075546D01*
X500254276Y-68004974D01*
X500370001Y-67910001D01*
X500393803Y-67880998D01*
X501110001Y-67164802D01*
X501110001Y-71782668D01*
X501110001Y-71782668D01*
G37*
X501110001Y-71782668D02*
X501106324Y-71820000D01*
X501120998Y-71968985D01*
X501164454Y-72112246D01*
X501235026Y-72244276D01*
X501306201Y-72331002D01*
X501330000Y-72360001D01*
X501358998Y-72383799D01*
X505130000Y-76154802D01*
X505130000Y-82869230D01*
X505014482Y-82834188D01*
X504890000Y-82821928D01*
X504675750Y-82825000D01*
X504517000Y-82983750D01*
X504517000Y-84588000D01*
X504537000Y-84588000D01*
X504537000Y-84842000D01*
X504517000Y-84842000D01*
X504517000Y-86446250D01*
X504675750Y-86605000D01*
X504890000Y-86608072D01*
X505014482Y-86595812D01*
X505130001Y-86560770D01*
X505130001Y-91305197D01*
X504445199Y-91990000D01*
X504248072Y-91990000D01*
X504248072Y-90530000D01*
X504235812Y-90405518D01*
X504199502Y-90285820D01*
X504140537Y-90175506D01*
X504061185Y-90078815D01*
X503964494Y-89999463D01*
X503870000Y-89948954D01*
X503870000Y-86606102D01*
X503890000Y-86608072D01*
X504104250Y-86605000D01*
X504263000Y-86446250D01*
X504263000Y-84842000D01*
X504243000Y-84842000D01*
X504243000Y-84588000D01*
X504263000Y-84588000D01*
X504263000Y-82983750D01*
X504104250Y-82825000D01*
X503890000Y-82821928D01*
X503870000Y-82823898D01*
X503870000Y-75567325D01*
X503873676Y-75530000D01*
X503870000Y-75492675D01*
X503870000Y-75492667D01*
X503859003Y-75381014D01*
X503815546Y-75237753D01*
X503744974Y-75105724D01*
X503650001Y-74989999D01*
X503621003Y-74966201D01*
X497550000Y-68895199D01*
X497550000Y-67354801D01*
X498076201Y-67881002D01*
X498099999Y-67910001D01*
X498128997Y-67933799D01*
X498215723Y-68004974D01*
X498347753Y-68075546D01*
X498491014Y-68119003D01*
X498602667Y-68130000D01*
X498602676Y-68130000D01*
X498639999Y-68133676D01*
X498677322Y-68130000D01*
X499792678Y-68130000D01*
X499830000Y-68133676D01*
X499867322Y-68130000D01*
X499867333Y-68130000D01*
X499978986Y-68119003D01*
X500122247Y-68075546D01*
X500254276Y-68004974D01*
X500370001Y-67910001D01*
X500393803Y-67880998D01*
X501110001Y-67164802D01*
X501110001Y-71782668D01*
G36*
X493625518Y-66905812D02*
G01*
X493750000Y-66918072D01*
X494510001Y-66918072D01*
X494510001Y-69747668D01*
X494506324Y-69785000D01*
X494520998Y-69933985D01*
X494564454Y-70077246D01*
X494635026Y-70209276D01*
X494706201Y-70296002D01*
X494730000Y-70325001D01*
X494758998Y-70348799D01*
X495957126Y-71546928D01*
X495895000Y-71546928D01*
X495791773Y-71557095D01*
X495726750Y-71550000D01*
X495694503Y-71582247D01*
X495650820Y-71595498D01*
X495540506Y-71654463D01*
X495443815Y-71733815D01*
X495372000Y-71821322D01*
X495372000Y-71708750D01*
X495213250Y-71550000D01*
X495111004Y-71561156D01*
X494991873Y-71599285D01*
X494882469Y-71659922D01*
X494786997Y-71740737D01*
X494709126Y-71838625D01*
X494651849Y-71949825D01*
X494617366Y-72070061D01*
X494607002Y-72194715D01*
X494610000Y-72624250D01*
X494768750Y-72783000D01*
X495256928Y-72783000D01*
X495256928Y-73037000D01*
X494768750Y-73037000D01*
X494610000Y-73195750D01*
X494607002Y-73625285D01*
X494617366Y-73749939D01*
X494651849Y-73870175D01*
X494709126Y-73981375D01*
X494786997Y-74079263D01*
X494882469Y-74160078D01*
X494991873Y-74220715D01*
X495111004Y-74258844D01*
X495213250Y-74270000D01*
X495372000Y-74111250D01*
X495372000Y-73998678D01*
X495443815Y-74086185D01*
X495540506Y-74165537D01*
X495650820Y-74224502D01*
X495694503Y-74237753D01*
X495726750Y-74270000D01*
X495791773Y-74262905D01*
X495895000Y-74273072D01*
X496080931Y-74273072D01*
X496135026Y-74374276D01*
X496180758Y-74430000D01*
X496230000Y-74490001D01*
X496258998Y-74513799D01*
X496686196Y-74940997D01*
X496709999Y-74970001D01*
X496825724Y-75064974D01*
X496909960Y-75110000D01*
X495414802Y-75110000D01*
X493590000Y-73285199D01*
X493590000Y-66895038D01*
X493625518Y-66905812D01*
X493625518Y-66905812D01*
G37*
X493625518Y-66905812D02*
X493750000Y-66918072D01*
X494510001Y-66918072D01*
X494510001Y-69747668D01*
X494506324Y-69785000D01*
X494520998Y-69933985D01*
X494564454Y-70077246D01*
X494635026Y-70209276D01*
X494706201Y-70296002D01*
X494730000Y-70325001D01*
X494758998Y-70348799D01*
X495957126Y-71546928D01*
X495895000Y-71546928D01*
X495791773Y-71557095D01*
X495726750Y-71550000D01*
X495694503Y-71582247D01*
X495650820Y-71595498D01*
X495540506Y-71654463D01*
X495443815Y-71733815D01*
X495372000Y-71821322D01*
X495372000Y-71708750D01*
X495213250Y-71550000D01*
X495111004Y-71561156D01*
X494991873Y-71599285D01*
X494882469Y-71659922D01*
X494786997Y-71740737D01*
X494709126Y-71838625D01*
X494651849Y-71949825D01*
X494617366Y-72070061D01*
X494607002Y-72194715D01*
X494610000Y-72624250D01*
X494768750Y-72783000D01*
X495256928Y-72783000D01*
X495256928Y-73037000D01*
X494768750Y-73037000D01*
X494610000Y-73195750D01*
X494607002Y-73625285D01*
X494617366Y-73749939D01*
X494651849Y-73870175D01*
X494709126Y-73981375D01*
X494786997Y-74079263D01*
X494882469Y-74160078D01*
X494991873Y-74220715D01*
X495111004Y-74258844D01*
X495213250Y-74270000D01*
X495372000Y-74111250D01*
X495372000Y-73998678D01*
X495443815Y-74086185D01*
X495540506Y-74165537D01*
X495650820Y-74224502D01*
X495694503Y-74237753D01*
X495726750Y-74270000D01*
X495791773Y-74262905D01*
X495895000Y-74273072D01*
X496080931Y-74273072D01*
X496135026Y-74374276D01*
X496180758Y-74430000D01*
X496230000Y-74490001D01*
X496258998Y-74513799D01*
X496686196Y-74940997D01*
X496709999Y-74970001D01*
X496825724Y-75064974D01*
X496909960Y-75110000D01*
X495414802Y-75110000D01*
X493590000Y-73285199D01*
X493590000Y-66895038D01*
X493625518Y-66905812D01*
M02*
