G04 #@! TF.GenerationSoftware,KiCad,Pcbnew,(5.1.2)-2*
G04 #@! TF.CreationDate,2021-09-09T10:29:02-03:00*
G04 #@! TF.ProjectId,MAG_Plus,4d41475f-506c-4757-932e-6b696361645f,rev?*
G04 #@! TF.SameCoordinates,Original*
G04 #@! TF.FileFunction,Legend,Top*
G04 #@! TF.FilePolarity,Positive*
%FSLAX46Y46*%
G04 Gerber Fmt 4.6, Leading zero omitted, Abs format (unit mm)*
G04 Created by KiCad (PCBNEW (5.1.2)-2) date 2021-09-09 10:29:02*
%MOMM*%
%LPD*%
G04 APERTURE LIST*
%ADD10C,0.100000*%
%ADD11C,0.150000*%
%ADD12C,0.120000*%
G04 APERTURE END LIST*
D10*
G36*
X483750000Y-47310000D02*
G01*
X478750000Y-47310000D01*
X478750000Y-42310000D01*
X483750000Y-42310000D01*
X483750000Y-47310000D01*
G37*
X483750000Y-47310000D02*
X478750000Y-47310000D01*
X478750000Y-42310000D01*
X483750000Y-42310000D01*
X483750000Y-47310000D01*
G36*
X489750000Y-47310000D02*
G01*
X484750000Y-47310000D01*
X484750000Y-42310000D01*
X489750000Y-42310000D01*
X489750000Y-47310000D01*
G37*
X489750000Y-47310000D02*
X484750000Y-47310000D01*
X484750000Y-42310000D01*
X489750000Y-42310000D01*
X489750000Y-47310000D01*
G36*
X477750000Y-47310000D02*
G01*
X472750000Y-47310000D01*
X472750000Y-42310000D01*
X477750000Y-42310000D01*
X477750000Y-47310000D01*
G37*
X477750000Y-47310000D02*
X472750000Y-47310000D01*
X472750000Y-42310000D01*
X477750000Y-42310000D01*
X477750000Y-47310000D01*
G36*
X495750000Y-47310000D02*
G01*
X490750000Y-47310000D01*
X490750000Y-42310000D01*
X495750000Y-42310000D01*
X495750000Y-47310000D01*
G37*
X495750000Y-47310000D02*
X490750000Y-47310000D01*
X490750000Y-42310000D01*
X495750000Y-42310000D01*
X495750000Y-47310000D01*
D11*
X470966666Y-41364761D02*
X471109523Y-41412380D01*
X471347619Y-41412380D01*
X471442857Y-41364761D01*
X471490476Y-41317142D01*
X471538095Y-41221904D01*
X471538095Y-41126666D01*
X471490476Y-41031428D01*
X471442857Y-40983809D01*
X471347619Y-40936190D01*
X471157142Y-40888571D01*
X471061904Y-40840952D01*
X471014285Y-40793333D01*
X470966666Y-40698095D01*
X470966666Y-40602857D01*
X471014285Y-40507619D01*
X471061904Y-40460000D01*
X471157142Y-40412380D01*
X471395238Y-40412380D01*
X471538095Y-40460000D01*
X471966666Y-41412380D02*
X471966666Y-40412380D01*
X472347619Y-40412380D01*
X472442857Y-40460000D01*
X472490476Y-40507619D01*
X472538095Y-40602857D01*
X472538095Y-40745714D01*
X472490476Y-40840952D01*
X472442857Y-40888571D01*
X472347619Y-40936190D01*
X471966666Y-40936190D01*
X472966666Y-40888571D02*
X473300000Y-40888571D01*
X473442857Y-41412380D02*
X472966666Y-41412380D01*
X472966666Y-40412380D01*
X473442857Y-40412380D01*
X474347619Y-41412380D02*
X473871428Y-41412380D01*
X473871428Y-40412380D01*
X475442857Y-41031428D02*
X476204761Y-41031428D01*
X477442857Y-40412380D02*
X477442857Y-41221904D01*
X477490476Y-41317142D01*
X477538095Y-41364761D01*
X477633333Y-41412380D01*
X477823809Y-41412380D01*
X477919047Y-41364761D01*
X477966666Y-41317142D01*
X478014285Y-41221904D01*
X478014285Y-40412380D01*
X478490476Y-40745714D02*
X478490476Y-41412380D01*
X478490476Y-40840952D02*
X478538095Y-40793333D01*
X478633333Y-40745714D01*
X478776190Y-40745714D01*
X478871428Y-40793333D01*
X478919047Y-40888571D01*
X478919047Y-41412380D01*
X479395238Y-41412380D02*
X479395238Y-40745714D01*
X479395238Y-40412380D02*
X479347619Y-40460000D01*
X479395238Y-40507619D01*
X479442857Y-40460000D01*
X479395238Y-40412380D01*
X479395238Y-40507619D01*
X479776190Y-40745714D02*
X480014285Y-41412380D01*
X480252380Y-40745714D01*
X481014285Y-41364761D02*
X480919047Y-41412380D01*
X480728571Y-41412380D01*
X480633333Y-41364761D01*
X480585714Y-41269523D01*
X480585714Y-40888571D01*
X480633333Y-40793333D01*
X480728571Y-40745714D01*
X480919047Y-40745714D01*
X481014285Y-40793333D01*
X481061904Y-40888571D01*
X481061904Y-40983809D01*
X480585714Y-41079047D01*
X481490476Y-41412380D02*
X481490476Y-40745714D01*
X481490476Y-40936190D02*
X481538095Y-40840952D01*
X481585714Y-40793333D01*
X481680952Y-40745714D01*
X481776190Y-40745714D01*
X482061904Y-41364761D02*
X482157142Y-41412380D01*
X482347619Y-41412380D01*
X482442857Y-41364761D01*
X482490476Y-41269523D01*
X482490476Y-41221904D01*
X482442857Y-41126666D01*
X482347619Y-41079047D01*
X482204761Y-41079047D01*
X482109523Y-41031428D01*
X482061904Y-40936190D01*
X482061904Y-40888571D01*
X482109523Y-40793333D01*
X482204761Y-40745714D01*
X482347619Y-40745714D01*
X482442857Y-40793333D01*
X482919047Y-41412380D02*
X482919047Y-40745714D01*
X482919047Y-40412380D02*
X482871428Y-40460000D01*
X482919047Y-40507619D01*
X482966666Y-40460000D01*
X482919047Y-40412380D01*
X482919047Y-40507619D01*
X483252380Y-40745714D02*
X483633333Y-40745714D01*
X483395238Y-40412380D02*
X483395238Y-41269523D01*
X483442857Y-41364761D01*
X483538095Y-41412380D01*
X483633333Y-41412380D01*
X483871428Y-40745714D02*
X484109523Y-41412380D01*
X484347619Y-40745714D02*
X484109523Y-41412380D01*
X484014285Y-41650476D01*
X483966666Y-41698095D01*
X483871428Y-41745714D01*
X485633333Y-41412380D02*
X485538095Y-41364761D01*
X485490476Y-41317142D01*
X485442857Y-41221904D01*
X485442857Y-40936190D01*
X485490476Y-40840952D01*
X485538095Y-40793333D01*
X485633333Y-40745714D01*
X485776190Y-40745714D01*
X485871428Y-40793333D01*
X485919047Y-40840952D01*
X485966666Y-40936190D01*
X485966666Y-41221904D01*
X485919047Y-41317142D01*
X485871428Y-41364761D01*
X485776190Y-41412380D01*
X485633333Y-41412380D01*
X486252380Y-40745714D02*
X486633333Y-40745714D01*
X486395238Y-41412380D02*
X486395238Y-40555238D01*
X486442857Y-40460000D01*
X486538095Y-40412380D01*
X486633333Y-40412380D01*
X488299999Y-41317142D02*
X488252380Y-41364761D01*
X488109523Y-41412380D01*
X488014285Y-41412380D01*
X487871428Y-41364761D01*
X487776190Y-41269523D01*
X487728571Y-41174285D01*
X487680952Y-40983809D01*
X487680952Y-40840952D01*
X487728571Y-40650476D01*
X487776190Y-40555238D01*
X487871428Y-40460000D01*
X488014285Y-40412380D01*
X488109523Y-40412380D01*
X488252380Y-40460000D01*
X488299999Y-40507619D01*
X488728571Y-41412380D02*
X488728571Y-40412380D01*
X489157142Y-41412380D02*
X489157142Y-40888571D01*
X489109523Y-40793333D01*
X489014285Y-40745714D01*
X488871428Y-40745714D01*
X488776190Y-40793333D01*
X488728571Y-40840952D01*
X489633333Y-41412380D02*
X489633333Y-40745714D01*
X489633333Y-40412380D02*
X489585714Y-40460000D01*
X489633333Y-40507619D01*
X489680952Y-40460000D01*
X489633333Y-40412380D01*
X489633333Y-40507619D01*
X490252380Y-41412380D02*
X490157142Y-41364761D01*
X490109523Y-41269523D01*
X490109523Y-40412380D01*
X491014285Y-41364761D02*
X490919047Y-41412380D01*
X490728571Y-41412380D01*
X490633333Y-41364761D01*
X490585714Y-41269523D01*
X490585714Y-40888571D01*
X490633333Y-40793333D01*
X490728571Y-40745714D01*
X490919047Y-40745714D01*
X491014285Y-40793333D01*
X491061904Y-40888571D01*
X491061904Y-40983809D01*
X490585714Y-41079047D01*
X492252380Y-41031428D02*
X493014285Y-41031428D01*
X494204761Y-40507619D02*
X494252380Y-40460000D01*
X494347619Y-40412380D01*
X494585714Y-40412380D01*
X494680952Y-40460000D01*
X494728571Y-40507619D01*
X494776190Y-40602857D01*
X494776190Y-40698095D01*
X494728571Y-40840952D01*
X494157142Y-41412380D01*
X494776190Y-41412380D01*
X495395238Y-40412380D02*
X495490476Y-40412380D01*
X495585714Y-40460000D01*
X495633333Y-40507619D01*
X495680952Y-40602857D01*
X495728571Y-40793333D01*
X495728571Y-41031428D01*
X495680952Y-41221904D01*
X495633333Y-41317142D01*
X495585714Y-41364761D01*
X495490476Y-41412380D01*
X495395238Y-41412380D01*
X495299999Y-41364761D01*
X495252380Y-41317142D01*
X495204761Y-41221904D01*
X495157142Y-41031428D01*
X495157142Y-40793333D01*
X495204761Y-40602857D01*
X495252380Y-40507619D01*
X495299999Y-40460000D01*
X495395238Y-40412380D01*
X496109523Y-40507619D02*
X496157142Y-40460000D01*
X496252380Y-40412380D01*
X496490476Y-40412380D01*
X496585714Y-40460000D01*
X496633333Y-40507619D01*
X496680952Y-40602857D01*
X496680952Y-40698095D01*
X496633333Y-40840952D01*
X496061904Y-41412380D01*
X496680952Y-41412380D01*
X497633333Y-41412380D02*
X497061904Y-41412380D01*
X497347619Y-41412380D02*
X497347619Y-40412380D01*
X497252380Y-40555238D01*
X497157142Y-40650476D01*
X497061904Y-40698095D01*
X469961904Y-49114761D02*
X470104761Y-49162380D01*
X470342857Y-49162380D01*
X470438095Y-49114761D01*
X470485714Y-49067142D01*
X470533333Y-48971904D01*
X470533333Y-48876666D01*
X470485714Y-48781428D01*
X470438095Y-48733809D01*
X470342857Y-48686190D01*
X470152380Y-48638571D01*
X470057142Y-48590952D01*
X470009523Y-48543333D01*
X469961904Y-48448095D01*
X469961904Y-48352857D01*
X470009523Y-48257619D01*
X470057142Y-48210000D01*
X470152380Y-48162380D01*
X470390476Y-48162380D01*
X470533333Y-48210000D01*
X471342857Y-49114761D02*
X471247619Y-49162380D01*
X471057142Y-49162380D01*
X470961904Y-49114761D01*
X470914285Y-49019523D01*
X470914285Y-48638571D01*
X470961904Y-48543333D01*
X471057142Y-48495714D01*
X471247619Y-48495714D01*
X471342857Y-48543333D01*
X471390476Y-48638571D01*
X471390476Y-48733809D01*
X470914285Y-48829047D01*
X471819047Y-48495714D02*
X471819047Y-49162380D01*
X471819047Y-48590952D02*
X471866666Y-48543333D01*
X471961904Y-48495714D01*
X472104761Y-48495714D01*
X472200000Y-48543333D01*
X472247619Y-48638571D01*
X472247619Y-49162380D01*
X472676190Y-49114761D02*
X472771428Y-49162380D01*
X472961904Y-49162380D01*
X473057142Y-49114761D01*
X473104761Y-49019523D01*
X473104761Y-48971904D01*
X473057142Y-48876666D01*
X472961904Y-48829047D01*
X472819047Y-48829047D01*
X472723809Y-48781428D01*
X472676190Y-48686190D01*
X472676190Y-48638571D01*
X472723809Y-48543333D01*
X472819047Y-48495714D01*
X472961904Y-48495714D01*
X473057142Y-48543333D01*
X473676190Y-49162380D02*
X473580952Y-49114761D01*
X473533333Y-49067142D01*
X473485714Y-48971904D01*
X473485714Y-48686190D01*
X473533333Y-48590952D01*
X473580952Y-48543333D01*
X473676190Y-48495714D01*
X473819047Y-48495714D01*
X473914285Y-48543333D01*
X473961904Y-48590952D01*
X474009523Y-48686190D01*
X474009523Y-48971904D01*
X473961904Y-49067142D01*
X473914285Y-49114761D01*
X473819047Y-49162380D01*
X473676190Y-49162380D01*
X474438095Y-49162380D02*
X474438095Y-48495714D01*
X474438095Y-48686190D02*
X474485714Y-48590952D01*
X474533333Y-48543333D01*
X474628571Y-48495714D01*
X474723809Y-48495714D01*
X476152380Y-48638571D02*
X476295238Y-48686190D01*
X476342857Y-48733809D01*
X476390476Y-48829047D01*
X476390476Y-48971904D01*
X476342857Y-49067142D01*
X476295238Y-49114761D01*
X476200000Y-49162380D01*
X475819047Y-49162380D01*
X475819047Y-48162380D01*
X476152380Y-48162380D01*
X476247619Y-48210000D01*
X476295238Y-48257619D01*
X476342857Y-48352857D01*
X476342857Y-48448095D01*
X476295238Y-48543333D01*
X476247619Y-48590952D01*
X476152380Y-48638571D01*
X475819047Y-48638571D01*
X476961904Y-49162380D02*
X476866666Y-49114761D01*
X476819047Y-49067142D01*
X476771428Y-48971904D01*
X476771428Y-48686190D01*
X476819047Y-48590952D01*
X476866666Y-48543333D01*
X476961904Y-48495714D01*
X477104761Y-48495714D01*
X477200000Y-48543333D01*
X477247619Y-48590952D01*
X477295238Y-48686190D01*
X477295238Y-48971904D01*
X477247619Y-49067142D01*
X477200000Y-49114761D01*
X477104761Y-49162380D01*
X476961904Y-49162380D01*
X478152380Y-49162380D02*
X478152380Y-48638571D01*
X478104761Y-48543333D01*
X478009523Y-48495714D01*
X477819047Y-48495714D01*
X477723809Y-48543333D01*
X478152380Y-49114761D02*
X478057142Y-49162380D01*
X477819047Y-49162380D01*
X477723809Y-49114761D01*
X477676190Y-49019523D01*
X477676190Y-48924285D01*
X477723809Y-48829047D01*
X477819047Y-48781428D01*
X478057142Y-48781428D01*
X478152380Y-48733809D01*
X478628571Y-49162380D02*
X478628571Y-48495714D01*
X478628571Y-48686190D02*
X478676190Y-48590952D01*
X478723809Y-48543333D01*
X478819047Y-48495714D01*
X478914285Y-48495714D01*
X479676190Y-49162380D02*
X479676190Y-48162380D01*
X479676190Y-49114761D02*
X479580952Y-49162380D01*
X479390476Y-49162380D01*
X479295238Y-49114761D01*
X479247619Y-49067142D01*
X479200000Y-48971904D01*
X479200000Y-48686190D01*
X479247619Y-48590952D01*
X479295238Y-48543333D01*
X479390476Y-48495714D01*
X479580952Y-48495714D01*
X479676190Y-48543333D01*
X480914285Y-49162380D02*
X480914285Y-48162380D01*
X481295238Y-48162380D01*
X481390476Y-48210000D01*
X481438095Y-48257619D01*
X481485714Y-48352857D01*
X481485714Y-48495714D01*
X481438095Y-48590952D01*
X481390476Y-48638571D01*
X481295238Y-48686190D01*
X480914285Y-48686190D01*
X482342857Y-49162380D02*
X482342857Y-48638571D01*
X482295238Y-48543333D01*
X482200000Y-48495714D01*
X482009523Y-48495714D01*
X481914285Y-48543333D01*
X482342857Y-49114761D02*
X482247619Y-49162380D01*
X482009523Y-49162380D01*
X481914285Y-49114761D01*
X481866666Y-49019523D01*
X481866666Y-48924285D01*
X481914285Y-48829047D01*
X482009523Y-48781428D01*
X482247619Y-48781428D01*
X482342857Y-48733809D01*
X482819047Y-48495714D02*
X482819047Y-49162380D01*
X482819047Y-48590952D02*
X482866666Y-48543333D01*
X482961904Y-48495714D01*
X483104761Y-48495714D01*
X483200000Y-48543333D01*
X483247619Y-48638571D01*
X483247619Y-49162380D01*
X484104761Y-49114761D02*
X484009523Y-49162380D01*
X483819047Y-49162380D01*
X483723809Y-49114761D01*
X483676190Y-49019523D01*
X483676190Y-48638571D01*
X483723809Y-48543333D01*
X483819047Y-48495714D01*
X484009523Y-48495714D01*
X484104761Y-48543333D01*
X484152380Y-48638571D01*
X484152380Y-48733809D01*
X483676190Y-48829047D01*
X484723809Y-49162380D02*
X484628571Y-49114761D01*
X484580952Y-49019523D01*
X484580952Y-48162380D01*
X486200000Y-48638571D02*
X486342857Y-48686190D01*
X486390476Y-48733809D01*
X486438095Y-48829047D01*
X486438095Y-48971904D01*
X486390476Y-49067142D01*
X486342857Y-49114761D01*
X486247619Y-49162380D01*
X485866666Y-49162380D01*
X485866666Y-48162380D01*
X486200000Y-48162380D01*
X486295238Y-48210000D01*
X486342857Y-48257619D01*
X486390476Y-48352857D01*
X486390476Y-48448095D01*
X486342857Y-48543333D01*
X486295238Y-48590952D01*
X486200000Y-48638571D01*
X485866666Y-48638571D01*
X487580952Y-49114761D02*
X487723809Y-49162380D01*
X487961904Y-49162380D01*
X488057142Y-49114761D01*
X488104761Y-49067142D01*
X488152380Y-48971904D01*
X488152380Y-48876666D01*
X488104761Y-48781428D01*
X488057142Y-48733809D01*
X487961904Y-48686190D01*
X487771428Y-48638571D01*
X487676190Y-48590952D01*
X487628571Y-48543333D01*
X487580952Y-48448095D01*
X487580952Y-48352857D01*
X487628571Y-48257619D01*
X487676190Y-48210000D01*
X487771428Y-48162380D01*
X488009523Y-48162380D01*
X488152380Y-48210000D01*
X488533333Y-48257619D02*
X488580952Y-48210000D01*
X488676190Y-48162380D01*
X488914285Y-48162380D01*
X489009523Y-48210000D01*
X489057142Y-48257619D01*
X489104761Y-48352857D01*
X489104761Y-48448095D01*
X489057142Y-48590952D01*
X488485714Y-49162380D01*
X489104761Y-49162380D01*
X490295238Y-48638571D02*
X490628571Y-48638571D01*
X490771428Y-49162380D02*
X490295238Y-49162380D01*
X490295238Y-48162380D01*
X490771428Y-48162380D01*
X491819047Y-48162380D02*
X492152380Y-49162380D01*
X492485714Y-48162380D01*
X493342857Y-49162380D02*
X492771428Y-49162380D01*
X493057142Y-49162380D02*
X493057142Y-48162380D01*
X492961904Y-48305238D01*
X492866666Y-48400476D01*
X492771428Y-48448095D01*
X494485714Y-49114761D02*
X494628571Y-49162380D01*
X494866666Y-49162380D01*
X494961904Y-49114761D01*
X495009523Y-49067142D01*
X495057142Y-48971904D01*
X495057142Y-48876666D01*
X495009523Y-48781428D01*
X494961904Y-48733809D01*
X494866666Y-48686190D01*
X494676190Y-48638571D01*
X494580952Y-48590952D01*
X494533333Y-48543333D01*
X494485714Y-48448095D01*
X494485714Y-48352857D01*
X494533333Y-48257619D01*
X494580952Y-48210000D01*
X494676190Y-48162380D01*
X494914285Y-48162380D01*
X495057142Y-48210000D01*
X495866666Y-49114761D02*
X495771428Y-49162380D01*
X495580952Y-49162380D01*
X495485714Y-49114761D01*
X495438095Y-49019523D01*
X495438095Y-48638571D01*
X495485714Y-48543333D01*
X495580952Y-48495714D01*
X495771428Y-48495714D01*
X495866666Y-48543333D01*
X495914285Y-48638571D01*
X495914285Y-48733809D01*
X495438095Y-48829047D01*
X496342857Y-49162380D02*
X496342857Y-48495714D01*
X496342857Y-48686190D02*
X496390476Y-48590952D01*
X496438095Y-48543333D01*
X496533333Y-48495714D01*
X496628571Y-48495714D01*
X496961904Y-49162380D02*
X496961904Y-48495714D01*
X496961904Y-48162380D02*
X496914285Y-48210000D01*
X496961904Y-48257619D01*
X497009523Y-48210000D01*
X496961904Y-48162380D01*
X496961904Y-48257619D01*
X497866666Y-49162380D02*
X497866666Y-48638571D01*
X497819047Y-48543333D01*
X497723809Y-48495714D01*
X497533333Y-48495714D01*
X497438095Y-48543333D01*
X497866666Y-49114761D02*
X497771428Y-49162380D01*
X497533333Y-49162380D01*
X497438095Y-49114761D01*
X497390476Y-49019523D01*
X497390476Y-48924285D01*
X497438095Y-48829047D01*
X497533333Y-48781428D01*
X497771428Y-48781428D01*
X497866666Y-48733809D01*
X498485714Y-49162380D02*
X498390476Y-49114761D01*
X498342857Y-49019523D01*
X498342857Y-48162380D01*
D12*
X493670000Y-116070000D02*
X550090000Y-116070000D01*
X464990000Y-89870000D02*
X464990000Y-36670000D01*
X550190000Y-39870000D02*
X464990000Y-39870000D01*
X550090000Y-119270000D02*
X550190000Y-36670000D01*
X544490000Y-119270000D02*
X544490000Y-105470000D01*
X554540000Y-108470000D02*
G75*
G03X554540000Y-108470000I-1250000J0D01*
G01*
X556490000Y-105470000D02*
X544490000Y-105470000D01*
X556590000Y-50470000D02*
X544590000Y-50470000D01*
X470590000Y-50470000D02*
X470590000Y-36670000D01*
X458590000Y-50470000D02*
X470590000Y-50470000D01*
X544590000Y-36670000D02*
X544590000Y-50470000D01*
X463040000Y-47470000D02*
G75*
G03X463040000Y-47470000I-1250000J0D01*
G01*
X554540000Y-47470000D02*
G75*
G03X554540000Y-47470000I-1250000J0D01*
G01*
X504990000Y-63370000D02*
X488590000Y-63370000D01*
X504989978Y-86370000D02*
X488590000Y-86370000D01*
X510490000Y-39870000D02*
X510490000Y-116070000D01*
X514830000Y-113120000D02*
G75*
G03X514830000Y-113120000I-1250000J0D01*
G01*
X548240000Y-53430000D02*
G75*
G03X548240000Y-53430000I-1250000J0D01*
G01*
X548240000Y-101260000D02*
G75*
G03X548240000Y-101260000I-1250000J0D01*
G01*
X514830007Y-42800000D02*
G75*
G03X514830007Y-42800000I-1250040J0D01*
G01*
X515490000Y-39870000D02*
X515490000Y-116070000D01*
X544490000Y-39870000D02*
X544490000Y-116070000D01*
X509490000Y-62170000D02*
X484090000Y-62170000D01*
X484090000Y-62170000D02*
X484090000Y-87570000D01*
X509490000Y-87570000D02*
X484090000Y-87570000D01*
X496360000Y-95290000D02*
X496660000Y-95590000D01*
X496060000Y-95590000D02*
X496660000Y-95590000D01*
X496360000Y-95290000D02*
X496060000Y-95590000D01*
X495510000Y-94390000D02*
X495510000Y-93790000D01*
X498960000Y-95090000D02*
X496160000Y-95090000D01*
X499610000Y-93790000D02*
X499610000Y-94390000D01*
X496160000Y-93090000D02*
X498960000Y-93090000D01*
X498910000Y-93090000D02*
G75*
G02X499610000Y-93790000I0J-700000D01*
G01*
X499610000Y-94390000D02*
G75*
G02X498910000Y-95090000I-700000J0D01*
G01*
X496210000Y-95090000D02*
G75*
G02X495510000Y-94390000I0J700000D01*
G01*
X495510000Y-93790000D02*
G75*
G02X496210000Y-93090000I700000J0D01*
G01*
X490950000Y-62040000D02*
X487840000Y-62040000D01*
X496030000Y-62040000D02*
X492470000Y-62040000D01*
X501110000Y-62040000D02*
X497550000Y-62040000D01*
X488410000Y-62040000D02*
X487840000Y-62040000D01*
X505740000Y-64700000D02*
X505170000Y-64700000D01*
X505170000Y-64700000D02*
X505170000Y-66220000D01*
X505740000Y-62040000D02*
X502630000Y-62040000D01*
X493490000Y-64700000D02*
X489930000Y-64700000D01*
X498570000Y-64700000D02*
X495010000Y-64700000D01*
X503650000Y-64700000D02*
X500090000Y-64700000D01*
X487840000Y-62040000D02*
X487840000Y-64700000D01*
X505740000Y-62040000D02*
X505740000Y-64700000D01*
X477085000Y-53455000D02*
X477835000Y-53455000D01*
X473085000Y-53055000D02*
X473085000Y-59005000D01*
X476185000Y-52505000D02*
X476185000Y-51005000D01*
X477085000Y-52505000D02*
X476185000Y-52505000D01*
X477085000Y-53455000D02*
X477085000Y-52505000D01*
X476185000Y-59555000D02*
X476185000Y-61055000D01*
X477085000Y-59555000D02*
X476185000Y-59555000D01*
X477085000Y-58605000D02*
X477085000Y-59555000D01*
X501910000Y-92480000D02*
X502210000Y-92780000D01*
X501610000Y-92780000D02*
X502210000Y-92780000D01*
X501910000Y-92480000D02*
X501610000Y-92780000D01*
X501060000Y-91580000D02*
X501060000Y-90980000D01*
X504510000Y-92280000D02*
X501710000Y-92280000D01*
X505160000Y-90980000D02*
X505160000Y-91580000D01*
X501710000Y-90280000D02*
X504510000Y-90280000D01*
X504460000Y-90280000D02*
G75*
G02X505160000Y-90980000I0J-700000D01*
G01*
X505160000Y-91580000D02*
G75*
G02X504460000Y-92280000I-700000J0D01*
G01*
X501760000Y-92280000D02*
G75*
G02X501060000Y-91580000I0J700000D01*
G01*
X501060000Y-90980000D02*
G75*
G02X501760000Y-90280000I700000J0D01*
G01*
X487820000Y-87700000D02*
X487820000Y-85040000D01*
X505720000Y-87700000D02*
X505720000Y-85040000D01*
X489910000Y-85040000D02*
X493470000Y-85040000D01*
X494990000Y-85040000D02*
X498550000Y-85040000D01*
X500070000Y-85040000D02*
X503630000Y-85040000D01*
X487820000Y-87700000D02*
X490930000Y-87700000D01*
X488390000Y-85040000D02*
X488390000Y-83520000D01*
X487820000Y-85040000D02*
X488390000Y-85040000D01*
X505150000Y-87700000D02*
X505720000Y-87700000D01*
X492450000Y-87700000D02*
X496010000Y-87700000D01*
X497530000Y-87700000D02*
X501090000Y-87700000D01*
X502610000Y-87700000D02*
X505720000Y-87700000D01*
D11*
X498120000Y-73435000D02*
X497945000Y-73435000D01*
X498120000Y-76785000D02*
X497870000Y-76785000D01*
X494770000Y-76785000D02*
X495020000Y-76785000D01*
X494770000Y-73435000D02*
X495020000Y-73435000D01*
X498120000Y-73435000D02*
X498120000Y-76785000D01*
X494770000Y-73435000D02*
X494770000Y-76785000D01*
X497945000Y-73435000D02*
X497945000Y-72185000D01*
D12*
X499860000Y-59250000D02*
X499860000Y-58750000D01*
X498800000Y-58750000D02*
X498800000Y-59250000D01*
X503890000Y-58740000D02*
X503890000Y-59240000D01*
X504950000Y-59240000D02*
X504950000Y-58740000D01*
X501040000Y-93850000D02*
G75*
G02X501740000Y-93150000I700000J0D01*
G01*
X501740000Y-95150000D02*
G75*
G02X501040000Y-94450000I0J700000D01*
G01*
X505140000Y-94450000D02*
G75*
G02X504440000Y-95150000I-700000J0D01*
G01*
X504440000Y-93150000D02*
G75*
G02X505140000Y-93850000I0J-700000D01*
G01*
X501690000Y-93150000D02*
X504490000Y-93150000D01*
X505140000Y-93850000D02*
X505140000Y-94450000D01*
X504490000Y-95150000D02*
X501690000Y-95150000D01*
X501040000Y-94450000D02*
X501040000Y-93850000D01*
X501890000Y-95350000D02*
X501590000Y-95650000D01*
X501590000Y-95650000D02*
X502190000Y-95650000D01*
X501890000Y-95350000D02*
X502190000Y-95650000D01*
X495520000Y-96620000D02*
G75*
G02X496220000Y-95920000I700000J0D01*
G01*
X496220000Y-97920000D02*
G75*
G02X495520000Y-97220000I0J700000D01*
G01*
X499620000Y-97220000D02*
G75*
G02X498920000Y-97920000I-700000J0D01*
G01*
X498920000Y-95920000D02*
G75*
G02X499620000Y-96620000I0J-700000D01*
G01*
X496170000Y-95920000D02*
X498970000Y-95920000D01*
X499620000Y-96620000D02*
X499620000Y-97220000D01*
X498970000Y-97920000D02*
X496170000Y-97920000D01*
X495520000Y-97220000D02*
X495520000Y-96620000D01*
X496370000Y-98120000D02*
X496070000Y-98420000D01*
X496070000Y-98420000D02*
X496670000Y-98420000D01*
X496370000Y-98120000D02*
X496670000Y-98420000D01*
X496350000Y-92370000D02*
X496650000Y-92670000D01*
X496050000Y-92670000D02*
X496650000Y-92670000D01*
X496350000Y-92370000D02*
X496050000Y-92670000D01*
X495500000Y-91470000D02*
X495500000Y-90870000D01*
X498950000Y-92170000D02*
X496150000Y-92170000D01*
X499600000Y-90870000D02*
X499600000Y-91470000D01*
X496150000Y-90170000D02*
X498950000Y-90170000D01*
X498900000Y-90170000D02*
G75*
G02X499600000Y-90870000I0J-700000D01*
G01*
X499600000Y-91470000D02*
G75*
G02X498900000Y-92170000I-700000J0D01*
G01*
X496200000Y-92170000D02*
G75*
G02X495500000Y-91470000I0J700000D01*
G01*
X495500000Y-90870000D02*
G75*
G02X496200000Y-90170000I700000J0D01*
G01*
D11*
X467156666Y-83472380D02*
X466823333Y-82996190D01*
X466585238Y-83472380D02*
X466585238Y-82472380D01*
X466966190Y-82472380D01*
X467061428Y-82520000D01*
X467109047Y-82567619D01*
X467156666Y-82662857D01*
X467156666Y-82805714D01*
X467109047Y-82900952D01*
X467061428Y-82948571D01*
X466966190Y-82996190D01*
X466585238Y-82996190D01*
X467585238Y-82948571D02*
X467918571Y-82948571D01*
X468061428Y-83472380D02*
X467585238Y-83472380D01*
X467585238Y-82472380D01*
X468061428Y-82472380D01*
X468823333Y-82948571D02*
X468490000Y-82948571D01*
X468490000Y-83472380D02*
X468490000Y-82472380D01*
X468966190Y-82472380D01*
X469490000Y-82472380D02*
X469490000Y-82710476D01*
X469251904Y-82615238D02*
X469490000Y-82710476D01*
X469728095Y-82615238D01*
X469347142Y-82900952D02*
X469490000Y-82710476D01*
X469632857Y-82900952D01*
X470251904Y-82472380D02*
X470251904Y-82710476D01*
X470013809Y-82615238D02*
X470251904Y-82710476D01*
X470490000Y-82615238D01*
X470109047Y-82900952D02*
X470251904Y-82710476D01*
X470394761Y-82900952D01*
X551956666Y-44672380D02*
X551623333Y-44196190D01*
X551385238Y-44672380D02*
X551385238Y-43672380D01*
X551766190Y-43672380D01*
X551861428Y-43720000D01*
X551909047Y-43767619D01*
X551956666Y-43862857D01*
X551956666Y-44005714D01*
X551909047Y-44100952D01*
X551861428Y-44148571D01*
X551766190Y-44196190D01*
X551385238Y-44196190D01*
X552385238Y-44148571D02*
X552718571Y-44148571D01*
X552861428Y-44672380D02*
X552385238Y-44672380D01*
X552385238Y-43672380D01*
X552861428Y-43672380D01*
X553623333Y-44148571D02*
X553290000Y-44148571D01*
X553290000Y-44672380D02*
X553290000Y-43672380D01*
X553766190Y-43672380D01*
X554290000Y-43672380D02*
X554290000Y-43910476D01*
X554051904Y-43815238D02*
X554290000Y-43910476D01*
X554528095Y-43815238D01*
X554147142Y-44100952D02*
X554290000Y-43910476D01*
X554432857Y-44100952D01*
X555051904Y-43672380D02*
X555051904Y-43910476D01*
X554813809Y-43815238D02*
X555051904Y-43910476D01*
X555290000Y-43815238D01*
X554909047Y-44100952D02*
X555051904Y-43910476D01*
X555194761Y-44100952D01*
X460456666Y-44672380D02*
X460123333Y-44196190D01*
X459885238Y-44672380D02*
X459885238Y-43672380D01*
X460266190Y-43672380D01*
X460361428Y-43720000D01*
X460409047Y-43767619D01*
X460456666Y-43862857D01*
X460456666Y-44005714D01*
X460409047Y-44100952D01*
X460361428Y-44148571D01*
X460266190Y-44196190D01*
X459885238Y-44196190D01*
X460885238Y-44148571D02*
X461218571Y-44148571D01*
X461361428Y-44672380D02*
X460885238Y-44672380D01*
X460885238Y-43672380D01*
X461361428Y-43672380D01*
X462123333Y-44148571D02*
X461790000Y-44148571D01*
X461790000Y-44672380D02*
X461790000Y-43672380D01*
X462266190Y-43672380D01*
X462790000Y-43672380D02*
X462790000Y-43910476D01*
X462551904Y-43815238D02*
X462790000Y-43910476D01*
X463028095Y-43815238D01*
X462647142Y-44100952D02*
X462790000Y-43910476D01*
X462932857Y-44100952D01*
X463551904Y-43672380D02*
X463551904Y-43910476D01*
X463313809Y-43815238D02*
X463551904Y-43910476D01*
X463790000Y-43815238D01*
X463409047Y-44100952D02*
X463551904Y-43910476D01*
X463694761Y-44100952D01*
X551956666Y-105672380D02*
X551623333Y-105196190D01*
X551385238Y-105672380D02*
X551385238Y-104672380D01*
X551766190Y-104672380D01*
X551861428Y-104720000D01*
X551909047Y-104767619D01*
X551956666Y-104862857D01*
X551956666Y-105005714D01*
X551909047Y-105100952D01*
X551861428Y-105148571D01*
X551766190Y-105196190D01*
X551385238Y-105196190D01*
X552385238Y-105148571D02*
X552718571Y-105148571D01*
X552861428Y-105672380D02*
X552385238Y-105672380D01*
X552385238Y-104672380D01*
X552861428Y-104672380D01*
X553623333Y-105148571D02*
X553290000Y-105148571D01*
X553290000Y-105672380D02*
X553290000Y-104672380D01*
X553766190Y-104672380D01*
X554290000Y-104672380D02*
X554290000Y-104910476D01*
X554051904Y-104815238D02*
X554290000Y-104910476D01*
X554528095Y-104815238D01*
X554147142Y-105100952D02*
X554290000Y-104910476D01*
X554432857Y-105100952D01*
X555051904Y-104672380D02*
X555051904Y-104910476D01*
X554813809Y-104815238D02*
X555051904Y-104910476D01*
X555290000Y-104815238D01*
X554909047Y-105100952D02*
X555051904Y-104910476D01*
X555194761Y-105100952D01*
X543942380Y-55063333D02*
X543466190Y-55396666D01*
X543942380Y-55634761D02*
X542942380Y-55634761D01*
X542942380Y-55253809D01*
X542990000Y-55158571D01*
X543037619Y-55110952D01*
X543132857Y-55063333D01*
X543275714Y-55063333D01*
X543370952Y-55110952D01*
X543418571Y-55158571D01*
X543466190Y-55253809D01*
X543466190Y-55634761D01*
X543418571Y-54634761D02*
X543418571Y-54301428D01*
X543942380Y-54158571D02*
X543942380Y-54634761D01*
X542942380Y-54634761D01*
X542942380Y-54158571D01*
X543418571Y-53396666D02*
X543418571Y-53730000D01*
X543942380Y-53730000D02*
X542942380Y-53730000D01*
X542942380Y-53253809D01*
X542942380Y-52730000D02*
X543180476Y-52730000D01*
X543085238Y-52968095D02*
X543180476Y-52730000D01*
X543085238Y-52491904D01*
X543370952Y-52872857D02*
X543180476Y-52730000D01*
X543370952Y-52587142D01*
X542942380Y-51968095D02*
X543180476Y-51968095D01*
X543085238Y-52206190D02*
X543180476Y-51968095D01*
X543085238Y-51730000D01*
X543370952Y-52110952D02*
X543180476Y-51968095D01*
X543370952Y-51825238D01*
X543942380Y-103563333D02*
X543466190Y-103896666D01*
X543942380Y-104134761D02*
X542942380Y-104134761D01*
X542942380Y-103753809D01*
X542990000Y-103658571D01*
X543037619Y-103610952D01*
X543132857Y-103563333D01*
X543275714Y-103563333D01*
X543370952Y-103610952D01*
X543418571Y-103658571D01*
X543466190Y-103753809D01*
X543466190Y-104134761D01*
X543418571Y-103134761D02*
X543418571Y-102801428D01*
X543942380Y-102658571D02*
X543942380Y-103134761D01*
X542942380Y-103134761D01*
X542942380Y-102658571D01*
X543418571Y-101896666D02*
X543418571Y-102230000D01*
X543942380Y-102230000D02*
X542942380Y-102230000D01*
X542942380Y-101753809D01*
X542942380Y-101230000D02*
X543180476Y-101230000D01*
X543085238Y-101468095D02*
X543180476Y-101230000D01*
X543085238Y-100991904D01*
X543370952Y-101372857D02*
X543180476Y-101230000D01*
X543370952Y-101087142D01*
X542942380Y-100468095D02*
X543180476Y-100468095D01*
X543085238Y-100706190D02*
X543180476Y-100468095D01*
X543085238Y-100230000D01*
X543370952Y-100610952D02*
X543180476Y-100468095D01*
X543370952Y-100325238D01*
X509932380Y-44133333D02*
X509456190Y-44466666D01*
X509932380Y-44704761D02*
X508932380Y-44704761D01*
X508932380Y-44323809D01*
X508980000Y-44228571D01*
X509027619Y-44180952D01*
X509122857Y-44133333D01*
X509265714Y-44133333D01*
X509360952Y-44180952D01*
X509408571Y-44228571D01*
X509456190Y-44323809D01*
X509456190Y-44704761D01*
X509408571Y-43704761D02*
X509408571Y-43371428D01*
X509932380Y-43228571D02*
X509932380Y-43704761D01*
X508932380Y-43704761D01*
X508932380Y-43228571D01*
X509408571Y-42466666D02*
X509408571Y-42800000D01*
X509932380Y-42800000D02*
X508932380Y-42800000D01*
X508932380Y-42323809D01*
X508932380Y-41800000D02*
X509170476Y-41800000D01*
X509075238Y-42038095D02*
X509170476Y-41800000D01*
X509075238Y-41561904D01*
X509360952Y-41942857D02*
X509170476Y-41800000D01*
X509360952Y-41657142D01*
X508932380Y-41038095D02*
X509170476Y-41038095D01*
X509075238Y-41276190D02*
X509170476Y-41038095D01*
X509075238Y-40800000D01*
X509360952Y-41180952D02*
X509170476Y-41038095D01*
X509360952Y-40895238D01*
X509932380Y-114463333D02*
X509456190Y-114796666D01*
X509932380Y-115034761D02*
X508932380Y-115034761D01*
X508932380Y-114653809D01*
X508980000Y-114558571D01*
X509027619Y-114510952D01*
X509122857Y-114463333D01*
X509265714Y-114463333D01*
X509360952Y-114510952D01*
X509408571Y-114558571D01*
X509456190Y-114653809D01*
X509456190Y-115034761D01*
X509408571Y-114034761D02*
X509408571Y-113701428D01*
X509932380Y-113558571D02*
X509932380Y-114034761D01*
X508932380Y-114034761D01*
X508932380Y-113558571D01*
X509408571Y-112796666D02*
X509408571Y-113130000D01*
X509932380Y-113130000D02*
X508932380Y-113130000D01*
X508932380Y-112653809D01*
X508932380Y-112130000D02*
X509170476Y-112130000D01*
X509075238Y-112368095D02*
X509170476Y-112130000D01*
X509075238Y-111891904D01*
X509360952Y-112272857D02*
X509170476Y-112130000D01*
X509360952Y-111987142D01*
X508932380Y-111368095D02*
X509170476Y-111368095D01*
X509075238Y-111606190D02*
X509170476Y-111368095D01*
X509075238Y-111130000D01*
X509360952Y-111510952D02*
X509170476Y-111368095D01*
X509360952Y-111225238D01*
X494092380Y-95909523D02*
X494806666Y-95909523D01*
X494949523Y-95957142D01*
X495044761Y-96052380D01*
X495092380Y-96195238D01*
X495092380Y-96290476D01*
X495092380Y-95433333D02*
X494092380Y-95433333D01*
X494092380Y-95052380D01*
X494140000Y-94957142D01*
X494187619Y-94909523D01*
X494282857Y-94861904D01*
X494425714Y-94861904D01*
X494520952Y-94909523D01*
X494568571Y-94957142D01*
X494616190Y-95052380D01*
X494616190Y-95433333D01*
X494187619Y-94480952D02*
X494140000Y-94433333D01*
X494092380Y-94338095D01*
X494092380Y-94100000D01*
X494140000Y-94004761D01*
X494187619Y-93957142D01*
X494282857Y-93909523D01*
X494378095Y-93909523D01*
X494520952Y-93957142D01*
X495092380Y-94528571D01*
X495092380Y-93909523D01*
X494092380Y-93576190D02*
X494092380Y-92909523D01*
X495092380Y-93338095D01*
X506192380Y-64179523D02*
X506906666Y-64179523D01*
X507049523Y-64227142D01*
X507144761Y-64322380D01*
X507192380Y-64465238D01*
X507192380Y-64560476D01*
X507192380Y-63179523D02*
X507192380Y-63750952D01*
X507192380Y-63465238D02*
X506192380Y-63465238D01*
X506335238Y-63560476D01*
X506430476Y-63655714D01*
X506478095Y-63750952D01*
X506192380Y-62846190D02*
X506192380Y-62227142D01*
X506573333Y-62560476D01*
X506573333Y-62417619D01*
X506620952Y-62322380D01*
X506668571Y-62274761D01*
X506763809Y-62227142D01*
X507001904Y-62227142D01*
X507097142Y-62274761D01*
X507144761Y-62322380D01*
X507192380Y-62417619D01*
X507192380Y-62703333D01*
X507144761Y-62798571D01*
X507097142Y-62846190D01*
X478412380Y-56839523D02*
X479126666Y-56839523D01*
X479269523Y-56887142D01*
X479364761Y-56982380D01*
X479412380Y-57125238D01*
X479412380Y-57220476D01*
X479412380Y-55839523D02*
X479412380Y-56410952D01*
X479412380Y-56125238D02*
X478412380Y-56125238D01*
X478555238Y-56220476D01*
X478650476Y-56315714D01*
X478698095Y-56410952D01*
X479412380Y-54887142D02*
X479412380Y-55458571D01*
X479412380Y-55172857D02*
X478412380Y-55172857D01*
X478555238Y-55268095D01*
X478650476Y-55363333D01*
X478698095Y-55458571D01*
X505810476Y-90832380D02*
X505810476Y-91546666D01*
X505762857Y-91689523D01*
X505667619Y-91784761D01*
X505524761Y-91832380D01*
X505429523Y-91832380D01*
X506286666Y-91832380D02*
X506286666Y-90832380D01*
X506667619Y-90832380D01*
X506762857Y-90880000D01*
X506810476Y-90927619D01*
X506858095Y-91022857D01*
X506858095Y-91165714D01*
X506810476Y-91260952D01*
X506762857Y-91308571D01*
X506667619Y-91356190D01*
X506286666Y-91356190D01*
X507239047Y-90927619D02*
X507286666Y-90880000D01*
X507381904Y-90832380D01*
X507620000Y-90832380D01*
X507715238Y-90880000D01*
X507762857Y-90927619D01*
X507810476Y-91022857D01*
X507810476Y-91118095D01*
X507762857Y-91260952D01*
X507191428Y-91832380D01*
X507810476Y-91832380D01*
X508429523Y-90832380D02*
X508524761Y-90832380D01*
X508620000Y-90880000D01*
X508667619Y-90927619D01*
X508715238Y-91022857D01*
X508762857Y-91213333D01*
X508762857Y-91451428D01*
X508715238Y-91641904D01*
X508667619Y-91737142D01*
X508620000Y-91784761D01*
X508524761Y-91832380D01*
X508429523Y-91832380D01*
X508334285Y-91784761D01*
X508286666Y-91737142D01*
X508239047Y-91641904D01*
X508191428Y-91451428D01*
X508191428Y-91213333D01*
X508239047Y-91022857D01*
X508286666Y-90927619D01*
X508334285Y-90880000D01*
X508429523Y-90832380D01*
X486272380Y-87179523D02*
X486986666Y-87179523D01*
X487129523Y-87227142D01*
X487224761Y-87322380D01*
X487272380Y-87465238D01*
X487272380Y-87560476D01*
X487272380Y-86179523D02*
X487272380Y-86750952D01*
X487272380Y-86465238D02*
X486272380Y-86465238D01*
X486415238Y-86560476D01*
X486510476Y-86655714D01*
X486558095Y-86750952D01*
X486272380Y-85274761D02*
X486272380Y-85750952D01*
X486748571Y-85798571D01*
X486700952Y-85750952D01*
X486653333Y-85655714D01*
X486653333Y-85417619D01*
X486700952Y-85322380D01*
X486748571Y-85274761D01*
X486843809Y-85227142D01*
X487081904Y-85227142D01*
X487177142Y-85274761D01*
X487224761Y-85322380D01*
X487272380Y-85417619D01*
X487272380Y-85655714D01*
X487224761Y-85750952D01*
X487177142Y-85798571D01*
X498497380Y-76348095D02*
X499306904Y-76348095D01*
X499402142Y-76300476D01*
X499449761Y-76252857D01*
X499497380Y-76157619D01*
X499497380Y-75967142D01*
X499449761Y-75871904D01*
X499402142Y-75824285D01*
X499306904Y-75776666D01*
X498497380Y-75776666D01*
X499497380Y-74776666D02*
X499497380Y-75348095D01*
X499497380Y-75062380D02*
X498497380Y-75062380D01*
X498640238Y-75157619D01*
X498735476Y-75252857D01*
X498783095Y-75348095D01*
X498925952Y-74205238D02*
X498878333Y-74300476D01*
X498830714Y-74348095D01*
X498735476Y-74395714D01*
X498687857Y-74395714D01*
X498592619Y-74348095D01*
X498545000Y-74300476D01*
X498497380Y-74205238D01*
X498497380Y-74014761D01*
X498545000Y-73919523D01*
X498592619Y-73871904D01*
X498687857Y-73824285D01*
X498735476Y-73824285D01*
X498830714Y-73871904D01*
X498878333Y-73919523D01*
X498925952Y-74014761D01*
X498925952Y-74205238D01*
X498973571Y-74300476D01*
X499021190Y-74348095D01*
X499116428Y-74395714D01*
X499306904Y-74395714D01*
X499402142Y-74348095D01*
X499449761Y-74300476D01*
X499497380Y-74205238D01*
X499497380Y-74014761D01*
X499449761Y-73919523D01*
X499402142Y-73871904D01*
X499306904Y-73824285D01*
X499116428Y-73824285D01*
X499021190Y-73871904D01*
X498973571Y-73919523D01*
X498925952Y-74014761D01*
X501132380Y-59642857D02*
X500656190Y-59976190D01*
X501132380Y-60214285D02*
X500132380Y-60214285D01*
X500132380Y-59833333D01*
X500180000Y-59738095D01*
X500227619Y-59690476D01*
X500322857Y-59642857D01*
X500465714Y-59642857D01*
X500560952Y-59690476D01*
X500608571Y-59738095D01*
X500656190Y-59833333D01*
X500656190Y-60214285D01*
X501132380Y-58690476D02*
X501132380Y-59261904D01*
X501132380Y-58976190D02*
X500132380Y-58976190D01*
X500275238Y-59071428D01*
X500370476Y-59166666D01*
X500418095Y-59261904D01*
X500560952Y-58119047D02*
X500513333Y-58214285D01*
X500465714Y-58261904D01*
X500370476Y-58309523D01*
X500322857Y-58309523D01*
X500227619Y-58261904D01*
X500180000Y-58214285D01*
X500132380Y-58119047D01*
X500132380Y-57928571D01*
X500180000Y-57833333D01*
X500227619Y-57785714D01*
X500322857Y-57738095D01*
X500370476Y-57738095D01*
X500465714Y-57785714D01*
X500513333Y-57833333D01*
X500560952Y-57928571D01*
X500560952Y-58119047D01*
X500608571Y-58214285D01*
X500656190Y-58261904D01*
X500751428Y-58309523D01*
X500941904Y-58309523D01*
X501037142Y-58261904D01*
X501084761Y-58214285D01*
X501132380Y-58119047D01*
X501132380Y-57928571D01*
X501084761Y-57833333D01*
X501037142Y-57785714D01*
X500941904Y-57738095D01*
X500751428Y-57738095D01*
X500656190Y-57785714D01*
X500608571Y-57833333D01*
X500560952Y-57928571D01*
X506222380Y-59632857D02*
X505746190Y-59966190D01*
X506222380Y-60204285D02*
X505222380Y-60204285D01*
X505222380Y-59823333D01*
X505270000Y-59728095D01*
X505317619Y-59680476D01*
X505412857Y-59632857D01*
X505555714Y-59632857D01*
X505650952Y-59680476D01*
X505698571Y-59728095D01*
X505746190Y-59823333D01*
X505746190Y-60204285D01*
X506222380Y-58680476D02*
X506222380Y-59251904D01*
X506222380Y-58966190D02*
X505222380Y-58966190D01*
X505365238Y-59061428D01*
X505460476Y-59156666D01*
X505508095Y-59251904D01*
X505222380Y-57823333D02*
X505222380Y-58013809D01*
X505270000Y-58109047D01*
X505317619Y-58156666D01*
X505460476Y-58251904D01*
X505650952Y-58299523D01*
X506031904Y-58299523D01*
X506127142Y-58251904D01*
X506174761Y-58204285D01*
X506222380Y-58109047D01*
X506222380Y-57918571D01*
X506174761Y-57823333D01*
X506127142Y-57775714D01*
X506031904Y-57728095D01*
X505793809Y-57728095D01*
X505698571Y-57775714D01*
X505650952Y-57823333D01*
X505603333Y-57918571D01*
X505603333Y-58109047D01*
X505650952Y-58204285D01*
X505698571Y-58251904D01*
X505793809Y-58299523D01*
X505810476Y-93592380D02*
X505810476Y-94306666D01*
X505762857Y-94449523D01*
X505667619Y-94544761D01*
X505524761Y-94592380D01*
X505429523Y-94592380D01*
X506286666Y-94592380D02*
X506286666Y-93592380D01*
X506667619Y-93592380D01*
X506762857Y-93640000D01*
X506810476Y-93687619D01*
X506858095Y-93782857D01*
X506858095Y-93925714D01*
X506810476Y-94020952D01*
X506762857Y-94068571D01*
X506667619Y-94116190D01*
X506286666Y-94116190D01*
X507239047Y-93687619D02*
X507286666Y-93640000D01*
X507381904Y-93592380D01*
X507620000Y-93592380D01*
X507715238Y-93640000D01*
X507762857Y-93687619D01*
X507810476Y-93782857D01*
X507810476Y-93878095D01*
X507762857Y-94020952D01*
X507191428Y-94592380D01*
X507810476Y-94592380D01*
X508191428Y-93687619D02*
X508239047Y-93640000D01*
X508334285Y-93592380D01*
X508572380Y-93592380D01*
X508667619Y-93640000D01*
X508715238Y-93687619D01*
X508762857Y-93782857D01*
X508762857Y-93878095D01*
X508715238Y-94020952D01*
X508143809Y-94592380D01*
X508762857Y-94592380D01*
X500450476Y-96402380D02*
X500450476Y-97116666D01*
X500402857Y-97259523D01*
X500307619Y-97354761D01*
X500164761Y-97402380D01*
X500069523Y-97402380D01*
X500926666Y-97402380D02*
X500926666Y-96402380D01*
X501307619Y-96402380D01*
X501402857Y-96450000D01*
X501450476Y-96497619D01*
X501498095Y-96592857D01*
X501498095Y-96735714D01*
X501450476Y-96830952D01*
X501402857Y-96878571D01*
X501307619Y-96926190D01*
X500926666Y-96926190D01*
X501879047Y-96497619D02*
X501926666Y-96450000D01*
X502021904Y-96402380D01*
X502260000Y-96402380D01*
X502355238Y-96450000D01*
X502402857Y-96497619D01*
X502450476Y-96592857D01*
X502450476Y-96688095D01*
X502402857Y-96830952D01*
X501831428Y-97402380D01*
X502450476Y-97402380D01*
X503307619Y-96735714D02*
X503307619Y-97402380D01*
X503069523Y-96354761D02*
X502831428Y-97069047D01*
X503450476Y-97069047D01*
X494112380Y-92319523D02*
X494826666Y-92319523D01*
X494969523Y-92367142D01*
X495064761Y-92462380D01*
X495112380Y-92605238D01*
X495112380Y-92700476D01*
X495112380Y-91843333D02*
X494112380Y-91843333D01*
X494112380Y-91462380D01*
X494160000Y-91367142D01*
X494207619Y-91319523D01*
X494302857Y-91271904D01*
X494445714Y-91271904D01*
X494540952Y-91319523D01*
X494588571Y-91367142D01*
X494636190Y-91462380D01*
X494636190Y-91843333D01*
X494207619Y-90890952D02*
X494160000Y-90843333D01*
X494112380Y-90748095D01*
X494112380Y-90510000D01*
X494160000Y-90414761D01*
X494207619Y-90367142D01*
X494302857Y-90319523D01*
X494398095Y-90319523D01*
X494540952Y-90367142D01*
X495112380Y-90938571D01*
X495112380Y-90319523D01*
X494112380Y-89986190D02*
X494112380Y-89367142D01*
X494493333Y-89700476D01*
X494493333Y-89557619D01*
X494540952Y-89462380D01*
X494588571Y-89414761D01*
X494683809Y-89367142D01*
X494921904Y-89367142D01*
X495017142Y-89414761D01*
X495064761Y-89462380D01*
X495112380Y-89557619D01*
X495112380Y-89843333D01*
X495064761Y-89938571D01*
X495017142Y-89986190D01*
M02*
