G04 #@! TF.GenerationSoftware,KiCad,Pcbnew,(5.1.2)-2*
G04 #@! TF.CreationDate,2021-09-09T10:29:02-03:00*
G04 #@! TF.ProjectId,MAG_Plus,4d41475f-506c-4757-932e-6b696361645f,rev?*
G04 #@! TF.SameCoordinates,Original*
G04 #@! TF.FileFunction,Soldermask,Bot*
G04 #@! TF.FilePolarity,Negative*
%FSLAX46Y46*%
G04 Gerber Fmt 4.6, Leading zero omitted, Abs format (unit mm)*
G04 Created by KiCad (PCBNEW (5.1.2)-2) date 2021-09-09 10:29:02*
%MOMM*%
%LPD*%
G04 APERTURE LIST*
%ADD10C,0.100000*%
G04 APERTURE END LIST*
D10*
G36*
X513178903Y-110873213D02*
G01*
X513401177Y-110917426D01*
X513819932Y-111090880D01*
X514196802Y-111342696D01*
X514517304Y-111663198D01*
X514769120Y-112040068D01*
X514942574Y-112458823D01*
X515031000Y-112903371D01*
X515031000Y-113356629D01*
X514942574Y-113801177D01*
X514769120Y-114219932D01*
X514517304Y-114596802D01*
X514196802Y-114917304D01*
X513819932Y-115169120D01*
X513401177Y-115342574D01*
X513178903Y-115386787D01*
X512956630Y-115431000D01*
X512503370Y-115431000D01*
X512281097Y-115386787D01*
X512058823Y-115342574D01*
X511640068Y-115169120D01*
X511263198Y-114917304D01*
X510942696Y-114596802D01*
X510690880Y-114219932D01*
X510517426Y-113801177D01*
X510429000Y-113356629D01*
X510429000Y-112903371D01*
X510517426Y-112458823D01*
X510690880Y-112040068D01*
X510942696Y-111663198D01*
X511263198Y-111342696D01*
X511640068Y-111090880D01*
X512058823Y-110917426D01*
X512281097Y-110873213D01*
X512503370Y-110829000D01*
X512956630Y-110829000D01*
X513178903Y-110873213D01*
X513178903Y-110873213D01*
G37*
G36*
X553738903Y-106213213D02*
G01*
X553961177Y-106257426D01*
X554379932Y-106430880D01*
X554756802Y-106682696D01*
X555077304Y-107003198D01*
X555329120Y-107380068D01*
X555502574Y-107798823D01*
X555591000Y-108243371D01*
X555591000Y-108696629D01*
X555502574Y-109141177D01*
X555329120Y-109559932D01*
X555077304Y-109936802D01*
X554756802Y-110257304D01*
X554379932Y-110509120D01*
X553961177Y-110682574D01*
X553738903Y-110726787D01*
X553516630Y-110771000D01*
X553063370Y-110771000D01*
X552841097Y-110726787D01*
X552618823Y-110682574D01*
X552200068Y-110509120D01*
X551823198Y-110257304D01*
X551502696Y-109936802D01*
X551250880Y-109559932D01*
X551077426Y-109141177D01*
X550989000Y-108696629D01*
X550989000Y-108243371D01*
X551077426Y-107798823D01*
X551250880Y-107380068D01*
X551502696Y-107003198D01*
X551823198Y-106682696D01*
X552200068Y-106430880D01*
X552618823Y-106257426D01*
X552841097Y-106213213D01*
X553063370Y-106169000D01*
X553516630Y-106169000D01*
X553738903Y-106213213D01*
X553738903Y-106213213D01*
G37*
G36*
X547188903Y-99973213D02*
G01*
X547411177Y-100017426D01*
X547829932Y-100190880D01*
X548206802Y-100442696D01*
X548527304Y-100763198D01*
X548779120Y-101140068D01*
X548952574Y-101558823D01*
X549041000Y-102003371D01*
X549041000Y-102456629D01*
X548952574Y-102901177D01*
X548779120Y-103319932D01*
X548527304Y-103696802D01*
X548206802Y-104017304D01*
X547829932Y-104269120D01*
X547411177Y-104442574D01*
X547188903Y-104486787D01*
X546966630Y-104531000D01*
X546513370Y-104531000D01*
X546291097Y-104486787D01*
X546068823Y-104442574D01*
X545650068Y-104269120D01*
X545273198Y-104017304D01*
X544952696Y-103696802D01*
X544700880Y-103319932D01*
X544527426Y-102901177D01*
X544439000Y-102456629D01*
X544439000Y-102003371D01*
X544527426Y-101558823D01*
X544700880Y-101140068D01*
X544952696Y-100763198D01*
X545273198Y-100442696D01*
X545650068Y-100190880D01*
X546068823Y-100017426D01*
X546291097Y-99973213D01*
X546513370Y-99929000D01*
X546966630Y-99929000D01*
X547188903Y-99973213D01*
X547188903Y-99973213D01*
G37*
G36*
X468938903Y-84013213D02*
G01*
X469161177Y-84057426D01*
X469579932Y-84230880D01*
X469956802Y-84482696D01*
X470277304Y-84803198D01*
X470529120Y-85180068D01*
X470702574Y-85598823D01*
X470791000Y-86043371D01*
X470791000Y-86496629D01*
X470702574Y-86941177D01*
X470529120Y-87359932D01*
X470277304Y-87736802D01*
X469956802Y-88057304D01*
X469579932Y-88309120D01*
X469161177Y-88482574D01*
X468938903Y-88526787D01*
X468716630Y-88571000D01*
X468263370Y-88571000D01*
X468041097Y-88526787D01*
X467818823Y-88482574D01*
X467400068Y-88309120D01*
X467023198Y-88057304D01*
X466702696Y-87736802D01*
X466450880Y-87359932D01*
X466277426Y-86941177D01*
X466189000Y-86496629D01*
X466189000Y-86043371D01*
X466277426Y-85598823D01*
X466450880Y-85180068D01*
X466702696Y-84803198D01*
X467023198Y-84482696D01*
X467400068Y-84230880D01*
X467818823Y-84057426D01*
X468041097Y-84013213D01*
X468263370Y-83969000D01*
X468716630Y-83969000D01*
X468938903Y-84013213D01*
X468938903Y-84013213D01*
G37*
G36*
X547188903Y-51473213D02*
G01*
X547411177Y-51517426D01*
X547829932Y-51690880D01*
X548206802Y-51942696D01*
X548527304Y-52263198D01*
X548779120Y-52640068D01*
X548952574Y-53058823D01*
X549041000Y-53503371D01*
X549041000Y-53956629D01*
X548952574Y-54401177D01*
X548779120Y-54819932D01*
X548527304Y-55196802D01*
X548206802Y-55517304D01*
X547829932Y-55769120D01*
X547411177Y-55942574D01*
X547188903Y-55986787D01*
X546966630Y-56031000D01*
X546513370Y-56031000D01*
X546291097Y-55986787D01*
X546068823Y-55942574D01*
X545650068Y-55769120D01*
X545273198Y-55517304D01*
X544952696Y-55196802D01*
X544700880Y-54819932D01*
X544527426Y-54401177D01*
X544439000Y-53956629D01*
X544439000Y-53503371D01*
X544527426Y-53058823D01*
X544700880Y-52640068D01*
X544952696Y-52263198D01*
X545273198Y-51942696D01*
X545650068Y-51690880D01*
X546068823Y-51517426D01*
X546291097Y-51473213D01*
X546513370Y-51429000D01*
X546966630Y-51429000D01*
X547188903Y-51473213D01*
X547188903Y-51473213D01*
G37*
G36*
X553738903Y-45213213D02*
G01*
X553961177Y-45257426D01*
X554379932Y-45430880D01*
X554756802Y-45682696D01*
X555077304Y-46003198D01*
X555329120Y-46380068D01*
X555502574Y-46798823D01*
X555591000Y-47243371D01*
X555591000Y-47696629D01*
X555502574Y-48141177D01*
X555329120Y-48559932D01*
X555077304Y-48936802D01*
X554756802Y-49257304D01*
X554379932Y-49509120D01*
X553961177Y-49682574D01*
X553738903Y-49726787D01*
X553516630Y-49771000D01*
X553063370Y-49771000D01*
X552841097Y-49726787D01*
X552618823Y-49682574D01*
X552200068Y-49509120D01*
X551823198Y-49257304D01*
X551502696Y-48936802D01*
X551250880Y-48559932D01*
X551077426Y-48141177D01*
X550989000Y-47696629D01*
X550989000Y-47243371D01*
X551077426Y-46798823D01*
X551250880Y-46380068D01*
X551502696Y-46003198D01*
X551823198Y-45682696D01*
X552200068Y-45430880D01*
X552618823Y-45257426D01*
X552841097Y-45213213D01*
X553063370Y-45169000D01*
X553516630Y-45169000D01*
X553738903Y-45213213D01*
X553738903Y-45213213D01*
G37*
G36*
X462238903Y-45213213D02*
G01*
X462461177Y-45257426D01*
X462879932Y-45430880D01*
X463256802Y-45682696D01*
X463577304Y-46003198D01*
X463829120Y-46380068D01*
X464002574Y-46798823D01*
X464091000Y-47243371D01*
X464091000Y-47696629D01*
X464002574Y-48141177D01*
X463829120Y-48559932D01*
X463577304Y-48936802D01*
X463256802Y-49257304D01*
X462879932Y-49509120D01*
X462461177Y-49682574D01*
X462238903Y-49726787D01*
X462016630Y-49771000D01*
X461563370Y-49771000D01*
X461341097Y-49726787D01*
X461118823Y-49682574D01*
X460700068Y-49509120D01*
X460323198Y-49257304D01*
X460002696Y-48936802D01*
X459750880Y-48559932D01*
X459577426Y-48141177D01*
X459489000Y-47696629D01*
X459489000Y-47243371D01*
X459577426Y-46798823D01*
X459750880Y-46380068D01*
X460002696Y-46003198D01*
X460323198Y-45682696D01*
X460700068Y-45430880D01*
X461118823Y-45257426D01*
X461341097Y-45213213D01*
X461563370Y-45169000D01*
X462016630Y-45169000D01*
X462238903Y-45213213D01*
X462238903Y-45213213D01*
G37*
G36*
X513178903Y-40543213D02*
G01*
X513401177Y-40587426D01*
X513819932Y-40760880D01*
X514196802Y-41012696D01*
X514517304Y-41333198D01*
X514769120Y-41710068D01*
X514942574Y-42128823D01*
X515031000Y-42573371D01*
X515031000Y-43026629D01*
X514942574Y-43471177D01*
X514769120Y-43889932D01*
X514517304Y-44266802D01*
X514196802Y-44587304D01*
X513819932Y-44839120D01*
X513401177Y-45012574D01*
X513178903Y-45056787D01*
X512956630Y-45101000D01*
X512503370Y-45101000D01*
X512281097Y-45056787D01*
X512058823Y-45012574D01*
X511640068Y-44839120D01*
X511263198Y-44587304D01*
X510942696Y-44266802D01*
X510690880Y-43889932D01*
X510517426Y-43471177D01*
X510429000Y-43026629D01*
X510429000Y-42573371D01*
X510517426Y-42128823D01*
X510690880Y-41710068D01*
X510942696Y-41333198D01*
X511263198Y-41012696D01*
X511640068Y-40760880D01*
X512058823Y-40587426D01*
X512281097Y-40543213D01*
X512503370Y-40499000D01*
X512956630Y-40499000D01*
X513178903Y-40543213D01*
X513178903Y-40543213D01*
G37*
M02*
