G04 #@! TF.GenerationSoftware,KiCad,Pcbnew,(5.1.2)-2*
G04 #@! TF.CreationDate,2021-09-09T10:29:02-03:00*
G04 #@! TF.ProjectId,MAG_Plus,4d41475f-506c-4757-932e-6b696361645f,rev?*
G04 #@! TF.SameCoordinates,Original*
G04 #@! TF.FileFunction,Copper,L2,Bot*
G04 #@! TF.FilePolarity,Positive*
%FSLAX46Y46*%
G04 Gerber Fmt 4.6, Leading zero omitted, Abs format (unit mm)*
G04 Created by KiCad (PCBNEW (5.1.2)-2) date 2021-09-09 10:29:02*
%MOMM*%
%LPD*%
G04 APERTURE LIST*
%ADD10C,4.500000*%
%ADD11C,0.800000*%
%ADD12C,0.250000*%
%ADD13C,0.254000*%
G04 APERTURE END LIST*
D10*
X468490000Y-86270000D03*
X553290000Y-47470000D03*
X461790000Y-47470000D03*
X553290000Y-108470000D03*
X546740000Y-53730000D03*
X546740000Y-102230000D03*
X512730000Y-42800000D03*
X512730000Y-113130000D03*
D11*
X498700000Y-55440000D03*
X499945000Y-62600000D03*
X507350000Y-92220000D03*
X504740000Y-87450000D03*
X499760000Y-88650000D03*
X501840000Y-97150000D03*
X494220000Y-70260000D03*
X489580000Y-68540000D03*
X494230002Y-86930000D03*
X494770000Y-92630000D03*
D12*
X498700000Y-55440000D02*
X499099999Y-55839999D01*
X499099999Y-55839999D02*
X499945000Y-56685000D01*
X499945000Y-56685000D02*
X499945000Y-62600000D01*
X507350000Y-91654315D02*
X507330000Y-91634315D01*
X507350000Y-92220000D02*
X507350000Y-91654315D01*
X507330000Y-91634315D02*
X507330000Y-89080000D01*
X507330000Y-89080000D02*
X506890000Y-88640000D01*
X506890000Y-88640000D02*
X505930000Y-88640000D01*
X505930000Y-88640000D02*
X504740000Y-87450000D01*
X499760000Y-88650000D02*
X502610000Y-88650000D01*
X502610000Y-88650000D02*
X503450000Y-89490000D01*
X503450000Y-89490000D02*
X503450000Y-96120000D01*
X503450000Y-96120000D02*
X502420000Y-97150000D01*
X502420000Y-97150000D02*
X501840000Y-97150000D01*
X493654315Y-70260000D02*
X493634315Y-70280000D01*
X494220000Y-70260000D02*
X493654315Y-70260000D01*
X493634315Y-70280000D02*
X491320000Y-70280000D01*
X491320000Y-70280000D02*
X489580000Y-68540000D01*
X494770000Y-92064315D02*
X494770000Y-92630000D01*
X494770000Y-87469998D02*
X494770000Y-92064315D01*
X494230002Y-86930000D02*
X494770000Y-87469998D01*
D13*
G36*
X555830000Y-46078516D02*
G01*
X555530926Y-45630920D01*
X555129080Y-45229074D01*
X554656560Y-44913346D01*
X554131523Y-44695869D01*
X553574148Y-44585000D01*
X553005852Y-44585000D01*
X552448477Y-44695869D01*
X551923440Y-44913346D01*
X551450920Y-45229074D01*
X551049074Y-45630920D01*
X550733346Y-46103440D01*
X550515869Y-46628477D01*
X550405000Y-47185852D01*
X550405000Y-47754148D01*
X550515869Y-48311523D01*
X550733346Y-48836560D01*
X551049074Y-49309080D01*
X551450920Y-49710926D01*
X551923440Y-50026654D01*
X552448477Y-50244131D01*
X553005852Y-50355000D01*
X553574148Y-50355000D01*
X554131523Y-50244131D01*
X554656560Y-50026654D01*
X555129080Y-49710926D01*
X555530926Y-49309080D01*
X555830000Y-48861484D01*
X555830001Y-107078517D01*
X555530926Y-106630920D01*
X555129080Y-106229074D01*
X554656560Y-105913346D01*
X554131523Y-105695869D01*
X553574148Y-105585000D01*
X553005852Y-105585000D01*
X552448477Y-105695869D01*
X551923440Y-105913346D01*
X551450920Y-106229074D01*
X551049074Y-106630920D01*
X550733346Y-107103440D01*
X550515869Y-107628477D01*
X550405000Y-108185852D01*
X550405000Y-108754148D01*
X550515869Y-109311523D01*
X550733346Y-109836560D01*
X551049074Y-110309080D01*
X551450920Y-110710926D01*
X551923440Y-111026654D01*
X552448477Y-111244131D01*
X553005852Y-111355000D01*
X553574148Y-111355000D01*
X554131523Y-111244131D01*
X554656560Y-111026654D01*
X555129080Y-110710926D01*
X555530926Y-110309080D01*
X555830001Y-109861483D01*
X555830001Y-118610000D01*
X494330448Y-118610000D01*
X494334369Y-112845852D01*
X509845000Y-112845852D01*
X509845000Y-113414148D01*
X509955869Y-113971523D01*
X510173346Y-114496560D01*
X510489074Y-114969080D01*
X510890920Y-115370926D01*
X511363440Y-115686654D01*
X511888477Y-115904131D01*
X512445852Y-116015000D01*
X513014148Y-116015000D01*
X513571523Y-115904131D01*
X514096560Y-115686654D01*
X514569080Y-115370926D01*
X514970926Y-114969080D01*
X515286654Y-114496560D01*
X515504131Y-113971523D01*
X515615000Y-113414148D01*
X515615000Y-112845852D01*
X515504131Y-112288477D01*
X515286654Y-111763440D01*
X514970926Y-111290920D01*
X514569080Y-110889074D01*
X514096560Y-110573346D01*
X513571523Y-110355869D01*
X513014148Y-110245000D01*
X512445852Y-110245000D01*
X511888477Y-110355869D01*
X511363440Y-110573346D01*
X510890920Y-110889074D01*
X510489074Y-111290920D01*
X510173346Y-111763440D01*
X509955869Y-112288477D01*
X509845000Y-112845852D01*
X494334369Y-112845852D01*
X494341784Y-101945852D01*
X543855000Y-101945852D01*
X543855000Y-102514148D01*
X543965869Y-103071523D01*
X544183346Y-103596560D01*
X544499074Y-104069080D01*
X544900920Y-104470926D01*
X545373440Y-104786654D01*
X545898477Y-105004131D01*
X546455852Y-105115000D01*
X547024148Y-105115000D01*
X547581523Y-105004131D01*
X548106560Y-104786654D01*
X548579080Y-104470926D01*
X548980926Y-104069080D01*
X549296654Y-103596560D01*
X549514131Y-103071523D01*
X549625000Y-102514148D01*
X549625000Y-101945852D01*
X549514131Y-101388477D01*
X549296654Y-100863440D01*
X548980926Y-100390920D01*
X548579080Y-99989074D01*
X548106560Y-99673346D01*
X547581523Y-99455869D01*
X547024148Y-99345000D01*
X546455852Y-99345000D01*
X545898477Y-99455869D01*
X545373440Y-99673346D01*
X544900920Y-99989074D01*
X544499074Y-100390920D01*
X544183346Y-100863440D01*
X543965869Y-101388477D01*
X543855000Y-101945852D01*
X494341784Y-101945852D01*
X494347479Y-93575262D01*
X494468102Y-93625226D01*
X494668061Y-93665000D01*
X494871939Y-93665000D01*
X495071898Y-93625226D01*
X495260256Y-93547205D01*
X495429774Y-93433937D01*
X495573937Y-93289774D01*
X495687205Y-93120256D01*
X495765226Y-92931898D01*
X495805000Y-92731939D01*
X495805000Y-92528061D01*
X495765226Y-92328102D01*
X495687205Y-92139744D01*
X495573937Y-91970226D01*
X495530000Y-91926289D01*
X495530000Y-87507320D01*
X495533676Y-87469997D01*
X495530000Y-87432674D01*
X495530000Y-87432665D01*
X495519003Y-87321012D01*
X495475546Y-87177751D01*
X495404974Y-87045722D01*
X495391811Y-87029683D01*
X495333799Y-86958994D01*
X495333795Y-86958990D01*
X495310001Y-86929997D01*
X495281009Y-86906204D01*
X495265002Y-86890197D01*
X495265002Y-86828061D01*
X495225228Y-86628102D01*
X495147207Y-86439744D01*
X495033939Y-86270226D01*
X494889776Y-86126063D01*
X494720258Y-86012795D01*
X494531900Y-85934774D01*
X494331941Y-85895000D01*
X494128063Y-85895000D01*
X493928104Y-85934774D01*
X493739746Y-86012795D01*
X493570228Y-86126063D01*
X493426065Y-86270226D01*
X493312797Y-86439744D01*
X493234776Y-86628102D01*
X493195002Y-86828061D01*
X493195002Y-87031939D01*
X493234776Y-87231898D01*
X493312797Y-87420256D01*
X493426065Y-87589774D01*
X493570228Y-87733937D01*
X493739746Y-87847205D01*
X493928104Y-87925226D01*
X494010000Y-87941516D01*
X494010000Y-89292678D01*
X494000826Y-89287775D01*
X493944209Y-89257463D01*
X493943995Y-89257398D01*
X493943793Y-89257290D01*
X493881532Y-89238403D01*
X493819825Y-89219638D01*
X493819599Y-89219616D01*
X493819383Y-89219550D01*
X493755137Y-89213222D01*
X493690451Y-89206807D01*
X493657804Y-89210000D01*
X459150000Y-89210000D01*
X459150000Y-85985852D01*
X465605000Y-85985852D01*
X465605000Y-86554148D01*
X465715869Y-87111523D01*
X465933346Y-87636560D01*
X466249074Y-88109080D01*
X466650920Y-88510926D01*
X467123440Y-88826654D01*
X467648477Y-89044131D01*
X468205852Y-89155000D01*
X468774148Y-89155000D01*
X469331523Y-89044131D01*
X469856560Y-88826654D01*
X470329080Y-88510926D01*
X470730926Y-88109080D01*
X471046654Y-87636560D01*
X471264131Y-87111523D01*
X471375000Y-86554148D01*
X471375000Y-85985852D01*
X471264131Y-85428477D01*
X471046654Y-84903440D01*
X470730926Y-84430920D01*
X470329080Y-84029074D01*
X469856560Y-83713346D01*
X469331523Y-83495869D01*
X468774148Y-83385000D01*
X468205852Y-83385000D01*
X467648477Y-83495869D01*
X467123440Y-83713346D01*
X466650920Y-84029074D01*
X466249074Y-84430920D01*
X465933346Y-84903440D01*
X465715869Y-85428477D01*
X465605000Y-85985852D01*
X459150000Y-85985852D01*
X459150000Y-55338061D01*
X497665000Y-55338061D01*
X497665000Y-55541939D01*
X497704774Y-55741898D01*
X497782795Y-55930256D01*
X497896063Y-56099774D01*
X498040226Y-56243937D01*
X498209744Y-56357205D01*
X498398102Y-56435226D01*
X498598061Y-56475000D01*
X498660199Y-56475000D01*
X499185000Y-56999802D01*
X499185001Y-61896288D01*
X499141063Y-61940226D01*
X499027795Y-62109744D01*
X498949774Y-62298102D01*
X498910000Y-62498061D01*
X498910000Y-62701939D01*
X498949774Y-62901898D01*
X499027795Y-63090256D01*
X499141063Y-63259774D01*
X499285226Y-63403937D01*
X499454744Y-63517205D01*
X499643102Y-63595226D01*
X499843061Y-63635000D01*
X500046939Y-63635000D01*
X500246898Y-63595226D01*
X500435256Y-63517205D01*
X500604774Y-63403937D01*
X500748937Y-63259774D01*
X500862205Y-63090256D01*
X500940226Y-62901898D01*
X500980000Y-62701939D01*
X500980000Y-62498061D01*
X500940226Y-62298102D01*
X500862205Y-62109744D01*
X500748937Y-61940226D01*
X500705000Y-61896289D01*
X500705000Y-56722323D01*
X500708676Y-56685000D01*
X500705000Y-56647677D01*
X500705000Y-56647667D01*
X500694003Y-56536014D01*
X500650546Y-56392753D01*
X500628229Y-56351001D01*
X500579974Y-56260723D01*
X500508799Y-56173997D01*
X500485001Y-56144999D01*
X500456004Y-56121202D01*
X499735000Y-55400199D01*
X499735000Y-55338061D01*
X499695226Y-55138102D01*
X499617205Y-54949744D01*
X499503937Y-54780226D01*
X499359774Y-54636063D01*
X499190256Y-54522795D01*
X499001898Y-54444774D01*
X498801939Y-54405000D01*
X498598061Y-54405000D01*
X498398102Y-54444774D01*
X498209744Y-54522795D01*
X498040226Y-54636063D01*
X497896063Y-54780226D01*
X497782795Y-54949744D01*
X497704774Y-55138102D01*
X497665000Y-55338061D01*
X459150000Y-55338061D01*
X459150000Y-53445852D01*
X543855000Y-53445852D01*
X543855000Y-54014148D01*
X543965869Y-54571523D01*
X544183346Y-55096560D01*
X544499074Y-55569080D01*
X544900920Y-55970926D01*
X545373440Y-56286654D01*
X545898477Y-56504131D01*
X546455852Y-56615000D01*
X547024148Y-56615000D01*
X547581523Y-56504131D01*
X548106560Y-56286654D01*
X548579080Y-55970926D01*
X548980926Y-55569080D01*
X549296654Y-55096560D01*
X549514131Y-54571523D01*
X549625000Y-54014148D01*
X549625000Y-53445852D01*
X549514131Y-52888477D01*
X549296654Y-52363440D01*
X548980926Y-51890920D01*
X548579080Y-51489074D01*
X548106560Y-51173346D01*
X547581523Y-50955869D01*
X547024148Y-50845000D01*
X546455852Y-50845000D01*
X545898477Y-50955869D01*
X545373440Y-51173346D01*
X544900920Y-51489074D01*
X544499074Y-51890920D01*
X544183346Y-52363440D01*
X543965869Y-52888477D01*
X543855000Y-53445852D01*
X459150000Y-53445852D01*
X459150000Y-48635345D01*
X459233346Y-48836560D01*
X459549074Y-49309080D01*
X459950920Y-49710926D01*
X460423440Y-50026654D01*
X460948477Y-50244131D01*
X461505852Y-50355000D01*
X462074148Y-50355000D01*
X462631523Y-50244131D01*
X463156560Y-50026654D01*
X463629080Y-49710926D01*
X464030926Y-49309080D01*
X464346654Y-48836560D01*
X464564131Y-48311523D01*
X464675000Y-47754148D01*
X464675000Y-47185852D01*
X464564131Y-46628477D01*
X464346654Y-46103440D01*
X464030926Y-45630920D01*
X463629080Y-45229074D01*
X463156560Y-44913346D01*
X462631523Y-44695869D01*
X462074148Y-44585000D01*
X461505852Y-44585000D01*
X460948477Y-44695869D01*
X460423440Y-44913346D01*
X459950920Y-45229074D01*
X459549074Y-45630920D01*
X459233346Y-46103440D01*
X459150000Y-46304655D01*
X459150000Y-42515852D01*
X509845000Y-42515852D01*
X509845000Y-43084148D01*
X509955869Y-43641523D01*
X510173346Y-44166560D01*
X510489074Y-44639080D01*
X510890920Y-45040926D01*
X511363440Y-45356654D01*
X511888477Y-45574131D01*
X512445852Y-45685000D01*
X513014148Y-45685000D01*
X513571523Y-45574131D01*
X514096560Y-45356654D01*
X514569080Y-45040926D01*
X514970926Y-44639080D01*
X515286654Y-44166560D01*
X515504131Y-43641523D01*
X515615000Y-43084148D01*
X515615000Y-42515852D01*
X515504131Y-41958477D01*
X515286654Y-41433440D01*
X514970926Y-40960920D01*
X514569080Y-40559074D01*
X514096560Y-40243346D01*
X513571523Y-40025869D01*
X513014148Y-39915000D01*
X512445852Y-39915000D01*
X511888477Y-40025869D01*
X511363440Y-40243346D01*
X510890920Y-40559074D01*
X510489074Y-40960920D01*
X510173346Y-41433440D01*
X509955869Y-41958477D01*
X509845000Y-42515852D01*
X459150000Y-42515852D01*
X459150000Y-37330000D01*
X555830000Y-37330000D01*
X555830000Y-46078516D01*
X555830000Y-46078516D01*
G37*
X555830000Y-46078516D02*
X555530926Y-45630920D01*
X555129080Y-45229074D01*
X554656560Y-44913346D01*
X554131523Y-44695869D01*
X553574148Y-44585000D01*
X553005852Y-44585000D01*
X552448477Y-44695869D01*
X551923440Y-44913346D01*
X551450920Y-45229074D01*
X551049074Y-45630920D01*
X550733346Y-46103440D01*
X550515869Y-46628477D01*
X550405000Y-47185852D01*
X550405000Y-47754148D01*
X550515869Y-48311523D01*
X550733346Y-48836560D01*
X551049074Y-49309080D01*
X551450920Y-49710926D01*
X551923440Y-50026654D01*
X552448477Y-50244131D01*
X553005852Y-50355000D01*
X553574148Y-50355000D01*
X554131523Y-50244131D01*
X554656560Y-50026654D01*
X555129080Y-49710926D01*
X555530926Y-49309080D01*
X555830000Y-48861484D01*
X555830001Y-107078517D01*
X555530926Y-106630920D01*
X555129080Y-106229074D01*
X554656560Y-105913346D01*
X554131523Y-105695869D01*
X553574148Y-105585000D01*
X553005852Y-105585000D01*
X552448477Y-105695869D01*
X551923440Y-105913346D01*
X551450920Y-106229074D01*
X551049074Y-106630920D01*
X550733346Y-107103440D01*
X550515869Y-107628477D01*
X550405000Y-108185852D01*
X550405000Y-108754148D01*
X550515869Y-109311523D01*
X550733346Y-109836560D01*
X551049074Y-110309080D01*
X551450920Y-110710926D01*
X551923440Y-111026654D01*
X552448477Y-111244131D01*
X553005852Y-111355000D01*
X553574148Y-111355000D01*
X554131523Y-111244131D01*
X554656560Y-111026654D01*
X555129080Y-110710926D01*
X555530926Y-110309080D01*
X555830001Y-109861483D01*
X555830001Y-118610000D01*
X494330448Y-118610000D01*
X494334369Y-112845852D01*
X509845000Y-112845852D01*
X509845000Y-113414148D01*
X509955869Y-113971523D01*
X510173346Y-114496560D01*
X510489074Y-114969080D01*
X510890920Y-115370926D01*
X511363440Y-115686654D01*
X511888477Y-115904131D01*
X512445852Y-116015000D01*
X513014148Y-116015000D01*
X513571523Y-115904131D01*
X514096560Y-115686654D01*
X514569080Y-115370926D01*
X514970926Y-114969080D01*
X515286654Y-114496560D01*
X515504131Y-113971523D01*
X515615000Y-113414148D01*
X515615000Y-112845852D01*
X515504131Y-112288477D01*
X515286654Y-111763440D01*
X514970926Y-111290920D01*
X514569080Y-110889074D01*
X514096560Y-110573346D01*
X513571523Y-110355869D01*
X513014148Y-110245000D01*
X512445852Y-110245000D01*
X511888477Y-110355869D01*
X511363440Y-110573346D01*
X510890920Y-110889074D01*
X510489074Y-111290920D01*
X510173346Y-111763440D01*
X509955869Y-112288477D01*
X509845000Y-112845852D01*
X494334369Y-112845852D01*
X494341784Y-101945852D01*
X543855000Y-101945852D01*
X543855000Y-102514148D01*
X543965869Y-103071523D01*
X544183346Y-103596560D01*
X544499074Y-104069080D01*
X544900920Y-104470926D01*
X545373440Y-104786654D01*
X545898477Y-105004131D01*
X546455852Y-105115000D01*
X547024148Y-105115000D01*
X547581523Y-105004131D01*
X548106560Y-104786654D01*
X548579080Y-104470926D01*
X548980926Y-104069080D01*
X549296654Y-103596560D01*
X549514131Y-103071523D01*
X549625000Y-102514148D01*
X549625000Y-101945852D01*
X549514131Y-101388477D01*
X549296654Y-100863440D01*
X548980926Y-100390920D01*
X548579080Y-99989074D01*
X548106560Y-99673346D01*
X547581523Y-99455869D01*
X547024148Y-99345000D01*
X546455852Y-99345000D01*
X545898477Y-99455869D01*
X545373440Y-99673346D01*
X544900920Y-99989074D01*
X544499074Y-100390920D01*
X544183346Y-100863440D01*
X543965869Y-101388477D01*
X543855000Y-101945852D01*
X494341784Y-101945852D01*
X494347479Y-93575262D01*
X494468102Y-93625226D01*
X494668061Y-93665000D01*
X494871939Y-93665000D01*
X495071898Y-93625226D01*
X495260256Y-93547205D01*
X495429774Y-93433937D01*
X495573937Y-93289774D01*
X495687205Y-93120256D01*
X495765226Y-92931898D01*
X495805000Y-92731939D01*
X495805000Y-92528061D01*
X495765226Y-92328102D01*
X495687205Y-92139744D01*
X495573937Y-91970226D01*
X495530000Y-91926289D01*
X495530000Y-87507320D01*
X495533676Y-87469997D01*
X495530000Y-87432674D01*
X495530000Y-87432665D01*
X495519003Y-87321012D01*
X495475546Y-87177751D01*
X495404974Y-87045722D01*
X495391811Y-87029683D01*
X495333799Y-86958994D01*
X495333795Y-86958990D01*
X495310001Y-86929997D01*
X495281009Y-86906204D01*
X495265002Y-86890197D01*
X495265002Y-86828061D01*
X495225228Y-86628102D01*
X495147207Y-86439744D01*
X495033939Y-86270226D01*
X494889776Y-86126063D01*
X494720258Y-86012795D01*
X494531900Y-85934774D01*
X494331941Y-85895000D01*
X494128063Y-85895000D01*
X493928104Y-85934774D01*
X493739746Y-86012795D01*
X493570228Y-86126063D01*
X493426065Y-86270226D01*
X493312797Y-86439744D01*
X493234776Y-86628102D01*
X493195002Y-86828061D01*
X493195002Y-87031939D01*
X493234776Y-87231898D01*
X493312797Y-87420256D01*
X493426065Y-87589774D01*
X493570228Y-87733937D01*
X493739746Y-87847205D01*
X493928104Y-87925226D01*
X494010000Y-87941516D01*
X494010000Y-89292678D01*
X494000826Y-89287775D01*
X493944209Y-89257463D01*
X493943995Y-89257398D01*
X493943793Y-89257290D01*
X493881532Y-89238403D01*
X493819825Y-89219638D01*
X493819599Y-89219616D01*
X493819383Y-89219550D01*
X493755137Y-89213222D01*
X493690451Y-89206807D01*
X493657804Y-89210000D01*
X459150000Y-89210000D01*
X459150000Y-85985852D01*
X465605000Y-85985852D01*
X465605000Y-86554148D01*
X465715869Y-87111523D01*
X465933346Y-87636560D01*
X466249074Y-88109080D01*
X466650920Y-88510926D01*
X467123440Y-88826654D01*
X467648477Y-89044131D01*
X468205852Y-89155000D01*
X468774148Y-89155000D01*
X469331523Y-89044131D01*
X469856560Y-88826654D01*
X470329080Y-88510926D01*
X470730926Y-88109080D01*
X471046654Y-87636560D01*
X471264131Y-87111523D01*
X471375000Y-86554148D01*
X471375000Y-85985852D01*
X471264131Y-85428477D01*
X471046654Y-84903440D01*
X470730926Y-84430920D01*
X470329080Y-84029074D01*
X469856560Y-83713346D01*
X469331523Y-83495869D01*
X468774148Y-83385000D01*
X468205852Y-83385000D01*
X467648477Y-83495869D01*
X467123440Y-83713346D01*
X466650920Y-84029074D01*
X466249074Y-84430920D01*
X465933346Y-84903440D01*
X465715869Y-85428477D01*
X465605000Y-85985852D01*
X459150000Y-85985852D01*
X459150000Y-55338061D01*
X497665000Y-55338061D01*
X497665000Y-55541939D01*
X497704774Y-55741898D01*
X497782795Y-55930256D01*
X497896063Y-56099774D01*
X498040226Y-56243937D01*
X498209744Y-56357205D01*
X498398102Y-56435226D01*
X498598061Y-56475000D01*
X498660199Y-56475000D01*
X499185000Y-56999802D01*
X499185001Y-61896288D01*
X499141063Y-61940226D01*
X499027795Y-62109744D01*
X498949774Y-62298102D01*
X498910000Y-62498061D01*
X498910000Y-62701939D01*
X498949774Y-62901898D01*
X499027795Y-63090256D01*
X499141063Y-63259774D01*
X499285226Y-63403937D01*
X499454744Y-63517205D01*
X499643102Y-63595226D01*
X499843061Y-63635000D01*
X500046939Y-63635000D01*
X500246898Y-63595226D01*
X500435256Y-63517205D01*
X500604774Y-63403937D01*
X500748937Y-63259774D01*
X500862205Y-63090256D01*
X500940226Y-62901898D01*
X500980000Y-62701939D01*
X500980000Y-62498061D01*
X500940226Y-62298102D01*
X500862205Y-62109744D01*
X500748937Y-61940226D01*
X500705000Y-61896289D01*
X500705000Y-56722323D01*
X500708676Y-56685000D01*
X500705000Y-56647677D01*
X500705000Y-56647667D01*
X500694003Y-56536014D01*
X500650546Y-56392753D01*
X500628229Y-56351001D01*
X500579974Y-56260723D01*
X500508799Y-56173997D01*
X500485001Y-56144999D01*
X500456004Y-56121202D01*
X499735000Y-55400199D01*
X499735000Y-55338061D01*
X499695226Y-55138102D01*
X499617205Y-54949744D01*
X499503937Y-54780226D01*
X499359774Y-54636063D01*
X499190256Y-54522795D01*
X499001898Y-54444774D01*
X498801939Y-54405000D01*
X498598061Y-54405000D01*
X498398102Y-54444774D01*
X498209744Y-54522795D01*
X498040226Y-54636063D01*
X497896063Y-54780226D01*
X497782795Y-54949744D01*
X497704774Y-55138102D01*
X497665000Y-55338061D01*
X459150000Y-55338061D01*
X459150000Y-53445852D01*
X543855000Y-53445852D01*
X543855000Y-54014148D01*
X543965869Y-54571523D01*
X544183346Y-55096560D01*
X544499074Y-55569080D01*
X544900920Y-55970926D01*
X545373440Y-56286654D01*
X545898477Y-56504131D01*
X546455852Y-56615000D01*
X547024148Y-56615000D01*
X547581523Y-56504131D01*
X548106560Y-56286654D01*
X548579080Y-55970926D01*
X548980926Y-55569080D01*
X549296654Y-55096560D01*
X549514131Y-54571523D01*
X549625000Y-54014148D01*
X549625000Y-53445852D01*
X549514131Y-52888477D01*
X549296654Y-52363440D01*
X548980926Y-51890920D01*
X548579080Y-51489074D01*
X548106560Y-51173346D01*
X547581523Y-50955869D01*
X547024148Y-50845000D01*
X546455852Y-50845000D01*
X545898477Y-50955869D01*
X545373440Y-51173346D01*
X544900920Y-51489074D01*
X544499074Y-51890920D01*
X544183346Y-52363440D01*
X543965869Y-52888477D01*
X543855000Y-53445852D01*
X459150000Y-53445852D01*
X459150000Y-48635345D01*
X459233346Y-48836560D01*
X459549074Y-49309080D01*
X459950920Y-49710926D01*
X460423440Y-50026654D01*
X460948477Y-50244131D01*
X461505852Y-50355000D01*
X462074148Y-50355000D01*
X462631523Y-50244131D01*
X463156560Y-50026654D01*
X463629080Y-49710926D01*
X464030926Y-49309080D01*
X464346654Y-48836560D01*
X464564131Y-48311523D01*
X464675000Y-47754148D01*
X464675000Y-47185852D01*
X464564131Y-46628477D01*
X464346654Y-46103440D01*
X464030926Y-45630920D01*
X463629080Y-45229074D01*
X463156560Y-44913346D01*
X462631523Y-44695869D01*
X462074148Y-44585000D01*
X461505852Y-44585000D01*
X460948477Y-44695869D01*
X460423440Y-44913346D01*
X459950920Y-45229074D01*
X459549074Y-45630920D01*
X459233346Y-46103440D01*
X459150000Y-46304655D01*
X459150000Y-42515852D01*
X509845000Y-42515852D01*
X509845000Y-43084148D01*
X509955869Y-43641523D01*
X510173346Y-44166560D01*
X510489074Y-44639080D01*
X510890920Y-45040926D01*
X511363440Y-45356654D01*
X511888477Y-45574131D01*
X512445852Y-45685000D01*
X513014148Y-45685000D01*
X513571523Y-45574131D01*
X514096560Y-45356654D01*
X514569080Y-45040926D01*
X514970926Y-44639080D01*
X515286654Y-44166560D01*
X515504131Y-43641523D01*
X515615000Y-43084148D01*
X515615000Y-42515852D01*
X515504131Y-41958477D01*
X515286654Y-41433440D01*
X514970926Y-40960920D01*
X514569080Y-40559074D01*
X514096560Y-40243346D01*
X513571523Y-40025869D01*
X513014148Y-39915000D01*
X512445852Y-39915000D01*
X511888477Y-40025869D01*
X511363440Y-40243346D01*
X510890920Y-40559074D01*
X510489074Y-40960920D01*
X510173346Y-41433440D01*
X509955869Y-41958477D01*
X509845000Y-42515852D01*
X459150000Y-42515852D01*
X459150000Y-37330000D01*
X555830000Y-37330000D01*
X555830000Y-46078516D01*
M02*
