G04 #@! TF.GenerationSoftware,KiCad,Pcbnew,(5.1.2)-2*
G04 #@! TF.CreationDate,2021-09-09T11:32:28-03:00*
G04 #@! TF.ProjectId,MAG_Plus,4d41475f-506c-4757-932e-6b696361645f,rev?*
G04 #@! TF.SameCoordinates,Original*
G04 #@! TF.FileFunction,Copper,L1,Top*
G04 #@! TF.FilePolarity,Positive*
%FSLAX46Y46*%
G04 Gerber Fmt 4.6, Leading zero omitted, Abs format (unit mm)*
G04 Created by KiCad (PCBNEW (5.1.2)-2) date 2021-09-09 11:32:28*
%MOMM*%
%LPD*%
G04 APERTURE LIST*
%ADD10C,4.500000*%
%ADD11C,0.850000*%
%ADD12R,0.850000X0.850000*%
%ADD13O,1.000000X1.000000*%
%ADD14R,1.000000X1.000000*%
%ADD15R,1.700000X1.700000*%
%ADD16O,1.700000X1.700000*%
%ADD17R,1.000000X1.500000*%
%ADD18C,0.500000*%
%ADD19C,0.100000*%
%ADD20C,0.800000*%
%ADD21C,0.250000*%
%ADD22C,0.254000*%
G04 APERTURE END LIST*
D10*
X115400000Y-144220000D03*
X115390000Y-235820000D03*
X39200000Y-144210000D03*
X39200000Y-235830000D03*
D11*
X49360000Y-155220000D03*
X48110000Y-155220000D03*
X46860000Y-155220000D03*
X45610000Y-155220000D03*
X44360000Y-155220000D03*
D12*
X43110000Y-155220000D03*
D13*
X49020000Y-174250000D03*
X49020000Y-172980000D03*
X47750000Y-174250000D03*
X47750000Y-172980000D03*
X46480000Y-174250000D03*
X46480000Y-172980000D03*
X45210000Y-174250000D03*
X45210000Y-172980000D03*
X43940000Y-174250000D03*
D14*
X43940000Y-172980000D03*
D15*
X110060000Y-172910000D03*
D16*
X110060000Y-170370000D03*
X110060000Y-167830000D03*
X110060000Y-165290000D03*
X110060000Y-162750000D03*
X110060000Y-160210000D03*
X97490000Y-152740000D03*
X100030000Y-152740000D03*
D15*
X102570000Y-152740000D03*
X92480000Y-152740000D03*
D16*
X89940000Y-152740000D03*
X87400000Y-152740000D03*
X81930000Y-190270000D03*
X79390000Y-190270000D03*
X76850000Y-190270000D03*
X74310000Y-190270000D03*
X71770000Y-190270000D03*
D15*
X69230000Y-190270000D03*
D16*
X77320000Y-152740000D03*
X79860000Y-152740000D03*
D15*
X82400000Y-152740000D03*
X72320000Y-152740000D03*
D16*
X69780000Y-152740000D03*
X67240000Y-152740000D03*
X59720000Y-172920000D03*
X59720000Y-170380000D03*
X59720000Y-167840000D03*
X59720000Y-165300000D03*
X59720000Y-162760000D03*
D15*
X59720000Y-160220000D03*
D17*
X100040000Y-156990000D03*
D18*
X98740000Y-156990000D03*
D19*
G36*
X98740000Y-157739398D02*
G01*
X98715466Y-157739398D01*
X98666635Y-157734588D01*
X98618510Y-157725016D01*
X98571555Y-157710772D01*
X98526222Y-157691995D01*
X98482949Y-157668864D01*
X98442150Y-157641604D01*
X98404221Y-157610476D01*
X98369524Y-157575779D01*
X98338396Y-157537850D01*
X98311136Y-157497051D01*
X98288005Y-157453778D01*
X98269228Y-157408445D01*
X98254984Y-157361490D01*
X98245412Y-157313365D01*
X98240602Y-157264534D01*
X98240602Y-157240000D01*
X98240000Y-157240000D01*
X98240000Y-156740000D01*
X98240602Y-156740000D01*
X98240602Y-156715466D01*
X98245412Y-156666635D01*
X98254984Y-156618510D01*
X98269228Y-156571555D01*
X98288005Y-156526222D01*
X98311136Y-156482949D01*
X98338396Y-156442150D01*
X98369524Y-156404221D01*
X98404221Y-156369524D01*
X98442150Y-156338396D01*
X98482949Y-156311136D01*
X98526222Y-156288005D01*
X98571555Y-156269228D01*
X98618510Y-156254984D01*
X98666635Y-156245412D01*
X98715466Y-156240602D01*
X98740000Y-156240602D01*
X98740000Y-156240000D01*
X99290000Y-156240000D01*
X99290000Y-157740000D01*
X98740000Y-157740000D01*
X98740000Y-157739398D01*
X98740000Y-157739398D01*
G37*
D18*
X101340000Y-156990000D03*
D19*
G36*
X100790000Y-156240000D02*
G01*
X101340000Y-156240000D01*
X101340000Y-156240602D01*
X101364534Y-156240602D01*
X101413365Y-156245412D01*
X101461490Y-156254984D01*
X101508445Y-156269228D01*
X101553778Y-156288005D01*
X101597051Y-156311136D01*
X101637850Y-156338396D01*
X101675779Y-156369524D01*
X101710476Y-156404221D01*
X101741604Y-156442150D01*
X101768864Y-156482949D01*
X101791995Y-156526222D01*
X101810772Y-156571555D01*
X101825016Y-156618510D01*
X101834588Y-156666635D01*
X101839398Y-156715466D01*
X101839398Y-156740000D01*
X101840000Y-156740000D01*
X101840000Y-157240000D01*
X101839398Y-157240000D01*
X101839398Y-157264534D01*
X101834588Y-157313365D01*
X101825016Y-157361490D01*
X101810772Y-157408445D01*
X101791995Y-157453778D01*
X101768864Y-157497051D01*
X101741604Y-157537850D01*
X101710476Y-157575779D01*
X101675779Y-157610476D01*
X101637850Y-157641604D01*
X101597051Y-157668864D01*
X101553778Y-157691995D01*
X101508445Y-157710772D01*
X101461490Y-157725016D01*
X101413365Y-157734588D01*
X101364534Y-157739398D01*
X101340000Y-157739398D01*
X101340000Y-157740000D01*
X100790000Y-157740000D01*
X100790000Y-156240000D01*
X100790000Y-156240000D01*
G37*
D18*
X91240000Y-156970000D03*
D19*
G36*
X90690000Y-156220000D02*
G01*
X91240000Y-156220000D01*
X91240000Y-156220602D01*
X91264534Y-156220602D01*
X91313365Y-156225412D01*
X91361490Y-156234984D01*
X91408445Y-156249228D01*
X91453778Y-156268005D01*
X91497051Y-156291136D01*
X91537850Y-156318396D01*
X91575779Y-156349524D01*
X91610476Y-156384221D01*
X91641604Y-156422150D01*
X91668864Y-156462949D01*
X91691995Y-156506222D01*
X91710772Y-156551555D01*
X91725016Y-156598510D01*
X91734588Y-156646635D01*
X91739398Y-156695466D01*
X91739398Y-156720000D01*
X91740000Y-156720000D01*
X91740000Y-157220000D01*
X91739398Y-157220000D01*
X91739398Y-157244534D01*
X91734588Y-157293365D01*
X91725016Y-157341490D01*
X91710772Y-157388445D01*
X91691995Y-157433778D01*
X91668864Y-157477051D01*
X91641604Y-157517850D01*
X91610476Y-157555779D01*
X91575779Y-157590476D01*
X91537850Y-157621604D01*
X91497051Y-157648864D01*
X91453778Y-157671995D01*
X91408445Y-157690772D01*
X91361490Y-157705016D01*
X91313365Y-157714588D01*
X91264534Y-157719398D01*
X91240000Y-157719398D01*
X91240000Y-157720000D01*
X90690000Y-157720000D01*
X90690000Y-156220000D01*
X90690000Y-156220000D01*
G37*
D18*
X88640000Y-156970000D03*
D19*
G36*
X88640000Y-157719398D02*
G01*
X88615466Y-157719398D01*
X88566635Y-157714588D01*
X88518510Y-157705016D01*
X88471555Y-157690772D01*
X88426222Y-157671995D01*
X88382949Y-157648864D01*
X88342150Y-157621604D01*
X88304221Y-157590476D01*
X88269524Y-157555779D01*
X88238396Y-157517850D01*
X88211136Y-157477051D01*
X88188005Y-157433778D01*
X88169228Y-157388445D01*
X88154984Y-157341490D01*
X88145412Y-157293365D01*
X88140602Y-157244534D01*
X88140602Y-157220000D01*
X88140000Y-157220000D01*
X88140000Y-156720000D01*
X88140602Y-156720000D01*
X88140602Y-156695466D01*
X88145412Y-156646635D01*
X88154984Y-156598510D01*
X88169228Y-156551555D01*
X88188005Y-156506222D01*
X88211136Y-156462949D01*
X88238396Y-156422150D01*
X88269524Y-156384221D01*
X88304221Y-156349524D01*
X88342150Y-156318396D01*
X88382949Y-156291136D01*
X88426222Y-156268005D01*
X88471555Y-156249228D01*
X88518510Y-156234984D01*
X88566635Y-156225412D01*
X88615466Y-156220602D01*
X88640000Y-156220602D01*
X88640000Y-156220000D01*
X89190000Y-156220000D01*
X89190000Y-157720000D01*
X88640000Y-157720000D01*
X88640000Y-157719398D01*
X88640000Y-157719398D01*
G37*
D17*
X89940000Y-156970000D03*
X80010000Y-156960000D03*
D18*
X78710000Y-156960000D03*
D19*
G36*
X78710000Y-157709398D02*
G01*
X78685466Y-157709398D01*
X78636635Y-157704588D01*
X78588510Y-157695016D01*
X78541555Y-157680772D01*
X78496222Y-157661995D01*
X78452949Y-157638864D01*
X78412150Y-157611604D01*
X78374221Y-157580476D01*
X78339524Y-157545779D01*
X78308396Y-157507850D01*
X78281136Y-157467051D01*
X78258005Y-157423778D01*
X78239228Y-157378445D01*
X78224984Y-157331490D01*
X78215412Y-157283365D01*
X78210602Y-157234534D01*
X78210602Y-157210000D01*
X78210000Y-157210000D01*
X78210000Y-156710000D01*
X78210602Y-156710000D01*
X78210602Y-156685466D01*
X78215412Y-156636635D01*
X78224984Y-156588510D01*
X78239228Y-156541555D01*
X78258005Y-156496222D01*
X78281136Y-156452949D01*
X78308396Y-156412150D01*
X78339524Y-156374221D01*
X78374221Y-156339524D01*
X78412150Y-156308396D01*
X78452949Y-156281136D01*
X78496222Y-156258005D01*
X78541555Y-156239228D01*
X78588510Y-156224984D01*
X78636635Y-156215412D01*
X78685466Y-156210602D01*
X78710000Y-156210602D01*
X78710000Y-156210000D01*
X79260000Y-156210000D01*
X79260000Y-157710000D01*
X78710000Y-157710000D01*
X78710000Y-157709398D01*
X78710000Y-157709398D01*
G37*
D18*
X81310000Y-156960000D03*
D19*
G36*
X80760000Y-156210000D02*
G01*
X81310000Y-156210000D01*
X81310000Y-156210602D01*
X81334534Y-156210602D01*
X81383365Y-156215412D01*
X81431490Y-156224984D01*
X81478445Y-156239228D01*
X81523778Y-156258005D01*
X81567051Y-156281136D01*
X81607850Y-156308396D01*
X81645779Y-156339524D01*
X81680476Y-156374221D01*
X81711604Y-156412150D01*
X81738864Y-156452949D01*
X81761995Y-156496222D01*
X81780772Y-156541555D01*
X81795016Y-156588510D01*
X81804588Y-156636635D01*
X81809398Y-156685466D01*
X81809398Y-156710000D01*
X81810000Y-156710000D01*
X81810000Y-157210000D01*
X81809398Y-157210000D01*
X81809398Y-157234534D01*
X81804588Y-157283365D01*
X81795016Y-157331490D01*
X81780772Y-157378445D01*
X81761995Y-157423778D01*
X81738864Y-157467051D01*
X81711604Y-157507850D01*
X81680476Y-157545779D01*
X81645779Y-157580476D01*
X81607850Y-157611604D01*
X81567051Y-157638864D01*
X81523778Y-157661995D01*
X81478445Y-157680772D01*
X81431490Y-157695016D01*
X81383365Y-157704588D01*
X81334534Y-157709398D01*
X81310000Y-157709398D01*
X81310000Y-157710000D01*
X80760000Y-157710000D01*
X80760000Y-156210000D01*
X80760000Y-156210000D01*
G37*
D18*
X71050000Y-157020000D03*
D19*
G36*
X70500000Y-156270000D02*
G01*
X71050000Y-156270000D01*
X71050000Y-156270602D01*
X71074534Y-156270602D01*
X71123365Y-156275412D01*
X71171490Y-156284984D01*
X71218445Y-156299228D01*
X71263778Y-156318005D01*
X71307051Y-156341136D01*
X71347850Y-156368396D01*
X71385779Y-156399524D01*
X71420476Y-156434221D01*
X71451604Y-156472150D01*
X71478864Y-156512949D01*
X71501995Y-156556222D01*
X71520772Y-156601555D01*
X71535016Y-156648510D01*
X71544588Y-156696635D01*
X71549398Y-156745466D01*
X71549398Y-156770000D01*
X71550000Y-156770000D01*
X71550000Y-157270000D01*
X71549398Y-157270000D01*
X71549398Y-157294534D01*
X71544588Y-157343365D01*
X71535016Y-157391490D01*
X71520772Y-157438445D01*
X71501995Y-157483778D01*
X71478864Y-157527051D01*
X71451604Y-157567850D01*
X71420476Y-157605779D01*
X71385779Y-157640476D01*
X71347850Y-157671604D01*
X71307051Y-157698864D01*
X71263778Y-157721995D01*
X71218445Y-157740772D01*
X71171490Y-157755016D01*
X71123365Y-157764588D01*
X71074534Y-157769398D01*
X71050000Y-157769398D01*
X71050000Y-157770000D01*
X70500000Y-157770000D01*
X70500000Y-156270000D01*
X70500000Y-156270000D01*
G37*
D18*
X68450000Y-157020000D03*
D19*
G36*
X68450000Y-157769398D02*
G01*
X68425466Y-157769398D01*
X68376635Y-157764588D01*
X68328510Y-157755016D01*
X68281555Y-157740772D01*
X68236222Y-157721995D01*
X68192949Y-157698864D01*
X68152150Y-157671604D01*
X68114221Y-157640476D01*
X68079524Y-157605779D01*
X68048396Y-157567850D01*
X68021136Y-157527051D01*
X67998005Y-157483778D01*
X67979228Y-157438445D01*
X67964984Y-157391490D01*
X67955412Y-157343365D01*
X67950602Y-157294534D01*
X67950602Y-157270000D01*
X67950000Y-157270000D01*
X67950000Y-156770000D01*
X67950602Y-156770000D01*
X67950602Y-156745466D01*
X67955412Y-156696635D01*
X67964984Y-156648510D01*
X67979228Y-156601555D01*
X67998005Y-156556222D01*
X68021136Y-156512949D01*
X68048396Y-156472150D01*
X68079524Y-156434221D01*
X68114221Y-156399524D01*
X68152150Y-156368396D01*
X68192949Y-156341136D01*
X68236222Y-156318005D01*
X68281555Y-156299228D01*
X68328510Y-156284984D01*
X68376635Y-156275412D01*
X68425466Y-156270602D01*
X68450000Y-156270602D01*
X68450000Y-156270000D01*
X69000000Y-156270000D01*
X69000000Y-157770000D01*
X68450000Y-157770000D01*
X68450000Y-157769398D01*
X68450000Y-157769398D01*
G37*
D17*
X69750000Y-157020000D03*
D20*
X51462328Y-171215001D03*
X53452390Y-174887710D03*
X51930000Y-172340000D03*
D21*
X102570000Y-155760000D02*
X102570000Y-152740000D01*
X101340000Y-156990000D02*
X102570000Y-155760000D01*
X92480000Y-155730000D02*
X92480000Y-152740000D01*
X91240000Y-156970000D02*
X92480000Y-155730000D01*
X82400000Y-155870000D02*
X81310000Y-156960000D01*
X82400000Y-152740000D02*
X82400000Y-155870000D01*
X72320000Y-155750000D02*
X71050000Y-157020000D01*
X72320000Y-152740000D02*
X72320000Y-155750000D01*
X45610000Y-155220000D02*
X45610000Y-153810000D01*
X45610000Y-153810000D02*
X47070000Y-152350000D01*
X47070000Y-152350000D02*
X55000000Y-152350000D01*
X59720000Y-157070000D02*
X59720000Y-160220000D01*
X55000000Y-152350000D02*
X59720000Y-157070000D01*
X97490000Y-155740000D02*
X97490000Y-152740000D01*
X98740000Y-156990000D02*
X97490000Y-155740000D01*
X87400000Y-155730000D02*
X88640000Y-156970000D01*
X87400000Y-152740000D02*
X87400000Y-155730000D01*
X77320000Y-155570000D02*
X78710000Y-156960000D01*
X77320000Y-152740000D02*
X77320000Y-155570000D01*
X67240000Y-155810000D02*
X68450000Y-157020000D01*
X67240000Y-152740000D02*
X67240000Y-155810000D01*
X75450000Y-160220000D02*
X78710000Y-156960000D01*
X59720000Y-171717919D02*
X59720000Y-170380000D01*
X59720000Y-172920000D02*
X59720000Y-171717919D01*
X59720000Y-170380000D02*
X59720000Y-167840000D01*
X68450000Y-159110000D02*
X68450000Y-157020000D01*
X59720000Y-167840000D02*
X68450000Y-159110000D01*
X75230000Y-170380000D02*
X59720000Y-170380000D01*
X88640000Y-156970000D02*
X75230000Y-170380000D01*
X82810000Y-172920000D02*
X59720000Y-172920000D01*
X98740000Y-156990000D02*
X82810000Y-172920000D01*
X78185226Y-157484774D02*
X78710000Y-156960000D01*
X59720000Y-167840000D02*
X67830000Y-167840000D01*
X67830000Y-167840000D02*
X78185226Y-157484774D01*
X46860000Y-155220000D02*
X46860000Y-162060000D01*
X52640000Y-167840000D02*
X59720000Y-167840000D01*
X46860000Y-162060000D02*
X52640000Y-167840000D01*
X58884999Y-171215001D02*
X59720000Y-170380000D01*
X51462328Y-171215001D02*
X58884999Y-171215001D01*
X43110000Y-155895000D02*
X43110000Y-155220000D01*
X43110000Y-166362894D02*
X43110000Y-155895000D01*
X49020000Y-172272894D02*
X43110000Y-166362894D01*
X49020000Y-172980000D02*
X49020000Y-172272894D01*
X44360000Y-164900000D02*
X44360000Y-155220000D01*
X50330000Y-170870000D02*
X44360000Y-164900000D01*
X50330000Y-173230000D02*
X50330000Y-170870000D01*
X49020000Y-174250000D02*
X49310000Y-174250000D01*
X49310000Y-174250000D02*
X50330000Y-173230000D01*
X78052081Y-190270000D02*
X79390000Y-190270000D01*
X76850000Y-190270000D02*
X78052081Y-190270000D01*
X79390000Y-190270000D02*
X81930000Y-190270000D01*
X68110000Y-176450000D02*
X55014680Y-176450000D01*
X81930000Y-190270000D02*
X68110000Y-176450000D01*
X53852389Y-175287709D02*
X53452390Y-174887710D01*
X55014680Y-176450000D02*
X53852389Y-175287709D01*
X110060000Y-171810000D02*
X110060000Y-170370000D01*
X110060000Y-172910000D02*
X110060000Y-171810000D01*
X110060000Y-169167919D02*
X110060000Y-167830000D01*
X110060000Y-170370000D02*
X110060000Y-169167919D01*
X55100000Y-175510000D02*
X51930000Y-172340000D01*
X106360000Y-175510000D02*
X55100000Y-175510000D01*
X108960000Y-172910000D02*
X106360000Y-175510000D01*
X110060000Y-172910000D02*
X108960000Y-172910000D01*
X100040000Y-152750000D02*
X100030000Y-152740000D01*
X100040000Y-156990000D02*
X100040000Y-152750000D01*
X89940000Y-155970000D02*
X89940000Y-152740000D01*
X89940000Y-156970000D02*
X89940000Y-155970000D01*
X80010000Y-152890000D02*
X79860000Y-152740000D01*
X80010000Y-156960000D02*
X80010000Y-152890000D01*
X69780000Y-156990000D02*
X69750000Y-157020000D01*
X69780000Y-152740000D02*
X69780000Y-156990000D01*
D22*
G36*
X114033440Y-141663346D02*
G01*
X113560920Y-141979074D01*
X113159074Y-142380920D01*
X112843346Y-142853440D01*
X112625869Y-143378477D01*
X112515000Y-143935852D01*
X112515000Y-144504148D01*
X112625869Y-145061523D01*
X112843346Y-145586560D01*
X113159074Y-146059080D01*
X113560920Y-146460926D01*
X114033440Y-146776654D01*
X114558477Y-146994131D01*
X115115852Y-147105000D01*
X115684148Y-147105000D01*
X116241523Y-146994131D01*
X116766560Y-146776654D01*
X117239080Y-146460926D01*
X117640926Y-146059080D01*
X117940000Y-145611484D01*
X117940001Y-234443483D01*
X117630926Y-233980920D01*
X117229080Y-233579074D01*
X116756560Y-233263346D01*
X116231523Y-233045869D01*
X115674148Y-232935000D01*
X115105852Y-232935000D01*
X114548477Y-233045869D01*
X114023440Y-233263346D01*
X113550920Y-233579074D01*
X113149074Y-233980920D01*
X112833346Y-234453440D01*
X112615869Y-234978477D01*
X112505000Y-235535852D01*
X112505000Y-236104148D01*
X112615869Y-236661523D01*
X112833346Y-237186560D01*
X113149074Y-237659080D01*
X113550920Y-238060926D01*
X113968583Y-238340000D01*
X40636383Y-238340000D01*
X41039080Y-238070926D01*
X41440926Y-237669080D01*
X41756654Y-237196560D01*
X41974131Y-236671523D01*
X42085000Y-236114148D01*
X42085000Y-235545852D01*
X41974131Y-234988477D01*
X41756654Y-234463440D01*
X41440926Y-233990920D01*
X41039080Y-233589074D01*
X40566560Y-233273346D01*
X40041523Y-233055869D01*
X39484148Y-232945000D01*
X38915852Y-232945000D01*
X38358477Y-233055869D01*
X37833440Y-233273346D01*
X37360920Y-233589074D01*
X36959074Y-233990920D01*
X36660000Y-234438516D01*
X36660000Y-191120000D01*
X67741928Y-191120000D01*
X67754188Y-191244482D01*
X67790498Y-191364180D01*
X67849463Y-191474494D01*
X67928815Y-191571185D01*
X68025506Y-191650537D01*
X68135820Y-191709502D01*
X68255518Y-191745812D01*
X68380000Y-191758072D01*
X68944250Y-191755000D01*
X69103000Y-191596250D01*
X69103000Y-190397000D01*
X69357000Y-190397000D01*
X69357000Y-191596250D01*
X69515750Y-191755000D01*
X70080000Y-191758072D01*
X70204482Y-191745812D01*
X70324180Y-191709502D01*
X70434494Y-191650537D01*
X70531185Y-191571185D01*
X70610537Y-191474494D01*
X70669502Y-191364180D01*
X70693966Y-191283534D01*
X70769731Y-191367588D01*
X71003080Y-191541641D01*
X71265901Y-191666825D01*
X71413110Y-191711476D01*
X71643000Y-191590155D01*
X71643000Y-190397000D01*
X71897000Y-190397000D01*
X71897000Y-191590155D01*
X72126890Y-191711476D01*
X72274099Y-191666825D01*
X72536920Y-191541641D01*
X72770269Y-191367588D01*
X72965178Y-191151355D01*
X73040000Y-191025745D01*
X73114822Y-191151355D01*
X73309731Y-191367588D01*
X73543080Y-191541641D01*
X73805901Y-191666825D01*
X73953110Y-191711476D01*
X74183000Y-191590155D01*
X74183000Y-190397000D01*
X71897000Y-190397000D01*
X71643000Y-190397000D01*
X69357000Y-190397000D01*
X69103000Y-190397000D01*
X67903750Y-190397000D01*
X67745000Y-190555750D01*
X67741928Y-191120000D01*
X36660000Y-191120000D01*
X36660000Y-189420000D01*
X67741928Y-189420000D01*
X67745000Y-189984250D01*
X67903750Y-190143000D01*
X69103000Y-190143000D01*
X69103000Y-188943750D01*
X69357000Y-188943750D01*
X69357000Y-190143000D01*
X71643000Y-190143000D01*
X71643000Y-188949845D01*
X71897000Y-188949845D01*
X71897000Y-190143000D01*
X74183000Y-190143000D01*
X74183000Y-188949845D01*
X73953110Y-188828524D01*
X73805901Y-188873175D01*
X73543080Y-188998359D01*
X73309731Y-189172412D01*
X73114822Y-189388645D01*
X73040000Y-189514255D01*
X72965178Y-189388645D01*
X72770269Y-189172412D01*
X72536920Y-188998359D01*
X72274099Y-188873175D01*
X72126890Y-188828524D01*
X71897000Y-188949845D01*
X71643000Y-188949845D01*
X71413110Y-188828524D01*
X71265901Y-188873175D01*
X71003080Y-188998359D01*
X70769731Y-189172412D01*
X70693966Y-189256466D01*
X70669502Y-189175820D01*
X70610537Y-189065506D01*
X70531185Y-188968815D01*
X70434494Y-188889463D01*
X70324180Y-188830498D01*
X70204482Y-188794188D01*
X70080000Y-188781928D01*
X69515750Y-188785000D01*
X69357000Y-188943750D01*
X69103000Y-188943750D01*
X68944250Y-188785000D01*
X68380000Y-188781928D01*
X68255518Y-188794188D01*
X68135820Y-188830498D01*
X68025506Y-188889463D01*
X67928815Y-188968815D01*
X67849463Y-189065506D01*
X67790498Y-189175820D01*
X67754188Y-189295518D01*
X67741928Y-189420000D01*
X36660000Y-189420000D01*
X36660000Y-154795000D01*
X42046928Y-154795000D01*
X42046928Y-155645000D01*
X42059188Y-155769482D01*
X42095498Y-155889180D01*
X42154463Y-155999494D01*
X42233815Y-156096185D01*
X42330506Y-156175537D01*
X42350001Y-156185957D01*
X42350000Y-166325572D01*
X42346324Y-166362894D01*
X42350000Y-166400216D01*
X42350000Y-166400226D01*
X42360997Y-166511879D01*
X42387514Y-166599294D01*
X42404454Y-166655140D01*
X42475026Y-166787170D01*
X42514871Y-166835720D01*
X42569999Y-166902895D01*
X42599003Y-166926698D01*
X47533169Y-171860865D01*
X47527501Y-171861423D01*
X47313553Y-171926324D01*
X47116377Y-172031716D01*
X47115000Y-172032846D01*
X47113623Y-172031716D01*
X46916447Y-171926324D01*
X46702499Y-171861423D01*
X46535752Y-171845000D01*
X46424248Y-171845000D01*
X46257501Y-171861423D01*
X46043553Y-171926324D01*
X45846377Y-172031716D01*
X45845000Y-172032846D01*
X45843623Y-172031716D01*
X45646447Y-171926324D01*
X45432499Y-171861423D01*
X45265752Y-171845000D01*
X45154248Y-171845000D01*
X44987501Y-171861423D01*
X44773553Y-171926324D01*
X44762379Y-171932297D01*
X44684180Y-171890498D01*
X44564482Y-171854188D01*
X44440000Y-171841928D01*
X43440000Y-171841928D01*
X43315518Y-171854188D01*
X43195820Y-171890498D01*
X43085506Y-171949463D01*
X42988815Y-172028815D01*
X42909463Y-172125506D01*
X42850498Y-172235820D01*
X42814188Y-172355518D01*
X42801928Y-172480000D01*
X42801928Y-173480000D01*
X42814188Y-173604482D01*
X42850498Y-173724180D01*
X42892297Y-173802379D01*
X42886324Y-173813553D01*
X42821423Y-174027501D01*
X42799509Y-174250000D01*
X42821423Y-174472499D01*
X42886324Y-174686447D01*
X42991716Y-174883623D01*
X43133551Y-175056449D01*
X43306377Y-175198284D01*
X43503553Y-175303676D01*
X43717501Y-175368577D01*
X43884248Y-175385000D01*
X43995752Y-175385000D01*
X44162499Y-175368577D01*
X44376447Y-175303676D01*
X44573623Y-175198284D01*
X44575000Y-175197154D01*
X44576377Y-175198284D01*
X44773553Y-175303676D01*
X44987501Y-175368577D01*
X45154248Y-175385000D01*
X45265752Y-175385000D01*
X45432499Y-175368577D01*
X45646447Y-175303676D01*
X45843623Y-175198284D01*
X45853383Y-175190274D01*
X45919794Y-175237123D01*
X46123136Y-175327446D01*
X46178126Y-175344119D01*
X46353000Y-175217954D01*
X46353000Y-174377000D01*
X46337983Y-174377000D01*
X46350491Y-174250000D01*
X46337983Y-174123000D01*
X46353000Y-174123000D01*
X46353000Y-174107983D01*
X46424248Y-174115000D01*
X46535752Y-174115000D01*
X46607000Y-174107983D01*
X46607000Y-174123000D01*
X46622017Y-174123000D01*
X46609509Y-174250000D01*
X46622017Y-174377000D01*
X46607000Y-174377000D01*
X46607000Y-175217954D01*
X46781874Y-175344119D01*
X46836864Y-175327446D01*
X47040206Y-175237123D01*
X47106617Y-175190274D01*
X47116377Y-175198284D01*
X47313553Y-175303676D01*
X47527501Y-175368577D01*
X47694248Y-175385000D01*
X47805752Y-175385000D01*
X47972499Y-175368577D01*
X48186447Y-175303676D01*
X48383623Y-175198284D01*
X48385000Y-175197154D01*
X48386377Y-175198284D01*
X48583553Y-175303676D01*
X48797501Y-175368577D01*
X48964248Y-175385000D01*
X49075752Y-175385000D01*
X49242499Y-175368577D01*
X49456447Y-175303676D01*
X49653623Y-175198284D01*
X49826449Y-175056449D01*
X49968284Y-174883623D01*
X50073676Y-174686447D01*
X50128246Y-174506555D01*
X50841004Y-173793798D01*
X50870001Y-173770001D01*
X50964974Y-173654276D01*
X51035546Y-173522247D01*
X51079003Y-173378986D01*
X51090000Y-173267333D01*
X51090000Y-173267323D01*
X51093676Y-173230000D01*
X51090000Y-173192677D01*
X51090000Y-172945802D01*
X51126063Y-172999774D01*
X51270226Y-173143937D01*
X51439744Y-173257205D01*
X51628102Y-173335226D01*
X51828061Y-173375000D01*
X51890199Y-173375000D01*
X52695794Y-174180595D01*
X52648453Y-174227936D01*
X52535185Y-174397454D01*
X52457164Y-174585812D01*
X52417390Y-174785771D01*
X52417390Y-174989649D01*
X52457164Y-175189608D01*
X52535185Y-175377966D01*
X52648453Y-175547484D01*
X52792616Y-175691647D01*
X52962134Y-175804915D01*
X53150492Y-175882936D01*
X53350451Y-175922710D01*
X53412589Y-175922710D01*
X54450880Y-176961002D01*
X54474679Y-176990001D01*
X54590404Y-177084974D01*
X54722433Y-177155546D01*
X54865694Y-177199003D01*
X54977347Y-177210000D01*
X54977355Y-177210000D01*
X55014680Y-177213676D01*
X55052005Y-177210000D01*
X67795199Y-177210000D01*
X79370197Y-188785000D01*
X79317050Y-188785000D01*
X79098889Y-188806487D01*
X78818966Y-188891401D01*
X78560986Y-189029294D01*
X78334866Y-189214866D01*
X78149294Y-189440986D01*
X78120000Y-189495791D01*
X78090706Y-189440986D01*
X77905134Y-189214866D01*
X77679014Y-189029294D01*
X77421034Y-188891401D01*
X77141111Y-188806487D01*
X76922950Y-188785000D01*
X76777050Y-188785000D01*
X76558889Y-188806487D01*
X76278966Y-188891401D01*
X76020986Y-189029294D01*
X75794866Y-189214866D01*
X75609294Y-189440986D01*
X75574799Y-189505523D01*
X75505178Y-189388645D01*
X75310269Y-189172412D01*
X75076920Y-188998359D01*
X74814099Y-188873175D01*
X74666890Y-188828524D01*
X74437000Y-188949845D01*
X74437000Y-190143000D01*
X74457000Y-190143000D01*
X74457000Y-190397000D01*
X74437000Y-190397000D01*
X74437000Y-191590155D01*
X74666890Y-191711476D01*
X74814099Y-191666825D01*
X75076920Y-191541641D01*
X75310269Y-191367588D01*
X75505178Y-191151355D01*
X75574799Y-191034477D01*
X75609294Y-191099014D01*
X75794866Y-191325134D01*
X76020986Y-191510706D01*
X76278966Y-191648599D01*
X76558889Y-191733513D01*
X76777050Y-191755000D01*
X76922950Y-191755000D01*
X77141111Y-191733513D01*
X77421034Y-191648599D01*
X77679014Y-191510706D01*
X77905134Y-191325134D01*
X78090706Y-191099014D01*
X78120000Y-191044209D01*
X78149294Y-191099014D01*
X78334866Y-191325134D01*
X78560986Y-191510706D01*
X78818966Y-191648599D01*
X79098889Y-191733513D01*
X79317050Y-191755000D01*
X79462950Y-191755000D01*
X79681111Y-191733513D01*
X79961034Y-191648599D01*
X80219014Y-191510706D01*
X80445134Y-191325134D01*
X80630706Y-191099014D01*
X80660000Y-191044209D01*
X80689294Y-191099014D01*
X80874866Y-191325134D01*
X81100986Y-191510706D01*
X81358966Y-191648599D01*
X81638889Y-191733513D01*
X81857050Y-191755000D01*
X82002950Y-191755000D01*
X82221111Y-191733513D01*
X82501034Y-191648599D01*
X82759014Y-191510706D01*
X82985134Y-191325134D01*
X83170706Y-191099014D01*
X83308599Y-190841034D01*
X83393513Y-190561111D01*
X83422185Y-190270000D01*
X83393513Y-189978889D01*
X83308599Y-189698966D01*
X83170706Y-189440986D01*
X82985134Y-189214866D01*
X82759014Y-189029294D01*
X82501034Y-188891401D01*
X82221111Y-188806487D01*
X82002950Y-188785000D01*
X81857050Y-188785000D01*
X81638889Y-188806487D01*
X81564006Y-188829203D01*
X69004801Y-176270000D01*
X106322678Y-176270000D01*
X106360000Y-176273676D01*
X106397322Y-176270000D01*
X106397333Y-176270000D01*
X106508986Y-176259003D01*
X106652247Y-176215546D01*
X106784276Y-176144974D01*
X106900001Y-176050001D01*
X106923804Y-176020997D01*
X108747457Y-174197345D01*
X108758815Y-174211185D01*
X108855506Y-174290537D01*
X108965820Y-174349502D01*
X109085518Y-174385812D01*
X109210000Y-174398072D01*
X110910000Y-174398072D01*
X111034482Y-174385812D01*
X111154180Y-174349502D01*
X111264494Y-174290537D01*
X111361185Y-174211185D01*
X111440537Y-174114494D01*
X111499502Y-174004180D01*
X111535812Y-173884482D01*
X111548072Y-173760000D01*
X111548072Y-172060000D01*
X111535812Y-171935518D01*
X111499502Y-171815820D01*
X111440537Y-171705506D01*
X111361185Y-171608815D01*
X111264494Y-171529463D01*
X111154180Y-171470498D01*
X111085313Y-171449607D01*
X111115134Y-171425134D01*
X111300706Y-171199014D01*
X111438599Y-170941034D01*
X111523513Y-170661111D01*
X111552185Y-170370000D01*
X111523513Y-170078889D01*
X111438599Y-169798966D01*
X111300706Y-169540986D01*
X111115134Y-169314866D01*
X110889014Y-169129294D01*
X110834209Y-169100000D01*
X110889014Y-169070706D01*
X111115134Y-168885134D01*
X111300706Y-168659014D01*
X111438599Y-168401034D01*
X111523513Y-168121111D01*
X111552185Y-167830000D01*
X111523513Y-167538889D01*
X111438599Y-167258966D01*
X111300706Y-167000986D01*
X111115134Y-166774866D01*
X110889014Y-166589294D01*
X110824477Y-166554799D01*
X110941355Y-166485178D01*
X111157588Y-166290269D01*
X111331641Y-166056920D01*
X111456825Y-165794099D01*
X111501476Y-165646890D01*
X111380155Y-165417000D01*
X110187000Y-165417000D01*
X110187000Y-165437000D01*
X109933000Y-165437000D01*
X109933000Y-165417000D01*
X108739845Y-165417000D01*
X108618524Y-165646890D01*
X108663175Y-165794099D01*
X108788359Y-166056920D01*
X108962412Y-166290269D01*
X109178645Y-166485178D01*
X109295523Y-166554799D01*
X109230986Y-166589294D01*
X109004866Y-166774866D01*
X108819294Y-167000986D01*
X108681401Y-167258966D01*
X108596487Y-167538889D01*
X108567815Y-167830000D01*
X108596487Y-168121111D01*
X108681401Y-168401034D01*
X108819294Y-168659014D01*
X109004866Y-168885134D01*
X109230986Y-169070706D01*
X109285791Y-169100000D01*
X109230986Y-169129294D01*
X109004866Y-169314866D01*
X108819294Y-169540986D01*
X108681401Y-169798966D01*
X108596487Y-170078889D01*
X108567815Y-170370000D01*
X108596487Y-170661111D01*
X108681401Y-170941034D01*
X108819294Y-171199014D01*
X109004866Y-171425134D01*
X109034687Y-171449607D01*
X108965820Y-171470498D01*
X108855506Y-171529463D01*
X108758815Y-171608815D01*
X108679463Y-171705506D01*
X108620498Y-171815820D01*
X108584188Y-171935518D01*
X108571928Y-172060000D01*
X108571928Y-172255674D01*
X108535724Y-172275026D01*
X108419999Y-172369999D01*
X108396201Y-172398997D01*
X106045199Y-174750000D01*
X55414802Y-174750000D01*
X52965000Y-172300199D01*
X52965000Y-172238061D01*
X52925226Y-172038102D01*
X52899089Y-171975001D01*
X58574480Y-171975001D01*
X58479294Y-172090986D01*
X58341401Y-172348966D01*
X58256487Y-172628889D01*
X58227815Y-172920000D01*
X58256487Y-173211111D01*
X58341401Y-173491034D01*
X58479294Y-173749014D01*
X58664866Y-173975134D01*
X58890986Y-174160706D01*
X59148966Y-174298599D01*
X59428889Y-174383513D01*
X59647050Y-174405000D01*
X59792950Y-174405000D01*
X60011111Y-174383513D01*
X60291034Y-174298599D01*
X60549014Y-174160706D01*
X60775134Y-173975134D01*
X60960706Y-173749014D01*
X60997595Y-173680000D01*
X82772678Y-173680000D01*
X82810000Y-173683676D01*
X82847322Y-173680000D01*
X82847333Y-173680000D01*
X82958986Y-173669003D01*
X83102247Y-173625546D01*
X83234276Y-173554974D01*
X83350001Y-173460001D01*
X83373804Y-173430997D01*
X93697911Y-163106890D01*
X108618524Y-163106890D01*
X108663175Y-163254099D01*
X108788359Y-163516920D01*
X108962412Y-163750269D01*
X109178645Y-163945178D01*
X109304255Y-164020000D01*
X109178645Y-164094822D01*
X108962412Y-164289731D01*
X108788359Y-164523080D01*
X108663175Y-164785901D01*
X108618524Y-164933110D01*
X108739845Y-165163000D01*
X109933000Y-165163000D01*
X109933000Y-162877000D01*
X110187000Y-162877000D01*
X110187000Y-165163000D01*
X111380155Y-165163000D01*
X111501476Y-164933110D01*
X111456825Y-164785901D01*
X111331641Y-164523080D01*
X111157588Y-164289731D01*
X110941355Y-164094822D01*
X110815745Y-164020000D01*
X110941355Y-163945178D01*
X111157588Y-163750269D01*
X111331641Y-163516920D01*
X111456825Y-163254099D01*
X111501476Y-163106890D01*
X111380155Y-162877000D01*
X110187000Y-162877000D01*
X109933000Y-162877000D01*
X108739845Y-162877000D01*
X108618524Y-163106890D01*
X93697911Y-163106890D01*
X96237911Y-160566890D01*
X108618524Y-160566890D01*
X108663175Y-160714099D01*
X108788359Y-160976920D01*
X108962412Y-161210269D01*
X109178645Y-161405178D01*
X109304255Y-161480000D01*
X109178645Y-161554822D01*
X108962412Y-161749731D01*
X108788359Y-161983080D01*
X108663175Y-162245901D01*
X108618524Y-162393110D01*
X108739845Y-162623000D01*
X109933000Y-162623000D01*
X109933000Y-160337000D01*
X110187000Y-160337000D01*
X110187000Y-162623000D01*
X111380155Y-162623000D01*
X111501476Y-162393110D01*
X111456825Y-162245901D01*
X111331641Y-161983080D01*
X111157588Y-161749731D01*
X110941355Y-161554822D01*
X110815745Y-161480000D01*
X110941355Y-161405178D01*
X111157588Y-161210269D01*
X111331641Y-160976920D01*
X111456825Y-160714099D01*
X111501476Y-160566890D01*
X111380155Y-160337000D01*
X110187000Y-160337000D01*
X109933000Y-160337000D01*
X108739845Y-160337000D01*
X108618524Y-160566890D01*
X96237911Y-160566890D01*
X96951691Y-159853110D01*
X108618524Y-159853110D01*
X108739845Y-160083000D01*
X109933000Y-160083000D01*
X109933000Y-158889186D01*
X110187000Y-158889186D01*
X110187000Y-160083000D01*
X111380155Y-160083000D01*
X111501476Y-159853110D01*
X111456825Y-159705901D01*
X111331641Y-159443080D01*
X111157588Y-159209731D01*
X110941355Y-159014822D01*
X110691252Y-158865843D01*
X110416891Y-158768519D01*
X110187000Y-158889186D01*
X109933000Y-158889186D01*
X109703109Y-158768519D01*
X109428748Y-158865843D01*
X109178645Y-159014822D01*
X108962412Y-159209731D01*
X108788359Y-159443080D01*
X108663175Y-159705901D01*
X108618524Y-159853110D01*
X96951691Y-159853110D01*
X98462814Y-158341988D01*
X98470377Y-158344282D01*
X98566510Y-158363404D01*
X98690991Y-158375664D01*
X98715550Y-158375664D01*
X98740000Y-158378072D01*
X99290000Y-158378072D01*
X99414482Y-158365812D01*
X99415000Y-158365655D01*
X99415518Y-158365812D01*
X99540000Y-158378072D01*
X100540000Y-158378072D01*
X100664482Y-158365812D01*
X100784180Y-158329502D01*
X100894494Y-158270537D01*
X100991185Y-158191185D01*
X101070537Y-158094494D01*
X101129502Y-157984180D01*
X101165812Y-157864482D01*
X101178072Y-157740000D01*
X101178072Y-156240000D01*
X101165812Y-156115518D01*
X101129502Y-155995820D01*
X101070537Y-155885506D01*
X100991185Y-155788815D01*
X100894494Y-155709463D01*
X100800000Y-155658954D01*
X100800000Y-154012250D01*
X100859014Y-153980706D01*
X101085134Y-153795134D01*
X101109607Y-153765313D01*
X101130498Y-153834180D01*
X101189463Y-153944494D01*
X101268815Y-154041185D01*
X101365506Y-154120537D01*
X101475820Y-154179502D01*
X101595518Y-154215812D01*
X101720000Y-154228072D01*
X102284250Y-154225000D01*
X102443000Y-154066250D01*
X102443000Y-152867000D01*
X102697000Y-152867000D01*
X102697000Y-154066250D01*
X102855750Y-154225000D01*
X103420000Y-154228072D01*
X103544482Y-154215812D01*
X103664180Y-154179502D01*
X103774494Y-154120537D01*
X103871185Y-154041185D01*
X103950537Y-153944494D01*
X104009502Y-153834180D01*
X104045812Y-153714482D01*
X104058072Y-153590000D01*
X104055000Y-153025750D01*
X103896250Y-152867000D01*
X102697000Y-152867000D01*
X102443000Y-152867000D01*
X102423000Y-152867000D01*
X102423000Y-152613000D01*
X102443000Y-152613000D01*
X102443000Y-151413750D01*
X102697000Y-151413750D01*
X102697000Y-152613000D01*
X103896250Y-152613000D01*
X104055000Y-152454250D01*
X104058072Y-151890000D01*
X104045812Y-151765518D01*
X104009502Y-151645820D01*
X103950537Y-151535506D01*
X103871185Y-151438815D01*
X103774494Y-151359463D01*
X103664180Y-151300498D01*
X103544482Y-151264188D01*
X103420000Y-151251928D01*
X102855750Y-151255000D01*
X102697000Y-151413750D01*
X102443000Y-151413750D01*
X102284250Y-151255000D01*
X101720000Y-151251928D01*
X101595518Y-151264188D01*
X101475820Y-151300498D01*
X101365506Y-151359463D01*
X101268815Y-151438815D01*
X101189463Y-151535506D01*
X101130498Y-151645820D01*
X101109607Y-151714687D01*
X101085134Y-151684866D01*
X100859014Y-151499294D01*
X100601034Y-151361401D01*
X100321111Y-151276487D01*
X100102950Y-151255000D01*
X99957050Y-151255000D01*
X99738889Y-151276487D01*
X99458966Y-151361401D01*
X99200986Y-151499294D01*
X98974866Y-151684866D01*
X98789294Y-151910986D01*
X98760000Y-151965791D01*
X98730706Y-151910986D01*
X98545134Y-151684866D01*
X98319014Y-151499294D01*
X98061034Y-151361401D01*
X97781111Y-151276487D01*
X97562950Y-151255000D01*
X97417050Y-151255000D01*
X97198889Y-151276487D01*
X96918966Y-151361401D01*
X96660986Y-151499294D01*
X96434866Y-151684866D01*
X96249294Y-151910986D01*
X96111401Y-152168966D01*
X96026487Y-152448889D01*
X95997815Y-152740000D01*
X96026487Y-153031111D01*
X96111401Y-153311034D01*
X96249294Y-153569014D01*
X96434866Y-153795134D01*
X96660986Y-153980706D01*
X96730001Y-154017595D01*
X96730000Y-155702677D01*
X96726324Y-155740000D01*
X96730000Y-155777322D01*
X96730000Y-155777332D01*
X96740997Y-155888985D01*
X96774519Y-155999494D01*
X96784454Y-156032246D01*
X96855026Y-156164276D01*
X96888426Y-156204974D01*
X96949999Y-156280001D01*
X96979003Y-156303804D01*
X97601928Y-156926730D01*
X97601928Y-157053270D01*
X82495199Y-172160000D01*
X60997595Y-172160000D01*
X60960706Y-172090986D01*
X60775134Y-171864866D01*
X60549014Y-171679294D01*
X60494209Y-171650000D01*
X60549014Y-171620706D01*
X60775134Y-171435134D01*
X60960706Y-171209014D01*
X60997595Y-171140000D01*
X75192678Y-171140000D01*
X75230000Y-171143676D01*
X75267322Y-171140000D01*
X75267333Y-171140000D01*
X75378986Y-171129003D01*
X75522247Y-171085546D01*
X75654276Y-171014974D01*
X75770001Y-170920001D01*
X75793804Y-170890997D01*
X88362814Y-158321988D01*
X88370377Y-158324282D01*
X88466510Y-158343404D01*
X88590991Y-158355664D01*
X88615550Y-158355664D01*
X88640000Y-158358072D01*
X89190000Y-158358072D01*
X89314482Y-158345812D01*
X89315000Y-158345655D01*
X89315518Y-158345812D01*
X89440000Y-158358072D01*
X90440000Y-158358072D01*
X90564482Y-158345812D01*
X90684180Y-158309502D01*
X90794494Y-158250537D01*
X90891185Y-158171185D01*
X90970537Y-158074494D01*
X91029502Y-157964180D01*
X91065812Y-157844482D01*
X91078072Y-157720000D01*
X91078072Y-156220000D01*
X91065812Y-156095518D01*
X91029502Y-155975820D01*
X90970537Y-155865506D01*
X90891185Y-155768815D01*
X90794494Y-155689463D01*
X90700000Y-155638954D01*
X90700000Y-154017595D01*
X90769014Y-153980706D01*
X90995134Y-153795134D01*
X91019607Y-153765313D01*
X91040498Y-153834180D01*
X91099463Y-153944494D01*
X91178815Y-154041185D01*
X91275506Y-154120537D01*
X91385820Y-154179502D01*
X91505518Y-154215812D01*
X91630000Y-154228072D01*
X92194250Y-154225000D01*
X92353000Y-154066250D01*
X92353000Y-152867000D01*
X92607000Y-152867000D01*
X92607000Y-154066250D01*
X92765750Y-154225000D01*
X93330000Y-154228072D01*
X93454482Y-154215812D01*
X93574180Y-154179502D01*
X93684494Y-154120537D01*
X93781185Y-154041185D01*
X93860537Y-153944494D01*
X93919502Y-153834180D01*
X93955812Y-153714482D01*
X93968072Y-153590000D01*
X93965000Y-153025750D01*
X93806250Y-152867000D01*
X92607000Y-152867000D01*
X92353000Y-152867000D01*
X92333000Y-152867000D01*
X92333000Y-152613000D01*
X92353000Y-152613000D01*
X92353000Y-151413750D01*
X92607000Y-151413750D01*
X92607000Y-152613000D01*
X93806250Y-152613000D01*
X93965000Y-152454250D01*
X93968072Y-151890000D01*
X93955812Y-151765518D01*
X93919502Y-151645820D01*
X93860537Y-151535506D01*
X93781185Y-151438815D01*
X93684494Y-151359463D01*
X93574180Y-151300498D01*
X93454482Y-151264188D01*
X93330000Y-151251928D01*
X92765750Y-151255000D01*
X92607000Y-151413750D01*
X92353000Y-151413750D01*
X92194250Y-151255000D01*
X91630000Y-151251928D01*
X91505518Y-151264188D01*
X91385820Y-151300498D01*
X91275506Y-151359463D01*
X91178815Y-151438815D01*
X91099463Y-151535506D01*
X91040498Y-151645820D01*
X91019607Y-151714687D01*
X90995134Y-151684866D01*
X90769014Y-151499294D01*
X90511034Y-151361401D01*
X90231111Y-151276487D01*
X90012950Y-151255000D01*
X89867050Y-151255000D01*
X89648889Y-151276487D01*
X89368966Y-151361401D01*
X89110986Y-151499294D01*
X88884866Y-151684866D01*
X88699294Y-151910986D01*
X88670000Y-151965791D01*
X88640706Y-151910986D01*
X88455134Y-151684866D01*
X88229014Y-151499294D01*
X87971034Y-151361401D01*
X87691111Y-151276487D01*
X87472950Y-151255000D01*
X87327050Y-151255000D01*
X87108889Y-151276487D01*
X86828966Y-151361401D01*
X86570986Y-151499294D01*
X86344866Y-151684866D01*
X86159294Y-151910986D01*
X86021401Y-152168966D01*
X85936487Y-152448889D01*
X85907815Y-152740000D01*
X85936487Y-153031111D01*
X86021401Y-153311034D01*
X86159294Y-153569014D01*
X86344866Y-153795134D01*
X86570986Y-153980706D01*
X86640000Y-154017595D01*
X86640001Y-155692668D01*
X86636324Y-155730000D01*
X86640001Y-155767333D01*
X86650998Y-155878986D01*
X86658073Y-155902310D01*
X86694454Y-156022246D01*
X86765026Y-156154276D01*
X86835379Y-156240000D01*
X86860000Y-156270001D01*
X86888998Y-156293799D01*
X87501928Y-156906730D01*
X87501928Y-157033270D01*
X74915199Y-169620000D01*
X60997595Y-169620000D01*
X60960706Y-169550986D01*
X60775134Y-169324866D01*
X60549014Y-169139294D01*
X60494209Y-169110000D01*
X60549014Y-169080706D01*
X60775134Y-168895134D01*
X60960706Y-168669014D01*
X60997595Y-168600000D01*
X67792678Y-168600000D01*
X67830000Y-168603676D01*
X67867322Y-168600000D01*
X67867333Y-168600000D01*
X67978986Y-168589003D01*
X68122247Y-168545546D01*
X68254276Y-168474974D01*
X68370001Y-168380001D01*
X68393804Y-168350997D01*
X78432814Y-158311988D01*
X78440377Y-158314282D01*
X78536510Y-158333404D01*
X78660991Y-158345664D01*
X78685550Y-158345664D01*
X78710000Y-158348072D01*
X79260000Y-158348072D01*
X79384482Y-158335812D01*
X79385000Y-158335655D01*
X79385518Y-158335812D01*
X79510000Y-158348072D01*
X80510000Y-158348072D01*
X80634482Y-158335812D01*
X80754180Y-158299502D01*
X80864494Y-158240537D01*
X80961185Y-158161185D01*
X81040537Y-158064494D01*
X81099502Y-157954180D01*
X81135812Y-157834482D01*
X81148072Y-157710000D01*
X81148072Y-156210000D01*
X81135812Y-156085518D01*
X81099502Y-155965820D01*
X81040537Y-155855506D01*
X80961185Y-155758815D01*
X80864494Y-155679463D01*
X80770000Y-155628954D01*
X80770000Y-153914242D01*
X80915134Y-153795134D01*
X80939607Y-153765313D01*
X80960498Y-153834180D01*
X81019463Y-153944494D01*
X81098815Y-154041185D01*
X81195506Y-154120537D01*
X81305820Y-154179502D01*
X81425518Y-154215812D01*
X81550000Y-154228072D01*
X82114250Y-154225000D01*
X82273000Y-154066250D01*
X82273000Y-152867000D01*
X82527000Y-152867000D01*
X82527000Y-154066250D01*
X82685750Y-154225000D01*
X83250000Y-154228072D01*
X83374482Y-154215812D01*
X83494180Y-154179502D01*
X83604494Y-154120537D01*
X83701185Y-154041185D01*
X83780537Y-153944494D01*
X83839502Y-153834180D01*
X83875812Y-153714482D01*
X83888072Y-153590000D01*
X83885000Y-153025750D01*
X83726250Y-152867000D01*
X82527000Y-152867000D01*
X82273000Y-152867000D01*
X82253000Y-152867000D01*
X82253000Y-152613000D01*
X82273000Y-152613000D01*
X82273000Y-151413750D01*
X82527000Y-151413750D01*
X82527000Y-152613000D01*
X83726250Y-152613000D01*
X83885000Y-152454250D01*
X83888072Y-151890000D01*
X83875812Y-151765518D01*
X83839502Y-151645820D01*
X83780537Y-151535506D01*
X83701185Y-151438815D01*
X83604494Y-151359463D01*
X83494180Y-151300498D01*
X83374482Y-151264188D01*
X83250000Y-151251928D01*
X82685750Y-151255000D01*
X82527000Y-151413750D01*
X82273000Y-151413750D01*
X82114250Y-151255000D01*
X81550000Y-151251928D01*
X81425518Y-151264188D01*
X81305820Y-151300498D01*
X81195506Y-151359463D01*
X81098815Y-151438815D01*
X81019463Y-151535506D01*
X80960498Y-151645820D01*
X80939607Y-151714687D01*
X80915134Y-151684866D01*
X80689014Y-151499294D01*
X80431034Y-151361401D01*
X80151111Y-151276487D01*
X79932950Y-151255000D01*
X79787050Y-151255000D01*
X79568889Y-151276487D01*
X79288966Y-151361401D01*
X79030986Y-151499294D01*
X78804866Y-151684866D01*
X78619294Y-151910986D01*
X78590000Y-151965791D01*
X78560706Y-151910986D01*
X78375134Y-151684866D01*
X78149014Y-151499294D01*
X77891034Y-151361401D01*
X77611111Y-151276487D01*
X77392950Y-151255000D01*
X77247050Y-151255000D01*
X77028889Y-151276487D01*
X76748966Y-151361401D01*
X76490986Y-151499294D01*
X76264866Y-151684866D01*
X76079294Y-151910986D01*
X75941401Y-152168966D01*
X75856487Y-152448889D01*
X75827815Y-152740000D01*
X75856487Y-153031111D01*
X75941401Y-153311034D01*
X76079294Y-153569014D01*
X76264866Y-153795134D01*
X76490986Y-153980706D01*
X76560000Y-154017595D01*
X76560001Y-155532668D01*
X76556324Y-155570000D01*
X76560001Y-155607333D01*
X76570998Y-155718986D01*
X76583080Y-155758815D01*
X76614454Y-155862246D01*
X76685026Y-155994276D01*
X76745784Y-156068309D01*
X76780000Y-156110001D01*
X76808998Y-156133799D01*
X77571928Y-156896730D01*
X77571928Y-157023270D01*
X67515199Y-167080000D01*
X61554801Y-167080000D01*
X68961009Y-159673794D01*
X68990001Y-159650001D01*
X69013795Y-159621008D01*
X69013799Y-159621004D01*
X69084973Y-159534277D01*
X69084974Y-159534276D01*
X69155546Y-159402247D01*
X69199003Y-159258986D01*
X69210000Y-159147333D01*
X69210000Y-159147324D01*
X69213676Y-159110001D01*
X69210000Y-159072678D01*
X69210000Y-158404132D01*
X69250000Y-158408072D01*
X70250000Y-158408072D01*
X70374482Y-158395812D01*
X70494180Y-158359502D01*
X70604494Y-158300537D01*
X70701185Y-158221185D01*
X70780537Y-158124494D01*
X70839502Y-158014180D01*
X70875812Y-157894482D01*
X70888072Y-157770000D01*
X70888072Y-156270000D01*
X70875812Y-156145518D01*
X70839502Y-156025820D01*
X70780537Y-155915506D01*
X70701185Y-155818815D01*
X70604494Y-155739463D01*
X70540000Y-155704990D01*
X70540000Y-154017595D01*
X70609014Y-153980706D01*
X70835134Y-153795134D01*
X70859607Y-153765313D01*
X70880498Y-153834180D01*
X70939463Y-153944494D01*
X71018815Y-154041185D01*
X71115506Y-154120537D01*
X71225820Y-154179502D01*
X71345518Y-154215812D01*
X71470000Y-154228072D01*
X72034250Y-154225000D01*
X72193000Y-154066250D01*
X72193000Y-152867000D01*
X72447000Y-152867000D01*
X72447000Y-154066250D01*
X72605750Y-154225000D01*
X73170000Y-154228072D01*
X73294482Y-154215812D01*
X73414180Y-154179502D01*
X73524494Y-154120537D01*
X73621185Y-154041185D01*
X73700537Y-153944494D01*
X73759502Y-153834180D01*
X73795812Y-153714482D01*
X73808072Y-153590000D01*
X73805000Y-153025750D01*
X73646250Y-152867000D01*
X72447000Y-152867000D01*
X72193000Y-152867000D01*
X72173000Y-152867000D01*
X72173000Y-152613000D01*
X72193000Y-152613000D01*
X72193000Y-151413750D01*
X72447000Y-151413750D01*
X72447000Y-152613000D01*
X73646250Y-152613000D01*
X73805000Y-152454250D01*
X73808072Y-151890000D01*
X73795812Y-151765518D01*
X73759502Y-151645820D01*
X73700537Y-151535506D01*
X73621185Y-151438815D01*
X73524494Y-151359463D01*
X73414180Y-151300498D01*
X73294482Y-151264188D01*
X73170000Y-151251928D01*
X72605750Y-151255000D01*
X72447000Y-151413750D01*
X72193000Y-151413750D01*
X72034250Y-151255000D01*
X71470000Y-151251928D01*
X71345518Y-151264188D01*
X71225820Y-151300498D01*
X71115506Y-151359463D01*
X71018815Y-151438815D01*
X70939463Y-151535506D01*
X70880498Y-151645820D01*
X70859607Y-151714687D01*
X70835134Y-151684866D01*
X70609014Y-151499294D01*
X70351034Y-151361401D01*
X70071111Y-151276487D01*
X69852950Y-151255000D01*
X69707050Y-151255000D01*
X69488889Y-151276487D01*
X69208966Y-151361401D01*
X68950986Y-151499294D01*
X68724866Y-151684866D01*
X68539294Y-151910986D01*
X68510000Y-151965791D01*
X68480706Y-151910986D01*
X68295134Y-151684866D01*
X68069014Y-151499294D01*
X67811034Y-151361401D01*
X67531111Y-151276487D01*
X67312950Y-151255000D01*
X67167050Y-151255000D01*
X66948889Y-151276487D01*
X66668966Y-151361401D01*
X66410986Y-151499294D01*
X66184866Y-151684866D01*
X65999294Y-151910986D01*
X65861401Y-152168966D01*
X65776487Y-152448889D01*
X65747815Y-152740000D01*
X65776487Y-153031111D01*
X65861401Y-153311034D01*
X65999294Y-153569014D01*
X66184866Y-153795134D01*
X66410986Y-153980706D01*
X66480000Y-154017595D01*
X66480001Y-155772668D01*
X66476324Y-155810000D01*
X66480001Y-155847333D01*
X66490998Y-155958986D01*
X66501703Y-155994276D01*
X66534454Y-156102246D01*
X66605026Y-156234276D01*
X66675938Y-156320681D01*
X66700000Y-156350001D01*
X66728998Y-156373799D01*
X67311928Y-156956730D01*
X67311928Y-157270000D01*
X67314336Y-157294450D01*
X67314336Y-157319009D01*
X67326596Y-157443490D01*
X67345718Y-157539623D01*
X67382027Y-157659319D01*
X67419536Y-157749875D01*
X67478502Y-157860192D01*
X67532958Y-157941691D01*
X67612310Y-158038382D01*
X67681618Y-158107690D01*
X67690000Y-158114569D01*
X67690000Y-158795197D01*
X61205000Y-165280199D01*
X61205000Y-165172998D01*
X61040156Y-165172998D01*
X61161476Y-164943110D01*
X61116825Y-164795901D01*
X60991641Y-164533080D01*
X60817588Y-164299731D01*
X60601355Y-164104822D01*
X60475745Y-164030000D01*
X60601355Y-163955178D01*
X60817588Y-163760269D01*
X60991641Y-163526920D01*
X61116825Y-163264099D01*
X61161476Y-163116890D01*
X61040155Y-162887000D01*
X59847000Y-162887000D01*
X59847000Y-165173000D01*
X59867000Y-165173000D01*
X59867000Y-165427000D01*
X59847000Y-165427000D01*
X59847000Y-165447000D01*
X59593000Y-165447000D01*
X59593000Y-165427000D01*
X58399845Y-165427000D01*
X58278524Y-165656890D01*
X58323175Y-165804099D01*
X58448359Y-166066920D01*
X58622412Y-166300269D01*
X58838645Y-166495178D01*
X58955523Y-166564799D01*
X58890986Y-166599294D01*
X58664866Y-166784866D01*
X58479294Y-167010986D01*
X58442405Y-167080000D01*
X52954803Y-167080000D01*
X48991692Y-163116890D01*
X58278524Y-163116890D01*
X58323175Y-163264099D01*
X58448359Y-163526920D01*
X58622412Y-163760269D01*
X58838645Y-163955178D01*
X58964255Y-164030000D01*
X58838645Y-164104822D01*
X58622412Y-164299731D01*
X58448359Y-164533080D01*
X58323175Y-164795901D01*
X58278524Y-164943110D01*
X58399845Y-165173000D01*
X59593000Y-165173000D01*
X59593000Y-162887000D01*
X58399845Y-162887000D01*
X58278524Y-163116890D01*
X48991692Y-163116890D01*
X47620000Y-161745199D01*
X47620000Y-161070000D01*
X58231928Y-161070000D01*
X58244188Y-161194482D01*
X58280498Y-161314180D01*
X58339463Y-161424494D01*
X58418815Y-161521185D01*
X58515506Y-161600537D01*
X58625820Y-161659502D01*
X58706466Y-161683966D01*
X58622412Y-161759731D01*
X58448359Y-161993080D01*
X58323175Y-162255901D01*
X58278524Y-162403110D01*
X58399845Y-162633000D01*
X59593000Y-162633000D01*
X59593000Y-160347000D01*
X59847000Y-160347000D01*
X59847000Y-162633000D01*
X61040155Y-162633000D01*
X61161476Y-162403110D01*
X61116825Y-162255901D01*
X60991641Y-161993080D01*
X60817588Y-161759731D01*
X60733534Y-161683966D01*
X60814180Y-161659502D01*
X60924494Y-161600537D01*
X61021185Y-161521185D01*
X61100537Y-161424494D01*
X61159502Y-161314180D01*
X61195812Y-161194482D01*
X61208072Y-161070000D01*
X61205000Y-160505750D01*
X61046250Y-160347000D01*
X59847000Y-160347000D01*
X59593000Y-160347000D01*
X58393750Y-160347000D01*
X58235000Y-160505750D01*
X58231928Y-161070000D01*
X47620000Y-161070000D01*
X47620000Y-159370000D01*
X58231928Y-159370000D01*
X58235000Y-159934250D01*
X58393750Y-160093000D01*
X59593000Y-160093000D01*
X59593000Y-158893750D01*
X59847000Y-158893750D01*
X59847000Y-160093000D01*
X61046250Y-160093000D01*
X61205000Y-159934250D01*
X61208072Y-159370000D01*
X61195812Y-159245518D01*
X61159502Y-159125820D01*
X61100537Y-159015506D01*
X61021185Y-158918815D01*
X60924494Y-158839463D01*
X60814180Y-158780498D01*
X60694482Y-158744188D01*
X60570000Y-158731928D01*
X60005750Y-158735000D01*
X59847000Y-158893750D01*
X59593000Y-158893750D01*
X59434250Y-158735000D01*
X58870000Y-158731928D01*
X58745518Y-158744188D01*
X58625820Y-158780498D01*
X58515506Y-158839463D01*
X58418815Y-158918815D01*
X58339463Y-159015506D01*
X58280498Y-159125820D01*
X58244188Y-159245518D01*
X58231928Y-159370000D01*
X47620000Y-159370000D01*
X47620000Y-156164371D01*
X47800809Y-156239265D01*
X48005599Y-156280000D01*
X48214401Y-156280000D01*
X48419191Y-156239265D01*
X48612098Y-156159360D01*
X48735000Y-156077240D01*
X48857902Y-156159360D01*
X49050809Y-156239265D01*
X49255599Y-156280000D01*
X49464401Y-156280000D01*
X49669191Y-156239265D01*
X49862098Y-156159360D01*
X50035711Y-156043356D01*
X50183356Y-155895711D01*
X50299360Y-155722098D01*
X50379265Y-155529191D01*
X50420000Y-155324401D01*
X50420000Y-155115599D01*
X50379265Y-154910809D01*
X50299360Y-154717902D01*
X50183356Y-154544289D01*
X50035711Y-154396644D01*
X49862098Y-154280640D01*
X49669191Y-154200735D01*
X49464401Y-154160000D01*
X49255599Y-154160000D01*
X49050809Y-154200735D01*
X48857902Y-154280640D01*
X48735000Y-154362760D01*
X48612098Y-154280640D01*
X48419191Y-154200735D01*
X48214401Y-154160000D01*
X48005599Y-154160000D01*
X47800809Y-154200735D01*
X47607902Y-154280640D01*
X47485000Y-154362760D01*
X47362098Y-154280640D01*
X47169191Y-154200735D01*
X46964401Y-154160000D01*
X46755599Y-154160000D01*
X46550809Y-154200735D01*
X46357902Y-154280640D01*
X46184289Y-154396644D01*
X46147011Y-154433922D01*
X46128856Y-154289790D01*
X45937412Y-154206440D01*
X45733384Y-154162041D01*
X45524616Y-154158298D01*
X45319130Y-154195356D01*
X45124821Y-154271790D01*
X45091144Y-154289790D01*
X45072989Y-154433922D01*
X45035711Y-154396644D01*
X44862098Y-154280640D01*
X44669191Y-154200735D01*
X44464401Y-154160000D01*
X44255599Y-154160000D01*
X44050809Y-154200735D01*
X43891997Y-154266517D01*
X43889494Y-154264463D01*
X43779180Y-154205498D01*
X43659482Y-154169188D01*
X43535000Y-154156928D01*
X42685000Y-154156928D01*
X42560518Y-154169188D01*
X42440820Y-154205498D01*
X42330506Y-154264463D01*
X42233815Y-154343815D01*
X42154463Y-154440506D01*
X42095498Y-154550820D01*
X42059188Y-154670518D01*
X42046928Y-154795000D01*
X36660000Y-154795000D01*
X36660000Y-145601484D01*
X36959074Y-146049080D01*
X37360920Y-146450926D01*
X37833440Y-146766654D01*
X38358477Y-146984131D01*
X38915852Y-147095000D01*
X39484148Y-147095000D01*
X40041523Y-146984131D01*
X40566560Y-146766654D01*
X41039080Y-146450926D01*
X41440926Y-146049080D01*
X41756654Y-145576560D01*
X41974131Y-145051523D01*
X42085000Y-144494148D01*
X42085000Y-143925852D01*
X41974131Y-143368477D01*
X41756654Y-142843440D01*
X41440926Y-142370920D01*
X41039080Y-141969074D01*
X40576518Y-141660000D01*
X114041518Y-141660000D01*
X114033440Y-141663346D01*
X114033440Y-141663346D01*
G37*
X114033440Y-141663346D02*
X113560920Y-141979074D01*
X113159074Y-142380920D01*
X112843346Y-142853440D01*
X112625869Y-143378477D01*
X112515000Y-143935852D01*
X112515000Y-144504148D01*
X112625869Y-145061523D01*
X112843346Y-145586560D01*
X113159074Y-146059080D01*
X113560920Y-146460926D01*
X114033440Y-146776654D01*
X114558477Y-146994131D01*
X115115852Y-147105000D01*
X115684148Y-147105000D01*
X116241523Y-146994131D01*
X116766560Y-146776654D01*
X117239080Y-146460926D01*
X117640926Y-146059080D01*
X117940000Y-145611484D01*
X117940001Y-234443483D01*
X117630926Y-233980920D01*
X117229080Y-233579074D01*
X116756560Y-233263346D01*
X116231523Y-233045869D01*
X115674148Y-232935000D01*
X115105852Y-232935000D01*
X114548477Y-233045869D01*
X114023440Y-233263346D01*
X113550920Y-233579074D01*
X113149074Y-233980920D01*
X112833346Y-234453440D01*
X112615869Y-234978477D01*
X112505000Y-235535852D01*
X112505000Y-236104148D01*
X112615869Y-236661523D01*
X112833346Y-237186560D01*
X113149074Y-237659080D01*
X113550920Y-238060926D01*
X113968583Y-238340000D01*
X40636383Y-238340000D01*
X41039080Y-238070926D01*
X41440926Y-237669080D01*
X41756654Y-237196560D01*
X41974131Y-236671523D01*
X42085000Y-236114148D01*
X42085000Y-235545852D01*
X41974131Y-234988477D01*
X41756654Y-234463440D01*
X41440926Y-233990920D01*
X41039080Y-233589074D01*
X40566560Y-233273346D01*
X40041523Y-233055869D01*
X39484148Y-232945000D01*
X38915852Y-232945000D01*
X38358477Y-233055869D01*
X37833440Y-233273346D01*
X37360920Y-233589074D01*
X36959074Y-233990920D01*
X36660000Y-234438516D01*
X36660000Y-191120000D01*
X67741928Y-191120000D01*
X67754188Y-191244482D01*
X67790498Y-191364180D01*
X67849463Y-191474494D01*
X67928815Y-191571185D01*
X68025506Y-191650537D01*
X68135820Y-191709502D01*
X68255518Y-191745812D01*
X68380000Y-191758072D01*
X68944250Y-191755000D01*
X69103000Y-191596250D01*
X69103000Y-190397000D01*
X69357000Y-190397000D01*
X69357000Y-191596250D01*
X69515750Y-191755000D01*
X70080000Y-191758072D01*
X70204482Y-191745812D01*
X70324180Y-191709502D01*
X70434494Y-191650537D01*
X70531185Y-191571185D01*
X70610537Y-191474494D01*
X70669502Y-191364180D01*
X70693966Y-191283534D01*
X70769731Y-191367588D01*
X71003080Y-191541641D01*
X71265901Y-191666825D01*
X71413110Y-191711476D01*
X71643000Y-191590155D01*
X71643000Y-190397000D01*
X71897000Y-190397000D01*
X71897000Y-191590155D01*
X72126890Y-191711476D01*
X72274099Y-191666825D01*
X72536920Y-191541641D01*
X72770269Y-191367588D01*
X72965178Y-191151355D01*
X73040000Y-191025745D01*
X73114822Y-191151355D01*
X73309731Y-191367588D01*
X73543080Y-191541641D01*
X73805901Y-191666825D01*
X73953110Y-191711476D01*
X74183000Y-191590155D01*
X74183000Y-190397000D01*
X71897000Y-190397000D01*
X71643000Y-190397000D01*
X69357000Y-190397000D01*
X69103000Y-190397000D01*
X67903750Y-190397000D01*
X67745000Y-190555750D01*
X67741928Y-191120000D01*
X36660000Y-191120000D01*
X36660000Y-189420000D01*
X67741928Y-189420000D01*
X67745000Y-189984250D01*
X67903750Y-190143000D01*
X69103000Y-190143000D01*
X69103000Y-188943750D01*
X69357000Y-188943750D01*
X69357000Y-190143000D01*
X71643000Y-190143000D01*
X71643000Y-188949845D01*
X71897000Y-188949845D01*
X71897000Y-190143000D01*
X74183000Y-190143000D01*
X74183000Y-188949845D01*
X73953110Y-188828524D01*
X73805901Y-188873175D01*
X73543080Y-188998359D01*
X73309731Y-189172412D01*
X73114822Y-189388645D01*
X73040000Y-189514255D01*
X72965178Y-189388645D01*
X72770269Y-189172412D01*
X72536920Y-188998359D01*
X72274099Y-188873175D01*
X72126890Y-188828524D01*
X71897000Y-188949845D01*
X71643000Y-188949845D01*
X71413110Y-188828524D01*
X71265901Y-188873175D01*
X71003080Y-188998359D01*
X70769731Y-189172412D01*
X70693966Y-189256466D01*
X70669502Y-189175820D01*
X70610537Y-189065506D01*
X70531185Y-188968815D01*
X70434494Y-188889463D01*
X70324180Y-188830498D01*
X70204482Y-188794188D01*
X70080000Y-188781928D01*
X69515750Y-188785000D01*
X69357000Y-188943750D01*
X69103000Y-188943750D01*
X68944250Y-188785000D01*
X68380000Y-188781928D01*
X68255518Y-188794188D01*
X68135820Y-188830498D01*
X68025506Y-188889463D01*
X67928815Y-188968815D01*
X67849463Y-189065506D01*
X67790498Y-189175820D01*
X67754188Y-189295518D01*
X67741928Y-189420000D01*
X36660000Y-189420000D01*
X36660000Y-154795000D01*
X42046928Y-154795000D01*
X42046928Y-155645000D01*
X42059188Y-155769482D01*
X42095498Y-155889180D01*
X42154463Y-155999494D01*
X42233815Y-156096185D01*
X42330506Y-156175537D01*
X42350001Y-156185957D01*
X42350000Y-166325572D01*
X42346324Y-166362894D01*
X42350000Y-166400216D01*
X42350000Y-166400226D01*
X42360997Y-166511879D01*
X42387514Y-166599294D01*
X42404454Y-166655140D01*
X42475026Y-166787170D01*
X42514871Y-166835720D01*
X42569999Y-166902895D01*
X42599003Y-166926698D01*
X47533169Y-171860865D01*
X47527501Y-171861423D01*
X47313553Y-171926324D01*
X47116377Y-172031716D01*
X47115000Y-172032846D01*
X47113623Y-172031716D01*
X46916447Y-171926324D01*
X46702499Y-171861423D01*
X46535752Y-171845000D01*
X46424248Y-171845000D01*
X46257501Y-171861423D01*
X46043553Y-171926324D01*
X45846377Y-172031716D01*
X45845000Y-172032846D01*
X45843623Y-172031716D01*
X45646447Y-171926324D01*
X45432499Y-171861423D01*
X45265752Y-171845000D01*
X45154248Y-171845000D01*
X44987501Y-171861423D01*
X44773553Y-171926324D01*
X44762379Y-171932297D01*
X44684180Y-171890498D01*
X44564482Y-171854188D01*
X44440000Y-171841928D01*
X43440000Y-171841928D01*
X43315518Y-171854188D01*
X43195820Y-171890498D01*
X43085506Y-171949463D01*
X42988815Y-172028815D01*
X42909463Y-172125506D01*
X42850498Y-172235820D01*
X42814188Y-172355518D01*
X42801928Y-172480000D01*
X42801928Y-173480000D01*
X42814188Y-173604482D01*
X42850498Y-173724180D01*
X42892297Y-173802379D01*
X42886324Y-173813553D01*
X42821423Y-174027501D01*
X42799509Y-174250000D01*
X42821423Y-174472499D01*
X42886324Y-174686447D01*
X42991716Y-174883623D01*
X43133551Y-175056449D01*
X43306377Y-175198284D01*
X43503553Y-175303676D01*
X43717501Y-175368577D01*
X43884248Y-175385000D01*
X43995752Y-175385000D01*
X44162499Y-175368577D01*
X44376447Y-175303676D01*
X44573623Y-175198284D01*
X44575000Y-175197154D01*
X44576377Y-175198284D01*
X44773553Y-175303676D01*
X44987501Y-175368577D01*
X45154248Y-175385000D01*
X45265752Y-175385000D01*
X45432499Y-175368577D01*
X45646447Y-175303676D01*
X45843623Y-175198284D01*
X45853383Y-175190274D01*
X45919794Y-175237123D01*
X46123136Y-175327446D01*
X46178126Y-175344119D01*
X46353000Y-175217954D01*
X46353000Y-174377000D01*
X46337983Y-174377000D01*
X46350491Y-174250000D01*
X46337983Y-174123000D01*
X46353000Y-174123000D01*
X46353000Y-174107983D01*
X46424248Y-174115000D01*
X46535752Y-174115000D01*
X46607000Y-174107983D01*
X46607000Y-174123000D01*
X46622017Y-174123000D01*
X46609509Y-174250000D01*
X46622017Y-174377000D01*
X46607000Y-174377000D01*
X46607000Y-175217954D01*
X46781874Y-175344119D01*
X46836864Y-175327446D01*
X47040206Y-175237123D01*
X47106617Y-175190274D01*
X47116377Y-175198284D01*
X47313553Y-175303676D01*
X47527501Y-175368577D01*
X47694248Y-175385000D01*
X47805752Y-175385000D01*
X47972499Y-175368577D01*
X48186447Y-175303676D01*
X48383623Y-175198284D01*
X48385000Y-175197154D01*
X48386377Y-175198284D01*
X48583553Y-175303676D01*
X48797501Y-175368577D01*
X48964248Y-175385000D01*
X49075752Y-175385000D01*
X49242499Y-175368577D01*
X49456447Y-175303676D01*
X49653623Y-175198284D01*
X49826449Y-175056449D01*
X49968284Y-174883623D01*
X50073676Y-174686447D01*
X50128246Y-174506555D01*
X50841004Y-173793798D01*
X50870001Y-173770001D01*
X50964974Y-173654276D01*
X51035546Y-173522247D01*
X51079003Y-173378986D01*
X51090000Y-173267333D01*
X51090000Y-173267323D01*
X51093676Y-173230000D01*
X51090000Y-173192677D01*
X51090000Y-172945802D01*
X51126063Y-172999774D01*
X51270226Y-173143937D01*
X51439744Y-173257205D01*
X51628102Y-173335226D01*
X51828061Y-173375000D01*
X51890199Y-173375000D01*
X52695794Y-174180595D01*
X52648453Y-174227936D01*
X52535185Y-174397454D01*
X52457164Y-174585812D01*
X52417390Y-174785771D01*
X52417390Y-174989649D01*
X52457164Y-175189608D01*
X52535185Y-175377966D01*
X52648453Y-175547484D01*
X52792616Y-175691647D01*
X52962134Y-175804915D01*
X53150492Y-175882936D01*
X53350451Y-175922710D01*
X53412589Y-175922710D01*
X54450880Y-176961002D01*
X54474679Y-176990001D01*
X54590404Y-177084974D01*
X54722433Y-177155546D01*
X54865694Y-177199003D01*
X54977347Y-177210000D01*
X54977355Y-177210000D01*
X55014680Y-177213676D01*
X55052005Y-177210000D01*
X67795199Y-177210000D01*
X79370197Y-188785000D01*
X79317050Y-188785000D01*
X79098889Y-188806487D01*
X78818966Y-188891401D01*
X78560986Y-189029294D01*
X78334866Y-189214866D01*
X78149294Y-189440986D01*
X78120000Y-189495791D01*
X78090706Y-189440986D01*
X77905134Y-189214866D01*
X77679014Y-189029294D01*
X77421034Y-188891401D01*
X77141111Y-188806487D01*
X76922950Y-188785000D01*
X76777050Y-188785000D01*
X76558889Y-188806487D01*
X76278966Y-188891401D01*
X76020986Y-189029294D01*
X75794866Y-189214866D01*
X75609294Y-189440986D01*
X75574799Y-189505523D01*
X75505178Y-189388645D01*
X75310269Y-189172412D01*
X75076920Y-188998359D01*
X74814099Y-188873175D01*
X74666890Y-188828524D01*
X74437000Y-188949845D01*
X74437000Y-190143000D01*
X74457000Y-190143000D01*
X74457000Y-190397000D01*
X74437000Y-190397000D01*
X74437000Y-191590155D01*
X74666890Y-191711476D01*
X74814099Y-191666825D01*
X75076920Y-191541641D01*
X75310269Y-191367588D01*
X75505178Y-191151355D01*
X75574799Y-191034477D01*
X75609294Y-191099014D01*
X75794866Y-191325134D01*
X76020986Y-191510706D01*
X76278966Y-191648599D01*
X76558889Y-191733513D01*
X76777050Y-191755000D01*
X76922950Y-191755000D01*
X77141111Y-191733513D01*
X77421034Y-191648599D01*
X77679014Y-191510706D01*
X77905134Y-191325134D01*
X78090706Y-191099014D01*
X78120000Y-191044209D01*
X78149294Y-191099014D01*
X78334866Y-191325134D01*
X78560986Y-191510706D01*
X78818966Y-191648599D01*
X79098889Y-191733513D01*
X79317050Y-191755000D01*
X79462950Y-191755000D01*
X79681111Y-191733513D01*
X79961034Y-191648599D01*
X80219014Y-191510706D01*
X80445134Y-191325134D01*
X80630706Y-191099014D01*
X80660000Y-191044209D01*
X80689294Y-191099014D01*
X80874866Y-191325134D01*
X81100986Y-191510706D01*
X81358966Y-191648599D01*
X81638889Y-191733513D01*
X81857050Y-191755000D01*
X82002950Y-191755000D01*
X82221111Y-191733513D01*
X82501034Y-191648599D01*
X82759014Y-191510706D01*
X82985134Y-191325134D01*
X83170706Y-191099014D01*
X83308599Y-190841034D01*
X83393513Y-190561111D01*
X83422185Y-190270000D01*
X83393513Y-189978889D01*
X83308599Y-189698966D01*
X83170706Y-189440986D01*
X82985134Y-189214866D01*
X82759014Y-189029294D01*
X82501034Y-188891401D01*
X82221111Y-188806487D01*
X82002950Y-188785000D01*
X81857050Y-188785000D01*
X81638889Y-188806487D01*
X81564006Y-188829203D01*
X69004801Y-176270000D01*
X106322678Y-176270000D01*
X106360000Y-176273676D01*
X106397322Y-176270000D01*
X106397333Y-176270000D01*
X106508986Y-176259003D01*
X106652247Y-176215546D01*
X106784276Y-176144974D01*
X106900001Y-176050001D01*
X106923804Y-176020997D01*
X108747457Y-174197345D01*
X108758815Y-174211185D01*
X108855506Y-174290537D01*
X108965820Y-174349502D01*
X109085518Y-174385812D01*
X109210000Y-174398072D01*
X110910000Y-174398072D01*
X111034482Y-174385812D01*
X111154180Y-174349502D01*
X111264494Y-174290537D01*
X111361185Y-174211185D01*
X111440537Y-174114494D01*
X111499502Y-174004180D01*
X111535812Y-173884482D01*
X111548072Y-173760000D01*
X111548072Y-172060000D01*
X111535812Y-171935518D01*
X111499502Y-171815820D01*
X111440537Y-171705506D01*
X111361185Y-171608815D01*
X111264494Y-171529463D01*
X111154180Y-171470498D01*
X111085313Y-171449607D01*
X111115134Y-171425134D01*
X111300706Y-171199014D01*
X111438599Y-170941034D01*
X111523513Y-170661111D01*
X111552185Y-170370000D01*
X111523513Y-170078889D01*
X111438599Y-169798966D01*
X111300706Y-169540986D01*
X111115134Y-169314866D01*
X110889014Y-169129294D01*
X110834209Y-169100000D01*
X110889014Y-169070706D01*
X111115134Y-168885134D01*
X111300706Y-168659014D01*
X111438599Y-168401034D01*
X111523513Y-168121111D01*
X111552185Y-167830000D01*
X111523513Y-167538889D01*
X111438599Y-167258966D01*
X111300706Y-167000986D01*
X111115134Y-166774866D01*
X110889014Y-166589294D01*
X110824477Y-166554799D01*
X110941355Y-166485178D01*
X111157588Y-166290269D01*
X111331641Y-166056920D01*
X111456825Y-165794099D01*
X111501476Y-165646890D01*
X111380155Y-165417000D01*
X110187000Y-165417000D01*
X110187000Y-165437000D01*
X109933000Y-165437000D01*
X109933000Y-165417000D01*
X108739845Y-165417000D01*
X108618524Y-165646890D01*
X108663175Y-165794099D01*
X108788359Y-166056920D01*
X108962412Y-166290269D01*
X109178645Y-166485178D01*
X109295523Y-166554799D01*
X109230986Y-166589294D01*
X109004866Y-166774866D01*
X108819294Y-167000986D01*
X108681401Y-167258966D01*
X108596487Y-167538889D01*
X108567815Y-167830000D01*
X108596487Y-168121111D01*
X108681401Y-168401034D01*
X108819294Y-168659014D01*
X109004866Y-168885134D01*
X109230986Y-169070706D01*
X109285791Y-169100000D01*
X109230986Y-169129294D01*
X109004866Y-169314866D01*
X108819294Y-169540986D01*
X108681401Y-169798966D01*
X108596487Y-170078889D01*
X108567815Y-170370000D01*
X108596487Y-170661111D01*
X108681401Y-170941034D01*
X108819294Y-171199014D01*
X109004866Y-171425134D01*
X109034687Y-171449607D01*
X108965820Y-171470498D01*
X108855506Y-171529463D01*
X108758815Y-171608815D01*
X108679463Y-171705506D01*
X108620498Y-171815820D01*
X108584188Y-171935518D01*
X108571928Y-172060000D01*
X108571928Y-172255674D01*
X108535724Y-172275026D01*
X108419999Y-172369999D01*
X108396201Y-172398997D01*
X106045199Y-174750000D01*
X55414802Y-174750000D01*
X52965000Y-172300199D01*
X52965000Y-172238061D01*
X52925226Y-172038102D01*
X52899089Y-171975001D01*
X58574480Y-171975001D01*
X58479294Y-172090986D01*
X58341401Y-172348966D01*
X58256487Y-172628889D01*
X58227815Y-172920000D01*
X58256487Y-173211111D01*
X58341401Y-173491034D01*
X58479294Y-173749014D01*
X58664866Y-173975134D01*
X58890986Y-174160706D01*
X59148966Y-174298599D01*
X59428889Y-174383513D01*
X59647050Y-174405000D01*
X59792950Y-174405000D01*
X60011111Y-174383513D01*
X60291034Y-174298599D01*
X60549014Y-174160706D01*
X60775134Y-173975134D01*
X60960706Y-173749014D01*
X60997595Y-173680000D01*
X82772678Y-173680000D01*
X82810000Y-173683676D01*
X82847322Y-173680000D01*
X82847333Y-173680000D01*
X82958986Y-173669003D01*
X83102247Y-173625546D01*
X83234276Y-173554974D01*
X83350001Y-173460001D01*
X83373804Y-173430997D01*
X93697911Y-163106890D01*
X108618524Y-163106890D01*
X108663175Y-163254099D01*
X108788359Y-163516920D01*
X108962412Y-163750269D01*
X109178645Y-163945178D01*
X109304255Y-164020000D01*
X109178645Y-164094822D01*
X108962412Y-164289731D01*
X108788359Y-164523080D01*
X108663175Y-164785901D01*
X108618524Y-164933110D01*
X108739845Y-165163000D01*
X109933000Y-165163000D01*
X109933000Y-162877000D01*
X110187000Y-162877000D01*
X110187000Y-165163000D01*
X111380155Y-165163000D01*
X111501476Y-164933110D01*
X111456825Y-164785901D01*
X111331641Y-164523080D01*
X111157588Y-164289731D01*
X110941355Y-164094822D01*
X110815745Y-164020000D01*
X110941355Y-163945178D01*
X111157588Y-163750269D01*
X111331641Y-163516920D01*
X111456825Y-163254099D01*
X111501476Y-163106890D01*
X111380155Y-162877000D01*
X110187000Y-162877000D01*
X109933000Y-162877000D01*
X108739845Y-162877000D01*
X108618524Y-163106890D01*
X93697911Y-163106890D01*
X96237911Y-160566890D01*
X108618524Y-160566890D01*
X108663175Y-160714099D01*
X108788359Y-160976920D01*
X108962412Y-161210269D01*
X109178645Y-161405178D01*
X109304255Y-161480000D01*
X109178645Y-161554822D01*
X108962412Y-161749731D01*
X108788359Y-161983080D01*
X108663175Y-162245901D01*
X108618524Y-162393110D01*
X108739845Y-162623000D01*
X109933000Y-162623000D01*
X109933000Y-160337000D01*
X110187000Y-160337000D01*
X110187000Y-162623000D01*
X111380155Y-162623000D01*
X111501476Y-162393110D01*
X111456825Y-162245901D01*
X111331641Y-161983080D01*
X111157588Y-161749731D01*
X110941355Y-161554822D01*
X110815745Y-161480000D01*
X110941355Y-161405178D01*
X111157588Y-161210269D01*
X111331641Y-160976920D01*
X111456825Y-160714099D01*
X111501476Y-160566890D01*
X111380155Y-160337000D01*
X110187000Y-160337000D01*
X109933000Y-160337000D01*
X108739845Y-160337000D01*
X108618524Y-160566890D01*
X96237911Y-160566890D01*
X96951691Y-159853110D01*
X108618524Y-159853110D01*
X108739845Y-160083000D01*
X109933000Y-160083000D01*
X109933000Y-158889186D01*
X110187000Y-158889186D01*
X110187000Y-160083000D01*
X111380155Y-160083000D01*
X111501476Y-159853110D01*
X111456825Y-159705901D01*
X111331641Y-159443080D01*
X111157588Y-159209731D01*
X110941355Y-159014822D01*
X110691252Y-158865843D01*
X110416891Y-158768519D01*
X110187000Y-158889186D01*
X109933000Y-158889186D01*
X109703109Y-158768519D01*
X109428748Y-158865843D01*
X109178645Y-159014822D01*
X108962412Y-159209731D01*
X108788359Y-159443080D01*
X108663175Y-159705901D01*
X108618524Y-159853110D01*
X96951691Y-159853110D01*
X98462814Y-158341988D01*
X98470377Y-158344282D01*
X98566510Y-158363404D01*
X98690991Y-158375664D01*
X98715550Y-158375664D01*
X98740000Y-158378072D01*
X99290000Y-158378072D01*
X99414482Y-158365812D01*
X99415000Y-158365655D01*
X99415518Y-158365812D01*
X99540000Y-158378072D01*
X100540000Y-158378072D01*
X100664482Y-158365812D01*
X100784180Y-158329502D01*
X100894494Y-158270537D01*
X100991185Y-158191185D01*
X101070537Y-158094494D01*
X101129502Y-157984180D01*
X101165812Y-157864482D01*
X101178072Y-157740000D01*
X101178072Y-156240000D01*
X101165812Y-156115518D01*
X101129502Y-155995820D01*
X101070537Y-155885506D01*
X100991185Y-155788815D01*
X100894494Y-155709463D01*
X100800000Y-155658954D01*
X100800000Y-154012250D01*
X100859014Y-153980706D01*
X101085134Y-153795134D01*
X101109607Y-153765313D01*
X101130498Y-153834180D01*
X101189463Y-153944494D01*
X101268815Y-154041185D01*
X101365506Y-154120537D01*
X101475820Y-154179502D01*
X101595518Y-154215812D01*
X101720000Y-154228072D01*
X102284250Y-154225000D01*
X102443000Y-154066250D01*
X102443000Y-152867000D01*
X102697000Y-152867000D01*
X102697000Y-154066250D01*
X102855750Y-154225000D01*
X103420000Y-154228072D01*
X103544482Y-154215812D01*
X103664180Y-154179502D01*
X103774494Y-154120537D01*
X103871185Y-154041185D01*
X103950537Y-153944494D01*
X104009502Y-153834180D01*
X104045812Y-153714482D01*
X104058072Y-153590000D01*
X104055000Y-153025750D01*
X103896250Y-152867000D01*
X102697000Y-152867000D01*
X102443000Y-152867000D01*
X102423000Y-152867000D01*
X102423000Y-152613000D01*
X102443000Y-152613000D01*
X102443000Y-151413750D01*
X102697000Y-151413750D01*
X102697000Y-152613000D01*
X103896250Y-152613000D01*
X104055000Y-152454250D01*
X104058072Y-151890000D01*
X104045812Y-151765518D01*
X104009502Y-151645820D01*
X103950537Y-151535506D01*
X103871185Y-151438815D01*
X103774494Y-151359463D01*
X103664180Y-151300498D01*
X103544482Y-151264188D01*
X103420000Y-151251928D01*
X102855750Y-151255000D01*
X102697000Y-151413750D01*
X102443000Y-151413750D01*
X102284250Y-151255000D01*
X101720000Y-151251928D01*
X101595518Y-151264188D01*
X101475820Y-151300498D01*
X101365506Y-151359463D01*
X101268815Y-151438815D01*
X101189463Y-151535506D01*
X101130498Y-151645820D01*
X101109607Y-151714687D01*
X101085134Y-151684866D01*
X100859014Y-151499294D01*
X100601034Y-151361401D01*
X100321111Y-151276487D01*
X100102950Y-151255000D01*
X99957050Y-151255000D01*
X99738889Y-151276487D01*
X99458966Y-151361401D01*
X99200986Y-151499294D01*
X98974866Y-151684866D01*
X98789294Y-151910986D01*
X98760000Y-151965791D01*
X98730706Y-151910986D01*
X98545134Y-151684866D01*
X98319014Y-151499294D01*
X98061034Y-151361401D01*
X97781111Y-151276487D01*
X97562950Y-151255000D01*
X97417050Y-151255000D01*
X97198889Y-151276487D01*
X96918966Y-151361401D01*
X96660986Y-151499294D01*
X96434866Y-151684866D01*
X96249294Y-151910986D01*
X96111401Y-152168966D01*
X96026487Y-152448889D01*
X95997815Y-152740000D01*
X96026487Y-153031111D01*
X96111401Y-153311034D01*
X96249294Y-153569014D01*
X96434866Y-153795134D01*
X96660986Y-153980706D01*
X96730001Y-154017595D01*
X96730000Y-155702677D01*
X96726324Y-155740000D01*
X96730000Y-155777322D01*
X96730000Y-155777332D01*
X96740997Y-155888985D01*
X96774519Y-155999494D01*
X96784454Y-156032246D01*
X96855026Y-156164276D01*
X96888426Y-156204974D01*
X96949999Y-156280001D01*
X96979003Y-156303804D01*
X97601928Y-156926730D01*
X97601928Y-157053270D01*
X82495199Y-172160000D01*
X60997595Y-172160000D01*
X60960706Y-172090986D01*
X60775134Y-171864866D01*
X60549014Y-171679294D01*
X60494209Y-171650000D01*
X60549014Y-171620706D01*
X60775134Y-171435134D01*
X60960706Y-171209014D01*
X60997595Y-171140000D01*
X75192678Y-171140000D01*
X75230000Y-171143676D01*
X75267322Y-171140000D01*
X75267333Y-171140000D01*
X75378986Y-171129003D01*
X75522247Y-171085546D01*
X75654276Y-171014974D01*
X75770001Y-170920001D01*
X75793804Y-170890997D01*
X88362814Y-158321988D01*
X88370377Y-158324282D01*
X88466510Y-158343404D01*
X88590991Y-158355664D01*
X88615550Y-158355664D01*
X88640000Y-158358072D01*
X89190000Y-158358072D01*
X89314482Y-158345812D01*
X89315000Y-158345655D01*
X89315518Y-158345812D01*
X89440000Y-158358072D01*
X90440000Y-158358072D01*
X90564482Y-158345812D01*
X90684180Y-158309502D01*
X90794494Y-158250537D01*
X90891185Y-158171185D01*
X90970537Y-158074494D01*
X91029502Y-157964180D01*
X91065812Y-157844482D01*
X91078072Y-157720000D01*
X91078072Y-156220000D01*
X91065812Y-156095518D01*
X91029502Y-155975820D01*
X90970537Y-155865506D01*
X90891185Y-155768815D01*
X90794494Y-155689463D01*
X90700000Y-155638954D01*
X90700000Y-154017595D01*
X90769014Y-153980706D01*
X90995134Y-153795134D01*
X91019607Y-153765313D01*
X91040498Y-153834180D01*
X91099463Y-153944494D01*
X91178815Y-154041185D01*
X91275506Y-154120537D01*
X91385820Y-154179502D01*
X91505518Y-154215812D01*
X91630000Y-154228072D01*
X92194250Y-154225000D01*
X92353000Y-154066250D01*
X92353000Y-152867000D01*
X92607000Y-152867000D01*
X92607000Y-154066250D01*
X92765750Y-154225000D01*
X93330000Y-154228072D01*
X93454482Y-154215812D01*
X93574180Y-154179502D01*
X93684494Y-154120537D01*
X93781185Y-154041185D01*
X93860537Y-153944494D01*
X93919502Y-153834180D01*
X93955812Y-153714482D01*
X93968072Y-153590000D01*
X93965000Y-153025750D01*
X93806250Y-152867000D01*
X92607000Y-152867000D01*
X92353000Y-152867000D01*
X92333000Y-152867000D01*
X92333000Y-152613000D01*
X92353000Y-152613000D01*
X92353000Y-151413750D01*
X92607000Y-151413750D01*
X92607000Y-152613000D01*
X93806250Y-152613000D01*
X93965000Y-152454250D01*
X93968072Y-151890000D01*
X93955812Y-151765518D01*
X93919502Y-151645820D01*
X93860537Y-151535506D01*
X93781185Y-151438815D01*
X93684494Y-151359463D01*
X93574180Y-151300498D01*
X93454482Y-151264188D01*
X93330000Y-151251928D01*
X92765750Y-151255000D01*
X92607000Y-151413750D01*
X92353000Y-151413750D01*
X92194250Y-151255000D01*
X91630000Y-151251928D01*
X91505518Y-151264188D01*
X91385820Y-151300498D01*
X91275506Y-151359463D01*
X91178815Y-151438815D01*
X91099463Y-151535506D01*
X91040498Y-151645820D01*
X91019607Y-151714687D01*
X90995134Y-151684866D01*
X90769014Y-151499294D01*
X90511034Y-151361401D01*
X90231111Y-151276487D01*
X90012950Y-151255000D01*
X89867050Y-151255000D01*
X89648889Y-151276487D01*
X89368966Y-151361401D01*
X89110986Y-151499294D01*
X88884866Y-151684866D01*
X88699294Y-151910986D01*
X88670000Y-151965791D01*
X88640706Y-151910986D01*
X88455134Y-151684866D01*
X88229014Y-151499294D01*
X87971034Y-151361401D01*
X87691111Y-151276487D01*
X87472950Y-151255000D01*
X87327050Y-151255000D01*
X87108889Y-151276487D01*
X86828966Y-151361401D01*
X86570986Y-151499294D01*
X86344866Y-151684866D01*
X86159294Y-151910986D01*
X86021401Y-152168966D01*
X85936487Y-152448889D01*
X85907815Y-152740000D01*
X85936487Y-153031111D01*
X86021401Y-153311034D01*
X86159294Y-153569014D01*
X86344866Y-153795134D01*
X86570986Y-153980706D01*
X86640000Y-154017595D01*
X86640001Y-155692668D01*
X86636324Y-155730000D01*
X86640001Y-155767333D01*
X86650998Y-155878986D01*
X86658073Y-155902310D01*
X86694454Y-156022246D01*
X86765026Y-156154276D01*
X86835379Y-156240000D01*
X86860000Y-156270001D01*
X86888998Y-156293799D01*
X87501928Y-156906730D01*
X87501928Y-157033270D01*
X74915199Y-169620000D01*
X60997595Y-169620000D01*
X60960706Y-169550986D01*
X60775134Y-169324866D01*
X60549014Y-169139294D01*
X60494209Y-169110000D01*
X60549014Y-169080706D01*
X60775134Y-168895134D01*
X60960706Y-168669014D01*
X60997595Y-168600000D01*
X67792678Y-168600000D01*
X67830000Y-168603676D01*
X67867322Y-168600000D01*
X67867333Y-168600000D01*
X67978986Y-168589003D01*
X68122247Y-168545546D01*
X68254276Y-168474974D01*
X68370001Y-168380001D01*
X68393804Y-168350997D01*
X78432814Y-158311988D01*
X78440377Y-158314282D01*
X78536510Y-158333404D01*
X78660991Y-158345664D01*
X78685550Y-158345664D01*
X78710000Y-158348072D01*
X79260000Y-158348072D01*
X79384482Y-158335812D01*
X79385000Y-158335655D01*
X79385518Y-158335812D01*
X79510000Y-158348072D01*
X80510000Y-158348072D01*
X80634482Y-158335812D01*
X80754180Y-158299502D01*
X80864494Y-158240537D01*
X80961185Y-158161185D01*
X81040537Y-158064494D01*
X81099502Y-157954180D01*
X81135812Y-157834482D01*
X81148072Y-157710000D01*
X81148072Y-156210000D01*
X81135812Y-156085518D01*
X81099502Y-155965820D01*
X81040537Y-155855506D01*
X80961185Y-155758815D01*
X80864494Y-155679463D01*
X80770000Y-155628954D01*
X80770000Y-153914242D01*
X80915134Y-153795134D01*
X80939607Y-153765313D01*
X80960498Y-153834180D01*
X81019463Y-153944494D01*
X81098815Y-154041185D01*
X81195506Y-154120537D01*
X81305820Y-154179502D01*
X81425518Y-154215812D01*
X81550000Y-154228072D01*
X82114250Y-154225000D01*
X82273000Y-154066250D01*
X82273000Y-152867000D01*
X82527000Y-152867000D01*
X82527000Y-154066250D01*
X82685750Y-154225000D01*
X83250000Y-154228072D01*
X83374482Y-154215812D01*
X83494180Y-154179502D01*
X83604494Y-154120537D01*
X83701185Y-154041185D01*
X83780537Y-153944494D01*
X83839502Y-153834180D01*
X83875812Y-153714482D01*
X83888072Y-153590000D01*
X83885000Y-153025750D01*
X83726250Y-152867000D01*
X82527000Y-152867000D01*
X82273000Y-152867000D01*
X82253000Y-152867000D01*
X82253000Y-152613000D01*
X82273000Y-152613000D01*
X82273000Y-151413750D01*
X82527000Y-151413750D01*
X82527000Y-152613000D01*
X83726250Y-152613000D01*
X83885000Y-152454250D01*
X83888072Y-151890000D01*
X83875812Y-151765518D01*
X83839502Y-151645820D01*
X83780537Y-151535506D01*
X83701185Y-151438815D01*
X83604494Y-151359463D01*
X83494180Y-151300498D01*
X83374482Y-151264188D01*
X83250000Y-151251928D01*
X82685750Y-151255000D01*
X82527000Y-151413750D01*
X82273000Y-151413750D01*
X82114250Y-151255000D01*
X81550000Y-151251928D01*
X81425518Y-151264188D01*
X81305820Y-151300498D01*
X81195506Y-151359463D01*
X81098815Y-151438815D01*
X81019463Y-151535506D01*
X80960498Y-151645820D01*
X80939607Y-151714687D01*
X80915134Y-151684866D01*
X80689014Y-151499294D01*
X80431034Y-151361401D01*
X80151111Y-151276487D01*
X79932950Y-151255000D01*
X79787050Y-151255000D01*
X79568889Y-151276487D01*
X79288966Y-151361401D01*
X79030986Y-151499294D01*
X78804866Y-151684866D01*
X78619294Y-151910986D01*
X78590000Y-151965791D01*
X78560706Y-151910986D01*
X78375134Y-151684866D01*
X78149014Y-151499294D01*
X77891034Y-151361401D01*
X77611111Y-151276487D01*
X77392950Y-151255000D01*
X77247050Y-151255000D01*
X77028889Y-151276487D01*
X76748966Y-151361401D01*
X76490986Y-151499294D01*
X76264866Y-151684866D01*
X76079294Y-151910986D01*
X75941401Y-152168966D01*
X75856487Y-152448889D01*
X75827815Y-152740000D01*
X75856487Y-153031111D01*
X75941401Y-153311034D01*
X76079294Y-153569014D01*
X76264866Y-153795134D01*
X76490986Y-153980706D01*
X76560000Y-154017595D01*
X76560001Y-155532668D01*
X76556324Y-155570000D01*
X76560001Y-155607333D01*
X76570998Y-155718986D01*
X76583080Y-155758815D01*
X76614454Y-155862246D01*
X76685026Y-155994276D01*
X76745784Y-156068309D01*
X76780000Y-156110001D01*
X76808998Y-156133799D01*
X77571928Y-156896730D01*
X77571928Y-157023270D01*
X67515199Y-167080000D01*
X61554801Y-167080000D01*
X68961009Y-159673794D01*
X68990001Y-159650001D01*
X69013795Y-159621008D01*
X69013799Y-159621004D01*
X69084973Y-159534277D01*
X69084974Y-159534276D01*
X69155546Y-159402247D01*
X69199003Y-159258986D01*
X69210000Y-159147333D01*
X69210000Y-159147324D01*
X69213676Y-159110001D01*
X69210000Y-159072678D01*
X69210000Y-158404132D01*
X69250000Y-158408072D01*
X70250000Y-158408072D01*
X70374482Y-158395812D01*
X70494180Y-158359502D01*
X70604494Y-158300537D01*
X70701185Y-158221185D01*
X70780537Y-158124494D01*
X70839502Y-158014180D01*
X70875812Y-157894482D01*
X70888072Y-157770000D01*
X70888072Y-156270000D01*
X70875812Y-156145518D01*
X70839502Y-156025820D01*
X70780537Y-155915506D01*
X70701185Y-155818815D01*
X70604494Y-155739463D01*
X70540000Y-155704990D01*
X70540000Y-154017595D01*
X70609014Y-153980706D01*
X70835134Y-153795134D01*
X70859607Y-153765313D01*
X70880498Y-153834180D01*
X70939463Y-153944494D01*
X71018815Y-154041185D01*
X71115506Y-154120537D01*
X71225820Y-154179502D01*
X71345518Y-154215812D01*
X71470000Y-154228072D01*
X72034250Y-154225000D01*
X72193000Y-154066250D01*
X72193000Y-152867000D01*
X72447000Y-152867000D01*
X72447000Y-154066250D01*
X72605750Y-154225000D01*
X73170000Y-154228072D01*
X73294482Y-154215812D01*
X73414180Y-154179502D01*
X73524494Y-154120537D01*
X73621185Y-154041185D01*
X73700537Y-153944494D01*
X73759502Y-153834180D01*
X73795812Y-153714482D01*
X73808072Y-153590000D01*
X73805000Y-153025750D01*
X73646250Y-152867000D01*
X72447000Y-152867000D01*
X72193000Y-152867000D01*
X72173000Y-152867000D01*
X72173000Y-152613000D01*
X72193000Y-152613000D01*
X72193000Y-151413750D01*
X72447000Y-151413750D01*
X72447000Y-152613000D01*
X73646250Y-152613000D01*
X73805000Y-152454250D01*
X73808072Y-151890000D01*
X73795812Y-151765518D01*
X73759502Y-151645820D01*
X73700537Y-151535506D01*
X73621185Y-151438815D01*
X73524494Y-151359463D01*
X73414180Y-151300498D01*
X73294482Y-151264188D01*
X73170000Y-151251928D01*
X72605750Y-151255000D01*
X72447000Y-151413750D01*
X72193000Y-151413750D01*
X72034250Y-151255000D01*
X71470000Y-151251928D01*
X71345518Y-151264188D01*
X71225820Y-151300498D01*
X71115506Y-151359463D01*
X71018815Y-151438815D01*
X70939463Y-151535506D01*
X70880498Y-151645820D01*
X70859607Y-151714687D01*
X70835134Y-151684866D01*
X70609014Y-151499294D01*
X70351034Y-151361401D01*
X70071111Y-151276487D01*
X69852950Y-151255000D01*
X69707050Y-151255000D01*
X69488889Y-151276487D01*
X69208966Y-151361401D01*
X68950986Y-151499294D01*
X68724866Y-151684866D01*
X68539294Y-151910986D01*
X68510000Y-151965791D01*
X68480706Y-151910986D01*
X68295134Y-151684866D01*
X68069014Y-151499294D01*
X67811034Y-151361401D01*
X67531111Y-151276487D01*
X67312950Y-151255000D01*
X67167050Y-151255000D01*
X66948889Y-151276487D01*
X66668966Y-151361401D01*
X66410986Y-151499294D01*
X66184866Y-151684866D01*
X65999294Y-151910986D01*
X65861401Y-152168966D01*
X65776487Y-152448889D01*
X65747815Y-152740000D01*
X65776487Y-153031111D01*
X65861401Y-153311034D01*
X65999294Y-153569014D01*
X66184866Y-153795134D01*
X66410986Y-153980706D01*
X66480000Y-154017595D01*
X66480001Y-155772668D01*
X66476324Y-155810000D01*
X66480001Y-155847333D01*
X66490998Y-155958986D01*
X66501703Y-155994276D01*
X66534454Y-156102246D01*
X66605026Y-156234276D01*
X66675938Y-156320681D01*
X66700000Y-156350001D01*
X66728998Y-156373799D01*
X67311928Y-156956730D01*
X67311928Y-157270000D01*
X67314336Y-157294450D01*
X67314336Y-157319009D01*
X67326596Y-157443490D01*
X67345718Y-157539623D01*
X67382027Y-157659319D01*
X67419536Y-157749875D01*
X67478502Y-157860192D01*
X67532958Y-157941691D01*
X67612310Y-158038382D01*
X67681618Y-158107690D01*
X67690000Y-158114569D01*
X67690000Y-158795197D01*
X61205000Y-165280199D01*
X61205000Y-165172998D01*
X61040156Y-165172998D01*
X61161476Y-164943110D01*
X61116825Y-164795901D01*
X60991641Y-164533080D01*
X60817588Y-164299731D01*
X60601355Y-164104822D01*
X60475745Y-164030000D01*
X60601355Y-163955178D01*
X60817588Y-163760269D01*
X60991641Y-163526920D01*
X61116825Y-163264099D01*
X61161476Y-163116890D01*
X61040155Y-162887000D01*
X59847000Y-162887000D01*
X59847000Y-165173000D01*
X59867000Y-165173000D01*
X59867000Y-165427000D01*
X59847000Y-165427000D01*
X59847000Y-165447000D01*
X59593000Y-165447000D01*
X59593000Y-165427000D01*
X58399845Y-165427000D01*
X58278524Y-165656890D01*
X58323175Y-165804099D01*
X58448359Y-166066920D01*
X58622412Y-166300269D01*
X58838645Y-166495178D01*
X58955523Y-166564799D01*
X58890986Y-166599294D01*
X58664866Y-166784866D01*
X58479294Y-167010986D01*
X58442405Y-167080000D01*
X52954803Y-167080000D01*
X48991692Y-163116890D01*
X58278524Y-163116890D01*
X58323175Y-163264099D01*
X58448359Y-163526920D01*
X58622412Y-163760269D01*
X58838645Y-163955178D01*
X58964255Y-164030000D01*
X58838645Y-164104822D01*
X58622412Y-164299731D01*
X58448359Y-164533080D01*
X58323175Y-164795901D01*
X58278524Y-164943110D01*
X58399845Y-165173000D01*
X59593000Y-165173000D01*
X59593000Y-162887000D01*
X58399845Y-162887000D01*
X58278524Y-163116890D01*
X48991692Y-163116890D01*
X47620000Y-161745199D01*
X47620000Y-161070000D01*
X58231928Y-161070000D01*
X58244188Y-161194482D01*
X58280498Y-161314180D01*
X58339463Y-161424494D01*
X58418815Y-161521185D01*
X58515506Y-161600537D01*
X58625820Y-161659502D01*
X58706466Y-161683966D01*
X58622412Y-161759731D01*
X58448359Y-161993080D01*
X58323175Y-162255901D01*
X58278524Y-162403110D01*
X58399845Y-162633000D01*
X59593000Y-162633000D01*
X59593000Y-160347000D01*
X59847000Y-160347000D01*
X59847000Y-162633000D01*
X61040155Y-162633000D01*
X61161476Y-162403110D01*
X61116825Y-162255901D01*
X60991641Y-161993080D01*
X60817588Y-161759731D01*
X60733534Y-161683966D01*
X60814180Y-161659502D01*
X60924494Y-161600537D01*
X61021185Y-161521185D01*
X61100537Y-161424494D01*
X61159502Y-161314180D01*
X61195812Y-161194482D01*
X61208072Y-161070000D01*
X61205000Y-160505750D01*
X61046250Y-160347000D01*
X59847000Y-160347000D01*
X59593000Y-160347000D01*
X58393750Y-160347000D01*
X58235000Y-160505750D01*
X58231928Y-161070000D01*
X47620000Y-161070000D01*
X47620000Y-159370000D01*
X58231928Y-159370000D01*
X58235000Y-159934250D01*
X58393750Y-160093000D01*
X59593000Y-160093000D01*
X59593000Y-158893750D01*
X59847000Y-158893750D01*
X59847000Y-160093000D01*
X61046250Y-160093000D01*
X61205000Y-159934250D01*
X61208072Y-159370000D01*
X61195812Y-159245518D01*
X61159502Y-159125820D01*
X61100537Y-159015506D01*
X61021185Y-158918815D01*
X60924494Y-158839463D01*
X60814180Y-158780498D01*
X60694482Y-158744188D01*
X60570000Y-158731928D01*
X60005750Y-158735000D01*
X59847000Y-158893750D01*
X59593000Y-158893750D01*
X59434250Y-158735000D01*
X58870000Y-158731928D01*
X58745518Y-158744188D01*
X58625820Y-158780498D01*
X58515506Y-158839463D01*
X58418815Y-158918815D01*
X58339463Y-159015506D01*
X58280498Y-159125820D01*
X58244188Y-159245518D01*
X58231928Y-159370000D01*
X47620000Y-159370000D01*
X47620000Y-156164371D01*
X47800809Y-156239265D01*
X48005599Y-156280000D01*
X48214401Y-156280000D01*
X48419191Y-156239265D01*
X48612098Y-156159360D01*
X48735000Y-156077240D01*
X48857902Y-156159360D01*
X49050809Y-156239265D01*
X49255599Y-156280000D01*
X49464401Y-156280000D01*
X49669191Y-156239265D01*
X49862098Y-156159360D01*
X50035711Y-156043356D01*
X50183356Y-155895711D01*
X50299360Y-155722098D01*
X50379265Y-155529191D01*
X50420000Y-155324401D01*
X50420000Y-155115599D01*
X50379265Y-154910809D01*
X50299360Y-154717902D01*
X50183356Y-154544289D01*
X50035711Y-154396644D01*
X49862098Y-154280640D01*
X49669191Y-154200735D01*
X49464401Y-154160000D01*
X49255599Y-154160000D01*
X49050809Y-154200735D01*
X48857902Y-154280640D01*
X48735000Y-154362760D01*
X48612098Y-154280640D01*
X48419191Y-154200735D01*
X48214401Y-154160000D01*
X48005599Y-154160000D01*
X47800809Y-154200735D01*
X47607902Y-154280640D01*
X47485000Y-154362760D01*
X47362098Y-154280640D01*
X47169191Y-154200735D01*
X46964401Y-154160000D01*
X46755599Y-154160000D01*
X46550809Y-154200735D01*
X46357902Y-154280640D01*
X46184289Y-154396644D01*
X46147011Y-154433922D01*
X46128856Y-154289790D01*
X45937412Y-154206440D01*
X45733384Y-154162041D01*
X45524616Y-154158298D01*
X45319130Y-154195356D01*
X45124821Y-154271790D01*
X45091144Y-154289790D01*
X45072989Y-154433922D01*
X45035711Y-154396644D01*
X44862098Y-154280640D01*
X44669191Y-154200735D01*
X44464401Y-154160000D01*
X44255599Y-154160000D01*
X44050809Y-154200735D01*
X43891997Y-154266517D01*
X43889494Y-154264463D01*
X43779180Y-154205498D01*
X43659482Y-154169188D01*
X43535000Y-154156928D01*
X42685000Y-154156928D01*
X42560518Y-154169188D01*
X42440820Y-154205498D01*
X42330506Y-154264463D01*
X42233815Y-154343815D01*
X42154463Y-154440506D01*
X42095498Y-154550820D01*
X42059188Y-154670518D01*
X42046928Y-154795000D01*
X36660000Y-154795000D01*
X36660000Y-145601484D01*
X36959074Y-146049080D01*
X37360920Y-146450926D01*
X37833440Y-146766654D01*
X38358477Y-146984131D01*
X38915852Y-147095000D01*
X39484148Y-147095000D01*
X40041523Y-146984131D01*
X40566560Y-146766654D01*
X41039080Y-146450926D01*
X41440926Y-146049080D01*
X41756654Y-145576560D01*
X41974131Y-145051523D01*
X42085000Y-144494148D01*
X42085000Y-143925852D01*
X41974131Y-143368477D01*
X41756654Y-142843440D01*
X41440926Y-142370920D01*
X41039080Y-141969074D01*
X40576518Y-141660000D01*
X114041518Y-141660000D01*
X114033440Y-141663346D01*
G36*
X45800000Y-155202110D02*
G01*
X45800000Y-155209605D01*
X45789605Y-155220000D01*
X45800000Y-155230395D01*
X45800000Y-155237890D01*
X45624143Y-155413748D01*
X45610000Y-155399605D01*
X45595858Y-155413748D01*
X45420000Y-155237890D01*
X45420000Y-155230395D01*
X45430395Y-155220000D01*
X45420000Y-155209605D01*
X45420000Y-155202110D01*
X45595858Y-155026253D01*
X45610000Y-155040395D01*
X45624143Y-155026253D01*
X45800000Y-155202110D01*
X45800000Y-155202110D01*
G37*
X45800000Y-155202110D02*
X45800000Y-155209605D01*
X45789605Y-155220000D01*
X45800000Y-155230395D01*
X45800000Y-155237890D01*
X45624143Y-155413748D01*
X45610000Y-155399605D01*
X45595858Y-155413748D01*
X45420000Y-155237890D01*
X45420000Y-155230395D01*
X45430395Y-155220000D01*
X45420000Y-155209605D01*
X45420000Y-155202110D01*
X45595858Y-155026253D01*
X45610000Y-155040395D01*
X45624143Y-155026253D01*
X45800000Y-155202110D01*
M02*
