M48
; DRILL file {KiCad (5.1.2)-2} date 09/09/2021 11:32:25
; FORMAT={-:-/ absolute / metric / decimal}
; #@! TF.CreationDate,2021-09-09T11:32:25-03:00
; #@! TF.GenerationSoftware,Kicad,Pcbnew,(5.1.2)-2
FMAT,2
METRIC
T1C0.400
T2C0.500
T3C0.650
T4C1.000
T5C2.700
%
G90
G05
T1
X51.462Y-171.215
X51.93Y-172.34
X53.452Y-174.888
T2
X43.11Y-155.22
X44.36Y-155.22
X45.61Y-155.22
X46.86Y-155.22
X48.11Y-155.22
X49.36Y-155.22
T3
X43.94Y-172.98
X43.94Y-174.25
X45.21Y-172.98
X45.21Y-174.25
X46.48Y-172.98
X46.48Y-174.25
X47.75Y-172.98
X47.75Y-174.25
X49.02Y-172.98
X49.02Y-174.25
T4
X67.24Y-152.74
X69.78Y-152.74
X72.32Y-152.74
X97.49Y-152.74
X100.03Y-152.74
X102.57Y-152.74
X87.4Y-152.74
X89.94Y-152.74
X92.48Y-152.74
X77.32Y-152.74
X79.86Y-152.74
X82.4Y-152.74
X59.72Y-160.22
X59.72Y-162.76
X59.72Y-165.3
X59.72Y-167.84
X59.72Y-170.38
X59.72Y-172.92
X69.23Y-190.27
X71.77Y-190.27
X74.31Y-190.27
X76.85Y-190.27
X79.39Y-190.27
X81.93Y-190.27
X110.06Y-160.21
X110.06Y-162.75
X110.06Y-165.29
X110.06Y-167.83
X110.06Y-170.37
X110.06Y-172.91
T5
X115.39Y-235.82
X39.2Y-235.83
X39.2Y-144.21
X115.4Y-144.22
T0
M30
