G04 #@! TF.GenerationSoftware,KiCad,Pcbnew,(5.1.2)-2*
G04 #@! TF.CreationDate,2022-01-19T07:22:50-03:00*
G04 #@! TF.ProjectId,MAG_Plus,4d41475f-506c-4757-932e-6b696361645f,rev?*
G04 #@! TF.SameCoordinates,Original*
G04 #@! TF.FileFunction,Copper,L2,Bot*
G04 #@! TF.FilePolarity,Positive*
%FSLAX46Y46*%
G04 Gerber Fmt 4.6, Leading zero omitted, Abs format (unit mm)*
G04 Created by KiCad (PCBNEW (5.1.2)-2) date 2022-01-19 07:22:50*
%MOMM*%
%LPD*%
G04 APERTURE LIST*
%ADD10C,9.000000*%
%ADD11C,4.500000*%
%ADD12C,3.200000*%
%ADD13R,2.200000X3.100000*%
%ADD14R,0.800000X1.500000*%
%ADD15R,1.000000X2.510000*%
%ADD16R,1.000000X1.500000*%
%ADD17C,0.500000*%
%ADD18C,0.100000*%
%ADD19R,0.600000X0.400000*%
%ADD20R,0.450000X1.450000*%
%ADD21C,0.800000*%
%ADD22C,0.250000*%
%ADD23C,0.254000*%
G04 APERTURE END LIST*
D10*
X44500000Y-23000000D03*
D11*
X15260000Y-22800000D03*
X106760000Y-83800000D03*
X15260000Y-83810000D03*
X106760000Y-22800000D03*
D12*
X96260000Y-84610000D03*
X53670000Y-21990000D03*
X53670000Y-84610000D03*
X96260000Y-21990000D03*
D13*
X52285000Y-75725000D03*
X43535000Y-75725000D03*
D14*
X49785000Y-78475000D03*
X48535000Y-78475000D03*
X47285000Y-78475000D03*
X46035000Y-78475000D03*
D15*
X68340000Y-66465000D03*
X63260000Y-66465000D03*
X58180000Y-66465000D03*
X53100000Y-66465000D03*
X65800000Y-63155000D03*
X60720000Y-63155000D03*
X55640000Y-63155000D03*
X65760000Y-43485000D03*
X60680000Y-43485000D03*
X55600000Y-43485000D03*
X68300000Y-40175000D03*
X63220000Y-40175000D03*
X58140000Y-40175000D03*
X53060000Y-40175000D03*
D16*
X67010000Y-36990000D03*
D17*
X68310000Y-36990000D03*
D18*
G36*
X68310000Y-36240602D02*
G01*
X68334534Y-36240602D01*
X68383365Y-36245412D01*
X68431490Y-36254984D01*
X68478445Y-36269228D01*
X68523778Y-36288005D01*
X68567051Y-36311136D01*
X68607850Y-36338396D01*
X68645779Y-36369524D01*
X68680476Y-36404221D01*
X68711604Y-36442150D01*
X68738864Y-36482949D01*
X68761995Y-36526222D01*
X68780772Y-36571555D01*
X68795016Y-36618510D01*
X68804588Y-36666635D01*
X68809398Y-36715466D01*
X68809398Y-36740000D01*
X68810000Y-36740000D01*
X68810000Y-37240000D01*
X68809398Y-37240000D01*
X68809398Y-37264534D01*
X68804588Y-37313365D01*
X68795016Y-37361490D01*
X68780772Y-37408445D01*
X68761995Y-37453778D01*
X68738864Y-37497051D01*
X68711604Y-37537850D01*
X68680476Y-37575779D01*
X68645779Y-37610476D01*
X68607850Y-37641604D01*
X68567051Y-37668864D01*
X68523778Y-37691995D01*
X68478445Y-37710772D01*
X68431490Y-37725016D01*
X68383365Y-37734588D01*
X68334534Y-37739398D01*
X68310000Y-37739398D01*
X68310000Y-37740000D01*
X67760000Y-37740000D01*
X67760000Y-36240000D01*
X68310000Y-36240000D01*
X68310000Y-36240602D01*
X68310000Y-36240602D01*
G37*
D17*
X65710000Y-36990000D03*
D18*
G36*
X66260000Y-37740000D02*
G01*
X65710000Y-37740000D01*
X65710000Y-37739398D01*
X65685466Y-37739398D01*
X65636635Y-37734588D01*
X65588510Y-37725016D01*
X65541555Y-37710772D01*
X65496222Y-37691995D01*
X65452949Y-37668864D01*
X65412150Y-37641604D01*
X65374221Y-37610476D01*
X65339524Y-37575779D01*
X65308396Y-37537850D01*
X65281136Y-37497051D01*
X65258005Y-37453778D01*
X65239228Y-37408445D01*
X65224984Y-37361490D01*
X65215412Y-37313365D01*
X65210602Y-37264534D01*
X65210602Y-37240000D01*
X65210000Y-37240000D01*
X65210000Y-36740000D01*
X65210602Y-36740000D01*
X65210602Y-36715466D01*
X65215412Y-36666635D01*
X65224984Y-36618510D01*
X65239228Y-36571555D01*
X65258005Y-36526222D01*
X65281136Y-36482949D01*
X65308396Y-36442150D01*
X65339524Y-36404221D01*
X65374221Y-36369524D01*
X65412150Y-36338396D01*
X65452949Y-36311136D01*
X65496222Y-36288005D01*
X65541555Y-36269228D01*
X65588510Y-36254984D01*
X65636635Y-36245412D01*
X65685466Y-36240602D01*
X65710000Y-36240602D01*
X65710000Y-36240000D01*
X66260000Y-36240000D01*
X66260000Y-37740000D01*
X66260000Y-37740000D01*
G37*
D17*
X65690000Y-34090000D03*
D18*
G36*
X66240000Y-34840000D02*
G01*
X65690000Y-34840000D01*
X65690000Y-34839398D01*
X65665466Y-34839398D01*
X65616635Y-34834588D01*
X65568510Y-34825016D01*
X65521555Y-34810772D01*
X65476222Y-34791995D01*
X65432949Y-34768864D01*
X65392150Y-34741604D01*
X65354221Y-34710476D01*
X65319524Y-34675779D01*
X65288396Y-34637850D01*
X65261136Y-34597051D01*
X65238005Y-34553778D01*
X65219228Y-34508445D01*
X65204984Y-34461490D01*
X65195412Y-34413365D01*
X65190602Y-34364534D01*
X65190602Y-34340000D01*
X65190000Y-34340000D01*
X65190000Y-33840000D01*
X65190602Y-33840000D01*
X65190602Y-33815466D01*
X65195412Y-33766635D01*
X65204984Y-33718510D01*
X65219228Y-33671555D01*
X65238005Y-33626222D01*
X65261136Y-33582949D01*
X65288396Y-33542150D01*
X65319524Y-33504221D01*
X65354221Y-33469524D01*
X65392150Y-33438396D01*
X65432949Y-33411136D01*
X65476222Y-33388005D01*
X65521555Y-33369228D01*
X65568510Y-33354984D01*
X65616635Y-33345412D01*
X65665466Y-33340602D01*
X65690000Y-33340602D01*
X65690000Y-33340000D01*
X66240000Y-33340000D01*
X66240000Y-34840000D01*
X66240000Y-34840000D01*
G37*
D17*
X68290000Y-34090000D03*
D18*
G36*
X68290000Y-33340602D02*
G01*
X68314534Y-33340602D01*
X68363365Y-33345412D01*
X68411490Y-33354984D01*
X68458445Y-33369228D01*
X68503778Y-33388005D01*
X68547051Y-33411136D01*
X68587850Y-33438396D01*
X68625779Y-33469524D01*
X68660476Y-33504221D01*
X68691604Y-33542150D01*
X68718864Y-33582949D01*
X68741995Y-33626222D01*
X68760772Y-33671555D01*
X68775016Y-33718510D01*
X68784588Y-33766635D01*
X68789398Y-33815466D01*
X68789398Y-33840000D01*
X68790000Y-33840000D01*
X68790000Y-34340000D01*
X68789398Y-34340000D01*
X68789398Y-34364534D01*
X68784588Y-34413365D01*
X68775016Y-34461490D01*
X68760772Y-34508445D01*
X68741995Y-34553778D01*
X68718864Y-34597051D01*
X68691604Y-34637850D01*
X68660476Y-34675779D01*
X68625779Y-34710476D01*
X68587850Y-34741604D01*
X68547051Y-34768864D01*
X68503778Y-34791995D01*
X68458445Y-34810772D01*
X68411490Y-34825016D01*
X68363365Y-34834588D01*
X68314534Y-34839398D01*
X68290000Y-34839398D01*
X68290000Y-34840000D01*
X67740000Y-34840000D01*
X67740000Y-33340000D01*
X68290000Y-33340000D01*
X68290000Y-33340602D01*
X68290000Y-33340602D01*
G37*
D16*
X66990000Y-34090000D03*
D19*
X68370000Y-68740000D03*
X68370000Y-69640000D03*
X63250000Y-69650000D03*
X63250000Y-68750000D03*
D16*
X59430000Y-37000000D03*
D17*
X60730000Y-37000000D03*
D18*
G36*
X60730000Y-36250602D02*
G01*
X60754534Y-36250602D01*
X60803365Y-36255412D01*
X60851490Y-36264984D01*
X60898445Y-36279228D01*
X60943778Y-36298005D01*
X60987051Y-36321136D01*
X61027850Y-36348396D01*
X61065779Y-36379524D01*
X61100476Y-36414221D01*
X61131604Y-36452150D01*
X61158864Y-36492949D01*
X61181995Y-36536222D01*
X61200772Y-36581555D01*
X61215016Y-36628510D01*
X61224588Y-36676635D01*
X61229398Y-36725466D01*
X61229398Y-36750000D01*
X61230000Y-36750000D01*
X61230000Y-37250000D01*
X61229398Y-37250000D01*
X61229398Y-37274534D01*
X61224588Y-37323365D01*
X61215016Y-37371490D01*
X61200772Y-37418445D01*
X61181995Y-37463778D01*
X61158864Y-37507051D01*
X61131604Y-37547850D01*
X61100476Y-37585779D01*
X61065779Y-37620476D01*
X61027850Y-37651604D01*
X60987051Y-37678864D01*
X60943778Y-37701995D01*
X60898445Y-37720772D01*
X60851490Y-37735016D01*
X60803365Y-37744588D01*
X60754534Y-37749398D01*
X60730000Y-37749398D01*
X60730000Y-37750000D01*
X60180000Y-37750000D01*
X60180000Y-36250000D01*
X60730000Y-36250000D01*
X60730000Y-36250602D01*
X60730000Y-36250602D01*
G37*
D17*
X58130000Y-37000000D03*
D18*
G36*
X58680000Y-37750000D02*
G01*
X58130000Y-37750000D01*
X58130000Y-37749398D01*
X58105466Y-37749398D01*
X58056635Y-37744588D01*
X58008510Y-37735016D01*
X57961555Y-37720772D01*
X57916222Y-37701995D01*
X57872949Y-37678864D01*
X57832150Y-37651604D01*
X57794221Y-37620476D01*
X57759524Y-37585779D01*
X57728396Y-37547850D01*
X57701136Y-37507051D01*
X57678005Y-37463778D01*
X57659228Y-37418445D01*
X57644984Y-37371490D01*
X57635412Y-37323365D01*
X57630602Y-37274534D01*
X57630602Y-37250000D01*
X57630000Y-37250000D01*
X57630000Y-36750000D01*
X57630602Y-36750000D01*
X57630602Y-36725466D01*
X57635412Y-36676635D01*
X57644984Y-36628510D01*
X57659228Y-36581555D01*
X57678005Y-36536222D01*
X57701136Y-36492949D01*
X57728396Y-36452150D01*
X57759524Y-36414221D01*
X57794221Y-36379524D01*
X57832150Y-36348396D01*
X57872949Y-36321136D01*
X57916222Y-36298005D01*
X57961555Y-36279228D01*
X58008510Y-36264984D01*
X58056635Y-36255412D01*
X58105466Y-36250602D01*
X58130000Y-36250602D01*
X58130000Y-36250000D01*
X58680000Y-36250000D01*
X58680000Y-37750000D01*
X58680000Y-37750000D01*
G37*
D17*
X58150000Y-31250000D03*
D18*
G36*
X58700000Y-32000000D02*
G01*
X58150000Y-32000000D01*
X58150000Y-31999398D01*
X58125466Y-31999398D01*
X58076635Y-31994588D01*
X58028510Y-31985016D01*
X57981555Y-31970772D01*
X57936222Y-31951995D01*
X57892949Y-31928864D01*
X57852150Y-31901604D01*
X57814221Y-31870476D01*
X57779524Y-31835779D01*
X57748396Y-31797850D01*
X57721136Y-31757051D01*
X57698005Y-31713778D01*
X57679228Y-31668445D01*
X57664984Y-31621490D01*
X57655412Y-31573365D01*
X57650602Y-31524534D01*
X57650602Y-31500000D01*
X57650000Y-31500000D01*
X57650000Y-31000000D01*
X57650602Y-31000000D01*
X57650602Y-30975466D01*
X57655412Y-30926635D01*
X57664984Y-30878510D01*
X57679228Y-30831555D01*
X57698005Y-30786222D01*
X57721136Y-30742949D01*
X57748396Y-30702150D01*
X57779524Y-30664221D01*
X57814221Y-30629524D01*
X57852150Y-30598396D01*
X57892949Y-30571136D01*
X57936222Y-30548005D01*
X57981555Y-30529228D01*
X58028510Y-30514984D01*
X58076635Y-30505412D01*
X58125466Y-30500602D01*
X58150000Y-30500602D01*
X58150000Y-30500000D01*
X58700000Y-30500000D01*
X58700000Y-32000000D01*
X58700000Y-32000000D01*
G37*
D17*
X60750000Y-31250000D03*
D18*
G36*
X60750000Y-30500602D02*
G01*
X60774534Y-30500602D01*
X60823365Y-30505412D01*
X60871490Y-30514984D01*
X60918445Y-30529228D01*
X60963778Y-30548005D01*
X61007051Y-30571136D01*
X61047850Y-30598396D01*
X61085779Y-30629524D01*
X61120476Y-30664221D01*
X61151604Y-30702150D01*
X61178864Y-30742949D01*
X61201995Y-30786222D01*
X61220772Y-30831555D01*
X61235016Y-30878510D01*
X61244588Y-30926635D01*
X61249398Y-30975466D01*
X61249398Y-31000000D01*
X61250000Y-31000000D01*
X61250000Y-31500000D01*
X61249398Y-31500000D01*
X61249398Y-31524534D01*
X61244588Y-31573365D01*
X61235016Y-31621490D01*
X61220772Y-31668445D01*
X61201995Y-31713778D01*
X61178864Y-31757051D01*
X61151604Y-31797850D01*
X61120476Y-31835779D01*
X61085779Y-31870476D01*
X61047850Y-31901604D01*
X61007051Y-31928864D01*
X60963778Y-31951995D01*
X60918445Y-31970772D01*
X60871490Y-31985016D01*
X60823365Y-31994588D01*
X60774534Y-31999398D01*
X60750000Y-31999398D01*
X60750000Y-32000000D01*
X60200000Y-32000000D01*
X60200000Y-30500000D01*
X60750000Y-30500000D01*
X60750000Y-30500602D01*
X60750000Y-30500602D01*
G37*
D16*
X59450000Y-31250000D03*
X59410000Y-34130000D03*
D17*
X60710000Y-34130000D03*
D18*
G36*
X60710000Y-33380602D02*
G01*
X60734534Y-33380602D01*
X60783365Y-33385412D01*
X60831490Y-33394984D01*
X60878445Y-33409228D01*
X60923778Y-33428005D01*
X60967051Y-33451136D01*
X61007850Y-33478396D01*
X61045779Y-33509524D01*
X61080476Y-33544221D01*
X61111604Y-33582150D01*
X61138864Y-33622949D01*
X61161995Y-33666222D01*
X61180772Y-33711555D01*
X61195016Y-33758510D01*
X61204588Y-33806635D01*
X61209398Y-33855466D01*
X61209398Y-33880000D01*
X61210000Y-33880000D01*
X61210000Y-34380000D01*
X61209398Y-34380000D01*
X61209398Y-34404534D01*
X61204588Y-34453365D01*
X61195016Y-34501490D01*
X61180772Y-34548445D01*
X61161995Y-34593778D01*
X61138864Y-34637051D01*
X61111604Y-34677850D01*
X61080476Y-34715779D01*
X61045779Y-34750476D01*
X61007850Y-34781604D01*
X60967051Y-34808864D01*
X60923778Y-34831995D01*
X60878445Y-34850772D01*
X60831490Y-34865016D01*
X60783365Y-34874588D01*
X60734534Y-34879398D01*
X60710000Y-34879398D01*
X60710000Y-34880000D01*
X60160000Y-34880000D01*
X60160000Y-33380000D01*
X60710000Y-33380000D01*
X60710000Y-33380602D01*
X60710000Y-33380602D01*
G37*
D17*
X58110000Y-34130000D03*
D18*
G36*
X58660000Y-34880000D02*
G01*
X58110000Y-34880000D01*
X58110000Y-34879398D01*
X58085466Y-34879398D01*
X58036635Y-34874588D01*
X57988510Y-34865016D01*
X57941555Y-34850772D01*
X57896222Y-34831995D01*
X57852949Y-34808864D01*
X57812150Y-34781604D01*
X57774221Y-34750476D01*
X57739524Y-34715779D01*
X57708396Y-34677850D01*
X57681136Y-34637051D01*
X57658005Y-34593778D01*
X57639228Y-34548445D01*
X57624984Y-34501490D01*
X57615412Y-34453365D01*
X57610602Y-34404534D01*
X57610602Y-34380000D01*
X57610000Y-34380000D01*
X57610000Y-33880000D01*
X57610602Y-33880000D01*
X57610602Y-33855466D01*
X57615412Y-33806635D01*
X57624984Y-33758510D01*
X57639228Y-33711555D01*
X57658005Y-33666222D01*
X57681136Y-33622949D01*
X57708396Y-33582150D01*
X57739524Y-33544221D01*
X57774221Y-33509524D01*
X57812150Y-33478396D01*
X57852949Y-33451136D01*
X57896222Y-33428005D01*
X57941555Y-33409228D01*
X57988510Y-33394984D01*
X58036635Y-33385412D01*
X58085466Y-33380602D01*
X58110000Y-33380602D01*
X58110000Y-33380000D01*
X58660000Y-33380000D01*
X58660000Y-34880000D01*
X58660000Y-34880000D01*
G37*
D20*
X61745000Y-50880000D03*
X61095000Y-50880000D03*
X60445000Y-50880000D03*
X59795000Y-50880000D03*
X59795000Y-55280000D03*
X60445000Y-55280000D03*
X61095000Y-55280000D03*
X61745000Y-55280000D03*
D21*
X64059998Y-70850000D03*
X65159998Y-68550000D03*
X50110000Y-81950000D03*
X61560000Y-69000000D03*
X68350000Y-45100000D03*
X62760000Y-31260000D03*
X62700000Y-34010000D03*
X69420000Y-32980000D03*
X62700000Y-28670000D03*
X70634990Y-35630000D03*
X56140000Y-35330000D03*
X57560000Y-42600000D03*
D22*
X68370000Y-66495000D02*
X68340000Y-66465000D01*
X68370000Y-68740000D02*
X68370000Y-66495000D01*
X67590000Y-66465000D02*
X68340000Y-66465000D01*
X66009999Y-64884999D02*
X67590000Y-66465000D01*
X60109997Y-64884999D02*
X66009999Y-64884999D01*
X59490000Y-64265002D02*
X60109997Y-64884999D01*
X59490000Y-60550000D02*
X59490000Y-64265002D01*
X61095000Y-54305000D02*
X61730000Y-53670000D01*
X61095000Y-55280000D02*
X61095000Y-54305000D01*
X61730000Y-53670000D02*
X62640000Y-53670000D01*
X62640000Y-53670000D02*
X63270000Y-54300000D01*
X63270000Y-54300000D02*
X63270000Y-56770000D01*
X63270000Y-56770000D02*
X59490000Y-60550000D01*
X54084997Y-80825001D02*
X63659999Y-71249999D01*
X63659999Y-71249999D02*
X64059998Y-70850000D01*
X49885001Y-80825001D02*
X54084997Y-80825001D01*
X48535000Y-78475000D02*
X48535000Y-79475000D01*
X48535000Y-79475000D02*
X49885001Y-80825001D01*
X65959998Y-67750000D02*
X65159998Y-68550000D01*
X67360000Y-67750000D02*
X65959998Y-67750000D01*
X68340000Y-66465000D02*
X68340000Y-66770000D01*
X68340000Y-66770000D02*
X67360000Y-67750000D01*
X63250000Y-66475000D02*
X63260000Y-66465000D01*
X63250000Y-68750000D02*
X63250000Y-66475000D01*
X59039989Y-64451402D02*
X59039989Y-59910011D01*
X63260000Y-66465000D02*
X61053587Y-66465000D01*
X61745000Y-56255000D02*
X61745000Y-55280000D01*
X61053587Y-66465000D02*
X59039989Y-64451402D01*
X61745000Y-57205000D02*
X61745000Y-56255000D01*
X59039989Y-59910011D02*
X61745000Y-57205000D01*
X50110000Y-81950000D02*
X50060000Y-82000000D01*
X47285000Y-80625000D02*
X47285000Y-78475000D01*
X48660000Y-82000000D02*
X47285000Y-80625000D01*
X50060000Y-82000000D02*
X48660000Y-82000000D01*
X63260000Y-66465000D02*
X63260000Y-67220000D01*
X61560000Y-68920000D02*
X61560000Y-69000000D01*
X63260000Y-67220000D02*
X61560000Y-68920000D01*
X68350000Y-40225000D02*
X68300000Y-40175000D01*
X68350000Y-45100000D02*
X68350000Y-40225000D01*
X60750000Y-31250000D02*
X62750000Y-31250000D01*
X62750000Y-31250000D02*
X62760000Y-31260000D01*
X60830000Y-34010000D02*
X60710000Y-34130000D01*
X62700000Y-34010000D02*
X60830000Y-34010000D01*
X68290000Y-34090000D02*
X68310000Y-34090000D01*
X68310000Y-34090000D02*
X69420000Y-32980000D01*
X60750000Y-30620000D02*
X60750000Y-31250000D01*
X62700000Y-28670000D02*
X60750000Y-30620000D01*
X70234991Y-35230001D02*
X70634990Y-35630000D01*
X69094990Y-34090000D02*
X70234991Y-35230001D01*
X68290000Y-34090000D02*
X69094990Y-34090000D01*
X58130000Y-40165000D02*
X58140000Y-40175000D01*
X58130000Y-37000000D02*
X58130000Y-40165000D01*
X58150000Y-34090000D02*
X58110000Y-34130000D01*
X58150000Y-31250000D02*
X58150000Y-34090000D01*
X65690000Y-36970000D02*
X65710000Y-36990000D01*
X65690000Y-34090000D02*
X65690000Y-36970000D01*
X65710000Y-43435000D02*
X65760000Y-43485000D01*
X65710000Y-36990000D02*
X65710000Y-43435000D01*
X63220000Y-41680000D02*
X63220000Y-40175000D01*
X63220000Y-41695000D02*
X63220000Y-41680000D01*
X65010000Y-43485000D02*
X63220000Y-41695000D01*
X65760000Y-43485000D02*
X65010000Y-43485000D01*
X58110000Y-34130000D02*
X57340000Y-34130000D01*
X57340000Y-34130000D02*
X56140000Y-35330000D01*
X58140000Y-40175000D02*
X58140000Y-42020000D01*
X57959999Y-42200001D02*
X57560000Y-42600000D01*
X58140000Y-42020000D02*
X57959999Y-42200001D01*
X58110000Y-33282408D02*
X58712408Y-32680000D01*
X58110000Y-34130000D02*
X58110000Y-33282408D01*
X64280000Y-32680000D02*
X65690000Y-34090000D01*
X58712408Y-32680000D02*
X64280000Y-32680000D01*
X68360000Y-69650000D02*
X68370000Y-69640000D01*
X63250000Y-69650000D02*
X68360000Y-69650000D01*
X61745000Y-48255000D02*
X61745000Y-50880000D01*
X65760000Y-43485000D02*
X65760000Y-44240000D01*
X65760000Y-44240000D02*
X61745000Y-48255000D01*
X49785000Y-79225000D02*
X49785000Y-78475000D01*
X63250000Y-69650000D02*
X63150000Y-69650000D01*
X59995000Y-72805000D02*
X59955000Y-72805000D01*
X59955000Y-72805000D02*
X52960000Y-79800000D01*
X63150000Y-69650000D02*
X59995000Y-72805000D01*
X52960000Y-79800000D02*
X50360000Y-79800000D01*
X50360000Y-79800000D02*
X49785000Y-79225000D01*
X65690000Y-33242408D02*
X65690000Y-34090000D01*
X66712408Y-32220000D02*
X65690000Y-33242408D01*
X70260000Y-32220000D02*
X66712408Y-32220000D01*
X71360000Y-33320000D02*
X70260000Y-32220000D01*
X71360000Y-67200000D02*
X71360000Y-33320000D01*
X68370000Y-69640000D02*
X68920000Y-69640000D01*
X68920000Y-69640000D02*
X71360000Y-67200000D01*
X66990000Y-34549636D02*
X67900364Y-35460000D01*
X66990000Y-34090000D02*
X66990000Y-34549636D01*
X67900364Y-35460000D02*
X68790000Y-35460000D01*
X68790000Y-35460000D02*
X69430000Y-36100000D01*
X69430000Y-36100000D02*
X69430000Y-56360000D01*
X65800000Y-59990000D02*
X65800000Y-63155000D01*
X69430000Y-56360000D02*
X65800000Y-59990000D01*
X67010000Y-36990000D02*
X67010000Y-53970000D01*
X60720000Y-60260000D02*
X60720000Y-63155000D01*
X67010000Y-53970000D02*
X60720000Y-60260000D01*
X61095000Y-48315000D02*
X61095000Y-50880000D01*
X59470000Y-46690000D02*
X61095000Y-48315000D01*
X59470000Y-37110000D02*
X59470000Y-46690000D01*
X59430000Y-37000000D02*
X59580000Y-37000000D01*
X59580000Y-37000000D02*
X59470000Y-37110000D01*
X59450000Y-30250000D02*
X58440000Y-29240000D01*
X59450000Y-31250000D02*
X59450000Y-30250000D01*
X58440000Y-29240000D02*
X57140000Y-29240000D01*
X57140000Y-29240000D02*
X54400000Y-31980000D01*
X59795000Y-49905000D02*
X59795000Y-50880000D01*
X54400000Y-44510000D02*
X59795000Y-49905000D01*
X54400000Y-31980000D02*
X54400000Y-44510000D01*
X60445000Y-49905000D02*
X60445000Y-50880000D01*
X59410000Y-35130000D02*
X59000000Y-35540000D01*
X59000000Y-35540000D02*
X57420000Y-35540000D01*
X60445000Y-48945000D02*
X60445000Y-49905000D01*
X57420000Y-35540000D02*
X56820000Y-36140000D01*
X56820000Y-36140000D02*
X56820000Y-45320000D01*
X59410000Y-34130000D02*
X59410000Y-35130000D01*
X56820000Y-45320000D02*
X60445000Y-48945000D01*
D23*
G36*
X109300000Y-21408516D02*
G01*
X109000926Y-20960920D01*
X108599080Y-20559074D01*
X108126560Y-20243346D01*
X107601523Y-20025869D01*
X107044148Y-19915000D01*
X106475852Y-19915000D01*
X105918477Y-20025869D01*
X105393440Y-20243346D01*
X104920920Y-20559074D01*
X104519074Y-20960920D01*
X104203346Y-21433440D01*
X103985869Y-21958477D01*
X103875000Y-22515852D01*
X103875000Y-23084148D01*
X103985869Y-23641523D01*
X104203346Y-24166560D01*
X104519074Y-24639080D01*
X104920920Y-25040926D01*
X105393440Y-25356654D01*
X105918477Y-25574131D01*
X106475852Y-25685000D01*
X107044148Y-25685000D01*
X107601523Y-25574131D01*
X108126560Y-25356654D01*
X108599080Y-25040926D01*
X109000926Y-24639080D01*
X109300000Y-24191484D01*
X109300001Y-82408517D01*
X109000926Y-81960920D01*
X108599080Y-81559074D01*
X108126560Y-81243346D01*
X107601523Y-81025869D01*
X107044148Y-80915000D01*
X106475852Y-80915000D01*
X105918477Y-81025869D01*
X105393440Y-81243346D01*
X104920920Y-81559074D01*
X104519074Y-81960920D01*
X104203346Y-82433440D01*
X103985869Y-82958477D01*
X103875000Y-83515852D01*
X103875000Y-84084148D01*
X103985869Y-84641523D01*
X104203346Y-85166560D01*
X104519074Y-85639080D01*
X104920920Y-86040926D01*
X105393440Y-86356654D01*
X105918477Y-86574131D01*
X106475852Y-86685000D01*
X107044148Y-86685000D01*
X107601523Y-86574131D01*
X108126560Y-86356654D01*
X108599080Y-86040926D01*
X109000926Y-85639080D01*
X109300001Y-85191483D01*
X109300001Y-93940000D01*
X12719568Y-93940000D01*
X12713843Y-85192270D01*
X13019074Y-85649080D01*
X13420920Y-86050926D01*
X13893440Y-86366654D01*
X14418477Y-86584131D01*
X14975852Y-86695000D01*
X15544148Y-86695000D01*
X16101523Y-86584131D01*
X16626560Y-86366654D01*
X17099080Y-86050926D01*
X17500926Y-85649080D01*
X17816654Y-85176560D01*
X18034131Y-84651523D01*
X18086176Y-84389872D01*
X51435000Y-84389872D01*
X51435000Y-84830128D01*
X51520890Y-85261925D01*
X51689369Y-85668669D01*
X51933962Y-86034729D01*
X52245271Y-86346038D01*
X52611331Y-86590631D01*
X53018075Y-86759110D01*
X53449872Y-86845000D01*
X53890128Y-86845000D01*
X54321925Y-86759110D01*
X54728669Y-86590631D01*
X55094729Y-86346038D01*
X55406038Y-86034729D01*
X55650631Y-85668669D01*
X55819110Y-85261925D01*
X55905000Y-84830128D01*
X55905000Y-84389872D01*
X55819110Y-83958075D01*
X55650631Y-83551331D01*
X55406038Y-83185271D01*
X55094729Y-82873962D01*
X54728669Y-82629369D01*
X54321925Y-82460890D01*
X53890128Y-82375000D01*
X53449872Y-82375000D01*
X53018075Y-82460890D01*
X52611331Y-82629369D01*
X52245271Y-82873962D01*
X51933962Y-83185271D01*
X51689369Y-83551331D01*
X51520890Y-83958075D01*
X51435000Y-84389872D01*
X18086176Y-84389872D01*
X18145000Y-84094148D01*
X18145000Y-83525852D01*
X18034131Y-82968477D01*
X17816654Y-82443440D01*
X17500926Y-81970920D01*
X17099080Y-81569074D01*
X16626560Y-81253346D01*
X16101523Y-81035869D01*
X15544148Y-80925000D01*
X14975852Y-80925000D01*
X14418477Y-81035869D01*
X13893440Y-81253346D01*
X13420920Y-81569074D01*
X13019074Y-81970920D01*
X12712035Y-82430436D01*
X12710431Y-79980000D01*
X41467581Y-79980000D01*
X41500000Y-79983193D01*
X41532419Y-79980000D01*
X41629383Y-79970450D01*
X41753793Y-79932710D01*
X41868450Y-79871425D01*
X41968948Y-79788948D01*
X42051425Y-79688450D01*
X42112710Y-79573793D01*
X42150450Y-79449383D01*
X42163193Y-79320000D01*
X42160000Y-79287581D01*
X42160000Y-79225000D01*
X44996928Y-79225000D01*
X45009188Y-79349482D01*
X45045498Y-79469180D01*
X45104463Y-79579494D01*
X45183815Y-79676185D01*
X45280506Y-79755537D01*
X45390820Y-79814502D01*
X45510518Y-79850812D01*
X45635000Y-79863072D01*
X45749250Y-79860000D01*
X45908000Y-79701250D01*
X45908000Y-78602000D01*
X45158750Y-78602000D01*
X45000000Y-78760750D01*
X44996928Y-79225000D01*
X42160000Y-79225000D01*
X42160000Y-77848028D01*
X42190820Y-77864502D01*
X42310518Y-77900812D01*
X42435000Y-77913072D01*
X44635000Y-77913072D01*
X44759482Y-77900812D01*
X44879180Y-77864502D01*
X44989494Y-77805537D01*
X44997418Y-77799034D01*
X45000000Y-78189250D01*
X45158750Y-78348000D01*
X45908000Y-78348000D01*
X45908000Y-77248750D01*
X46162000Y-77248750D01*
X46162000Y-78348000D01*
X46182000Y-78348000D01*
X46182000Y-78602000D01*
X46162000Y-78602000D01*
X46162000Y-79701250D01*
X46320750Y-79860000D01*
X46435000Y-79863072D01*
X46525000Y-79854208D01*
X46525000Y-80587677D01*
X46521324Y-80625000D01*
X46525000Y-80662322D01*
X46525000Y-80662332D01*
X46535997Y-80773985D01*
X46578773Y-80915000D01*
X46579454Y-80917246D01*
X46650026Y-81049276D01*
X46689871Y-81097826D01*
X46744999Y-81165001D01*
X46774003Y-81188804D01*
X48096201Y-82511003D01*
X48119999Y-82540001D01*
X48235724Y-82634974D01*
X48367753Y-82705546D01*
X48511014Y-82749003D01*
X48622667Y-82760000D01*
X48622675Y-82760000D01*
X48660000Y-82763676D01*
X48697325Y-82760000D01*
X49459300Y-82760000D01*
X49619744Y-82867205D01*
X49808102Y-82945226D01*
X50008061Y-82985000D01*
X50211939Y-82985000D01*
X50411898Y-82945226D01*
X50600256Y-82867205D01*
X50769774Y-82753937D01*
X50913937Y-82609774D01*
X51027205Y-82440256D01*
X51105226Y-82251898D01*
X51145000Y-82051939D01*
X51145000Y-81848061D01*
X51105226Y-81648102D01*
X51079089Y-81585001D01*
X54047675Y-81585001D01*
X54084997Y-81588677D01*
X54122319Y-81585001D01*
X54122330Y-81585001D01*
X54233983Y-81574004D01*
X54377244Y-81530547D01*
X54509273Y-81459975D01*
X54624998Y-81365002D01*
X54648801Y-81335998D01*
X64099800Y-71885000D01*
X64161937Y-71885000D01*
X64361896Y-71845226D01*
X64550254Y-71767205D01*
X64719772Y-71653937D01*
X64863935Y-71509774D01*
X64977203Y-71340256D01*
X65055224Y-71151898D01*
X65094998Y-70951939D01*
X65094998Y-70748061D01*
X65055224Y-70548102D01*
X64998020Y-70410000D01*
X67789335Y-70410000D01*
X67825820Y-70429502D01*
X67945518Y-70465812D01*
X68070000Y-70478072D01*
X68670000Y-70478072D01*
X68794482Y-70465812D01*
X68914180Y-70429502D01*
X68972093Y-70398546D01*
X69068986Y-70389003D01*
X69212247Y-70345546D01*
X69344276Y-70274974D01*
X69460001Y-70180001D01*
X69483804Y-70150997D01*
X71650001Y-67984801D01*
X71650000Y-86417581D01*
X71646807Y-86450000D01*
X71659550Y-86579383D01*
X71697290Y-86703793D01*
X71758575Y-86818450D01*
X71793085Y-86860500D01*
X71841052Y-86918948D01*
X71941550Y-87001425D01*
X72056207Y-87062710D01*
X72180617Y-87100450D01*
X72310000Y-87113193D01*
X72342419Y-87110000D01*
X74833494Y-87110000D01*
X74839371Y-87110473D01*
X74865859Y-87110000D01*
X74892419Y-87110000D01*
X74898301Y-87109421D01*
X77633453Y-87060578D01*
X77660000Y-87063193D01*
X77698306Y-87059420D01*
X77704197Y-87059315D01*
X77730505Y-87056249D01*
X77789383Y-87050450D01*
X77795073Y-87048724D01*
X77800975Y-87048036D01*
X77857207Y-87029876D01*
X77913793Y-87012710D01*
X77919037Y-87009907D01*
X77924691Y-87008081D01*
X77976282Y-86979309D01*
X78028450Y-86951425D01*
X78033049Y-86947651D01*
X78038236Y-86944758D01*
X78083214Y-86906481D01*
X78128948Y-86868948D01*
X78132723Y-86864349D01*
X78137245Y-86860500D01*
X78173886Y-86814191D01*
X78211425Y-86768450D01*
X78214230Y-86763203D01*
X78217915Y-86758545D01*
X78244826Y-86705960D01*
X78272710Y-86653793D01*
X78274437Y-86648101D01*
X78277143Y-86642813D01*
X78293274Y-86586002D01*
X78310450Y-86529383D01*
X78311033Y-86523460D01*
X78312655Y-86517749D01*
X78317392Y-86458897D01*
X78320000Y-86432419D01*
X78320000Y-86426499D01*
X78323086Y-86388160D01*
X78320000Y-86361683D01*
X78320000Y-84389872D01*
X94025000Y-84389872D01*
X94025000Y-84830128D01*
X94110890Y-85261925D01*
X94279369Y-85668669D01*
X94523962Y-86034729D01*
X94835271Y-86346038D01*
X95201331Y-86590631D01*
X95608075Y-86759110D01*
X96039872Y-86845000D01*
X96480128Y-86845000D01*
X96911925Y-86759110D01*
X97318669Y-86590631D01*
X97684729Y-86346038D01*
X97996038Y-86034729D01*
X98240631Y-85668669D01*
X98409110Y-85261925D01*
X98495000Y-84830128D01*
X98495000Y-84389872D01*
X98409110Y-83958075D01*
X98240631Y-83551331D01*
X97996038Y-83185271D01*
X97684729Y-82873962D01*
X97318669Y-82629369D01*
X96911925Y-82460890D01*
X96480128Y-82375000D01*
X96039872Y-82375000D01*
X95608075Y-82460890D01*
X95201331Y-82629369D01*
X94835271Y-82873962D01*
X94523962Y-83185271D01*
X94279369Y-83551331D01*
X94110890Y-83958075D01*
X94025000Y-84389872D01*
X78320000Y-84389872D01*
X78320000Y-61135510D01*
X78323164Y-61106197D01*
X78320000Y-61070671D01*
X78320000Y-61067581D01*
X78317125Y-61038395D01*
X78311631Y-60976702D01*
X78310755Y-60973714D01*
X78310450Y-60970617D01*
X78292471Y-60911349D01*
X78275055Y-60851945D01*
X78273614Y-60849188D01*
X78272710Y-60846207D01*
X78243498Y-60791555D01*
X78214844Y-60736720D01*
X78212894Y-60734298D01*
X78211425Y-60731550D01*
X78172122Y-60683660D01*
X78133310Y-60635455D01*
X78130923Y-60633458D01*
X78128948Y-60631052D01*
X78081082Y-60591770D01*
X78033587Y-60552043D01*
X78030856Y-60550550D01*
X78028449Y-60548575D01*
X77973838Y-60519385D01*
X77919508Y-60489689D01*
X77916538Y-60488757D01*
X77913792Y-60487290D01*
X77854527Y-60469312D01*
X77795456Y-60450788D01*
X77792362Y-60450454D01*
X77789382Y-60449550D01*
X77727728Y-60443478D01*
X77698585Y-60440332D01*
X77695497Y-60440303D01*
X77660000Y-60436807D01*
X77630656Y-60439697D01*
X72345496Y-60390303D01*
X72310000Y-60386807D01*
X72248337Y-60392880D01*
X72186702Y-60398370D01*
X72183719Y-60399245D01*
X72180618Y-60399550D01*
X72121332Y-60417535D01*
X72120000Y-60417925D01*
X72120000Y-46182062D01*
X72180617Y-46200450D01*
X72310000Y-46213193D01*
X72342419Y-46210000D01*
X77627581Y-46210000D01*
X77660000Y-46213193D01*
X77692419Y-46210000D01*
X77789383Y-46200450D01*
X77913793Y-46162710D01*
X78028450Y-46101425D01*
X78128948Y-46018948D01*
X78211425Y-45918450D01*
X78272710Y-45803793D01*
X78310450Y-45679383D01*
X78323193Y-45550000D01*
X78320000Y-45517581D01*
X78320000Y-21769872D01*
X94025000Y-21769872D01*
X94025000Y-22210128D01*
X94110890Y-22641925D01*
X94279369Y-23048669D01*
X94523962Y-23414729D01*
X94835271Y-23726038D01*
X95201331Y-23970631D01*
X95608075Y-24139110D01*
X96039872Y-24225000D01*
X96480128Y-24225000D01*
X96911925Y-24139110D01*
X97318669Y-23970631D01*
X97684729Y-23726038D01*
X97996038Y-23414729D01*
X98240631Y-23048669D01*
X98409110Y-22641925D01*
X98495000Y-22210128D01*
X98495000Y-21769872D01*
X98409110Y-21338075D01*
X98240631Y-20931331D01*
X97996038Y-20565271D01*
X97684729Y-20253962D01*
X97318669Y-20009369D01*
X96911925Y-19840890D01*
X96480128Y-19755000D01*
X96039872Y-19755000D01*
X95608075Y-19840890D01*
X95201331Y-20009369D01*
X94835271Y-20253962D01*
X94523962Y-20565271D01*
X94279369Y-20931331D01*
X94110890Y-21338075D01*
X94025000Y-21769872D01*
X78320000Y-21769872D01*
X78320000Y-20185510D01*
X78323164Y-20156197D01*
X78320000Y-20120671D01*
X78320000Y-20117581D01*
X78317125Y-20088395D01*
X78311631Y-20026702D01*
X78310755Y-20023714D01*
X78310450Y-20020617D01*
X78292471Y-19961349D01*
X78275055Y-19901945D01*
X78273614Y-19899188D01*
X78272710Y-19896207D01*
X78243498Y-19841555D01*
X78214844Y-19786720D01*
X78212894Y-19784298D01*
X78211425Y-19781550D01*
X78172122Y-19733660D01*
X78133310Y-19685455D01*
X78130923Y-19683458D01*
X78128948Y-19681052D01*
X78081082Y-19641770D01*
X78033587Y-19602043D01*
X78030856Y-19600550D01*
X78028449Y-19598575D01*
X77973838Y-19569385D01*
X77919508Y-19539689D01*
X77916538Y-19538757D01*
X77913792Y-19537290D01*
X77854527Y-19519312D01*
X77795456Y-19500788D01*
X77792362Y-19500454D01*
X77789382Y-19499550D01*
X77727728Y-19493478D01*
X77698585Y-19490332D01*
X77695497Y-19490303D01*
X77660000Y-19486807D01*
X77630656Y-19489697D01*
X72345496Y-19440303D01*
X72310000Y-19436807D01*
X72248337Y-19442880D01*
X72186702Y-19448370D01*
X72183719Y-19449245D01*
X72180618Y-19449550D01*
X72121332Y-19467535D01*
X72061945Y-19484945D01*
X72059186Y-19486386D01*
X72056208Y-19487290D01*
X72001600Y-19516478D01*
X71946720Y-19545156D01*
X71944296Y-19547108D01*
X71941551Y-19548575D01*
X71893713Y-19587835D01*
X71845455Y-19626690D01*
X71843456Y-19629080D01*
X71841053Y-19631052D01*
X71801802Y-19678879D01*
X71762043Y-19726413D01*
X71760550Y-19729145D01*
X71758576Y-19731550D01*
X71729393Y-19786147D01*
X71699689Y-19840493D01*
X71698758Y-19843463D01*
X71697291Y-19846207D01*
X71679329Y-19905419D01*
X71660788Y-19964544D01*
X71660454Y-19967641D01*
X71659551Y-19970617D01*
X71653489Y-20032162D01*
X71646836Y-20093803D01*
X71650001Y-20129337D01*
X71650001Y-32535199D01*
X70823804Y-31709002D01*
X70800001Y-31679999D01*
X70684276Y-31585026D01*
X70552247Y-31514454D01*
X70408986Y-31470997D01*
X70297333Y-31460000D01*
X70297322Y-31460000D01*
X70260000Y-31456324D01*
X70222678Y-31460000D01*
X66749730Y-31460000D01*
X66712407Y-31456324D01*
X66675084Y-31460000D01*
X66675075Y-31460000D01*
X66563422Y-31470997D01*
X66420161Y-31514454D01*
X66288132Y-31585026D01*
X66172407Y-31679999D01*
X66148609Y-31708997D01*
X65266204Y-32591403D01*
X64843804Y-32169003D01*
X64820001Y-32139999D01*
X64704276Y-32045026D01*
X64572247Y-31974454D01*
X64428986Y-31930997D01*
X64317333Y-31920000D01*
X64317322Y-31920000D01*
X64280000Y-31916324D01*
X64242678Y-31920000D01*
X60588072Y-31920000D01*
X60588072Y-30500000D01*
X60575812Y-30375518D01*
X60539502Y-30255820D01*
X60480537Y-30145506D01*
X60401185Y-30048815D01*
X60304494Y-29969463D01*
X60194180Y-29910498D01*
X60117923Y-29887366D01*
X60084974Y-29825724D01*
X59990001Y-29709999D01*
X59961003Y-29686201D01*
X59003804Y-28729002D01*
X58980001Y-28699999D01*
X58864276Y-28605026D01*
X58732247Y-28534454D01*
X58588986Y-28490997D01*
X58477333Y-28480000D01*
X58477322Y-28480000D01*
X58440000Y-28476324D01*
X58402678Y-28480000D01*
X57177322Y-28480000D01*
X57139999Y-28476324D01*
X57102676Y-28480000D01*
X57102667Y-28480000D01*
X56991014Y-28490997D01*
X56847753Y-28534454D01*
X56715724Y-28605026D01*
X56599999Y-28699999D01*
X56576201Y-28728997D01*
X53889003Y-31416196D01*
X53859999Y-31439999D01*
X53810758Y-31500000D01*
X53765026Y-31555724D01*
X53711320Y-31656201D01*
X53694454Y-31687754D01*
X53650997Y-31831015D01*
X53640000Y-31942668D01*
X53640000Y-31942678D01*
X53636324Y-31980000D01*
X53640000Y-32017322D01*
X53640001Y-38289807D01*
X53560000Y-38281928D01*
X52560000Y-38281928D01*
X52435518Y-38294188D01*
X52315820Y-38330498D01*
X52205506Y-38389463D01*
X52108815Y-38468815D01*
X52029463Y-38565506D01*
X51970498Y-38675820D01*
X51934188Y-38795518D01*
X51921928Y-38920000D01*
X51921928Y-41430000D01*
X51934188Y-41554482D01*
X51970498Y-41674180D01*
X52029463Y-41784494D01*
X52108815Y-41881185D01*
X52205506Y-41960537D01*
X52315820Y-42019502D01*
X52435518Y-42055812D01*
X52560000Y-42068072D01*
X53560000Y-42068072D01*
X53640001Y-42060193D01*
X53640001Y-44472668D01*
X53636324Y-44510000D01*
X53650998Y-44658985D01*
X53694454Y-44802246D01*
X53765026Y-44934276D01*
X53821983Y-45003677D01*
X53860000Y-45050001D01*
X53888998Y-45073799D01*
X58935359Y-50120161D01*
X58931928Y-50155000D01*
X58931928Y-51605000D01*
X58944188Y-51729482D01*
X58980498Y-51849180D01*
X59039463Y-51959494D01*
X59118815Y-52056185D01*
X59215506Y-52135537D01*
X59325820Y-52194502D01*
X59445518Y-52230812D01*
X59570000Y-52243072D01*
X60020000Y-52243072D01*
X60120000Y-52233223D01*
X60220000Y-52243072D01*
X60670000Y-52243072D01*
X60770000Y-52233223D01*
X60870000Y-52243072D01*
X61320000Y-52243072D01*
X61420000Y-52233223D01*
X61520000Y-52243072D01*
X61970000Y-52243072D01*
X62094482Y-52230812D01*
X62214180Y-52194502D01*
X62324494Y-52135537D01*
X62421185Y-52056185D01*
X62500537Y-51959494D01*
X62559502Y-51849180D01*
X62595812Y-51729482D01*
X62608072Y-51605000D01*
X62608072Y-50155000D01*
X62595812Y-50030518D01*
X62559502Y-49910820D01*
X62505000Y-49808856D01*
X62505000Y-48569801D01*
X65696731Y-45378072D01*
X66250000Y-45378072D01*
X66250001Y-53655197D01*
X64030000Y-55875198D01*
X64030000Y-54337333D01*
X64033677Y-54300000D01*
X64019003Y-54151014D01*
X63975546Y-54007753D01*
X63904974Y-53875724D01*
X63810001Y-53759999D01*
X63781004Y-53736202D01*
X63203803Y-53159002D01*
X63180001Y-53129999D01*
X63064276Y-53035026D01*
X62932247Y-52964454D01*
X62788986Y-52920997D01*
X62677333Y-52910000D01*
X62677322Y-52910000D01*
X62640000Y-52906324D01*
X62602678Y-52910000D01*
X61767333Y-52910000D01*
X61730000Y-52906323D01*
X61692667Y-52910000D01*
X61581014Y-52920997D01*
X61437753Y-52964454D01*
X61305724Y-53035026D01*
X61189999Y-53129999D01*
X61166200Y-53158998D01*
X60583998Y-53741201D01*
X60555000Y-53764999D01*
X60531202Y-53793997D01*
X60531201Y-53793998D01*
X60460026Y-53880724D01*
X60440674Y-53916928D01*
X60220000Y-53916928D01*
X60116773Y-53927095D01*
X60051750Y-53920000D01*
X60019503Y-53952247D01*
X59975820Y-53965498D01*
X59865506Y-54024463D01*
X59768815Y-54103815D01*
X59697000Y-54191322D01*
X59697000Y-54078750D01*
X59538250Y-53920000D01*
X59436004Y-53931156D01*
X59316873Y-53969285D01*
X59207469Y-54029922D01*
X59111997Y-54110737D01*
X59034126Y-54208625D01*
X58976849Y-54319825D01*
X58942366Y-54440061D01*
X58932002Y-54564715D01*
X58935000Y-54994250D01*
X59093750Y-55153000D01*
X59581928Y-55153000D01*
X59581928Y-55407000D01*
X59093750Y-55407000D01*
X58935000Y-55565750D01*
X58932002Y-55995285D01*
X58942366Y-56119939D01*
X58976849Y-56240175D01*
X59034126Y-56351375D01*
X59111997Y-56449263D01*
X59207469Y-56530078D01*
X59316873Y-56590715D01*
X59436004Y-56628844D01*
X59538250Y-56640000D01*
X59697000Y-56481250D01*
X59697000Y-56368678D01*
X59768815Y-56456185D01*
X59865506Y-56535537D01*
X59975820Y-56594502D01*
X60019503Y-56607753D01*
X60051750Y-56640000D01*
X60116773Y-56632905D01*
X60220000Y-56643072D01*
X60670000Y-56643072D01*
X60770000Y-56633223D01*
X60870000Y-56643072D01*
X60985001Y-56643072D01*
X60985000Y-56890198D01*
X58528987Y-59346212D01*
X58499989Y-59370010D01*
X58476191Y-59399008D01*
X58476190Y-59399009D01*
X58405015Y-59485735D01*
X58334443Y-59617765D01*
X58310180Y-59697753D01*
X58294636Y-59748998D01*
X58290987Y-59761026D01*
X58276313Y-59910011D01*
X58279990Y-59947343D01*
X58279989Y-64414079D01*
X58276313Y-64451402D01*
X58279989Y-64488724D01*
X58279989Y-64488734D01*
X58288183Y-64571928D01*
X57680000Y-64571928D01*
X57555518Y-64584188D01*
X57435820Y-64620498D01*
X57325506Y-64679463D01*
X57228815Y-64758815D01*
X57149463Y-64855506D01*
X57090498Y-64965820D01*
X57054188Y-65085518D01*
X57041928Y-65210000D01*
X57041928Y-67720000D01*
X57054188Y-67844482D01*
X57090498Y-67964180D01*
X57149463Y-68074494D01*
X57228815Y-68171185D01*
X57325506Y-68250537D01*
X57435820Y-68309502D01*
X57555518Y-68345812D01*
X57680000Y-68358072D01*
X58680000Y-68358072D01*
X58804482Y-68345812D01*
X58924180Y-68309502D01*
X59034494Y-68250537D01*
X59131185Y-68171185D01*
X59210537Y-68074494D01*
X59269502Y-67964180D01*
X59305812Y-67844482D01*
X59318072Y-67720000D01*
X59318072Y-65804286D01*
X60489787Y-66976002D01*
X60513586Y-67005001D01*
X60594024Y-67071015D01*
X60629311Y-67099974D01*
X60761340Y-67170546D01*
X60904601Y-67214003D01*
X61053587Y-67228677D01*
X61090920Y-67225000D01*
X62121928Y-67225000D01*
X62121928Y-67283270D01*
X61435764Y-67969435D01*
X61258102Y-68004774D01*
X61069744Y-68082795D01*
X60900226Y-68196063D01*
X60756063Y-68340226D01*
X60642795Y-68509744D01*
X60564774Y-68698102D01*
X60525000Y-68898061D01*
X60525000Y-69101939D01*
X60564774Y-69301898D01*
X60642795Y-69490256D01*
X60756063Y-69659774D01*
X60900226Y-69803937D01*
X61069744Y-69917205D01*
X61258102Y-69995226D01*
X61458061Y-70035000D01*
X61661939Y-70035000D01*
X61697215Y-70027983D01*
X59583248Y-72141951D01*
X59530724Y-72170026D01*
X59414999Y-72264999D01*
X59391201Y-72293997D01*
X52645199Y-79040000D01*
X50823072Y-79040000D01*
X50823072Y-77799436D01*
X50830506Y-77805537D01*
X50940820Y-77864502D01*
X51060518Y-77900812D01*
X51185000Y-77913072D01*
X53385000Y-77913072D01*
X53509482Y-77900812D01*
X53629180Y-77864502D01*
X53739494Y-77805537D01*
X53836185Y-77726185D01*
X53915537Y-77629494D01*
X53974502Y-77519180D01*
X54010812Y-77399482D01*
X54023072Y-77275000D01*
X54023072Y-74175000D01*
X54010812Y-74050518D01*
X53974502Y-73930820D01*
X53915537Y-73820506D01*
X53836185Y-73723815D01*
X53739494Y-73644463D01*
X53629180Y-73585498D01*
X53509482Y-73549188D01*
X53385000Y-73536928D01*
X51185000Y-73536928D01*
X51060518Y-73549188D01*
X50940820Y-73585498D01*
X50830506Y-73644463D01*
X50733815Y-73723815D01*
X50654463Y-73820506D01*
X50595498Y-73930820D01*
X50559188Y-74050518D01*
X50546928Y-74175000D01*
X50546928Y-77200564D01*
X50539494Y-77194463D01*
X50429180Y-77135498D01*
X50309482Y-77099188D01*
X50185000Y-77086928D01*
X49385000Y-77086928D01*
X49260518Y-77099188D01*
X49160000Y-77129680D01*
X49059482Y-77099188D01*
X48935000Y-77086928D01*
X48135000Y-77086928D01*
X48010518Y-77099188D01*
X47910000Y-77129680D01*
X47809482Y-77099188D01*
X47685000Y-77086928D01*
X46885000Y-77086928D01*
X46760518Y-77099188D01*
X46660000Y-77129680D01*
X46559482Y-77099188D01*
X46435000Y-77086928D01*
X46320750Y-77090000D01*
X46162000Y-77248750D01*
X45908000Y-77248750D01*
X45749250Y-77090000D01*
X45635000Y-77086928D01*
X45510518Y-77099188D01*
X45390820Y-77135498D01*
X45280506Y-77194463D01*
X45273072Y-77200564D01*
X45273072Y-74175000D01*
X45260812Y-74050518D01*
X45224502Y-73930820D01*
X45165537Y-73820506D01*
X45086185Y-73723815D01*
X44989494Y-73644463D01*
X44879180Y-73585498D01*
X44759482Y-73549188D01*
X44635000Y-73536928D01*
X42435000Y-73536928D01*
X42310518Y-73549188D01*
X42190820Y-73585498D01*
X42160000Y-73601972D01*
X42160000Y-67720000D01*
X51961928Y-67720000D01*
X51974188Y-67844482D01*
X52010498Y-67964180D01*
X52069463Y-68074494D01*
X52148815Y-68171185D01*
X52245506Y-68250537D01*
X52355820Y-68309502D01*
X52475518Y-68345812D01*
X52600000Y-68358072D01*
X52814250Y-68355000D01*
X52973000Y-68196250D01*
X52973000Y-66592000D01*
X53227000Y-66592000D01*
X53227000Y-68196250D01*
X53385750Y-68355000D01*
X53600000Y-68358072D01*
X53724482Y-68345812D01*
X53844180Y-68309502D01*
X53954494Y-68250537D01*
X54051185Y-68171185D01*
X54130537Y-68074494D01*
X54189502Y-67964180D01*
X54225812Y-67844482D01*
X54238072Y-67720000D01*
X54235000Y-66750750D01*
X54076250Y-66592000D01*
X53227000Y-66592000D01*
X52973000Y-66592000D01*
X52123750Y-66592000D01*
X51965000Y-66750750D01*
X51961928Y-67720000D01*
X42160000Y-67720000D01*
X42160000Y-65210000D01*
X51961928Y-65210000D01*
X51965000Y-66179250D01*
X52123750Y-66338000D01*
X52973000Y-66338000D01*
X52973000Y-64733750D01*
X53227000Y-64733750D01*
X53227000Y-66338000D01*
X54076250Y-66338000D01*
X54235000Y-66179250D01*
X54238072Y-65210000D01*
X54225812Y-65085518D01*
X54189502Y-64965820D01*
X54130537Y-64855506D01*
X54051185Y-64758815D01*
X53954494Y-64679463D01*
X53844180Y-64620498D01*
X53724482Y-64584188D01*
X53600000Y-64571928D01*
X53385750Y-64575000D01*
X53227000Y-64733750D01*
X52973000Y-64733750D01*
X52814250Y-64575000D01*
X52600000Y-64571928D01*
X52475518Y-64584188D01*
X52355820Y-64620498D01*
X52245506Y-64679463D01*
X52148815Y-64758815D01*
X52069463Y-64855506D01*
X52010498Y-64965820D01*
X51974188Y-65085518D01*
X51961928Y-65210000D01*
X42160000Y-65210000D01*
X42160000Y-61900000D01*
X54501928Y-61900000D01*
X54501928Y-64410000D01*
X54514188Y-64534482D01*
X54550498Y-64654180D01*
X54609463Y-64764494D01*
X54688815Y-64861185D01*
X54785506Y-64940537D01*
X54895820Y-64999502D01*
X55015518Y-65035812D01*
X55140000Y-65048072D01*
X56140000Y-65048072D01*
X56264482Y-65035812D01*
X56384180Y-64999502D01*
X56494494Y-64940537D01*
X56591185Y-64861185D01*
X56670537Y-64764494D01*
X56729502Y-64654180D01*
X56765812Y-64534482D01*
X56778072Y-64410000D01*
X56778072Y-61900000D01*
X56765812Y-61775518D01*
X56729502Y-61655820D01*
X56670537Y-61545506D01*
X56591185Y-61448815D01*
X56494494Y-61369463D01*
X56384180Y-61310498D01*
X56264482Y-61274188D01*
X56140000Y-61261928D01*
X55140000Y-61261928D01*
X55015518Y-61274188D01*
X54895820Y-61310498D01*
X54785506Y-61369463D01*
X54688815Y-61448815D01*
X54609463Y-61545506D01*
X54550498Y-61655820D01*
X54514188Y-61775518D01*
X54501928Y-61900000D01*
X42160000Y-61900000D01*
X42160000Y-27588824D01*
X43002176Y-27937665D01*
X43994247Y-28135000D01*
X45005753Y-28135000D01*
X45997824Y-27937665D01*
X46932335Y-27550578D01*
X47773372Y-26988615D01*
X48488615Y-26273372D01*
X49050578Y-25432335D01*
X49437665Y-24497824D01*
X49635000Y-23505753D01*
X49635000Y-22494247D01*
X49490913Y-21769872D01*
X51435000Y-21769872D01*
X51435000Y-22210128D01*
X51520890Y-22641925D01*
X51689369Y-23048669D01*
X51933962Y-23414729D01*
X52245271Y-23726038D01*
X52611331Y-23970631D01*
X53018075Y-24139110D01*
X53449872Y-24225000D01*
X53890128Y-24225000D01*
X54321925Y-24139110D01*
X54728669Y-23970631D01*
X55094729Y-23726038D01*
X55406038Y-23414729D01*
X55650631Y-23048669D01*
X55819110Y-22641925D01*
X55905000Y-22210128D01*
X55905000Y-21769872D01*
X55819110Y-21338075D01*
X55650631Y-20931331D01*
X55406038Y-20565271D01*
X55094729Y-20253962D01*
X54728669Y-20009369D01*
X54321925Y-19840890D01*
X53890128Y-19755000D01*
X53449872Y-19755000D01*
X53018075Y-19840890D01*
X52611331Y-20009369D01*
X52245271Y-20253962D01*
X51933962Y-20565271D01*
X51689369Y-20931331D01*
X51520890Y-21338075D01*
X51435000Y-21769872D01*
X49490913Y-21769872D01*
X49437665Y-21502176D01*
X49050578Y-20567665D01*
X48488615Y-19726628D01*
X47773372Y-19011385D01*
X46932335Y-18449422D01*
X45997824Y-18062335D01*
X45005753Y-17865000D01*
X43994247Y-17865000D01*
X43002176Y-18062335D01*
X42067665Y-18449422D01*
X41226628Y-19011385D01*
X40511385Y-19726628D01*
X39949422Y-20567665D01*
X39562335Y-21502176D01*
X39365000Y-22494247D01*
X39365000Y-23505753D01*
X39562335Y-24497824D01*
X39949422Y-25432335D01*
X40511385Y-26273372D01*
X40858013Y-26620000D01*
X12660000Y-26620000D01*
X12660000Y-24061913D01*
X12703346Y-24166560D01*
X13019074Y-24639080D01*
X13420920Y-25040926D01*
X13893440Y-25356654D01*
X14418477Y-25574131D01*
X14975852Y-25685000D01*
X15544148Y-25685000D01*
X16101523Y-25574131D01*
X16626560Y-25356654D01*
X17099080Y-25040926D01*
X17500926Y-24639080D01*
X17816654Y-24166560D01*
X18034131Y-23641523D01*
X18145000Y-23084148D01*
X18145000Y-22515852D01*
X18034131Y-21958477D01*
X17816654Y-21433440D01*
X17500926Y-20960920D01*
X17099080Y-20559074D01*
X16626560Y-20243346D01*
X16101523Y-20025869D01*
X15544148Y-19915000D01*
X14975852Y-19915000D01*
X14418477Y-20025869D01*
X13893440Y-20243346D01*
X13420920Y-20559074D01*
X13019074Y-20960920D01*
X12703346Y-21433440D01*
X12660000Y-21538087D01*
X12660000Y-12660000D01*
X109300000Y-12660000D01*
X109300000Y-21408516D01*
X109300000Y-21408516D01*
G37*
X109300000Y-21408516D02*
X109000926Y-20960920D01*
X108599080Y-20559074D01*
X108126560Y-20243346D01*
X107601523Y-20025869D01*
X107044148Y-19915000D01*
X106475852Y-19915000D01*
X105918477Y-20025869D01*
X105393440Y-20243346D01*
X104920920Y-20559074D01*
X104519074Y-20960920D01*
X104203346Y-21433440D01*
X103985869Y-21958477D01*
X103875000Y-22515852D01*
X103875000Y-23084148D01*
X103985869Y-23641523D01*
X104203346Y-24166560D01*
X104519074Y-24639080D01*
X104920920Y-25040926D01*
X105393440Y-25356654D01*
X105918477Y-25574131D01*
X106475852Y-25685000D01*
X107044148Y-25685000D01*
X107601523Y-25574131D01*
X108126560Y-25356654D01*
X108599080Y-25040926D01*
X109000926Y-24639080D01*
X109300000Y-24191484D01*
X109300001Y-82408517D01*
X109000926Y-81960920D01*
X108599080Y-81559074D01*
X108126560Y-81243346D01*
X107601523Y-81025869D01*
X107044148Y-80915000D01*
X106475852Y-80915000D01*
X105918477Y-81025869D01*
X105393440Y-81243346D01*
X104920920Y-81559074D01*
X104519074Y-81960920D01*
X104203346Y-82433440D01*
X103985869Y-82958477D01*
X103875000Y-83515852D01*
X103875000Y-84084148D01*
X103985869Y-84641523D01*
X104203346Y-85166560D01*
X104519074Y-85639080D01*
X104920920Y-86040926D01*
X105393440Y-86356654D01*
X105918477Y-86574131D01*
X106475852Y-86685000D01*
X107044148Y-86685000D01*
X107601523Y-86574131D01*
X108126560Y-86356654D01*
X108599080Y-86040926D01*
X109000926Y-85639080D01*
X109300001Y-85191483D01*
X109300001Y-93940000D01*
X12719568Y-93940000D01*
X12713843Y-85192270D01*
X13019074Y-85649080D01*
X13420920Y-86050926D01*
X13893440Y-86366654D01*
X14418477Y-86584131D01*
X14975852Y-86695000D01*
X15544148Y-86695000D01*
X16101523Y-86584131D01*
X16626560Y-86366654D01*
X17099080Y-86050926D01*
X17500926Y-85649080D01*
X17816654Y-85176560D01*
X18034131Y-84651523D01*
X18086176Y-84389872D01*
X51435000Y-84389872D01*
X51435000Y-84830128D01*
X51520890Y-85261925D01*
X51689369Y-85668669D01*
X51933962Y-86034729D01*
X52245271Y-86346038D01*
X52611331Y-86590631D01*
X53018075Y-86759110D01*
X53449872Y-86845000D01*
X53890128Y-86845000D01*
X54321925Y-86759110D01*
X54728669Y-86590631D01*
X55094729Y-86346038D01*
X55406038Y-86034729D01*
X55650631Y-85668669D01*
X55819110Y-85261925D01*
X55905000Y-84830128D01*
X55905000Y-84389872D01*
X55819110Y-83958075D01*
X55650631Y-83551331D01*
X55406038Y-83185271D01*
X55094729Y-82873962D01*
X54728669Y-82629369D01*
X54321925Y-82460890D01*
X53890128Y-82375000D01*
X53449872Y-82375000D01*
X53018075Y-82460890D01*
X52611331Y-82629369D01*
X52245271Y-82873962D01*
X51933962Y-83185271D01*
X51689369Y-83551331D01*
X51520890Y-83958075D01*
X51435000Y-84389872D01*
X18086176Y-84389872D01*
X18145000Y-84094148D01*
X18145000Y-83525852D01*
X18034131Y-82968477D01*
X17816654Y-82443440D01*
X17500926Y-81970920D01*
X17099080Y-81569074D01*
X16626560Y-81253346D01*
X16101523Y-81035869D01*
X15544148Y-80925000D01*
X14975852Y-80925000D01*
X14418477Y-81035869D01*
X13893440Y-81253346D01*
X13420920Y-81569074D01*
X13019074Y-81970920D01*
X12712035Y-82430436D01*
X12710431Y-79980000D01*
X41467581Y-79980000D01*
X41500000Y-79983193D01*
X41532419Y-79980000D01*
X41629383Y-79970450D01*
X41753793Y-79932710D01*
X41868450Y-79871425D01*
X41968948Y-79788948D01*
X42051425Y-79688450D01*
X42112710Y-79573793D01*
X42150450Y-79449383D01*
X42163193Y-79320000D01*
X42160000Y-79287581D01*
X42160000Y-79225000D01*
X44996928Y-79225000D01*
X45009188Y-79349482D01*
X45045498Y-79469180D01*
X45104463Y-79579494D01*
X45183815Y-79676185D01*
X45280506Y-79755537D01*
X45390820Y-79814502D01*
X45510518Y-79850812D01*
X45635000Y-79863072D01*
X45749250Y-79860000D01*
X45908000Y-79701250D01*
X45908000Y-78602000D01*
X45158750Y-78602000D01*
X45000000Y-78760750D01*
X44996928Y-79225000D01*
X42160000Y-79225000D01*
X42160000Y-77848028D01*
X42190820Y-77864502D01*
X42310518Y-77900812D01*
X42435000Y-77913072D01*
X44635000Y-77913072D01*
X44759482Y-77900812D01*
X44879180Y-77864502D01*
X44989494Y-77805537D01*
X44997418Y-77799034D01*
X45000000Y-78189250D01*
X45158750Y-78348000D01*
X45908000Y-78348000D01*
X45908000Y-77248750D01*
X46162000Y-77248750D01*
X46162000Y-78348000D01*
X46182000Y-78348000D01*
X46182000Y-78602000D01*
X46162000Y-78602000D01*
X46162000Y-79701250D01*
X46320750Y-79860000D01*
X46435000Y-79863072D01*
X46525000Y-79854208D01*
X46525000Y-80587677D01*
X46521324Y-80625000D01*
X46525000Y-80662322D01*
X46525000Y-80662332D01*
X46535997Y-80773985D01*
X46578773Y-80915000D01*
X46579454Y-80917246D01*
X46650026Y-81049276D01*
X46689871Y-81097826D01*
X46744999Y-81165001D01*
X46774003Y-81188804D01*
X48096201Y-82511003D01*
X48119999Y-82540001D01*
X48235724Y-82634974D01*
X48367753Y-82705546D01*
X48511014Y-82749003D01*
X48622667Y-82760000D01*
X48622675Y-82760000D01*
X48660000Y-82763676D01*
X48697325Y-82760000D01*
X49459300Y-82760000D01*
X49619744Y-82867205D01*
X49808102Y-82945226D01*
X50008061Y-82985000D01*
X50211939Y-82985000D01*
X50411898Y-82945226D01*
X50600256Y-82867205D01*
X50769774Y-82753937D01*
X50913937Y-82609774D01*
X51027205Y-82440256D01*
X51105226Y-82251898D01*
X51145000Y-82051939D01*
X51145000Y-81848061D01*
X51105226Y-81648102D01*
X51079089Y-81585001D01*
X54047675Y-81585001D01*
X54084997Y-81588677D01*
X54122319Y-81585001D01*
X54122330Y-81585001D01*
X54233983Y-81574004D01*
X54377244Y-81530547D01*
X54509273Y-81459975D01*
X54624998Y-81365002D01*
X54648801Y-81335998D01*
X64099800Y-71885000D01*
X64161937Y-71885000D01*
X64361896Y-71845226D01*
X64550254Y-71767205D01*
X64719772Y-71653937D01*
X64863935Y-71509774D01*
X64977203Y-71340256D01*
X65055224Y-71151898D01*
X65094998Y-70951939D01*
X65094998Y-70748061D01*
X65055224Y-70548102D01*
X64998020Y-70410000D01*
X67789335Y-70410000D01*
X67825820Y-70429502D01*
X67945518Y-70465812D01*
X68070000Y-70478072D01*
X68670000Y-70478072D01*
X68794482Y-70465812D01*
X68914180Y-70429502D01*
X68972093Y-70398546D01*
X69068986Y-70389003D01*
X69212247Y-70345546D01*
X69344276Y-70274974D01*
X69460001Y-70180001D01*
X69483804Y-70150997D01*
X71650001Y-67984801D01*
X71650000Y-86417581D01*
X71646807Y-86450000D01*
X71659550Y-86579383D01*
X71697290Y-86703793D01*
X71758575Y-86818450D01*
X71793085Y-86860500D01*
X71841052Y-86918948D01*
X71941550Y-87001425D01*
X72056207Y-87062710D01*
X72180617Y-87100450D01*
X72310000Y-87113193D01*
X72342419Y-87110000D01*
X74833494Y-87110000D01*
X74839371Y-87110473D01*
X74865859Y-87110000D01*
X74892419Y-87110000D01*
X74898301Y-87109421D01*
X77633453Y-87060578D01*
X77660000Y-87063193D01*
X77698306Y-87059420D01*
X77704197Y-87059315D01*
X77730505Y-87056249D01*
X77789383Y-87050450D01*
X77795073Y-87048724D01*
X77800975Y-87048036D01*
X77857207Y-87029876D01*
X77913793Y-87012710D01*
X77919037Y-87009907D01*
X77924691Y-87008081D01*
X77976282Y-86979309D01*
X78028450Y-86951425D01*
X78033049Y-86947651D01*
X78038236Y-86944758D01*
X78083214Y-86906481D01*
X78128948Y-86868948D01*
X78132723Y-86864349D01*
X78137245Y-86860500D01*
X78173886Y-86814191D01*
X78211425Y-86768450D01*
X78214230Y-86763203D01*
X78217915Y-86758545D01*
X78244826Y-86705960D01*
X78272710Y-86653793D01*
X78274437Y-86648101D01*
X78277143Y-86642813D01*
X78293274Y-86586002D01*
X78310450Y-86529383D01*
X78311033Y-86523460D01*
X78312655Y-86517749D01*
X78317392Y-86458897D01*
X78320000Y-86432419D01*
X78320000Y-86426499D01*
X78323086Y-86388160D01*
X78320000Y-86361683D01*
X78320000Y-84389872D01*
X94025000Y-84389872D01*
X94025000Y-84830128D01*
X94110890Y-85261925D01*
X94279369Y-85668669D01*
X94523962Y-86034729D01*
X94835271Y-86346038D01*
X95201331Y-86590631D01*
X95608075Y-86759110D01*
X96039872Y-86845000D01*
X96480128Y-86845000D01*
X96911925Y-86759110D01*
X97318669Y-86590631D01*
X97684729Y-86346038D01*
X97996038Y-86034729D01*
X98240631Y-85668669D01*
X98409110Y-85261925D01*
X98495000Y-84830128D01*
X98495000Y-84389872D01*
X98409110Y-83958075D01*
X98240631Y-83551331D01*
X97996038Y-83185271D01*
X97684729Y-82873962D01*
X97318669Y-82629369D01*
X96911925Y-82460890D01*
X96480128Y-82375000D01*
X96039872Y-82375000D01*
X95608075Y-82460890D01*
X95201331Y-82629369D01*
X94835271Y-82873962D01*
X94523962Y-83185271D01*
X94279369Y-83551331D01*
X94110890Y-83958075D01*
X94025000Y-84389872D01*
X78320000Y-84389872D01*
X78320000Y-61135510D01*
X78323164Y-61106197D01*
X78320000Y-61070671D01*
X78320000Y-61067581D01*
X78317125Y-61038395D01*
X78311631Y-60976702D01*
X78310755Y-60973714D01*
X78310450Y-60970617D01*
X78292471Y-60911349D01*
X78275055Y-60851945D01*
X78273614Y-60849188D01*
X78272710Y-60846207D01*
X78243498Y-60791555D01*
X78214844Y-60736720D01*
X78212894Y-60734298D01*
X78211425Y-60731550D01*
X78172122Y-60683660D01*
X78133310Y-60635455D01*
X78130923Y-60633458D01*
X78128948Y-60631052D01*
X78081082Y-60591770D01*
X78033587Y-60552043D01*
X78030856Y-60550550D01*
X78028449Y-60548575D01*
X77973838Y-60519385D01*
X77919508Y-60489689D01*
X77916538Y-60488757D01*
X77913792Y-60487290D01*
X77854527Y-60469312D01*
X77795456Y-60450788D01*
X77792362Y-60450454D01*
X77789382Y-60449550D01*
X77727728Y-60443478D01*
X77698585Y-60440332D01*
X77695497Y-60440303D01*
X77660000Y-60436807D01*
X77630656Y-60439697D01*
X72345496Y-60390303D01*
X72310000Y-60386807D01*
X72248337Y-60392880D01*
X72186702Y-60398370D01*
X72183719Y-60399245D01*
X72180618Y-60399550D01*
X72121332Y-60417535D01*
X72120000Y-60417925D01*
X72120000Y-46182062D01*
X72180617Y-46200450D01*
X72310000Y-46213193D01*
X72342419Y-46210000D01*
X77627581Y-46210000D01*
X77660000Y-46213193D01*
X77692419Y-46210000D01*
X77789383Y-46200450D01*
X77913793Y-46162710D01*
X78028450Y-46101425D01*
X78128948Y-46018948D01*
X78211425Y-45918450D01*
X78272710Y-45803793D01*
X78310450Y-45679383D01*
X78323193Y-45550000D01*
X78320000Y-45517581D01*
X78320000Y-21769872D01*
X94025000Y-21769872D01*
X94025000Y-22210128D01*
X94110890Y-22641925D01*
X94279369Y-23048669D01*
X94523962Y-23414729D01*
X94835271Y-23726038D01*
X95201331Y-23970631D01*
X95608075Y-24139110D01*
X96039872Y-24225000D01*
X96480128Y-24225000D01*
X96911925Y-24139110D01*
X97318669Y-23970631D01*
X97684729Y-23726038D01*
X97996038Y-23414729D01*
X98240631Y-23048669D01*
X98409110Y-22641925D01*
X98495000Y-22210128D01*
X98495000Y-21769872D01*
X98409110Y-21338075D01*
X98240631Y-20931331D01*
X97996038Y-20565271D01*
X97684729Y-20253962D01*
X97318669Y-20009369D01*
X96911925Y-19840890D01*
X96480128Y-19755000D01*
X96039872Y-19755000D01*
X95608075Y-19840890D01*
X95201331Y-20009369D01*
X94835271Y-20253962D01*
X94523962Y-20565271D01*
X94279369Y-20931331D01*
X94110890Y-21338075D01*
X94025000Y-21769872D01*
X78320000Y-21769872D01*
X78320000Y-20185510D01*
X78323164Y-20156197D01*
X78320000Y-20120671D01*
X78320000Y-20117581D01*
X78317125Y-20088395D01*
X78311631Y-20026702D01*
X78310755Y-20023714D01*
X78310450Y-20020617D01*
X78292471Y-19961349D01*
X78275055Y-19901945D01*
X78273614Y-19899188D01*
X78272710Y-19896207D01*
X78243498Y-19841555D01*
X78214844Y-19786720D01*
X78212894Y-19784298D01*
X78211425Y-19781550D01*
X78172122Y-19733660D01*
X78133310Y-19685455D01*
X78130923Y-19683458D01*
X78128948Y-19681052D01*
X78081082Y-19641770D01*
X78033587Y-19602043D01*
X78030856Y-19600550D01*
X78028449Y-19598575D01*
X77973838Y-19569385D01*
X77919508Y-19539689D01*
X77916538Y-19538757D01*
X77913792Y-19537290D01*
X77854527Y-19519312D01*
X77795456Y-19500788D01*
X77792362Y-19500454D01*
X77789382Y-19499550D01*
X77727728Y-19493478D01*
X77698585Y-19490332D01*
X77695497Y-19490303D01*
X77660000Y-19486807D01*
X77630656Y-19489697D01*
X72345496Y-19440303D01*
X72310000Y-19436807D01*
X72248337Y-19442880D01*
X72186702Y-19448370D01*
X72183719Y-19449245D01*
X72180618Y-19449550D01*
X72121332Y-19467535D01*
X72061945Y-19484945D01*
X72059186Y-19486386D01*
X72056208Y-19487290D01*
X72001600Y-19516478D01*
X71946720Y-19545156D01*
X71944296Y-19547108D01*
X71941551Y-19548575D01*
X71893713Y-19587835D01*
X71845455Y-19626690D01*
X71843456Y-19629080D01*
X71841053Y-19631052D01*
X71801802Y-19678879D01*
X71762043Y-19726413D01*
X71760550Y-19729145D01*
X71758576Y-19731550D01*
X71729393Y-19786147D01*
X71699689Y-19840493D01*
X71698758Y-19843463D01*
X71697291Y-19846207D01*
X71679329Y-19905419D01*
X71660788Y-19964544D01*
X71660454Y-19967641D01*
X71659551Y-19970617D01*
X71653489Y-20032162D01*
X71646836Y-20093803D01*
X71650001Y-20129337D01*
X71650001Y-32535199D01*
X70823804Y-31709002D01*
X70800001Y-31679999D01*
X70684276Y-31585026D01*
X70552247Y-31514454D01*
X70408986Y-31470997D01*
X70297333Y-31460000D01*
X70297322Y-31460000D01*
X70260000Y-31456324D01*
X70222678Y-31460000D01*
X66749730Y-31460000D01*
X66712407Y-31456324D01*
X66675084Y-31460000D01*
X66675075Y-31460000D01*
X66563422Y-31470997D01*
X66420161Y-31514454D01*
X66288132Y-31585026D01*
X66172407Y-31679999D01*
X66148609Y-31708997D01*
X65266204Y-32591403D01*
X64843804Y-32169003D01*
X64820001Y-32139999D01*
X64704276Y-32045026D01*
X64572247Y-31974454D01*
X64428986Y-31930997D01*
X64317333Y-31920000D01*
X64317322Y-31920000D01*
X64280000Y-31916324D01*
X64242678Y-31920000D01*
X60588072Y-31920000D01*
X60588072Y-30500000D01*
X60575812Y-30375518D01*
X60539502Y-30255820D01*
X60480537Y-30145506D01*
X60401185Y-30048815D01*
X60304494Y-29969463D01*
X60194180Y-29910498D01*
X60117923Y-29887366D01*
X60084974Y-29825724D01*
X59990001Y-29709999D01*
X59961003Y-29686201D01*
X59003804Y-28729002D01*
X58980001Y-28699999D01*
X58864276Y-28605026D01*
X58732247Y-28534454D01*
X58588986Y-28490997D01*
X58477333Y-28480000D01*
X58477322Y-28480000D01*
X58440000Y-28476324D01*
X58402678Y-28480000D01*
X57177322Y-28480000D01*
X57139999Y-28476324D01*
X57102676Y-28480000D01*
X57102667Y-28480000D01*
X56991014Y-28490997D01*
X56847753Y-28534454D01*
X56715724Y-28605026D01*
X56599999Y-28699999D01*
X56576201Y-28728997D01*
X53889003Y-31416196D01*
X53859999Y-31439999D01*
X53810758Y-31500000D01*
X53765026Y-31555724D01*
X53711320Y-31656201D01*
X53694454Y-31687754D01*
X53650997Y-31831015D01*
X53640000Y-31942668D01*
X53640000Y-31942678D01*
X53636324Y-31980000D01*
X53640000Y-32017322D01*
X53640001Y-38289807D01*
X53560000Y-38281928D01*
X52560000Y-38281928D01*
X52435518Y-38294188D01*
X52315820Y-38330498D01*
X52205506Y-38389463D01*
X52108815Y-38468815D01*
X52029463Y-38565506D01*
X51970498Y-38675820D01*
X51934188Y-38795518D01*
X51921928Y-38920000D01*
X51921928Y-41430000D01*
X51934188Y-41554482D01*
X51970498Y-41674180D01*
X52029463Y-41784494D01*
X52108815Y-41881185D01*
X52205506Y-41960537D01*
X52315820Y-42019502D01*
X52435518Y-42055812D01*
X52560000Y-42068072D01*
X53560000Y-42068072D01*
X53640001Y-42060193D01*
X53640001Y-44472668D01*
X53636324Y-44510000D01*
X53650998Y-44658985D01*
X53694454Y-44802246D01*
X53765026Y-44934276D01*
X53821983Y-45003677D01*
X53860000Y-45050001D01*
X53888998Y-45073799D01*
X58935359Y-50120161D01*
X58931928Y-50155000D01*
X58931928Y-51605000D01*
X58944188Y-51729482D01*
X58980498Y-51849180D01*
X59039463Y-51959494D01*
X59118815Y-52056185D01*
X59215506Y-52135537D01*
X59325820Y-52194502D01*
X59445518Y-52230812D01*
X59570000Y-52243072D01*
X60020000Y-52243072D01*
X60120000Y-52233223D01*
X60220000Y-52243072D01*
X60670000Y-52243072D01*
X60770000Y-52233223D01*
X60870000Y-52243072D01*
X61320000Y-52243072D01*
X61420000Y-52233223D01*
X61520000Y-52243072D01*
X61970000Y-52243072D01*
X62094482Y-52230812D01*
X62214180Y-52194502D01*
X62324494Y-52135537D01*
X62421185Y-52056185D01*
X62500537Y-51959494D01*
X62559502Y-51849180D01*
X62595812Y-51729482D01*
X62608072Y-51605000D01*
X62608072Y-50155000D01*
X62595812Y-50030518D01*
X62559502Y-49910820D01*
X62505000Y-49808856D01*
X62505000Y-48569801D01*
X65696731Y-45378072D01*
X66250000Y-45378072D01*
X66250001Y-53655197D01*
X64030000Y-55875198D01*
X64030000Y-54337333D01*
X64033677Y-54300000D01*
X64019003Y-54151014D01*
X63975546Y-54007753D01*
X63904974Y-53875724D01*
X63810001Y-53759999D01*
X63781004Y-53736202D01*
X63203803Y-53159002D01*
X63180001Y-53129999D01*
X63064276Y-53035026D01*
X62932247Y-52964454D01*
X62788986Y-52920997D01*
X62677333Y-52910000D01*
X62677322Y-52910000D01*
X62640000Y-52906324D01*
X62602678Y-52910000D01*
X61767333Y-52910000D01*
X61730000Y-52906323D01*
X61692667Y-52910000D01*
X61581014Y-52920997D01*
X61437753Y-52964454D01*
X61305724Y-53035026D01*
X61189999Y-53129999D01*
X61166200Y-53158998D01*
X60583998Y-53741201D01*
X60555000Y-53764999D01*
X60531202Y-53793997D01*
X60531201Y-53793998D01*
X60460026Y-53880724D01*
X60440674Y-53916928D01*
X60220000Y-53916928D01*
X60116773Y-53927095D01*
X60051750Y-53920000D01*
X60019503Y-53952247D01*
X59975820Y-53965498D01*
X59865506Y-54024463D01*
X59768815Y-54103815D01*
X59697000Y-54191322D01*
X59697000Y-54078750D01*
X59538250Y-53920000D01*
X59436004Y-53931156D01*
X59316873Y-53969285D01*
X59207469Y-54029922D01*
X59111997Y-54110737D01*
X59034126Y-54208625D01*
X58976849Y-54319825D01*
X58942366Y-54440061D01*
X58932002Y-54564715D01*
X58935000Y-54994250D01*
X59093750Y-55153000D01*
X59581928Y-55153000D01*
X59581928Y-55407000D01*
X59093750Y-55407000D01*
X58935000Y-55565750D01*
X58932002Y-55995285D01*
X58942366Y-56119939D01*
X58976849Y-56240175D01*
X59034126Y-56351375D01*
X59111997Y-56449263D01*
X59207469Y-56530078D01*
X59316873Y-56590715D01*
X59436004Y-56628844D01*
X59538250Y-56640000D01*
X59697000Y-56481250D01*
X59697000Y-56368678D01*
X59768815Y-56456185D01*
X59865506Y-56535537D01*
X59975820Y-56594502D01*
X60019503Y-56607753D01*
X60051750Y-56640000D01*
X60116773Y-56632905D01*
X60220000Y-56643072D01*
X60670000Y-56643072D01*
X60770000Y-56633223D01*
X60870000Y-56643072D01*
X60985001Y-56643072D01*
X60985000Y-56890198D01*
X58528987Y-59346212D01*
X58499989Y-59370010D01*
X58476191Y-59399008D01*
X58476190Y-59399009D01*
X58405015Y-59485735D01*
X58334443Y-59617765D01*
X58310180Y-59697753D01*
X58294636Y-59748998D01*
X58290987Y-59761026D01*
X58276313Y-59910011D01*
X58279990Y-59947343D01*
X58279989Y-64414079D01*
X58276313Y-64451402D01*
X58279989Y-64488724D01*
X58279989Y-64488734D01*
X58288183Y-64571928D01*
X57680000Y-64571928D01*
X57555518Y-64584188D01*
X57435820Y-64620498D01*
X57325506Y-64679463D01*
X57228815Y-64758815D01*
X57149463Y-64855506D01*
X57090498Y-64965820D01*
X57054188Y-65085518D01*
X57041928Y-65210000D01*
X57041928Y-67720000D01*
X57054188Y-67844482D01*
X57090498Y-67964180D01*
X57149463Y-68074494D01*
X57228815Y-68171185D01*
X57325506Y-68250537D01*
X57435820Y-68309502D01*
X57555518Y-68345812D01*
X57680000Y-68358072D01*
X58680000Y-68358072D01*
X58804482Y-68345812D01*
X58924180Y-68309502D01*
X59034494Y-68250537D01*
X59131185Y-68171185D01*
X59210537Y-68074494D01*
X59269502Y-67964180D01*
X59305812Y-67844482D01*
X59318072Y-67720000D01*
X59318072Y-65804286D01*
X60489787Y-66976002D01*
X60513586Y-67005001D01*
X60594024Y-67071015D01*
X60629311Y-67099974D01*
X60761340Y-67170546D01*
X60904601Y-67214003D01*
X61053587Y-67228677D01*
X61090920Y-67225000D01*
X62121928Y-67225000D01*
X62121928Y-67283270D01*
X61435764Y-67969435D01*
X61258102Y-68004774D01*
X61069744Y-68082795D01*
X60900226Y-68196063D01*
X60756063Y-68340226D01*
X60642795Y-68509744D01*
X60564774Y-68698102D01*
X60525000Y-68898061D01*
X60525000Y-69101939D01*
X60564774Y-69301898D01*
X60642795Y-69490256D01*
X60756063Y-69659774D01*
X60900226Y-69803937D01*
X61069744Y-69917205D01*
X61258102Y-69995226D01*
X61458061Y-70035000D01*
X61661939Y-70035000D01*
X61697215Y-70027983D01*
X59583248Y-72141951D01*
X59530724Y-72170026D01*
X59414999Y-72264999D01*
X59391201Y-72293997D01*
X52645199Y-79040000D01*
X50823072Y-79040000D01*
X50823072Y-77799436D01*
X50830506Y-77805537D01*
X50940820Y-77864502D01*
X51060518Y-77900812D01*
X51185000Y-77913072D01*
X53385000Y-77913072D01*
X53509482Y-77900812D01*
X53629180Y-77864502D01*
X53739494Y-77805537D01*
X53836185Y-77726185D01*
X53915537Y-77629494D01*
X53974502Y-77519180D01*
X54010812Y-77399482D01*
X54023072Y-77275000D01*
X54023072Y-74175000D01*
X54010812Y-74050518D01*
X53974502Y-73930820D01*
X53915537Y-73820506D01*
X53836185Y-73723815D01*
X53739494Y-73644463D01*
X53629180Y-73585498D01*
X53509482Y-73549188D01*
X53385000Y-73536928D01*
X51185000Y-73536928D01*
X51060518Y-73549188D01*
X50940820Y-73585498D01*
X50830506Y-73644463D01*
X50733815Y-73723815D01*
X50654463Y-73820506D01*
X50595498Y-73930820D01*
X50559188Y-74050518D01*
X50546928Y-74175000D01*
X50546928Y-77200564D01*
X50539494Y-77194463D01*
X50429180Y-77135498D01*
X50309482Y-77099188D01*
X50185000Y-77086928D01*
X49385000Y-77086928D01*
X49260518Y-77099188D01*
X49160000Y-77129680D01*
X49059482Y-77099188D01*
X48935000Y-77086928D01*
X48135000Y-77086928D01*
X48010518Y-77099188D01*
X47910000Y-77129680D01*
X47809482Y-77099188D01*
X47685000Y-77086928D01*
X46885000Y-77086928D01*
X46760518Y-77099188D01*
X46660000Y-77129680D01*
X46559482Y-77099188D01*
X46435000Y-77086928D01*
X46320750Y-77090000D01*
X46162000Y-77248750D01*
X45908000Y-77248750D01*
X45749250Y-77090000D01*
X45635000Y-77086928D01*
X45510518Y-77099188D01*
X45390820Y-77135498D01*
X45280506Y-77194463D01*
X45273072Y-77200564D01*
X45273072Y-74175000D01*
X45260812Y-74050518D01*
X45224502Y-73930820D01*
X45165537Y-73820506D01*
X45086185Y-73723815D01*
X44989494Y-73644463D01*
X44879180Y-73585498D01*
X44759482Y-73549188D01*
X44635000Y-73536928D01*
X42435000Y-73536928D01*
X42310518Y-73549188D01*
X42190820Y-73585498D01*
X42160000Y-73601972D01*
X42160000Y-67720000D01*
X51961928Y-67720000D01*
X51974188Y-67844482D01*
X52010498Y-67964180D01*
X52069463Y-68074494D01*
X52148815Y-68171185D01*
X52245506Y-68250537D01*
X52355820Y-68309502D01*
X52475518Y-68345812D01*
X52600000Y-68358072D01*
X52814250Y-68355000D01*
X52973000Y-68196250D01*
X52973000Y-66592000D01*
X53227000Y-66592000D01*
X53227000Y-68196250D01*
X53385750Y-68355000D01*
X53600000Y-68358072D01*
X53724482Y-68345812D01*
X53844180Y-68309502D01*
X53954494Y-68250537D01*
X54051185Y-68171185D01*
X54130537Y-68074494D01*
X54189502Y-67964180D01*
X54225812Y-67844482D01*
X54238072Y-67720000D01*
X54235000Y-66750750D01*
X54076250Y-66592000D01*
X53227000Y-66592000D01*
X52973000Y-66592000D01*
X52123750Y-66592000D01*
X51965000Y-66750750D01*
X51961928Y-67720000D01*
X42160000Y-67720000D01*
X42160000Y-65210000D01*
X51961928Y-65210000D01*
X51965000Y-66179250D01*
X52123750Y-66338000D01*
X52973000Y-66338000D01*
X52973000Y-64733750D01*
X53227000Y-64733750D01*
X53227000Y-66338000D01*
X54076250Y-66338000D01*
X54235000Y-66179250D01*
X54238072Y-65210000D01*
X54225812Y-65085518D01*
X54189502Y-64965820D01*
X54130537Y-64855506D01*
X54051185Y-64758815D01*
X53954494Y-64679463D01*
X53844180Y-64620498D01*
X53724482Y-64584188D01*
X53600000Y-64571928D01*
X53385750Y-64575000D01*
X53227000Y-64733750D01*
X52973000Y-64733750D01*
X52814250Y-64575000D01*
X52600000Y-64571928D01*
X52475518Y-64584188D01*
X52355820Y-64620498D01*
X52245506Y-64679463D01*
X52148815Y-64758815D01*
X52069463Y-64855506D01*
X52010498Y-64965820D01*
X51974188Y-65085518D01*
X51961928Y-65210000D01*
X42160000Y-65210000D01*
X42160000Y-61900000D01*
X54501928Y-61900000D01*
X54501928Y-64410000D01*
X54514188Y-64534482D01*
X54550498Y-64654180D01*
X54609463Y-64764494D01*
X54688815Y-64861185D01*
X54785506Y-64940537D01*
X54895820Y-64999502D01*
X55015518Y-65035812D01*
X55140000Y-65048072D01*
X56140000Y-65048072D01*
X56264482Y-65035812D01*
X56384180Y-64999502D01*
X56494494Y-64940537D01*
X56591185Y-64861185D01*
X56670537Y-64764494D01*
X56729502Y-64654180D01*
X56765812Y-64534482D01*
X56778072Y-64410000D01*
X56778072Y-61900000D01*
X56765812Y-61775518D01*
X56729502Y-61655820D01*
X56670537Y-61545506D01*
X56591185Y-61448815D01*
X56494494Y-61369463D01*
X56384180Y-61310498D01*
X56264482Y-61274188D01*
X56140000Y-61261928D01*
X55140000Y-61261928D01*
X55015518Y-61274188D01*
X54895820Y-61310498D01*
X54785506Y-61369463D01*
X54688815Y-61448815D01*
X54609463Y-61545506D01*
X54550498Y-61655820D01*
X54514188Y-61775518D01*
X54501928Y-61900000D01*
X42160000Y-61900000D01*
X42160000Y-27588824D01*
X43002176Y-27937665D01*
X43994247Y-28135000D01*
X45005753Y-28135000D01*
X45997824Y-27937665D01*
X46932335Y-27550578D01*
X47773372Y-26988615D01*
X48488615Y-26273372D01*
X49050578Y-25432335D01*
X49437665Y-24497824D01*
X49635000Y-23505753D01*
X49635000Y-22494247D01*
X49490913Y-21769872D01*
X51435000Y-21769872D01*
X51435000Y-22210128D01*
X51520890Y-22641925D01*
X51689369Y-23048669D01*
X51933962Y-23414729D01*
X52245271Y-23726038D01*
X52611331Y-23970631D01*
X53018075Y-24139110D01*
X53449872Y-24225000D01*
X53890128Y-24225000D01*
X54321925Y-24139110D01*
X54728669Y-23970631D01*
X55094729Y-23726038D01*
X55406038Y-23414729D01*
X55650631Y-23048669D01*
X55819110Y-22641925D01*
X55905000Y-22210128D01*
X55905000Y-21769872D01*
X55819110Y-21338075D01*
X55650631Y-20931331D01*
X55406038Y-20565271D01*
X55094729Y-20253962D01*
X54728669Y-20009369D01*
X54321925Y-19840890D01*
X53890128Y-19755000D01*
X53449872Y-19755000D01*
X53018075Y-19840890D01*
X52611331Y-20009369D01*
X52245271Y-20253962D01*
X51933962Y-20565271D01*
X51689369Y-20931331D01*
X51520890Y-21338075D01*
X51435000Y-21769872D01*
X49490913Y-21769872D01*
X49437665Y-21502176D01*
X49050578Y-20567665D01*
X48488615Y-19726628D01*
X47773372Y-19011385D01*
X46932335Y-18449422D01*
X45997824Y-18062335D01*
X45005753Y-17865000D01*
X43994247Y-17865000D01*
X43002176Y-18062335D01*
X42067665Y-18449422D01*
X41226628Y-19011385D01*
X40511385Y-19726628D01*
X39949422Y-20567665D01*
X39562335Y-21502176D01*
X39365000Y-22494247D01*
X39365000Y-23505753D01*
X39562335Y-24497824D01*
X39949422Y-25432335D01*
X40511385Y-26273372D01*
X40858013Y-26620000D01*
X12660000Y-26620000D01*
X12660000Y-24061913D01*
X12703346Y-24166560D01*
X13019074Y-24639080D01*
X13420920Y-25040926D01*
X13893440Y-25356654D01*
X14418477Y-25574131D01*
X14975852Y-25685000D01*
X15544148Y-25685000D01*
X16101523Y-25574131D01*
X16626560Y-25356654D01*
X17099080Y-25040926D01*
X17500926Y-24639080D01*
X17816654Y-24166560D01*
X18034131Y-23641523D01*
X18145000Y-23084148D01*
X18145000Y-22515852D01*
X18034131Y-21958477D01*
X17816654Y-21433440D01*
X17500926Y-20960920D01*
X17099080Y-20559074D01*
X16626560Y-20243346D01*
X16101523Y-20025869D01*
X15544148Y-19915000D01*
X14975852Y-19915000D01*
X14418477Y-20025869D01*
X13893440Y-20243346D01*
X13420920Y-20559074D01*
X13019074Y-20960920D01*
X12703346Y-21433440D01*
X12660000Y-21538087D01*
X12660000Y-12660000D01*
X109300000Y-12660000D01*
X109300000Y-21408516D01*
G36*
X70600001Y-33634803D02*
G01*
X70600000Y-66885198D01*
X69235076Y-68250123D01*
X69222856Y-68227261D01*
X69291185Y-68171185D01*
X69370537Y-68074494D01*
X69429502Y-67964180D01*
X69465812Y-67844482D01*
X69478072Y-67720000D01*
X69478072Y-65210000D01*
X69465812Y-65085518D01*
X69429502Y-64965820D01*
X69370537Y-64855506D01*
X69291185Y-64758815D01*
X69194494Y-64679463D01*
X69084180Y-64620498D01*
X68964482Y-64584188D01*
X68840000Y-64571928D01*
X67840000Y-64571928D01*
X67715518Y-64584188D01*
X67595820Y-64620498D01*
X67485506Y-64679463D01*
X67388815Y-64758815D01*
X67309463Y-64855506D01*
X67250498Y-64965820D01*
X67230743Y-65030942D01*
X66877129Y-64677328D01*
X66889502Y-64654180D01*
X66925812Y-64534482D01*
X66938072Y-64410000D01*
X66938072Y-61900000D01*
X66925812Y-61775518D01*
X66889502Y-61655820D01*
X66830537Y-61545506D01*
X66751185Y-61448815D01*
X66654494Y-61369463D01*
X66560000Y-61318954D01*
X66560000Y-60304801D01*
X69941003Y-56923799D01*
X69970001Y-56900001D01*
X70064974Y-56784276D01*
X70135546Y-56652247D01*
X70179003Y-56508986D01*
X70190000Y-56397333D01*
X70190000Y-56397324D01*
X70193676Y-56360001D01*
X70190000Y-56322678D01*
X70190000Y-36137325D01*
X70193676Y-36100000D01*
X70190000Y-36062675D01*
X70190000Y-36062667D01*
X70179003Y-35951014D01*
X70135546Y-35807753D01*
X70064974Y-35675724D01*
X69970001Y-35559999D01*
X69941004Y-35536202D01*
X69353803Y-34949002D01*
X69330001Y-34919999D01*
X69214276Y-34825026D01*
X69082247Y-34754454D01*
X68938986Y-34710997D01*
X68827333Y-34700000D01*
X68827322Y-34700000D01*
X68790000Y-34696324D01*
X68752678Y-34700000D01*
X68215166Y-34700000D01*
X68128072Y-34612906D01*
X68128072Y-33340000D01*
X68115812Y-33215518D01*
X68079502Y-33095820D01*
X68020537Y-32985506D01*
X68016018Y-32980000D01*
X69945199Y-32980000D01*
X70600001Y-33634803D01*
X70600001Y-33634803D01*
G37*
X70600001Y-33634803D02*
X70600000Y-66885198D01*
X69235076Y-68250123D01*
X69222856Y-68227261D01*
X69291185Y-68171185D01*
X69370537Y-68074494D01*
X69429502Y-67964180D01*
X69465812Y-67844482D01*
X69478072Y-67720000D01*
X69478072Y-65210000D01*
X69465812Y-65085518D01*
X69429502Y-64965820D01*
X69370537Y-64855506D01*
X69291185Y-64758815D01*
X69194494Y-64679463D01*
X69084180Y-64620498D01*
X68964482Y-64584188D01*
X68840000Y-64571928D01*
X67840000Y-64571928D01*
X67715518Y-64584188D01*
X67595820Y-64620498D01*
X67485506Y-64679463D01*
X67388815Y-64758815D01*
X67309463Y-64855506D01*
X67250498Y-64965820D01*
X67230743Y-65030942D01*
X66877129Y-64677328D01*
X66889502Y-64654180D01*
X66925812Y-64534482D01*
X66938072Y-64410000D01*
X66938072Y-61900000D01*
X66925812Y-61775518D01*
X66889502Y-61655820D01*
X66830537Y-61545506D01*
X66751185Y-61448815D01*
X66654494Y-61369463D01*
X66560000Y-61318954D01*
X66560000Y-60304801D01*
X69941003Y-56923799D01*
X69970001Y-56900001D01*
X70064974Y-56784276D01*
X70135546Y-56652247D01*
X70179003Y-56508986D01*
X70190000Y-56397333D01*
X70190000Y-56397324D01*
X70193676Y-56360001D01*
X70190000Y-56322678D01*
X70190000Y-36137325D01*
X70193676Y-36100000D01*
X70190000Y-36062675D01*
X70190000Y-36062667D01*
X70179003Y-35951014D01*
X70135546Y-35807753D01*
X70064974Y-35675724D01*
X69970001Y-35559999D01*
X69941004Y-35536202D01*
X69353803Y-34949002D01*
X69330001Y-34919999D01*
X69214276Y-34825026D01*
X69082247Y-34754454D01*
X68938986Y-34710997D01*
X68827333Y-34700000D01*
X68827322Y-34700000D01*
X68790000Y-34696324D01*
X68752678Y-34700000D01*
X68215166Y-34700000D01*
X68128072Y-34612906D01*
X68128072Y-33340000D01*
X68115812Y-33215518D01*
X68079502Y-33095820D01*
X68020537Y-32985506D01*
X68016018Y-32980000D01*
X69945199Y-32980000D01*
X70600001Y-33634803D01*
G36*
X68670000Y-36414802D02*
G01*
X68670000Y-38283792D01*
X68585750Y-38285000D01*
X68427000Y-38443750D01*
X68427000Y-40048000D01*
X68447000Y-40048000D01*
X68447000Y-40302000D01*
X68427000Y-40302000D01*
X68427000Y-41906250D01*
X68585750Y-42065000D01*
X68670000Y-42066208D01*
X68670001Y-56045197D01*
X65289003Y-59426196D01*
X65259999Y-59449999D01*
X65209940Y-59510997D01*
X65165026Y-59565724D01*
X65133328Y-59625026D01*
X65094454Y-59697754D01*
X65050997Y-59841015D01*
X65040000Y-59952668D01*
X65040000Y-59952678D01*
X65036324Y-59990000D01*
X65040000Y-60027323D01*
X65040000Y-61318954D01*
X64945506Y-61369463D01*
X64848815Y-61448815D01*
X64769463Y-61545506D01*
X64710498Y-61655820D01*
X64674188Y-61775518D01*
X64661928Y-61900000D01*
X64661928Y-64124999D01*
X61858072Y-64124999D01*
X61858072Y-61900000D01*
X61845812Y-61775518D01*
X61809502Y-61655820D01*
X61750537Y-61545506D01*
X61671185Y-61448815D01*
X61574494Y-61369463D01*
X61480000Y-61318954D01*
X61480000Y-60574801D01*
X67521003Y-54533799D01*
X67550001Y-54510001D01*
X67644974Y-54394276D01*
X67715546Y-54262247D01*
X67759003Y-54118986D01*
X67770000Y-54007333D01*
X67770000Y-54007324D01*
X67773676Y-53970001D01*
X67770000Y-53932678D01*
X67770000Y-42065117D01*
X67800000Y-42068072D01*
X68014250Y-42065000D01*
X68173000Y-41906250D01*
X68173000Y-40302000D01*
X68153000Y-40302000D01*
X68153000Y-40048000D01*
X68173000Y-40048000D01*
X68173000Y-38443750D01*
X68014250Y-38285000D01*
X67842055Y-38282531D01*
X67864494Y-38270537D01*
X67961185Y-38191185D01*
X68040537Y-38094494D01*
X68099502Y-37984180D01*
X68135812Y-37864482D01*
X68148072Y-37740000D01*
X68148072Y-36240000D01*
X68146102Y-36220000D01*
X68475199Y-36220000D01*
X68670000Y-36414802D01*
X68670000Y-36414802D01*
G37*
X68670000Y-36414802D02*
X68670000Y-38283792D01*
X68585750Y-38285000D01*
X68427000Y-38443750D01*
X68427000Y-40048000D01*
X68447000Y-40048000D01*
X68447000Y-40302000D01*
X68427000Y-40302000D01*
X68427000Y-41906250D01*
X68585750Y-42065000D01*
X68670000Y-42066208D01*
X68670001Y-56045197D01*
X65289003Y-59426196D01*
X65259999Y-59449999D01*
X65209940Y-59510997D01*
X65165026Y-59565724D01*
X65133328Y-59625026D01*
X65094454Y-59697754D01*
X65050997Y-59841015D01*
X65040000Y-59952668D01*
X65040000Y-59952678D01*
X65036324Y-59990000D01*
X65040000Y-60027323D01*
X65040000Y-61318954D01*
X64945506Y-61369463D01*
X64848815Y-61448815D01*
X64769463Y-61545506D01*
X64710498Y-61655820D01*
X64674188Y-61775518D01*
X64661928Y-61900000D01*
X64661928Y-64124999D01*
X61858072Y-64124999D01*
X61858072Y-61900000D01*
X61845812Y-61775518D01*
X61809502Y-61655820D01*
X61750537Y-61545506D01*
X61671185Y-61448815D01*
X61574494Y-61369463D01*
X61480000Y-61318954D01*
X61480000Y-60574801D01*
X67521003Y-54533799D01*
X67550001Y-54510001D01*
X67644974Y-54394276D01*
X67715546Y-54262247D01*
X67759003Y-54118986D01*
X67770000Y-54007333D01*
X67770000Y-54007324D01*
X67773676Y-53970001D01*
X67770000Y-53932678D01*
X67770000Y-42065117D01*
X67800000Y-42068072D01*
X68014250Y-42065000D01*
X68173000Y-41906250D01*
X68173000Y-40302000D01*
X68153000Y-40302000D01*
X68153000Y-40048000D01*
X68173000Y-40048000D01*
X68173000Y-38443750D01*
X68014250Y-38285000D01*
X67842055Y-38282531D01*
X67864494Y-38270537D01*
X67961185Y-38191185D01*
X68040537Y-38094494D01*
X68099502Y-37984180D01*
X68135812Y-37864482D01*
X68148072Y-37740000D01*
X68148072Y-36240000D01*
X68146102Y-36220000D01*
X68475199Y-36220000D01*
X68670000Y-36414802D01*
G36*
X64551928Y-34026730D02*
G01*
X64551928Y-34340000D01*
X64554336Y-34364450D01*
X64554336Y-34389009D01*
X64566596Y-34513490D01*
X64585718Y-34609623D01*
X64622027Y-34729319D01*
X64659536Y-34819875D01*
X64718502Y-34930192D01*
X64772958Y-35011691D01*
X64852310Y-35108382D01*
X64921618Y-35177690D01*
X64930000Y-35184569D01*
X64930001Y-35913927D01*
X64872310Y-35971618D01*
X64792958Y-36068309D01*
X64738502Y-36149808D01*
X64679536Y-36260125D01*
X64642027Y-36350681D01*
X64605718Y-36470377D01*
X64586596Y-36566510D01*
X64574336Y-36690991D01*
X64574336Y-36715550D01*
X64571928Y-36740000D01*
X64571928Y-37240000D01*
X64574336Y-37264450D01*
X64574336Y-37289009D01*
X64586596Y-37413490D01*
X64605718Y-37509623D01*
X64642027Y-37629319D01*
X64679536Y-37719875D01*
X64738502Y-37830192D01*
X64792958Y-37911691D01*
X64872310Y-38008382D01*
X64941618Y-38077690D01*
X64950000Y-38084569D01*
X64950001Y-41675680D01*
X64905506Y-41699463D01*
X64808815Y-41778815D01*
X64729463Y-41875506D01*
X64670498Y-41985820D01*
X64650743Y-42050942D01*
X64297129Y-41697328D01*
X64309502Y-41674180D01*
X64345812Y-41554482D01*
X64358072Y-41430000D01*
X64358072Y-38920000D01*
X64345812Y-38795518D01*
X64309502Y-38675820D01*
X64250537Y-38565506D01*
X64171185Y-38468815D01*
X64074494Y-38389463D01*
X63964180Y-38330498D01*
X63844482Y-38294188D01*
X63720000Y-38281928D01*
X62720000Y-38281928D01*
X62595518Y-38294188D01*
X62475820Y-38330498D01*
X62365506Y-38389463D01*
X62268815Y-38468815D01*
X62189463Y-38565506D01*
X62130498Y-38675820D01*
X62094188Y-38795518D01*
X62081928Y-38920000D01*
X62081928Y-41430000D01*
X62094188Y-41554482D01*
X62130498Y-41674180D01*
X62189463Y-41784494D01*
X62268815Y-41881185D01*
X62365506Y-41960537D01*
X62475820Y-42019502D01*
X62542508Y-42039732D01*
X62585026Y-42119276D01*
X62624871Y-42167826D01*
X62679999Y-42235001D01*
X62709003Y-42258804D01*
X64446201Y-43996003D01*
X64469999Y-44025001D01*
X64585724Y-44119974D01*
X64621928Y-44139326D01*
X64621928Y-44303269D01*
X61390000Y-47535199D01*
X60230000Y-46375199D01*
X60230000Y-45378072D01*
X61180000Y-45378072D01*
X61304482Y-45365812D01*
X61424180Y-45329502D01*
X61534494Y-45270537D01*
X61631185Y-45191185D01*
X61710537Y-45094494D01*
X61769502Y-44984180D01*
X61805812Y-44864482D01*
X61818072Y-44740000D01*
X61818072Y-42230000D01*
X61805812Y-42105518D01*
X61769502Y-41985820D01*
X61710537Y-41875506D01*
X61631185Y-41778815D01*
X61534494Y-41699463D01*
X61424180Y-41640498D01*
X61304482Y-41604188D01*
X61180000Y-41591928D01*
X60230000Y-41591928D01*
X60230000Y-38309665D01*
X60284494Y-38280537D01*
X60381185Y-38201185D01*
X60460537Y-38104494D01*
X60519502Y-37994180D01*
X60555812Y-37874482D01*
X60568072Y-37750000D01*
X60568072Y-36250000D01*
X60555812Y-36125518D01*
X60519502Y-36005820D01*
X60460537Y-35895506D01*
X60381185Y-35798815D01*
X60284494Y-35719463D01*
X60174180Y-35660498D01*
X60054482Y-35624188D01*
X59992600Y-35618093D01*
X60044974Y-35554276D01*
X60077923Y-35492634D01*
X60154180Y-35469502D01*
X60264494Y-35410537D01*
X60361185Y-35331185D01*
X60440537Y-35234494D01*
X60499502Y-35124180D01*
X60535812Y-35004482D01*
X60548072Y-34880000D01*
X60548072Y-33440000D01*
X63965199Y-33440000D01*
X64551928Y-34026730D01*
X64551928Y-34026730D01*
G37*
X64551928Y-34026730D02*
X64551928Y-34340000D01*
X64554336Y-34364450D01*
X64554336Y-34389009D01*
X64566596Y-34513490D01*
X64585718Y-34609623D01*
X64622027Y-34729319D01*
X64659536Y-34819875D01*
X64718502Y-34930192D01*
X64772958Y-35011691D01*
X64852310Y-35108382D01*
X64921618Y-35177690D01*
X64930000Y-35184569D01*
X64930001Y-35913927D01*
X64872310Y-35971618D01*
X64792958Y-36068309D01*
X64738502Y-36149808D01*
X64679536Y-36260125D01*
X64642027Y-36350681D01*
X64605718Y-36470377D01*
X64586596Y-36566510D01*
X64574336Y-36690991D01*
X64574336Y-36715550D01*
X64571928Y-36740000D01*
X64571928Y-37240000D01*
X64574336Y-37264450D01*
X64574336Y-37289009D01*
X64586596Y-37413490D01*
X64605718Y-37509623D01*
X64642027Y-37629319D01*
X64679536Y-37719875D01*
X64738502Y-37830192D01*
X64792958Y-37911691D01*
X64872310Y-38008382D01*
X64941618Y-38077690D01*
X64950000Y-38084569D01*
X64950001Y-41675680D01*
X64905506Y-41699463D01*
X64808815Y-41778815D01*
X64729463Y-41875506D01*
X64670498Y-41985820D01*
X64650743Y-42050942D01*
X64297129Y-41697328D01*
X64309502Y-41674180D01*
X64345812Y-41554482D01*
X64358072Y-41430000D01*
X64358072Y-38920000D01*
X64345812Y-38795518D01*
X64309502Y-38675820D01*
X64250537Y-38565506D01*
X64171185Y-38468815D01*
X64074494Y-38389463D01*
X63964180Y-38330498D01*
X63844482Y-38294188D01*
X63720000Y-38281928D01*
X62720000Y-38281928D01*
X62595518Y-38294188D01*
X62475820Y-38330498D01*
X62365506Y-38389463D01*
X62268815Y-38468815D01*
X62189463Y-38565506D01*
X62130498Y-38675820D01*
X62094188Y-38795518D01*
X62081928Y-38920000D01*
X62081928Y-41430000D01*
X62094188Y-41554482D01*
X62130498Y-41674180D01*
X62189463Y-41784494D01*
X62268815Y-41881185D01*
X62365506Y-41960537D01*
X62475820Y-42019502D01*
X62542508Y-42039732D01*
X62585026Y-42119276D01*
X62624871Y-42167826D01*
X62679999Y-42235001D01*
X62709003Y-42258804D01*
X64446201Y-43996003D01*
X64469999Y-44025001D01*
X64585724Y-44119974D01*
X64621928Y-44139326D01*
X64621928Y-44303269D01*
X61390000Y-47535199D01*
X60230000Y-46375199D01*
X60230000Y-45378072D01*
X61180000Y-45378072D01*
X61304482Y-45365812D01*
X61424180Y-45329502D01*
X61534494Y-45270537D01*
X61631185Y-45191185D01*
X61710537Y-45094494D01*
X61769502Y-44984180D01*
X61805812Y-44864482D01*
X61818072Y-44740000D01*
X61818072Y-42230000D01*
X61805812Y-42105518D01*
X61769502Y-41985820D01*
X61710537Y-41875506D01*
X61631185Y-41778815D01*
X61534494Y-41699463D01*
X61424180Y-41640498D01*
X61304482Y-41604188D01*
X61180000Y-41591928D01*
X60230000Y-41591928D01*
X60230000Y-38309665D01*
X60284494Y-38280537D01*
X60381185Y-38201185D01*
X60460537Y-38104494D01*
X60519502Y-37994180D01*
X60555812Y-37874482D01*
X60568072Y-37750000D01*
X60568072Y-36250000D01*
X60555812Y-36125518D01*
X60519502Y-36005820D01*
X60460537Y-35895506D01*
X60381185Y-35798815D01*
X60284494Y-35719463D01*
X60174180Y-35660498D01*
X60054482Y-35624188D01*
X59992600Y-35618093D01*
X60044974Y-35554276D01*
X60077923Y-35492634D01*
X60154180Y-35469502D01*
X60264494Y-35410537D01*
X60361185Y-35331185D01*
X60440537Y-35234494D01*
X60499502Y-35124180D01*
X60535812Y-35004482D01*
X60548072Y-34880000D01*
X60548072Y-33440000D01*
X63965199Y-33440000D01*
X64551928Y-34026730D01*
M02*
