G04 #@! TF.GenerationSoftware,KiCad,Pcbnew,(5.1.2)-2*
G04 #@! TF.CreationDate,2022-01-19T07:22:50-03:00*
G04 #@! TF.ProjectId,MAG_Plus,4d41475f-506c-4757-932e-6b696361645f,rev?*
G04 #@! TF.SameCoordinates,Original*
G04 #@! TF.FileFunction,Soldermask,Bot*
G04 #@! TF.FilePolarity,Negative*
%FSLAX46Y46*%
G04 Gerber Fmt 4.6, Leading zero omitted, Abs format (unit mm)*
G04 Created by KiCad (PCBNEW (5.1.2)-2) date 2022-01-19 07:22:50*
%MOMM*%
%LPD*%
G04 APERTURE LIST*
%ADD10C,0.100000*%
G04 APERTURE END LIST*
D10*
G36*
X96635256Y-83001298D02*
G01*
X96741579Y-83022447D01*
X96954037Y-83110450D01*
X97022536Y-83138823D01*
X97042042Y-83146903D01*
X97312451Y-83327585D01*
X97542415Y-83557549D01*
X97723097Y-83827958D01*
X97723098Y-83827960D01*
X97847553Y-84128422D01*
X97911000Y-84447389D01*
X97911000Y-84772611D01*
X97887663Y-84889932D01*
X97847553Y-85091579D01*
X97723097Y-85392042D01*
X97542415Y-85662451D01*
X97312451Y-85892415D01*
X97042042Y-86073097D01*
X96741579Y-86197553D01*
X96635256Y-86218702D01*
X96422611Y-86261000D01*
X96097389Y-86261000D01*
X95884744Y-86218702D01*
X95778421Y-86197553D01*
X95477958Y-86073097D01*
X95207549Y-85892415D01*
X94977585Y-85662451D01*
X94796903Y-85392042D01*
X94672447Y-85091579D01*
X94632337Y-84889932D01*
X94609000Y-84772611D01*
X94609000Y-84447389D01*
X94672447Y-84128422D01*
X94796902Y-83827960D01*
X94796903Y-83827958D01*
X94977585Y-83557549D01*
X95207549Y-83327585D01*
X95477958Y-83146903D01*
X95497465Y-83138823D01*
X95565963Y-83110450D01*
X95778421Y-83022447D01*
X95884744Y-83001298D01*
X96097389Y-82959000D01*
X96422611Y-82959000D01*
X96635256Y-83001298D01*
X96635256Y-83001298D01*
G37*
G36*
X54045256Y-83001298D02*
G01*
X54151579Y-83022447D01*
X54364037Y-83110450D01*
X54432536Y-83138823D01*
X54452042Y-83146903D01*
X54722451Y-83327585D01*
X54952415Y-83557549D01*
X55133097Y-83827958D01*
X55133098Y-83827960D01*
X55257553Y-84128422D01*
X55321000Y-84447389D01*
X55321000Y-84772611D01*
X55297663Y-84889932D01*
X55257553Y-85091579D01*
X55133097Y-85392042D01*
X54952415Y-85662451D01*
X54722451Y-85892415D01*
X54452042Y-86073097D01*
X54151579Y-86197553D01*
X54045256Y-86218702D01*
X53832611Y-86261000D01*
X53507389Y-86261000D01*
X53294744Y-86218702D01*
X53188421Y-86197553D01*
X52887958Y-86073097D01*
X52617549Y-85892415D01*
X52387585Y-85662451D01*
X52206903Y-85392042D01*
X52082447Y-85091579D01*
X52042337Y-84889932D01*
X52019000Y-84772611D01*
X52019000Y-84447389D01*
X52082447Y-84128422D01*
X52206902Y-83827960D01*
X52206903Y-83827958D01*
X52387585Y-83557549D01*
X52617549Y-83327585D01*
X52887958Y-83146903D01*
X52907465Y-83138823D01*
X52975963Y-83110450D01*
X53188421Y-83022447D01*
X53294744Y-83001298D01*
X53507389Y-82959000D01*
X53832611Y-82959000D01*
X54045256Y-83001298D01*
X54045256Y-83001298D01*
G37*
G36*
X15708903Y-81553213D02*
G01*
X15931177Y-81597426D01*
X16349932Y-81770880D01*
X16726802Y-82022696D01*
X17047304Y-82343198D01*
X17299120Y-82720068D01*
X17468432Y-83128824D01*
X17472574Y-83138824D01*
X17561000Y-83583370D01*
X17561000Y-84036630D01*
X17542741Y-84128422D01*
X17472574Y-84481177D01*
X17299120Y-84899932D01*
X17047304Y-85276802D01*
X16726802Y-85597304D01*
X16349932Y-85849120D01*
X15931177Y-86022574D01*
X15708903Y-86066787D01*
X15486630Y-86111000D01*
X15033370Y-86111000D01*
X14811097Y-86066787D01*
X14588823Y-86022574D01*
X14170068Y-85849120D01*
X13793198Y-85597304D01*
X13472696Y-85276802D01*
X13220880Y-84899932D01*
X13047426Y-84481177D01*
X12977259Y-84128422D01*
X12959000Y-84036630D01*
X12959000Y-83583370D01*
X13047426Y-83138824D01*
X13051568Y-83128824D01*
X13220880Y-82720068D01*
X13472696Y-82343198D01*
X13793198Y-82022696D01*
X14170068Y-81770880D01*
X14588823Y-81597426D01*
X14811097Y-81553213D01*
X15033370Y-81509000D01*
X15486630Y-81509000D01*
X15708903Y-81553213D01*
X15708903Y-81553213D01*
G37*
G36*
X107208903Y-81543213D02*
G01*
X107431177Y-81587426D01*
X107849932Y-81760880D01*
X108226802Y-82012696D01*
X108547304Y-82333198D01*
X108799120Y-82710068D01*
X108972574Y-83128823D01*
X109061000Y-83573371D01*
X109061000Y-84026629D01*
X108972574Y-84471177D01*
X108799120Y-84889932D01*
X108547304Y-85266802D01*
X108226802Y-85587304D01*
X107849932Y-85839120D01*
X107431177Y-86012574D01*
X107208903Y-86056787D01*
X106986630Y-86101000D01*
X106533370Y-86101000D01*
X106311097Y-86056787D01*
X106088823Y-86012574D01*
X105670068Y-85839120D01*
X105293198Y-85587304D01*
X104972696Y-85266802D01*
X104720880Y-84889932D01*
X104547426Y-84471177D01*
X104459000Y-84026629D01*
X104459000Y-83573371D01*
X104547426Y-83128823D01*
X104720880Y-82710068D01*
X104972696Y-82333198D01*
X105293198Y-82012696D01*
X105670068Y-81760880D01*
X106088823Y-81587426D01*
X106311097Y-81543213D01*
X106533370Y-81499000D01*
X106986630Y-81499000D01*
X107208903Y-81543213D01*
X107208903Y-81543213D01*
G37*
G36*
X50236000Y-79276000D02*
G01*
X49334000Y-79276000D01*
X49334000Y-77674000D01*
X50236000Y-77674000D01*
X50236000Y-79276000D01*
X50236000Y-79276000D01*
G37*
G36*
X48986000Y-79276000D02*
G01*
X48084000Y-79276000D01*
X48084000Y-77674000D01*
X48986000Y-77674000D01*
X48986000Y-79276000D01*
X48986000Y-79276000D01*
G37*
G36*
X47736000Y-79276000D02*
G01*
X46834000Y-79276000D01*
X46834000Y-77674000D01*
X47736000Y-77674000D01*
X47736000Y-79276000D01*
X47736000Y-79276000D01*
G37*
G36*
X46486000Y-79276000D02*
G01*
X45584000Y-79276000D01*
X45584000Y-77674000D01*
X46486000Y-77674000D01*
X46486000Y-79276000D01*
X46486000Y-79276000D01*
G37*
G36*
X53436000Y-77326000D02*
G01*
X51134000Y-77326000D01*
X51134000Y-74124000D01*
X53436000Y-74124000D01*
X53436000Y-77326000D01*
X53436000Y-77326000D01*
G37*
G36*
X44686000Y-77326000D02*
G01*
X42384000Y-77326000D01*
X42384000Y-74124000D01*
X44686000Y-74124000D01*
X44686000Y-77326000D01*
X44686000Y-77326000D01*
G37*
G36*
X63601000Y-69901000D02*
G01*
X62899000Y-69901000D01*
X62899000Y-69399000D01*
X63601000Y-69399000D01*
X63601000Y-69901000D01*
X63601000Y-69901000D01*
G37*
G36*
X68721000Y-69891000D02*
G01*
X68019000Y-69891000D01*
X68019000Y-69389000D01*
X68721000Y-69389000D01*
X68721000Y-69891000D01*
X68721000Y-69891000D01*
G37*
G36*
X63601000Y-69001000D02*
G01*
X62899000Y-69001000D01*
X62899000Y-68499000D01*
X63601000Y-68499000D01*
X63601000Y-69001000D01*
X63601000Y-69001000D01*
G37*
G36*
X68721000Y-68991000D02*
G01*
X68019000Y-68991000D01*
X68019000Y-68489000D01*
X68721000Y-68489000D01*
X68721000Y-68991000D01*
X68721000Y-68991000D01*
G37*
G36*
X63811000Y-67771000D02*
G01*
X62709000Y-67771000D01*
X62709000Y-65159000D01*
X63811000Y-65159000D01*
X63811000Y-67771000D01*
X63811000Y-67771000D01*
G37*
G36*
X58731000Y-67771000D02*
G01*
X57629000Y-67771000D01*
X57629000Y-65159000D01*
X58731000Y-65159000D01*
X58731000Y-67771000D01*
X58731000Y-67771000D01*
G37*
G36*
X68891000Y-67771000D02*
G01*
X67789000Y-67771000D01*
X67789000Y-65159000D01*
X68891000Y-65159000D01*
X68891000Y-67771000D01*
X68891000Y-67771000D01*
G37*
G36*
X53651000Y-67771000D02*
G01*
X52549000Y-67771000D01*
X52549000Y-65159000D01*
X53651000Y-65159000D01*
X53651000Y-67771000D01*
X53651000Y-67771000D01*
G37*
G36*
X66351000Y-64461000D02*
G01*
X65249000Y-64461000D01*
X65249000Y-61849000D01*
X66351000Y-61849000D01*
X66351000Y-64461000D01*
X66351000Y-64461000D01*
G37*
G36*
X61271000Y-64461000D02*
G01*
X60169000Y-64461000D01*
X60169000Y-61849000D01*
X61271000Y-61849000D01*
X61271000Y-64461000D01*
X61271000Y-64461000D01*
G37*
G36*
X56191000Y-64461000D02*
G01*
X55089000Y-64461000D01*
X55089000Y-61849000D01*
X56191000Y-61849000D01*
X56191000Y-64461000D01*
X56191000Y-64461000D01*
G37*
G36*
X62021000Y-56056000D02*
G01*
X59519000Y-56056000D01*
X59519000Y-54504000D01*
X62021000Y-54504000D01*
X62021000Y-56056000D01*
X62021000Y-56056000D01*
G37*
G36*
X62021000Y-51656000D02*
G01*
X59519000Y-51656000D01*
X59519000Y-50104000D01*
X62021000Y-50104000D01*
X62021000Y-51656000D01*
X62021000Y-51656000D01*
G37*
G36*
X66311000Y-44791000D02*
G01*
X65209000Y-44791000D01*
X65209000Y-42179000D01*
X66311000Y-42179000D01*
X66311000Y-44791000D01*
X66311000Y-44791000D01*
G37*
G36*
X61231000Y-44791000D02*
G01*
X60129000Y-44791000D01*
X60129000Y-42179000D01*
X61231000Y-42179000D01*
X61231000Y-44791000D01*
X61231000Y-44791000D01*
G37*
G36*
X56151000Y-44791000D02*
G01*
X55049000Y-44791000D01*
X55049000Y-42179000D01*
X56151000Y-42179000D01*
X56151000Y-44791000D01*
X56151000Y-44791000D01*
G37*
G36*
X68851000Y-41481000D02*
G01*
X67749000Y-41481000D01*
X67749000Y-38869000D01*
X68851000Y-38869000D01*
X68851000Y-41481000D01*
X68851000Y-41481000D01*
G37*
G36*
X63771000Y-41481000D02*
G01*
X62669000Y-41481000D01*
X62669000Y-38869000D01*
X63771000Y-38869000D01*
X63771000Y-41481000D01*
X63771000Y-41481000D01*
G37*
G36*
X58691000Y-41481000D02*
G01*
X57589000Y-41481000D01*
X57589000Y-38869000D01*
X58691000Y-38869000D01*
X58691000Y-41481000D01*
X58691000Y-41481000D01*
G37*
G36*
X53611000Y-41481000D02*
G01*
X52509000Y-41481000D01*
X52509000Y-38869000D01*
X53611000Y-38869000D01*
X53611000Y-41481000D01*
X53611000Y-41481000D01*
G37*
G36*
X58689999Y-36199737D02*
G01*
X58704528Y-36204145D01*
X58717711Y-36209606D01*
X58741745Y-36214388D01*
X58766249Y-36214389D01*
X58790282Y-36209609D01*
X58812921Y-36200232D01*
X58814765Y-36199000D01*
X60046050Y-36199000D01*
X60058164Y-36205475D01*
X60081613Y-36212588D01*
X60105999Y-36214990D01*
X60130385Y-36212588D01*
X60153834Y-36205475D01*
X60158746Y-36203152D01*
X60170001Y-36199737D01*
X60186140Y-36198148D01*
X60723861Y-36198148D01*
X60742199Y-36199954D01*
X60754450Y-36200556D01*
X60772869Y-36200556D01*
X60795149Y-36202750D01*
X60879233Y-36219476D01*
X60900660Y-36225976D01*
X60979858Y-36258780D01*
X60985303Y-36261691D01*
X60985309Y-36261693D01*
X60994169Y-36266429D01*
X60994173Y-36266432D01*
X60999614Y-36269340D01*
X61070899Y-36316971D01*
X61088204Y-36331172D01*
X61148828Y-36391796D01*
X61163029Y-36409101D01*
X61210660Y-36480386D01*
X61213568Y-36485827D01*
X61213571Y-36485831D01*
X61218307Y-36494691D01*
X61218309Y-36494697D01*
X61221220Y-36500142D01*
X61254024Y-36579340D01*
X61260524Y-36600767D01*
X61277250Y-36684851D01*
X61279444Y-36707131D01*
X61279444Y-36725550D01*
X61280046Y-36737801D01*
X61281852Y-36756139D01*
X61281852Y-37243862D01*
X61280046Y-37262199D01*
X61279444Y-37274450D01*
X61279444Y-37292869D01*
X61277250Y-37315149D01*
X61260524Y-37399233D01*
X61254024Y-37420660D01*
X61221220Y-37499858D01*
X61218309Y-37505303D01*
X61218307Y-37505309D01*
X61213571Y-37514169D01*
X61213568Y-37514173D01*
X61210660Y-37519614D01*
X61163029Y-37590899D01*
X61148828Y-37608204D01*
X61088204Y-37668828D01*
X61070899Y-37683029D01*
X60999614Y-37730660D01*
X60994173Y-37733568D01*
X60994169Y-37733571D01*
X60985309Y-37738307D01*
X60985303Y-37738309D01*
X60979858Y-37741220D01*
X60900660Y-37774024D01*
X60879233Y-37780524D01*
X60795149Y-37797250D01*
X60772869Y-37799444D01*
X60754450Y-37799444D01*
X60742199Y-37800046D01*
X60723862Y-37801852D01*
X60186140Y-37801852D01*
X60170001Y-37800263D01*
X60155472Y-37795855D01*
X60142289Y-37790394D01*
X60118255Y-37785612D01*
X60093751Y-37785611D01*
X60069718Y-37790391D01*
X60047079Y-37799768D01*
X60045235Y-37801000D01*
X58813950Y-37801000D01*
X58801836Y-37794525D01*
X58778387Y-37787412D01*
X58754001Y-37785010D01*
X58729615Y-37787412D01*
X58706166Y-37794525D01*
X58701254Y-37796848D01*
X58689999Y-37800263D01*
X58673860Y-37801852D01*
X58136138Y-37801852D01*
X58117801Y-37800046D01*
X58105550Y-37799444D01*
X58087131Y-37799444D01*
X58064851Y-37797250D01*
X57980767Y-37780524D01*
X57959340Y-37774024D01*
X57880142Y-37741220D01*
X57874697Y-37738309D01*
X57874691Y-37738307D01*
X57865831Y-37733571D01*
X57865827Y-37733568D01*
X57860386Y-37730660D01*
X57789101Y-37683029D01*
X57771796Y-37668828D01*
X57711172Y-37608204D01*
X57696971Y-37590899D01*
X57649340Y-37519614D01*
X57646432Y-37514173D01*
X57646429Y-37514169D01*
X57641693Y-37505309D01*
X57641691Y-37505303D01*
X57638780Y-37499858D01*
X57605976Y-37420660D01*
X57599476Y-37399233D01*
X57582750Y-37315149D01*
X57580556Y-37292869D01*
X57580556Y-37274450D01*
X57579954Y-37262199D01*
X57578148Y-37243862D01*
X57578148Y-36756139D01*
X57579954Y-36737801D01*
X57580556Y-36725550D01*
X57580556Y-36707131D01*
X57582750Y-36684851D01*
X57599476Y-36600767D01*
X57605976Y-36579340D01*
X57638780Y-36500142D01*
X57641691Y-36494697D01*
X57641693Y-36494691D01*
X57646429Y-36485831D01*
X57646432Y-36485827D01*
X57649340Y-36480386D01*
X57696971Y-36409101D01*
X57711172Y-36391796D01*
X57771796Y-36331172D01*
X57789101Y-36316971D01*
X57860386Y-36269340D01*
X57865827Y-36266432D01*
X57865831Y-36266429D01*
X57874691Y-36261693D01*
X57874697Y-36261691D01*
X57880142Y-36258780D01*
X57959340Y-36225976D01*
X57980767Y-36219476D01*
X58064851Y-36202750D01*
X58087131Y-36200556D01*
X58105550Y-36200556D01*
X58117801Y-36199954D01*
X58136139Y-36198148D01*
X58673860Y-36198148D01*
X58689999Y-36199737D01*
X58689999Y-36199737D01*
G37*
G36*
X66269999Y-36189737D02*
G01*
X66284528Y-36194145D01*
X66297711Y-36199606D01*
X66321745Y-36204388D01*
X66346249Y-36204389D01*
X66370282Y-36199609D01*
X66392921Y-36190232D01*
X66394765Y-36189000D01*
X67626050Y-36189000D01*
X67638164Y-36195475D01*
X67661613Y-36202588D01*
X67685999Y-36204990D01*
X67710385Y-36202588D01*
X67733834Y-36195475D01*
X67738746Y-36193152D01*
X67750001Y-36189737D01*
X67766140Y-36188148D01*
X68303861Y-36188148D01*
X68322199Y-36189954D01*
X68334450Y-36190556D01*
X68352869Y-36190556D01*
X68375149Y-36192750D01*
X68459233Y-36209476D01*
X68480660Y-36215976D01*
X68559858Y-36248780D01*
X68565303Y-36251691D01*
X68565309Y-36251693D01*
X68574169Y-36256429D01*
X68574173Y-36256432D01*
X68579614Y-36259340D01*
X68650899Y-36306971D01*
X68668204Y-36321172D01*
X68728828Y-36381796D01*
X68743029Y-36399101D01*
X68790660Y-36470386D01*
X68793568Y-36475827D01*
X68793571Y-36475831D01*
X68798307Y-36484691D01*
X68798309Y-36484697D01*
X68801220Y-36490142D01*
X68834024Y-36569340D01*
X68840524Y-36590767D01*
X68857250Y-36674851D01*
X68859444Y-36697131D01*
X68859444Y-36715550D01*
X68860046Y-36727801D01*
X68861852Y-36746139D01*
X68861852Y-37233862D01*
X68860046Y-37252199D01*
X68859444Y-37264450D01*
X68859444Y-37282869D01*
X68857250Y-37305149D01*
X68840524Y-37389233D01*
X68834024Y-37410660D01*
X68801220Y-37489858D01*
X68798309Y-37495303D01*
X68798307Y-37495309D01*
X68793571Y-37504169D01*
X68793568Y-37504173D01*
X68790660Y-37509614D01*
X68743029Y-37580899D01*
X68728828Y-37598204D01*
X68668204Y-37658828D01*
X68650899Y-37673029D01*
X68579614Y-37720660D01*
X68574173Y-37723568D01*
X68574169Y-37723571D01*
X68565309Y-37728307D01*
X68565303Y-37728309D01*
X68559858Y-37731220D01*
X68480660Y-37764024D01*
X68459233Y-37770524D01*
X68375149Y-37787250D01*
X68352869Y-37789444D01*
X68334450Y-37789444D01*
X68322199Y-37790046D01*
X68303862Y-37791852D01*
X67766140Y-37791852D01*
X67750001Y-37790263D01*
X67735472Y-37785855D01*
X67722289Y-37780394D01*
X67698255Y-37775612D01*
X67673751Y-37775611D01*
X67649718Y-37780391D01*
X67627079Y-37789768D01*
X67625235Y-37791000D01*
X66393950Y-37791000D01*
X66381836Y-37784525D01*
X66358387Y-37777412D01*
X66334001Y-37775010D01*
X66309615Y-37777412D01*
X66286166Y-37784525D01*
X66281254Y-37786848D01*
X66269999Y-37790263D01*
X66253860Y-37791852D01*
X65716138Y-37791852D01*
X65697801Y-37790046D01*
X65685550Y-37789444D01*
X65667131Y-37789444D01*
X65644851Y-37787250D01*
X65560767Y-37770524D01*
X65539340Y-37764024D01*
X65460142Y-37731220D01*
X65454697Y-37728309D01*
X65454691Y-37728307D01*
X65445831Y-37723571D01*
X65445827Y-37723568D01*
X65440386Y-37720660D01*
X65369101Y-37673029D01*
X65351796Y-37658828D01*
X65291172Y-37598204D01*
X65276971Y-37580899D01*
X65229340Y-37509614D01*
X65226432Y-37504173D01*
X65226429Y-37504169D01*
X65221693Y-37495309D01*
X65221691Y-37495303D01*
X65218780Y-37489858D01*
X65185976Y-37410660D01*
X65179476Y-37389233D01*
X65162750Y-37305149D01*
X65160556Y-37282869D01*
X65160556Y-37264450D01*
X65159954Y-37252199D01*
X65158148Y-37233862D01*
X65158148Y-36746139D01*
X65159954Y-36727801D01*
X65160556Y-36715550D01*
X65160556Y-36697131D01*
X65162750Y-36674851D01*
X65179476Y-36590767D01*
X65185976Y-36569340D01*
X65218780Y-36490142D01*
X65221691Y-36484697D01*
X65221693Y-36484691D01*
X65226429Y-36475831D01*
X65226432Y-36475827D01*
X65229340Y-36470386D01*
X65276971Y-36399101D01*
X65291172Y-36381796D01*
X65351796Y-36321172D01*
X65369101Y-36306971D01*
X65440386Y-36259340D01*
X65445827Y-36256432D01*
X65445831Y-36256429D01*
X65454691Y-36251693D01*
X65454697Y-36251691D01*
X65460142Y-36248780D01*
X65539340Y-36215976D01*
X65560767Y-36209476D01*
X65644851Y-36192750D01*
X65667131Y-36190556D01*
X65685550Y-36190556D01*
X65697801Y-36189954D01*
X65716139Y-36188148D01*
X66253860Y-36188148D01*
X66269999Y-36189737D01*
X66269999Y-36189737D01*
G37*
G36*
X58669999Y-33329737D02*
G01*
X58684528Y-33334145D01*
X58697711Y-33339606D01*
X58721745Y-33344388D01*
X58746249Y-33344389D01*
X58770282Y-33339609D01*
X58792921Y-33330232D01*
X58794765Y-33329000D01*
X60026050Y-33329000D01*
X60038164Y-33335475D01*
X60061613Y-33342588D01*
X60085999Y-33344990D01*
X60110385Y-33342588D01*
X60133834Y-33335475D01*
X60138746Y-33333152D01*
X60150001Y-33329737D01*
X60166140Y-33328148D01*
X60703861Y-33328148D01*
X60722199Y-33329954D01*
X60734450Y-33330556D01*
X60752869Y-33330556D01*
X60775149Y-33332750D01*
X60859233Y-33349476D01*
X60880660Y-33355976D01*
X60959858Y-33388780D01*
X60965303Y-33391691D01*
X60965309Y-33391693D01*
X60974169Y-33396429D01*
X60974173Y-33396432D01*
X60979614Y-33399340D01*
X61050899Y-33446971D01*
X61068204Y-33461172D01*
X61128828Y-33521796D01*
X61143029Y-33539101D01*
X61190660Y-33610386D01*
X61193568Y-33615827D01*
X61193571Y-33615831D01*
X61198307Y-33624691D01*
X61198309Y-33624697D01*
X61201220Y-33630142D01*
X61234024Y-33709340D01*
X61240524Y-33730767D01*
X61257250Y-33814851D01*
X61259444Y-33837131D01*
X61259444Y-33855550D01*
X61260046Y-33867801D01*
X61261852Y-33886139D01*
X61261852Y-34373862D01*
X61260046Y-34392199D01*
X61259444Y-34404450D01*
X61259444Y-34422869D01*
X61257250Y-34445149D01*
X61240524Y-34529233D01*
X61234024Y-34550660D01*
X61201220Y-34629858D01*
X61198309Y-34635303D01*
X61198307Y-34635309D01*
X61193571Y-34644169D01*
X61193568Y-34644173D01*
X61190660Y-34649614D01*
X61143029Y-34720899D01*
X61128828Y-34738204D01*
X61068204Y-34798828D01*
X61050899Y-34813029D01*
X60979614Y-34860660D01*
X60974173Y-34863568D01*
X60974169Y-34863571D01*
X60965309Y-34868307D01*
X60965303Y-34868309D01*
X60959858Y-34871220D01*
X60880660Y-34904024D01*
X60859233Y-34910524D01*
X60775149Y-34927250D01*
X60752869Y-34929444D01*
X60734450Y-34929444D01*
X60722199Y-34930046D01*
X60703862Y-34931852D01*
X60166140Y-34931852D01*
X60150001Y-34930263D01*
X60135472Y-34925855D01*
X60122289Y-34920394D01*
X60098255Y-34915612D01*
X60073751Y-34915611D01*
X60049718Y-34920391D01*
X60027079Y-34929768D01*
X60025235Y-34931000D01*
X58793950Y-34931000D01*
X58781836Y-34924525D01*
X58758387Y-34917412D01*
X58734001Y-34915010D01*
X58709615Y-34917412D01*
X58686166Y-34924525D01*
X58681254Y-34926848D01*
X58669999Y-34930263D01*
X58653860Y-34931852D01*
X58116138Y-34931852D01*
X58097801Y-34930046D01*
X58085550Y-34929444D01*
X58067131Y-34929444D01*
X58044851Y-34927250D01*
X57960767Y-34910524D01*
X57939340Y-34904024D01*
X57860142Y-34871220D01*
X57854697Y-34868309D01*
X57854691Y-34868307D01*
X57845831Y-34863571D01*
X57845827Y-34863568D01*
X57840386Y-34860660D01*
X57769101Y-34813029D01*
X57751796Y-34798828D01*
X57691172Y-34738204D01*
X57676971Y-34720899D01*
X57629340Y-34649614D01*
X57626432Y-34644173D01*
X57626429Y-34644169D01*
X57621693Y-34635309D01*
X57621691Y-34635303D01*
X57618780Y-34629858D01*
X57585976Y-34550660D01*
X57579476Y-34529233D01*
X57562750Y-34445149D01*
X57560556Y-34422869D01*
X57560556Y-34404450D01*
X57559954Y-34392199D01*
X57558148Y-34373862D01*
X57558148Y-33886139D01*
X57559954Y-33867801D01*
X57560556Y-33855550D01*
X57560556Y-33837131D01*
X57562750Y-33814851D01*
X57579476Y-33730767D01*
X57585976Y-33709340D01*
X57618780Y-33630142D01*
X57621691Y-33624697D01*
X57621693Y-33624691D01*
X57626429Y-33615831D01*
X57626432Y-33615827D01*
X57629340Y-33610386D01*
X57676971Y-33539101D01*
X57691172Y-33521796D01*
X57751796Y-33461172D01*
X57769101Y-33446971D01*
X57840386Y-33399340D01*
X57845827Y-33396432D01*
X57845831Y-33396429D01*
X57854691Y-33391693D01*
X57854697Y-33391691D01*
X57860142Y-33388780D01*
X57939340Y-33355976D01*
X57960767Y-33349476D01*
X58044851Y-33332750D01*
X58067131Y-33330556D01*
X58085550Y-33330556D01*
X58097801Y-33329954D01*
X58116139Y-33328148D01*
X58653860Y-33328148D01*
X58669999Y-33329737D01*
X58669999Y-33329737D01*
G37*
G36*
X66249999Y-33289737D02*
G01*
X66264528Y-33294145D01*
X66277711Y-33299606D01*
X66301745Y-33304388D01*
X66326249Y-33304389D01*
X66350282Y-33299609D01*
X66372921Y-33290232D01*
X66374765Y-33289000D01*
X67606050Y-33289000D01*
X67618164Y-33295475D01*
X67641613Y-33302588D01*
X67665999Y-33304990D01*
X67690385Y-33302588D01*
X67713834Y-33295475D01*
X67718746Y-33293152D01*
X67730001Y-33289737D01*
X67746140Y-33288148D01*
X68283861Y-33288148D01*
X68302199Y-33289954D01*
X68314450Y-33290556D01*
X68332869Y-33290556D01*
X68355149Y-33292750D01*
X68439233Y-33309476D01*
X68460660Y-33315976D01*
X68539858Y-33348780D01*
X68545303Y-33351691D01*
X68545309Y-33351693D01*
X68554169Y-33356429D01*
X68554173Y-33356432D01*
X68559614Y-33359340D01*
X68630899Y-33406971D01*
X68648204Y-33421172D01*
X68708828Y-33481796D01*
X68723029Y-33499101D01*
X68770660Y-33570386D01*
X68773568Y-33575827D01*
X68773571Y-33575831D01*
X68778307Y-33584691D01*
X68778309Y-33584697D01*
X68781220Y-33590142D01*
X68814024Y-33669340D01*
X68820524Y-33690767D01*
X68837250Y-33774851D01*
X68839444Y-33797131D01*
X68839444Y-33815550D01*
X68840046Y-33827801D01*
X68841852Y-33846139D01*
X68841852Y-34333862D01*
X68840046Y-34352199D01*
X68839444Y-34364450D01*
X68839444Y-34382869D01*
X68837250Y-34405149D01*
X68820524Y-34489233D01*
X68814024Y-34510660D01*
X68781220Y-34589858D01*
X68778309Y-34595303D01*
X68778307Y-34595309D01*
X68773571Y-34604169D01*
X68773568Y-34604173D01*
X68770660Y-34609614D01*
X68723029Y-34680899D01*
X68708828Y-34698204D01*
X68648204Y-34758828D01*
X68630899Y-34773029D01*
X68559614Y-34820660D01*
X68554173Y-34823568D01*
X68554169Y-34823571D01*
X68545309Y-34828307D01*
X68545303Y-34828309D01*
X68539858Y-34831220D01*
X68460660Y-34864024D01*
X68439233Y-34870524D01*
X68355149Y-34887250D01*
X68332869Y-34889444D01*
X68314450Y-34889444D01*
X68302199Y-34890046D01*
X68283862Y-34891852D01*
X67746140Y-34891852D01*
X67730001Y-34890263D01*
X67715472Y-34885855D01*
X67702289Y-34880394D01*
X67678255Y-34875612D01*
X67653751Y-34875611D01*
X67629718Y-34880391D01*
X67607079Y-34889768D01*
X67605235Y-34891000D01*
X66373950Y-34891000D01*
X66361836Y-34884525D01*
X66338387Y-34877412D01*
X66314001Y-34875010D01*
X66289615Y-34877412D01*
X66266166Y-34884525D01*
X66261254Y-34886848D01*
X66249999Y-34890263D01*
X66233860Y-34891852D01*
X65696138Y-34891852D01*
X65677801Y-34890046D01*
X65665550Y-34889444D01*
X65647131Y-34889444D01*
X65624851Y-34887250D01*
X65540767Y-34870524D01*
X65519340Y-34864024D01*
X65440142Y-34831220D01*
X65434697Y-34828309D01*
X65434691Y-34828307D01*
X65425831Y-34823571D01*
X65425827Y-34823568D01*
X65420386Y-34820660D01*
X65349101Y-34773029D01*
X65331796Y-34758828D01*
X65271172Y-34698204D01*
X65256971Y-34680899D01*
X65209340Y-34609614D01*
X65206432Y-34604173D01*
X65206429Y-34604169D01*
X65201693Y-34595309D01*
X65201691Y-34595303D01*
X65198780Y-34589858D01*
X65165976Y-34510660D01*
X65159476Y-34489233D01*
X65142750Y-34405149D01*
X65140556Y-34382869D01*
X65140556Y-34364450D01*
X65139954Y-34352199D01*
X65138148Y-34333862D01*
X65138148Y-33846139D01*
X65139954Y-33827801D01*
X65140556Y-33815550D01*
X65140556Y-33797131D01*
X65142750Y-33774851D01*
X65159476Y-33690767D01*
X65165976Y-33669340D01*
X65198780Y-33590142D01*
X65201691Y-33584697D01*
X65201693Y-33584691D01*
X65206429Y-33575831D01*
X65206432Y-33575827D01*
X65209340Y-33570386D01*
X65256971Y-33499101D01*
X65271172Y-33481796D01*
X65331796Y-33421172D01*
X65349101Y-33406971D01*
X65420386Y-33359340D01*
X65425827Y-33356432D01*
X65425831Y-33356429D01*
X65434691Y-33351693D01*
X65434697Y-33351691D01*
X65440142Y-33348780D01*
X65519340Y-33315976D01*
X65540767Y-33309476D01*
X65624851Y-33292750D01*
X65647131Y-33290556D01*
X65665550Y-33290556D01*
X65677801Y-33289954D01*
X65696139Y-33288148D01*
X66233860Y-33288148D01*
X66249999Y-33289737D01*
X66249999Y-33289737D01*
G37*
G36*
X58709999Y-30449737D02*
G01*
X58724528Y-30454145D01*
X58737711Y-30459606D01*
X58761745Y-30464388D01*
X58786249Y-30464389D01*
X58810282Y-30459609D01*
X58832921Y-30450232D01*
X58834765Y-30449000D01*
X60066050Y-30449000D01*
X60078164Y-30455475D01*
X60101613Y-30462588D01*
X60125999Y-30464990D01*
X60150385Y-30462588D01*
X60173834Y-30455475D01*
X60178746Y-30453152D01*
X60190001Y-30449737D01*
X60206140Y-30448148D01*
X60743861Y-30448148D01*
X60762199Y-30449954D01*
X60774450Y-30450556D01*
X60792869Y-30450556D01*
X60815149Y-30452750D01*
X60899233Y-30469476D01*
X60920660Y-30475976D01*
X60999858Y-30508780D01*
X61005303Y-30511691D01*
X61005309Y-30511693D01*
X61014169Y-30516429D01*
X61014173Y-30516432D01*
X61019614Y-30519340D01*
X61090899Y-30566971D01*
X61108204Y-30581172D01*
X61168828Y-30641796D01*
X61183029Y-30659101D01*
X61230660Y-30730386D01*
X61233568Y-30735827D01*
X61233571Y-30735831D01*
X61238307Y-30744691D01*
X61238309Y-30744697D01*
X61241220Y-30750142D01*
X61274024Y-30829340D01*
X61280524Y-30850767D01*
X61297250Y-30934851D01*
X61299444Y-30957131D01*
X61299444Y-30975550D01*
X61300046Y-30987801D01*
X61301852Y-31006139D01*
X61301852Y-31493862D01*
X61300046Y-31512199D01*
X61299444Y-31524450D01*
X61299444Y-31542869D01*
X61297250Y-31565149D01*
X61280524Y-31649233D01*
X61274024Y-31670660D01*
X61241220Y-31749858D01*
X61238309Y-31755303D01*
X61238307Y-31755309D01*
X61233571Y-31764169D01*
X61233568Y-31764173D01*
X61230660Y-31769614D01*
X61183029Y-31840899D01*
X61168828Y-31858204D01*
X61108204Y-31918828D01*
X61090899Y-31933029D01*
X61019614Y-31980660D01*
X61014173Y-31983568D01*
X61014169Y-31983571D01*
X61005309Y-31988307D01*
X61005303Y-31988309D01*
X60999858Y-31991220D01*
X60920660Y-32024024D01*
X60899233Y-32030524D01*
X60815149Y-32047250D01*
X60792869Y-32049444D01*
X60774450Y-32049444D01*
X60762199Y-32050046D01*
X60743862Y-32051852D01*
X60206140Y-32051852D01*
X60190001Y-32050263D01*
X60175472Y-32045855D01*
X60162289Y-32040394D01*
X60138255Y-32035612D01*
X60113751Y-32035611D01*
X60089718Y-32040391D01*
X60067079Y-32049768D01*
X60065235Y-32051000D01*
X58833950Y-32051000D01*
X58821836Y-32044525D01*
X58798387Y-32037412D01*
X58774001Y-32035010D01*
X58749615Y-32037412D01*
X58726166Y-32044525D01*
X58721254Y-32046848D01*
X58709999Y-32050263D01*
X58693860Y-32051852D01*
X58156138Y-32051852D01*
X58137801Y-32050046D01*
X58125550Y-32049444D01*
X58107131Y-32049444D01*
X58084851Y-32047250D01*
X58000767Y-32030524D01*
X57979340Y-32024024D01*
X57900142Y-31991220D01*
X57894697Y-31988309D01*
X57894691Y-31988307D01*
X57885831Y-31983571D01*
X57885827Y-31983568D01*
X57880386Y-31980660D01*
X57809101Y-31933029D01*
X57791796Y-31918828D01*
X57731172Y-31858204D01*
X57716971Y-31840899D01*
X57669340Y-31769614D01*
X57666432Y-31764173D01*
X57666429Y-31764169D01*
X57661693Y-31755309D01*
X57661691Y-31755303D01*
X57658780Y-31749858D01*
X57625976Y-31670660D01*
X57619476Y-31649233D01*
X57602750Y-31565149D01*
X57600556Y-31542869D01*
X57600556Y-31524450D01*
X57599954Y-31512199D01*
X57598148Y-31493862D01*
X57598148Y-31006139D01*
X57599954Y-30987801D01*
X57600556Y-30975550D01*
X57600556Y-30957131D01*
X57602750Y-30934851D01*
X57619476Y-30850767D01*
X57625976Y-30829340D01*
X57658780Y-30750142D01*
X57661691Y-30744697D01*
X57661693Y-30744691D01*
X57666429Y-30735831D01*
X57666432Y-30735827D01*
X57669340Y-30730386D01*
X57716971Y-30659101D01*
X57731172Y-30641796D01*
X57791796Y-30581172D01*
X57809101Y-30566971D01*
X57880386Y-30519340D01*
X57885827Y-30516432D01*
X57885831Y-30516429D01*
X57894691Y-30511693D01*
X57894697Y-30511691D01*
X57900142Y-30508780D01*
X57979340Y-30475976D01*
X58000767Y-30469476D01*
X58084851Y-30452750D01*
X58107131Y-30450556D01*
X58125550Y-30450556D01*
X58137801Y-30449954D01*
X58156139Y-30448148D01*
X58693860Y-30448148D01*
X58709999Y-30449737D01*
X58709999Y-30449737D01*
G37*
G36*
X45827477Y-18623892D02*
G01*
X46170541Y-18765994D01*
X46655707Y-18966956D01*
X47401093Y-19465008D01*
X48034992Y-20098907D01*
X48533044Y-20844293D01*
X48734006Y-21329459D01*
X48876108Y-21672523D01*
X49051000Y-22551764D01*
X49051000Y-23448236D01*
X48876108Y-24327477D01*
X48768484Y-24587303D01*
X48533044Y-25155707D01*
X48034992Y-25901093D01*
X47401093Y-26534992D01*
X46655707Y-27033044D01*
X46170541Y-27234006D01*
X45827477Y-27376108D01*
X44948236Y-27551000D01*
X44051764Y-27551000D01*
X43172523Y-27376108D01*
X42829459Y-27234006D01*
X42344293Y-27033044D01*
X41598907Y-26534992D01*
X40965008Y-25901093D01*
X40466956Y-25155707D01*
X40231516Y-24587303D01*
X40123892Y-24327477D01*
X39949000Y-23448236D01*
X39949000Y-22551764D01*
X40123892Y-21672523D01*
X40265994Y-21329459D01*
X40466956Y-20844293D01*
X40965008Y-20098907D01*
X41598907Y-19465008D01*
X42344293Y-18966956D01*
X42829459Y-18765994D01*
X43172523Y-18623892D01*
X44051764Y-18449000D01*
X44948236Y-18449000D01*
X45827477Y-18623892D01*
X45827477Y-18623892D01*
G37*
G36*
X15626902Y-20526902D02*
G01*
X15931177Y-20587426D01*
X16349932Y-20760880D01*
X16726802Y-21012696D01*
X17047304Y-21333198D01*
X17299120Y-21710068D01*
X17472574Y-22128823D01*
X17561000Y-22573371D01*
X17561000Y-23026629D01*
X17472574Y-23471177D01*
X17299120Y-23889932D01*
X17047304Y-24266802D01*
X16726802Y-24587304D01*
X16349932Y-24839120D01*
X15931177Y-25012574D01*
X15708903Y-25056787D01*
X15486630Y-25101000D01*
X15033370Y-25101000D01*
X14811097Y-25056787D01*
X14588823Y-25012574D01*
X14170068Y-24839120D01*
X13793198Y-24587304D01*
X13472696Y-24266802D01*
X13220880Y-23889932D01*
X13047426Y-23471177D01*
X12959000Y-23026629D01*
X12959000Y-22573371D01*
X13047426Y-22128823D01*
X13220880Y-21710068D01*
X13472696Y-21333198D01*
X13793198Y-21012696D01*
X14170068Y-20760880D01*
X14588823Y-20587426D01*
X14893098Y-20526902D01*
X15033370Y-20499000D01*
X15486630Y-20499000D01*
X15626902Y-20526902D01*
X15626902Y-20526902D01*
G37*
G36*
X107126902Y-20526902D02*
G01*
X107431177Y-20587426D01*
X107849932Y-20760880D01*
X108226802Y-21012696D01*
X108547304Y-21333198D01*
X108799120Y-21710068D01*
X108972574Y-22128823D01*
X109061000Y-22573371D01*
X109061000Y-23026629D01*
X108972574Y-23471177D01*
X108799120Y-23889932D01*
X108547304Y-24266802D01*
X108226802Y-24587304D01*
X107849932Y-24839120D01*
X107431177Y-25012574D01*
X107208903Y-25056787D01*
X106986630Y-25101000D01*
X106533370Y-25101000D01*
X106311097Y-25056787D01*
X106088823Y-25012574D01*
X105670068Y-24839120D01*
X105293198Y-24587304D01*
X104972696Y-24266802D01*
X104720880Y-23889932D01*
X104547426Y-23471177D01*
X104459000Y-23026629D01*
X104459000Y-22573371D01*
X104547426Y-22128823D01*
X104720880Y-21710068D01*
X104972696Y-21333198D01*
X105293198Y-21012696D01*
X105670068Y-20760880D01*
X106088823Y-20587426D01*
X106393098Y-20526902D01*
X106533370Y-20499000D01*
X106986630Y-20499000D01*
X107126902Y-20526902D01*
X107126902Y-20526902D01*
G37*
G36*
X54045256Y-20381298D02*
G01*
X54151579Y-20402447D01*
X54452042Y-20526903D01*
X54722451Y-20707585D01*
X54952415Y-20937549D01*
X55002627Y-21012697D01*
X55133098Y-21207960D01*
X55257553Y-21508422D01*
X55297664Y-21710070D01*
X55321000Y-21827391D01*
X55321000Y-22152609D01*
X55257553Y-22471579D01*
X55133097Y-22772042D01*
X54952415Y-23042451D01*
X54722451Y-23272415D01*
X54452042Y-23453097D01*
X54452041Y-23453098D01*
X54452040Y-23453098D01*
X54408393Y-23471177D01*
X54151579Y-23577553D01*
X54045256Y-23598702D01*
X53832611Y-23641000D01*
X53507389Y-23641000D01*
X53294744Y-23598702D01*
X53188421Y-23577553D01*
X52931607Y-23471177D01*
X52887960Y-23453098D01*
X52887959Y-23453098D01*
X52887958Y-23453097D01*
X52617549Y-23272415D01*
X52387585Y-23042451D01*
X52206903Y-22772042D01*
X52082447Y-22471579D01*
X52019000Y-22152609D01*
X52019000Y-21827391D01*
X52042337Y-21710070D01*
X52082447Y-21508422D01*
X52206902Y-21207960D01*
X52337373Y-21012697D01*
X52387585Y-20937549D01*
X52617549Y-20707585D01*
X52887958Y-20526903D01*
X53188421Y-20402447D01*
X53294744Y-20381298D01*
X53507389Y-20339000D01*
X53832611Y-20339000D01*
X54045256Y-20381298D01*
X54045256Y-20381298D01*
G37*
G36*
X96635256Y-20381298D02*
G01*
X96741579Y-20402447D01*
X97042042Y-20526903D01*
X97312451Y-20707585D01*
X97542415Y-20937549D01*
X97592627Y-21012697D01*
X97723098Y-21207960D01*
X97847553Y-21508422D01*
X97887664Y-21710070D01*
X97911000Y-21827391D01*
X97911000Y-22152609D01*
X97847553Y-22471579D01*
X97723097Y-22772042D01*
X97542415Y-23042451D01*
X97312451Y-23272415D01*
X97042042Y-23453097D01*
X97042041Y-23453098D01*
X97042040Y-23453098D01*
X96998393Y-23471177D01*
X96741579Y-23577553D01*
X96635256Y-23598702D01*
X96422611Y-23641000D01*
X96097389Y-23641000D01*
X95884744Y-23598702D01*
X95778421Y-23577553D01*
X95521607Y-23471177D01*
X95477960Y-23453098D01*
X95477959Y-23453098D01*
X95477958Y-23453097D01*
X95207549Y-23272415D01*
X94977585Y-23042451D01*
X94796903Y-22772042D01*
X94672447Y-22471579D01*
X94609000Y-22152609D01*
X94609000Y-21827391D01*
X94632337Y-21710070D01*
X94672447Y-21508422D01*
X94796902Y-21207960D01*
X94927373Y-21012697D01*
X94977585Y-20937549D01*
X95207549Y-20707585D01*
X95477958Y-20526903D01*
X95778421Y-20402447D01*
X95884744Y-20381298D01*
X96097389Y-20339000D01*
X96422611Y-20339000D01*
X96635256Y-20381298D01*
X96635256Y-20381298D01*
G37*
M02*
