M48
; DRILL file {KiCad (5.1.2)-2} date 19/01/2022 07:22:48
; FORMAT={-:-/ absolute / metric / decimal}
; #@! TF.CreationDate,2022-01-19T07:22:48-03:00
; #@! TF.GenerationSoftware,Kicad,Pcbnew,(5.1.2)-2
FMAT,2
METRIC
T1C0.400
T2C1.800
T3C2.700
T4C8.000
%
G90
G05
T1
X50.11Y-81.95
X56.14Y-35.33
X57.56Y-42.6
X61.56Y-69.0
X62.7Y-28.67
X62.7Y-34.01
X62.76Y-31.26
X64.06Y-70.85
X65.16Y-68.55
X68.35Y-45.1
X69.42Y-32.98
X70.635Y-35.63
T2
X96.26Y-84.61
X53.67Y-21.99
X96.26Y-21.99
X53.67Y-84.61
T3
X106.76Y-83.8
X15.26Y-22.8
X106.76Y-22.8
X15.26Y-83.81
T4
X44.5Y-23.0
T0
M30
