G04 #@! TF.GenerationSoftware,KiCad,Pcbnew,(5.1.2)-2*
G04 #@! TF.CreationDate,2021-09-09T11:51:10-03:00*
G04 #@! TF.ProjectId,MAG_Plus,4d41475f-506c-4757-932e-6b696361645f,rev?*
G04 #@! TF.SameCoordinates,Original*
G04 #@! TF.FileFunction,Legend,Top*
G04 #@! TF.FilePolarity,Positive*
%FSLAX46Y46*%
G04 Gerber Fmt 4.6, Leading zero omitted, Abs format (unit mm)*
G04 Created by KiCad (PCBNEW (5.1.2)-2) date 2021-09-09 11:51:10*
%MOMM*%
%LPD*%
G04 APERTURE LIST*
%ADD10C,0.100000*%
%ADD11C,0.150000*%
%ADD12C,0.120000*%
G04 APERTURE END LIST*
D10*
G36*
X383330000Y-47550000D02*
G01*
X378330000Y-47550000D01*
X378330000Y-42550000D01*
X383330000Y-42550000D01*
X383330000Y-47550000D01*
G37*
X383330000Y-47550000D02*
X378330000Y-47550000D01*
X378330000Y-42550000D01*
X383330000Y-42550000D01*
X383330000Y-47550000D01*
G36*
X389330000Y-47550000D02*
G01*
X384330000Y-47550000D01*
X384330000Y-42550000D01*
X389330000Y-42550000D01*
X389330000Y-47550000D01*
G37*
X389330000Y-47550000D02*
X384330000Y-47550000D01*
X384330000Y-42550000D01*
X389330000Y-42550000D01*
X389330000Y-47550000D01*
G36*
X377330000Y-47550000D02*
G01*
X372330000Y-47550000D01*
X372330000Y-42550000D01*
X377330000Y-42550000D01*
X377330000Y-47550000D01*
G37*
X377330000Y-47550000D02*
X372330000Y-47550000D01*
X372330000Y-42550000D01*
X377330000Y-42550000D01*
X377330000Y-47550000D01*
G36*
X395330000Y-47550000D02*
G01*
X390330000Y-47550000D01*
X390330000Y-42550000D01*
X395330000Y-42550000D01*
X395330000Y-47550000D01*
G37*
X395330000Y-47550000D02*
X390330000Y-47550000D01*
X390330000Y-42550000D01*
X395330000Y-42550000D01*
X395330000Y-47550000D01*
D11*
X370546666Y-41604761D02*
X370689523Y-41652380D01*
X370927619Y-41652380D01*
X371022857Y-41604761D01*
X371070476Y-41557142D01*
X371118095Y-41461904D01*
X371118095Y-41366666D01*
X371070476Y-41271428D01*
X371022857Y-41223809D01*
X370927619Y-41176190D01*
X370737142Y-41128571D01*
X370641904Y-41080952D01*
X370594285Y-41033333D01*
X370546666Y-40938095D01*
X370546666Y-40842857D01*
X370594285Y-40747619D01*
X370641904Y-40700000D01*
X370737142Y-40652380D01*
X370975238Y-40652380D01*
X371118095Y-40700000D01*
X371546666Y-41652380D02*
X371546666Y-40652380D01*
X371927619Y-40652380D01*
X372022857Y-40700000D01*
X372070476Y-40747619D01*
X372118095Y-40842857D01*
X372118095Y-40985714D01*
X372070476Y-41080952D01*
X372022857Y-41128571D01*
X371927619Y-41176190D01*
X371546666Y-41176190D01*
X372546666Y-41128571D02*
X372880000Y-41128571D01*
X373022857Y-41652380D02*
X372546666Y-41652380D01*
X372546666Y-40652380D01*
X373022857Y-40652380D01*
X373927619Y-41652380D02*
X373451428Y-41652380D01*
X373451428Y-40652380D01*
X375022857Y-41271428D02*
X375784761Y-41271428D01*
X377022857Y-40652380D02*
X377022857Y-41461904D01*
X377070476Y-41557142D01*
X377118095Y-41604761D01*
X377213333Y-41652380D01*
X377403809Y-41652380D01*
X377499047Y-41604761D01*
X377546666Y-41557142D01*
X377594285Y-41461904D01*
X377594285Y-40652380D01*
X378070476Y-40985714D02*
X378070476Y-41652380D01*
X378070476Y-41080952D02*
X378118095Y-41033333D01*
X378213333Y-40985714D01*
X378356190Y-40985714D01*
X378451428Y-41033333D01*
X378499047Y-41128571D01*
X378499047Y-41652380D01*
X378975238Y-41652380D02*
X378975238Y-40985714D01*
X378975238Y-40652380D02*
X378927619Y-40700000D01*
X378975238Y-40747619D01*
X379022857Y-40700000D01*
X378975238Y-40652380D01*
X378975238Y-40747619D01*
X379356190Y-40985714D02*
X379594285Y-41652380D01*
X379832380Y-40985714D01*
X380594285Y-41604761D02*
X380499047Y-41652380D01*
X380308571Y-41652380D01*
X380213333Y-41604761D01*
X380165714Y-41509523D01*
X380165714Y-41128571D01*
X380213333Y-41033333D01*
X380308571Y-40985714D01*
X380499047Y-40985714D01*
X380594285Y-41033333D01*
X380641904Y-41128571D01*
X380641904Y-41223809D01*
X380165714Y-41319047D01*
X381070476Y-41652380D02*
X381070476Y-40985714D01*
X381070476Y-41176190D02*
X381118095Y-41080952D01*
X381165714Y-41033333D01*
X381260952Y-40985714D01*
X381356190Y-40985714D01*
X381641904Y-41604761D02*
X381737142Y-41652380D01*
X381927619Y-41652380D01*
X382022857Y-41604761D01*
X382070476Y-41509523D01*
X382070476Y-41461904D01*
X382022857Y-41366666D01*
X381927619Y-41319047D01*
X381784761Y-41319047D01*
X381689523Y-41271428D01*
X381641904Y-41176190D01*
X381641904Y-41128571D01*
X381689523Y-41033333D01*
X381784761Y-40985714D01*
X381927619Y-40985714D01*
X382022857Y-41033333D01*
X382499047Y-41652380D02*
X382499047Y-40985714D01*
X382499047Y-40652380D02*
X382451428Y-40700000D01*
X382499047Y-40747619D01*
X382546666Y-40700000D01*
X382499047Y-40652380D01*
X382499047Y-40747619D01*
X382832380Y-40985714D02*
X383213333Y-40985714D01*
X382975238Y-40652380D02*
X382975238Y-41509523D01*
X383022857Y-41604761D01*
X383118095Y-41652380D01*
X383213333Y-41652380D01*
X383451428Y-40985714D02*
X383689523Y-41652380D01*
X383927619Y-40985714D02*
X383689523Y-41652380D01*
X383594285Y-41890476D01*
X383546666Y-41938095D01*
X383451428Y-41985714D01*
X385213333Y-41652380D02*
X385118095Y-41604761D01*
X385070476Y-41557142D01*
X385022857Y-41461904D01*
X385022857Y-41176190D01*
X385070476Y-41080952D01*
X385118095Y-41033333D01*
X385213333Y-40985714D01*
X385356190Y-40985714D01*
X385451428Y-41033333D01*
X385499047Y-41080952D01*
X385546666Y-41176190D01*
X385546666Y-41461904D01*
X385499047Y-41557142D01*
X385451428Y-41604761D01*
X385356190Y-41652380D01*
X385213333Y-41652380D01*
X385832380Y-40985714D02*
X386213333Y-40985714D01*
X385975238Y-41652380D02*
X385975238Y-40795238D01*
X386022857Y-40700000D01*
X386118095Y-40652380D01*
X386213333Y-40652380D01*
X387879999Y-41557142D02*
X387832380Y-41604761D01*
X387689523Y-41652380D01*
X387594285Y-41652380D01*
X387451428Y-41604761D01*
X387356190Y-41509523D01*
X387308571Y-41414285D01*
X387260952Y-41223809D01*
X387260952Y-41080952D01*
X387308571Y-40890476D01*
X387356190Y-40795238D01*
X387451428Y-40700000D01*
X387594285Y-40652380D01*
X387689523Y-40652380D01*
X387832380Y-40700000D01*
X387879999Y-40747619D01*
X388308571Y-41652380D02*
X388308571Y-40652380D01*
X388737142Y-41652380D02*
X388737142Y-41128571D01*
X388689523Y-41033333D01*
X388594285Y-40985714D01*
X388451428Y-40985714D01*
X388356190Y-41033333D01*
X388308571Y-41080952D01*
X389213333Y-41652380D02*
X389213333Y-40985714D01*
X389213333Y-40652380D02*
X389165714Y-40700000D01*
X389213333Y-40747619D01*
X389260952Y-40700000D01*
X389213333Y-40652380D01*
X389213333Y-40747619D01*
X389832380Y-41652380D02*
X389737142Y-41604761D01*
X389689523Y-41509523D01*
X389689523Y-40652380D01*
X390594285Y-41604761D02*
X390499047Y-41652380D01*
X390308571Y-41652380D01*
X390213333Y-41604761D01*
X390165714Y-41509523D01*
X390165714Y-41128571D01*
X390213333Y-41033333D01*
X390308571Y-40985714D01*
X390499047Y-40985714D01*
X390594285Y-41033333D01*
X390641904Y-41128571D01*
X390641904Y-41223809D01*
X390165714Y-41319047D01*
X391832380Y-41271428D02*
X392594285Y-41271428D01*
X393784761Y-40747619D02*
X393832380Y-40700000D01*
X393927619Y-40652380D01*
X394165714Y-40652380D01*
X394260952Y-40700000D01*
X394308571Y-40747619D01*
X394356190Y-40842857D01*
X394356190Y-40938095D01*
X394308571Y-41080952D01*
X393737142Y-41652380D01*
X394356190Y-41652380D01*
X394975238Y-40652380D02*
X395070476Y-40652380D01*
X395165714Y-40700000D01*
X395213333Y-40747619D01*
X395260952Y-40842857D01*
X395308571Y-41033333D01*
X395308571Y-41271428D01*
X395260952Y-41461904D01*
X395213333Y-41557142D01*
X395165714Y-41604761D01*
X395070476Y-41652380D01*
X394975238Y-41652380D01*
X394879999Y-41604761D01*
X394832380Y-41557142D01*
X394784761Y-41461904D01*
X394737142Y-41271428D01*
X394737142Y-41033333D01*
X394784761Y-40842857D01*
X394832380Y-40747619D01*
X394879999Y-40700000D01*
X394975238Y-40652380D01*
X395689523Y-40747619D02*
X395737142Y-40700000D01*
X395832380Y-40652380D01*
X396070476Y-40652380D01*
X396165714Y-40700000D01*
X396213333Y-40747619D01*
X396260952Y-40842857D01*
X396260952Y-40938095D01*
X396213333Y-41080952D01*
X395641904Y-41652380D01*
X396260952Y-41652380D01*
X397213333Y-41652380D02*
X396641904Y-41652380D01*
X396927619Y-41652380D02*
X396927619Y-40652380D01*
X396832380Y-40795238D01*
X396737142Y-40890476D01*
X396641904Y-40938095D01*
X376327619Y-49402380D02*
X376327619Y-48402380D01*
X376708571Y-48402380D01*
X376803809Y-48450000D01*
X376851428Y-48497619D01*
X376899047Y-48592857D01*
X376899047Y-48735714D01*
X376851428Y-48830952D01*
X376803809Y-48878571D01*
X376708571Y-48926190D01*
X376327619Y-48926190D01*
X377756190Y-49402380D02*
X377756190Y-48878571D01*
X377708571Y-48783333D01*
X377613333Y-48735714D01*
X377422857Y-48735714D01*
X377327619Y-48783333D01*
X377756190Y-49354761D02*
X377660952Y-49402380D01*
X377422857Y-49402380D01*
X377327619Y-49354761D01*
X377280000Y-49259523D01*
X377280000Y-49164285D01*
X377327619Y-49069047D01*
X377422857Y-49021428D01*
X377660952Y-49021428D01*
X377756190Y-48973809D01*
X378232380Y-48735714D02*
X378232380Y-49402380D01*
X378232380Y-48830952D02*
X378280000Y-48783333D01*
X378375238Y-48735714D01*
X378518095Y-48735714D01*
X378613333Y-48783333D01*
X378660952Y-48878571D01*
X378660952Y-49402380D01*
X379518095Y-49354761D02*
X379422857Y-49402380D01*
X379232380Y-49402380D01*
X379137142Y-49354761D01*
X379089523Y-49259523D01*
X379089523Y-48878571D01*
X379137142Y-48783333D01*
X379232380Y-48735714D01*
X379422857Y-48735714D01*
X379518095Y-48783333D01*
X379565714Y-48878571D01*
X379565714Y-48973809D01*
X379089523Y-49069047D01*
X380137142Y-49402380D02*
X380041904Y-49354761D01*
X379994285Y-49259523D01*
X379994285Y-48402380D01*
X381613333Y-48878571D02*
X381756190Y-48926190D01*
X381803809Y-48973809D01*
X381851428Y-49069047D01*
X381851428Y-49211904D01*
X381803809Y-49307142D01*
X381756190Y-49354761D01*
X381660952Y-49402380D01*
X381280000Y-49402380D01*
X381280000Y-48402380D01*
X381613333Y-48402380D01*
X381708571Y-48450000D01*
X381756190Y-48497619D01*
X381803809Y-48592857D01*
X381803809Y-48688095D01*
X381756190Y-48783333D01*
X381708571Y-48830952D01*
X381613333Y-48878571D01*
X381280000Y-48878571D01*
X383041904Y-49402380D02*
X383041904Y-48402380D01*
X383280000Y-48402380D01*
X383422857Y-48450000D01*
X383518095Y-48545238D01*
X383565714Y-48640476D01*
X383613333Y-48830952D01*
X383613333Y-48973809D01*
X383565714Y-49164285D01*
X383518095Y-49259523D01*
X383422857Y-49354761D01*
X383280000Y-49402380D01*
X383041904Y-49402380D01*
X384660952Y-48402380D02*
X384994285Y-49402380D01*
X385327619Y-48402380D01*
X386184761Y-49402380D02*
X385613333Y-49402380D01*
X385899047Y-49402380D02*
X385899047Y-48402380D01*
X385803809Y-48545238D01*
X385708571Y-48640476D01*
X385613333Y-48688095D01*
X387327619Y-49354761D02*
X387470476Y-49402380D01*
X387708571Y-49402380D01*
X387803809Y-49354761D01*
X387851428Y-49307142D01*
X387899047Y-49211904D01*
X387899047Y-49116666D01*
X387851428Y-49021428D01*
X387803809Y-48973809D01*
X387708571Y-48926190D01*
X387518095Y-48878571D01*
X387422857Y-48830952D01*
X387375238Y-48783333D01*
X387327619Y-48688095D01*
X387327619Y-48592857D01*
X387375238Y-48497619D01*
X387422857Y-48450000D01*
X387518095Y-48402380D01*
X387756190Y-48402380D01*
X387899047Y-48450000D01*
X388708571Y-49354761D02*
X388613333Y-49402380D01*
X388422857Y-49402380D01*
X388327619Y-49354761D01*
X388280000Y-49259523D01*
X388280000Y-48878571D01*
X388327619Y-48783333D01*
X388422857Y-48735714D01*
X388613333Y-48735714D01*
X388708571Y-48783333D01*
X388756190Y-48878571D01*
X388756190Y-48973809D01*
X388280000Y-49069047D01*
X389184761Y-49402380D02*
X389184761Y-48735714D01*
X389184761Y-48926190D02*
X389232380Y-48830952D01*
X389280000Y-48783333D01*
X389375238Y-48735714D01*
X389470476Y-48735714D01*
X389803809Y-49402380D02*
X389803809Y-48735714D01*
X389803809Y-48402380D02*
X389756190Y-48450000D01*
X389803809Y-48497619D01*
X389851428Y-48450000D01*
X389803809Y-48402380D01*
X389803809Y-48497619D01*
X390708571Y-49402380D02*
X390708571Y-48878571D01*
X390660952Y-48783333D01*
X390565714Y-48735714D01*
X390375238Y-48735714D01*
X390280000Y-48783333D01*
X390708571Y-49354761D02*
X390613333Y-49402380D01*
X390375238Y-49402380D01*
X390280000Y-49354761D01*
X390232380Y-49259523D01*
X390232380Y-49164285D01*
X390280000Y-49069047D01*
X390375238Y-49021428D01*
X390613333Y-49021428D01*
X390708571Y-48973809D01*
X391327619Y-49402380D02*
X391232380Y-49354761D01*
X391184761Y-49259523D01*
X391184761Y-48402380D01*
D12*
X361860000Y-108460000D02*
G75*
G03X361860000Y-108460000I-1250000J0D01*
G01*
X449010000Y-39860000D02*
X363810000Y-39860000D01*
X363810000Y-119260000D02*
X363810000Y-36660000D01*
X449010000Y-119260000D02*
X449010000Y-36660000D01*
X443310000Y-119260000D02*
X443310000Y-105460000D01*
X453360000Y-108460000D02*
G75*
G03X453360000Y-108460000I-1250000J0D01*
G01*
X455310000Y-105460000D02*
X443310000Y-105460000D01*
X369410000Y-119260000D02*
X369410000Y-105460000D01*
X455410000Y-50460000D02*
X443410000Y-50460000D01*
X369410000Y-50460000D02*
X369410000Y-36660000D01*
X357410000Y-105460000D02*
X369410000Y-105460000D01*
X357410000Y-50460000D02*
X369410000Y-50460000D01*
X443410000Y-36660000D02*
X443410000Y-50460000D01*
X361860000Y-47460000D02*
G75*
G03X361860000Y-47460000I-1250000J0D01*
G01*
X363810000Y-116060000D02*
X449010000Y-116060000D01*
X453360000Y-47460000D02*
G75*
G03X453360000Y-47460000I-1250000J0D01*
G01*
D11*
X450776666Y-44682380D02*
X450443333Y-44206190D01*
X450205238Y-44682380D02*
X450205238Y-43682380D01*
X450586190Y-43682380D01*
X450681428Y-43730000D01*
X450729047Y-43777619D01*
X450776666Y-43872857D01*
X450776666Y-44015714D01*
X450729047Y-44110952D01*
X450681428Y-44158571D01*
X450586190Y-44206190D01*
X450205238Y-44206190D01*
X451205238Y-44158571D02*
X451538571Y-44158571D01*
X451681428Y-44682380D02*
X451205238Y-44682380D01*
X451205238Y-43682380D01*
X451681428Y-43682380D01*
X452443333Y-44158571D02*
X452110000Y-44158571D01*
X452110000Y-44682380D02*
X452110000Y-43682380D01*
X452586190Y-43682380D01*
X453110000Y-43682380D02*
X453110000Y-43920476D01*
X452871904Y-43825238D02*
X453110000Y-43920476D01*
X453348095Y-43825238D01*
X452967142Y-44110952D02*
X453110000Y-43920476D01*
X453252857Y-44110952D01*
X453871904Y-43682380D02*
X453871904Y-43920476D01*
X453633809Y-43825238D02*
X453871904Y-43920476D01*
X454110000Y-43825238D01*
X453729047Y-44110952D02*
X453871904Y-43920476D01*
X454014761Y-44110952D01*
X359286666Y-44662380D02*
X358953333Y-44186190D01*
X358715238Y-44662380D02*
X358715238Y-43662380D01*
X359096190Y-43662380D01*
X359191428Y-43710000D01*
X359239047Y-43757619D01*
X359286666Y-43852857D01*
X359286666Y-43995714D01*
X359239047Y-44090952D01*
X359191428Y-44138571D01*
X359096190Y-44186190D01*
X358715238Y-44186190D01*
X359715238Y-44138571D02*
X360048571Y-44138571D01*
X360191428Y-44662380D02*
X359715238Y-44662380D01*
X359715238Y-43662380D01*
X360191428Y-43662380D01*
X360953333Y-44138571D02*
X360620000Y-44138571D01*
X360620000Y-44662380D02*
X360620000Y-43662380D01*
X361096190Y-43662380D01*
X361620000Y-43662380D02*
X361620000Y-43900476D01*
X361381904Y-43805238D02*
X361620000Y-43900476D01*
X361858095Y-43805238D01*
X361477142Y-44090952D02*
X361620000Y-43900476D01*
X361762857Y-44090952D01*
X362381904Y-43662380D02*
X362381904Y-43900476D01*
X362143809Y-43805238D02*
X362381904Y-43900476D01*
X362620000Y-43805238D01*
X362239047Y-44090952D02*
X362381904Y-43900476D01*
X362524761Y-44090952D01*
X359286666Y-105672380D02*
X358953333Y-105196190D01*
X358715238Y-105672380D02*
X358715238Y-104672380D01*
X359096190Y-104672380D01*
X359191428Y-104720000D01*
X359239047Y-104767619D01*
X359286666Y-104862857D01*
X359286666Y-105005714D01*
X359239047Y-105100952D01*
X359191428Y-105148571D01*
X359096190Y-105196190D01*
X358715238Y-105196190D01*
X359715238Y-105148571D02*
X360048571Y-105148571D01*
X360191428Y-105672380D02*
X359715238Y-105672380D01*
X359715238Y-104672380D01*
X360191428Y-104672380D01*
X360953333Y-105148571D02*
X360620000Y-105148571D01*
X360620000Y-105672380D02*
X360620000Y-104672380D01*
X361096190Y-104672380D01*
X361620000Y-104672380D02*
X361620000Y-104910476D01*
X361381904Y-104815238D02*
X361620000Y-104910476D01*
X361858095Y-104815238D01*
X361477142Y-105100952D02*
X361620000Y-104910476D01*
X361762857Y-105100952D01*
X362381904Y-104672380D02*
X362381904Y-104910476D01*
X362143809Y-104815238D02*
X362381904Y-104910476D01*
X362620000Y-104815238D01*
X362239047Y-105100952D02*
X362381904Y-104910476D01*
X362524761Y-105100952D01*
X450766666Y-105662380D02*
X450433333Y-105186190D01*
X450195238Y-105662380D02*
X450195238Y-104662380D01*
X450576190Y-104662380D01*
X450671428Y-104710000D01*
X450719047Y-104757619D01*
X450766666Y-104852857D01*
X450766666Y-104995714D01*
X450719047Y-105090952D01*
X450671428Y-105138571D01*
X450576190Y-105186190D01*
X450195238Y-105186190D01*
X451195238Y-105138571D02*
X451528571Y-105138571D01*
X451671428Y-105662380D02*
X451195238Y-105662380D01*
X451195238Y-104662380D01*
X451671428Y-104662380D01*
X452433333Y-105138571D02*
X452100000Y-105138571D01*
X452100000Y-105662380D02*
X452100000Y-104662380D01*
X452576190Y-104662380D01*
X453100000Y-104662380D02*
X453100000Y-104900476D01*
X452861904Y-104805238D02*
X453100000Y-104900476D01*
X453338095Y-104805238D01*
X452957142Y-105090952D02*
X453100000Y-104900476D01*
X453242857Y-105090952D01*
X453861904Y-104662380D02*
X453861904Y-104900476D01*
X453623809Y-104805238D02*
X453861904Y-104900476D01*
X454100000Y-104805238D01*
X453719047Y-105090952D02*
X453861904Y-104900476D01*
X454004761Y-105090952D01*
M02*
