G04 #@! TF.GenerationSoftware,KiCad,Pcbnew,(5.1.2)-2*
G04 #@! TF.CreationDate,2021-11-10T11:30:02-03:00*
G04 #@! TF.ProjectId,PC_V1.2,50435f56-312e-4322-9e6b-696361645f70,rev?*
G04 #@! TF.SameCoordinates,Original*
G04 #@! TF.FileFunction,Legend,Bot*
G04 #@! TF.FilePolarity,Positive*
%FSLAX46Y46*%
G04 Gerber Fmt 4.6, Leading zero omitted, Abs format (unit mm)*
G04 Created by KiCad (PCBNEW (5.1.2)-2) date 2021-11-10 11:30:02*
%MOMM*%
%LPD*%
G04 APERTURE LIST*
%ADD10C,0.091440*%
%ADD11C,0.100000*%
%ADD12C,0.101600*%
G04 APERTURE END LIST*
D10*
X149443149Y-98326937D02*
X148822664Y-98326937D01*
X149132906Y-99412787D02*
X149132906Y-98326937D01*
X148460714Y-99412787D02*
X148460714Y-98326937D01*
X148047056Y-98326937D01*
X147943642Y-98378645D01*
X147891935Y-98430352D01*
X147840228Y-98533766D01*
X147840228Y-98688887D01*
X147891935Y-98792302D01*
X147943642Y-98844009D01*
X148047056Y-98895716D01*
X148460714Y-98895716D01*
X147374864Y-98999130D02*
X146547549Y-98999130D01*
X146185599Y-98326937D02*
X145823649Y-99412787D01*
X145461699Y-98326937D01*
X145099749Y-99412787D02*
X145099749Y-98326937D01*
X144582678Y-99412787D02*
X144582678Y-98326937D01*
X143962192Y-99412787D01*
X143962192Y-98326937D01*
X142617806Y-98999130D02*
X141790492Y-98999130D01*
X140601228Y-98326937D02*
X140239278Y-99412787D01*
X139877328Y-98326937D01*
X139308549Y-98326937D02*
X139101721Y-98326937D01*
X138998306Y-98378645D01*
X138894892Y-98482059D01*
X138843185Y-98688887D01*
X138843185Y-99050837D01*
X138894892Y-99257666D01*
X138998306Y-99361080D01*
X139101721Y-99412787D01*
X139308549Y-99412787D01*
X139411964Y-99361080D01*
X139515378Y-99257666D01*
X139567085Y-99050837D01*
X139567085Y-98688887D01*
X139515378Y-98482059D01*
X139411964Y-98378645D01*
X139308549Y-98326937D01*
X137860749Y-99412787D02*
X138377821Y-99412787D01*
X138377821Y-98326937D01*
X137653921Y-98326937D02*
X137033435Y-98326937D01*
X137343678Y-99412787D02*
X137343678Y-98326937D01*
X135844171Y-99412787D02*
X135844171Y-98326937D01*
X135327099Y-99412787D02*
X135327099Y-98326937D01*
X134706614Y-99412787D01*
X134706614Y-98326937D01*
X149443149Y-100047152D02*
X148822664Y-100047152D01*
X149132906Y-101133002D02*
X149132906Y-100047152D01*
X148460714Y-101133002D02*
X148460714Y-100047152D01*
X148047056Y-100047152D01*
X147943642Y-100098860D01*
X147891935Y-100150567D01*
X147840228Y-100253981D01*
X147840228Y-100409102D01*
X147891935Y-100512517D01*
X147943642Y-100564224D01*
X148047056Y-100615931D01*
X148460714Y-100615931D01*
X147374864Y-100719345D02*
X146547549Y-100719345D01*
X145823649Y-100047152D02*
X145720235Y-100047152D01*
X145616821Y-100098860D01*
X145565114Y-100150567D01*
X145513406Y-100253981D01*
X145461699Y-100460810D01*
X145461699Y-100719345D01*
X145513406Y-100926174D01*
X145565114Y-101029588D01*
X145616821Y-101081295D01*
X145720235Y-101133002D01*
X145823649Y-101133002D01*
X145927064Y-101081295D01*
X145978771Y-101029588D01*
X146030478Y-100926174D01*
X146082185Y-100719345D01*
X146082185Y-100460810D01*
X146030478Y-100253981D01*
X145978771Y-100150567D01*
X145927064Y-100098860D01*
X145823649Y-100047152D01*
X145151456Y-100047152D02*
X144789506Y-101133002D01*
X144427556Y-100047152D01*
X143548535Y-100047152D02*
X144065606Y-100047152D01*
X144117314Y-100564224D01*
X144065606Y-100512517D01*
X143962192Y-100460810D01*
X143703656Y-100460810D01*
X143600242Y-100512517D01*
X143548535Y-100564224D01*
X143496828Y-100667638D01*
X143496828Y-100926174D01*
X143548535Y-101029588D01*
X143600242Y-101081295D01*
X143703656Y-101133002D01*
X143962192Y-101133002D01*
X144065606Y-101081295D01*
X144117314Y-101029588D01*
X142204149Y-100719345D02*
X141376835Y-100719345D01*
X139825621Y-100047152D02*
X139722206Y-100047152D01*
X139618792Y-100098860D01*
X139567085Y-100150567D01*
X139515378Y-100253981D01*
X139463671Y-100460810D01*
X139463671Y-100719345D01*
X139515378Y-100926174D01*
X139567085Y-101029588D01*
X139618792Y-101081295D01*
X139722206Y-101133002D01*
X139825621Y-101133002D01*
X139929035Y-101081295D01*
X139980742Y-101029588D01*
X140032449Y-100926174D01*
X140084156Y-100719345D01*
X140084156Y-100460810D01*
X140032449Y-100253981D01*
X139980742Y-100150567D01*
X139929035Y-100098860D01*
X139825621Y-100047152D01*
X138998306Y-101029588D02*
X138946599Y-101081295D01*
X138998306Y-101133002D01*
X139050014Y-101081295D01*
X138998306Y-101029588D01*
X138998306Y-101133002D01*
X137964164Y-100047152D02*
X138481235Y-100047152D01*
X138532942Y-100564224D01*
X138481235Y-100512517D01*
X138377821Y-100460810D01*
X138119285Y-100460810D01*
X138015871Y-100512517D01*
X137964164Y-100564224D01*
X137912456Y-100667638D01*
X137912456Y-100926174D01*
X137964164Y-101029588D01*
X138015871Y-101081295D01*
X138119285Y-101133002D01*
X138377821Y-101133002D01*
X138481235Y-101081295D01*
X138532942Y-101029588D01*
X136774899Y-100047152D02*
X136412949Y-101133002D01*
X136050999Y-100047152D01*
X149443149Y-101767367D02*
X148822664Y-101767367D01*
X149132906Y-102853217D02*
X149132906Y-101767367D01*
X148460714Y-102853217D02*
X148460714Y-101767367D01*
X148047056Y-101767367D01*
X147943642Y-101819075D01*
X147891935Y-101870782D01*
X147840228Y-101974196D01*
X147840228Y-102129317D01*
X147891935Y-102232732D01*
X147943642Y-102284439D01*
X148047056Y-102336146D01*
X148460714Y-102336146D01*
X147374864Y-102439560D02*
X146547549Y-102439560D01*
X145823649Y-101767367D02*
X145720235Y-101767367D01*
X145616821Y-101819075D01*
X145565114Y-101870782D01*
X145513406Y-101974196D01*
X145461699Y-102181025D01*
X145461699Y-102439560D01*
X145513406Y-102646389D01*
X145565114Y-102749803D01*
X145616821Y-102801510D01*
X145720235Y-102853217D01*
X145823649Y-102853217D01*
X145927064Y-102801510D01*
X145978771Y-102749803D01*
X146030478Y-102646389D01*
X146082185Y-102439560D01*
X146082185Y-102181025D01*
X146030478Y-101974196D01*
X145978771Y-101870782D01*
X145927064Y-101819075D01*
X145823649Y-101767367D01*
X145151456Y-101767367D02*
X144789506Y-102853217D01*
X144427556Y-101767367D01*
X143858778Y-101767367D02*
X143755364Y-101767367D01*
X143651949Y-101819075D01*
X143600242Y-101870782D01*
X143548535Y-101974196D01*
X143496828Y-102181025D01*
X143496828Y-102439560D01*
X143548535Y-102646389D01*
X143600242Y-102749803D01*
X143651949Y-102801510D01*
X143755364Y-102853217D01*
X143858778Y-102853217D01*
X143962192Y-102801510D01*
X144013899Y-102749803D01*
X144065606Y-102646389D01*
X144117314Y-102439560D01*
X144117314Y-102181025D01*
X144065606Y-101974196D01*
X144013899Y-101870782D01*
X143962192Y-101819075D01*
X143858778Y-101767367D01*
X143083171Y-101870782D02*
X143031464Y-101819075D01*
X142928049Y-101767367D01*
X142669514Y-101767367D01*
X142566099Y-101819075D01*
X142514392Y-101870782D01*
X142462685Y-101974196D01*
X142462685Y-102077610D01*
X142514392Y-102232732D01*
X143134878Y-102853217D01*
X142462685Y-102853217D01*
X141170006Y-102439560D02*
X140342692Y-102439560D01*
X138791478Y-101767367D02*
X138688064Y-101767367D01*
X138584649Y-101819075D01*
X138532942Y-101870782D01*
X138481235Y-101974196D01*
X138429528Y-102181025D01*
X138429528Y-102439560D01*
X138481235Y-102646389D01*
X138532942Y-102749803D01*
X138584649Y-102801510D01*
X138688064Y-102853217D01*
X138791478Y-102853217D01*
X138894892Y-102801510D01*
X138946599Y-102749803D01*
X138998306Y-102646389D01*
X139050014Y-102439560D01*
X139050014Y-102181025D01*
X138998306Y-101974196D01*
X138946599Y-101870782D01*
X138894892Y-101819075D01*
X138791478Y-101767367D01*
X137964164Y-102749803D02*
X137912456Y-102801510D01*
X137964164Y-102853217D01*
X138015871Y-102801510D01*
X137964164Y-102749803D01*
X137964164Y-102853217D01*
X137240264Y-101767367D02*
X137136849Y-101767367D01*
X137033435Y-101819075D01*
X136981728Y-101870782D01*
X136930021Y-101974196D01*
X136878314Y-102181025D01*
X136878314Y-102439560D01*
X136930021Y-102646389D01*
X136981728Y-102749803D01*
X137033435Y-102801510D01*
X137136849Y-102853217D01*
X137240264Y-102853217D01*
X137343678Y-102801510D01*
X137395385Y-102749803D01*
X137447092Y-102646389D01*
X137498799Y-102439560D01*
X137498799Y-102181025D01*
X137447092Y-101974196D01*
X137395385Y-101870782D01*
X137343678Y-101819075D01*
X137240264Y-101767367D01*
X136464656Y-101870782D02*
X136412949Y-101819075D01*
X136309535Y-101767367D01*
X136050999Y-101767367D01*
X135947585Y-101819075D01*
X135895878Y-101870782D01*
X135844171Y-101974196D01*
X135844171Y-102077610D01*
X135895878Y-102232732D01*
X136516364Y-102853217D01*
X135844171Y-102853217D01*
X134706614Y-101767367D02*
X134344664Y-102853217D01*
X133982714Y-101767367D01*
X149443149Y-103487582D02*
X148822664Y-103487582D01*
X149132906Y-104573432D02*
X149132906Y-103487582D01*
X148460714Y-104573432D02*
X148460714Y-103487582D01*
X148047056Y-103487582D01*
X147943642Y-103539290D01*
X147891935Y-103590997D01*
X147840228Y-103694411D01*
X147840228Y-103849532D01*
X147891935Y-103952947D01*
X147943642Y-104004654D01*
X148047056Y-104056361D01*
X148460714Y-104056361D01*
X146806085Y-104573432D02*
X147426571Y-104573432D01*
X147116328Y-104573432D02*
X147116328Y-103487582D01*
X147219742Y-103642704D01*
X147323156Y-103746118D01*
X147426571Y-103797825D01*
X145513406Y-104159775D02*
X144686092Y-104159775D01*
X143496828Y-103487582D02*
X143134878Y-104573432D01*
X142772928Y-103487582D01*
X141790492Y-104573432D02*
X142152442Y-104056361D01*
X142410978Y-104573432D02*
X142410978Y-103487582D01*
X141997321Y-103487582D01*
X141893906Y-103539290D01*
X141842199Y-103590997D01*
X141790492Y-103694411D01*
X141790492Y-103849532D01*
X141842199Y-103952947D01*
X141893906Y-104004654D01*
X141997321Y-104056361D01*
X142410978Y-104056361D01*
X141325128Y-104004654D02*
X140963178Y-104004654D01*
X140808056Y-104573432D02*
X141325128Y-104573432D01*
X141325128Y-103487582D01*
X140808056Y-103487582D01*
X139980742Y-104004654D02*
X140342692Y-104004654D01*
X140342692Y-104573432D02*
X140342692Y-103487582D01*
X139825621Y-103487582D01*
X138843185Y-104573432D02*
X139463671Y-104573432D01*
X139153428Y-104573432D02*
X139153428Y-103487582D01*
X139256842Y-103642704D01*
X139360256Y-103746118D01*
X139463671Y-103797825D01*
X149443149Y-105207797D02*
X148822664Y-105207797D01*
X149132906Y-106293647D02*
X149132906Y-105207797D01*
X148460714Y-106293647D02*
X148460714Y-105207797D01*
X148047056Y-105207797D01*
X147943642Y-105259505D01*
X147891935Y-105311212D01*
X147840228Y-105414626D01*
X147840228Y-105569747D01*
X147891935Y-105673162D01*
X147943642Y-105724869D01*
X148047056Y-105776576D01*
X148460714Y-105776576D01*
X147426571Y-105311212D02*
X147374864Y-105259505D01*
X147271449Y-105207797D01*
X147012914Y-105207797D01*
X146909499Y-105259505D01*
X146857792Y-105311212D01*
X146806085Y-105414626D01*
X146806085Y-105518040D01*
X146857792Y-105673162D01*
X147478278Y-106293647D01*
X146806085Y-106293647D01*
X145513406Y-105879990D02*
X144686092Y-105879990D01*
X143496828Y-105207797D02*
X143134878Y-106293647D01*
X142772928Y-105207797D01*
X141790492Y-106293647D02*
X142152442Y-105776576D01*
X142410978Y-106293647D02*
X142410978Y-105207797D01*
X141997321Y-105207797D01*
X141893906Y-105259505D01*
X141842199Y-105311212D01*
X141790492Y-105414626D01*
X141790492Y-105569747D01*
X141842199Y-105673162D01*
X141893906Y-105724869D01*
X141997321Y-105776576D01*
X142410978Y-105776576D01*
X141325128Y-105724869D02*
X140963178Y-105724869D01*
X140808056Y-106293647D02*
X141325128Y-106293647D01*
X141325128Y-105207797D01*
X140808056Y-105207797D01*
X139980742Y-105724869D02*
X140342692Y-105724869D01*
X140342692Y-106293647D02*
X140342692Y-105207797D01*
X139825621Y-105207797D01*
X139463671Y-105311212D02*
X139411964Y-105259505D01*
X139308549Y-105207797D01*
X139050014Y-105207797D01*
X138946599Y-105259505D01*
X138894892Y-105311212D01*
X138843185Y-105414626D01*
X138843185Y-105518040D01*
X138894892Y-105673162D01*
X139515378Y-106293647D01*
X138843185Y-106293647D01*
X149443149Y-106928012D02*
X148822664Y-106928012D01*
X149132906Y-108013862D02*
X149132906Y-106928012D01*
X148460714Y-108013862D02*
X148460714Y-106928012D01*
X148047056Y-106928012D01*
X147943642Y-106979720D01*
X147891935Y-107031427D01*
X147840228Y-107134841D01*
X147840228Y-107289962D01*
X147891935Y-107393377D01*
X147943642Y-107445084D01*
X148047056Y-107496791D01*
X148460714Y-107496791D01*
X147478278Y-106928012D02*
X146806085Y-106928012D01*
X147168035Y-107341670D01*
X147012914Y-107341670D01*
X146909499Y-107393377D01*
X146857792Y-107445084D01*
X146806085Y-107548498D01*
X146806085Y-107807034D01*
X146857792Y-107910448D01*
X146909499Y-107962155D01*
X147012914Y-108013862D01*
X147323156Y-108013862D01*
X147426571Y-107962155D01*
X147478278Y-107910448D01*
X145513406Y-107600205D02*
X144686092Y-107600205D01*
X143496828Y-106928012D02*
X143134878Y-108013862D01*
X142772928Y-106928012D01*
X141790492Y-108013862D02*
X142152442Y-107496791D01*
X142410978Y-108013862D02*
X142410978Y-106928012D01*
X141997321Y-106928012D01*
X141893906Y-106979720D01*
X141842199Y-107031427D01*
X141790492Y-107134841D01*
X141790492Y-107289962D01*
X141842199Y-107393377D01*
X141893906Y-107445084D01*
X141997321Y-107496791D01*
X142410978Y-107496791D01*
X141325128Y-107445084D02*
X140963178Y-107445084D01*
X140808056Y-108013862D02*
X141325128Y-108013862D01*
X141325128Y-106928012D01*
X140808056Y-106928012D01*
X139980742Y-107445084D02*
X140342692Y-107445084D01*
X140342692Y-108013862D02*
X140342692Y-106928012D01*
X139825621Y-106928012D01*
X139515378Y-106928012D02*
X138843185Y-106928012D01*
X139205135Y-107341670D01*
X139050014Y-107341670D01*
X138946599Y-107393377D01*
X138894892Y-107445084D01*
X138843185Y-107548498D01*
X138843185Y-107807034D01*
X138894892Y-107910448D01*
X138946599Y-107962155D01*
X139050014Y-108013862D01*
X139360256Y-108013862D01*
X139463671Y-107962155D01*
X139515378Y-107910448D01*
X149443149Y-108648227D02*
X148822664Y-108648227D01*
X149132906Y-109734077D02*
X149132906Y-108648227D01*
X148460714Y-109734077D02*
X148460714Y-108648227D01*
X148047056Y-108648227D01*
X147943642Y-108699935D01*
X147891935Y-108751642D01*
X147840228Y-108855056D01*
X147840228Y-109010177D01*
X147891935Y-109113592D01*
X147943642Y-109165299D01*
X148047056Y-109217006D01*
X148460714Y-109217006D01*
X146909499Y-109010177D02*
X146909499Y-109734077D01*
X147168035Y-108596520D02*
X147426571Y-109372127D01*
X146754378Y-109372127D01*
X145513406Y-109320420D02*
X144686092Y-109320420D01*
X143496828Y-108648227D02*
X143134878Y-109734077D01*
X142772928Y-108648227D01*
X141790492Y-109734077D02*
X142152442Y-109217006D01*
X142410978Y-109734077D02*
X142410978Y-108648227D01*
X141997321Y-108648227D01*
X141893906Y-108699935D01*
X141842199Y-108751642D01*
X141790492Y-108855056D01*
X141790492Y-109010177D01*
X141842199Y-109113592D01*
X141893906Y-109165299D01*
X141997321Y-109217006D01*
X142410978Y-109217006D01*
X141325128Y-109165299D02*
X140963178Y-109165299D01*
X140808056Y-109734077D02*
X141325128Y-109734077D01*
X141325128Y-108648227D01*
X140808056Y-108648227D01*
X139980742Y-109165299D02*
X140342692Y-109165299D01*
X140342692Y-109734077D02*
X140342692Y-108648227D01*
X139825621Y-108648227D01*
X138946599Y-109010177D02*
X138946599Y-109734077D01*
X139205135Y-108596520D02*
X139463671Y-109372127D01*
X138791478Y-109372127D01*
X149443149Y-110368442D02*
X148822664Y-110368442D01*
X149132906Y-111454292D02*
X149132906Y-110368442D01*
X148460714Y-111454292D02*
X148460714Y-110368442D01*
X148047056Y-110368442D01*
X147943642Y-110420150D01*
X147891935Y-110471857D01*
X147840228Y-110575271D01*
X147840228Y-110730392D01*
X147891935Y-110833807D01*
X147943642Y-110885514D01*
X148047056Y-110937221D01*
X148460714Y-110937221D01*
X147374864Y-111040635D02*
X146547549Y-111040635D01*
X145461699Y-110420150D02*
X145565114Y-110368442D01*
X145720235Y-110368442D01*
X145875356Y-110420150D01*
X145978771Y-110523564D01*
X146030478Y-110626978D01*
X146082185Y-110833807D01*
X146082185Y-110988928D01*
X146030478Y-111195757D01*
X145978771Y-111299171D01*
X145875356Y-111402585D01*
X145720235Y-111454292D01*
X145616821Y-111454292D01*
X145461699Y-111402585D01*
X145409992Y-111350878D01*
X145409992Y-110988928D01*
X145616821Y-110988928D01*
X144944628Y-111454292D02*
X144944628Y-110368442D01*
X144324142Y-111454292D01*
X144324142Y-110368442D01*
X143807071Y-111454292D02*
X143807071Y-110368442D01*
X143548535Y-110368442D01*
X143393414Y-110420150D01*
X143289999Y-110523564D01*
X143238292Y-110626978D01*
X143186585Y-110833807D01*
X143186585Y-110988928D01*
X143238292Y-111195757D01*
X143289999Y-111299171D01*
X143393414Y-111402585D01*
X143548535Y-111454292D01*
X143807071Y-111454292D01*
X141893906Y-111040635D02*
X141066592Y-111040635D01*
X139153428Y-110420150D02*
X139256842Y-110368442D01*
X139411964Y-110368442D01*
X139567085Y-110420150D01*
X139670499Y-110523564D01*
X139722206Y-110626978D01*
X139773914Y-110833807D01*
X139773914Y-110988928D01*
X139722206Y-111195757D01*
X139670499Y-111299171D01*
X139567085Y-111402585D01*
X139411964Y-111454292D01*
X139308549Y-111454292D01*
X139153428Y-111402585D01*
X139101721Y-111350878D01*
X139101721Y-110988928D01*
X139308549Y-110988928D01*
X138636356Y-111454292D02*
X138636356Y-110368442D01*
X138015871Y-111454292D01*
X138015871Y-110368442D01*
X137498799Y-111454292D02*
X137498799Y-110368442D01*
X137240264Y-110368442D01*
X137085142Y-110420150D01*
X136981728Y-110523564D01*
X136930021Y-110626978D01*
X136878314Y-110833807D01*
X136878314Y-110988928D01*
X136930021Y-111195757D01*
X136981728Y-111299171D01*
X137085142Y-111402585D01*
X137240264Y-111454292D01*
X137498799Y-111454292D01*
D11*
X149491100Y-95404600D02*
X149491100Y-90904600D01*
X144991100Y-95404600D02*
X149491100Y-95404600D01*
X144991100Y-90904600D02*
X144991100Y-95404600D01*
X149491100Y-90904600D02*
X144991100Y-90904600D01*
X152611100Y-90578600D02*
X157111100Y-90578600D01*
X152611100Y-86078600D02*
X152611100Y-90578600D01*
X157111100Y-86078600D02*
X152611100Y-86078600D01*
X157111100Y-90578600D02*
X157111100Y-86078600D01*
X160739100Y-95150600D02*
X165239100Y-95150600D01*
X160739100Y-90650600D02*
X160739100Y-95150600D01*
X165239100Y-90650600D02*
X160739100Y-90650600D01*
X165239100Y-95150600D02*
X165239100Y-90650600D01*
X158707100Y-97762600D02*
X158707100Y-102262600D01*
X163207100Y-97762600D02*
X158707100Y-97762600D01*
X163207100Y-102262600D02*
X163207100Y-97762600D01*
X158707100Y-102262600D02*
X163207100Y-102262600D01*
D12*
X148919314Y-89423702D02*
X149264028Y-90342940D01*
X149608742Y-89423702D01*
X149723647Y-90917464D02*
X148517147Y-90917464D01*
X149723647Y-91606893D01*
X148517147Y-91606893D01*
X149723647Y-92698488D02*
X149091671Y-92698488D01*
X148976766Y-92641036D01*
X148919314Y-92526131D01*
X148919314Y-92296321D01*
X148976766Y-92181417D01*
X149666195Y-92698488D02*
X149723647Y-92583583D01*
X149723647Y-92296321D01*
X149666195Y-92181417D01*
X149551290Y-92123964D01*
X149436385Y-92123964D01*
X149321480Y-92181417D01*
X149264028Y-92296321D01*
X149264028Y-92583583D01*
X149206576Y-92698488D01*
X149723647Y-93273012D02*
X148919314Y-93273012D01*
X149034219Y-93273012D02*
X148976766Y-93330464D01*
X148919314Y-93445369D01*
X148919314Y-93617726D01*
X148976766Y-93732631D01*
X149091671Y-93790083D01*
X149723647Y-93790083D01*
X149091671Y-93790083D02*
X148976766Y-93847536D01*
X148919314Y-93962440D01*
X148919314Y-94134798D01*
X148976766Y-94249702D01*
X149091671Y-94307155D01*
X149723647Y-94307155D01*
X149666195Y-95341298D02*
X149723647Y-95226393D01*
X149723647Y-94996583D01*
X149666195Y-94881679D01*
X149551290Y-94824226D01*
X149091671Y-94824226D01*
X148976766Y-94881679D01*
X148919314Y-94996583D01*
X148919314Y-95226393D01*
X148976766Y-95341298D01*
X149091671Y-95398750D01*
X149206576Y-95398750D01*
X149321480Y-94824226D01*
X158591997Y-90006814D02*
X157672759Y-90351528D01*
X158591997Y-90696242D01*
X157098235Y-90811147D02*
X157098235Y-89604647D01*
X156408806Y-90811147D01*
X156408806Y-89604647D01*
X155317211Y-90811147D02*
X155317211Y-90179171D01*
X155374663Y-90064266D01*
X155489568Y-90006814D01*
X155719378Y-90006814D01*
X155834282Y-90064266D01*
X155317211Y-90753695D02*
X155432116Y-90811147D01*
X155719378Y-90811147D01*
X155834282Y-90753695D01*
X155891735Y-90638790D01*
X155891735Y-90523885D01*
X155834282Y-90408980D01*
X155719378Y-90351528D01*
X155432116Y-90351528D01*
X155317211Y-90294076D01*
X154742687Y-90811147D02*
X154742687Y-90006814D01*
X154742687Y-90121719D02*
X154685235Y-90064266D01*
X154570330Y-90006814D01*
X154397973Y-90006814D01*
X154283068Y-90064266D01*
X154225616Y-90179171D01*
X154225616Y-90811147D01*
X154225616Y-90179171D02*
X154168163Y-90064266D01*
X154053259Y-90006814D01*
X153880901Y-90006814D01*
X153765997Y-90064266D01*
X153708544Y-90179171D01*
X153708544Y-90811147D01*
X152674401Y-90753695D02*
X152789306Y-90811147D01*
X153019116Y-90811147D01*
X153134020Y-90753695D01*
X153191473Y-90638790D01*
X153191473Y-90179171D01*
X153134020Y-90064266D01*
X153019116Y-90006814D01*
X152789306Y-90006814D01*
X152674401Y-90064266D01*
X152616949Y-90179171D01*
X152616949Y-90294076D01*
X153191473Y-90408980D01*
X166719997Y-94578814D02*
X165800759Y-94923528D01*
X166719997Y-95268242D01*
X165226235Y-95383147D02*
X165226235Y-94176647D01*
X164536806Y-95383147D01*
X164536806Y-94176647D01*
X163445211Y-95383147D02*
X163445211Y-94751171D01*
X163502663Y-94636266D01*
X163617568Y-94578814D01*
X163847378Y-94578814D01*
X163962282Y-94636266D01*
X163445211Y-95325695D02*
X163560116Y-95383147D01*
X163847378Y-95383147D01*
X163962282Y-95325695D01*
X164019735Y-95210790D01*
X164019735Y-95095885D01*
X163962282Y-94980980D01*
X163847378Y-94923528D01*
X163560116Y-94923528D01*
X163445211Y-94866076D01*
X162870687Y-95383147D02*
X162870687Y-94578814D01*
X162870687Y-94693719D02*
X162813235Y-94636266D01*
X162698330Y-94578814D01*
X162525973Y-94578814D01*
X162411068Y-94636266D01*
X162353616Y-94751171D01*
X162353616Y-95383147D01*
X162353616Y-94751171D02*
X162296163Y-94636266D01*
X162181259Y-94578814D01*
X162008901Y-94578814D01*
X161893997Y-94636266D01*
X161836544Y-94751171D01*
X161836544Y-95383147D01*
X160802401Y-95325695D02*
X160917306Y-95383147D01*
X161147116Y-95383147D01*
X161262020Y-95325695D01*
X161319473Y-95210790D01*
X161319473Y-94751171D01*
X161262020Y-94636266D01*
X161147116Y-94578814D01*
X160917306Y-94578814D01*
X160802401Y-94636266D01*
X160744949Y-94751171D01*
X160744949Y-94866076D01*
X161319473Y-94980980D01*
X159278885Y-103743497D02*
X158934171Y-102824259D01*
X158589457Y-103743497D01*
X158474552Y-102249735D02*
X159681052Y-102249735D01*
X158474552Y-101560306D01*
X159681052Y-101560306D01*
X158474552Y-100468711D02*
X159106528Y-100468711D01*
X159221433Y-100526163D01*
X159278885Y-100641068D01*
X159278885Y-100870878D01*
X159221433Y-100985782D01*
X158532004Y-100468711D02*
X158474552Y-100583616D01*
X158474552Y-100870878D01*
X158532004Y-100985782D01*
X158646909Y-101043235D01*
X158761814Y-101043235D01*
X158876719Y-100985782D01*
X158934171Y-100870878D01*
X158934171Y-100583616D01*
X158991623Y-100468711D01*
X158474552Y-99894187D02*
X159278885Y-99894187D01*
X159163980Y-99894187D02*
X159221433Y-99836735D01*
X159278885Y-99721830D01*
X159278885Y-99549473D01*
X159221433Y-99434568D01*
X159106528Y-99377116D01*
X158474552Y-99377116D01*
X159106528Y-99377116D02*
X159221433Y-99319663D01*
X159278885Y-99204759D01*
X159278885Y-99032401D01*
X159221433Y-98917497D01*
X159106528Y-98860044D01*
X158474552Y-98860044D01*
X158532004Y-97825901D02*
X158474552Y-97940806D01*
X158474552Y-98170616D01*
X158532004Y-98285520D01*
X158646909Y-98342973D01*
X159106528Y-98342973D01*
X159221433Y-98285520D01*
X159278885Y-98170616D01*
X159278885Y-97940806D01*
X159221433Y-97825901D01*
X159106528Y-97768449D01*
X158991623Y-97768449D01*
X158876719Y-98342973D01*
M02*
