G04 #@! TF.GenerationSoftware,KiCad,Pcbnew,(5.1.2)-2*
G04 #@! TF.CreationDate,2021-11-10T11:30:02-03:00*
G04 #@! TF.ProjectId,PC_V1.2,50435f56-312e-4322-9e6b-696361645f70,rev?*
G04 #@! TF.SameCoordinates,Original*
G04 #@! TF.FileFunction,Soldermask,Top*
G04 #@! TF.FilePolarity,Negative*
%FSLAX46Y46*%
G04 Gerber Fmt 4.6, Leading zero omitted, Abs format (unit mm)*
G04 Created by KiCad (PCBNEW (5.1.2)-2) date 2021-11-10 11:30:02*
%MOMM*%
%LPD*%
G04 APERTURE LIST*
%ADD10C,0.100000*%
G04 APERTURE END LIST*
D10*
G36*
X133361613Y-124276888D02*
G01*
X133576562Y-124365923D01*
X133770005Y-124495177D01*
X133934523Y-124659695D01*
X134063777Y-124853138D01*
X134152812Y-125068087D01*
X134198200Y-125296270D01*
X134198200Y-125528930D01*
X134152812Y-125757113D01*
X134063777Y-125972062D01*
X133934523Y-126165505D01*
X133770005Y-126330023D01*
X133576562Y-126459277D01*
X133361613Y-126548312D01*
X133133430Y-126593700D01*
X132900770Y-126593700D01*
X132672587Y-126548312D01*
X132457638Y-126459277D01*
X132264195Y-126330023D01*
X132099677Y-126165505D01*
X131970423Y-125972062D01*
X131881388Y-125757113D01*
X131836000Y-125528930D01*
X131836000Y-125296270D01*
X131881388Y-125068087D01*
X131970423Y-124853138D01*
X132099677Y-124659695D01*
X132264195Y-124495177D01*
X132457638Y-124365923D01*
X132672587Y-124276888D01*
X132900770Y-124231500D01*
X133133430Y-124231500D01*
X133361613Y-124276888D01*
X133361613Y-124276888D01*
G37*
G36*
X145299613Y-122498888D02*
G01*
X145514562Y-122587923D01*
X145708005Y-122717177D01*
X145872523Y-122881695D01*
X146001777Y-123075138D01*
X146090812Y-123290087D01*
X146136200Y-123518270D01*
X146136200Y-123750930D01*
X146090812Y-123979113D01*
X146001777Y-124194062D01*
X145872523Y-124387505D01*
X145708005Y-124552023D01*
X145514562Y-124681277D01*
X145299613Y-124770312D01*
X145071430Y-124815700D01*
X144838770Y-124815700D01*
X144610587Y-124770312D01*
X144395638Y-124681277D01*
X144202195Y-124552023D01*
X144037677Y-124387505D01*
X143908423Y-124194062D01*
X143819388Y-123979113D01*
X143774000Y-123750930D01*
X143774000Y-123518270D01*
X143819388Y-123290087D01*
X143908423Y-123075138D01*
X144037677Y-122881695D01*
X144202195Y-122717177D01*
X144395638Y-122587923D01*
X144610587Y-122498888D01*
X144838770Y-122453500D01*
X145071430Y-122453500D01*
X145299613Y-122498888D01*
X145299613Y-122498888D01*
G37*
G36*
X138351100Y-123634600D02*
G01*
X136166700Y-123634600D01*
X136166700Y-122872600D01*
X138351100Y-122872600D01*
X138351100Y-123634600D01*
X138351100Y-123634600D01*
G37*
G36*
X133423500Y-123634600D02*
G01*
X131239100Y-123634600D01*
X131239100Y-122872600D01*
X133423500Y-122872600D01*
X133423500Y-123634600D01*
X133423500Y-123634600D01*
G37*
G36*
X139918700Y-122704200D02*
G01*
X138815500Y-122704200D01*
X138815500Y-121801000D01*
X139918700Y-121801000D01*
X139918700Y-122704200D01*
X139918700Y-122704200D01*
G37*
G36*
X133423500Y-122364600D02*
G01*
X131239100Y-122364600D01*
X131239100Y-121602600D01*
X133423500Y-121602600D01*
X133423500Y-122364600D01*
X133423500Y-122364600D01*
G37*
G36*
X138351100Y-122364600D02*
G01*
X136166700Y-122364600D01*
X136166700Y-121602600D01*
X138351100Y-121602600D01*
X138351100Y-122364600D01*
X138351100Y-122364600D01*
G37*
G36*
X142304700Y-121784200D02*
G01*
X141001500Y-121784200D01*
X141001500Y-120581000D01*
X142304700Y-120581000D01*
X142304700Y-121784200D01*
X142304700Y-121784200D01*
G37*
G36*
X145098700Y-121784200D02*
G01*
X143795500Y-121784200D01*
X143795500Y-120581000D01*
X145098700Y-120581000D01*
X145098700Y-121784200D01*
X145098700Y-121784200D01*
G37*
G36*
X139918700Y-121404200D02*
G01*
X138815500Y-121404200D01*
X138815500Y-120501000D01*
X139918700Y-120501000D01*
X139918700Y-121404200D01*
X139918700Y-121404200D01*
G37*
G36*
X155866823Y-119651313D02*
G01*
X156027242Y-119699976D01*
X156159906Y-119770886D01*
X156175078Y-119778996D01*
X156304659Y-119885341D01*
X156411004Y-120014922D01*
X156411005Y-120014924D01*
X156490024Y-120162758D01*
X156538687Y-120323177D01*
X156555117Y-120490000D01*
X156538687Y-120656823D01*
X156490024Y-120817242D01*
X156431785Y-120926200D01*
X156411004Y-120965078D01*
X156304659Y-121094659D01*
X156175078Y-121201004D01*
X156175076Y-121201005D01*
X156027242Y-121280024D01*
X155866823Y-121328687D01*
X155741804Y-121341000D01*
X155658196Y-121341000D01*
X155533177Y-121328687D01*
X155372758Y-121280024D01*
X155224924Y-121201005D01*
X155224922Y-121201004D01*
X155095341Y-121094659D01*
X154988996Y-120965078D01*
X154968215Y-120926200D01*
X154909976Y-120817242D01*
X154861313Y-120656823D01*
X154844883Y-120490000D01*
X154861313Y-120323177D01*
X154909976Y-120162758D01*
X154988995Y-120014924D01*
X154988996Y-120014922D01*
X155095341Y-119885341D01*
X155224922Y-119778996D01*
X155240094Y-119770886D01*
X155372758Y-119699976D01*
X155533177Y-119651313D01*
X155658196Y-119639000D01*
X155741804Y-119639000D01*
X155866823Y-119651313D01*
X155866823Y-119651313D01*
G37*
G36*
X163486823Y-119651313D02*
G01*
X163647242Y-119699976D01*
X163779906Y-119770886D01*
X163795078Y-119778996D01*
X163924659Y-119885341D01*
X164031004Y-120014922D01*
X164031005Y-120014924D01*
X164110024Y-120162758D01*
X164158687Y-120323177D01*
X164175117Y-120490000D01*
X164158687Y-120656823D01*
X164110024Y-120817242D01*
X164051785Y-120926200D01*
X164031004Y-120965078D01*
X163924659Y-121094659D01*
X163795078Y-121201004D01*
X163795076Y-121201005D01*
X163647242Y-121280024D01*
X163486823Y-121328687D01*
X163361804Y-121341000D01*
X163278196Y-121341000D01*
X163153177Y-121328687D01*
X162992758Y-121280024D01*
X162844924Y-121201005D01*
X162844922Y-121201004D01*
X162715341Y-121094659D01*
X162608996Y-120965078D01*
X162588215Y-120926200D01*
X162529976Y-120817242D01*
X162481313Y-120656823D01*
X162464883Y-120490000D01*
X162481313Y-120323177D01*
X162529976Y-120162758D01*
X162608995Y-120014924D01*
X162608996Y-120014922D01*
X162715341Y-119885341D01*
X162844922Y-119778996D01*
X162860094Y-119770886D01*
X162992758Y-119699976D01*
X163153177Y-119651313D01*
X163278196Y-119639000D01*
X163361804Y-119639000D01*
X163486823Y-119651313D01*
X163486823Y-119651313D01*
G37*
G36*
X133423500Y-121094600D02*
G01*
X131239100Y-121094600D01*
X131239100Y-120332600D01*
X133423500Y-120332600D01*
X133423500Y-121094600D01*
X133423500Y-121094600D01*
G37*
G36*
X138351100Y-121094600D02*
G01*
X136166700Y-121094600D01*
X136166700Y-120332600D01*
X138351100Y-120332600D01*
X138351100Y-121094600D01*
X138351100Y-121094600D01*
G37*
G36*
X130774700Y-120926200D02*
G01*
X129671500Y-120926200D01*
X129671500Y-120023000D01*
X130774700Y-120023000D01*
X130774700Y-120926200D01*
X130774700Y-120926200D01*
G37*
G36*
X145098700Y-120084200D02*
G01*
X143795500Y-120084200D01*
X143795500Y-118881000D01*
X145098700Y-118881000D01*
X145098700Y-120084200D01*
X145098700Y-120084200D01*
G37*
G36*
X142304700Y-120084200D02*
G01*
X141001500Y-120084200D01*
X141001500Y-118881000D01*
X142304700Y-118881000D01*
X142304700Y-120084200D01*
X142304700Y-120084200D01*
G37*
G36*
X138351100Y-119824600D02*
G01*
X136166700Y-119824600D01*
X136166700Y-119062600D01*
X138351100Y-119062600D01*
X138351100Y-119824600D01*
X138351100Y-119824600D01*
G37*
G36*
X133423500Y-119824600D02*
G01*
X131239100Y-119824600D01*
X131239100Y-119062600D01*
X133423500Y-119062600D01*
X133423500Y-119824600D01*
X133423500Y-119824600D01*
G37*
G36*
X130774700Y-119626200D02*
G01*
X129671500Y-119626200D01*
X129671500Y-118723000D01*
X130774700Y-118723000D01*
X130774700Y-119626200D01*
X130774700Y-119626200D01*
G37*
G36*
X155866823Y-117111313D02*
G01*
X156027242Y-117159976D01*
X156159906Y-117230886D01*
X156175078Y-117238996D01*
X156304659Y-117345341D01*
X156411004Y-117474922D01*
X156411005Y-117474924D01*
X156490024Y-117622758D01*
X156538687Y-117783177D01*
X156555117Y-117950000D01*
X156538687Y-118116823D01*
X156490024Y-118277242D01*
X156454234Y-118344200D01*
X156411004Y-118425078D01*
X156304659Y-118554659D01*
X156175078Y-118661004D01*
X156175076Y-118661005D01*
X156027242Y-118740024D01*
X155866823Y-118788687D01*
X155741804Y-118801000D01*
X155658196Y-118801000D01*
X155533177Y-118788687D01*
X155372758Y-118740024D01*
X155224924Y-118661005D01*
X155224922Y-118661004D01*
X155095341Y-118554659D01*
X154988996Y-118425078D01*
X154945766Y-118344200D01*
X154909976Y-118277242D01*
X154861313Y-118116823D01*
X154844883Y-117950000D01*
X154861313Y-117783177D01*
X154909976Y-117622758D01*
X154988995Y-117474924D01*
X154988996Y-117474922D01*
X155095341Y-117345341D01*
X155224922Y-117238996D01*
X155240094Y-117230886D01*
X155372758Y-117159976D01*
X155533177Y-117111313D01*
X155658196Y-117099000D01*
X155741804Y-117099000D01*
X155866823Y-117111313D01*
X155866823Y-117111313D01*
G37*
G36*
X163486823Y-117111313D02*
G01*
X163647242Y-117159976D01*
X163779906Y-117230886D01*
X163795078Y-117238996D01*
X163924659Y-117345341D01*
X164031004Y-117474922D01*
X164031005Y-117474924D01*
X164110024Y-117622758D01*
X164158687Y-117783177D01*
X164175117Y-117950000D01*
X164158687Y-118116823D01*
X164110024Y-118277242D01*
X164074234Y-118344200D01*
X164031004Y-118425078D01*
X163924659Y-118554659D01*
X163795078Y-118661004D01*
X163795076Y-118661005D01*
X163647242Y-118740024D01*
X163486823Y-118788687D01*
X163361804Y-118801000D01*
X163278196Y-118801000D01*
X163153177Y-118788687D01*
X162992758Y-118740024D01*
X162844924Y-118661005D01*
X162844922Y-118661004D01*
X162715341Y-118554659D01*
X162608996Y-118425078D01*
X162565766Y-118344200D01*
X162529976Y-118277242D01*
X162481313Y-118116823D01*
X162464883Y-117950000D01*
X162481313Y-117783177D01*
X162529976Y-117622758D01*
X162608995Y-117474924D01*
X162608996Y-117474922D01*
X162715341Y-117345341D01*
X162844922Y-117238996D01*
X162860094Y-117230886D01*
X162992758Y-117159976D01*
X163153177Y-117111313D01*
X163278196Y-117099000D01*
X163361804Y-117099000D01*
X163486823Y-117111313D01*
X163486823Y-117111313D01*
G37*
G36*
X140326700Y-118694200D02*
G01*
X139423500Y-118694200D01*
X139423500Y-116891000D01*
X140326700Y-116891000D01*
X140326700Y-118694200D01*
X140326700Y-118694200D01*
G37*
G36*
X132056700Y-118344200D02*
G01*
X131153500Y-118344200D01*
X131153500Y-117241000D01*
X132056700Y-117241000D01*
X132056700Y-118344200D01*
X132056700Y-118344200D01*
G37*
G36*
X133356700Y-118344200D02*
G01*
X132453500Y-118344200D01*
X132453500Y-117241000D01*
X133356700Y-117241000D01*
X133356700Y-118344200D01*
X133356700Y-118344200D01*
G37*
G36*
X145098700Y-118228200D02*
G01*
X143795500Y-118228200D01*
X143795500Y-117025000D01*
X145098700Y-117025000D01*
X145098700Y-118228200D01*
X145098700Y-118228200D01*
G37*
G36*
X147585613Y-115894888D02*
G01*
X147800562Y-115983923D01*
X147994005Y-116113177D01*
X148158523Y-116277695D01*
X148287777Y-116471138D01*
X148376812Y-116686087D01*
X148422200Y-116914270D01*
X148422200Y-117146930D01*
X148376812Y-117375113D01*
X148287777Y-117590062D01*
X148158523Y-117783505D01*
X147994005Y-117948023D01*
X147800562Y-118077277D01*
X147585613Y-118166312D01*
X147357430Y-118211700D01*
X147124770Y-118211700D01*
X146896587Y-118166312D01*
X146681638Y-118077277D01*
X146488195Y-117948023D01*
X146323677Y-117783505D01*
X146194423Y-117590062D01*
X146105388Y-117375113D01*
X146060000Y-117146930D01*
X146060000Y-116914270D01*
X146105388Y-116686087D01*
X146194423Y-116471138D01*
X146323677Y-116277695D01*
X146488195Y-116113177D01*
X146681638Y-115983923D01*
X146896587Y-115894888D01*
X147124770Y-115849500D01*
X147357430Y-115849500D01*
X147585613Y-115894888D01*
X147585613Y-115894888D01*
G37*
G36*
X137679613Y-115386888D02*
G01*
X137894562Y-115475923D01*
X138088005Y-115605177D01*
X138252523Y-115769695D01*
X138381777Y-115963138D01*
X138470812Y-116178087D01*
X138516200Y-116406270D01*
X138516200Y-116638930D01*
X138470812Y-116867113D01*
X138381777Y-117082062D01*
X138252523Y-117275505D01*
X138088005Y-117440023D01*
X137894562Y-117569277D01*
X137679613Y-117658312D01*
X137451430Y-117703700D01*
X137218770Y-117703700D01*
X136990587Y-117658312D01*
X136775638Y-117569277D01*
X136582195Y-117440023D01*
X136417677Y-117275505D01*
X136288423Y-117082062D01*
X136199388Y-116867113D01*
X136154000Y-116638930D01*
X136154000Y-116406270D01*
X136199388Y-116178087D01*
X136288423Y-115963138D01*
X136417677Y-115769695D01*
X136582195Y-115605177D01*
X136775638Y-115475923D01*
X136990587Y-115386888D01*
X137218770Y-115341500D01*
X137451430Y-115341500D01*
X137679613Y-115386888D01*
X137679613Y-115386888D01*
G37*
G36*
X145098700Y-116528200D02*
G01*
X143795500Y-116528200D01*
X143795500Y-115325000D01*
X145098700Y-115325000D01*
X145098700Y-116528200D01*
X145098700Y-116528200D01*
G37*
G36*
X163486823Y-114571313D02*
G01*
X163647242Y-114619976D01*
X163734312Y-114666516D01*
X163795078Y-114698996D01*
X163924659Y-114805341D01*
X164031004Y-114934922D01*
X164031005Y-114934924D01*
X164110024Y-115082758D01*
X164158687Y-115243177D01*
X164175117Y-115410000D01*
X164158687Y-115576823D01*
X164110024Y-115737242D01*
X164076307Y-115800322D01*
X164031004Y-115885078D01*
X163924659Y-116014659D01*
X163795078Y-116121004D01*
X163795076Y-116121005D01*
X163647242Y-116200024D01*
X163486823Y-116248687D01*
X163361804Y-116261000D01*
X163278196Y-116261000D01*
X163153177Y-116248687D01*
X162992758Y-116200024D01*
X162844924Y-116121005D01*
X162844922Y-116121004D01*
X162715341Y-116014659D01*
X162608996Y-115885078D01*
X162563693Y-115800322D01*
X162529976Y-115737242D01*
X162481313Y-115576823D01*
X162464883Y-115410000D01*
X162481313Y-115243177D01*
X162529976Y-115082758D01*
X162608995Y-114934924D01*
X162608996Y-114934922D01*
X162715341Y-114805341D01*
X162844922Y-114698996D01*
X162905688Y-114666516D01*
X162992758Y-114619976D01*
X163153177Y-114571313D01*
X163278196Y-114559000D01*
X163361804Y-114559000D01*
X163486823Y-114571313D01*
X163486823Y-114571313D01*
G37*
G36*
X155866823Y-114571313D02*
G01*
X156027242Y-114619976D01*
X156114312Y-114666516D01*
X156175078Y-114698996D01*
X156304659Y-114805341D01*
X156411004Y-114934922D01*
X156411005Y-114934924D01*
X156490024Y-115082758D01*
X156538687Y-115243177D01*
X156555117Y-115410000D01*
X156538687Y-115576823D01*
X156490024Y-115737242D01*
X156456307Y-115800322D01*
X156411004Y-115885078D01*
X156304659Y-116014659D01*
X156175078Y-116121004D01*
X156175076Y-116121005D01*
X156027242Y-116200024D01*
X155866823Y-116248687D01*
X155741804Y-116261000D01*
X155658196Y-116261000D01*
X155533177Y-116248687D01*
X155372758Y-116200024D01*
X155224924Y-116121005D01*
X155224922Y-116121004D01*
X155095341Y-116014659D01*
X154988996Y-115885078D01*
X154943693Y-115800322D01*
X154909976Y-115737242D01*
X154861313Y-115576823D01*
X154844883Y-115410000D01*
X154861313Y-115243177D01*
X154909976Y-115082758D01*
X154988995Y-114934924D01*
X154988996Y-114934922D01*
X155095341Y-114805341D01*
X155224922Y-114698996D01*
X155285688Y-114666516D01*
X155372758Y-114619976D01*
X155533177Y-114571313D01*
X155658196Y-114559000D01*
X155741804Y-114559000D01*
X155866823Y-114571313D01*
X155866823Y-114571313D01*
G37*
G36*
X132085812Y-114139165D02*
G01*
X132170395Y-114147496D01*
X132333184Y-114196878D01*
X132333187Y-114196879D01*
X132483207Y-114277066D01*
X132483208Y-114277067D01*
X132483212Y-114277069D01*
X132614712Y-114384988D01*
X132722631Y-114516488D01*
X132722633Y-114516492D01*
X132722634Y-114516493D01*
X132802821Y-114666513D01*
X132802822Y-114666516D01*
X132852204Y-114829305D01*
X132868878Y-114998600D01*
X132852204Y-115167895D01*
X132829367Y-115243177D01*
X132802821Y-115330687D01*
X132725191Y-115475923D01*
X132722631Y-115480712D01*
X132614712Y-115612212D01*
X132483212Y-115720131D01*
X132483208Y-115720133D01*
X132483207Y-115720134D01*
X132333187Y-115800321D01*
X132333184Y-115800322D01*
X132170395Y-115849704D01*
X132085812Y-115858035D01*
X132043521Y-115862200D01*
X130434679Y-115862200D01*
X130392388Y-115858035D01*
X130307805Y-115849704D01*
X130145016Y-115800322D01*
X130145013Y-115800321D01*
X129994993Y-115720134D01*
X129994992Y-115720133D01*
X129994988Y-115720131D01*
X129863488Y-115612212D01*
X129755569Y-115480712D01*
X129753009Y-115475923D01*
X129675379Y-115330687D01*
X129648833Y-115243177D01*
X129625996Y-115167895D01*
X129609322Y-114998600D01*
X129625996Y-114829305D01*
X129675378Y-114666516D01*
X129675379Y-114666513D01*
X129755566Y-114516493D01*
X129755567Y-114516492D01*
X129755569Y-114516488D01*
X129863488Y-114384988D01*
X129994988Y-114277069D01*
X129994992Y-114277067D01*
X129994993Y-114277066D01*
X130145013Y-114196879D01*
X130145016Y-114196878D01*
X130307805Y-114147496D01*
X130392388Y-114139165D01*
X130434679Y-114135000D01*
X132043521Y-114135000D01*
X132085812Y-114139165D01*
X132085812Y-114139165D01*
G37*
G36*
X143104700Y-115650200D02*
G01*
X141901500Y-115650200D01*
X141901500Y-114347000D01*
X143104700Y-114347000D01*
X143104700Y-115650200D01*
X143104700Y-115650200D01*
G37*
G36*
X141404700Y-115650200D02*
G01*
X140201500Y-115650200D01*
X140201500Y-114347000D01*
X141404700Y-114347000D01*
X141404700Y-115650200D01*
X141404700Y-115650200D01*
G37*
G36*
X149244513Y-112889288D02*
G01*
X149459462Y-112978323D01*
X149652905Y-113107577D01*
X149817423Y-113272095D01*
X149946677Y-113465538D01*
X150035712Y-113680487D01*
X150081100Y-113908670D01*
X150081100Y-114141330D01*
X150035712Y-114369513D01*
X149946677Y-114584462D01*
X149817423Y-114777905D01*
X149652905Y-114942423D01*
X149459462Y-115071677D01*
X149244513Y-115160712D01*
X149016330Y-115206100D01*
X148783670Y-115206100D01*
X148555487Y-115160712D01*
X148340538Y-115071677D01*
X148147095Y-114942423D01*
X147982577Y-114777905D01*
X147853323Y-114584462D01*
X147764288Y-114369513D01*
X147718900Y-114141330D01*
X147718900Y-113908670D01*
X147764288Y-113680487D01*
X147853323Y-113465538D01*
X147982577Y-113272095D01*
X148147095Y-113107577D01*
X148340538Y-112978323D01*
X148555487Y-112889288D01*
X148783670Y-112843900D01*
X149016330Y-112843900D01*
X149244513Y-112889288D01*
X149244513Y-112889288D01*
G37*
G36*
X155866823Y-112031313D02*
G01*
X156027242Y-112079976D01*
X156114312Y-112126516D01*
X156175078Y-112158996D01*
X156304659Y-112265341D01*
X156411004Y-112394922D01*
X156411005Y-112394924D01*
X156490024Y-112542758D01*
X156538687Y-112703177D01*
X156555117Y-112870000D01*
X156538687Y-113036823D01*
X156490024Y-113197242D01*
X156456307Y-113260322D01*
X156411004Y-113345078D01*
X156304659Y-113474659D01*
X156175078Y-113581004D01*
X156175076Y-113581005D01*
X156027242Y-113660024D01*
X155866823Y-113708687D01*
X155741804Y-113721000D01*
X155658196Y-113721000D01*
X155533177Y-113708687D01*
X155372758Y-113660024D01*
X155224924Y-113581005D01*
X155224922Y-113581004D01*
X155095341Y-113474659D01*
X154988996Y-113345078D01*
X154943693Y-113260322D01*
X154909976Y-113197242D01*
X154861313Y-113036823D01*
X154844883Y-112870000D01*
X154861313Y-112703177D01*
X154909976Y-112542758D01*
X154988995Y-112394924D01*
X154988996Y-112394922D01*
X155095341Y-112265341D01*
X155224922Y-112158996D01*
X155285688Y-112126516D01*
X155372758Y-112079976D01*
X155533177Y-112031313D01*
X155658196Y-112019000D01*
X155741804Y-112019000D01*
X155866823Y-112031313D01*
X155866823Y-112031313D01*
G37*
G36*
X163486823Y-112031313D02*
G01*
X163647242Y-112079976D01*
X163734312Y-112126516D01*
X163795078Y-112158996D01*
X163924659Y-112265341D01*
X164031004Y-112394922D01*
X164031005Y-112394924D01*
X164110024Y-112542758D01*
X164158687Y-112703177D01*
X164175117Y-112870000D01*
X164158687Y-113036823D01*
X164110024Y-113197242D01*
X164076307Y-113260322D01*
X164031004Y-113345078D01*
X163924659Y-113474659D01*
X163795078Y-113581004D01*
X163795076Y-113581005D01*
X163647242Y-113660024D01*
X163486823Y-113708687D01*
X163361804Y-113721000D01*
X163278196Y-113721000D01*
X163153177Y-113708687D01*
X162992758Y-113660024D01*
X162844924Y-113581005D01*
X162844922Y-113581004D01*
X162715341Y-113474659D01*
X162608996Y-113345078D01*
X162563693Y-113260322D01*
X162529976Y-113197242D01*
X162481313Y-113036823D01*
X162464883Y-112870000D01*
X162481313Y-112703177D01*
X162529976Y-112542758D01*
X162608995Y-112394924D01*
X162608996Y-112394922D01*
X162715341Y-112265341D01*
X162844922Y-112158996D01*
X162905688Y-112126516D01*
X162992758Y-112079976D01*
X163153177Y-112031313D01*
X163278196Y-112019000D01*
X163361804Y-112019000D01*
X163486823Y-112031313D01*
X163486823Y-112031313D01*
G37*
G36*
X132085812Y-111599165D02*
G01*
X132170395Y-111607496D01*
X132333184Y-111656878D01*
X132333187Y-111656879D01*
X132483207Y-111737066D01*
X132483208Y-111737067D01*
X132483212Y-111737069D01*
X132614712Y-111844988D01*
X132722631Y-111976488D01*
X132722633Y-111976492D01*
X132722634Y-111976493D01*
X132802821Y-112126513D01*
X132802822Y-112126516D01*
X132852204Y-112289305D01*
X132868878Y-112458600D01*
X132852204Y-112627895D01*
X132829367Y-112703177D01*
X132802821Y-112790687D01*
X132750117Y-112889289D01*
X132722631Y-112940712D01*
X132614712Y-113072212D01*
X132483212Y-113180131D01*
X132483208Y-113180133D01*
X132483207Y-113180134D01*
X132333187Y-113260321D01*
X132333184Y-113260322D01*
X132170395Y-113309704D01*
X132085812Y-113318035D01*
X132043521Y-113322200D01*
X130434679Y-113322200D01*
X130392388Y-113318035D01*
X130307805Y-113309704D01*
X130145016Y-113260322D01*
X130145013Y-113260321D01*
X129994993Y-113180134D01*
X129994992Y-113180133D01*
X129994988Y-113180131D01*
X129863488Y-113072212D01*
X129755569Y-112940712D01*
X129728083Y-112889289D01*
X129675379Y-112790687D01*
X129648833Y-112703177D01*
X129625996Y-112627895D01*
X129609322Y-112458600D01*
X129625996Y-112289305D01*
X129675378Y-112126516D01*
X129675379Y-112126513D01*
X129755566Y-111976493D01*
X129755567Y-111976492D01*
X129755569Y-111976488D01*
X129863488Y-111844988D01*
X129994988Y-111737069D01*
X129994992Y-111737067D01*
X129994993Y-111737066D01*
X130145013Y-111656879D01*
X130145016Y-111656878D01*
X130307805Y-111607496D01*
X130392388Y-111599165D01*
X130434679Y-111595000D01*
X132043521Y-111595000D01*
X132085812Y-111599165D01*
X132085812Y-111599165D01*
G37*
G36*
X143154700Y-113314200D02*
G01*
X141851500Y-113314200D01*
X141851500Y-112111000D01*
X143154700Y-112111000D01*
X143154700Y-113314200D01*
X143154700Y-113314200D01*
G37*
G36*
X141454700Y-113314200D02*
G01*
X140151500Y-113314200D01*
X140151500Y-112111000D01*
X141454700Y-112111000D01*
X141454700Y-113314200D01*
X141454700Y-113314200D01*
G37*
G36*
X146930700Y-113106200D02*
G01*
X146027500Y-113106200D01*
X146027500Y-111303000D01*
X146930700Y-111303000D01*
X146930700Y-113106200D01*
X146930700Y-113106200D01*
G37*
G36*
X136716700Y-112386200D02*
G01*
X135413500Y-112386200D01*
X135413500Y-111183000D01*
X136716700Y-111183000D01*
X136716700Y-112386200D01*
X136716700Y-112386200D01*
G37*
G36*
X144701100Y-111188600D02*
G01*
X142516700Y-111188600D01*
X142516700Y-110426600D01*
X144701100Y-110426600D01*
X144701100Y-111188600D01*
X144701100Y-111188600D01*
G37*
G36*
X139773500Y-111188600D02*
G01*
X137589100Y-111188600D01*
X137589100Y-110426600D01*
X139773500Y-110426600D01*
X139773500Y-111188600D01*
X139773500Y-111188600D01*
G37*
G36*
X163486823Y-109491313D02*
G01*
X163647242Y-109539976D01*
X163779906Y-109610886D01*
X163795078Y-109618996D01*
X163924659Y-109725341D01*
X164031004Y-109854922D01*
X164031005Y-109854924D01*
X164110024Y-110002758D01*
X164158687Y-110163177D01*
X164175117Y-110330000D01*
X164158687Y-110496823D01*
X164110024Y-110657242D01*
X164039114Y-110789906D01*
X164031004Y-110805078D01*
X163924659Y-110934659D01*
X163795078Y-111041004D01*
X163795076Y-111041005D01*
X163647242Y-111120024D01*
X163486823Y-111168687D01*
X163361804Y-111181000D01*
X163278196Y-111181000D01*
X163153177Y-111168687D01*
X162992758Y-111120024D01*
X162844924Y-111041005D01*
X162844922Y-111041004D01*
X162715341Y-110934659D01*
X162608996Y-110805078D01*
X162600886Y-110789906D01*
X162529976Y-110657242D01*
X162481313Y-110496823D01*
X162464883Y-110330000D01*
X162481313Y-110163177D01*
X162529976Y-110002758D01*
X162608995Y-109854924D01*
X162608996Y-109854922D01*
X162715341Y-109725341D01*
X162844922Y-109618996D01*
X162860094Y-109610886D01*
X162992758Y-109539976D01*
X163153177Y-109491313D01*
X163278196Y-109479000D01*
X163361804Y-109479000D01*
X163486823Y-109491313D01*
X163486823Y-109491313D01*
G37*
G36*
X155866823Y-109491313D02*
G01*
X156027242Y-109539976D01*
X156159906Y-109610886D01*
X156175078Y-109618996D01*
X156304659Y-109725341D01*
X156411004Y-109854922D01*
X156411005Y-109854924D01*
X156490024Y-110002758D01*
X156538687Y-110163177D01*
X156555117Y-110330000D01*
X156538687Y-110496823D01*
X156490024Y-110657242D01*
X156419114Y-110789906D01*
X156411004Y-110805078D01*
X156304659Y-110934659D01*
X156175078Y-111041004D01*
X156175076Y-111041005D01*
X156027242Y-111120024D01*
X155866823Y-111168687D01*
X155741804Y-111181000D01*
X155658196Y-111181000D01*
X155533177Y-111168687D01*
X155372758Y-111120024D01*
X155224924Y-111041005D01*
X155224922Y-111041004D01*
X155095341Y-110934659D01*
X154988996Y-110805078D01*
X154980886Y-110789906D01*
X154909976Y-110657242D01*
X154861313Y-110496823D01*
X154844883Y-110330000D01*
X154861313Y-110163177D01*
X154909976Y-110002758D01*
X154988995Y-109854924D01*
X154988996Y-109854922D01*
X155095341Y-109725341D01*
X155224922Y-109618996D01*
X155240094Y-109610886D01*
X155372758Y-109539976D01*
X155533177Y-109491313D01*
X155658196Y-109479000D01*
X155741804Y-109479000D01*
X155866823Y-109491313D01*
X155866823Y-109491313D01*
G37*
G36*
X136716700Y-110686200D02*
G01*
X135413500Y-110686200D01*
X135413500Y-109483000D01*
X136716700Y-109483000D01*
X136716700Y-110686200D01*
X136716700Y-110686200D01*
G37*
G36*
X149620700Y-110658200D02*
G01*
X148417500Y-110658200D01*
X148417500Y-109355000D01*
X149620700Y-109355000D01*
X149620700Y-110658200D01*
X149620700Y-110658200D01*
G37*
G36*
X147130700Y-110354200D02*
G01*
X145827500Y-110354200D01*
X145827500Y-109151000D01*
X147130700Y-109151000D01*
X147130700Y-110354200D01*
X147130700Y-110354200D01*
G37*
G36*
X139773500Y-109918600D02*
G01*
X137589100Y-109918600D01*
X137589100Y-109156600D01*
X139773500Y-109156600D01*
X139773500Y-109918600D01*
X139773500Y-109918600D01*
G37*
G36*
X144701100Y-109918600D02*
G01*
X142516700Y-109918600D01*
X142516700Y-109156600D01*
X144701100Y-109156600D01*
X144701100Y-109918600D01*
X144701100Y-109918600D01*
G37*
G36*
X149620700Y-108958200D02*
G01*
X148417500Y-108958200D01*
X148417500Y-107655000D01*
X149620700Y-107655000D01*
X149620700Y-108958200D01*
X149620700Y-108958200D01*
G37*
G36*
X132085812Y-107027165D02*
G01*
X132170395Y-107035496D01*
X132333184Y-107084878D01*
X132333187Y-107084879D01*
X132483207Y-107165066D01*
X132483208Y-107165067D01*
X132483212Y-107165069D01*
X132614712Y-107272988D01*
X132722631Y-107404488D01*
X132722633Y-107404492D01*
X132722634Y-107404493D01*
X132802821Y-107554513D01*
X132802822Y-107554516D01*
X132852204Y-107717305D01*
X132868878Y-107886600D01*
X132852204Y-108055895D01*
X132833595Y-108117239D01*
X132802821Y-108218687D01*
X132722634Y-108368707D01*
X132722631Y-108368712D01*
X132614712Y-108500212D01*
X132483212Y-108608131D01*
X132483208Y-108608133D01*
X132483207Y-108608134D01*
X132333187Y-108688321D01*
X132333184Y-108688322D01*
X132170395Y-108737704D01*
X132085812Y-108746035D01*
X132043521Y-108750200D01*
X130434679Y-108750200D01*
X130392388Y-108746035D01*
X130307805Y-108737704D01*
X130145016Y-108688322D01*
X130145013Y-108688321D01*
X129994993Y-108608134D01*
X129994992Y-108608133D01*
X129994988Y-108608131D01*
X129863488Y-108500212D01*
X129755569Y-108368712D01*
X129755566Y-108368707D01*
X129675379Y-108218687D01*
X129644605Y-108117239D01*
X129625996Y-108055895D01*
X129609322Y-107886600D01*
X129625996Y-107717305D01*
X129675378Y-107554516D01*
X129675379Y-107554513D01*
X129755566Y-107404493D01*
X129755567Y-107404492D01*
X129755569Y-107404488D01*
X129863488Y-107272988D01*
X129994988Y-107165069D01*
X129994992Y-107165067D01*
X129994993Y-107165066D01*
X130145013Y-107084879D01*
X130145016Y-107084878D01*
X130307805Y-107035496D01*
X130392388Y-107027165D01*
X130434679Y-107023000D01*
X132043521Y-107023000D01*
X132085812Y-107027165D01*
X132085812Y-107027165D01*
G37*
G36*
X147130700Y-108654200D02*
G01*
X145827500Y-108654200D01*
X145827500Y-107451000D01*
X147130700Y-107451000D01*
X147130700Y-108654200D01*
X147130700Y-108654200D01*
G37*
G36*
X139773500Y-108648600D02*
G01*
X137589100Y-108648600D01*
X137589100Y-107886600D01*
X139773500Y-107886600D01*
X139773500Y-108648600D01*
X139773500Y-108648600D01*
G37*
G36*
X144701100Y-108648600D02*
G01*
X142516700Y-108648600D01*
X142516700Y-107886600D01*
X144701100Y-107886600D01*
X144701100Y-108648600D01*
X144701100Y-108648600D01*
G37*
G36*
X155866823Y-106951313D02*
G01*
X156027242Y-106999976D01*
X156093695Y-107035496D01*
X156175078Y-107078996D01*
X156304659Y-107185341D01*
X156411004Y-107314922D01*
X156411005Y-107314924D01*
X156490024Y-107462758D01*
X156538687Y-107623177D01*
X156555117Y-107790000D01*
X156538687Y-107956823D01*
X156490024Y-108117242D01*
X156435802Y-108218684D01*
X156411004Y-108265078D01*
X156304659Y-108394659D01*
X156175078Y-108501004D01*
X156175076Y-108501005D01*
X156027242Y-108580024D01*
X155866823Y-108628687D01*
X155741804Y-108641000D01*
X155658196Y-108641000D01*
X155533177Y-108628687D01*
X155372758Y-108580024D01*
X155224924Y-108501005D01*
X155224922Y-108501004D01*
X155095341Y-108394659D01*
X154988996Y-108265078D01*
X154964198Y-108218684D01*
X154909976Y-108117242D01*
X154861313Y-107956823D01*
X154844883Y-107790000D01*
X154861313Y-107623177D01*
X154909976Y-107462758D01*
X154988995Y-107314924D01*
X154988996Y-107314922D01*
X155095341Y-107185341D01*
X155224922Y-107078996D01*
X155306305Y-107035496D01*
X155372758Y-106999976D01*
X155533177Y-106951313D01*
X155658196Y-106939000D01*
X155741804Y-106939000D01*
X155866823Y-106951313D01*
X155866823Y-106951313D01*
G37*
G36*
X163486823Y-106951313D02*
G01*
X163647242Y-106999976D01*
X163713695Y-107035496D01*
X163795078Y-107078996D01*
X163924659Y-107185341D01*
X164031004Y-107314922D01*
X164031005Y-107314924D01*
X164110024Y-107462758D01*
X164158687Y-107623177D01*
X164175117Y-107790000D01*
X164158687Y-107956823D01*
X164110024Y-108117242D01*
X164055802Y-108218684D01*
X164031004Y-108265078D01*
X163924659Y-108394659D01*
X163795078Y-108501004D01*
X163795076Y-108501005D01*
X163647242Y-108580024D01*
X163486823Y-108628687D01*
X163361804Y-108641000D01*
X163278196Y-108641000D01*
X163153177Y-108628687D01*
X162992758Y-108580024D01*
X162844924Y-108501005D01*
X162844922Y-108501004D01*
X162715341Y-108394659D01*
X162608996Y-108265078D01*
X162584198Y-108218684D01*
X162529976Y-108117242D01*
X162481313Y-107956823D01*
X162464883Y-107790000D01*
X162481313Y-107623177D01*
X162529976Y-107462758D01*
X162608995Y-107314924D01*
X162608996Y-107314922D01*
X162715341Y-107185341D01*
X162844922Y-107078996D01*
X162926305Y-107035496D01*
X162992758Y-106999976D01*
X163153177Y-106951313D01*
X163278196Y-106939000D01*
X163361804Y-106939000D01*
X163486823Y-106951313D01*
X163486823Y-106951313D01*
G37*
G36*
X144701100Y-107378600D02*
G01*
X142516700Y-107378600D01*
X142516700Y-106616600D01*
X144701100Y-106616600D01*
X144701100Y-107378600D01*
X144701100Y-107378600D01*
G37*
G36*
X139773500Y-107378600D02*
G01*
X137589100Y-107378600D01*
X137589100Y-106616600D01*
X139773500Y-106616600D01*
X139773500Y-107378600D01*
X139773500Y-107378600D01*
G37*
G36*
X151536700Y-107218200D02*
G01*
X150233500Y-107218200D01*
X150233500Y-106015000D01*
X151536700Y-106015000D01*
X151536700Y-107218200D01*
X151536700Y-107218200D01*
G37*
G36*
X149836700Y-107218200D02*
G01*
X148533500Y-107218200D01*
X148533500Y-106015000D01*
X149836700Y-106015000D01*
X149836700Y-107218200D01*
X149836700Y-107218200D01*
G37*
G36*
X132085812Y-104487165D02*
G01*
X132170395Y-104495496D01*
X132333184Y-104544878D01*
X132333187Y-104544879D01*
X132483207Y-104625066D01*
X132483208Y-104625067D01*
X132483212Y-104625069D01*
X132614712Y-104732988D01*
X132722631Y-104864488D01*
X132722633Y-104864492D01*
X132722634Y-104864493D01*
X132802821Y-105014513D01*
X132802822Y-105014516D01*
X132852204Y-105177305D01*
X132868878Y-105346600D01*
X132852204Y-105515895D01*
X132833595Y-105577239D01*
X132802821Y-105678687D01*
X132722634Y-105828707D01*
X132722631Y-105828712D01*
X132614712Y-105960212D01*
X132483212Y-106068131D01*
X132483208Y-106068133D01*
X132483207Y-106068134D01*
X132333187Y-106148321D01*
X132333184Y-106148322D01*
X132170395Y-106197704D01*
X132085812Y-106206035D01*
X132043521Y-106210200D01*
X130434679Y-106210200D01*
X130392388Y-106206035D01*
X130307805Y-106197704D01*
X130145016Y-106148322D01*
X130145013Y-106148321D01*
X129994993Y-106068134D01*
X129994992Y-106068133D01*
X129994988Y-106068131D01*
X129863488Y-105960212D01*
X129755569Y-105828712D01*
X129755566Y-105828707D01*
X129675379Y-105678687D01*
X129644605Y-105577239D01*
X129625996Y-105515895D01*
X129609322Y-105346600D01*
X129625996Y-105177305D01*
X129675378Y-105014516D01*
X129675379Y-105014513D01*
X129755566Y-104864493D01*
X129755567Y-104864492D01*
X129755569Y-104864488D01*
X129863488Y-104732988D01*
X129994988Y-104625069D01*
X129994992Y-104625067D01*
X129994993Y-104625066D01*
X130145013Y-104544879D01*
X130145016Y-104544878D01*
X130307805Y-104495496D01*
X130392388Y-104487165D01*
X130434679Y-104483000D01*
X132043521Y-104483000D01*
X132085812Y-104487165D01*
X132085812Y-104487165D01*
G37*
G36*
X137136700Y-106152200D02*
G01*
X136233500Y-106152200D01*
X136233500Y-105049000D01*
X137136700Y-105049000D01*
X137136700Y-106152200D01*
X137136700Y-106152200D01*
G37*
G36*
X138436700Y-106152200D02*
G01*
X137533500Y-106152200D01*
X137533500Y-105049000D01*
X138436700Y-105049000D01*
X138436700Y-106152200D01*
X138436700Y-106152200D01*
G37*
G36*
X163486823Y-104411313D02*
G01*
X163647242Y-104459976D01*
X163713695Y-104495496D01*
X163795078Y-104538996D01*
X163924659Y-104645341D01*
X164031004Y-104774922D01*
X164031005Y-104774924D01*
X164110024Y-104922758D01*
X164158687Y-105083177D01*
X164175117Y-105250000D01*
X164158687Y-105416823D01*
X164110024Y-105577242D01*
X164055802Y-105678684D01*
X164031004Y-105725078D01*
X163924659Y-105854659D01*
X163795078Y-105961004D01*
X163795076Y-105961005D01*
X163647242Y-106040024D01*
X163486823Y-106088687D01*
X163361804Y-106101000D01*
X163278196Y-106101000D01*
X163153177Y-106088687D01*
X162992758Y-106040024D01*
X162844924Y-105961005D01*
X162844922Y-105961004D01*
X162715341Y-105854659D01*
X162608996Y-105725078D01*
X162584198Y-105678684D01*
X162529976Y-105577242D01*
X162481313Y-105416823D01*
X162464883Y-105250000D01*
X162481313Y-105083177D01*
X162529976Y-104922758D01*
X162608995Y-104774924D01*
X162608996Y-104774922D01*
X162715341Y-104645341D01*
X162844922Y-104538996D01*
X162926305Y-104495496D01*
X162992758Y-104459976D01*
X163153177Y-104411313D01*
X163278196Y-104399000D01*
X163361804Y-104399000D01*
X163486823Y-104411313D01*
X163486823Y-104411313D01*
G37*
G36*
X156551000Y-106101000D02*
G01*
X154849000Y-106101000D01*
X154849000Y-104399000D01*
X156551000Y-104399000D01*
X156551000Y-106101000D01*
X156551000Y-106101000D01*
G37*
G36*
X144006700Y-105428200D02*
G01*
X142603500Y-105428200D01*
X142603500Y-102725000D01*
X144006700Y-102725000D01*
X144006700Y-105428200D01*
X144006700Y-105428200D01*
G37*
G36*
X147306700Y-105428200D02*
G01*
X145903500Y-105428200D01*
X145903500Y-102725000D01*
X147306700Y-102725000D01*
X147306700Y-105428200D01*
X147306700Y-105428200D01*
G37*
G36*
X149786700Y-105236200D02*
G01*
X148583500Y-105236200D01*
X148583500Y-103933000D01*
X149786700Y-103933000D01*
X149786700Y-105236200D01*
X149786700Y-105236200D01*
G37*
G36*
X151486700Y-105236200D02*
G01*
X150283500Y-105236200D01*
X150283500Y-103933000D01*
X151486700Y-103933000D01*
X151486700Y-105236200D01*
X151486700Y-105236200D01*
G37*
G36*
X139658700Y-104317700D02*
G01*
X137855500Y-104317700D01*
X137855500Y-102311500D01*
X139658700Y-102311500D01*
X139658700Y-104317700D01*
X139658700Y-104317700D01*
G37*
G36*
X136814700Y-104317700D02*
G01*
X135011500Y-104317700D01*
X135011500Y-102311500D01*
X136814700Y-102311500D01*
X136814700Y-104317700D01*
X136814700Y-104317700D01*
G37*
G36*
X165111613Y-99130888D02*
G01*
X165326562Y-99219923D01*
X165520005Y-99349177D01*
X165684523Y-99513695D01*
X165813777Y-99707138D01*
X165902812Y-99922087D01*
X165948200Y-100150270D01*
X165948200Y-100382930D01*
X165902812Y-100611113D01*
X165813777Y-100826062D01*
X165684523Y-101019505D01*
X165520005Y-101184023D01*
X165326562Y-101313277D01*
X165111613Y-101402312D01*
X164883430Y-101447700D01*
X164650770Y-101447700D01*
X164422587Y-101402312D01*
X164207638Y-101313277D01*
X164014195Y-101184023D01*
X163849677Y-101019505D01*
X163720423Y-100826062D01*
X163631388Y-100611113D01*
X163586000Y-100382930D01*
X163586000Y-100150270D01*
X163631388Y-99922087D01*
X163720423Y-99707138D01*
X163849677Y-99513695D01*
X164014195Y-99349177D01*
X164207638Y-99219923D01*
X164422587Y-99130888D01*
X164650770Y-99085500D01*
X164883430Y-99085500D01*
X165111613Y-99130888D01*
X165111613Y-99130888D01*
G37*
G36*
X145530700Y-100602200D02*
G01*
X144127500Y-100602200D01*
X144127500Y-97899000D01*
X145530700Y-97899000D01*
X145530700Y-100602200D01*
X145530700Y-100602200D01*
G37*
G36*
X148830700Y-100602200D02*
G01*
X147427500Y-100602200D01*
X147427500Y-97899000D01*
X148830700Y-97899000D01*
X148830700Y-100602200D01*
X148830700Y-100602200D01*
G37*
G36*
X164264700Y-97870200D02*
G01*
X163061500Y-97870200D01*
X163061500Y-96567000D01*
X164264700Y-96567000D01*
X164264700Y-97870200D01*
X164264700Y-97870200D01*
G37*
G36*
X165964700Y-97870200D02*
G01*
X164761500Y-97870200D01*
X164761500Y-96567000D01*
X165964700Y-96567000D01*
X165964700Y-97870200D01*
X165964700Y-97870200D01*
G37*
G36*
X132339812Y-95089165D02*
G01*
X132424395Y-95097496D01*
X132587184Y-95146878D01*
X132587187Y-95146879D01*
X132737207Y-95227066D01*
X132737208Y-95227067D01*
X132737212Y-95227069D01*
X132868712Y-95334988D01*
X132976631Y-95466488D01*
X132976633Y-95466492D01*
X132976634Y-95466493D01*
X133056821Y-95616513D01*
X133056822Y-95616516D01*
X133106204Y-95779305D01*
X133122878Y-95948600D01*
X133106204Y-96117895D01*
X133056822Y-96280684D01*
X133056821Y-96280687D01*
X132976634Y-96430707D01*
X132976631Y-96430712D01*
X132868712Y-96562212D01*
X132737212Y-96670131D01*
X132737208Y-96670133D01*
X132737207Y-96670134D01*
X132587187Y-96750321D01*
X132587184Y-96750322D01*
X132424395Y-96799704D01*
X132339812Y-96808035D01*
X132297521Y-96812200D01*
X130688679Y-96812200D01*
X130646388Y-96808035D01*
X130561805Y-96799704D01*
X130399016Y-96750322D01*
X130399013Y-96750321D01*
X130248993Y-96670134D01*
X130248992Y-96670133D01*
X130248988Y-96670131D01*
X130117488Y-96562212D01*
X130009569Y-96430712D01*
X130009566Y-96430707D01*
X129929379Y-96280687D01*
X129929378Y-96280684D01*
X129879996Y-96117895D01*
X129863322Y-95948600D01*
X129879996Y-95779305D01*
X129929378Y-95616516D01*
X129929379Y-95616513D01*
X130009566Y-95466493D01*
X130009567Y-95466492D01*
X130009569Y-95466488D01*
X130117488Y-95334988D01*
X130248988Y-95227069D01*
X130248992Y-95227067D01*
X130248993Y-95227066D01*
X130399013Y-95146879D01*
X130399016Y-95146878D01*
X130561805Y-95097496D01*
X130646388Y-95089165D01*
X130688679Y-95085000D01*
X132297521Y-95085000D01*
X132339812Y-95089165D01*
X132339812Y-95089165D01*
G37*
G36*
X141997613Y-93796888D02*
G01*
X142212562Y-93885923D01*
X142406005Y-94015177D01*
X142570523Y-94179695D01*
X142699777Y-94373138D01*
X142788812Y-94588087D01*
X142834200Y-94816270D01*
X142834200Y-95048930D01*
X142788812Y-95277113D01*
X142699777Y-95492062D01*
X142570523Y-95685505D01*
X142406005Y-95850023D01*
X142212562Y-95979277D01*
X141997613Y-96068312D01*
X141769430Y-96113700D01*
X141536770Y-96113700D01*
X141308587Y-96068312D01*
X141093638Y-95979277D01*
X140900195Y-95850023D01*
X140735677Y-95685505D01*
X140606423Y-95492062D01*
X140517388Y-95277113D01*
X140472000Y-95048930D01*
X140472000Y-94816270D01*
X140517388Y-94588087D01*
X140606423Y-94373138D01*
X140735677Y-94179695D01*
X140900195Y-94015177D01*
X141093638Y-93885923D01*
X141308587Y-93796888D01*
X141536770Y-93751500D01*
X141769430Y-93751500D01*
X141997613Y-93796888D01*
X141997613Y-93796888D01*
G37*
G36*
X165121175Y-94674937D02*
G01*
X165124418Y-94675921D01*
X165127411Y-94677521D01*
X165130030Y-94679670D01*
X165132179Y-94682289D01*
X165133779Y-94685282D01*
X165134763Y-94688525D01*
X165135700Y-94698041D01*
X165135700Y-95543159D01*
X165134763Y-95552675D01*
X165133779Y-95555918D01*
X165132179Y-95558911D01*
X165130030Y-95561530D01*
X165127411Y-95563679D01*
X165124418Y-95565279D01*
X165121175Y-95566263D01*
X165111659Y-95567200D01*
X163746541Y-95567200D01*
X163737025Y-95566263D01*
X163733782Y-95565279D01*
X163730789Y-95563679D01*
X163728170Y-95561530D01*
X163726021Y-95558911D01*
X163724421Y-95555918D01*
X163723437Y-95552675D01*
X163722500Y-95543159D01*
X163722500Y-94698041D01*
X163723437Y-94688525D01*
X163724421Y-94685282D01*
X163726021Y-94682289D01*
X163728170Y-94679670D01*
X163730789Y-94677521D01*
X163733782Y-94675921D01*
X163737025Y-94674937D01*
X163746541Y-94674000D01*
X165111659Y-94674000D01*
X165121175Y-94674937D01*
X165121175Y-94674937D01*
G37*
G36*
X150178700Y-95114200D02*
G01*
X148875500Y-95114200D01*
X148875500Y-93911000D01*
X150178700Y-93911000D01*
X150178700Y-95114200D01*
X150178700Y-95114200D01*
G37*
G36*
X148146700Y-95114200D02*
G01*
X146843500Y-95114200D01*
X146843500Y-93911000D01*
X148146700Y-93911000D01*
X148146700Y-95114200D01*
X148146700Y-95114200D01*
G37*
G36*
X162878700Y-94860200D02*
G01*
X161575500Y-94860200D01*
X161575500Y-93657000D01*
X162878700Y-93657000D01*
X162878700Y-94860200D01*
X162878700Y-94860200D01*
G37*
G36*
X145606700Y-94860200D02*
G01*
X144303500Y-94860200D01*
X144303500Y-93657000D01*
X145606700Y-93657000D01*
X145606700Y-94860200D01*
X145606700Y-94860200D01*
G37*
G36*
X160846700Y-94860200D02*
G01*
X159543500Y-94860200D01*
X159543500Y-93657000D01*
X160846700Y-93657000D01*
X160846700Y-94860200D01*
X160846700Y-94860200D01*
G37*
G36*
X167321175Y-93724937D02*
G01*
X167324418Y-93725921D01*
X167327411Y-93727521D01*
X167330030Y-93729670D01*
X167332179Y-93732289D01*
X167333779Y-93735282D01*
X167334763Y-93738525D01*
X167335700Y-93748041D01*
X167335700Y-94593159D01*
X167334763Y-94602675D01*
X167333779Y-94605918D01*
X167332179Y-94608911D01*
X167330030Y-94611530D01*
X167327411Y-94613679D01*
X167324418Y-94615279D01*
X167321175Y-94616263D01*
X167311659Y-94617200D01*
X165946541Y-94617200D01*
X165937025Y-94616263D01*
X165933782Y-94615279D01*
X165930789Y-94613679D01*
X165928170Y-94611530D01*
X165926021Y-94608911D01*
X165924421Y-94605918D01*
X165923437Y-94602675D01*
X165922500Y-94593159D01*
X165922500Y-93748041D01*
X165923437Y-93738525D01*
X165924421Y-93735282D01*
X165926021Y-93732289D01*
X165928170Y-93729670D01*
X165930789Y-93727521D01*
X165933782Y-93725921D01*
X165937025Y-93724937D01*
X165946541Y-93724000D01*
X167311659Y-93724000D01*
X167321175Y-93724937D01*
X167321175Y-93724937D01*
G37*
G36*
X132339812Y-92549165D02*
G01*
X132424395Y-92557496D01*
X132587184Y-92606878D01*
X132587187Y-92606879D01*
X132737207Y-92687066D01*
X132737208Y-92687067D01*
X132737212Y-92687069D01*
X132868712Y-92794988D01*
X132976631Y-92926488D01*
X132976633Y-92926492D01*
X132976634Y-92926493D01*
X133056821Y-93076513D01*
X133056822Y-93076516D01*
X133106204Y-93239305D01*
X133122878Y-93408600D01*
X133106204Y-93577895D01*
X133079113Y-93667200D01*
X133056821Y-93740687D01*
X133017705Y-93813868D01*
X132976631Y-93890712D01*
X132868712Y-94022212D01*
X132737212Y-94130131D01*
X132737208Y-94130133D01*
X132737207Y-94130134D01*
X132587187Y-94210321D01*
X132587184Y-94210322D01*
X132424395Y-94259704D01*
X132339812Y-94268035D01*
X132297521Y-94272200D01*
X130688679Y-94272200D01*
X130646388Y-94268035D01*
X130561805Y-94259704D01*
X130399016Y-94210322D01*
X130399013Y-94210321D01*
X130248993Y-94130134D01*
X130248992Y-94130133D01*
X130248988Y-94130131D01*
X130117488Y-94022212D01*
X130009569Y-93890712D01*
X129968495Y-93813868D01*
X129929379Y-93740687D01*
X129907087Y-93667200D01*
X129879996Y-93577895D01*
X129863322Y-93408600D01*
X129879996Y-93239305D01*
X129929378Y-93076516D01*
X129929379Y-93076513D01*
X130009566Y-92926493D01*
X130009567Y-92926492D01*
X130009569Y-92926488D01*
X130117488Y-92794988D01*
X130248988Y-92687069D01*
X130248992Y-92687067D01*
X130248993Y-92687066D01*
X130399013Y-92606879D01*
X130399016Y-92606878D01*
X130561805Y-92557496D01*
X130646388Y-92549165D01*
X130688679Y-92545000D01*
X132297521Y-92545000D01*
X132339812Y-92549165D01*
X132339812Y-92549165D01*
G37*
G36*
X165121175Y-92774937D02*
G01*
X165124418Y-92775921D01*
X165127411Y-92777521D01*
X165130030Y-92779670D01*
X165132179Y-92782289D01*
X165133779Y-92785282D01*
X165134763Y-92788525D01*
X165135700Y-92798041D01*
X165135700Y-93643159D01*
X165134763Y-93652675D01*
X165133779Y-93655918D01*
X165132179Y-93658911D01*
X165130030Y-93661530D01*
X165127411Y-93663679D01*
X165124418Y-93665279D01*
X165121175Y-93666263D01*
X165111659Y-93667200D01*
X163746541Y-93667200D01*
X163737025Y-93666263D01*
X163733782Y-93665279D01*
X163730789Y-93663679D01*
X163728170Y-93661530D01*
X163726021Y-93658911D01*
X163724421Y-93655918D01*
X163723437Y-93652675D01*
X163722500Y-93643159D01*
X163722500Y-92798041D01*
X163723437Y-92788525D01*
X163724421Y-92785282D01*
X163726021Y-92782289D01*
X163728170Y-92779670D01*
X163730789Y-92777521D01*
X163733782Y-92775921D01*
X163737025Y-92774937D01*
X163746541Y-92774000D01*
X165111659Y-92774000D01*
X165121175Y-92774937D01*
X165121175Y-92774937D01*
G37*
G36*
X150178700Y-93414200D02*
G01*
X148875500Y-93414200D01*
X148875500Y-92211000D01*
X150178700Y-92211000D01*
X150178700Y-93414200D01*
X150178700Y-93414200D01*
G37*
G36*
X148146700Y-93414200D02*
G01*
X146843500Y-93414200D01*
X146843500Y-92211000D01*
X148146700Y-92211000D01*
X148146700Y-93414200D01*
X148146700Y-93414200D01*
G37*
G36*
X152210700Y-93336200D02*
G01*
X150907500Y-93336200D01*
X150907500Y-92133000D01*
X152210700Y-92133000D01*
X152210700Y-93336200D01*
X152210700Y-93336200D01*
G37*
G36*
X142593175Y-91770937D02*
G01*
X142596418Y-91771921D01*
X142599411Y-91773521D01*
X142602030Y-91775670D01*
X142604179Y-91778289D01*
X142605779Y-91781282D01*
X142606763Y-91784525D01*
X142607700Y-91794041D01*
X142607700Y-93159159D01*
X142606763Y-93168675D01*
X142605779Y-93171918D01*
X142604179Y-93174911D01*
X142602030Y-93177530D01*
X142599411Y-93179679D01*
X142596418Y-93181279D01*
X142593175Y-93182263D01*
X142583659Y-93183200D01*
X141738541Y-93183200D01*
X141729025Y-93182263D01*
X141725782Y-93181279D01*
X141722789Y-93179679D01*
X141720170Y-93177530D01*
X141718021Y-93174911D01*
X141716421Y-93171918D01*
X141715437Y-93168675D01*
X141714500Y-93159159D01*
X141714500Y-91794041D01*
X141715437Y-91784525D01*
X141716421Y-91781282D01*
X141718021Y-91778289D01*
X141720170Y-91775670D01*
X141722789Y-91773521D01*
X141725782Y-91771921D01*
X141729025Y-91770937D01*
X141738541Y-91770000D01*
X142583659Y-91770000D01*
X142593175Y-91770937D01*
X142593175Y-91770937D01*
G37*
G36*
X160846700Y-93160200D02*
G01*
X159543500Y-93160200D01*
X159543500Y-91957000D01*
X160846700Y-91957000D01*
X160846700Y-93160200D01*
X160846700Y-93160200D01*
G37*
G36*
X162878700Y-93160200D02*
G01*
X161575500Y-93160200D01*
X161575500Y-91957000D01*
X162878700Y-91957000D01*
X162878700Y-93160200D01*
X162878700Y-93160200D01*
G37*
G36*
X145606700Y-93160200D02*
G01*
X144303500Y-93160200D01*
X144303500Y-91957000D01*
X145606700Y-91957000D01*
X145606700Y-93160200D01*
X145606700Y-93160200D01*
G37*
G36*
X156782700Y-92828200D02*
G01*
X155479500Y-92828200D01*
X155479500Y-91625000D01*
X156782700Y-91625000D01*
X156782700Y-92828200D01*
X156782700Y-92828200D01*
G37*
G36*
X158814700Y-92828200D02*
G01*
X157511500Y-92828200D01*
X157511500Y-91625000D01*
X158814700Y-91625000D01*
X158814700Y-92828200D01*
X158814700Y-92828200D01*
G37*
G36*
X154496700Y-92320200D02*
G01*
X153193500Y-92320200D01*
X153193500Y-91117000D01*
X154496700Y-91117000D01*
X154496700Y-92320200D01*
X154496700Y-92320200D01*
G37*
G36*
X132339812Y-90009165D02*
G01*
X132424395Y-90017496D01*
X132587184Y-90066878D01*
X132587187Y-90066879D01*
X132737207Y-90147066D01*
X132737208Y-90147067D01*
X132737212Y-90147069D01*
X132868712Y-90254988D01*
X132976631Y-90386488D01*
X132976633Y-90386492D01*
X132976634Y-90386493D01*
X133056821Y-90536513D01*
X133056822Y-90536516D01*
X133106204Y-90699305D01*
X133122878Y-90868600D01*
X133106204Y-91037895D01*
X133078810Y-91128200D01*
X133056821Y-91200687D01*
X132976634Y-91350707D01*
X132976631Y-91350712D01*
X132868712Y-91482212D01*
X132737212Y-91590131D01*
X132737208Y-91590133D01*
X132737207Y-91590134D01*
X132587187Y-91670321D01*
X132587184Y-91670322D01*
X132424395Y-91719704D01*
X132339812Y-91728035D01*
X132297521Y-91732200D01*
X130688679Y-91732200D01*
X130646388Y-91728035D01*
X130561805Y-91719704D01*
X130399016Y-91670322D01*
X130399013Y-91670321D01*
X130248993Y-91590134D01*
X130248992Y-91590133D01*
X130248988Y-91590131D01*
X130117488Y-91482212D01*
X130009569Y-91350712D01*
X130009566Y-91350707D01*
X129929379Y-91200687D01*
X129907390Y-91128200D01*
X129879996Y-91037895D01*
X129863322Y-90868600D01*
X129879996Y-90699305D01*
X129929378Y-90536516D01*
X129929379Y-90536513D01*
X130009566Y-90386493D01*
X130009567Y-90386492D01*
X130009569Y-90386488D01*
X130117488Y-90254988D01*
X130248988Y-90147069D01*
X130248992Y-90147067D01*
X130248993Y-90147066D01*
X130399013Y-90066879D01*
X130399016Y-90066878D01*
X130561805Y-90017496D01*
X130646388Y-90009165D01*
X130688679Y-90005000D01*
X132297521Y-90005000D01*
X132339812Y-90009165D01*
X132339812Y-90009165D01*
G37*
G36*
X152210700Y-91636200D02*
G01*
X150907500Y-91636200D01*
X150907500Y-90433000D01*
X152210700Y-90433000D01*
X152210700Y-91636200D01*
X152210700Y-91636200D01*
G37*
G36*
X158814700Y-91128200D02*
G01*
X157511500Y-91128200D01*
X157511500Y-89925000D01*
X158814700Y-89925000D01*
X158814700Y-91128200D01*
X158814700Y-91128200D01*
G37*
G36*
X156782700Y-91128200D02*
G01*
X155479500Y-91128200D01*
X155479500Y-89925000D01*
X156782700Y-89925000D01*
X156782700Y-91128200D01*
X156782700Y-91128200D01*
G37*
G36*
X141643175Y-89570937D02*
G01*
X141646418Y-89571921D01*
X141649411Y-89573521D01*
X141652030Y-89575670D01*
X141654179Y-89578289D01*
X141655779Y-89581282D01*
X141656763Y-89584525D01*
X141657700Y-89594041D01*
X141657700Y-90959159D01*
X141656763Y-90968675D01*
X141655779Y-90971918D01*
X141654179Y-90974911D01*
X141652030Y-90977530D01*
X141649411Y-90979679D01*
X141646418Y-90981279D01*
X141643175Y-90982263D01*
X141633659Y-90983200D01*
X140788541Y-90983200D01*
X140779025Y-90982263D01*
X140775782Y-90981279D01*
X140772789Y-90979679D01*
X140770170Y-90977530D01*
X140768021Y-90974911D01*
X140766421Y-90971918D01*
X140765437Y-90968675D01*
X140764500Y-90959159D01*
X140764500Y-89594041D01*
X140765437Y-89584525D01*
X140766421Y-89581282D01*
X140768021Y-89578289D01*
X140770170Y-89575670D01*
X140772789Y-89573521D01*
X140775782Y-89571921D01*
X140779025Y-89570937D01*
X140788541Y-89570000D01*
X141633659Y-89570000D01*
X141643175Y-89570937D01*
X141643175Y-89570937D01*
G37*
G36*
X143543175Y-89570937D02*
G01*
X143546418Y-89571921D01*
X143549411Y-89573521D01*
X143552030Y-89575670D01*
X143554179Y-89578289D01*
X143555779Y-89581282D01*
X143556763Y-89584525D01*
X143557700Y-89594041D01*
X143557700Y-90959159D01*
X143556763Y-90968675D01*
X143555779Y-90971918D01*
X143554179Y-90974911D01*
X143552030Y-90977530D01*
X143549411Y-90979679D01*
X143546418Y-90981279D01*
X143543175Y-90982263D01*
X143533659Y-90983200D01*
X142688541Y-90983200D01*
X142679025Y-90982263D01*
X142675782Y-90981279D01*
X142672789Y-90979679D01*
X142670170Y-90977530D01*
X142668021Y-90974911D01*
X142666421Y-90971918D01*
X142665437Y-90968675D01*
X142664500Y-90959159D01*
X142664500Y-89594041D01*
X142665437Y-89584525D01*
X142666421Y-89581282D01*
X142668021Y-89578289D01*
X142670170Y-89575670D01*
X142672789Y-89573521D01*
X142675782Y-89571921D01*
X142679025Y-89570937D01*
X142688541Y-89570000D01*
X143533659Y-89570000D01*
X143543175Y-89570937D01*
X143543175Y-89570937D01*
G37*
G36*
X154496700Y-90620200D02*
G01*
X153193500Y-90620200D01*
X153193500Y-89417000D01*
X154496700Y-89417000D01*
X154496700Y-90620200D01*
X154496700Y-90620200D01*
G37*
G36*
X161608700Y-90542200D02*
G01*
X160305500Y-90542200D01*
X160305500Y-89339000D01*
X161608700Y-89339000D01*
X161608700Y-90542200D01*
X161608700Y-90542200D01*
G37*
G36*
X150686700Y-89526200D02*
G01*
X149383500Y-89526200D01*
X149383500Y-88323000D01*
X150686700Y-88323000D01*
X150686700Y-89526200D01*
X150686700Y-89526200D01*
G37*
G36*
X163587613Y-86938888D02*
G01*
X163802562Y-87027923D01*
X163996005Y-87157177D01*
X164160523Y-87321695D01*
X164289777Y-87515138D01*
X164378812Y-87730087D01*
X164424200Y-87958270D01*
X164424200Y-88190930D01*
X164378812Y-88419113D01*
X164289777Y-88634062D01*
X164160523Y-88827505D01*
X163996005Y-88992023D01*
X163802562Y-89121277D01*
X163587613Y-89210312D01*
X163359430Y-89255700D01*
X163126770Y-89255700D01*
X162898587Y-89210312D01*
X162683638Y-89121277D01*
X162490195Y-88992023D01*
X162325677Y-88827505D01*
X162196423Y-88634062D01*
X162107388Y-88419113D01*
X162062000Y-88190930D01*
X162062000Y-87958270D01*
X162107388Y-87730087D01*
X162196423Y-87515138D01*
X162325677Y-87321695D01*
X162490195Y-87157177D01*
X162683638Y-87027923D01*
X162898587Y-86938888D01*
X163126770Y-86893500D01*
X163359430Y-86893500D01*
X163587613Y-86938888D01*
X163587613Y-86938888D01*
G37*
G36*
X132339812Y-87469165D02*
G01*
X132424395Y-87477496D01*
X132587184Y-87526878D01*
X132587187Y-87526879D01*
X132737207Y-87607066D01*
X132737208Y-87607067D01*
X132737212Y-87607069D01*
X132868712Y-87714988D01*
X132976631Y-87846488D01*
X132976633Y-87846492D01*
X132976634Y-87846493D01*
X133056821Y-87996513D01*
X133056822Y-87996516D01*
X133106204Y-88159305D01*
X133122878Y-88328600D01*
X133106204Y-88497895D01*
X133083267Y-88573507D01*
X133056821Y-88660687D01*
X133015484Y-88738023D01*
X132976631Y-88810712D01*
X132868712Y-88942212D01*
X132737212Y-89050131D01*
X132737208Y-89050133D01*
X132737207Y-89050134D01*
X132587187Y-89130321D01*
X132587184Y-89130322D01*
X132424395Y-89179704D01*
X132339812Y-89188035D01*
X132297521Y-89192200D01*
X130688679Y-89192200D01*
X130646388Y-89188035D01*
X130561805Y-89179704D01*
X130399016Y-89130322D01*
X130399013Y-89130321D01*
X130248993Y-89050134D01*
X130248992Y-89050133D01*
X130248988Y-89050131D01*
X130117488Y-88942212D01*
X130009569Y-88810712D01*
X129970716Y-88738023D01*
X129929379Y-88660687D01*
X129902933Y-88573507D01*
X129879996Y-88497895D01*
X129863322Y-88328600D01*
X129879996Y-88159305D01*
X129929378Y-87996516D01*
X129929379Y-87996513D01*
X130009566Y-87846493D01*
X130009567Y-87846492D01*
X130009569Y-87846488D01*
X130117488Y-87714988D01*
X130248988Y-87607069D01*
X130248992Y-87607067D01*
X130248993Y-87607066D01*
X130399013Y-87526879D01*
X130399016Y-87526878D01*
X130561805Y-87477496D01*
X130646388Y-87469165D01*
X130688679Y-87465000D01*
X132297521Y-87465000D01*
X132339812Y-87469165D01*
X132339812Y-87469165D01*
G37*
G36*
X148093613Y-86684888D02*
G01*
X148308562Y-86773923D01*
X148502005Y-86903177D01*
X148666523Y-87067695D01*
X148795777Y-87261138D01*
X148884812Y-87476087D01*
X148930200Y-87704270D01*
X148930200Y-87936930D01*
X148884812Y-88165113D01*
X148795777Y-88380062D01*
X148666523Y-88573505D01*
X148502005Y-88738023D01*
X148308562Y-88867277D01*
X148093613Y-88956312D01*
X147865430Y-89001700D01*
X147632770Y-89001700D01*
X147404587Y-88956312D01*
X147189638Y-88867277D01*
X146996195Y-88738023D01*
X146831677Y-88573505D01*
X146702423Y-88380062D01*
X146613388Y-88165113D01*
X146568000Y-87936930D01*
X146568000Y-87704270D01*
X146613388Y-87476087D01*
X146702423Y-87261138D01*
X146831677Y-87067695D01*
X146996195Y-86903177D01*
X147189638Y-86773923D01*
X147404587Y-86684888D01*
X147632770Y-86639500D01*
X147865430Y-86639500D01*
X148093613Y-86684888D01*
X148093613Y-86684888D01*
G37*
G36*
X161608700Y-88842200D02*
G01*
X160305500Y-88842200D01*
X160305500Y-87639000D01*
X161608700Y-87639000D01*
X161608700Y-88842200D01*
X161608700Y-88842200D01*
G37*
G36*
X150686700Y-87826200D02*
G01*
X149383500Y-87826200D01*
X149383500Y-86623000D01*
X150686700Y-86623000D01*
X150686700Y-87826200D01*
X150686700Y-87826200D01*
G37*
G36*
X158517175Y-86800937D02*
G01*
X158520418Y-86801921D01*
X158523411Y-86803521D01*
X158526030Y-86805670D01*
X158528179Y-86808289D01*
X158529779Y-86811282D01*
X158530763Y-86814525D01*
X158531700Y-86824041D01*
X158531700Y-87669159D01*
X158530763Y-87678675D01*
X158529779Y-87681918D01*
X158528179Y-87684911D01*
X158526030Y-87687530D01*
X158523411Y-87689679D01*
X158520418Y-87691279D01*
X158517175Y-87692263D01*
X158507659Y-87693200D01*
X157142541Y-87693200D01*
X157133025Y-87692263D01*
X157129782Y-87691279D01*
X157126789Y-87689679D01*
X157124170Y-87687530D01*
X157122021Y-87684911D01*
X157120421Y-87681918D01*
X157119437Y-87678675D01*
X157118500Y-87669159D01*
X157118500Y-86824041D01*
X157119437Y-86814525D01*
X157120421Y-86811282D01*
X157122021Y-86808289D01*
X157124170Y-86805670D01*
X157126789Y-86803521D01*
X157129782Y-86801921D01*
X157133025Y-86800937D01*
X157142541Y-86800000D01*
X158507659Y-86800000D01*
X158517175Y-86800937D01*
X158517175Y-86800937D01*
G37*
G36*
X155129175Y-86800937D02*
G01*
X155132418Y-86801921D01*
X155135411Y-86803521D01*
X155138030Y-86805670D01*
X155140179Y-86808289D01*
X155141779Y-86811282D01*
X155142763Y-86814525D01*
X155143700Y-86824041D01*
X155143700Y-87669159D01*
X155142763Y-87678675D01*
X155141779Y-87681918D01*
X155140179Y-87684911D01*
X155138030Y-87687530D01*
X155135411Y-87689679D01*
X155132418Y-87691279D01*
X155129175Y-87692263D01*
X155119659Y-87693200D01*
X153754541Y-87693200D01*
X153745025Y-87692263D01*
X153741782Y-87691279D01*
X153738789Y-87689679D01*
X153736170Y-87687530D01*
X153734021Y-87684911D01*
X153732421Y-87681918D01*
X153731437Y-87678675D01*
X153730500Y-87669159D01*
X153730500Y-86824041D01*
X153731437Y-86814525D01*
X153732421Y-86811282D01*
X153734021Y-86808289D01*
X153736170Y-86805670D01*
X153738789Y-86803521D01*
X153741782Y-86801921D01*
X153745025Y-86800937D01*
X153754541Y-86800000D01*
X155119659Y-86800000D01*
X155129175Y-86800937D01*
X155129175Y-86800937D01*
G37*
G36*
X160717175Y-85850937D02*
G01*
X160720418Y-85851921D01*
X160723411Y-85853521D01*
X160726030Y-85855670D01*
X160728179Y-85858289D01*
X160729779Y-85861282D01*
X160730763Y-85864525D01*
X160731700Y-85874041D01*
X160731700Y-86719159D01*
X160730763Y-86728675D01*
X160729779Y-86731918D01*
X160728179Y-86734911D01*
X160726030Y-86737530D01*
X160723411Y-86739679D01*
X160720418Y-86741279D01*
X160717175Y-86742263D01*
X160707659Y-86743200D01*
X159342541Y-86743200D01*
X159333025Y-86742263D01*
X159329782Y-86741279D01*
X159326789Y-86739679D01*
X159324170Y-86737530D01*
X159322021Y-86734911D01*
X159320421Y-86731918D01*
X159319437Y-86728675D01*
X159318500Y-86719159D01*
X159318500Y-85874041D01*
X159319437Y-85864525D01*
X159320421Y-85861282D01*
X159322021Y-85858289D01*
X159324170Y-85855670D01*
X159326789Y-85853521D01*
X159329782Y-85851921D01*
X159333025Y-85850937D01*
X159342541Y-85850000D01*
X160707659Y-85850000D01*
X160717175Y-85850937D01*
X160717175Y-85850937D01*
G37*
G36*
X152929175Y-85850937D02*
G01*
X152932418Y-85851921D01*
X152935411Y-85853521D01*
X152938030Y-85855670D01*
X152940179Y-85858289D01*
X152941779Y-85861282D01*
X152942763Y-85864525D01*
X152943700Y-85874041D01*
X152943700Y-86719159D01*
X152942763Y-86728675D01*
X152941779Y-86731918D01*
X152940179Y-86734911D01*
X152938030Y-86737530D01*
X152935411Y-86739679D01*
X152932418Y-86741279D01*
X152929175Y-86742263D01*
X152919659Y-86743200D01*
X151554541Y-86743200D01*
X151545025Y-86742263D01*
X151541782Y-86741279D01*
X151538789Y-86739679D01*
X151536170Y-86737530D01*
X151534021Y-86734911D01*
X151532421Y-86731918D01*
X151531437Y-86728675D01*
X151530500Y-86719159D01*
X151530500Y-85874041D01*
X151531437Y-85864525D01*
X151532421Y-85861282D01*
X151534021Y-85858289D01*
X151536170Y-85855670D01*
X151538789Y-85853521D01*
X151541782Y-85851921D01*
X151545025Y-85850937D01*
X151554541Y-85850000D01*
X152919659Y-85850000D01*
X152929175Y-85850937D01*
X152929175Y-85850937D01*
G37*
G36*
X158517175Y-84900937D02*
G01*
X158520418Y-84901921D01*
X158523411Y-84903521D01*
X158526030Y-84905670D01*
X158528179Y-84908289D01*
X158529779Y-84911282D01*
X158530763Y-84914525D01*
X158531700Y-84924041D01*
X158531700Y-85769159D01*
X158530763Y-85778675D01*
X158529779Y-85781918D01*
X158528179Y-85784911D01*
X158526030Y-85787530D01*
X158523411Y-85789679D01*
X158520418Y-85791279D01*
X158517175Y-85792263D01*
X158507659Y-85793200D01*
X157142541Y-85793200D01*
X157133025Y-85792263D01*
X157129782Y-85791279D01*
X157126789Y-85789679D01*
X157124170Y-85787530D01*
X157122021Y-85784911D01*
X157120421Y-85781918D01*
X157119437Y-85778675D01*
X157118500Y-85769159D01*
X157118500Y-84924041D01*
X157119437Y-84914525D01*
X157120421Y-84911282D01*
X157122021Y-84908289D01*
X157124170Y-84905670D01*
X157126789Y-84903521D01*
X157129782Y-84901921D01*
X157133025Y-84900937D01*
X157142541Y-84900000D01*
X158507659Y-84900000D01*
X158517175Y-84900937D01*
X158517175Y-84900937D01*
G37*
G36*
X155129175Y-84900937D02*
G01*
X155132418Y-84901921D01*
X155135411Y-84903521D01*
X155138030Y-84905670D01*
X155140179Y-84908289D01*
X155141779Y-84911282D01*
X155142763Y-84914525D01*
X155143700Y-84924041D01*
X155143700Y-85769159D01*
X155142763Y-85778675D01*
X155141779Y-85781918D01*
X155140179Y-85784911D01*
X155138030Y-85787530D01*
X155135411Y-85789679D01*
X155132418Y-85791279D01*
X155129175Y-85792263D01*
X155119659Y-85793200D01*
X153754541Y-85793200D01*
X153745025Y-85792263D01*
X153741782Y-85791279D01*
X153738789Y-85789679D01*
X153736170Y-85787530D01*
X153734021Y-85784911D01*
X153732421Y-85781918D01*
X153731437Y-85778675D01*
X153730500Y-85769159D01*
X153730500Y-84924041D01*
X153731437Y-84914525D01*
X153732421Y-84911282D01*
X153734021Y-84908289D01*
X153736170Y-84905670D01*
X153738789Y-84903521D01*
X153741782Y-84901921D01*
X153745025Y-84900937D01*
X153754541Y-84900000D01*
X155119659Y-84900000D01*
X155129175Y-84900937D01*
X155129175Y-84900937D01*
G37*
M02*
