M48
; DRILL file {KiCad (5.1.2)-2} date 10/11/2021 11:30:01
; FORMAT={-:-/ absolute / metric / decimal}
; #@! TF.CreationDate,2021-11-10T11:30:01-03:00
; #@! TF.GenerationSoftware,Kicad,Pcbnew,(5.1.2)-2
FMAT,2
METRIC
T1C0.350
T2C0.400
T3C0.800
T4C1.016
T5C1.321
%
G90
G05
T1
X127.429Y-105.093
X127.429Y-109.919
X127.429Y-112.713
X127.429Y-117.031
X127.683Y-100.521
X128.191Y-122.873
X128.191Y-125.413
X128.953Y-99.251
X131.239Y-103.569
X131.239Y-110.173
X131.239Y-116.523
X132.509Y-103.569
X133.017Y-101.791
X133.017Y-110.173
X134.62Y-114.046
X134.795Y-100.013
X134.956Y-120.841
X135.049Y-105.855
X135.049Y-117.031
X135.049Y-126.429
X135.557Y-91.885
X136.906Y-85.344
X139.113Y-113.221
X139.113Y-125.413
X139.367Y-89.853
X139.621Y-94.171
X139.621Y-98.489
X141.145Y-103.823
X141.653Y-87.313
X141.653Y-107.125
X141.907Y-110.173
X142.24Y-123.952
X143.431Y-85.281
X144.701Y-113.475
X145.463Y-106.363
X146.225Y-88.837
X146.225Y-93.917
X147.828Y-120.904
X148.003Y-125.237
X149.019Y-102.807
X149.04Y-119.15
X149.22Y-111.6
X150.035Y-91.123
X150.158Y-98.52
X151.305Y-93.917
X151.559Y-96.711
X151.638Y-99.06
X152.146Y-100.838
X152.146Y-123.19
X152.4Y-119.126
X152.62Y-111.51
X153.416Y-115.062
X153.591Y-93.155
X153.67Y-94.488
X154.821Y-103.061
X154.94Y-99.822
X155.369Y-88.329
X155.877Y-94.297
X155.956Y-96.266
X156.972Y-103.124
X157.129Y-125.237
X157.226Y-106.68
X157.226Y-114.046
X158.925Y-93.409
X159.004Y-119.888
X159.179Y-88.837
X159.433Y-90.869
X160.274Y-99.06
X160.274Y-106.934
X160.274Y-109.474
X160.274Y-111.76
X160.782Y-118.11
X161.211Y-95.695
X161.513Y-100.687
X162.227Y-95.695
X162.456Y-125.237
X163.497Y-94.171
X164.005Y-91.123
X164.513Y-90.107
X166.037Y-98.743
X166.37Y-101.854
X167.053Y-88.583
X167.815Y-89.853
X168.437Y-104.331
X168.437Y-114.973
X168.437Y-118.25
T2
X154.905Y-95.397
T3
X155.7Y-105.25
X155.7Y-107.79
X155.7Y-110.33
X155.7Y-112.87
X155.7Y-115.41
X155.7Y-117.95
X155.7Y-120.49
X163.32Y-105.25
X163.32Y-107.79
X163.32Y-110.33
X163.32Y-112.87
X163.32Y-115.41
X163.32Y-117.95
X163.32Y-120.49
T4
X131.239Y-112.459
X131.239Y-114.999
X131.493Y-88.329
X131.493Y-90.869
X131.493Y-93.409
X131.493Y-95.949
X131.239Y-105.347
X131.239Y-107.887
T5
X164.767Y-100.267
X144.955Y-123.635
X141.653Y-94.933
X133.017Y-125.413
X147.241Y-117.031
X163.243Y-88.075
X137.335Y-116.523
X147.749Y-87.821
X148.9Y-114.025
T0
M30
