G04 #@! TF.GenerationSoftware,KiCad,Pcbnew,(5.1.2)-2*
G04 #@! TF.CreationDate,2021-11-10T11:30:02-03:00*
G04 #@! TF.ProjectId,PC_V1.2,50435f56-312e-4322-9e6b-696361645f70,rev?*
G04 #@! TF.SameCoordinates,Original*
G04 #@! TF.FileFunction,Paste,Top*
G04 #@! TF.FilePolarity,Positive*
%FSLAX46Y46*%
G04 Gerber Fmt 4.6, Leading zero omitted, Abs format (unit mm)*
G04 Created by KiCad (PCBNEW (5.1.2)-2) date 2021-11-10 11:30:02*
%MOMM*%
%LPD*%
G04 APERTURE LIST*
%ADD10R,0.700000X0.900000*%
%ADD11R,1.100000X1.000000*%
%ADD12R,1.000000X1.100000*%
%ADD13R,0.900000X0.700000*%
%ADD14R,1.200000X2.500000*%
%ADD15R,0.700000X0.600000*%
%ADD16R,1.600000X1.803000*%
%ADD17C,0.100000*%
%ADD18C,0.690000*%
%ADD19R,1.981200X0.558800*%
G04 APERTURE END LIST*
D10*
X136685100Y-105600600D03*
X137985100Y-105600600D03*
D11*
X140803100Y-112712600D03*
X142503100Y-112712600D03*
D12*
X149019100Y-110006600D03*
X149019100Y-108306600D03*
D11*
X150885100Y-106616600D03*
X149185100Y-106616600D03*
D13*
X130223100Y-119174600D03*
X130223100Y-120474600D03*
D10*
X131605100Y-117792600D03*
X132905100Y-117792600D03*
D13*
X139367100Y-122252600D03*
X139367100Y-120952600D03*
D14*
X143305100Y-104076600D03*
X146605100Y-104076600D03*
X148129100Y-99250600D03*
X144829100Y-99250600D03*
D11*
X136065100Y-110084600D03*
X136065100Y-111784600D03*
D15*
X139875100Y-118292600D03*
X139875100Y-117292600D03*
D11*
X144955100Y-92558600D03*
X144955100Y-94258600D03*
X149527100Y-92812600D03*
X149527100Y-94512600D03*
X147495100Y-94512600D03*
X147495100Y-92812600D03*
X150035100Y-87224600D03*
X150035100Y-88924600D03*
X151559100Y-91034600D03*
X151559100Y-92734600D03*
X153845100Y-91718600D03*
X153845100Y-90018600D03*
X160957100Y-88240600D03*
X160957100Y-89940600D03*
X158163100Y-90526600D03*
X158163100Y-92226600D03*
X156131100Y-92226600D03*
X156131100Y-90526600D03*
D16*
X138757100Y-103314600D03*
X135913100Y-103314600D03*
D12*
X165363100Y-97218600D03*
X163663100Y-97218600D03*
D11*
X160195100Y-92558600D03*
X160195100Y-94258600D03*
X162227100Y-94258600D03*
X162227100Y-92558600D03*
D12*
X142503100Y-114998600D03*
X140803100Y-114998600D03*
D11*
X146479100Y-108052600D03*
X146479100Y-109752600D03*
D15*
X146479100Y-111704600D03*
X146479100Y-112704600D03*
D12*
X150885100Y-104584600D03*
X149185100Y-104584600D03*
D11*
X141653100Y-121182600D03*
X141653100Y-119482600D03*
X144447100Y-121182600D03*
X144447100Y-119482600D03*
X144447100Y-117626600D03*
X144447100Y-115926600D03*
D17*
G36*
X142428304Y-91872015D02*
G01*
X142436677Y-91873257D01*
X142444887Y-91875314D01*
X142452856Y-91878165D01*
X142460508Y-91881784D01*
X142467768Y-91886136D01*
X142474566Y-91891178D01*
X142480838Y-91896862D01*
X142486522Y-91903134D01*
X142491564Y-91909932D01*
X142495916Y-91917192D01*
X142499535Y-91924844D01*
X142502386Y-91932813D01*
X142504443Y-91941023D01*
X142505685Y-91949396D01*
X142506100Y-91957850D01*
X142506100Y-92995350D01*
X142505685Y-93003804D01*
X142504443Y-93012177D01*
X142502386Y-93020387D01*
X142499535Y-93028356D01*
X142495916Y-93036008D01*
X142491564Y-93043268D01*
X142486522Y-93050066D01*
X142480838Y-93056338D01*
X142474566Y-93062022D01*
X142467768Y-93067064D01*
X142460508Y-93071416D01*
X142452856Y-93075035D01*
X142444887Y-93077886D01*
X142436677Y-93079943D01*
X142428304Y-93081185D01*
X142419850Y-93081600D01*
X141902350Y-93081600D01*
X141893896Y-93081185D01*
X141885523Y-93079943D01*
X141877313Y-93077886D01*
X141869344Y-93075035D01*
X141861692Y-93071416D01*
X141854432Y-93067064D01*
X141847634Y-93062022D01*
X141841362Y-93056338D01*
X141835678Y-93050066D01*
X141830636Y-93043268D01*
X141826284Y-93036008D01*
X141822665Y-93028356D01*
X141819814Y-93020387D01*
X141817757Y-93012177D01*
X141816515Y-93003804D01*
X141816100Y-92995350D01*
X141816100Y-91957850D01*
X141816515Y-91949396D01*
X141817757Y-91941023D01*
X141819814Y-91932813D01*
X141822665Y-91924844D01*
X141826284Y-91917192D01*
X141830636Y-91909932D01*
X141835678Y-91903134D01*
X141841362Y-91896862D01*
X141847634Y-91891178D01*
X141854432Y-91886136D01*
X141861692Y-91881784D01*
X141869344Y-91878165D01*
X141877313Y-91875314D01*
X141885523Y-91873257D01*
X141893896Y-91872015D01*
X141902350Y-91871600D01*
X142419850Y-91871600D01*
X142428304Y-91872015D01*
X142428304Y-91872015D01*
G37*
D18*
X142161100Y-92476600D03*
D17*
G36*
X141478304Y-89672015D02*
G01*
X141486677Y-89673257D01*
X141494887Y-89675314D01*
X141502856Y-89678165D01*
X141510508Y-89681784D01*
X141517768Y-89686136D01*
X141524566Y-89691178D01*
X141530838Y-89696862D01*
X141536522Y-89703134D01*
X141541564Y-89709932D01*
X141545916Y-89717192D01*
X141549535Y-89724844D01*
X141552386Y-89732813D01*
X141554443Y-89741023D01*
X141555685Y-89749396D01*
X141556100Y-89757850D01*
X141556100Y-90795350D01*
X141555685Y-90803804D01*
X141554443Y-90812177D01*
X141552386Y-90820387D01*
X141549535Y-90828356D01*
X141545916Y-90836008D01*
X141541564Y-90843268D01*
X141536522Y-90850066D01*
X141530838Y-90856338D01*
X141524566Y-90862022D01*
X141517768Y-90867064D01*
X141510508Y-90871416D01*
X141502856Y-90875035D01*
X141494887Y-90877886D01*
X141486677Y-90879943D01*
X141478304Y-90881185D01*
X141469850Y-90881600D01*
X140952350Y-90881600D01*
X140943896Y-90881185D01*
X140935523Y-90879943D01*
X140927313Y-90877886D01*
X140919344Y-90875035D01*
X140911692Y-90871416D01*
X140904432Y-90867064D01*
X140897634Y-90862022D01*
X140891362Y-90856338D01*
X140885678Y-90850066D01*
X140880636Y-90843268D01*
X140876284Y-90836008D01*
X140872665Y-90828356D01*
X140869814Y-90820387D01*
X140867757Y-90812177D01*
X140866515Y-90803804D01*
X140866100Y-90795350D01*
X140866100Y-89757850D01*
X140866515Y-89749396D01*
X140867757Y-89741023D01*
X140869814Y-89732813D01*
X140872665Y-89724844D01*
X140876284Y-89717192D01*
X140880636Y-89709932D01*
X140885678Y-89703134D01*
X140891362Y-89696862D01*
X140897634Y-89691178D01*
X140904432Y-89686136D01*
X140911692Y-89681784D01*
X140919344Y-89678165D01*
X140927313Y-89675314D01*
X140935523Y-89673257D01*
X140943896Y-89672015D01*
X140952350Y-89671600D01*
X141469850Y-89671600D01*
X141478304Y-89672015D01*
X141478304Y-89672015D01*
G37*
D18*
X141211100Y-90276600D03*
D17*
G36*
X143378304Y-89672015D02*
G01*
X143386677Y-89673257D01*
X143394887Y-89675314D01*
X143402856Y-89678165D01*
X143410508Y-89681784D01*
X143417768Y-89686136D01*
X143424566Y-89691178D01*
X143430838Y-89696862D01*
X143436522Y-89703134D01*
X143441564Y-89709932D01*
X143445916Y-89717192D01*
X143449535Y-89724844D01*
X143452386Y-89732813D01*
X143454443Y-89741023D01*
X143455685Y-89749396D01*
X143456100Y-89757850D01*
X143456100Y-90795350D01*
X143455685Y-90803804D01*
X143454443Y-90812177D01*
X143452386Y-90820387D01*
X143449535Y-90828356D01*
X143445916Y-90836008D01*
X143441564Y-90843268D01*
X143436522Y-90850066D01*
X143430838Y-90856338D01*
X143424566Y-90862022D01*
X143417768Y-90867064D01*
X143410508Y-90871416D01*
X143402856Y-90875035D01*
X143394887Y-90877886D01*
X143386677Y-90879943D01*
X143378304Y-90881185D01*
X143369850Y-90881600D01*
X142852350Y-90881600D01*
X142843896Y-90881185D01*
X142835523Y-90879943D01*
X142827313Y-90877886D01*
X142819344Y-90875035D01*
X142811692Y-90871416D01*
X142804432Y-90867064D01*
X142797634Y-90862022D01*
X142791362Y-90856338D01*
X142785678Y-90850066D01*
X142780636Y-90843268D01*
X142776284Y-90836008D01*
X142772665Y-90828356D01*
X142769814Y-90820387D01*
X142767757Y-90812177D01*
X142766515Y-90803804D01*
X142766100Y-90795350D01*
X142766100Y-89757850D01*
X142766515Y-89749396D01*
X142767757Y-89741023D01*
X142769814Y-89732813D01*
X142772665Y-89724844D01*
X142776284Y-89717192D01*
X142780636Y-89709932D01*
X142785678Y-89703134D01*
X142791362Y-89696862D01*
X142797634Y-89691178D01*
X142804432Y-89686136D01*
X142811692Y-89681784D01*
X142819344Y-89678165D01*
X142827313Y-89675314D01*
X142835523Y-89673257D01*
X142843896Y-89672015D01*
X142852350Y-89671600D01*
X143369850Y-89671600D01*
X143378304Y-89672015D01*
X143378304Y-89672015D01*
G37*
D18*
X143111100Y-90276600D03*
D17*
G36*
X152764304Y-85952015D02*
G01*
X152772677Y-85953257D01*
X152780887Y-85955314D01*
X152788856Y-85958165D01*
X152796508Y-85961784D01*
X152803768Y-85966136D01*
X152810566Y-85971178D01*
X152816838Y-85976862D01*
X152822522Y-85983134D01*
X152827564Y-85989932D01*
X152831916Y-85997192D01*
X152835535Y-86004844D01*
X152838386Y-86012813D01*
X152840443Y-86021023D01*
X152841685Y-86029396D01*
X152842100Y-86037850D01*
X152842100Y-86555350D01*
X152841685Y-86563804D01*
X152840443Y-86572177D01*
X152838386Y-86580387D01*
X152835535Y-86588356D01*
X152831916Y-86596008D01*
X152827564Y-86603268D01*
X152822522Y-86610066D01*
X152816838Y-86616338D01*
X152810566Y-86622022D01*
X152803768Y-86627064D01*
X152796508Y-86631416D01*
X152788856Y-86635035D01*
X152780887Y-86637886D01*
X152772677Y-86639943D01*
X152764304Y-86641185D01*
X152755850Y-86641600D01*
X151718350Y-86641600D01*
X151709896Y-86641185D01*
X151701523Y-86639943D01*
X151693313Y-86637886D01*
X151685344Y-86635035D01*
X151677692Y-86631416D01*
X151670432Y-86627064D01*
X151663634Y-86622022D01*
X151657362Y-86616338D01*
X151651678Y-86610066D01*
X151646636Y-86603268D01*
X151642284Y-86596008D01*
X151638665Y-86588356D01*
X151635814Y-86580387D01*
X151633757Y-86572177D01*
X151632515Y-86563804D01*
X151632100Y-86555350D01*
X151632100Y-86037850D01*
X151632515Y-86029396D01*
X151633757Y-86021023D01*
X151635814Y-86012813D01*
X151638665Y-86004844D01*
X151642284Y-85997192D01*
X151646636Y-85989932D01*
X151651678Y-85983134D01*
X151657362Y-85976862D01*
X151663634Y-85971178D01*
X151670432Y-85966136D01*
X151677692Y-85961784D01*
X151685344Y-85958165D01*
X151693313Y-85955314D01*
X151701523Y-85953257D01*
X151709896Y-85952015D01*
X151718350Y-85951600D01*
X152755850Y-85951600D01*
X152764304Y-85952015D01*
X152764304Y-85952015D01*
G37*
D18*
X152237100Y-86296600D03*
D17*
G36*
X154964304Y-85002015D02*
G01*
X154972677Y-85003257D01*
X154980887Y-85005314D01*
X154988856Y-85008165D01*
X154996508Y-85011784D01*
X155003768Y-85016136D01*
X155010566Y-85021178D01*
X155016838Y-85026862D01*
X155022522Y-85033134D01*
X155027564Y-85039932D01*
X155031916Y-85047192D01*
X155035535Y-85054844D01*
X155038386Y-85062813D01*
X155040443Y-85071023D01*
X155041685Y-85079396D01*
X155042100Y-85087850D01*
X155042100Y-85605350D01*
X155041685Y-85613804D01*
X155040443Y-85622177D01*
X155038386Y-85630387D01*
X155035535Y-85638356D01*
X155031916Y-85646008D01*
X155027564Y-85653268D01*
X155022522Y-85660066D01*
X155016838Y-85666338D01*
X155010566Y-85672022D01*
X155003768Y-85677064D01*
X154996508Y-85681416D01*
X154988856Y-85685035D01*
X154980887Y-85687886D01*
X154972677Y-85689943D01*
X154964304Y-85691185D01*
X154955850Y-85691600D01*
X153918350Y-85691600D01*
X153909896Y-85691185D01*
X153901523Y-85689943D01*
X153893313Y-85687886D01*
X153885344Y-85685035D01*
X153877692Y-85681416D01*
X153870432Y-85677064D01*
X153863634Y-85672022D01*
X153857362Y-85666338D01*
X153851678Y-85660066D01*
X153846636Y-85653268D01*
X153842284Y-85646008D01*
X153838665Y-85638356D01*
X153835814Y-85630387D01*
X153833757Y-85622177D01*
X153832515Y-85613804D01*
X153832100Y-85605350D01*
X153832100Y-85087850D01*
X153832515Y-85079396D01*
X153833757Y-85071023D01*
X153835814Y-85062813D01*
X153838665Y-85054844D01*
X153842284Y-85047192D01*
X153846636Y-85039932D01*
X153851678Y-85033134D01*
X153857362Y-85026862D01*
X153863634Y-85021178D01*
X153870432Y-85016136D01*
X153877692Y-85011784D01*
X153885344Y-85008165D01*
X153893313Y-85005314D01*
X153901523Y-85003257D01*
X153909896Y-85002015D01*
X153918350Y-85001600D01*
X154955850Y-85001600D01*
X154964304Y-85002015D01*
X154964304Y-85002015D01*
G37*
D18*
X154437100Y-85346600D03*
D17*
G36*
X154964304Y-86902015D02*
G01*
X154972677Y-86903257D01*
X154980887Y-86905314D01*
X154988856Y-86908165D01*
X154996508Y-86911784D01*
X155003768Y-86916136D01*
X155010566Y-86921178D01*
X155016838Y-86926862D01*
X155022522Y-86933134D01*
X155027564Y-86939932D01*
X155031916Y-86947192D01*
X155035535Y-86954844D01*
X155038386Y-86962813D01*
X155040443Y-86971023D01*
X155041685Y-86979396D01*
X155042100Y-86987850D01*
X155042100Y-87505350D01*
X155041685Y-87513804D01*
X155040443Y-87522177D01*
X155038386Y-87530387D01*
X155035535Y-87538356D01*
X155031916Y-87546008D01*
X155027564Y-87553268D01*
X155022522Y-87560066D01*
X155016838Y-87566338D01*
X155010566Y-87572022D01*
X155003768Y-87577064D01*
X154996508Y-87581416D01*
X154988856Y-87585035D01*
X154980887Y-87587886D01*
X154972677Y-87589943D01*
X154964304Y-87591185D01*
X154955850Y-87591600D01*
X153918350Y-87591600D01*
X153909896Y-87591185D01*
X153901523Y-87589943D01*
X153893313Y-87587886D01*
X153885344Y-87585035D01*
X153877692Y-87581416D01*
X153870432Y-87577064D01*
X153863634Y-87572022D01*
X153857362Y-87566338D01*
X153851678Y-87560066D01*
X153846636Y-87553268D01*
X153842284Y-87546008D01*
X153838665Y-87538356D01*
X153835814Y-87530387D01*
X153833757Y-87522177D01*
X153832515Y-87513804D01*
X153832100Y-87505350D01*
X153832100Y-86987850D01*
X153832515Y-86979396D01*
X153833757Y-86971023D01*
X153835814Y-86962813D01*
X153838665Y-86954844D01*
X153842284Y-86947192D01*
X153846636Y-86939932D01*
X153851678Y-86933134D01*
X153857362Y-86926862D01*
X153863634Y-86921178D01*
X153870432Y-86916136D01*
X153877692Y-86911784D01*
X153885344Y-86908165D01*
X153893313Y-86905314D01*
X153901523Y-86903257D01*
X153909896Y-86902015D01*
X153918350Y-86901600D01*
X154955850Y-86901600D01*
X154964304Y-86902015D01*
X154964304Y-86902015D01*
G37*
D18*
X154437100Y-87246600D03*
D17*
G36*
X160552304Y-85952015D02*
G01*
X160560677Y-85953257D01*
X160568887Y-85955314D01*
X160576856Y-85958165D01*
X160584508Y-85961784D01*
X160591768Y-85966136D01*
X160598566Y-85971178D01*
X160604838Y-85976862D01*
X160610522Y-85983134D01*
X160615564Y-85989932D01*
X160619916Y-85997192D01*
X160623535Y-86004844D01*
X160626386Y-86012813D01*
X160628443Y-86021023D01*
X160629685Y-86029396D01*
X160630100Y-86037850D01*
X160630100Y-86555350D01*
X160629685Y-86563804D01*
X160628443Y-86572177D01*
X160626386Y-86580387D01*
X160623535Y-86588356D01*
X160619916Y-86596008D01*
X160615564Y-86603268D01*
X160610522Y-86610066D01*
X160604838Y-86616338D01*
X160598566Y-86622022D01*
X160591768Y-86627064D01*
X160584508Y-86631416D01*
X160576856Y-86635035D01*
X160568887Y-86637886D01*
X160560677Y-86639943D01*
X160552304Y-86641185D01*
X160543850Y-86641600D01*
X159506350Y-86641600D01*
X159497896Y-86641185D01*
X159489523Y-86639943D01*
X159481313Y-86637886D01*
X159473344Y-86635035D01*
X159465692Y-86631416D01*
X159458432Y-86627064D01*
X159451634Y-86622022D01*
X159445362Y-86616338D01*
X159439678Y-86610066D01*
X159434636Y-86603268D01*
X159430284Y-86596008D01*
X159426665Y-86588356D01*
X159423814Y-86580387D01*
X159421757Y-86572177D01*
X159420515Y-86563804D01*
X159420100Y-86555350D01*
X159420100Y-86037850D01*
X159420515Y-86029396D01*
X159421757Y-86021023D01*
X159423814Y-86012813D01*
X159426665Y-86004844D01*
X159430284Y-85997192D01*
X159434636Y-85989932D01*
X159439678Y-85983134D01*
X159445362Y-85976862D01*
X159451634Y-85971178D01*
X159458432Y-85966136D01*
X159465692Y-85961784D01*
X159473344Y-85958165D01*
X159481313Y-85955314D01*
X159489523Y-85953257D01*
X159497896Y-85952015D01*
X159506350Y-85951600D01*
X160543850Y-85951600D01*
X160552304Y-85952015D01*
X160552304Y-85952015D01*
G37*
D18*
X160025100Y-86296600D03*
D17*
G36*
X158352304Y-86902015D02*
G01*
X158360677Y-86903257D01*
X158368887Y-86905314D01*
X158376856Y-86908165D01*
X158384508Y-86911784D01*
X158391768Y-86916136D01*
X158398566Y-86921178D01*
X158404838Y-86926862D01*
X158410522Y-86933134D01*
X158415564Y-86939932D01*
X158419916Y-86947192D01*
X158423535Y-86954844D01*
X158426386Y-86962813D01*
X158428443Y-86971023D01*
X158429685Y-86979396D01*
X158430100Y-86987850D01*
X158430100Y-87505350D01*
X158429685Y-87513804D01*
X158428443Y-87522177D01*
X158426386Y-87530387D01*
X158423535Y-87538356D01*
X158419916Y-87546008D01*
X158415564Y-87553268D01*
X158410522Y-87560066D01*
X158404838Y-87566338D01*
X158398566Y-87572022D01*
X158391768Y-87577064D01*
X158384508Y-87581416D01*
X158376856Y-87585035D01*
X158368887Y-87587886D01*
X158360677Y-87589943D01*
X158352304Y-87591185D01*
X158343850Y-87591600D01*
X157306350Y-87591600D01*
X157297896Y-87591185D01*
X157289523Y-87589943D01*
X157281313Y-87587886D01*
X157273344Y-87585035D01*
X157265692Y-87581416D01*
X157258432Y-87577064D01*
X157251634Y-87572022D01*
X157245362Y-87566338D01*
X157239678Y-87560066D01*
X157234636Y-87553268D01*
X157230284Y-87546008D01*
X157226665Y-87538356D01*
X157223814Y-87530387D01*
X157221757Y-87522177D01*
X157220515Y-87513804D01*
X157220100Y-87505350D01*
X157220100Y-86987850D01*
X157220515Y-86979396D01*
X157221757Y-86971023D01*
X157223814Y-86962813D01*
X157226665Y-86954844D01*
X157230284Y-86947192D01*
X157234636Y-86939932D01*
X157239678Y-86933134D01*
X157245362Y-86926862D01*
X157251634Y-86921178D01*
X157258432Y-86916136D01*
X157265692Y-86911784D01*
X157273344Y-86908165D01*
X157281313Y-86905314D01*
X157289523Y-86903257D01*
X157297896Y-86902015D01*
X157306350Y-86901600D01*
X158343850Y-86901600D01*
X158352304Y-86902015D01*
X158352304Y-86902015D01*
G37*
D18*
X157825100Y-87246600D03*
D17*
G36*
X158352304Y-85002015D02*
G01*
X158360677Y-85003257D01*
X158368887Y-85005314D01*
X158376856Y-85008165D01*
X158384508Y-85011784D01*
X158391768Y-85016136D01*
X158398566Y-85021178D01*
X158404838Y-85026862D01*
X158410522Y-85033134D01*
X158415564Y-85039932D01*
X158419916Y-85047192D01*
X158423535Y-85054844D01*
X158426386Y-85062813D01*
X158428443Y-85071023D01*
X158429685Y-85079396D01*
X158430100Y-85087850D01*
X158430100Y-85605350D01*
X158429685Y-85613804D01*
X158428443Y-85622177D01*
X158426386Y-85630387D01*
X158423535Y-85638356D01*
X158419916Y-85646008D01*
X158415564Y-85653268D01*
X158410522Y-85660066D01*
X158404838Y-85666338D01*
X158398566Y-85672022D01*
X158391768Y-85677064D01*
X158384508Y-85681416D01*
X158376856Y-85685035D01*
X158368887Y-85687886D01*
X158360677Y-85689943D01*
X158352304Y-85691185D01*
X158343850Y-85691600D01*
X157306350Y-85691600D01*
X157297896Y-85691185D01*
X157289523Y-85689943D01*
X157281313Y-85687886D01*
X157273344Y-85685035D01*
X157265692Y-85681416D01*
X157258432Y-85677064D01*
X157251634Y-85672022D01*
X157245362Y-85666338D01*
X157239678Y-85660066D01*
X157234636Y-85653268D01*
X157230284Y-85646008D01*
X157226665Y-85638356D01*
X157223814Y-85630387D01*
X157221757Y-85622177D01*
X157220515Y-85613804D01*
X157220100Y-85605350D01*
X157220100Y-85087850D01*
X157220515Y-85079396D01*
X157221757Y-85071023D01*
X157223814Y-85062813D01*
X157226665Y-85054844D01*
X157230284Y-85047192D01*
X157234636Y-85039932D01*
X157239678Y-85033134D01*
X157245362Y-85026862D01*
X157251634Y-85021178D01*
X157258432Y-85016136D01*
X157265692Y-85011784D01*
X157273344Y-85008165D01*
X157281313Y-85005314D01*
X157289523Y-85003257D01*
X157297896Y-85002015D01*
X157306350Y-85001600D01*
X158343850Y-85001600D01*
X158352304Y-85002015D01*
X158352304Y-85002015D01*
G37*
D18*
X157825100Y-85346600D03*
D17*
G36*
X167156304Y-93826015D02*
G01*
X167164677Y-93827257D01*
X167172887Y-93829314D01*
X167180856Y-93832165D01*
X167188508Y-93835784D01*
X167195768Y-93840136D01*
X167202566Y-93845178D01*
X167208838Y-93850862D01*
X167214522Y-93857134D01*
X167219564Y-93863932D01*
X167223916Y-93871192D01*
X167227535Y-93878844D01*
X167230386Y-93886813D01*
X167232443Y-93895023D01*
X167233685Y-93903396D01*
X167234100Y-93911850D01*
X167234100Y-94429350D01*
X167233685Y-94437804D01*
X167232443Y-94446177D01*
X167230386Y-94454387D01*
X167227535Y-94462356D01*
X167223916Y-94470008D01*
X167219564Y-94477268D01*
X167214522Y-94484066D01*
X167208838Y-94490338D01*
X167202566Y-94496022D01*
X167195768Y-94501064D01*
X167188508Y-94505416D01*
X167180856Y-94509035D01*
X167172887Y-94511886D01*
X167164677Y-94513943D01*
X167156304Y-94515185D01*
X167147850Y-94515600D01*
X166110350Y-94515600D01*
X166101896Y-94515185D01*
X166093523Y-94513943D01*
X166085313Y-94511886D01*
X166077344Y-94509035D01*
X166069692Y-94505416D01*
X166062432Y-94501064D01*
X166055634Y-94496022D01*
X166049362Y-94490338D01*
X166043678Y-94484066D01*
X166038636Y-94477268D01*
X166034284Y-94470008D01*
X166030665Y-94462356D01*
X166027814Y-94454387D01*
X166025757Y-94446177D01*
X166024515Y-94437804D01*
X166024100Y-94429350D01*
X166024100Y-93911850D01*
X166024515Y-93903396D01*
X166025757Y-93895023D01*
X166027814Y-93886813D01*
X166030665Y-93878844D01*
X166034284Y-93871192D01*
X166038636Y-93863932D01*
X166043678Y-93857134D01*
X166049362Y-93850862D01*
X166055634Y-93845178D01*
X166062432Y-93840136D01*
X166069692Y-93835784D01*
X166077344Y-93832165D01*
X166085313Y-93829314D01*
X166093523Y-93827257D01*
X166101896Y-93826015D01*
X166110350Y-93825600D01*
X167147850Y-93825600D01*
X167156304Y-93826015D01*
X167156304Y-93826015D01*
G37*
D18*
X166629100Y-94170600D03*
D17*
G36*
X164956304Y-94776015D02*
G01*
X164964677Y-94777257D01*
X164972887Y-94779314D01*
X164980856Y-94782165D01*
X164988508Y-94785784D01*
X164995768Y-94790136D01*
X165002566Y-94795178D01*
X165008838Y-94800862D01*
X165014522Y-94807134D01*
X165019564Y-94813932D01*
X165023916Y-94821192D01*
X165027535Y-94828844D01*
X165030386Y-94836813D01*
X165032443Y-94845023D01*
X165033685Y-94853396D01*
X165034100Y-94861850D01*
X165034100Y-95379350D01*
X165033685Y-95387804D01*
X165032443Y-95396177D01*
X165030386Y-95404387D01*
X165027535Y-95412356D01*
X165023916Y-95420008D01*
X165019564Y-95427268D01*
X165014522Y-95434066D01*
X165008838Y-95440338D01*
X165002566Y-95446022D01*
X164995768Y-95451064D01*
X164988508Y-95455416D01*
X164980856Y-95459035D01*
X164972887Y-95461886D01*
X164964677Y-95463943D01*
X164956304Y-95465185D01*
X164947850Y-95465600D01*
X163910350Y-95465600D01*
X163901896Y-95465185D01*
X163893523Y-95463943D01*
X163885313Y-95461886D01*
X163877344Y-95459035D01*
X163869692Y-95455416D01*
X163862432Y-95451064D01*
X163855634Y-95446022D01*
X163849362Y-95440338D01*
X163843678Y-95434066D01*
X163838636Y-95427268D01*
X163834284Y-95420008D01*
X163830665Y-95412356D01*
X163827814Y-95404387D01*
X163825757Y-95396177D01*
X163824515Y-95387804D01*
X163824100Y-95379350D01*
X163824100Y-94861850D01*
X163824515Y-94853396D01*
X163825757Y-94845023D01*
X163827814Y-94836813D01*
X163830665Y-94828844D01*
X163834284Y-94821192D01*
X163838636Y-94813932D01*
X163843678Y-94807134D01*
X163849362Y-94800862D01*
X163855634Y-94795178D01*
X163862432Y-94790136D01*
X163869692Y-94785784D01*
X163877344Y-94782165D01*
X163885313Y-94779314D01*
X163893523Y-94777257D01*
X163901896Y-94776015D01*
X163910350Y-94775600D01*
X164947850Y-94775600D01*
X164956304Y-94776015D01*
X164956304Y-94776015D01*
G37*
D18*
X164429100Y-95120600D03*
D17*
G36*
X164956304Y-92876015D02*
G01*
X164964677Y-92877257D01*
X164972887Y-92879314D01*
X164980856Y-92882165D01*
X164988508Y-92885784D01*
X164995768Y-92890136D01*
X165002566Y-92895178D01*
X165008838Y-92900862D01*
X165014522Y-92907134D01*
X165019564Y-92913932D01*
X165023916Y-92921192D01*
X165027535Y-92928844D01*
X165030386Y-92936813D01*
X165032443Y-92945023D01*
X165033685Y-92953396D01*
X165034100Y-92961850D01*
X165034100Y-93479350D01*
X165033685Y-93487804D01*
X165032443Y-93496177D01*
X165030386Y-93504387D01*
X165027535Y-93512356D01*
X165023916Y-93520008D01*
X165019564Y-93527268D01*
X165014522Y-93534066D01*
X165008838Y-93540338D01*
X165002566Y-93546022D01*
X164995768Y-93551064D01*
X164988508Y-93555416D01*
X164980856Y-93559035D01*
X164972887Y-93561886D01*
X164964677Y-93563943D01*
X164956304Y-93565185D01*
X164947850Y-93565600D01*
X163910350Y-93565600D01*
X163901896Y-93565185D01*
X163893523Y-93563943D01*
X163885313Y-93561886D01*
X163877344Y-93559035D01*
X163869692Y-93555416D01*
X163862432Y-93551064D01*
X163855634Y-93546022D01*
X163849362Y-93540338D01*
X163843678Y-93534066D01*
X163838636Y-93527268D01*
X163834284Y-93520008D01*
X163830665Y-93512356D01*
X163827814Y-93504387D01*
X163825757Y-93496177D01*
X163824515Y-93487804D01*
X163824100Y-93479350D01*
X163824100Y-92961850D01*
X163824515Y-92953396D01*
X163825757Y-92945023D01*
X163827814Y-92936813D01*
X163830665Y-92928844D01*
X163834284Y-92921192D01*
X163838636Y-92913932D01*
X163843678Y-92907134D01*
X163849362Y-92900862D01*
X163855634Y-92895178D01*
X163862432Y-92890136D01*
X163869692Y-92885784D01*
X163877344Y-92882165D01*
X163885313Y-92879314D01*
X163893523Y-92877257D01*
X163901896Y-92876015D01*
X163910350Y-92875600D01*
X164947850Y-92875600D01*
X164956304Y-92876015D01*
X164956304Y-92876015D01*
G37*
D18*
X164429100Y-93220600D03*
D19*
X143608900Y-106997600D03*
X143608900Y-108267600D03*
X143608900Y-109537600D03*
X143608900Y-110807600D03*
X138681300Y-110807600D03*
X138681300Y-109537600D03*
X138681300Y-108267600D03*
X138681300Y-106997600D03*
X137258900Y-119443600D03*
X137258900Y-120713600D03*
X137258900Y-121983600D03*
X137258900Y-123253600D03*
X132331300Y-123253600D03*
X132331300Y-121983600D03*
X132331300Y-120713600D03*
X132331300Y-119443600D03*
M02*
