G04 #@! TF.GenerationSoftware,KiCad,Pcbnew,(5.1.2)-2*
G04 #@! TF.CreationDate,2021-11-10T11:30:02-03:00*
G04 #@! TF.ProjectId,PC_V1.2,50435f56-312e-4322-9e6b-696361645f70,rev?*
G04 #@! TF.SameCoordinates,Original*
G04 #@! TF.FileFunction,Copper,L2,Bot*
G04 #@! TF.FilePolarity,Positive*
%FSLAX46Y46*%
G04 Gerber Fmt 4.6, Leading zero omitted, Abs format (unit mm)*
G04 Created by KiCad (PCBNEW (5.1.2)-2) date 2021-11-10 11:30:02*
%MOMM*%
%LPD*%
G04 APERTURE LIST*
%ADD10O,1.600000X1.600000*%
%ADD11R,1.600000X1.600000*%
%ADD12R,1.300000X1.300000*%
%ADD13R,2.000000X1.300000*%
%ADD14R,1.300000X2.000000*%
%ADD15C,2.159000*%
%ADD16O,3.048000X1.524000*%
%ADD17C,0.756400*%
%ADD18C,0.800000*%
%ADD19C,0.812800*%
%ADD20C,0.304800*%
%ADD21C,0.508000*%
%ADD22C,0.406400*%
G04 APERTURE END LIST*
D10*
X163320000Y-105250000D03*
X155700000Y-120490000D03*
X163320000Y-107790000D03*
X155700000Y-117950000D03*
X163320000Y-110330000D03*
X155700000Y-115410000D03*
X163320000Y-112870000D03*
X155700000Y-112870000D03*
X163320000Y-115410000D03*
X155700000Y-110330000D03*
X163320000Y-117950000D03*
X155700000Y-107790000D03*
X163320000Y-120490000D03*
D11*
X155700000Y-105250000D03*
D12*
X146091100Y-90404600D03*
X148391100Y-90404600D03*
D13*
X147241100Y-95904600D03*
D12*
X157611100Y-87178600D03*
X157611100Y-89478600D03*
D14*
X152111100Y-88328600D03*
D12*
X165739100Y-91750600D03*
X165739100Y-94050600D03*
D14*
X160239100Y-92900600D03*
D12*
X162107100Y-102762600D03*
X159807100Y-102762600D03*
D13*
X160957100Y-97262600D03*
D15*
X137335100Y-116522600D03*
X147241100Y-117030600D03*
X141653100Y-94932600D03*
X147749100Y-87820600D03*
X163243100Y-88074600D03*
X164767100Y-100266600D03*
X144955100Y-123634600D03*
X133017100Y-125412600D03*
D16*
X131239100Y-112458600D03*
X131239100Y-114998600D03*
X131239100Y-105346600D03*
X131239100Y-107886600D03*
X131493100Y-88328600D03*
X131493100Y-90868600D03*
X131493100Y-93408600D03*
X131493100Y-95948600D03*
D15*
X148900000Y-114025000D03*
D17*
X160274000Y-111760000D03*
X160274000Y-106934000D03*
X160782000Y-118110000D03*
X159004000Y-119888000D03*
X152400000Y-119126000D03*
X153416000Y-115062000D03*
X147828000Y-120904000D03*
X154940000Y-99822000D03*
X153670000Y-94488000D03*
X152146000Y-100838000D03*
X151638000Y-99060000D03*
X157226000Y-106680000D03*
X157226000Y-114046000D03*
X142240000Y-123952000D03*
X134620000Y-114046000D03*
X136906000Y-85344000D03*
X159433100Y-90868600D03*
X150035100Y-91122600D03*
X135557100Y-91884600D03*
X133017100Y-101790600D03*
X141653100Y-87312600D03*
X166037100Y-98742600D03*
X159179100Y-88836600D03*
X143431100Y-85280600D03*
X128953100Y-99250600D03*
X167815100Y-89852600D03*
X167053100Y-88582600D03*
X139621100Y-98488600D03*
X162227100Y-95694600D03*
X161211100Y-95694600D03*
X164005100Y-91122600D03*
X164513100Y-90106600D03*
X158925100Y-93408600D03*
X151305100Y-93916600D03*
X139621100Y-94170600D03*
X128191100Y-122872600D03*
X128191100Y-125412600D03*
X139113100Y-125412600D03*
X146225100Y-93916600D03*
X144701100Y-113474600D03*
X145463100Y-106362600D03*
X141145100Y-103822600D03*
X141653100Y-107124600D03*
X141907100Y-110172600D03*
X139113100Y-113220600D03*
X131239100Y-110172600D03*
X146225100Y-88836600D03*
X135049100Y-117030600D03*
X155369100Y-88328600D03*
X163497100Y-94170600D03*
X149019100Y-102806600D03*
X160274000Y-109474000D03*
X127683100Y-100520600D03*
X127429100Y-105092600D03*
X127429100Y-109918600D03*
X133017100Y-110172600D03*
X131239100Y-103568600D03*
X132509100Y-103568600D03*
X135049100Y-105854600D03*
X134795100Y-100012600D03*
X127429100Y-112712600D03*
X127429100Y-117030600D03*
X131239100Y-116522600D03*
X135049100Y-126428600D03*
X134955610Y-120840600D03*
X162456090Y-125237010D03*
X157129236Y-125237010D03*
X148003100Y-125237010D03*
X168437010Y-114973317D03*
X168437010Y-118250000D03*
X168437010Y-104330600D03*
X152146000Y-123190000D03*
X150157907Y-98519990D03*
X154820610Y-103060600D03*
X149220000Y-111600000D03*
X149040000Y-119150000D03*
X152620000Y-111510000D03*
X156972000Y-103124000D03*
X155877100Y-94296789D03*
X166370000Y-101854000D03*
X160274000Y-99060000D03*
X151559100Y-96710600D03*
D18*
X154905100Y-95396600D03*
D17*
X161512610Y-100687381D03*
X139367100Y-89852600D03*
X153591100Y-93154600D03*
X155956004Y-96266000D03*
D19*
X150035100Y-91122600D02*
X149273100Y-91884600D01*
X149273100Y-91884600D02*
X135557100Y-91884600D01*
X131239100Y-112458600D02*
X129969100Y-112458600D01*
X129969100Y-112458600D02*
X128445100Y-110934600D01*
X128445100Y-110934600D02*
X128445100Y-104330600D01*
X128445100Y-104330600D02*
X130985100Y-101790600D01*
X130985100Y-101790600D02*
X133017100Y-101790600D01*
X159433100Y-90868600D02*
X157147014Y-93154686D01*
X155115100Y-101790600D02*
X133551955Y-101790600D01*
X157147014Y-99758686D02*
X155115100Y-101790600D01*
X157147014Y-93154686D02*
X157147014Y-99758686D01*
X133551955Y-101790600D02*
X133017100Y-101790600D01*
D20*
X165739100Y-91750600D02*
X165859100Y-91630600D01*
D19*
X157611100Y-87178600D02*
X157611100Y-86416600D01*
X158239100Y-85788600D02*
X157611100Y-86416600D01*
X158239100Y-85788600D02*
X164513100Y-85788600D01*
X164513100Y-85788600D02*
X165739100Y-87014600D01*
X165739100Y-87014600D02*
X165739100Y-91750600D01*
X144701100Y-123990200D02*
X144701100Y-123888600D01*
X146985900Y-126275000D02*
X144701100Y-123990200D01*
X164700000Y-126275000D02*
X146985900Y-126275000D01*
X169375000Y-87348500D02*
X169375000Y-121600000D01*
X145075100Y-90404600D02*
X144447100Y-89776600D01*
X144701100Y-123888600D02*
X144955100Y-123634600D01*
X146091100Y-90404600D02*
X145075100Y-90404600D01*
X169375000Y-121600000D02*
X164700000Y-126275000D01*
X144447100Y-89776600D02*
X144447100Y-87566600D01*
X144447100Y-87566600D02*
X147749100Y-84264600D01*
X147749100Y-84264600D02*
X166291100Y-84264600D01*
X166291100Y-84264600D02*
X169375000Y-87348500D01*
X145620500Y-124300000D02*
X144955100Y-123634600D01*
X164025000Y-124300000D02*
X145620500Y-124300000D01*
X165859100Y-91630600D02*
X166291100Y-91630600D01*
X166291100Y-91630600D02*
X167500000Y-92839500D01*
X167500000Y-92839500D02*
X167500000Y-120825000D01*
X167500000Y-120825000D02*
X164025000Y-124300000D01*
X151130000Y-122174000D02*
X150622000Y-122682000D01*
X145907700Y-122682000D02*
X144955100Y-123634600D01*
X152908000Y-122174000D02*
X151130000Y-122174000D01*
X163112600Y-102762600D02*
X165775000Y-105425000D01*
X162107100Y-102762600D02*
X163112600Y-102762600D01*
X165775000Y-105425000D02*
X165775000Y-120275000D01*
X165775000Y-120275000D02*
X163368000Y-122682000D01*
X163368000Y-122682000D02*
X153416000Y-122682000D01*
X150622000Y-122682000D02*
X145907700Y-122682000D01*
X153416000Y-122682000D02*
X152908000Y-122174000D01*
X147241100Y-95904600D02*
X142625100Y-95904600D01*
X142625100Y-95904600D02*
X141653100Y-94932600D01*
X147241100Y-95904600D02*
X150753100Y-95904600D01*
X150753100Y-95904600D02*
X151559100Y-96710600D01*
X152111100Y-88328600D02*
X148257100Y-88328600D01*
X148257100Y-88328600D02*
X147749100Y-87820600D01*
X152111100Y-88328600D02*
X153381100Y-88328600D01*
X153381100Y-88328600D02*
X154905100Y-89852600D01*
X154905100Y-89852600D02*
X154905100Y-95396600D01*
X160239100Y-92900600D02*
X163243100Y-89896600D01*
X163243100Y-89896600D02*
X163243100Y-88074600D01*
D21*
X160239100Y-92900600D02*
X160239100Y-93618600D01*
D19*
X160239100Y-93618600D02*
X159004000Y-94853700D01*
X159004000Y-94853700D02*
X159004000Y-99568000D01*
X159004000Y-99568000D02*
X160123381Y-100687381D01*
X160123381Y-100687381D02*
X160977755Y-100687381D01*
X160977755Y-100687381D02*
X161512610Y-100687381D01*
X163004600Y-100266600D02*
X164767100Y-100266600D01*
X160957100Y-97262600D02*
X160957100Y-98219100D01*
X160957100Y-98219100D02*
X163004600Y-100266600D01*
D22*
X139367100Y-89852600D02*
X138859100Y-90360600D01*
X138859100Y-90360600D02*
X134287100Y-90360600D01*
X134287100Y-90360600D02*
X133779100Y-90868600D01*
X133779100Y-90868600D02*
X131493100Y-90868600D01*
X131493100Y-93408600D02*
X131747100Y-93154600D01*
X131747100Y-93154600D02*
X153591100Y-93154600D01*
X152209404Y-100012600D02*
X155577805Y-96644199D01*
X133779100Y-95948600D02*
X137843100Y-100012600D01*
X137843100Y-100012600D02*
X152209404Y-100012600D01*
X155577805Y-96644199D02*
X155956004Y-96266000D01*
X131493100Y-95948600D02*
X133779100Y-95948600D01*
D20*
G36*
X170107699Y-126963199D02*
G01*
X164881319Y-126963199D01*
X164973481Y-126935242D01*
X165097033Y-126869202D01*
X165205327Y-126780327D01*
X165227602Y-126753185D01*
X169853196Y-122127593D01*
X169880327Y-122105327D01*
X169902593Y-122078196D01*
X169902597Y-122078192D01*
X169969202Y-121997033D01*
X169983224Y-121970800D01*
X170035242Y-121873481D01*
X170075909Y-121739420D01*
X170086200Y-121634936D01*
X170086200Y-121634927D01*
X170089640Y-121600001D01*
X170086200Y-121565075D01*
X170086200Y-87383425D01*
X170089640Y-87348499D01*
X170086200Y-87313573D01*
X170086200Y-87313564D01*
X170075909Y-87209080D01*
X170035242Y-87075019D01*
X169969202Y-86951467D01*
X169944959Y-86921927D01*
X169902597Y-86870308D01*
X169902588Y-86870299D01*
X169880326Y-86843173D01*
X169853201Y-86820912D01*
X166818702Y-83786415D01*
X166796427Y-83759273D01*
X166688133Y-83670398D01*
X166564581Y-83604358D01*
X166430520Y-83563691D01*
X166326036Y-83553400D01*
X166326026Y-83553400D01*
X166291100Y-83549960D01*
X166256174Y-83553400D01*
X147784025Y-83553400D01*
X147749099Y-83549960D01*
X147714173Y-83553400D01*
X147714164Y-83553400D01*
X147609680Y-83563691D01*
X147475619Y-83604358D01*
X147352067Y-83670398D01*
X147243773Y-83759273D01*
X147221503Y-83786409D01*
X143968910Y-87039003D01*
X143941774Y-87061273D01*
X143919504Y-87088409D01*
X143919503Y-87088410D01*
X143852898Y-87169568D01*
X143829397Y-87213536D01*
X143786859Y-87293119D01*
X143748708Y-87418888D01*
X143746192Y-87427181D01*
X143732460Y-87566600D01*
X143735901Y-87601536D01*
X143735900Y-89741674D01*
X143732460Y-89776600D01*
X143735900Y-89811526D01*
X143735900Y-89811535D01*
X143746191Y-89916019D01*
X143786858Y-90050080D01*
X143852898Y-90173632D01*
X143941773Y-90281926D01*
X143968910Y-90304197D01*
X144547502Y-90882790D01*
X144569773Y-90909927D01*
X144678067Y-90998802D01*
X144801619Y-91064842D01*
X144935680Y-91105509D01*
X145040164Y-91115800D01*
X145040173Y-91115800D01*
X145075099Y-91119240D01*
X145110025Y-91115800D01*
X145141151Y-91115800D01*
X145158140Y-91171806D01*
X145158992Y-91173400D01*
X135522164Y-91173400D01*
X135417680Y-91183691D01*
X135283619Y-91224358D01*
X135160067Y-91290398D01*
X135051773Y-91379273D01*
X134962898Y-91487567D01*
X134896858Y-91611119D01*
X134856191Y-91745180D01*
X134842459Y-91884600D01*
X134856191Y-92024020D01*
X134896858Y-92158081D01*
X134962898Y-92281633D01*
X135051773Y-92389927D01*
X135160067Y-92478802D01*
X135283619Y-92544842D01*
X135417680Y-92585509D01*
X135522164Y-92595800D01*
X149238174Y-92595800D01*
X149273100Y-92599240D01*
X149308026Y-92595800D01*
X149308036Y-92595800D01*
X149412520Y-92585509D01*
X149546581Y-92544842D01*
X149670133Y-92478802D01*
X149778427Y-92389927D01*
X149800701Y-92362786D01*
X150562698Y-91600791D01*
X150629302Y-91519633D01*
X150695342Y-91396082D01*
X150736009Y-91262020D01*
X150749740Y-91122600D01*
X150736009Y-90983181D01*
X150695342Y-90849119D01*
X150629302Y-90725568D01*
X150540427Y-90617273D01*
X150432132Y-90528398D01*
X150308581Y-90462358D01*
X150174519Y-90421691D01*
X150035100Y-90407960D01*
X149895680Y-90421691D01*
X149761618Y-90462358D01*
X149638067Y-90528398D01*
X149556909Y-90595002D01*
X149548531Y-90603380D01*
X149548300Y-90556400D01*
X149421500Y-90429600D01*
X148416100Y-90429600D01*
X148416100Y-90449600D01*
X148366100Y-90449600D01*
X148366100Y-90429600D01*
X147360700Y-90429600D01*
X147233900Y-90556400D01*
X147231446Y-91054600D01*
X147241239Y-91154029D01*
X147247115Y-91173400D01*
X147023208Y-91173400D01*
X147024060Y-91171806D01*
X147041489Y-91114351D01*
X147047374Y-91054600D01*
X147047374Y-89754600D01*
X147231446Y-89754600D01*
X147233900Y-90252800D01*
X147360700Y-90379600D01*
X148366100Y-90379600D01*
X148366100Y-89374200D01*
X148416100Y-89374200D01*
X148416100Y-90379600D01*
X149421500Y-90379600D01*
X149548300Y-90252800D01*
X149550754Y-89754600D01*
X149540961Y-89655171D01*
X149511959Y-89559564D01*
X149464862Y-89471451D01*
X149401480Y-89394220D01*
X149324249Y-89330838D01*
X149236136Y-89283741D01*
X149140529Y-89254739D01*
X149041100Y-89244946D01*
X148542900Y-89247400D01*
X148416100Y-89374200D01*
X148366100Y-89374200D01*
X148239300Y-89247400D01*
X147741100Y-89244946D01*
X147641671Y-89254739D01*
X147546064Y-89283741D01*
X147457951Y-89330838D01*
X147380720Y-89394220D01*
X147317338Y-89471451D01*
X147270241Y-89559564D01*
X147241239Y-89655171D01*
X147231446Y-89754600D01*
X147047374Y-89754600D01*
X147041489Y-89694849D01*
X147024060Y-89637394D01*
X146995758Y-89584443D01*
X146957668Y-89538032D01*
X146911257Y-89499942D01*
X146858306Y-89471640D01*
X146800851Y-89454211D01*
X146741100Y-89448326D01*
X145441100Y-89448326D01*
X145381349Y-89454211D01*
X145323894Y-89471640D01*
X145270943Y-89499942D01*
X145224532Y-89538032D01*
X145219929Y-89543641D01*
X145158300Y-89482013D01*
X145158300Y-87861187D01*
X148043688Y-84975800D01*
X165996513Y-84975800D01*
X168663800Y-87643089D01*
X168663801Y-121305410D01*
X164405413Y-125563800D01*
X147280488Y-125563800D01*
X146727888Y-125011200D01*
X163990074Y-125011200D01*
X164025000Y-125014640D01*
X164059926Y-125011200D01*
X164059936Y-125011200D01*
X164164420Y-125000909D01*
X164298481Y-124960242D01*
X164422033Y-124894202D01*
X164530327Y-124805327D01*
X164552602Y-124778185D01*
X167978191Y-121352597D01*
X168005327Y-121330327D01*
X168094202Y-121222033D01*
X168160242Y-121098481D01*
X168200909Y-120964420D01*
X168211200Y-120859936D01*
X168211200Y-120859927D01*
X168214640Y-120825001D01*
X168211200Y-120790075D01*
X168211200Y-92874428D01*
X168214640Y-92839500D01*
X168211200Y-92804571D01*
X168211200Y-92804564D01*
X168200909Y-92700080D01*
X168175758Y-92617168D01*
X168160242Y-92566018D01*
X168094202Y-92442467D01*
X168027597Y-92361309D01*
X168027593Y-92361305D01*
X168005326Y-92334173D01*
X167978195Y-92311907D01*
X166818702Y-91152415D01*
X166796427Y-91125273D01*
X166688141Y-91036404D01*
X166672060Y-90983394D01*
X166643758Y-90930443D01*
X166605668Y-90884032D01*
X166559257Y-90845942D01*
X166506306Y-90817640D01*
X166450300Y-90800651D01*
X166450300Y-87049528D01*
X166453740Y-87014600D01*
X166450300Y-86979671D01*
X166450300Y-86979664D01*
X166440009Y-86875180D01*
X166399342Y-86741119D01*
X166333302Y-86617567D01*
X166313837Y-86593849D01*
X166266697Y-86536409D01*
X166266693Y-86536405D01*
X166244426Y-86509273D01*
X166217295Y-86487007D01*
X165040702Y-85310415D01*
X165018427Y-85283273D01*
X164910133Y-85194398D01*
X164786581Y-85128358D01*
X164652520Y-85087691D01*
X164548036Y-85077400D01*
X164548026Y-85077400D01*
X164513100Y-85073960D01*
X164478174Y-85077400D01*
X158274025Y-85077400D01*
X158239099Y-85073960D01*
X158204173Y-85077400D01*
X158204164Y-85077400D01*
X158099680Y-85087691D01*
X157965619Y-85128358D01*
X157842067Y-85194398D01*
X157733773Y-85283273D01*
X157711502Y-85310410D01*
X157132910Y-85889003D01*
X157105774Y-85911273D01*
X157083504Y-85938409D01*
X157083503Y-85938410D01*
X157016898Y-86019568D01*
X156994174Y-86062082D01*
X156950859Y-86143119D01*
X156925776Y-86225805D01*
X156901349Y-86228211D01*
X156843894Y-86245640D01*
X156790943Y-86273942D01*
X156744532Y-86312032D01*
X156706442Y-86358443D01*
X156678140Y-86411394D01*
X156660711Y-86468849D01*
X156654826Y-86528600D01*
X156654826Y-87828600D01*
X156660711Y-87888351D01*
X156678140Y-87945806D01*
X156706442Y-87998757D01*
X156744532Y-88045168D01*
X156790943Y-88083258D01*
X156843894Y-88111560D01*
X156901349Y-88128989D01*
X156961100Y-88134874D01*
X158261100Y-88134874D01*
X158320851Y-88128989D01*
X158378306Y-88111560D01*
X158431257Y-88083258D01*
X158477668Y-88045168D01*
X158515758Y-87998757D01*
X158544060Y-87945806D01*
X158561489Y-87888351D01*
X158567374Y-87828600D01*
X158567374Y-86528600D01*
X158564537Y-86499800D01*
X164218513Y-86499800D01*
X165027900Y-87309188D01*
X165027901Y-90800650D01*
X164971894Y-90817640D01*
X164918943Y-90845942D01*
X164872532Y-90884032D01*
X164834442Y-90930443D01*
X164806140Y-90983394D01*
X164788711Y-91040849D01*
X164782826Y-91100600D01*
X164782826Y-92400600D01*
X164788711Y-92460351D01*
X164806140Y-92517806D01*
X164834442Y-92570757D01*
X164872532Y-92617168D01*
X164918943Y-92655258D01*
X164971894Y-92683560D01*
X165029349Y-92700989D01*
X165089100Y-92706874D01*
X166361587Y-92706874D01*
X166584818Y-92930105D01*
X166584136Y-92929741D01*
X166488529Y-92900739D01*
X166389100Y-92890946D01*
X165890900Y-92893400D01*
X165764100Y-93020200D01*
X165764100Y-94025600D01*
X165784100Y-94025600D01*
X165784100Y-94075600D01*
X165764100Y-94075600D01*
X165764100Y-95081000D01*
X165890900Y-95207800D01*
X166389100Y-95210254D01*
X166488529Y-95200461D01*
X166584136Y-95171459D01*
X166672249Y-95124362D01*
X166749480Y-95060980D01*
X166788800Y-95013068D01*
X166788801Y-120530411D01*
X163730413Y-123588800D01*
X146339400Y-123588800D01*
X146339400Y-123498258D01*
X146318503Y-123393200D01*
X150587074Y-123393200D01*
X150622000Y-123396640D01*
X150656926Y-123393200D01*
X150656936Y-123393200D01*
X150761420Y-123382909D01*
X150895481Y-123342242D01*
X151019033Y-123276202D01*
X151127327Y-123187327D01*
X151149601Y-123160186D01*
X151424588Y-122885200D01*
X152613412Y-122885200D01*
X152888407Y-123160195D01*
X152910673Y-123187327D01*
X152937804Y-123209593D01*
X152937808Y-123209597D01*
X153003764Y-123263726D01*
X153018967Y-123276202D01*
X153142519Y-123342242D01*
X153276580Y-123382909D01*
X153381064Y-123393200D01*
X153381081Y-123393200D01*
X153415999Y-123396639D01*
X153450917Y-123393200D01*
X163333074Y-123393200D01*
X163368000Y-123396640D01*
X163402926Y-123393200D01*
X163402936Y-123393200D01*
X163507420Y-123382909D01*
X163641481Y-123342242D01*
X163765033Y-123276202D01*
X163873327Y-123187327D01*
X163895602Y-123160185D01*
X166253191Y-120802597D01*
X166280327Y-120780327D01*
X166369202Y-120672033D01*
X166435242Y-120548481D01*
X166475909Y-120414420D01*
X166486200Y-120309936D01*
X166486200Y-120309927D01*
X166489640Y-120275001D01*
X166486200Y-120240075D01*
X166486200Y-105459925D01*
X166489640Y-105424999D01*
X166486200Y-105390073D01*
X166486200Y-105390064D01*
X166475909Y-105285580D01*
X166435242Y-105151519D01*
X166369202Y-105027967D01*
X166338733Y-104990841D01*
X166302597Y-104946809D01*
X166302593Y-104946805D01*
X166280326Y-104919673D01*
X166253195Y-104897407D01*
X163640202Y-102284415D01*
X163617927Y-102257273D01*
X163509633Y-102168398D01*
X163386081Y-102102358D01*
X163252020Y-102061691D01*
X163147536Y-102051400D01*
X163147526Y-102051400D01*
X163112600Y-102047960D01*
X163077674Y-102051400D01*
X163057049Y-102051400D01*
X163040060Y-101995394D01*
X163011758Y-101942443D01*
X162973668Y-101896032D01*
X162927257Y-101857942D01*
X162874306Y-101829640D01*
X162816851Y-101812211D01*
X162757100Y-101806326D01*
X161457100Y-101806326D01*
X161397349Y-101812211D01*
X161339894Y-101829640D01*
X161286943Y-101857942D01*
X161240532Y-101896032D01*
X161202442Y-101942443D01*
X161174140Y-101995394D01*
X161156711Y-102052849D01*
X161150826Y-102112600D01*
X161150826Y-103412600D01*
X161156711Y-103472351D01*
X161174140Y-103529806D01*
X161202442Y-103582757D01*
X161240532Y-103629168D01*
X161286943Y-103667258D01*
X161339894Y-103695560D01*
X161397349Y-103712989D01*
X161457100Y-103718874D01*
X162757100Y-103718874D01*
X162816851Y-103712989D01*
X162874306Y-103695560D01*
X162927257Y-103667258D01*
X162973510Y-103629297D01*
X163501992Y-104157780D01*
X163374269Y-104145200D01*
X163265731Y-104145200D01*
X163103421Y-104161186D01*
X162895166Y-104224360D01*
X162703236Y-104326948D01*
X162535009Y-104465009D01*
X162396948Y-104633236D01*
X162294360Y-104825166D01*
X162231186Y-105033421D01*
X162209855Y-105250000D01*
X162231186Y-105466579D01*
X162294360Y-105674834D01*
X162396948Y-105866764D01*
X162535009Y-106034991D01*
X162703236Y-106173052D01*
X162895166Y-106275640D01*
X163103421Y-106338814D01*
X163265731Y-106354800D01*
X163374269Y-106354800D01*
X163536579Y-106338814D01*
X163744834Y-106275640D01*
X163936764Y-106173052D01*
X164104991Y-106034991D01*
X164243052Y-105866764D01*
X164345640Y-105674834D01*
X164408814Y-105466579D01*
X164430145Y-105250000D01*
X164412221Y-105068008D01*
X165063800Y-105719588D01*
X165063801Y-119980411D01*
X164416591Y-120627622D01*
X164430145Y-120490000D01*
X164408814Y-120273421D01*
X164345640Y-120065166D01*
X164243052Y-119873236D01*
X164104991Y-119705009D01*
X163936764Y-119566948D01*
X163744834Y-119464360D01*
X163536579Y-119401186D01*
X163374269Y-119385200D01*
X163265731Y-119385200D01*
X163103421Y-119401186D01*
X162895166Y-119464360D01*
X162703236Y-119566948D01*
X162535009Y-119705009D01*
X162396948Y-119873236D01*
X162294360Y-120065166D01*
X162231186Y-120273421D01*
X162209855Y-120490000D01*
X162231186Y-120706579D01*
X162294360Y-120914834D01*
X162396948Y-121106764D01*
X162535009Y-121274991D01*
X162703236Y-121413052D01*
X162895166Y-121515640D01*
X163103421Y-121578814D01*
X163265731Y-121594800D01*
X163374269Y-121594800D01*
X163457622Y-121586590D01*
X163073413Y-121970800D01*
X153710588Y-121970800D01*
X153435601Y-121695814D01*
X153413327Y-121668673D01*
X153305033Y-121579798D01*
X153181481Y-121513758D01*
X153047420Y-121473091D01*
X152942936Y-121462800D01*
X152942926Y-121462800D01*
X152908000Y-121459360D01*
X152873074Y-121462800D01*
X151164917Y-121462800D01*
X151129999Y-121459361D01*
X151095081Y-121462800D01*
X151095064Y-121462800D01*
X150990580Y-121473091D01*
X150856519Y-121513758D01*
X150732967Y-121579798D01*
X150732965Y-121579799D01*
X150732966Y-121579799D01*
X150651808Y-121646403D01*
X150651804Y-121646407D01*
X150624673Y-121668673D01*
X150602407Y-121695805D01*
X150327412Y-121970800D01*
X145942628Y-121970800D01*
X145907700Y-121967360D01*
X145872771Y-121970800D01*
X145872764Y-121970800D01*
X145768280Y-121981091D01*
X145634219Y-122021758D01*
X145510667Y-122087798D01*
X145402373Y-122176673D01*
X145380104Y-122203808D01*
X145293433Y-122290479D01*
X145091442Y-122250300D01*
X144818758Y-122250300D01*
X144551315Y-122303498D01*
X144299388Y-122407849D01*
X144072660Y-122559344D01*
X143879844Y-122752160D01*
X143728349Y-122978888D01*
X143623998Y-123230815D01*
X143570800Y-123498258D01*
X143570800Y-123770942D01*
X143623998Y-124038385D01*
X143728349Y-124290312D01*
X143879844Y-124517040D01*
X144072660Y-124709856D01*
X144299388Y-124861351D01*
X144551315Y-124965702D01*
X144700487Y-124995374D01*
X146458303Y-126753191D01*
X146480573Y-126780327D01*
X146588867Y-126869202D01*
X146712419Y-126935242D01*
X146804581Y-126963199D01*
X126894501Y-126963199D01*
X126894501Y-125276258D01*
X131632800Y-125276258D01*
X131632800Y-125548942D01*
X131685998Y-125816385D01*
X131790349Y-126068312D01*
X131941844Y-126295040D01*
X132134660Y-126487856D01*
X132361388Y-126639351D01*
X132613315Y-126743702D01*
X132880758Y-126796900D01*
X133153442Y-126796900D01*
X133420885Y-126743702D01*
X133672812Y-126639351D01*
X133899540Y-126487856D01*
X134092356Y-126295040D01*
X134243851Y-126068312D01*
X134348202Y-125816385D01*
X134401400Y-125548942D01*
X134401400Y-125276258D01*
X134348202Y-125008815D01*
X134243851Y-124756888D01*
X134092356Y-124530160D01*
X133899540Y-124337344D01*
X133672812Y-124185849D01*
X133420885Y-124081498D01*
X133153442Y-124028300D01*
X132880758Y-124028300D01*
X132613315Y-124081498D01*
X132361388Y-124185849D01*
X132134660Y-124337344D01*
X131941844Y-124530160D01*
X131790349Y-124756888D01*
X131685998Y-125008815D01*
X131632800Y-125276258D01*
X126894501Y-125276258D01*
X126894501Y-123884730D01*
X141557000Y-123884730D01*
X141557000Y-124019270D01*
X141583247Y-124151224D01*
X141634733Y-124275522D01*
X141709479Y-124387387D01*
X141804613Y-124482521D01*
X141916478Y-124557267D01*
X142040776Y-124608753D01*
X142172730Y-124635000D01*
X142307270Y-124635000D01*
X142439224Y-124608753D01*
X142563522Y-124557267D01*
X142675387Y-124482521D01*
X142770521Y-124387387D01*
X142845267Y-124275522D01*
X142896753Y-124151224D01*
X142923000Y-124019270D01*
X142923000Y-123884730D01*
X142896753Y-123752776D01*
X142845267Y-123628478D01*
X142770521Y-123516613D01*
X142675387Y-123421479D01*
X142563522Y-123346733D01*
X142439224Y-123295247D01*
X142307270Y-123269000D01*
X142172730Y-123269000D01*
X142040776Y-123295247D01*
X141916478Y-123346733D01*
X141804613Y-123421479D01*
X141709479Y-123516613D01*
X141634733Y-123628478D01*
X141583247Y-123752776D01*
X141557000Y-123884730D01*
X126894501Y-123884730D01*
X126894501Y-120836730D01*
X147145000Y-120836730D01*
X147145000Y-120971270D01*
X147171247Y-121103224D01*
X147222733Y-121227522D01*
X147297479Y-121339387D01*
X147392613Y-121434521D01*
X147504478Y-121509267D01*
X147628776Y-121560753D01*
X147760730Y-121587000D01*
X147895270Y-121587000D01*
X148027224Y-121560753D01*
X148151522Y-121509267D01*
X148263387Y-121434521D01*
X148358521Y-121339387D01*
X148433267Y-121227522D01*
X148484753Y-121103224D01*
X148511000Y-120971270D01*
X148511000Y-120836730D01*
X148484753Y-120704776D01*
X148433267Y-120580478D01*
X148372812Y-120490000D01*
X154589855Y-120490000D01*
X154611186Y-120706579D01*
X154674360Y-120914834D01*
X154776948Y-121106764D01*
X154915009Y-121274991D01*
X155083236Y-121413052D01*
X155275166Y-121515640D01*
X155483421Y-121578814D01*
X155645731Y-121594800D01*
X155754269Y-121594800D01*
X155916579Y-121578814D01*
X156124834Y-121515640D01*
X156316764Y-121413052D01*
X156484991Y-121274991D01*
X156623052Y-121106764D01*
X156725640Y-120914834D01*
X156788814Y-120706579D01*
X156810145Y-120490000D01*
X156788814Y-120273421D01*
X156725640Y-120065166D01*
X156623052Y-119873236D01*
X156579962Y-119820730D01*
X158321000Y-119820730D01*
X158321000Y-119955270D01*
X158347247Y-120087224D01*
X158398733Y-120211522D01*
X158473479Y-120323387D01*
X158568613Y-120418521D01*
X158680478Y-120493267D01*
X158804776Y-120544753D01*
X158936730Y-120571000D01*
X159071270Y-120571000D01*
X159203224Y-120544753D01*
X159327522Y-120493267D01*
X159439387Y-120418521D01*
X159534521Y-120323387D01*
X159609267Y-120211522D01*
X159660753Y-120087224D01*
X159687000Y-119955270D01*
X159687000Y-119820730D01*
X159660753Y-119688776D01*
X159609267Y-119564478D01*
X159534521Y-119452613D01*
X159439387Y-119357479D01*
X159327522Y-119282733D01*
X159203224Y-119231247D01*
X159071270Y-119205000D01*
X158936730Y-119205000D01*
X158804776Y-119231247D01*
X158680478Y-119282733D01*
X158568613Y-119357479D01*
X158473479Y-119452613D01*
X158398733Y-119564478D01*
X158347247Y-119688776D01*
X158321000Y-119820730D01*
X156579962Y-119820730D01*
X156484991Y-119705009D01*
X156316764Y-119566948D01*
X156124834Y-119464360D01*
X155916579Y-119401186D01*
X155754269Y-119385200D01*
X155645731Y-119385200D01*
X155483421Y-119401186D01*
X155275166Y-119464360D01*
X155083236Y-119566948D01*
X154915009Y-119705009D01*
X154776948Y-119873236D01*
X154674360Y-120065166D01*
X154611186Y-120273421D01*
X154589855Y-120490000D01*
X148372812Y-120490000D01*
X148358521Y-120468613D01*
X148263387Y-120373479D01*
X148151522Y-120298733D01*
X148027224Y-120247247D01*
X147895270Y-120221000D01*
X147760730Y-120221000D01*
X147628776Y-120247247D01*
X147504478Y-120298733D01*
X147392613Y-120373479D01*
X147297479Y-120468613D01*
X147222733Y-120580478D01*
X147171247Y-120704776D01*
X147145000Y-120836730D01*
X126894501Y-120836730D01*
X126894501Y-119058730D01*
X151717000Y-119058730D01*
X151717000Y-119193270D01*
X151743247Y-119325224D01*
X151794733Y-119449522D01*
X151869479Y-119561387D01*
X151964613Y-119656521D01*
X152076478Y-119731267D01*
X152200776Y-119782753D01*
X152332730Y-119809000D01*
X152467270Y-119809000D01*
X152599224Y-119782753D01*
X152723522Y-119731267D01*
X152835387Y-119656521D01*
X152930521Y-119561387D01*
X153005267Y-119449522D01*
X153056753Y-119325224D01*
X153083000Y-119193270D01*
X153083000Y-119058730D01*
X153056753Y-118926776D01*
X153005267Y-118802478D01*
X152930521Y-118690613D01*
X152835387Y-118595479D01*
X152723522Y-118520733D01*
X152599224Y-118469247D01*
X152467270Y-118443000D01*
X152332730Y-118443000D01*
X152200776Y-118469247D01*
X152076478Y-118520733D01*
X151964613Y-118595479D01*
X151869479Y-118690613D01*
X151794733Y-118802478D01*
X151743247Y-118926776D01*
X151717000Y-119058730D01*
X126894501Y-119058730D01*
X126894501Y-116386258D01*
X135950800Y-116386258D01*
X135950800Y-116658942D01*
X136003998Y-116926385D01*
X136108349Y-117178312D01*
X136259844Y-117405040D01*
X136452660Y-117597856D01*
X136679388Y-117749351D01*
X136931315Y-117853702D01*
X137198758Y-117906900D01*
X137471442Y-117906900D01*
X137738885Y-117853702D01*
X137990812Y-117749351D01*
X138217540Y-117597856D01*
X138410356Y-117405040D01*
X138561851Y-117178312D01*
X138666202Y-116926385D01*
X138672592Y-116894258D01*
X145856800Y-116894258D01*
X145856800Y-117166942D01*
X145909998Y-117434385D01*
X146014349Y-117686312D01*
X146165844Y-117913040D01*
X146358660Y-118105856D01*
X146585388Y-118257351D01*
X146837315Y-118361702D01*
X147104758Y-118414900D01*
X147377442Y-118414900D01*
X147644885Y-118361702D01*
X147896812Y-118257351D01*
X148123540Y-118105856D01*
X148279396Y-117950000D01*
X154589855Y-117950000D01*
X154611186Y-118166579D01*
X154674360Y-118374834D01*
X154776948Y-118566764D01*
X154915009Y-118734991D01*
X155083236Y-118873052D01*
X155275166Y-118975640D01*
X155483421Y-119038814D01*
X155645731Y-119054800D01*
X155754269Y-119054800D01*
X155916579Y-119038814D01*
X156124834Y-118975640D01*
X156316764Y-118873052D01*
X156484991Y-118734991D01*
X156623052Y-118566764D01*
X156725640Y-118374834D01*
X156788814Y-118166579D01*
X156801011Y-118042730D01*
X160099000Y-118042730D01*
X160099000Y-118177270D01*
X160125247Y-118309224D01*
X160176733Y-118433522D01*
X160251479Y-118545387D01*
X160346613Y-118640521D01*
X160458478Y-118715267D01*
X160582776Y-118766753D01*
X160714730Y-118793000D01*
X160849270Y-118793000D01*
X160981224Y-118766753D01*
X161105522Y-118715267D01*
X161217387Y-118640521D01*
X161312521Y-118545387D01*
X161387267Y-118433522D01*
X161438753Y-118309224D01*
X161465000Y-118177270D01*
X161465000Y-118042730D01*
X161446556Y-117950000D01*
X162209855Y-117950000D01*
X162231186Y-118166579D01*
X162294360Y-118374834D01*
X162396948Y-118566764D01*
X162535009Y-118734991D01*
X162703236Y-118873052D01*
X162895166Y-118975640D01*
X163103421Y-119038814D01*
X163265731Y-119054800D01*
X163374269Y-119054800D01*
X163536579Y-119038814D01*
X163744834Y-118975640D01*
X163936764Y-118873052D01*
X164104991Y-118734991D01*
X164243052Y-118566764D01*
X164345640Y-118374834D01*
X164408814Y-118166579D01*
X164430145Y-117950000D01*
X164408814Y-117733421D01*
X164345640Y-117525166D01*
X164243052Y-117333236D01*
X164104991Y-117165009D01*
X163936764Y-117026948D01*
X163744834Y-116924360D01*
X163536579Y-116861186D01*
X163374269Y-116845200D01*
X163265731Y-116845200D01*
X163103421Y-116861186D01*
X162895166Y-116924360D01*
X162703236Y-117026948D01*
X162535009Y-117165009D01*
X162396948Y-117333236D01*
X162294360Y-117525166D01*
X162231186Y-117733421D01*
X162209855Y-117950000D01*
X161446556Y-117950000D01*
X161438753Y-117910776D01*
X161387267Y-117786478D01*
X161312521Y-117674613D01*
X161217387Y-117579479D01*
X161105522Y-117504733D01*
X160981224Y-117453247D01*
X160849270Y-117427000D01*
X160714730Y-117427000D01*
X160582776Y-117453247D01*
X160458478Y-117504733D01*
X160346613Y-117579479D01*
X160251479Y-117674613D01*
X160176733Y-117786478D01*
X160125247Y-117910776D01*
X160099000Y-118042730D01*
X156801011Y-118042730D01*
X156810145Y-117950000D01*
X156788814Y-117733421D01*
X156725640Y-117525166D01*
X156623052Y-117333236D01*
X156484991Y-117165009D01*
X156316764Y-117026948D01*
X156124834Y-116924360D01*
X155916579Y-116861186D01*
X155754269Y-116845200D01*
X155645731Y-116845200D01*
X155483421Y-116861186D01*
X155275166Y-116924360D01*
X155083236Y-117026948D01*
X154915009Y-117165009D01*
X154776948Y-117333236D01*
X154674360Y-117525166D01*
X154611186Y-117733421D01*
X154589855Y-117950000D01*
X148279396Y-117950000D01*
X148316356Y-117913040D01*
X148467851Y-117686312D01*
X148572202Y-117434385D01*
X148625400Y-117166942D01*
X148625400Y-116894258D01*
X148572202Y-116626815D01*
X148467851Y-116374888D01*
X148316356Y-116148160D01*
X148123540Y-115955344D01*
X147896812Y-115803849D01*
X147644885Y-115699498D01*
X147377442Y-115646300D01*
X147104758Y-115646300D01*
X146837315Y-115699498D01*
X146585388Y-115803849D01*
X146358660Y-115955344D01*
X146165844Y-116148160D01*
X146014349Y-116374888D01*
X145909998Y-116626815D01*
X145856800Y-116894258D01*
X138672592Y-116894258D01*
X138719400Y-116658942D01*
X138719400Y-116386258D01*
X138666202Y-116118815D01*
X138561851Y-115866888D01*
X138410356Y-115640160D01*
X138217540Y-115447344D01*
X137990812Y-115295849D01*
X137738885Y-115191498D01*
X137471442Y-115138300D01*
X137198758Y-115138300D01*
X136931315Y-115191498D01*
X136679388Y-115295849D01*
X136452660Y-115447344D01*
X136259844Y-115640160D01*
X136108349Y-115866888D01*
X136003998Y-116118815D01*
X135950800Y-116386258D01*
X126894501Y-116386258D01*
X126894501Y-115221800D01*
X129227680Y-115221800D01*
X129294946Y-115461204D01*
X129407910Y-115682942D01*
X129561963Y-115878381D01*
X129751184Y-116040011D01*
X129968302Y-116161620D01*
X130204972Y-116238535D01*
X130452100Y-116267800D01*
X131214100Y-116267800D01*
X131214100Y-115023600D01*
X131264100Y-115023600D01*
X131264100Y-116267800D01*
X132026100Y-116267800D01*
X132273228Y-116238535D01*
X132509898Y-116161620D01*
X132727016Y-116040011D01*
X132916237Y-115878381D01*
X133070290Y-115682942D01*
X133183254Y-115461204D01*
X133250520Y-115221800D01*
X133173899Y-115080261D01*
X147880095Y-115080261D01*
X147983189Y-115329414D01*
X148255284Y-115483211D01*
X148552155Y-115580969D01*
X148862393Y-115618933D01*
X149174077Y-115595643D01*
X149475228Y-115511994D01*
X149754273Y-115371200D01*
X149816811Y-115329414D01*
X149919905Y-115080261D01*
X148900000Y-114060355D01*
X147880095Y-115080261D01*
X133173899Y-115080261D01*
X133143226Y-115023600D01*
X131264100Y-115023600D01*
X131214100Y-115023600D01*
X129334974Y-115023600D01*
X129227680Y-115221800D01*
X126894501Y-115221800D01*
X126894501Y-114775400D01*
X129227680Y-114775400D01*
X129334974Y-114973600D01*
X131214100Y-114973600D01*
X131214100Y-113729400D01*
X131264100Y-113729400D01*
X131264100Y-114973600D01*
X133143226Y-114973600D01*
X133250520Y-114775400D01*
X133183254Y-114535996D01*
X133070290Y-114314258D01*
X132916237Y-114118819D01*
X132752235Y-113978730D01*
X133937000Y-113978730D01*
X133937000Y-114113270D01*
X133963247Y-114245224D01*
X134014733Y-114369522D01*
X134089479Y-114481387D01*
X134184613Y-114576521D01*
X134296478Y-114651267D01*
X134420776Y-114702753D01*
X134552730Y-114729000D01*
X134687270Y-114729000D01*
X134819224Y-114702753D01*
X134943522Y-114651267D01*
X135055387Y-114576521D01*
X135150521Y-114481387D01*
X135225267Y-114369522D01*
X135276753Y-114245224D01*
X135303000Y-114113270D01*
X135303000Y-113987393D01*
X147306067Y-113987393D01*
X147329357Y-114299077D01*
X147413006Y-114600228D01*
X147553800Y-114879273D01*
X147595586Y-114941811D01*
X147844739Y-115044905D01*
X148864645Y-114025000D01*
X148935355Y-114025000D01*
X149955261Y-115044905D01*
X150076521Y-114994730D01*
X152733000Y-114994730D01*
X152733000Y-115129270D01*
X152759247Y-115261224D01*
X152810733Y-115385522D01*
X152885479Y-115497387D01*
X152980613Y-115592521D01*
X153092478Y-115667267D01*
X153216776Y-115718753D01*
X153348730Y-115745000D01*
X153483270Y-115745000D01*
X153615224Y-115718753D01*
X153739522Y-115667267D01*
X153851387Y-115592521D01*
X153946521Y-115497387D01*
X154004911Y-115410000D01*
X154589855Y-115410000D01*
X154611186Y-115626579D01*
X154674360Y-115834834D01*
X154776948Y-116026764D01*
X154915009Y-116194991D01*
X155083236Y-116333052D01*
X155275166Y-116435640D01*
X155483421Y-116498814D01*
X155645731Y-116514800D01*
X155754269Y-116514800D01*
X155916579Y-116498814D01*
X156124834Y-116435640D01*
X156316764Y-116333052D01*
X156484991Y-116194991D01*
X156623052Y-116026764D01*
X156725640Y-115834834D01*
X156788814Y-115626579D01*
X156810145Y-115410000D01*
X162209855Y-115410000D01*
X162231186Y-115626579D01*
X162294360Y-115834834D01*
X162396948Y-116026764D01*
X162535009Y-116194991D01*
X162703236Y-116333052D01*
X162895166Y-116435640D01*
X163103421Y-116498814D01*
X163265731Y-116514800D01*
X163374269Y-116514800D01*
X163536579Y-116498814D01*
X163744834Y-116435640D01*
X163936764Y-116333052D01*
X164104991Y-116194991D01*
X164243052Y-116026764D01*
X164345640Y-115834834D01*
X164408814Y-115626579D01*
X164430145Y-115410000D01*
X164408814Y-115193421D01*
X164345640Y-114985166D01*
X164243052Y-114793236D01*
X164104991Y-114625009D01*
X163936764Y-114486948D01*
X163744834Y-114384360D01*
X163536579Y-114321186D01*
X163374269Y-114305200D01*
X163265731Y-114305200D01*
X163103421Y-114321186D01*
X162895166Y-114384360D01*
X162703236Y-114486948D01*
X162535009Y-114625009D01*
X162396948Y-114793236D01*
X162294360Y-114985166D01*
X162231186Y-115193421D01*
X162209855Y-115410000D01*
X156810145Y-115410000D01*
X156788814Y-115193421D01*
X156725640Y-114985166D01*
X156623052Y-114793236D01*
X156484991Y-114625009D01*
X156316764Y-114486948D01*
X156124834Y-114384360D01*
X155916579Y-114321186D01*
X155754269Y-114305200D01*
X155645731Y-114305200D01*
X155483421Y-114321186D01*
X155275166Y-114384360D01*
X155083236Y-114486948D01*
X154915009Y-114625009D01*
X154776948Y-114793236D01*
X154674360Y-114985166D01*
X154611186Y-115193421D01*
X154589855Y-115410000D01*
X154004911Y-115410000D01*
X154021267Y-115385522D01*
X154072753Y-115261224D01*
X154099000Y-115129270D01*
X154099000Y-114994730D01*
X154072753Y-114862776D01*
X154021267Y-114738478D01*
X153946521Y-114626613D01*
X153851387Y-114531479D01*
X153739522Y-114456733D01*
X153615224Y-114405247D01*
X153483270Y-114379000D01*
X153348730Y-114379000D01*
X153216776Y-114405247D01*
X153092478Y-114456733D01*
X152980613Y-114531479D01*
X152885479Y-114626613D01*
X152810733Y-114738478D01*
X152759247Y-114862776D01*
X152733000Y-114994730D01*
X150076521Y-114994730D01*
X150204414Y-114941811D01*
X150358211Y-114669716D01*
X150455969Y-114372845D01*
X150493933Y-114062607D01*
X150487666Y-113978730D01*
X156543000Y-113978730D01*
X156543000Y-114113270D01*
X156569247Y-114245224D01*
X156620733Y-114369522D01*
X156695479Y-114481387D01*
X156790613Y-114576521D01*
X156902478Y-114651267D01*
X157026776Y-114702753D01*
X157158730Y-114729000D01*
X157293270Y-114729000D01*
X157425224Y-114702753D01*
X157549522Y-114651267D01*
X157661387Y-114576521D01*
X157756521Y-114481387D01*
X157831267Y-114369522D01*
X157882753Y-114245224D01*
X157909000Y-114113270D01*
X157909000Y-113978730D01*
X157882753Y-113846776D01*
X157831267Y-113722478D01*
X157756521Y-113610613D01*
X157661387Y-113515479D01*
X157549522Y-113440733D01*
X157425224Y-113389247D01*
X157293270Y-113363000D01*
X157158730Y-113363000D01*
X157026776Y-113389247D01*
X156902478Y-113440733D01*
X156790613Y-113515479D01*
X156695479Y-113610613D01*
X156620733Y-113722478D01*
X156569247Y-113846776D01*
X156543000Y-113978730D01*
X150487666Y-113978730D01*
X150470643Y-113750923D01*
X150386994Y-113449772D01*
X150246200Y-113170727D01*
X150204414Y-113108189D01*
X149955261Y-113005095D01*
X148935355Y-114025000D01*
X148864645Y-114025000D01*
X147844739Y-113005095D01*
X147595586Y-113108189D01*
X147441789Y-113380284D01*
X147344031Y-113677155D01*
X147306067Y-113987393D01*
X135303000Y-113987393D01*
X135303000Y-113978730D01*
X135276753Y-113846776D01*
X135225267Y-113722478D01*
X135150521Y-113610613D01*
X135055387Y-113515479D01*
X134943522Y-113440733D01*
X134819224Y-113389247D01*
X134687270Y-113363000D01*
X134552730Y-113363000D01*
X134420776Y-113389247D01*
X134296478Y-113440733D01*
X134184613Y-113515479D01*
X134089479Y-113610613D01*
X134014733Y-113722478D01*
X133963247Y-113846776D01*
X133937000Y-113978730D01*
X132752235Y-113978730D01*
X132727016Y-113957189D01*
X132509898Y-113835580D01*
X132273228Y-113758665D01*
X132026100Y-113729400D01*
X131264100Y-113729400D01*
X131214100Y-113729400D01*
X130452100Y-113729400D01*
X130204972Y-113758665D01*
X129968302Y-113835580D01*
X129751184Y-113957189D01*
X129561963Y-114118819D01*
X129407910Y-114314258D01*
X129294946Y-114535996D01*
X129227680Y-114775400D01*
X126894501Y-114775400D01*
X126894501Y-104330600D01*
X127730460Y-104330600D01*
X127733901Y-104365536D01*
X127733900Y-110899674D01*
X127730460Y-110934600D01*
X127733900Y-110969526D01*
X127733900Y-110969535D01*
X127744191Y-111074019D01*
X127784858Y-111208080D01*
X127850898Y-111331632D01*
X127939773Y-111439926D01*
X127966910Y-111462197D01*
X129441507Y-112936796D01*
X129463773Y-112963927D01*
X129490904Y-112986193D01*
X129490908Y-112986197D01*
X129572066Y-113052802D01*
X129594556Y-113064823D01*
X129719109Y-113216591D01*
X129881550Y-113349903D01*
X130066878Y-113448963D01*
X130267971Y-113509964D01*
X130424698Y-113525400D01*
X132053502Y-113525400D01*
X132210229Y-113509964D01*
X132411322Y-113448963D01*
X132596650Y-113349903D01*
X132759091Y-113216591D01*
X132892403Y-113054150D01*
X132937521Y-112969739D01*
X147880095Y-112969739D01*
X148900000Y-113989645D01*
X149919905Y-112969739D01*
X149878636Y-112870000D01*
X154589855Y-112870000D01*
X154611186Y-113086579D01*
X154674360Y-113294834D01*
X154776948Y-113486764D01*
X154915009Y-113654991D01*
X155083236Y-113793052D01*
X155275166Y-113895640D01*
X155483421Y-113958814D01*
X155645731Y-113974800D01*
X155754269Y-113974800D01*
X155916579Y-113958814D01*
X156124834Y-113895640D01*
X156316764Y-113793052D01*
X156484991Y-113654991D01*
X156623052Y-113486764D01*
X156725640Y-113294834D01*
X156788814Y-113086579D01*
X156810145Y-112870000D01*
X162209855Y-112870000D01*
X162231186Y-113086579D01*
X162294360Y-113294834D01*
X162396948Y-113486764D01*
X162535009Y-113654991D01*
X162703236Y-113793052D01*
X162895166Y-113895640D01*
X163103421Y-113958814D01*
X163265731Y-113974800D01*
X163374269Y-113974800D01*
X163536579Y-113958814D01*
X163744834Y-113895640D01*
X163936764Y-113793052D01*
X164104991Y-113654991D01*
X164243052Y-113486764D01*
X164345640Y-113294834D01*
X164408814Y-113086579D01*
X164430145Y-112870000D01*
X164408814Y-112653421D01*
X164345640Y-112445166D01*
X164243052Y-112253236D01*
X164104991Y-112085009D01*
X163936764Y-111946948D01*
X163744834Y-111844360D01*
X163536579Y-111781186D01*
X163374269Y-111765200D01*
X163265731Y-111765200D01*
X163103421Y-111781186D01*
X162895166Y-111844360D01*
X162703236Y-111946948D01*
X162535009Y-112085009D01*
X162396948Y-112253236D01*
X162294360Y-112445166D01*
X162231186Y-112653421D01*
X162209855Y-112870000D01*
X156810145Y-112870000D01*
X156788814Y-112653421D01*
X156725640Y-112445166D01*
X156623052Y-112253236D01*
X156484991Y-112085009D01*
X156316764Y-111946948D01*
X156124834Y-111844360D01*
X155916579Y-111781186D01*
X155754269Y-111765200D01*
X155645731Y-111765200D01*
X155483421Y-111781186D01*
X155275166Y-111844360D01*
X155083236Y-111946948D01*
X154915009Y-112085009D01*
X154776948Y-112253236D01*
X154674360Y-112445166D01*
X154611186Y-112653421D01*
X154589855Y-112870000D01*
X149878636Y-112870000D01*
X149816811Y-112720586D01*
X149544716Y-112566789D01*
X149247845Y-112469031D01*
X148937607Y-112431067D01*
X148625923Y-112454357D01*
X148324772Y-112538006D01*
X148045727Y-112678800D01*
X147983189Y-112720586D01*
X147880095Y-112969739D01*
X132937521Y-112969739D01*
X132991463Y-112868822D01*
X133052464Y-112667729D01*
X133073061Y-112458600D01*
X133052464Y-112249471D01*
X132991463Y-112048378D01*
X132892403Y-111863050D01*
X132759091Y-111700609D01*
X132749491Y-111692730D01*
X159591000Y-111692730D01*
X159591000Y-111827270D01*
X159617247Y-111959224D01*
X159668733Y-112083522D01*
X159743479Y-112195387D01*
X159838613Y-112290521D01*
X159950478Y-112365267D01*
X160074776Y-112416753D01*
X160206730Y-112443000D01*
X160341270Y-112443000D01*
X160473224Y-112416753D01*
X160597522Y-112365267D01*
X160709387Y-112290521D01*
X160804521Y-112195387D01*
X160879267Y-112083522D01*
X160930753Y-111959224D01*
X160957000Y-111827270D01*
X160957000Y-111692730D01*
X160930753Y-111560776D01*
X160879267Y-111436478D01*
X160804521Y-111324613D01*
X160709387Y-111229479D01*
X160597522Y-111154733D01*
X160473224Y-111103247D01*
X160341270Y-111077000D01*
X160206730Y-111077000D01*
X160074776Y-111103247D01*
X159950478Y-111154733D01*
X159838613Y-111229479D01*
X159743479Y-111324613D01*
X159668733Y-111436478D01*
X159617247Y-111560776D01*
X159591000Y-111692730D01*
X132749491Y-111692730D01*
X132596650Y-111567297D01*
X132411322Y-111468237D01*
X132210229Y-111407236D01*
X132053502Y-111391800D01*
X130424698Y-111391800D01*
X130267971Y-111407236D01*
X130066878Y-111468237D01*
X130013211Y-111496923D01*
X129156300Y-110640013D01*
X129156300Y-110330000D01*
X154589855Y-110330000D01*
X154611186Y-110546579D01*
X154674360Y-110754834D01*
X154776948Y-110946764D01*
X154915009Y-111114991D01*
X155083236Y-111253052D01*
X155275166Y-111355640D01*
X155483421Y-111418814D01*
X155645731Y-111434800D01*
X155754269Y-111434800D01*
X155916579Y-111418814D01*
X156124834Y-111355640D01*
X156316764Y-111253052D01*
X156484991Y-111114991D01*
X156623052Y-110946764D01*
X156725640Y-110754834D01*
X156785001Y-110559146D01*
X162033041Y-110559146D01*
X162043315Y-110610794D01*
X162122626Y-110854468D01*
X162247952Y-111077987D01*
X162414476Y-111272761D01*
X162615799Y-111431305D01*
X162844184Y-111547527D01*
X163090854Y-111616960D01*
X163295000Y-111510162D01*
X163295000Y-110355000D01*
X163345000Y-110355000D01*
X163345000Y-111510162D01*
X163549146Y-111616960D01*
X163795816Y-111547527D01*
X164024201Y-111431305D01*
X164225524Y-111272761D01*
X164392048Y-111077987D01*
X164517374Y-110854468D01*
X164596685Y-110610794D01*
X164606959Y-110559146D01*
X164500135Y-110355000D01*
X163345000Y-110355000D01*
X163295000Y-110355000D01*
X162139865Y-110355000D01*
X162033041Y-110559146D01*
X156785001Y-110559146D01*
X156788814Y-110546579D01*
X156810145Y-110330000D01*
X156788814Y-110113421D01*
X156785002Y-110100854D01*
X162033041Y-110100854D01*
X162139865Y-110305000D01*
X163295000Y-110305000D01*
X163295000Y-109149838D01*
X163345000Y-109149838D01*
X163345000Y-110305000D01*
X164500135Y-110305000D01*
X164606959Y-110100854D01*
X164596685Y-110049206D01*
X164517374Y-109805532D01*
X164392048Y-109582013D01*
X164225524Y-109387239D01*
X164024201Y-109228695D01*
X163795816Y-109112473D01*
X163549146Y-109043040D01*
X163345000Y-109149838D01*
X163295000Y-109149838D01*
X163090854Y-109043040D01*
X162844184Y-109112473D01*
X162615799Y-109228695D01*
X162414476Y-109387239D01*
X162247952Y-109582013D01*
X162122626Y-109805532D01*
X162043315Y-110049206D01*
X162033041Y-110100854D01*
X156785002Y-110100854D01*
X156725640Y-109905166D01*
X156623052Y-109713236D01*
X156484991Y-109545009D01*
X156316764Y-109406948D01*
X156124834Y-109304360D01*
X155916579Y-109241186D01*
X155754269Y-109225200D01*
X155645731Y-109225200D01*
X155483421Y-109241186D01*
X155275166Y-109304360D01*
X155083236Y-109406948D01*
X154915009Y-109545009D01*
X154776948Y-109713236D01*
X154674360Y-109905166D01*
X154611186Y-110113421D01*
X154589855Y-110330000D01*
X129156300Y-110330000D01*
X129156300Y-108109800D01*
X129227680Y-108109800D01*
X129294946Y-108349204D01*
X129407910Y-108570942D01*
X129561963Y-108766381D01*
X129751184Y-108928011D01*
X129968302Y-109049620D01*
X130204972Y-109126535D01*
X130452100Y-109155800D01*
X131214100Y-109155800D01*
X131214100Y-107911600D01*
X131264100Y-107911600D01*
X131264100Y-109155800D01*
X132026100Y-109155800D01*
X132273228Y-109126535D01*
X132509898Y-109049620D01*
X132727016Y-108928011D01*
X132916237Y-108766381D01*
X133070290Y-108570942D01*
X133183254Y-108349204D01*
X133250520Y-108109800D01*
X133143226Y-107911600D01*
X131264100Y-107911600D01*
X131214100Y-107911600D01*
X129334974Y-107911600D01*
X129227680Y-108109800D01*
X129156300Y-108109800D01*
X129156300Y-107663400D01*
X129227680Y-107663400D01*
X129334974Y-107861600D01*
X131214100Y-107861600D01*
X131214100Y-106617400D01*
X131264100Y-106617400D01*
X131264100Y-107861600D01*
X133143226Y-107861600D01*
X133181986Y-107790000D01*
X154589855Y-107790000D01*
X154611186Y-108006579D01*
X154674360Y-108214834D01*
X154776948Y-108406764D01*
X154915009Y-108574991D01*
X155083236Y-108713052D01*
X155275166Y-108815640D01*
X155483421Y-108878814D01*
X155645731Y-108894800D01*
X155754269Y-108894800D01*
X155916579Y-108878814D01*
X156124834Y-108815640D01*
X156316764Y-108713052D01*
X156484991Y-108574991D01*
X156623052Y-108406764D01*
X156725640Y-108214834D01*
X156788814Y-108006579D01*
X156810145Y-107790000D01*
X162209855Y-107790000D01*
X162231186Y-108006579D01*
X162294360Y-108214834D01*
X162396948Y-108406764D01*
X162535009Y-108574991D01*
X162703236Y-108713052D01*
X162895166Y-108815640D01*
X163103421Y-108878814D01*
X163265731Y-108894800D01*
X163374269Y-108894800D01*
X163536579Y-108878814D01*
X163744834Y-108815640D01*
X163936764Y-108713052D01*
X164104991Y-108574991D01*
X164243052Y-108406764D01*
X164345640Y-108214834D01*
X164408814Y-108006579D01*
X164430145Y-107790000D01*
X164408814Y-107573421D01*
X164345640Y-107365166D01*
X164243052Y-107173236D01*
X164104991Y-107005009D01*
X163936764Y-106866948D01*
X163744834Y-106764360D01*
X163536579Y-106701186D01*
X163374269Y-106685200D01*
X163265731Y-106685200D01*
X163103421Y-106701186D01*
X162895166Y-106764360D01*
X162703236Y-106866948D01*
X162535009Y-107005009D01*
X162396948Y-107173236D01*
X162294360Y-107365166D01*
X162231186Y-107573421D01*
X162209855Y-107790000D01*
X156810145Y-107790000D01*
X156788814Y-107573421D01*
X156725640Y-107365166D01*
X156623052Y-107173236D01*
X156484991Y-107005009D01*
X156316764Y-106866948D01*
X156124834Y-106764360D01*
X155916579Y-106701186D01*
X155754269Y-106685200D01*
X155645731Y-106685200D01*
X155483421Y-106701186D01*
X155275166Y-106764360D01*
X155083236Y-106866948D01*
X154915009Y-107005009D01*
X154776948Y-107173236D01*
X154674360Y-107365166D01*
X154611186Y-107573421D01*
X154589855Y-107790000D01*
X133181986Y-107790000D01*
X133250520Y-107663400D01*
X133183254Y-107423996D01*
X133070290Y-107202258D01*
X132916237Y-107006819D01*
X132727016Y-106845189D01*
X132509898Y-106723580D01*
X132273228Y-106646665D01*
X132026100Y-106617400D01*
X131264100Y-106617400D01*
X131214100Y-106617400D01*
X130452100Y-106617400D01*
X130204972Y-106646665D01*
X129968302Y-106723580D01*
X129751184Y-106845189D01*
X129561963Y-107006819D01*
X129407910Y-107202258D01*
X129294946Y-107423996D01*
X129227680Y-107663400D01*
X129156300Y-107663400D01*
X129156300Y-105346600D01*
X129405139Y-105346600D01*
X129425736Y-105555729D01*
X129486737Y-105756822D01*
X129585797Y-105942150D01*
X129719109Y-106104591D01*
X129881550Y-106237903D01*
X130066878Y-106336963D01*
X130267971Y-106397964D01*
X130424698Y-106413400D01*
X132053502Y-106413400D01*
X132210229Y-106397964D01*
X132411322Y-106336963D01*
X132596650Y-106237903D01*
X132759091Y-106104591D01*
X132892403Y-105942150D01*
X132991463Y-105756822D01*
X133052464Y-105555729D01*
X133073061Y-105346600D01*
X133052464Y-105137471D01*
X132991463Y-104936378D01*
X132892403Y-104751050D01*
X132759091Y-104588609D01*
X132596650Y-104455297D01*
X132586741Y-104450000D01*
X154593726Y-104450000D01*
X154593726Y-106050000D01*
X154599611Y-106109751D01*
X154617040Y-106167206D01*
X154645342Y-106220157D01*
X154683432Y-106266568D01*
X154729843Y-106304658D01*
X154782794Y-106332960D01*
X154840249Y-106350389D01*
X154900000Y-106356274D01*
X156500000Y-106356274D01*
X156559751Y-106350389D01*
X156617206Y-106332960D01*
X156647137Y-106316962D01*
X156620733Y-106356478D01*
X156569247Y-106480776D01*
X156543000Y-106612730D01*
X156543000Y-106747270D01*
X156569247Y-106879224D01*
X156620733Y-107003522D01*
X156695479Y-107115387D01*
X156790613Y-107210521D01*
X156902478Y-107285267D01*
X157026776Y-107336753D01*
X157158730Y-107363000D01*
X157293270Y-107363000D01*
X157425224Y-107336753D01*
X157549522Y-107285267D01*
X157661387Y-107210521D01*
X157756521Y-107115387D01*
X157831267Y-107003522D01*
X157882753Y-106879224D01*
X157885238Y-106866730D01*
X159591000Y-106866730D01*
X159591000Y-107001270D01*
X159617247Y-107133224D01*
X159668733Y-107257522D01*
X159743479Y-107369387D01*
X159838613Y-107464521D01*
X159950478Y-107539267D01*
X160074776Y-107590753D01*
X160206730Y-107617000D01*
X160341270Y-107617000D01*
X160473224Y-107590753D01*
X160597522Y-107539267D01*
X160709387Y-107464521D01*
X160804521Y-107369387D01*
X160879267Y-107257522D01*
X160930753Y-107133224D01*
X160957000Y-107001270D01*
X160957000Y-106866730D01*
X160930753Y-106734776D01*
X160879267Y-106610478D01*
X160804521Y-106498613D01*
X160709387Y-106403479D01*
X160597522Y-106328733D01*
X160473224Y-106277247D01*
X160341270Y-106251000D01*
X160206730Y-106251000D01*
X160074776Y-106277247D01*
X159950478Y-106328733D01*
X159838613Y-106403479D01*
X159743479Y-106498613D01*
X159668733Y-106610478D01*
X159617247Y-106734776D01*
X159591000Y-106866730D01*
X157885238Y-106866730D01*
X157909000Y-106747270D01*
X157909000Y-106612730D01*
X157882753Y-106480776D01*
X157831267Y-106356478D01*
X157756521Y-106244613D01*
X157661387Y-106149479D01*
X157549522Y-106074733D01*
X157425224Y-106023247D01*
X157293270Y-105997000D01*
X157158730Y-105997000D01*
X157026776Y-106023247D01*
X156902478Y-106074733D01*
X156790613Y-106149479D01*
X156787347Y-106152745D01*
X156800389Y-106109751D01*
X156806274Y-106050000D01*
X156806274Y-104450000D01*
X156800389Y-104390249D01*
X156782960Y-104332794D01*
X156754658Y-104279843D01*
X156716568Y-104233432D01*
X156670157Y-104195342D01*
X156617206Y-104167040D01*
X156559751Y-104149611D01*
X156500000Y-104143726D01*
X154900000Y-104143726D01*
X154840249Y-104149611D01*
X154782794Y-104167040D01*
X154729843Y-104195342D01*
X154683432Y-104233432D01*
X154645342Y-104279843D01*
X154617040Y-104332794D01*
X154599611Y-104390249D01*
X154593726Y-104450000D01*
X132586741Y-104450000D01*
X132411322Y-104356237D01*
X132210229Y-104295236D01*
X132053502Y-104279800D01*
X130424698Y-104279800D01*
X130267971Y-104295236D01*
X130066878Y-104356237D01*
X129881550Y-104455297D01*
X129719109Y-104588609D01*
X129585797Y-104751050D01*
X129486737Y-104936378D01*
X129425736Y-105137471D01*
X129405139Y-105346600D01*
X129156300Y-105346600D01*
X129156300Y-104625187D01*
X130368888Y-103412600D01*
X158647446Y-103412600D01*
X158657239Y-103512029D01*
X158686241Y-103607636D01*
X158733338Y-103695749D01*
X158796720Y-103772980D01*
X158873951Y-103836362D01*
X158962064Y-103883459D01*
X159057671Y-103912461D01*
X159157100Y-103922254D01*
X159655300Y-103919800D01*
X159782100Y-103793000D01*
X159782100Y-102787600D01*
X159832100Y-102787600D01*
X159832100Y-103793000D01*
X159958900Y-103919800D01*
X160457100Y-103922254D01*
X160556529Y-103912461D01*
X160652136Y-103883459D01*
X160740249Y-103836362D01*
X160817480Y-103772980D01*
X160880862Y-103695749D01*
X160927959Y-103607636D01*
X160956961Y-103512029D01*
X160966754Y-103412600D01*
X160964300Y-102914400D01*
X160837500Y-102787600D01*
X159832100Y-102787600D01*
X159782100Y-102787600D01*
X158776700Y-102787600D01*
X158649900Y-102914400D01*
X158647446Y-103412600D01*
X130368888Y-103412600D01*
X131279689Y-102501800D01*
X155080174Y-102501800D01*
X155115100Y-102505240D01*
X155150026Y-102501800D01*
X155150036Y-102501800D01*
X155254520Y-102491509D01*
X155388581Y-102450842D01*
X155512133Y-102384802D01*
X155620427Y-102295927D01*
X155642702Y-102268785D01*
X155798887Y-102112600D01*
X158647446Y-102112600D01*
X158649900Y-102610800D01*
X158776700Y-102737600D01*
X159782100Y-102737600D01*
X159782100Y-101732200D01*
X159832100Y-101732200D01*
X159832100Y-102737600D01*
X160837500Y-102737600D01*
X160964300Y-102610800D01*
X160966754Y-102112600D01*
X160956961Y-102013171D01*
X160927959Y-101917564D01*
X160880862Y-101829451D01*
X160817480Y-101752220D01*
X160740249Y-101688838D01*
X160652136Y-101641741D01*
X160556529Y-101612739D01*
X160457100Y-101602946D01*
X159958900Y-101605400D01*
X159832100Y-101732200D01*
X159782100Y-101732200D01*
X159655300Y-101605400D01*
X159157100Y-101602946D01*
X159057671Y-101612739D01*
X158962064Y-101641741D01*
X158873951Y-101688838D01*
X158796720Y-101752220D01*
X158733338Y-101829451D01*
X158686241Y-101917564D01*
X158657239Y-102013171D01*
X158647446Y-102112600D01*
X155798887Y-102112600D01*
X157625210Y-100286279D01*
X157652341Y-100264013D01*
X157674607Y-100236882D01*
X157674611Y-100236878D01*
X157741216Y-100155719D01*
X157774644Y-100093179D01*
X157807256Y-100032167D01*
X157847923Y-99898106D01*
X157858214Y-99793622D01*
X157858214Y-99793613D01*
X157861654Y-99758687D01*
X157858214Y-99723761D01*
X157858214Y-93449273D01*
X159282826Y-92024662D01*
X159282826Y-93569086D01*
X158525810Y-94326103D01*
X158498673Y-94348374D01*
X158409798Y-94456668D01*
X158343758Y-94580220D01*
X158303091Y-94714281D01*
X158292800Y-94818765D01*
X158292800Y-94818774D01*
X158289360Y-94853700D01*
X158292800Y-94888626D01*
X158292801Y-99533064D01*
X158289360Y-99568000D01*
X158292801Y-99602936D01*
X158303092Y-99707420D01*
X158329241Y-99793622D01*
X158343759Y-99841481D01*
X158409798Y-99965032D01*
X158476403Y-100046190D01*
X158498674Y-100073327D01*
X158525810Y-100095597D01*
X159595784Y-101165572D01*
X159618054Y-101192708D01*
X159645190Y-101214978D01*
X159726348Y-101281583D01*
X159849899Y-101347623D01*
X159918791Y-101368521D01*
X159983961Y-101388290D01*
X160088445Y-101398581D01*
X160088452Y-101398581D01*
X160123381Y-101402021D01*
X160158309Y-101398581D01*
X161547546Y-101398581D01*
X161652030Y-101388290D01*
X161786091Y-101347623D01*
X161909643Y-101281583D01*
X162017937Y-101192708D01*
X162106812Y-101084414D01*
X162172852Y-100960862D01*
X162213519Y-100826801D01*
X162227251Y-100687381D01*
X162213519Y-100547961D01*
X162184496Y-100452284D01*
X162477007Y-100744796D01*
X162499273Y-100771927D01*
X162526404Y-100794193D01*
X162526408Y-100794197D01*
X162607567Y-100860802D01*
X162731119Y-100926842D01*
X162865180Y-100967509D01*
X162969664Y-100977800D01*
X162969673Y-100977800D01*
X163004599Y-100981240D01*
X163039525Y-100977800D01*
X163577425Y-100977800D01*
X163691844Y-101149040D01*
X163884660Y-101341856D01*
X164111388Y-101493351D01*
X164363315Y-101597702D01*
X164630758Y-101650900D01*
X164903442Y-101650900D01*
X165170885Y-101597702D01*
X165422812Y-101493351D01*
X165649540Y-101341856D01*
X165842356Y-101149040D01*
X165993851Y-100922312D01*
X166098202Y-100670385D01*
X166151400Y-100402942D01*
X166151400Y-100130258D01*
X166098202Y-99862815D01*
X165993851Y-99610888D01*
X165842356Y-99384160D01*
X165649540Y-99191344D01*
X165422812Y-99039849D01*
X165170885Y-98935498D01*
X164903442Y-98882300D01*
X164630758Y-98882300D01*
X164363315Y-98935498D01*
X164111388Y-99039849D01*
X163884660Y-99191344D01*
X163691844Y-99384160D01*
X163577425Y-99555400D01*
X163299189Y-99555400D01*
X161962163Y-98218375D01*
X162016851Y-98212989D01*
X162074306Y-98195560D01*
X162127257Y-98167258D01*
X162173668Y-98129168D01*
X162211758Y-98082757D01*
X162240060Y-98029806D01*
X162257489Y-97972351D01*
X162263374Y-97912600D01*
X162263374Y-96612600D01*
X162257489Y-96552849D01*
X162240060Y-96495394D01*
X162211758Y-96442443D01*
X162173668Y-96396032D01*
X162127257Y-96357942D01*
X162074306Y-96329640D01*
X162016851Y-96312211D01*
X161957100Y-96306326D01*
X159957100Y-96306326D01*
X159897349Y-96312211D01*
X159839894Y-96329640D01*
X159786943Y-96357942D01*
X159740532Y-96396032D01*
X159715200Y-96426898D01*
X159715200Y-95148287D01*
X160162887Y-94700600D01*
X164579446Y-94700600D01*
X164589239Y-94800029D01*
X164618241Y-94895636D01*
X164665338Y-94983749D01*
X164728720Y-95060980D01*
X164805951Y-95124362D01*
X164894064Y-95171459D01*
X164989671Y-95200461D01*
X165089100Y-95210254D01*
X165587300Y-95207800D01*
X165714100Y-95081000D01*
X165714100Y-94075600D01*
X164708700Y-94075600D01*
X164581900Y-94202400D01*
X164579446Y-94700600D01*
X160162887Y-94700600D01*
X160656614Y-94206874D01*
X160889100Y-94206874D01*
X160948851Y-94200989D01*
X161006306Y-94183560D01*
X161059257Y-94155258D01*
X161105668Y-94117168D01*
X161143758Y-94070757D01*
X161172060Y-94017806D01*
X161189489Y-93960351D01*
X161195374Y-93900600D01*
X161195374Y-93400600D01*
X164579446Y-93400600D01*
X164581900Y-93898800D01*
X164708700Y-94025600D01*
X165714100Y-94025600D01*
X165714100Y-93020200D01*
X165587300Y-92893400D01*
X165089100Y-92890946D01*
X164989671Y-92900739D01*
X164894064Y-92929741D01*
X164805951Y-92976838D01*
X164728720Y-93040220D01*
X164665338Y-93117451D01*
X164618241Y-93205564D01*
X164589239Y-93301171D01*
X164579446Y-93400600D01*
X161195374Y-93400600D01*
X161195374Y-92950113D01*
X163721301Y-90424188D01*
X163748426Y-90401927D01*
X163770688Y-90374801D01*
X163770698Y-90374791D01*
X163837302Y-90293633D01*
X163903342Y-90170082D01*
X163944009Y-90036020D01*
X163949157Y-89983750D01*
X163954300Y-89931536D01*
X163954300Y-89931529D01*
X163957740Y-89896600D01*
X163954300Y-89861672D01*
X163954300Y-89264275D01*
X164125540Y-89149856D01*
X164318356Y-88957040D01*
X164469851Y-88730312D01*
X164574202Y-88478385D01*
X164627400Y-88210942D01*
X164627400Y-87938258D01*
X164574202Y-87670815D01*
X164469851Y-87418888D01*
X164318356Y-87192160D01*
X164125540Y-86999344D01*
X163898812Y-86847849D01*
X163646885Y-86743498D01*
X163379442Y-86690300D01*
X163106758Y-86690300D01*
X162839315Y-86743498D01*
X162587388Y-86847849D01*
X162360660Y-86999344D01*
X162167844Y-87192160D01*
X162016349Y-87418888D01*
X161911998Y-87670815D01*
X161858800Y-87938258D01*
X161858800Y-88210942D01*
X161911998Y-88478385D01*
X162016349Y-88730312D01*
X162167844Y-88957040D01*
X162360660Y-89149856D01*
X162531900Y-89264275D01*
X162531900Y-89602011D01*
X160539586Y-91594326D01*
X159713162Y-91594326D01*
X159960697Y-91346791D01*
X160027302Y-91265633D01*
X160093341Y-91142082D01*
X160134009Y-91008020D01*
X160147740Y-90868600D01*
X160134009Y-90729181D01*
X160093341Y-90595119D01*
X160027302Y-90471568D01*
X159938427Y-90363273D01*
X159830132Y-90274398D01*
X159706581Y-90208359D01*
X159572519Y-90167691D01*
X159433100Y-90153960D01*
X159293680Y-90167691D01*
X159159618Y-90208359D01*
X159036067Y-90274398D01*
X158954909Y-90341003D01*
X156668825Y-92627088D01*
X156641687Y-92649360D01*
X156552812Y-92757654D01*
X156486772Y-92881206D01*
X156446105Y-93015267D01*
X156435814Y-93119751D01*
X156435814Y-93119760D01*
X156432374Y-93154686D01*
X156435814Y-93189612D01*
X156435814Y-95779902D01*
X156391391Y-95735479D01*
X156279526Y-95660733D01*
X156155228Y-95609247D01*
X156023274Y-95583000D01*
X155888734Y-95583000D01*
X155756780Y-95609247D01*
X155632482Y-95660733D01*
X155535813Y-95725325D01*
X155565342Y-95670081D01*
X155606009Y-95536020D01*
X155616300Y-95431536D01*
X155616300Y-90128600D01*
X156451446Y-90128600D01*
X156461239Y-90228029D01*
X156490241Y-90323636D01*
X156537338Y-90411749D01*
X156600720Y-90488980D01*
X156677951Y-90552362D01*
X156766064Y-90599459D01*
X156861671Y-90628461D01*
X156961100Y-90638254D01*
X157459300Y-90635800D01*
X157586100Y-90509000D01*
X157586100Y-89503600D01*
X157636100Y-89503600D01*
X157636100Y-90509000D01*
X157762900Y-90635800D01*
X158261100Y-90638254D01*
X158360529Y-90628461D01*
X158456136Y-90599459D01*
X158544249Y-90552362D01*
X158621480Y-90488980D01*
X158684862Y-90411749D01*
X158731959Y-90323636D01*
X158760961Y-90228029D01*
X158770754Y-90128600D01*
X158768300Y-89630400D01*
X158641500Y-89503600D01*
X157636100Y-89503600D01*
X157586100Y-89503600D01*
X156580700Y-89503600D01*
X156453900Y-89630400D01*
X156451446Y-90128600D01*
X155616300Y-90128600D01*
X155616300Y-89887517D01*
X155619739Y-89852599D01*
X155616300Y-89817681D01*
X155616300Y-89817664D01*
X155606009Y-89713180D01*
X155565342Y-89579119D01*
X155522388Y-89498757D01*
X155499302Y-89455566D01*
X155432697Y-89374408D01*
X155432688Y-89374399D01*
X155410426Y-89347273D01*
X155383301Y-89325012D01*
X154886889Y-88828600D01*
X156451446Y-88828600D01*
X156453900Y-89326800D01*
X156580700Y-89453600D01*
X157586100Y-89453600D01*
X157586100Y-88448200D01*
X157636100Y-88448200D01*
X157636100Y-89453600D01*
X158641500Y-89453600D01*
X158768300Y-89326800D01*
X158770754Y-88828600D01*
X158760961Y-88729171D01*
X158731959Y-88633564D01*
X158684862Y-88545451D01*
X158621480Y-88468220D01*
X158544249Y-88404838D01*
X158456136Y-88357741D01*
X158360529Y-88328739D01*
X158261100Y-88318946D01*
X157762900Y-88321400D01*
X157636100Y-88448200D01*
X157586100Y-88448200D01*
X157459300Y-88321400D01*
X156961100Y-88318946D01*
X156861671Y-88328739D01*
X156766064Y-88357741D01*
X156677951Y-88404838D01*
X156600720Y-88468220D01*
X156537338Y-88545451D01*
X156490241Y-88633564D01*
X156461239Y-88729171D01*
X156451446Y-88828600D01*
X154886889Y-88828600D01*
X153908702Y-87850414D01*
X153886427Y-87823273D01*
X153778133Y-87734398D01*
X153654581Y-87668358D01*
X153520520Y-87627691D01*
X153416036Y-87617400D01*
X153416026Y-87617400D01*
X153381100Y-87613960D01*
X153346174Y-87617400D01*
X153067374Y-87617400D01*
X153067374Y-87328600D01*
X153061489Y-87268849D01*
X153044060Y-87211394D01*
X153015758Y-87158443D01*
X152977668Y-87112032D01*
X152931257Y-87073942D01*
X152878306Y-87045640D01*
X152820851Y-87028211D01*
X152761100Y-87022326D01*
X151461100Y-87022326D01*
X151401349Y-87028211D01*
X151343894Y-87045640D01*
X151290943Y-87073942D01*
X151244532Y-87112032D01*
X151206442Y-87158443D01*
X151178140Y-87211394D01*
X151160711Y-87268849D01*
X151154826Y-87328600D01*
X151154826Y-87617400D01*
X149120101Y-87617400D01*
X149080202Y-87416815D01*
X148975851Y-87164888D01*
X148824356Y-86938160D01*
X148631540Y-86745344D01*
X148404812Y-86593849D01*
X148152885Y-86489498D01*
X147885442Y-86436300D01*
X147612758Y-86436300D01*
X147345315Y-86489498D01*
X147093388Y-86593849D01*
X146866660Y-86745344D01*
X146673844Y-86938160D01*
X146522349Y-87164888D01*
X146417998Y-87416815D01*
X146364800Y-87684258D01*
X146364800Y-87956942D01*
X146417998Y-88224385D01*
X146522349Y-88476312D01*
X146673844Y-88703040D01*
X146866660Y-88895856D01*
X147093388Y-89047351D01*
X147345315Y-89151702D01*
X147612758Y-89204900D01*
X147885442Y-89204900D01*
X148152885Y-89151702D01*
X148404812Y-89047351D01*
X148416113Y-89039800D01*
X151154826Y-89039800D01*
X151154826Y-89328600D01*
X151160711Y-89388351D01*
X151178140Y-89445806D01*
X151206442Y-89498757D01*
X151244532Y-89545168D01*
X151290943Y-89583258D01*
X151343894Y-89611560D01*
X151401349Y-89628989D01*
X151461100Y-89634874D01*
X152761100Y-89634874D01*
X152820851Y-89628989D01*
X152878306Y-89611560D01*
X152931257Y-89583258D01*
X152977668Y-89545168D01*
X153015758Y-89498757D01*
X153044060Y-89445806D01*
X153061489Y-89388351D01*
X153067374Y-89328600D01*
X153067374Y-89039800D01*
X153086513Y-89039800D01*
X154193900Y-90147189D01*
X154193901Y-92827387D01*
X154121621Y-92719213D01*
X154026487Y-92624079D01*
X153914622Y-92549333D01*
X153790324Y-92497847D01*
X153658370Y-92471600D01*
X153523830Y-92471600D01*
X153391876Y-92497847D01*
X153267578Y-92549333D01*
X153155713Y-92624079D01*
X153133192Y-92646600D01*
X133008206Y-92646600D01*
X132850650Y-92517297D01*
X132665322Y-92418237D01*
X132464229Y-92357236D01*
X132307502Y-92341800D01*
X130678698Y-92341800D01*
X130521971Y-92357236D01*
X130320878Y-92418237D01*
X130135550Y-92517297D01*
X129973109Y-92650609D01*
X129839797Y-92813050D01*
X129740737Y-92998378D01*
X129679736Y-93199471D01*
X129659139Y-93408600D01*
X129679736Y-93617729D01*
X129740737Y-93818822D01*
X129839797Y-94004150D01*
X129973109Y-94166591D01*
X130135550Y-94299903D01*
X130320878Y-94398963D01*
X130521971Y-94459964D01*
X130678698Y-94475400D01*
X132307502Y-94475400D01*
X132464229Y-94459964D01*
X132665322Y-94398963D01*
X132850650Y-94299903D01*
X133013091Y-94166591D01*
X133146403Y-94004150D01*
X133245463Y-93818822D01*
X133292853Y-93662600D01*
X141101801Y-93662600D01*
X140997388Y-93705849D01*
X140770660Y-93857344D01*
X140577844Y-94050160D01*
X140426349Y-94276888D01*
X140321998Y-94528815D01*
X140268800Y-94796258D01*
X140268800Y-95068942D01*
X140321998Y-95336385D01*
X140426349Y-95588312D01*
X140577844Y-95815040D01*
X140770660Y-96007856D01*
X140997388Y-96159351D01*
X141249315Y-96263702D01*
X141516758Y-96316900D01*
X141789442Y-96316900D01*
X141991433Y-96276721D01*
X142097507Y-96382796D01*
X142119773Y-96409927D01*
X142146904Y-96432193D01*
X142146909Y-96432198D01*
X142228067Y-96498802D01*
X142351618Y-96564842D01*
X142485680Y-96605509D01*
X142590164Y-96615800D01*
X142590171Y-96615800D01*
X142625100Y-96619240D01*
X142660028Y-96615800D01*
X145941151Y-96615800D01*
X145958140Y-96671806D01*
X145986442Y-96724757D01*
X146024532Y-96771168D01*
X146070943Y-96809258D01*
X146123894Y-96837560D01*
X146181349Y-96854989D01*
X146241100Y-96860874D01*
X148241100Y-96860874D01*
X148300851Y-96854989D01*
X148358306Y-96837560D01*
X148411257Y-96809258D01*
X148457668Y-96771168D01*
X148495758Y-96724757D01*
X148524060Y-96671806D01*
X148541049Y-96615800D01*
X150458513Y-96615800D01*
X151080909Y-97238197D01*
X151162067Y-97304802D01*
X151285618Y-97370841D01*
X151419680Y-97411508D01*
X151559099Y-97425240D01*
X151698519Y-97411508D01*
X151832581Y-97370841D01*
X151956132Y-97304802D01*
X152064427Y-97215927D01*
X152153302Y-97107632D01*
X152219341Y-96984081D01*
X152260008Y-96850019D01*
X152273740Y-96710599D01*
X152260008Y-96571180D01*
X152219341Y-96437118D01*
X152153302Y-96313567D01*
X152086697Y-96232409D01*
X151280702Y-95426414D01*
X151258427Y-95399273D01*
X151150133Y-95310398D01*
X151026581Y-95244358D01*
X150892520Y-95203691D01*
X150788036Y-95193400D01*
X150788026Y-95193400D01*
X150753100Y-95189960D01*
X150718174Y-95193400D01*
X148541049Y-95193400D01*
X148524060Y-95137394D01*
X148495758Y-95084443D01*
X148457668Y-95038032D01*
X148411257Y-94999942D01*
X148358306Y-94971640D01*
X148300851Y-94954211D01*
X148241100Y-94948326D01*
X146241100Y-94948326D01*
X146181349Y-94954211D01*
X146123894Y-94971640D01*
X146070943Y-94999942D01*
X146024532Y-95038032D01*
X145986442Y-95084443D01*
X145958140Y-95137394D01*
X145941151Y-95193400D01*
X143012644Y-95193400D01*
X143037400Y-95068942D01*
X143037400Y-94796258D01*
X142984202Y-94528815D01*
X142879851Y-94276888D01*
X142728356Y-94050160D01*
X142535540Y-93857344D01*
X142308812Y-93705849D01*
X142204399Y-93662600D01*
X153133192Y-93662600D01*
X153155713Y-93685121D01*
X153267578Y-93759867D01*
X153391876Y-93811353D01*
X153481333Y-93829147D01*
X153470776Y-93831247D01*
X153346478Y-93882733D01*
X153234613Y-93957479D01*
X153139479Y-94052613D01*
X153064733Y-94164478D01*
X153013247Y-94288776D01*
X152987000Y-94420730D01*
X152987000Y-94555270D01*
X153013247Y-94687224D01*
X153064733Y-94811522D01*
X153139479Y-94923387D01*
X153234613Y-95018521D01*
X153346478Y-95093267D01*
X153470776Y-95144753D01*
X153602730Y-95171000D01*
X153737270Y-95171000D01*
X153869224Y-95144753D01*
X153993522Y-95093267D01*
X154105387Y-95018521D01*
X154193901Y-94930007D01*
X154193901Y-95431536D01*
X154204192Y-95536020D01*
X154244859Y-95670081D01*
X154310899Y-95793633D01*
X154399774Y-95901927D01*
X154508068Y-95990802D01*
X154631620Y-96056842D01*
X154765681Y-96097509D01*
X154905100Y-96111241D01*
X155044520Y-96097509D01*
X155178581Y-96056842D01*
X155302133Y-95990802D01*
X155345443Y-95955258D01*
X155299251Y-96066776D01*
X155273004Y-96198730D01*
X155273004Y-96230580D01*
X155236239Y-96267345D01*
X155236234Y-96267349D01*
X152307266Y-99196318D01*
X152321000Y-99127270D01*
X152321000Y-98992730D01*
X152294753Y-98860776D01*
X152243267Y-98736478D01*
X152168521Y-98624613D01*
X152073387Y-98529479D01*
X151961522Y-98454733D01*
X151837224Y-98403247D01*
X151705270Y-98377000D01*
X151570730Y-98377000D01*
X151438776Y-98403247D01*
X151314478Y-98454733D01*
X151202613Y-98529479D01*
X151107479Y-98624613D01*
X151032733Y-98736478D01*
X150981247Y-98860776D01*
X150955000Y-98992730D01*
X150955000Y-99127270D01*
X150981247Y-99259224D01*
X151032733Y-99383522D01*
X151107479Y-99495387D01*
X151116692Y-99504600D01*
X138053520Y-99504600D01*
X134155955Y-95607035D01*
X134140048Y-95587652D01*
X134062695Y-95524171D01*
X133974443Y-95476999D01*
X133878685Y-95447951D01*
X133804047Y-95440600D01*
X133804044Y-95440600D01*
X133779100Y-95438143D01*
X133754156Y-95440600D01*
X133193200Y-95440600D01*
X133146403Y-95353050D01*
X133013091Y-95190609D01*
X132850650Y-95057297D01*
X132665322Y-94958237D01*
X132464229Y-94897236D01*
X132307502Y-94881800D01*
X130678698Y-94881800D01*
X130521971Y-94897236D01*
X130320878Y-94958237D01*
X130135550Y-95057297D01*
X129973109Y-95190609D01*
X129839797Y-95353050D01*
X129740737Y-95538378D01*
X129679736Y-95739471D01*
X129659139Y-95948600D01*
X129679736Y-96157729D01*
X129740737Y-96358822D01*
X129839797Y-96544150D01*
X129973109Y-96706591D01*
X130135550Y-96839903D01*
X130320878Y-96938963D01*
X130521971Y-96999964D01*
X130678698Y-97015400D01*
X132307502Y-97015400D01*
X132464229Y-96999964D01*
X132665322Y-96938963D01*
X132850650Y-96839903D01*
X133013091Y-96706591D01*
X133146403Y-96544150D01*
X133193200Y-96456600D01*
X133568680Y-96456600D01*
X137466245Y-100354165D01*
X137482152Y-100373548D01*
X137521719Y-100406019D01*
X137559504Y-100437029D01*
X137601723Y-100459595D01*
X137647757Y-100484201D01*
X137743515Y-100513249D01*
X137818153Y-100520600D01*
X137818156Y-100520600D01*
X137843100Y-100523057D01*
X137868044Y-100520600D01*
X151538197Y-100520600D01*
X151489247Y-100638776D01*
X151463000Y-100770730D01*
X151463000Y-100905270D01*
X151489247Y-101037224D01*
X151506717Y-101079400D01*
X131020017Y-101079400D01*
X130985099Y-101075961D01*
X130950181Y-101079400D01*
X130950164Y-101079400D01*
X130845680Y-101089691D01*
X130711619Y-101130358D01*
X130588067Y-101196398D01*
X130506908Y-101263003D01*
X130506904Y-101263007D01*
X130479773Y-101285273D01*
X130457507Y-101312404D01*
X127966910Y-103803003D01*
X127939774Y-103825273D01*
X127850899Y-103933567D01*
X127784859Y-104057119D01*
X127744192Y-104191180D01*
X127735464Y-104279800D01*
X127730460Y-104330600D01*
X126894501Y-104330600D01*
X126894501Y-90868600D01*
X129659139Y-90868600D01*
X129679736Y-91077729D01*
X129740737Y-91278822D01*
X129839797Y-91464150D01*
X129973109Y-91626591D01*
X130135550Y-91759903D01*
X130320878Y-91858963D01*
X130521971Y-91919964D01*
X130678698Y-91935400D01*
X132307502Y-91935400D01*
X132464229Y-91919964D01*
X132665322Y-91858963D01*
X132850650Y-91759903D01*
X133013091Y-91626591D01*
X133146403Y-91464150D01*
X133193200Y-91376600D01*
X133754156Y-91376600D01*
X133779100Y-91379057D01*
X133804044Y-91376600D01*
X133804047Y-91376600D01*
X133878685Y-91369249D01*
X133974443Y-91340201D01*
X134062695Y-91293029D01*
X134140048Y-91229548D01*
X134155955Y-91210166D01*
X134497521Y-90868600D01*
X138834156Y-90868600D01*
X138859100Y-90871057D01*
X138884044Y-90868600D01*
X138884047Y-90868600D01*
X138958685Y-90861249D01*
X139054443Y-90832201D01*
X139142695Y-90785029D01*
X139220048Y-90721548D01*
X139235955Y-90702166D01*
X139402520Y-90535600D01*
X139434370Y-90535600D01*
X139566324Y-90509353D01*
X139690622Y-90457867D01*
X139802487Y-90383121D01*
X139897621Y-90287987D01*
X139972367Y-90176122D01*
X140023853Y-90051824D01*
X140050100Y-89919870D01*
X140050100Y-89785330D01*
X140023853Y-89653376D01*
X139972367Y-89529078D01*
X139897621Y-89417213D01*
X139802487Y-89322079D01*
X139690622Y-89247333D01*
X139566324Y-89195847D01*
X139434370Y-89169600D01*
X139299830Y-89169600D01*
X139167876Y-89195847D01*
X139043578Y-89247333D01*
X138931713Y-89322079D01*
X138836579Y-89417213D01*
X138761833Y-89529078D01*
X138710347Y-89653376D01*
X138684100Y-89785330D01*
X138684100Y-89817180D01*
X138648680Y-89852600D01*
X134312043Y-89852600D01*
X134287099Y-89850143D01*
X134262155Y-89852600D01*
X134262153Y-89852600D01*
X134187515Y-89859951D01*
X134091757Y-89888999D01*
X134091755Y-89889000D01*
X134003504Y-89936171D01*
X133983990Y-89952186D01*
X133926152Y-89999652D01*
X133910249Y-90019030D01*
X133568680Y-90360600D01*
X133193200Y-90360600D01*
X133146403Y-90273050D01*
X133013091Y-90110609D01*
X132850650Y-89977297D01*
X132665322Y-89878237D01*
X132464229Y-89817236D01*
X132307502Y-89801800D01*
X130678698Y-89801800D01*
X130521971Y-89817236D01*
X130320878Y-89878237D01*
X130135550Y-89977297D01*
X129973109Y-90110609D01*
X129839797Y-90273050D01*
X129740737Y-90458378D01*
X129679736Y-90659471D01*
X129659139Y-90868600D01*
X126894501Y-90868600D01*
X126894501Y-88328600D01*
X129659139Y-88328600D01*
X129679736Y-88537729D01*
X129740737Y-88738822D01*
X129839797Y-88924150D01*
X129973109Y-89086591D01*
X130135550Y-89219903D01*
X130320878Y-89318963D01*
X130521971Y-89379964D01*
X130678698Y-89395400D01*
X132307502Y-89395400D01*
X132464229Y-89379964D01*
X132665322Y-89318963D01*
X132850650Y-89219903D01*
X133013091Y-89086591D01*
X133146403Y-88924150D01*
X133245463Y-88738822D01*
X133306464Y-88537729D01*
X133327061Y-88328600D01*
X133306464Y-88119471D01*
X133245463Y-87918378D01*
X133146403Y-87733050D01*
X133013091Y-87570609D01*
X132850650Y-87437297D01*
X132665322Y-87338237D01*
X132464229Y-87277236D01*
X132307502Y-87261800D01*
X130678698Y-87261800D01*
X130521971Y-87277236D01*
X130320878Y-87338237D01*
X130135550Y-87437297D01*
X129973109Y-87570609D01*
X129839797Y-87733050D01*
X129740737Y-87918378D01*
X129679736Y-88119471D01*
X129659139Y-88328600D01*
X126894501Y-88328600D01*
X126894501Y-85276730D01*
X136223000Y-85276730D01*
X136223000Y-85411270D01*
X136249247Y-85543224D01*
X136300733Y-85667522D01*
X136375479Y-85779387D01*
X136470613Y-85874521D01*
X136582478Y-85949267D01*
X136706776Y-86000753D01*
X136838730Y-86027000D01*
X136973270Y-86027000D01*
X137105224Y-86000753D01*
X137229522Y-85949267D01*
X137341387Y-85874521D01*
X137436521Y-85779387D01*
X137511267Y-85667522D01*
X137562753Y-85543224D01*
X137589000Y-85411270D01*
X137589000Y-85276730D01*
X137562753Y-85144776D01*
X137511267Y-85020478D01*
X137436521Y-84908613D01*
X137341387Y-84813479D01*
X137229522Y-84738733D01*
X137105224Y-84687247D01*
X136973270Y-84661000D01*
X136838730Y-84661000D01*
X136706776Y-84687247D01*
X136582478Y-84738733D01*
X136470613Y-84813479D01*
X136375479Y-84908613D01*
X136300733Y-85020478D01*
X136249247Y-85144776D01*
X136223000Y-85276730D01*
X126894501Y-85276730D01*
X126894501Y-83044001D01*
X170107700Y-83044001D01*
X170107699Y-126963199D01*
X170107699Y-126963199D01*
G37*
X170107699Y-126963199D02*
X164881319Y-126963199D01*
X164973481Y-126935242D01*
X165097033Y-126869202D01*
X165205327Y-126780327D01*
X165227602Y-126753185D01*
X169853196Y-122127593D01*
X169880327Y-122105327D01*
X169902593Y-122078196D01*
X169902597Y-122078192D01*
X169969202Y-121997033D01*
X169983224Y-121970800D01*
X170035242Y-121873481D01*
X170075909Y-121739420D01*
X170086200Y-121634936D01*
X170086200Y-121634927D01*
X170089640Y-121600001D01*
X170086200Y-121565075D01*
X170086200Y-87383425D01*
X170089640Y-87348499D01*
X170086200Y-87313573D01*
X170086200Y-87313564D01*
X170075909Y-87209080D01*
X170035242Y-87075019D01*
X169969202Y-86951467D01*
X169944959Y-86921927D01*
X169902597Y-86870308D01*
X169902588Y-86870299D01*
X169880326Y-86843173D01*
X169853201Y-86820912D01*
X166818702Y-83786415D01*
X166796427Y-83759273D01*
X166688133Y-83670398D01*
X166564581Y-83604358D01*
X166430520Y-83563691D01*
X166326036Y-83553400D01*
X166326026Y-83553400D01*
X166291100Y-83549960D01*
X166256174Y-83553400D01*
X147784025Y-83553400D01*
X147749099Y-83549960D01*
X147714173Y-83553400D01*
X147714164Y-83553400D01*
X147609680Y-83563691D01*
X147475619Y-83604358D01*
X147352067Y-83670398D01*
X147243773Y-83759273D01*
X147221503Y-83786409D01*
X143968910Y-87039003D01*
X143941774Y-87061273D01*
X143919504Y-87088409D01*
X143919503Y-87088410D01*
X143852898Y-87169568D01*
X143829397Y-87213536D01*
X143786859Y-87293119D01*
X143748708Y-87418888D01*
X143746192Y-87427181D01*
X143732460Y-87566600D01*
X143735901Y-87601536D01*
X143735900Y-89741674D01*
X143732460Y-89776600D01*
X143735900Y-89811526D01*
X143735900Y-89811535D01*
X143746191Y-89916019D01*
X143786858Y-90050080D01*
X143852898Y-90173632D01*
X143941773Y-90281926D01*
X143968910Y-90304197D01*
X144547502Y-90882790D01*
X144569773Y-90909927D01*
X144678067Y-90998802D01*
X144801619Y-91064842D01*
X144935680Y-91105509D01*
X145040164Y-91115800D01*
X145040173Y-91115800D01*
X145075099Y-91119240D01*
X145110025Y-91115800D01*
X145141151Y-91115800D01*
X145158140Y-91171806D01*
X145158992Y-91173400D01*
X135522164Y-91173400D01*
X135417680Y-91183691D01*
X135283619Y-91224358D01*
X135160067Y-91290398D01*
X135051773Y-91379273D01*
X134962898Y-91487567D01*
X134896858Y-91611119D01*
X134856191Y-91745180D01*
X134842459Y-91884600D01*
X134856191Y-92024020D01*
X134896858Y-92158081D01*
X134962898Y-92281633D01*
X135051773Y-92389927D01*
X135160067Y-92478802D01*
X135283619Y-92544842D01*
X135417680Y-92585509D01*
X135522164Y-92595800D01*
X149238174Y-92595800D01*
X149273100Y-92599240D01*
X149308026Y-92595800D01*
X149308036Y-92595800D01*
X149412520Y-92585509D01*
X149546581Y-92544842D01*
X149670133Y-92478802D01*
X149778427Y-92389927D01*
X149800701Y-92362786D01*
X150562698Y-91600791D01*
X150629302Y-91519633D01*
X150695342Y-91396082D01*
X150736009Y-91262020D01*
X150749740Y-91122600D01*
X150736009Y-90983181D01*
X150695342Y-90849119D01*
X150629302Y-90725568D01*
X150540427Y-90617273D01*
X150432132Y-90528398D01*
X150308581Y-90462358D01*
X150174519Y-90421691D01*
X150035100Y-90407960D01*
X149895680Y-90421691D01*
X149761618Y-90462358D01*
X149638067Y-90528398D01*
X149556909Y-90595002D01*
X149548531Y-90603380D01*
X149548300Y-90556400D01*
X149421500Y-90429600D01*
X148416100Y-90429600D01*
X148416100Y-90449600D01*
X148366100Y-90449600D01*
X148366100Y-90429600D01*
X147360700Y-90429600D01*
X147233900Y-90556400D01*
X147231446Y-91054600D01*
X147241239Y-91154029D01*
X147247115Y-91173400D01*
X147023208Y-91173400D01*
X147024060Y-91171806D01*
X147041489Y-91114351D01*
X147047374Y-91054600D01*
X147047374Y-89754600D01*
X147231446Y-89754600D01*
X147233900Y-90252800D01*
X147360700Y-90379600D01*
X148366100Y-90379600D01*
X148366100Y-89374200D01*
X148416100Y-89374200D01*
X148416100Y-90379600D01*
X149421500Y-90379600D01*
X149548300Y-90252800D01*
X149550754Y-89754600D01*
X149540961Y-89655171D01*
X149511959Y-89559564D01*
X149464862Y-89471451D01*
X149401480Y-89394220D01*
X149324249Y-89330838D01*
X149236136Y-89283741D01*
X149140529Y-89254739D01*
X149041100Y-89244946D01*
X148542900Y-89247400D01*
X148416100Y-89374200D01*
X148366100Y-89374200D01*
X148239300Y-89247400D01*
X147741100Y-89244946D01*
X147641671Y-89254739D01*
X147546064Y-89283741D01*
X147457951Y-89330838D01*
X147380720Y-89394220D01*
X147317338Y-89471451D01*
X147270241Y-89559564D01*
X147241239Y-89655171D01*
X147231446Y-89754600D01*
X147047374Y-89754600D01*
X147041489Y-89694849D01*
X147024060Y-89637394D01*
X146995758Y-89584443D01*
X146957668Y-89538032D01*
X146911257Y-89499942D01*
X146858306Y-89471640D01*
X146800851Y-89454211D01*
X146741100Y-89448326D01*
X145441100Y-89448326D01*
X145381349Y-89454211D01*
X145323894Y-89471640D01*
X145270943Y-89499942D01*
X145224532Y-89538032D01*
X145219929Y-89543641D01*
X145158300Y-89482013D01*
X145158300Y-87861187D01*
X148043688Y-84975800D01*
X165996513Y-84975800D01*
X168663800Y-87643089D01*
X168663801Y-121305410D01*
X164405413Y-125563800D01*
X147280488Y-125563800D01*
X146727888Y-125011200D01*
X163990074Y-125011200D01*
X164025000Y-125014640D01*
X164059926Y-125011200D01*
X164059936Y-125011200D01*
X164164420Y-125000909D01*
X164298481Y-124960242D01*
X164422033Y-124894202D01*
X164530327Y-124805327D01*
X164552602Y-124778185D01*
X167978191Y-121352597D01*
X168005327Y-121330327D01*
X168094202Y-121222033D01*
X168160242Y-121098481D01*
X168200909Y-120964420D01*
X168211200Y-120859936D01*
X168211200Y-120859927D01*
X168214640Y-120825001D01*
X168211200Y-120790075D01*
X168211200Y-92874428D01*
X168214640Y-92839500D01*
X168211200Y-92804571D01*
X168211200Y-92804564D01*
X168200909Y-92700080D01*
X168175758Y-92617168D01*
X168160242Y-92566018D01*
X168094202Y-92442467D01*
X168027597Y-92361309D01*
X168027593Y-92361305D01*
X168005326Y-92334173D01*
X167978195Y-92311907D01*
X166818702Y-91152415D01*
X166796427Y-91125273D01*
X166688141Y-91036404D01*
X166672060Y-90983394D01*
X166643758Y-90930443D01*
X166605668Y-90884032D01*
X166559257Y-90845942D01*
X166506306Y-90817640D01*
X166450300Y-90800651D01*
X166450300Y-87049528D01*
X166453740Y-87014600D01*
X166450300Y-86979671D01*
X166450300Y-86979664D01*
X166440009Y-86875180D01*
X166399342Y-86741119D01*
X166333302Y-86617567D01*
X166313837Y-86593849D01*
X166266697Y-86536409D01*
X166266693Y-86536405D01*
X166244426Y-86509273D01*
X166217295Y-86487007D01*
X165040702Y-85310415D01*
X165018427Y-85283273D01*
X164910133Y-85194398D01*
X164786581Y-85128358D01*
X164652520Y-85087691D01*
X164548036Y-85077400D01*
X164548026Y-85077400D01*
X164513100Y-85073960D01*
X164478174Y-85077400D01*
X158274025Y-85077400D01*
X158239099Y-85073960D01*
X158204173Y-85077400D01*
X158204164Y-85077400D01*
X158099680Y-85087691D01*
X157965619Y-85128358D01*
X157842067Y-85194398D01*
X157733773Y-85283273D01*
X157711502Y-85310410D01*
X157132910Y-85889003D01*
X157105774Y-85911273D01*
X157083504Y-85938409D01*
X157083503Y-85938410D01*
X157016898Y-86019568D01*
X156994174Y-86062082D01*
X156950859Y-86143119D01*
X156925776Y-86225805D01*
X156901349Y-86228211D01*
X156843894Y-86245640D01*
X156790943Y-86273942D01*
X156744532Y-86312032D01*
X156706442Y-86358443D01*
X156678140Y-86411394D01*
X156660711Y-86468849D01*
X156654826Y-86528600D01*
X156654826Y-87828600D01*
X156660711Y-87888351D01*
X156678140Y-87945806D01*
X156706442Y-87998757D01*
X156744532Y-88045168D01*
X156790943Y-88083258D01*
X156843894Y-88111560D01*
X156901349Y-88128989D01*
X156961100Y-88134874D01*
X158261100Y-88134874D01*
X158320851Y-88128989D01*
X158378306Y-88111560D01*
X158431257Y-88083258D01*
X158477668Y-88045168D01*
X158515758Y-87998757D01*
X158544060Y-87945806D01*
X158561489Y-87888351D01*
X158567374Y-87828600D01*
X158567374Y-86528600D01*
X158564537Y-86499800D01*
X164218513Y-86499800D01*
X165027900Y-87309188D01*
X165027901Y-90800650D01*
X164971894Y-90817640D01*
X164918943Y-90845942D01*
X164872532Y-90884032D01*
X164834442Y-90930443D01*
X164806140Y-90983394D01*
X164788711Y-91040849D01*
X164782826Y-91100600D01*
X164782826Y-92400600D01*
X164788711Y-92460351D01*
X164806140Y-92517806D01*
X164834442Y-92570757D01*
X164872532Y-92617168D01*
X164918943Y-92655258D01*
X164971894Y-92683560D01*
X165029349Y-92700989D01*
X165089100Y-92706874D01*
X166361587Y-92706874D01*
X166584818Y-92930105D01*
X166584136Y-92929741D01*
X166488529Y-92900739D01*
X166389100Y-92890946D01*
X165890900Y-92893400D01*
X165764100Y-93020200D01*
X165764100Y-94025600D01*
X165784100Y-94025600D01*
X165784100Y-94075600D01*
X165764100Y-94075600D01*
X165764100Y-95081000D01*
X165890900Y-95207800D01*
X166389100Y-95210254D01*
X166488529Y-95200461D01*
X166584136Y-95171459D01*
X166672249Y-95124362D01*
X166749480Y-95060980D01*
X166788800Y-95013068D01*
X166788801Y-120530411D01*
X163730413Y-123588800D01*
X146339400Y-123588800D01*
X146339400Y-123498258D01*
X146318503Y-123393200D01*
X150587074Y-123393200D01*
X150622000Y-123396640D01*
X150656926Y-123393200D01*
X150656936Y-123393200D01*
X150761420Y-123382909D01*
X150895481Y-123342242D01*
X151019033Y-123276202D01*
X151127327Y-123187327D01*
X151149601Y-123160186D01*
X151424588Y-122885200D01*
X152613412Y-122885200D01*
X152888407Y-123160195D01*
X152910673Y-123187327D01*
X152937804Y-123209593D01*
X152937808Y-123209597D01*
X153003764Y-123263726D01*
X153018967Y-123276202D01*
X153142519Y-123342242D01*
X153276580Y-123382909D01*
X153381064Y-123393200D01*
X153381081Y-123393200D01*
X153415999Y-123396639D01*
X153450917Y-123393200D01*
X163333074Y-123393200D01*
X163368000Y-123396640D01*
X163402926Y-123393200D01*
X163402936Y-123393200D01*
X163507420Y-123382909D01*
X163641481Y-123342242D01*
X163765033Y-123276202D01*
X163873327Y-123187327D01*
X163895602Y-123160185D01*
X166253191Y-120802597D01*
X166280327Y-120780327D01*
X166369202Y-120672033D01*
X166435242Y-120548481D01*
X166475909Y-120414420D01*
X166486200Y-120309936D01*
X166486200Y-120309927D01*
X166489640Y-120275001D01*
X166486200Y-120240075D01*
X166486200Y-105459925D01*
X166489640Y-105424999D01*
X166486200Y-105390073D01*
X166486200Y-105390064D01*
X166475909Y-105285580D01*
X166435242Y-105151519D01*
X166369202Y-105027967D01*
X166338733Y-104990841D01*
X166302597Y-104946809D01*
X166302593Y-104946805D01*
X166280326Y-104919673D01*
X166253195Y-104897407D01*
X163640202Y-102284415D01*
X163617927Y-102257273D01*
X163509633Y-102168398D01*
X163386081Y-102102358D01*
X163252020Y-102061691D01*
X163147536Y-102051400D01*
X163147526Y-102051400D01*
X163112600Y-102047960D01*
X163077674Y-102051400D01*
X163057049Y-102051400D01*
X163040060Y-101995394D01*
X163011758Y-101942443D01*
X162973668Y-101896032D01*
X162927257Y-101857942D01*
X162874306Y-101829640D01*
X162816851Y-101812211D01*
X162757100Y-101806326D01*
X161457100Y-101806326D01*
X161397349Y-101812211D01*
X161339894Y-101829640D01*
X161286943Y-101857942D01*
X161240532Y-101896032D01*
X161202442Y-101942443D01*
X161174140Y-101995394D01*
X161156711Y-102052849D01*
X161150826Y-102112600D01*
X161150826Y-103412600D01*
X161156711Y-103472351D01*
X161174140Y-103529806D01*
X161202442Y-103582757D01*
X161240532Y-103629168D01*
X161286943Y-103667258D01*
X161339894Y-103695560D01*
X161397349Y-103712989D01*
X161457100Y-103718874D01*
X162757100Y-103718874D01*
X162816851Y-103712989D01*
X162874306Y-103695560D01*
X162927257Y-103667258D01*
X162973510Y-103629297D01*
X163501992Y-104157780D01*
X163374269Y-104145200D01*
X163265731Y-104145200D01*
X163103421Y-104161186D01*
X162895166Y-104224360D01*
X162703236Y-104326948D01*
X162535009Y-104465009D01*
X162396948Y-104633236D01*
X162294360Y-104825166D01*
X162231186Y-105033421D01*
X162209855Y-105250000D01*
X162231186Y-105466579D01*
X162294360Y-105674834D01*
X162396948Y-105866764D01*
X162535009Y-106034991D01*
X162703236Y-106173052D01*
X162895166Y-106275640D01*
X163103421Y-106338814D01*
X163265731Y-106354800D01*
X163374269Y-106354800D01*
X163536579Y-106338814D01*
X163744834Y-106275640D01*
X163936764Y-106173052D01*
X164104991Y-106034991D01*
X164243052Y-105866764D01*
X164345640Y-105674834D01*
X164408814Y-105466579D01*
X164430145Y-105250000D01*
X164412221Y-105068008D01*
X165063800Y-105719588D01*
X165063801Y-119980411D01*
X164416591Y-120627622D01*
X164430145Y-120490000D01*
X164408814Y-120273421D01*
X164345640Y-120065166D01*
X164243052Y-119873236D01*
X164104991Y-119705009D01*
X163936764Y-119566948D01*
X163744834Y-119464360D01*
X163536579Y-119401186D01*
X163374269Y-119385200D01*
X163265731Y-119385200D01*
X163103421Y-119401186D01*
X162895166Y-119464360D01*
X162703236Y-119566948D01*
X162535009Y-119705009D01*
X162396948Y-119873236D01*
X162294360Y-120065166D01*
X162231186Y-120273421D01*
X162209855Y-120490000D01*
X162231186Y-120706579D01*
X162294360Y-120914834D01*
X162396948Y-121106764D01*
X162535009Y-121274991D01*
X162703236Y-121413052D01*
X162895166Y-121515640D01*
X163103421Y-121578814D01*
X163265731Y-121594800D01*
X163374269Y-121594800D01*
X163457622Y-121586590D01*
X163073413Y-121970800D01*
X153710588Y-121970800D01*
X153435601Y-121695814D01*
X153413327Y-121668673D01*
X153305033Y-121579798D01*
X153181481Y-121513758D01*
X153047420Y-121473091D01*
X152942936Y-121462800D01*
X152942926Y-121462800D01*
X152908000Y-121459360D01*
X152873074Y-121462800D01*
X151164917Y-121462800D01*
X151129999Y-121459361D01*
X151095081Y-121462800D01*
X151095064Y-121462800D01*
X150990580Y-121473091D01*
X150856519Y-121513758D01*
X150732967Y-121579798D01*
X150732965Y-121579799D01*
X150732966Y-121579799D01*
X150651808Y-121646403D01*
X150651804Y-121646407D01*
X150624673Y-121668673D01*
X150602407Y-121695805D01*
X150327412Y-121970800D01*
X145942628Y-121970800D01*
X145907700Y-121967360D01*
X145872771Y-121970800D01*
X145872764Y-121970800D01*
X145768280Y-121981091D01*
X145634219Y-122021758D01*
X145510667Y-122087798D01*
X145402373Y-122176673D01*
X145380104Y-122203808D01*
X145293433Y-122290479D01*
X145091442Y-122250300D01*
X144818758Y-122250300D01*
X144551315Y-122303498D01*
X144299388Y-122407849D01*
X144072660Y-122559344D01*
X143879844Y-122752160D01*
X143728349Y-122978888D01*
X143623998Y-123230815D01*
X143570800Y-123498258D01*
X143570800Y-123770942D01*
X143623998Y-124038385D01*
X143728349Y-124290312D01*
X143879844Y-124517040D01*
X144072660Y-124709856D01*
X144299388Y-124861351D01*
X144551315Y-124965702D01*
X144700487Y-124995374D01*
X146458303Y-126753191D01*
X146480573Y-126780327D01*
X146588867Y-126869202D01*
X146712419Y-126935242D01*
X146804581Y-126963199D01*
X126894501Y-126963199D01*
X126894501Y-125276258D01*
X131632800Y-125276258D01*
X131632800Y-125548942D01*
X131685998Y-125816385D01*
X131790349Y-126068312D01*
X131941844Y-126295040D01*
X132134660Y-126487856D01*
X132361388Y-126639351D01*
X132613315Y-126743702D01*
X132880758Y-126796900D01*
X133153442Y-126796900D01*
X133420885Y-126743702D01*
X133672812Y-126639351D01*
X133899540Y-126487856D01*
X134092356Y-126295040D01*
X134243851Y-126068312D01*
X134348202Y-125816385D01*
X134401400Y-125548942D01*
X134401400Y-125276258D01*
X134348202Y-125008815D01*
X134243851Y-124756888D01*
X134092356Y-124530160D01*
X133899540Y-124337344D01*
X133672812Y-124185849D01*
X133420885Y-124081498D01*
X133153442Y-124028300D01*
X132880758Y-124028300D01*
X132613315Y-124081498D01*
X132361388Y-124185849D01*
X132134660Y-124337344D01*
X131941844Y-124530160D01*
X131790349Y-124756888D01*
X131685998Y-125008815D01*
X131632800Y-125276258D01*
X126894501Y-125276258D01*
X126894501Y-123884730D01*
X141557000Y-123884730D01*
X141557000Y-124019270D01*
X141583247Y-124151224D01*
X141634733Y-124275522D01*
X141709479Y-124387387D01*
X141804613Y-124482521D01*
X141916478Y-124557267D01*
X142040776Y-124608753D01*
X142172730Y-124635000D01*
X142307270Y-124635000D01*
X142439224Y-124608753D01*
X142563522Y-124557267D01*
X142675387Y-124482521D01*
X142770521Y-124387387D01*
X142845267Y-124275522D01*
X142896753Y-124151224D01*
X142923000Y-124019270D01*
X142923000Y-123884730D01*
X142896753Y-123752776D01*
X142845267Y-123628478D01*
X142770521Y-123516613D01*
X142675387Y-123421479D01*
X142563522Y-123346733D01*
X142439224Y-123295247D01*
X142307270Y-123269000D01*
X142172730Y-123269000D01*
X142040776Y-123295247D01*
X141916478Y-123346733D01*
X141804613Y-123421479D01*
X141709479Y-123516613D01*
X141634733Y-123628478D01*
X141583247Y-123752776D01*
X141557000Y-123884730D01*
X126894501Y-123884730D01*
X126894501Y-120836730D01*
X147145000Y-120836730D01*
X147145000Y-120971270D01*
X147171247Y-121103224D01*
X147222733Y-121227522D01*
X147297479Y-121339387D01*
X147392613Y-121434521D01*
X147504478Y-121509267D01*
X147628776Y-121560753D01*
X147760730Y-121587000D01*
X147895270Y-121587000D01*
X148027224Y-121560753D01*
X148151522Y-121509267D01*
X148263387Y-121434521D01*
X148358521Y-121339387D01*
X148433267Y-121227522D01*
X148484753Y-121103224D01*
X148511000Y-120971270D01*
X148511000Y-120836730D01*
X148484753Y-120704776D01*
X148433267Y-120580478D01*
X148372812Y-120490000D01*
X154589855Y-120490000D01*
X154611186Y-120706579D01*
X154674360Y-120914834D01*
X154776948Y-121106764D01*
X154915009Y-121274991D01*
X155083236Y-121413052D01*
X155275166Y-121515640D01*
X155483421Y-121578814D01*
X155645731Y-121594800D01*
X155754269Y-121594800D01*
X155916579Y-121578814D01*
X156124834Y-121515640D01*
X156316764Y-121413052D01*
X156484991Y-121274991D01*
X156623052Y-121106764D01*
X156725640Y-120914834D01*
X156788814Y-120706579D01*
X156810145Y-120490000D01*
X156788814Y-120273421D01*
X156725640Y-120065166D01*
X156623052Y-119873236D01*
X156579962Y-119820730D01*
X158321000Y-119820730D01*
X158321000Y-119955270D01*
X158347247Y-120087224D01*
X158398733Y-120211522D01*
X158473479Y-120323387D01*
X158568613Y-120418521D01*
X158680478Y-120493267D01*
X158804776Y-120544753D01*
X158936730Y-120571000D01*
X159071270Y-120571000D01*
X159203224Y-120544753D01*
X159327522Y-120493267D01*
X159439387Y-120418521D01*
X159534521Y-120323387D01*
X159609267Y-120211522D01*
X159660753Y-120087224D01*
X159687000Y-119955270D01*
X159687000Y-119820730D01*
X159660753Y-119688776D01*
X159609267Y-119564478D01*
X159534521Y-119452613D01*
X159439387Y-119357479D01*
X159327522Y-119282733D01*
X159203224Y-119231247D01*
X159071270Y-119205000D01*
X158936730Y-119205000D01*
X158804776Y-119231247D01*
X158680478Y-119282733D01*
X158568613Y-119357479D01*
X158473479Y-119452613D01*
X158398733Y-119564478D01*
X158347247Y-119688776D01*
X158321000Y-119820730D01*
X156579962Y-119820730D01*
X156484991Y-119705009D01*
X156316764Y-119566948D01*
X156124834Y-119464360D01*
X155916579Y-119401186D01*
X155754269Y-119385200D01*
X155645731Y-119385200D01*
X155483421Y-119401186D01*
X155275166Y-119464360D01*
X155083236Y-119566948D01*
X154915009Y-119705009D01*
X154776948Y-119873236D01*
X154674360Y-120065166D01*
X154611186Y-120273421D01*
X154589855Y-120490000D01*
X148372812Y-120490000D01*
X148358521Y-120468613D01*
X148263387Y-120373479D01*
X148151522Y-120298733D01*
X148027224Y-120247247D01*
X147895270Y-120221000D01*
X147760730Y-120221000D01*
X147628776Y-120247247D01*
X147504478Y-120298733D01*
X147392613Y-120373479D01*
X147297479Y-120468613D01*
X147222733Y-120580478D01*
X147171247Y-120704776D01*
X147145000Y-120836730D01*
X126894501Y-120836730D01*
X126894501Y-119058730D01*
X151717000Y-119058730D01*
X151717000Y-119193270D01*
X151743247Y-119325224D01*
X151794733Y-119449522D01*
X151869479Y-119561387D01*
X151964613Y-119656521D01*
X152076478Y-119731267D01*
X152200776Y-119782753D01*
X152332730Y-119809000D01*
X152467270Y-119809000D01*
X152599224Y-119782753D01*
X152723522Y-119731267D01*
X152835387Y-119656521D01*
X152930521Y-119561387D01*
X153005267Y-119449522D01*
X153056753Y-119325224D01*
X153083000Y-119193270D01*
X153083000Y-119058730D01*
X153056753Y-118926776D01*
X153005267Y-118802478D01*
X152930521Y-118690613D01*
X152835387Y-118595479D01*
X152723522Y-118520733D01*
X152599224Y-118469247D01*
X152467270Y-118443000D01*
X152332730Y-118443000D01*
X152200776Y-118469247D01*
X152076478Y-118520733D01*
X151964613Y-118595479D01*
X151869479Y-118690613D01*
X151794733Y-118802478D01*
X151743247Y-118926776D01*
X151717000Y-119058730D01*
X126894501Y-119058730D01*
X126894501Y-116386258D01*
X135950800Y-116386258D01*
X135950800Y-116658942D01*
X136003998Y-116926385D01*
X136108349Y-117178312D01*
X136259844Y-117405040D01*
X136452660Y-117597856D01*
X136679388Y-117749351D01*
X136931315Y-117853702D01*
X137198758Y-117906900D01*
X137471442Y-117906900D01*
X137738885Y-117853702D01*
X137990812Y-117749351D01*
X138217540Y-117597856D01*
X138410356Y-117405040D01*
X138561851Y-117178312D01*
X138666202Y-116926385D01*
X138672592Y-116894258D01*
X145856800Y-116894258D01*
X145856800Y-117166942D01*
X145909998Y-117434385D01*
X146014349Y-117686312D01*
X146165844Y-117913040D01*
X146358660Y-118105856D01*
X146585388Y-118257351D01*
X146837315Y-118361702D01*
X147104758Y-118414900D01*
X147377442Y-118414900D01*
X147644885Y-118361702D01*
X147896812Y-118257351D01*
X148123540Y-118105856D01*
X148279396Y-117950000D01*
X154589855Y-117950000D01*
X154611186Y-118166579D01*
X154674360Y-118374834D01*
X154776948Y-118566764D01*
X154915009Y-118734991D01*
X155083236Y-118873052D01*
X155275166Y-118975640D01*
X155483421Y-119038814D01*
X155645731Y-119054800D01*
X155754269Y-119054800D01*
X155916579Y-119038814D01*
X156124834Y-118975640D01*
X156316764Y-118873052D01*
X156484991Y-118734991D01*
X156623052Y-118566764D01*
X156725640Y-118374834D01*
X156788814Y-118166579D01*
X156801011Y-118042730D01*
X160099000Y-118042730D01*
X160099000Y-118177270D01*
X160125247Y-118309224D01*
X160176733Y-118433522D01*
X160251479Y-118545387D01*
X160346613Y-118640521D01*
X160458478Y-118715267D01*
X160582776Y-118766753D01*
X160714730Y-118793000D01*
X160849270Y-118793000D01*
X160981224Y-118766753D01*
X161105522Y-118715267D01*
X161217387Y-118640521D01*
X161312521Y-118545387D01*
X161387267Y-118433522D01*
X161438753Y-118309224D01*
X161465000Y-118177270D01*
X161465000Y-118042730D01*
X161446556Y-117950000D01*
X162209855Y-117950000D01*
X162231186Y-118166579D01*
X162294360Y-118374834D01*
X162396948Y-118566764D01*
X162535009Y-118734991D01*
X162703236Y-118873052D01*
X162895166Y-118975640D01*
X163103421Y-119038814D01*
X163265731Y-119054800D01*
X163374269Y-119054800D01*
X163536579Y-119038814D01*
X163744834Y-118975640D01*
X163936764Y-118873052D01*
X164104991Y-118734991D01*
X164243052Y-118566764D01*
X164345640Y-118374834D01*
X164408814Y-118166579D01*
X164430145Y-117950000D01*
X164408814Y-117733421D01*
X164345640Y-117525166D01*
X164243052Y-117333236D01*
X164104991Y-117165009D01*
X163936764Y-117026948D01*
X163744834Y-116924360D01*
X163536579Y-116861186D01*
X163374269Y-116845200D01*
X163265731Y-116845200D01*
X163103421Y-116861186D01*
X162895166Y-116924360D01*
X162703236Y-117026948D01*
X162535009Y-117165009D01*
X162396948Y-117333236D01*
X162294360Y-117525166D01*
X162231186Y-117733421D01*
X162209855Y-117950000D01*
X161446556Y-117950000D01*
X161438753Y-117910776D01*
X161387267Y-117786478D01*
X161312521Y-117674613D01*
X161217387Y-117579479D01*
X161105522Y-117504733D01*
X160981224Y-117453247D01*
X160849270Y-117427000D01*
X160714730Y-117427000D01*
X160582776Y-117453247D01*
X160458478Y-117504733D01*
X160346613Y-117579479D01*
X160251479Y-117674613D01*
X160176733Y-117786478D01*
X160125247Y-117910776D01*
X160099000Y-118042730D01*
X156801011Y-118042730D01*
X156810145Y-117950000D01*
X156788814Y-117733421D01*
X156725640Y-117525166D01*
X156623052Y-117333236D01*
X156484991Y-117165009D01*
X156316764Y-117026948D01*
X156124834Y-116924360D01*
X155916579Y-116861186D01*
X155754269Y-116845200D01*
X155645731Y-116845200D01*
X155483421Y-116861186D01*
X155275166Y-116924360D01*
X155083236Y-117026948D01*
X154915009Y-117165009D01*
X154776948Y-117333236D01*
X154674360Y-117525166D01*
X154611186Y-117733421D01*
X154589855Y-117950000D01*
X148279396Y-117950000D01*
X148316356Y-117913040D01*
X148467851Y-117686312D01*
X148572202Y-117434385D01*
X148625400Y-117166942D01*
X148625400Y-116894258D01*
X148572202Y-116626815D01*
X148467851Y-116374888D01*
X148316356Y-116148160D01*
X148123540Y-115955344D01*
X147896812Y-115803849D01*
X147644885Y-115699498D01*
X147377442Y-115646300D01*
X147104758Y-115646300D01*
X146837315Y-115699498D01*
X146585388Y-115803849D01*
X146358660Y-115955344D01*
X146165844Y-116148160D01*
X146014349Y-116374888D01*
X145909998Y-116626815D01*
X145856800Y-116894258D01*
X138672592Y-116894258D01*
X138719400Y-116658942D01*
X138719400Y-116386258D01*
X138666202Y-116118815D01*
X138561851Y-115866888D01*
X138410356Y-115640160D01*
X138217540Y-115447344D01*
X137990812Y-115295849D01*
X137738885Y-115191498D01*
X137471442Y-115138300D01*
X137198758Y-115138300D01*
X136931315Y-115191498D01*
X136679388Y-115295849D01*
X136452660Y-115447344D01*
X136259844Y-115640160D01*
X136108349Y-115866888D01*
X136003998Y-116118815D01*
X135950800Y-116386258D01*
X126894501Y-116386258D01*
X126894501Y-115221800D01*
X129227680Y-115221800D01*
X129294946Y-115461204D01*
X129407910Y-115682942D01*
X129561963Y-115878381D01*
X129751184Y-116040011D01*
X129968302Y-116161620D01*
X130204972Y-116238535D01*
X130452100Y-116267800D01*
X131214100Y-116267800D01*
X131214100Y-115023600D01*
X131264100Y-115023600D01*
X131264100Y-116267800D01*
X132026100Y-116267800D01*
X132273228Y-116238535D01*
X132509898Y-116161620D01*
X132727016Y-116040011D01*
X132916237Y-115878381D01*
X133070290Y-115682942D01*
X133183254Y-115461204D01*
X133250520Y-115221800D01*
X133173899Y-115080261D01*
X147880095Y-115080261D01*
X147983189Y-115329414D01*
X148255284Y-115483211D01*
X148552155Y-115580969D01*
X148862393Y-115618933D01*
X149174077Y-115595643D01*
X149475228Y-115511994D01*
X149754273Y-115371200D01*
X149816811Y-115329414D01*
X149919905Y-115080261D01*
X148900000Y-114060355D01*
X147880095Y-115080261D01*
X133173899Y-115080261D01*
X133143226Y-115023600D01*
X131264100Y-115023600D01*
X131214100Y-115023600D01*
X129334974Y-115023600D01*
X129227680Y-115221800D01*
X126894501Y-115221800D01*
X126894501Y-114775400D01*
X129227680Y-114775400D01*
X129334974Y-114973600D01*
X131214100Y-114973600D01*
X131214100Y-113729400D01*
X131264100Y-113729400D01*
X131264100Y-114973600D01*
X133143226Y-114973600D01*
X133250520Y-114775400D01*
X133183254Y-114535996D01*
X133070290Y-114314258D01*
X132916237Y-114118819D01*
X132752235Y-113978730D01*
X133937000Y-113978730D01*
X133937000Y-114113270D01*
X133963247Y-114245224D01*
X134014733Y-114369522D01*
X134089479Y-114481387D01*
X134184613Y-114576521D01*
X134296478Y-114651267D01*
X134420776Y-114702753D01*
X134552730Y-114729000D01*
X134687270Y-114729000D01*
X134819224Y-114702753D01*
X134943522Y-114651267D01*
X135055387Y-114576521D01*
X135150521Y-114481387D01*
X135225267Y-114369522D01*
X135276753Y-114245224D01*
X135303000Y-114113270D01*
X135303000Y-113987393D01*
X147306067Y-113987393D01*
X147329357Y-114299077D01*
X147413006Y-114600228D01*
X147553800Y-114879273D01*
X147595586Y-114941811D01*
X147844739Y-115044905D01*
X148864645Y-114025000D01*
X148935355Y-114025000D01*
X149955261Y-115044905D01*
X150076521Y-114994730D01*
X152733000Y-114994730D01*
X152733000Y-115129270D01*
X152759247Y-115261224D01*
X152810733Y-115385522D01*
X152885479Y-115497387D01*
X152980613Y-115592521D01*
X153092478Y-115667267D01*
X153216776Y-115718753D01*
X153348730Y-115745000D01*
X153483270Y-115745000D01*
X153615224Y-115718753D01*
X153739522Y-115667267D01*
X153851387Y-115592521D01*
X153946521Y-115497387D01*
X154004911Y-115410000D01*
X154589855Y-115410000D01*
X154611186Y-115626579D01*
X154674360Y-115834834D01*
X154776948Y-116026764D01*
X154915009Y-116194991D01*
X155083236Y-116333052D01*
X155275166Y-116435640D01*
X155483421Y-116498814D01*
X155645731Y-116514800D01*
X155754269Y-116514800D01*
X155916579Y-116498814D01*
X156124834Y-116435640D01*
X156316764Y-116333052D01*
X156484991Y-116194991D01*
X156623052Y-116026764D01*
X156725640Y-115834834D01*
X156788814Y-115626579D01*
X156810145Y-115410000D01*
X162209855Y-115410000D01*
X162231186Y-115626579D01*
X162294360Y-115834834D01*
X162396948Y-116026764D01*
X162535009Y-116194991D01*
X162703236Y-116333052D01*
X162895166Y-116435640D01*
X163103421Y-116498814D01*
X163265731Y-116514800D01*
X163374269Y-116514800D01*
X163536579Y-116498814D01*
X163744834Y-116435640D01*
X163936764Y-116333052D01*
X164104991Y-116194991D01*
X164243052Y-116026764D01*
X164345640Y-115834834D01*
X164408814Y-115626579D01*
X164430145Y-115410000D01*
X164408814Y-115193421D01*
X164345640Y-114985166D01*
X164243052Y-114793236D01*
X164104991Y-114625009D01*
X163936764Y-114486948D01*
X163744834Y-114384360D01*
X163536579Y-114321186D01*
X163374269Y-114305200D01*
X163265731Y-114305200D01*
X163103421Y-114321186D01*
X162895166Y-114384360D01*
X162703236Y-114486948D01*
X162535009Y-114625009D01*
X162396948Y-114793236D01*
X162294360Y-114985166D01*
X162231186Y-115193421D01*
X162209855Y-115410000D01*
X156810145Y-115410000D01*
X156788814Y-115193421D01*
X156725640Y-114985166D01*
X156623052Y-114793236D01*
X156484991Y-114625009D01*
X156316764Y-114486948D01*
X156124834Y-114384360D01*
X155916579Y-114321186D01*
X155754269Y-114305200D01*
X155645731Y-114305200D01*
X155483421Y-114321186D01*
X155275166Y-114384360D01*
X155083236Y-114486948D01*
X154915009Y-114625009D01*
X154776948Y-114793236D01*
X154674360Y-114985166D01*
X154611186Y-115193421D01*
X154589855Y-115410000D01*
X154004911Y-115410000D01*
X154021267Y-115385522D01*
X154072753Y-115261224D01*
X154099000Y-115129270D01*
X154099000Y-114994730D01*
X154072753Y-114862776D01*
X154021267Y-114738478D01*
X153946521Y-114626613D01*
X153851387Y-114531479D01*
X153739522Y-114456733D01*
X153615224Y-114405247D01*
X153483270Y-114379000D01*
X153348730Y-114379000D01*
X153216776Y-114405247D01*
X153092478Y-114456733D01*
X152980613Y-114531479D01*
X152885479Y-114626613D01*
X152810733Y-114738478D01*
X152759247Y-114862776D01*
X152733000Y-114994730D01*
X150076521Y-114994730D01*
X150204414Y-114941811D01*
X150358211Y-114669716D01*
X150455969Y-114372845D01*
X150493933Y-114062607D01*
X150487666Y-113978730D01*
X156543000Y-113978730D01*
X156543000Y-114113270D01*
X156569247Y-114245224D01*
X156620733Y-114369522D01*
X156695479Y-114481387D01*
X156790613Y-114576521D01*
X156902478Y-114651267D01*
X157026776Y-114702753D01*
X157158730Y-114729000D01*
X157293270Y-114729000D01*
X157425224Y-114702753D01*
X157549522Y-114651267D01*
X157661387Y-114576521D01*
X157756521Y-114481387D01*
X157831267Y-114369522D01*
X157882753Y-114245224D01*
X157909000Y-114113270D01*
X157909000Y-113978730D01*
X157882753Y-113846776D01*
X157831267Y-113722478D01*
X157756521Y-113610613D01*
X157661387Y-113515479D01*
X157549522Y-113440733D01*
X157425224Y-113389247D01*
X157293270Y-113363000D01*
X157158730Y-113363000D01*
X157026776Y-113389247D01*
X156902478Y-113440733D01*
X156790613Y-113515479D01*
X156695479Y-113610613D01*
X156620733Y-113722478D01*
X156569247Y-113846776D01*
X156543000Y-113978730D01*
X150487666Y-113978730D01*
X150470643Y-113750923D01*
X150386994Y-113449772D01*
X150246200Y-113170727D01*
X150204414Y-113108189D01*
X149955261Y-113005095D01*
X148935355Y-114025000D01*
X148864645Y-114025000D01*
X147844739Y-113005095D01*
X147595586Y-113108189D01*
X147441789Y-113380284D01*
X147344031Y-113677155D01*
X147306067Y-113987393D01*
X135303000Y-113987393D01*
X135303000Y-113978730D01*
X135276753Y-113846776D01*
X135225267Y-113722478D01*
X135150521Y-113610613D01*
X135055387Y-113515479D01*
X134943522Y-113440733D01*
X134819224Y-113389247D01*
X134687270Y-113363000D01*
X134552730Y-113363000D01*
X134420776Y-113389247D01*
X134296478Y-113440733D01*
X134184613Y-113515479D01*
X134089479Y-113610613D01*
X134014733Y-113722478D01*
X133963247Y-113846776D01*
X133937000Y-113978730D01*
X132752235Y-113978730D01*
X132727016Y-113957189D01*
X132509898Y-113835580D01*
X132273228Y-113758665D01*
X132026100Y-113729400D01*
X131264100Y-113729400D01*
X131214100Y-113729400D01*
X130452100Y-113729400D01*
X130204972Y-113758665D01*
X129968302Y-113835580D01*
X129751184Y-113957189D01*
X129561963Y-114118819D01*
X129407910Y-114314258D01*
X129294946Y-114535996D01*
X129227680Y-114775400D01*
X126894501Y-114775400D01*
X126894501Y-104330600D01*
X127730460Y-104330600D01*
X127733901Y-104365536D01*
X127733900Y-110899674D01*
X127730460Y-110934600D01*
X127733900Y-110969526D01*
X127733900Y-110969535D01*
X127744191Y-111074019D01*
X127784858Y-111208080D01*
X127850898Y-111331632D01*
X127939773Y-111439926D01*
X127966910Y-111462197D01*
X129441507Y-112936796D01*
X129463773Y-112963927D01*
X129490904Y-112986193D01*
X129490908Y-112986197D01*
X129572066Y-113052802D01*
X129594556Y-113064823D01*
X129719109Y-113216591D01*
X129881550Y-113349903D01*
X130066878Y-113448963D01*
X130267971Y-113509964D01*
X130424698Y-113525400D01*
X132053502Y-113525400D01*
X132210229Y-113509964D01*
X132411322Y-113448963D01*
X132596650Y-113349903D01*
X132759091Y-113216591D01*
X132892403Y-113054150D01*
X132937521Y-112969739D01*
X147880095Y-112969739D01*
X148900000Y-113989645D01*
X149919905Y-112969739D01*
X149878636Y-112870000D01*
X154589855Y-112870000D01*
X154611186Y-113086579D01*
X154674360Y-113294834D01*
X154776948Y-113486764D01*
X154915009Y-113654991D01*
X155083236Y-113793052D01*
X155275166Y-113895640D01*
X155483421Y-113958814D01*
X155645731Y-113974800D01*
X155754269Y-113974800D01*
X155916579Y-113958814D01*
X156124834Y-113895640D01*
X156316764Y-113793052D01*
X156484991Y-113654991D01*
X156623052Y-113486764D01*
X156725640Y-113294834D01*
X156788814Y-113086579D01*
X156810145Y-112870000D01*
X162209855Y-112870000D01*
X162231186Y-113086579D01*
X162294360Y-113294834D01*
X162396948Y-113486764D01*
X162535009Y-113654991D01*
X162703236Y-113793052D01*
X162895166Y-113895640D01*
X163103421Y-113958814D01*
X163265731Y-113974800D01*
X163374269Y-113974800D01*
X163536579Y-113958814D01*
X163744834Y-113895640D01*
X163936764Y-113793052D01*
X164104991Y-113654991D01*
X164243052Y-113486764D01*
X164345640Y-113294834D01*
X164408814Y-113086579D01*
X164430145Y-112870000D01*
X164408814Y-112653421D01*
X164345640Y-112445166D01*
X164243052Y-112253236D01*
X164104991Y-112085009D01*
X163936764Y-111946948D01*
X163744834Y-111844360D01*
X163536579Y-111781186D01*
X163374269Y-111765200D01*
X163265731Y-111765200D01*
X163103421Y-111781186D01*
X162895166Y-111844360D01*
X162703236Y-111946948D01*
X162535009Y-112085009D01*
X162396948Y-112253236D01*
X162294360Y-112445166D01*
X162231186Y-112653421D01*
X162209855Y-112870000D01*
X156810145Y-112870000D01*
X156788814Y-112653421D01*
X156725640Y-112445166D01*
X156623052Y-112253236D01*
X156484991Y-112085009D01*
X156316764Y-111946948D01*
X156124834Y-111844360D01*
X155916579Y-111781186D01*
X155754269Y-111765200D01*
X155645731Y-111765200D01*
X155483421Y-111781186D01*
X155275166Y-111844360D01*
X155083236Y-111946948D01*
X154915009Y-112085009D01*
X154776948Y-112253236D01*
X154674360Y-112445166D01*
X154611186Y-112653421D01*
X154589855Y-112870000D01*
X149878636Y-112870000D01*
X149816811Y-112720586D01*
X149544716Y-112566789D01*
X149247845Y-112469031D01*
X148937607Y-112431067D01*
X148625923Y-112454357D01*
X148324772Y-112538006D01*
X148045727Y-112678800D01*
X147983189Y-112720586D01*
X147880095Y-112969739D01*
X132937521Y-112969739D01*
X132991463Y-112868822D01*
X133052464Y-112667729D01*
X133073061Y-112458600D01*
X133052464Y-112249471D01*
X132991463Y-112048378D01*
X132892403Y-111863050D01*
X132759091Y-111700609D01*
X132749491Y-111692730D01*
X159591000Y-111692730D01*
X159591000Y-111827270D01*
X159617247Y-111959224D01*
X159668733Y-112083522D01*
X159743479Y-112195387D01*
X159838613Y-112290521D01*
X159950478Y-112365267D01*
X160074776Y-112416753D01*
X160206730Y-112443000D01*
X160341270Y-112443000D01*
X160473224Y-112416753D01*
X160597522Y-112365267D01*
X160709387Y-112290521D01*
X160804521Y-112195387D01*
X160879267Y-112083522D01*
X160930753Y-111959224D01*
X160957000Y-111827270D01*
X160957000Y-111692730D01*
X160930753Y-111560776D01*
X160879267Y-111436478D01*
X160804521Y-111324613D01*
X160709387Y-111229479D01*
X160597522Y-111154733D01*
X160473224Y-111103247D01*
X160341270Y-111077000D01*
X160206730Y-111077000D01*
X160074776Y-111103247D01*
X159950478Y-111154733D01*
X159838613Y-111229479D01*
X159743479Y-111324613D01*
X159668733Y-111436478D01*
X159617247Y-111560776D01*
X159591000Y-111692730D01*
X132749491Y-111692730D01*
X132596650Y-111567297D01*
X132411322Y-111468237D01*
X132210229Y-111407236D01*
X132053502Y-111391800D01*
X130424698Y-111391800D01*
X130267971Y-111407236D01*
X130066878Y-111468237D01*
X130013211Y-111496923D01*
X129156300Y-110640013D01*
X129156300Y-110330000D01*
X154589855Y-110330000D01*
X154611186Y-110546579D01*
X154674360Y-110754834D01*
X154776948Y-110946764D01*
X154915009Y-111114991D01*
X155083236Y-111253052D01*
X155275166Y-111355640D01*
X155483421Y-111418814D01*
X155645731Y-111434800D01*
X155754269Y-111434800D01*
X155916579Y-111418814D01*
X156124834Y-111355640D01*
X156316764Y-111253052D01*
X156484991Y-111114991D01*
X156623052Y-110946764D01*
X156725640Y-110754834D01*
X156785001Y-110559146D01*
X162033041Y-110559146D01*
X162043315Y-110610794D01*
X162122626Y-110854468D01*
X162247952Y-111077987D01*
X162414476Y-111272761D01*
X162615799Y-111431305D01*
X162844184Y-111547527D01*
X163090854Y-111616960D01*
X163295000Y-111510162D01*
X163295000Y-110355000D01*
X163345000Y-110355000D01*
X163345000Y-111510162D01*
X163549146Y-111616960D01*
X163795816Y-111547527D01*
X164024201Y-111431305D01*
X164225524Y-111272761D01*
X164392048Y-111077987D01*
X164517374Y-110854468D01*
X164596685Y-110610794D01*
X164606959Y-110559146D01*
X164500135Y-110355000D01*
X163345000Y-110355000D01*
X163295000Y-110355000D01*
X162139865Y-110355000D01*
X162033041Y-110559146D01*
X156785001Y-110559146D01*
X156788814Y-110546579D01*
X156810145Y-110330000D01*
X156788814Y-110113421D01*
X156785002Y-110100854D01*
X162033041Y-110100854D01*
X162139865Y-110305000D01*
X163295000Y-110305000D01*
X163295000Y-109149838D01*
X163345000Y-109149838D01*
X163345000Y-110305000D01*
X164500135Y-110305000D01*
X164606959Y-110100854D01*
X164596685Y-110049206D01*
X164517374Y-109805532D01*
X164392048Y-109582013D01*
X164225524Y-109387239D01*
X164024201Y-109228695D01*
X163795816Y-109112473D01*
X163549146Y-109043040D01*
X163345000Y-109149838D01*
X163295000Y-109149838D01*
X163090854Y-109043040D01*
X162844184Y-109112473D01*
X162615799Y-109228695D01*
X162414476Y-109387239D01*
X162247952Y-109582013D01*
X162122626Y-109805532D01*
X162043315Y-110049206D01*
X162033041Y-110100854D01*
X156785002Y-110100854D01*
X156725640Y-109905166D01*
X156623052Y-109713236D01*
X156484991Y-109545009D01*
X156316764Y-109406948D01*
X156124834Y-109304360D01*
X155916579Y-109241186D01*
X155754269Y-109225200D01*
X155645731Y-109225200D01*
X155483421Y-109241186D01*
X155275166Y-109304360D01*
X155083236Y-109406948D01*
X154915009Y-109545009D01*
X154776948Y-109713236D01*
X154674360Y-109905166D01*
X154611186Y-110113421D01*
X154589855Y-110330000D01*
X129156300Y-110330000D01*
X129156300Y-108109800D01*
X129227680Y-108109800D01*
X129294946Y-108349204D01*
X129407910Y-108570942D01*
X129561963Y-108766381D01*
X129751184Y-108928011D01*
X129968302Y-109049620D01*
X130204972Y-109126535D01*
X130452100Y-109155800D01*
X131214100Y-109155800D01*
X131214100Y-107911600D01*
X131264100Y-107911600D01*
X131264100Y-109155800D01*
X132026100Y-109155800D01*
X132273228Y-109126535D01*
X132509898Y-109049620D01*
X132727016Y-108928011D01*
X132916237Y-108766381D01*
X133070290Y-108570942D01*
X133183254Y-108349204D01*
X133250520Y-108109800D01*
X133143226Y-107911600D01*
X131264100Y-107911600D01*
X131214100Y-107911600D01*
X129334974Y-107911600D01*
X129227680Y-108109800D01*
X129156300Y-108109800D01*
X129156300Y-107663400D01*
X129227680Y-107663400D01*
X129334974Y-107861600D01*
X131214100Y-107861600D01*
X131214100Y-106617400D01*
X131264100Y-106617400D01*
X131264100Y-107861600D01*
X133143226Y-107861600D01*
X133181986Y-107790000D01*
X154589855Y-107790000D01*
X154611186Y-108006579D01*
X154674360Y-108214834D01*
X154776948Y-108406764D01*
X154915009Y-108574991D01*
X155083236Y-108713052D01*
X155275166Y-108815640D01*
X155483421Y-108878814D01*
X155645731Y-108894800D01*
X155754269Y-108894800D01*
X155916579Y-108878814D01*
X156124834Y-108815640D01*
X156316764Y-108713052D01*
X156484991Y-108574991D01*
X156623052Y-108406764D01*
X156725640Y-108214834D01*
X156788814Y-108006579D01*
X156810145Y-107790000D01*
X162209855Y-107790000D01*
X162231186Y-108006579D01*
X162294360Y-108214834D01*
X162396948Y-108406764D01*
X162535009Y-108574991D01*
X162703236Y-108713052D01*
X162895166Y-108815640D01*
X163103421Y-108878814D01*
X163265731Y-108894800D01*
X163374269Y-108894800D01*
X163536579Y-108878814D01*
X163744834Y-108815640D01*
X163936764Y-108713052D01*
X164104991Y-108574991D01*
X164243052Y-108406764D01*
X164345640Y-108214834D01*
X164408814Y-108006579D01*
X164430145Y-107790000D01*
X164408814Y-107573421D01*
X164345640Y-107365166D01*
X164243052Y-107173236D01*
X164104991Y-107005009D01*
X163936764Y-106866948D01*
X163744834Y-106764360D01*
X163536579Y-106701186D01*
X163374269Y-106685200D01*
X163265731Y-106685200D01*
X163103421Y-106701186D01*
X162895166Y-106764360D01*
X162703236Y-106866948D01*
X162535009Y-107005009D01*
X162396948Y-107173236D01*
X162294360Y-107365166D01*
X162231186Y-107573421D01*
X162209855Y-107790000D01*
X156810145Y-107790000D01*
X156788814Y-107573421D01*
X156725640Y-107365166D01*
X156623052Y-107173236D01*
X156484991Y-107005009D01*
X156316764Y-106866948D01*
X156124834Y-106764360D01*
X155916579Y-106701186D01*
X155754269Y-106685200D01*
X155645731Y-106685200D01*
X155483421Y-106701186D01*
X155275166Y-106764360D01*
X155083236Y-106866948D01*
X154915009Y-107005009D01*
X154776948Y-107173236D01*
X154674360Y-107365166D01*
X154611186Y-107573421D01*
X154589855Y-107790000D01*
X133181986Y-107790000D01*
X133250520Y-107663400D01*
X133183254Y-107423996D01*
X133070290Y-107202258D01*
X132916237Y-107006819D01*
X132727016Y-106845189D01*
X132509898Y-106723580D01*
X132273228Y-106646665D01*
X132026100Y-106617400D01*
X131264100Y-106617400D01*
X131214100Y-106617400D01*
X130452100Y-106617400D01*
X130204972Y-106646665D01*
X129968302Y-106723580D01*
X129751184Y-106845189D01*
X129561963Y-107006819D01*
X129407910Y-107202258D01*
X129294946Y-107423996D01*
X129227680Y-107663400D01*
X129156300Y-107663400D01*
X129156300Y-105346600D01*
X129405139Y-105346600D01*
X129425736Y-105555729D01*
X129486737Y-105756822D01*
X129585797Y-105942150D01*
X129719109Y-106104591D01*
X129881550Y-106237903D01*
X130066878Y-106336963D01*
X130267971Y-106397964D01*
X130424698Y-106413400D01*
X132053502Y-106413400D01*
X132210229Y-106397964D01*
X132411322Y-106336963D01*
X132596650Y-106237903D01*
X132759091Y-106104591D01*
X132892403Y-105942150D01*
X132991463Y-105756822D01*
X133052464Y-105555729D01*
X133073061Y-105346600D01*
X133052464Y-105137471D01*
X132991463Y-104936378D01*
X132892403Y-104751050D01*
X132759091Y-104588609D01*
X132596650Y-104455297D01*
X132586741Y-104450000D01*
X154593726Y-104450000D01*
X154593726Y-106050000D01*
X154599611Y-106109751D01*
X154617040Y-106167206D01*
X154645342Y-106220157D01*
X154683432Y-106266568D01*
X154729843Y-106304658D01*
X154782794Y-106332960D01*
X154840249Y-106350389D01*
X154900000Y-106356274D01*
X156500000Y-106356274D01*
X156559751Y-106350389D01*
X156617206Y-106332960D01*
X156647137Y-106316962D01*
X156620733Y-106356478D01*
X156569247Y-106480776D01*
X156543000Y-106612730D01*
X156543000Y-106747270D01*
X156569247Y-106879224D01*
X156620733Y-107003522D01*
X156695479Y-107115387D01*
X156790613Y-107210521D01*
X156902478Y-107285267D01*
X157026776Y-107336753D01*
X157158730Y-107363000D01*
X157293270Y-107363000D01*
X157425224Y-107336753D01*
X157549522Y-107285267D01*
X157661387Y-107210521D01*
X157756521Y-107115387D01*
X157831267Y-107003522D01*
X157882753Y-106879224D01*
X157885238Y-106866730D01*
X159591000Y-106866730D01*
X159591000Y-107001270D01*
X159617247Y-107133224D01*
X159668733Y-107257522D01*
X159743479Y-107369387D01*
X159838613Y-107464521D01*
X159950478Y-107539267D01*
X160074776Y-107590753D01*
X160206730Y-107617000D01*
X160341270Y-107617000D01*
X160473224Y-107590753D01*
X160597522Y-107539267D01*
X160709387Y-107464521D01*
X160804521Y-107369387D01*
X160879267Y-107257522D01*
X160930753Y-107133224D01*
X160957000Y-107001270D01*
X160957000Y-106866730D01*
X160930753Y-106734776D01*
X160879267Y-106610478D01*
X160804521Y-106498613D01*
X160709387Y-106403479D01*
X160597522Y-106328733D01*
X160473224Y-106277247D01*
X160341270Y-106251000D01*
X160206730Y-106251000D01*
X160074776Y-106277247D01*
X159950478Y-106328733D01*
X159838613Y-106403479D01*
X159743479Y-106498613D01*
X159668733Y-106610478D01*
X159617247Y-106734776D01*
X159591000Y-106866730D01*
X157885238Y-106866730D01*
X157909000Y-106747270D01*
X157909000Y-106612730D01*
X157882753Y-106480776D01*
X157831267Y-106356478D01*
X157756521Y-106244613D01*
X157661387Y-106149479D01*
X157549522Y-106074733D01*
X157425224Y-106023247D01*
X157293270Y-105997000D01*
X157158730Y-105997000D01*
X157026776Y-106023247D01*
X156902478Y-106074733D01*
X156790613Y-106149479D01*
X156787347Y-106152745D01*
X156800389Y-106109751D01*
X156806274Y-106050000D01*
X156806274Y-104450000D01*
X156800389Y-104390249D01*
X156782960Y-104332794D01*
X156754658Y-104279843D01*
X156716568Y-104233432D01*
X156670157Y-104195342D01*
X156617206Y-104167040D01*
X156559751Y-104149611D01*
X156500000Y-104143726D01*
X154900000Y-104143726D01*
X154840249Y-104149611D01*
X154782794Y-104167040D01*
X154729843Y-104195342D01*
X154683432Y-104233432D01*
X154645342Y-104279843D01*
X154617040Y-104332794D01*
X154599611Y-104390249D01*
X154593726Y-104450000D01*
X132586741Y-104450000D01*
X132411322Y-104356237D01*
X132210229Y-104295236D01*
X132053502Y-104279800D01*
X130424698Y-104279800D01*
X130267971Y-104295236D01*
X130066878Y-104356237D01*
X129881550Y-104455297D01*
X129719109Y-104588609D01*
X129585797Y-104751050D01*
X129486737Y-104936378D01*
X129425736Y-105137471D01*
X129405139Y-105346600D01*
X129156300Y-105346600D01*
X129156300Y-104625187D01*
X130368888Y-103412600D01*
X158647446Y-103412600D01*
X158657239Y-103512029D01*
X158686241Y-103607636D01*
X158733338Y-103695749D01*
X158796720Y-103772980D01*
X158873951Y-103836362D01*
X158962064Y-103883459D01*
X159057671Y-103912461D01*
X159157100Y-103922254D01*
X159655300Y-103919800D01*
X159782100Y-103793000D01*
X159782100Y-102787600D01*
X159832100Y-102787600D01*
X159832100Y-103793000D01*
X159958900Y-103919800D01*
X160457100Y-103922254D01*
X160556529Y-103912461D01*
X160652136Y-103883459D01*
X160740249Y-103836362D01*
X160817480Y-103772980D01*
X160880862Y-103695749D01*
X160927959Y-103607636D01*
X160956961Y-103512029D01*
X160966754Y-103412600D01*
X160964300Y-102914400D01*
X160837500Y-102787600D01*
X159832100Y-102787600D01*
X159782100Y-102787600D01*
X158776700Y-102787600D01*
X158649900Y-102914400D01*
X158647446Y-103412600D01*
X130368888Y-103412600D01*
X131279689Y-102501800D01*
X155080174Y-102501800D01*
X155115100Y-102505240D01*
X155150026Y-102501800D01*
X155150036Y-102501800D01*
X155254520Y-102491509D01*
X155388581Y-102450842D01*
X155512133Y-102384802D01*
X155620427Y-102295927D01*
X155642702Y-102268785D01*
X155798887Y-102112600D01*
X158647446Y-102112600D01*
X158649900Y-102610800D01*
X158776700Y-102737600D01*
X159782100Y-102737600D01*
X159782100Y-101732200D01*
X159832100Y-101732200D01*
X159832100Y-102737600D01*
X160837500Y-102737600D01*
X160964300Y-102610800D01*
X160966754Y-102112600D01*
X160956961Y-102013171D01*
X160927959Y-101917564D01*
X160880862Y-101829451D01*
X160817480Y-101752220D01*
X160740249Y-101688838D01*
X160652136Y-101641741D01*
X160556529Y-101612739D01*
X160457100Y-101602946D01*
X159958900Y-101605400D01*
X159832100Y-101732200D01*
X159782100Y-101732200D01*
X159655300Y-101605400D01*
X159157100Y-101602946D01*
X159057671Y-101612739D01*
X158962064Y-101641741D01*
X158873951Y-101688838D01*
X158796720Y-101752220D01*
X158733338Y-101829451D01*
X158686241Y-101917564D01*
X158657239Y-102013171D01*
X158647446Y-102112600D01*
X155798887Y-102112600D01*
X157625210Y-100286279D01*
X157652341Y-100264013D01*
X157674607Y-100236882D01*
X157674611Y-100236878D01*
X157741216Y-100155719D01*
X157774644Y-100093179D01*
X157807256Y-100032167D01*
X157847923Y-99898106D01*
X157858214Y-99793622D01*
X157858214Y-99793613D01*
X157861654Y-99758687D01*
X157858214Y-99723761D01*
X157858214Y-93449273D01*
X159282826Y-92024662D01*
X159282826Y-93569086D01*
X158525810Y-94326103D01*
X158498673Y-94348374D01*
X158409798Y-94456668D01*
X158343758Y-94580220D01*
X158303091Y-94714281D01*
X158292800Y-94818765D01*
X158292800Y-94818774D01*
X158289360Y-94853700D01*
X158292800Y-94888626D01*
X158292801Y-99533064D01*
X158289360Y-99568000D01*
X158292801Y-99602936D01*
X158303092Y-99707420D01*
X158329241Y-99793622D01*
X158343759Y-99841481D01*
X158409798Y-99965032D01*
X158476403Y-100046190D01*
X158498674Y-100073327D01*
X158525810Y-100095597D01*
X159595784Y-101165572D01*
X159618054Y-101192708D01*
X159645190Y-101214978D01*
X159726348Y-101281583D01*
X159849899Y-101347623D01*
X159918791Y-101368521D01*
X159983961Y-101388290D01*
X160088445Y-101398581D01*
X160088452Y-101398581D01*
X160123381Y-101402021D01*
X160158309Y-101398581D01*
X161547546Y-101398581D01*
X161652030Y-101388290D01*
X161786091Y-101347623D01*
X161909643Y-101281583D01*
X162017937Y-101192708D01*
X162106812Y-101084414D01*
X162172852Y-100960862D01*
X162213519Y-100826801D01*
X162227251Y-100687381D01*
X162213519Y-100547961D01*
X162184496Y-100452284D01*
X162477007Y-100744796D01*
X162499273Y-100771927D01*
X162526404Y-100794193D01*
X162526408Y-100794197D01*
X162607567Y-100860802D01*
X162731119Y-100926842D01*
X162865180Y-100967509D01*
X162969664Y-100977800D01*
X162969673Y-100977800D01*
X163004599Y-100981240D01*
X163039525Y-100977800D01*
X163577425Y-100977800D01*
X163691844Y-101149040D01*
X163884660Y-101341856D01*
X164111388Y-101493351D01*
X164363315Y-101597702D01*
X164630758Y-101650900D01*
X164903442Y-101650900D01*
X165170885Y-101597702D01*
X165422812Y-101493351D01*
X165649540Y-101341856D01*
X165842356Y-101149040D01*
X165993851Y-100922312D01*
X166098202Y-100670385D01*
X166151400Y-100402942D01*
X166151400Y-100130258D01*
X166098202Y-99862815D01*
X165993851Y-99610888D01*
X165842356Y-99384160D01*
X165649540Y-99191344D01*
X165422812Y-99039849D01*
X165170885Y-98935498D01*
X164903442Y-98882300D01*
X164630758Y-98882300D01*
X164363315Y-98935498D01*
X164111388Y-99039849D01*
X163884660Y-99191344D01*
X163691844Y-99384160D01*
X163577425Y-99555400D01*
X163299189Y-99555400D01*
X161962163Y-98218375D01*
X162016851Y-98212989D01*
X162074306Y-98195560D01*
X162127257Y-98167258D01*
X162173668Y-98129168D01*
X162211758Y-98082757D01*
X162240060Y-98029806D01*
X162257489Y-97972351D01*
X162263374Y-97912600D01*
X162263374Y-96612600D01*
X162257489Y-96552849D01*
X162240060Y-96495394D01*
X162211758Y-96442443D01*
X162173668Y-96396032D01*
X162127257Y-96357942D01*
X162074306Y-96329640D01*
X162016851Y-96312211D01*
X161957100Y-96306326D01*
X159957100Y-96306326D01*
X159897349Y-96312211D01*
X159839894Y-96329640D01*
X159786943Y-96357942D01*
X159740532Y-96396032D01*
X159715200Y-96426898D01*
X159715200Y-95148287D01*
X160162887Y-94700600D01*
X164579446Y-94700600D01*
X164589239Y-94800029D01*
X164618241Y-94895636D01*
X164665338Y-94983749D01*
X164728720Y-95060980D01*
X164805951Y-95124362D01*
X164894064Y-95171459D01*
X164989671Y-95200461D01*
X165089100Y-95210254D01*
X165587300Y-95207800D01*
X165714100Y-95081000D01*
X165714100Y-94075600D01*
X164708700Y-94075600D01*
X164581900Y-94202400D01*
X164579446Y-94700600D01*
X160162887Y-94700600D01*
X160656614Y-94206874D01*
X160889100Y-94206874D01*
X160948851Y-94200989D01*
X161006306Y-94183560D01*
X161059257Y-94155258D01*
X161105668Y-94117168D01*
X161143758Y-94070757D01*
X161172060Y-94017806D01*
X161189489Y-93960351D01*
X161195374Y-93900600D01*
X161195374Y-93400600D01*
X164579446Y-93400600D01*
X164581900Y-93898800D01*
X164708700Y-94025600D01*
X165714100Y-94025600D01*
X165714100Y-93020200D01*
X165587300Y-92893400D01*
X165089100Y-92890946D01*
X164989671Y-92900739D01*
X164894064Y-92929741D01*
X164805951Y-92976838D01*
X164728720Y-93040220D01*
X164665338Y-93117451D01*
X164618241Y-93205564D01*
X164589239Y-93301171D01*
X164579446Y-93400600D01*
X161195374Y-93400600D01*
X161195374Y-92950113D01*
X163721301Y-90424188D01*
X163748426Y-90401927D01*
X163770688Y-90374801D01*
X163770698Y-90374791D01*
X163837302Y-90293633D01*
X163903342Y-90170082D01*
X163944009Y-90036020D01*
X163949157Y-89983750D01*
X163954300Y-89931536D01*
X163954300Y-89931529D01*
X163957740Y-89896600D01*
X163954300Y-89861672D01*
X163954300Y-89264275D01*
X164125540Y-89149856D01*
X164318356Y-88957040D01*
X164469851Y-88730312D01*
X164574202Y-88478385D01*
X164627400Y-88210942D01*
X164627400Y-87938258D01*
X164574202Y-87670815D01*
X164469851Y-87418888D01*
X164318356Y-87192160D01*
X164125540Y-86999344D01*
X163898812Y-86847849D01*
X163646885Y-86743498D01*
X163379442Y-86690300D01*
X163106758Y-86690300D01*
X162839315Y-86743498D01*
X162587388Y-86847849D01*
X162360660Y-86999344D01*
X162167844Y-87192160D01*
X162016349Y-87418888D01*
X161911998Y-87670815D01*
X161858800Y-87938258D01*
X161858800Y-88210942D01*
X161911998Y-88478385D01*
X162016349Y-88730312D01*
X162167844Y-88957040D01*
X162360660Y-89149856D01*
X162531900Y-89264275D01*
X162531900Y-89602011D01*
X160539586Y-91594326D01*
X159713162Y-91594326D01*
X159960697Y-91346791D01*
X160027302Y-91265633D01*
X160093341Y-91142082D01*
X160134009Y-91008020D01*
X160147740Y-90868600D01*
X160134009Y-90729181D01*
X160093341Y-90595119D01*
X160027302Y-90471568D01*
X159938427Y-90363273D01*
X159830132Y-90274398D01*
X159706581Y-90208359D01*
X159572519Y-90167691D01*
X159433100Y-90153960D01*
X159293680Y-90167691D01*
X159159618Y-90208359D01*
X159036067Y-90274398D01*
X158954909Y-90341003D01*
X156668825Y-92627088D01*
X156641687Y-92649360D01*
X156552812Y-92757654D01*
X156486772Y-92881206D01*
X156446105Y-93015267D01*
X156435814Y-93119751D01*
X156435814Y-93119760D01*
X156432374Y-93154686D01*
X156435814Y-93189612D01*
X156435814Y-95779902D01*
X156391391Y-95735479D01*
X156279526Y-95660733D01*
X156155228Y-95609247D01*
X156023274Y-95583000D01*
X155888734Y-95583000D01*
X155756780Y-95609247D01*
X155632482Y-95660733D01*
X155535813Y-95725325D01*
X155565342Y-95670081D01*
X155606009Y-95536020D01*
X155616300Y-95431536D01*
X155616300Y-90128600D01*
X156451446Y-90128600D01*
X156461239Y-90228029D01*
X156490241Y-90323636D01*
X156537338Y-90411749D01*
X156600720Y-90488980D01*
X156677951Y-90552362D01*
X156766064Y-90599459D01*
X156861671Y-90628461D01*
X156961100Y-90638254D01*
X157459300Y-90635800D01*
X157586100Y-90509000D01*
X157586100Y-89503600D01*
X157636100Y-89503600D01*
X157636100Y-90509000D01*
X157762900Y-90635800D01*
X158261100Y-90638254D01*
X158360529Y-90628461D01*
X158456136Y-90599459D01*
X158544249Y-90552362D01*
X158621480Y-90488980D01*
X158684862Y-90411749D01*
X158731959Y-90323636D01*
X158760961Y-90228029D01*
X158770754Y-90128600D01*
X158768300Y-89630400D01*
X158641500Y-89503600D01*
X157636100Y-89503600D01*
X157586100Y-89503600D01*
X156580700Y-89503600D01*
X156453900Y-89630400D01*
X156451446Y-90128600D01*
X155616300Y-90128600D01*
X155616300Y-89887517D01*
X155619739Y-89852599D01*
X155616300Y-89817681D01*
X155616300Y-89817664D01*
X155606009Y-89713180D01*
X155565342Y-89579119D01*
X155522388Y-89498757D01*
X155499302Y-89455566D01*
X155432697Y-89374408D01*
X155432688Y-89374399D01*
X155410426Y-89347273D01*
X155383301Y-89325012D01*
X154886889Y-88828600D01*
X156451446Y-88828600D01*
X156453900Y-89326800D01*
X156580700Y-89453600D01*
X157586100Y-89453600D01*
X157586100Y-88448200D01*
X157636100Y-88448200D01*
X157636100Y-89453600D01*
X158641500Y-89453600D01*
X158768300Y-89326800D01*
X158770754Y-88828600D01*
X158760961Y-88729171D01*
X158731959Y-88633564D01*
X158684862Y-88545451D01*
X158621480Y-88468220D01*
X158544249Y-88404838D01*
X158456136Y-88357741D01*
X158360529Y-88328739D01*
X158261100Y-88318946D01*
X157762900Y-88321400D01*
X157636100Y-88448200D01*
X157586100Y-88448200D01*
X157459300Y-88321400D01*
X156961100Y-88318946D01*
X156861671Y-88328739D01*
X156766064Y-88357741D01*
X156677951Y-88404838D01*
X156600720Y-88468220D01*
X156537338Y-88545451D01*
X156490241Y-88633564D01*
X156461239Y-88729171D01*
X156451446Y-88828600D01*
X154886889Y-88828600D01*
X153908702Y-87850414D01*
X153886427Y-87823273D01*
X153778133Y-87734398D01*
X153654581Y-87668358D01*
X153520520Y-87627691D01*
X153416036Y-87617400D01*
X153416026Y-87617400D01*
X153381100Y-87613960D01*
X153346174Y-87617400D01*
X153067374Y-87617400D01*
X153067374Y-87328600D01*
X153061489Y-87268849D01*
X153044060Y-87211394D01*
X153015758Y-87158443D01*
X152977668Y-87112032D01*
X152931257Y-87073942D01*
X152878306Y-87045640D01*
X152820851Y-87028211D01*
X152761100Y-87022326D01*
X151461100Y-87022326D01*
X151401349Y-87028211D01*
X151343894Y-87045640D01*
X151290943Y-87073942D01*
X151244532Y-87112032D01*
X151206442Y-87158443D01*
X151178140Y-87211394D01*
X151160711Y-87268849D01*
X151154826Y-87328600D01*
X151154826Y-87617400D01*
X149120101Y-87617400D01*
X149080202Y-87416815D01*
X148975851Y-87164888D01*
X148824356Y-86938160D01*
X148631540Y-86745344D01*
X148404812Y-86593849D01*
X148152885Y-86489498D01*
X147885442Y-86436300D01*
X147612758Y-86436300D01*
X147345315Y-86489498D01*
X147093388Y-86593849D01*
X146866660Y-86745344D01*
X146673844Y-86938160D01*
X146522349Y-87164888D01*
X146417998Y-87416815D01*
X146364800Y-87684258D01*
X146364800Y-87956942D01*
X146417998Y-88224385D01*
X146522349Y-88476312D01*
X146673844Y-88703040D01*
X146866660Y-88895856D01*
X147093388Y-89047351D01*
X147345315Y-89151702D01*
X147612758Y-89204900D01*
X147885442Y-89204900D01*
X148152885Y-89151702D01*
X148404812Y-89047351D01*
X148416113Y-89039800D01*
X151154826Y-89039800D01*
X151154826Y-89328600D01*
X151160711Y-89388351D01*
X151178140Y-89445806D01*
X151206442Y-89498757D01*
X151244532Y-89545168D01*
X151290943Y-89583258D01*
X151343894Y-89611560D01*
X151401349Y-89628989D01*
X151461100Y-89634874D01*
X152761100Y-89634874D01*
X152820851Y-89628989D01*
X152878306Y-89611560D01*
X152931257Y-89583258D01*
X152977668Y-89545168D01*
X153015758Y-89498757D01*
X153044060Y-89445806D01*
X153061489Y-89388351D01*
X153067374Y-89328600D01*
X153067374Y-89039800D01*
X153086513Y-89039800D01*
X154193900Y-90147189D01*
X154193901Y-92827387D01*
X154121621Y-92719213D01*
X154026487Y-92624079D01*
X153914622Y-92549333D01*
X153790324Y-92497847D01*
X153658370Y-92471600D01*
X153523830Y-92471600D01*
X153391876Y-92497847D01*
X153267578Y-92549333D01*
X153155713Y-92624079D01*
X153133192Y-92646600D01*
X133008206Y-92646600D01*
X132850650Y-92517297D01*
X132665322Y-92418237D01*
X132464229Y-92357236D01*
X132307502Y-92341800D01*
X130678698Y-92341800D01*
X130521971Y-92357236D01*
X130320878Y-92418237D01*
X130135550Y-92517297D01*
X129973109Y-92650609D01*
X129839797Y-92813050D01*
X129740737Y-92998378D01*
X129679736Y-93199471D01*
X129659139Y-93408600D01*
X129679736Y-93617729D01*
X129740737Y-93818822D01*
X129839797Y-94004150D01*
X129973109Y-94166591D01*
X130135550Y-94299903D01*
X130320878Y-94398963D01*
X130521971Y-94459964D01*
X130678698Y-94475400D01*
X132307502Y-94475400D01*
X132464229Y-94459964D01*
X132665322Y-94398963D01*
X132850650Y-94299903D01*
X133013091Y-94166591D01*
X133146403Y-94004150D01*
X133245463Y-93818822D01*
X133292853Y-93662600D01*
X141101801Y-93662600D01*
X140997388Y-93705849D01*
X140770660Y-93857344D01*
X140577844Y-94050160D01*
X140426349Y-94276888D01*
X140321998Y-94528815D01*
X140268800Y-94796258D01*
X140268800Y-95068942D01*
X140321998Y-95336385D01*
X140426349Y-95588312D01*
X140577844Y-95815040D01*
X140770660Y-96007856D01*
X140997388Y-96159351D01*
X141249315Y-96263702D01*
X141516758Y-96316900D01*
X141789442Y-96316900D01*
X141991433Y-96276721D01*
X142097507Y-96382796D01*
X142119773Y-96409927D01*
X142146904Y-96432193D01*
X142146909Y-96432198D01*
X142228067Y-96498802D01*
X142351618Y-96564842D01*
X142485680Y-96605509D01*
X142590164Y-96615800D01*
X142590171Y-96615800D01*
X142625100Y-96619240D01*
X142660028Y-96615800D01*
X145941151Y-96615800D01*
X145958140Y-96671806D01*
X145986442Y-96724757D01*
X146024532Y-96771168D01*
X146070943Y-96809258D01*
X146123894Y-96837560D01*
X146181349Y-96854989D01*
X146241100Y-96860874D01*
X148241100Y-96860874D01*
X148300851Y-96854989D01*
X148358306Y-96837560D01*
X148411257Y-96809258D01*
X148457668Y-96771168D01*
X148495758Y-96724757D01*
X148524060Y-96671806D01*
X148541049Y-96615800D01*
X150458513Y-96615800D01*
X151080909Y-97238197D01*
X151162067Y-97304802D01*
X151285618Y-97370841D01*
X151419680Y-97411508D01*
X151559099Y-97425240D01*
X151698519Y-97411508D01*
X151832581Y-97370841D01*
X151956132Y-97304802D01*
X152064427Y-97215927D01*
X152153302Y-97107632D01*
X152219341Y-96984081D01*
X152260008Y-96850019D01*
X152273740Y-96710599D01*
X152260008Y-96571180D01*
X152219341Y-96437118D01*
X152153302Y-96313567D01*
X152086697Y-96232409D01*
X151280702Y-95426414D01*
X151258427Y-95399273D01*
X151150133Y-95310398D01*
X151026581Y-95244358D01*
X150892520Y-95203691D01*
X150788036Y-95193400D01*
X150788026Y-95193400D01*
X150753100Y-95189960D01*
X150718174Y-95193400D01*
X148541049Y-95193400D01*
X148524060Y-95137394D01*
X148495758Y-95084443D01*
X148457668Y-95038032D01*
X148411257Y-94999942D01*
X148358306Y-94971640D01*
X148300851Y-94954211D01*
X148241100Y-94948326D01*
X146241100Y-94948326D01*
X146181349Y-94954211D01*
X146123894Y-94971640D01*
X146070943Y-94999942D01*
X146024532Y-95038032D01*
X145986442Y-95084443D01*
X145958140Y-95137394D01*
X145941151Y-95193400D01*
X143012644Y-95193400D01*
X143037400Y-95068942D01*
X143037400Y-94796258D01*
X142984202Y-94528815D01*
X142879851Y-94276888D01*
X142728356Y-94050160D01*
X142535540Y-93857344D01*
X142308812Y-93705849D01*
X142204399Y-93662600D01*
X153133192Y-93662600D01*
X153155713Y-93685121D01*
X153267578Y-93759867D01*
X153391876Y-93811353D01*
X153481333Y-93829147D01*
X153470776Y-93831247D01*
X153346478Y-93882733D01*
X153234613Y-93957479D01*
X153139479Y-94052613D01*
X153064733Y-94164478D01*
X153013247Y-94288776D01*
X152987000Y-94420730D01*
X152987000Y-94555270D01*
X153013247Y-94687224D01*
X153064733Y-94811522D01*
X153139479Y-94923387D01*
X153234613Y-95018521D01*
X153346478Y-95093267D01*
X153470776Y-95144753D01*
X153602730Y-95171000D01*
X153737270Y-95171000D01*
X153869224Y-95144753D01*
X153993522Y-95093267D01*
X154105387Y-95018521D01*
X154193901Y-94930007D01*
X154193901Y-95431536D01*
X154204192Y-95536020D01*
X154244859Y-95670081D01*
X154310899Y-95793633D01*
X154399774Y-95901927D01*
X154508068Y-95990802D01*
X154631620Y-96056842D01*
X154765681Y-96097509D01*
X154905100Y-96111241D01*
X155044520Y-96097509D01*
X155178581Y-96056842D01*
X155302133Y-95990802D01*
X155345443Y-95955258D01*
X155299251Y-96066776D01*
X155273004Y-96198730D01*
X155273004Y-96230580D01*
X155236239Y-96267345D01*
X155236234Y-96267349D01*
X152307266Y-99196318D01*
X152321000Y-99127270D01*
X152321000Y-98992730D01*
X152294753Y-98860776D01*
X152243267Y-98736478D01*
X152168521Y-98624613D01*
X152073387Y-98529479D01*
X151961522Y-98454733D01*
X151837224Y-98403247D01*
X151705270Y-98377000D01*
X151570730Y-98377000D01*
X151438776Y-98403247D01*
X151314478Y-98454733D01*
X151202613Y-98529479D01*
X151107479Y-98624613D01*
X151032733Y-98736478D01*
X150981247Y-98860776D01*
X150955000Y-98992730D01*
X150955000Y-99127270D01*
X150981247Y-99259224D01*
X151032733Y-99383522D01*
X151107479Y-99495387D01*
X151116692Y-99504600D01*
X138053520Y-99504600D01*
X134155955Y-95607035D01*
X134140048Y-95587652D01*
X134062695Y-95524171D01*
X133974443Y-95476999D01*
X133878685Y-95447951D01*
X133804047Y-95440600D01*
X133804044Y-95440600D01*
X133779100Y-95438143D01*
X133754156Y-95440600D01*
X133193200Y-95440600D01*
X133146403Y-95353050D01*
X133013091Y-95190609D01*
X132850650Y-95057297D01*
X132665322Y-94958237D01*
X132464229Y-94897236D01*
X132307502Y-94881800D01*
X130678698Y-94881800D01*
X130521971Y-94897236D01*
X130320878Y-94958237D01*
X130135550Y-95057297D01*
X129973109Y-95190609D01*
X129839797Y-95353050D01*
X129740737Y-95538378D01*
X129679736Y-95739471D01*
X129659139Y-95948600D01*
X129679736Y-96157729D01*
X129740737Y-96358822D01*
X129839797Y-96544150D01*
X129973109Y-96706591D01*
X130135550Y-96839903D01*
X130320878Y-96938963D01*
X130521971Y-96999964D01*
X130678698Y-97015400D01*
X132307502Y-97015400D01*
X132464229Y-96999964D01*
X132665322Y-96938963D01*
X132850650Y-96839903D01*
X133013091Y-96706591D01*
X133146403Y-96544150D01*
X133193200Y-96456600D01*
X133568680Y-96456600D01*
X137466245Y-100354165D01*
X137482152Y-100373548D01*
X137521719Y-100406019D01*
X137559504Y-100437029D01*
X137601723Y-100459595D01*
X137647757Y-100484201D01*
X137743515Y-100513249D01*
X137818153Y-100520600D01*
X137818156Y-100520600D01*
X137843100Y-100523057D01*
X137868044Y-100520600D01*
X151538197Y-100520600D01*
X151489247Y-100638776D01*
X151463000Y-100770730D01*
X151463000Y-100905270D01*
X151489247Y-101037224D01*
X151506717Y-101079400D01*
X131020017Y-101079400D01*
X130985099Y-101075961D01*
X130950181Y-101079400D01*
X130950164Y-101079400D01*
X130845680Y-101089691D01*
X130711619Y-101130358D01*
X130588067Y-101196398D01*
X130506908Y-101263003D01*
X130506904Y-101263007D01*
X130479773Y-101285273D01*
X130457507Y-101312404D01*
X127966910Y-103803003D01*
X127939774Y-103825273D01*
X127850899Y-103933567D01*
X127784859Y-104057119D01*
X127744192Y-104191180D01*
X127735464Y-104279800D01*
X127730460Y-104330600D01*
X126894501Y-104330600D01*
X126894501Y-90868600D01*
X129659139Y-90868600D01*
X129679736Y-91077729D01*
X129740737Y-91278822D01*
X129839797Y-91464150D01*
X129973109Y-91626591D01*
X130135550Y-91759903D01*
X130320878Y-91858963D01*
X130521971Y-91919964D01*
X130678698Y-91935400D01*
X132307502Y-91935400D01*
X132464229Y-91919964D01*
X132665322Y-91858963D01*
X132850650Y-91759903D01*
X133013091Y-91626591D01*
X133146403Y-91464150D01*
X133193200Y-91376600D01*
X133754156Y-91376600D01*
X133779100Y-91379057D01*
X133804044Y-91376600D01*
X133804047Y-91376600D01*
X133878685Y-91369249D01*
X133974443Y-91340201D01*
X134062695Y-91293029D01*
X134140048Y-91229548D01*
X134155955Y-91210166D01*
X134497521Y-90868600D01*
X138834156Y-90868600D01*
X138859100Y-90871057D01*
X138884044Y-90868600D01*
X138884047Y-90868600D01*
X138958685Y-90861249D01*
X139054443Y-90832201D01*
X139142695Y-90785029D01*
X139220048Y-90721548D01*
X139235955Y-90702166D01*
X139402520Y-90535600D01*
X139434370Y-90535600D01*
X139566324Y-90509353D01*
X139690622Y-90457867D01*
X139802487Y-90383121D01*
X139897621Y-90287987D01*
X139972367Y-90176122D01*
X140023853Y-90051824D01*
X140050100Y-89919870D01*
X140050100Y-89785330D01*
X140023853Y-89653376D01*
X139972367Y-89529078D01*
X139897621Y-89417213D01*
X139802487Y-89322079D01*
X139690622Y-89247333D01*
X139566324Y-89195847D01*
X139434370Y-89169600D01*
X139299830Y-89169600D01*
X139167876Y-89195847D01*
X139043578Y-89247333D01*
X138931713Y-89322079D01*
X138836579Y-89417213D01*
X138761833Y-89529078D01*
X138710347Y-89653376D01*
X138684100Y-89785330D01*
X138684100Y-89817180D01*
X138648680Y-89852600D01*
X134312043Y-89852600D01*
X134287099Y-89850143D01*
X134262155Y-89852600D01*
X134262153Y-89852600D01*
X134187515Y-89859951D01*
X134091757Y-89888999D01*
X134091755Y-89889000D01*
X134003504Y-89936171D01*
X133983990Y-89952186D01*
X133926152Y-89999652D01*
X133910249Y-90019030D01*
X133568680Y-90360600D01*
X133193200Y-90360600D01*
X133146403Y-90273050D01*
X133013091Y-90110609D01*
X132850650Y-89977297D01*
X132665322Y-89878237D01*
X132464229Y-89817236D01*
X132307502Y-89801800D01*
X130678698Y-89801800D01*
X130521971Y-89817236D01*
X130320878Y-89878237D01*
X130135550Y-89977297D01*
X129973109Y-90110609D01*
X129839797Y-90273050D01*
X129740737Y-90458378D01*
X129679736Y-90659471D01*
X129659139Y-90868600D01*
X126894501Y-90868600D01*
X126894501Y-88328600D01*
X129659139Y-88328600D01*
X129679736Y-88537729D01*
X129740737Y-88738822D01*
X129839797Y-88924150D01*
X129973109Y-89086591D01*
X130135550Y-89219903D01*
X130320878Y-89318963D01*
X130521971Y-89379964D01*
X130678698Y-89395400D01*
X132307502Y-89395400D01*
X132464229Y-89379964D01*
X132665322Y-89318963D01*
X132850650Y-89219903D01*
X133013091Y-89086591D01*
X133146403Y-88924150D01*
X133245463Y-88738822D01*
X133306464Y-88537729D01*
X133327061Y-88328600D01*
X133306464Y-88119471D01*
X133245463Y-87918378D01*
X133146403Y-87733050D01*
X133013091Y-87570609D01*
X132850650Y-87437297D01*
X132665322Y-87338237D01*
X132464229Y-87277236D01*
X132307502Y-87261800D01*
X130678698Y-87261800D01*
X130521971Y-87277236D01*
X130320878Y-87338237D01*
X130135550Y-87437297D01*
X129973109Y-87570609D01*
X129839797Y-87733050D01*
X129740737Y-87918378D01*
X129679736Y-88119471D01*
X129659139Y-88328600D01*
X126894501Y-88328600D01*
X126894501Y-85276730D01*
X136223000Y-85276730D01*
X136223000Y-85411270D01*
X136249247Y-85543224D01*
X136300733Y-85667522D01*
X136375479Y-85779387D01*
X136470613Y-85874521D01*
X136582478Y-85949267D01*
X136706776Y-86000753D01*
X136838730Y-86027000D01*
X136973270Y-86027000D01*
X137105224Y-86000753D01*
X137229522Y-85949267D01*
X137341387Y-85874521D01*
X137436521Y-85779387D01*
X137511267Y-85667522D01*
X137562753Y-85543224D01*
X137589000Y-85411270D01*
X137589000Y-85276730D01*
X137562753Y-85144776D01*
X137511267Y-85020478D01*
X137436521Y-84908613D01*
X137341387Y-84813479D01*
X137229522Y-84738733D01*
X137105224Y-84687247D01*
X136973270Y-84661000D01*
X136838730Y-84661000D01*
X136706776Y-84687247D01*
X136582478Y-84738733D01*
X136470613Y-84813479D01*
X136375479Y-84908613D01*
X136300733Y-85020478D01*
X136249247Y-85144776D01*
X136223000Y-85276730D01*
X126894501Y-85276730D01*
X126894501Y-83044001D01*
X170107700Y-83044001D01*
X170107699Y-126963199D01*
G36*
X159740532Y-98129168D02*
G01*
X159786943Y-98167258D01*
X159839894Y-98195560D01*
X159897349Y-98212989D01*
X159957100Y-98218874D01*
X160242482Y-98218874D01*
X160242460Y-98219100D01*
X160245901Y-98254036D01*
X160256192Y-98358520D01*
X160296859Y-98492581D01*
X160362899Y-98616133D01*
X160451774Y-98724427D01*
X160478910Y-98746697D01*
X161747707Y-100015495D01*
X161652030Y-99986472D01*
X161547546Y-99976181D01*
X160417969Y-99976181D01*
X159715200Y-99273413D01*
X159715200Y-98098302D01*
X159740532Y-98129168D01*
X159740532Y-98129168D01*
G37*
X159740532Y-98129168D02*
X159786943Y-98167258D01*
X159839894Y-98195560D01*
X159897349Y-98212989D01*
X159957100Y-98218874D01*
X160242482Y-98218874D01*
X160242460Y-98219100D01*
X160245901Y-98254036D01*
X160256192Y-98358520D01*
X160296859Y-98492581D01*
X160362899Y-98616133D01*
X160451774Y-98724427D01*
X160478910Y-98746697D01*
X161747707Y-100015495D01*
X161652030Y-99986472D01*
X161547546Y-99976181D01*
X160417969Y-99976181D01*
X159715200Y-99273413D01*
X159715200Y-98098302D01*
X159740532Y-98129168D01*
M02*
